<svg width="16" height="17" viewBox="0 0 16 17" fill="none" xmlns="http://www.w3.org/2000/svg">
<g clip-path="url(#clip0_488_21585)">
<path d="M12.8066 1.86328H13.6938V2.30773H12.8066V1.86328Z" fill="#66757F"/>
<path d="M0.888672 5.41797V14.3069C0.888672 15.2886 1.68467 16.0846 2.66645 16.0846H13.3331C14.3149 16.0846 15.1109 15.2886 15.1109 14.3069V5.41797H0.888672Z" fill="#CCD6DD"/>
<path d="M13.3331 1.86328H2.66645C1.68467 1.86328 0.888672 2.65928 0.888672 3.64106V5.86328H15.1109V3.64106C15.1109 2.65928 14.3149 1.86328 13.3331 1.86328Z" fill="#DD2E44"/>
<path d="M3.92622 3.96809C3.61422 3.96809 3.36133 3.67209 3.36133 3.30631C3.36133 2.94098 3.61422 2.64453 3.92622 2.64453C4.23777 2.64453 4.49066 2.94098 4.49066 3.30631C4.49066 3.67164 4.23777 3.96809 3.92622 3.96809ZM6.59288 3.96809C6.28088 3.96809 6.02799 3.67209 6.02799 3.30631C6.02799 2.94098 6.28088 2.64453 6.59288 2.64453C6.90444 2.64453 7.15733 2.94098 7.15733 3.30631C7.15733 3.67164 6.90444 3.96809 6.59288 3.96809ZM9.25955 3.96809C8.94755 3.96809 8.69466 3.67209 8.69466 3.30631C8.69466 2.94098 8.94755 2.64453 9.25955 2.64453C9.57111 2.64453 9.82444 2.94098 9.82444 3.30631C9.82399 3.67164 9.57111 3.96809 9.25955 3.96809ZM11.9262 3.96809C11.6142 3.96809 11.3613 3.67209 11.3613 3.30631C11.3613 2.94098 11.6142 2.64453 11.9262 2.64453C12.2378 2.64453 12.4911 2.94098 12.4911 3.30631C12.4907 3.67164 12.2378 3.96809 11.9262 3.96809Z" fill="#292F33"/>
<path d="M12.1395 0.164062C11.572 0.164062 11.0804 0.520507 10.8089 1.03962C10.5395 0.531618 10.0458 0.164062 9.47287 0.164062C8.90532 0.164062 8.41376 0.520507 8.14221 1.03962C7.87287 0.531618 7.3791 0.164062 6.80621 0.164062C6.23865 0.164062 5.7471 0.520507 5.47554 1.03962C5.20621 0.531618 4.71243 0.164062 4.13954 0.164062C3.27998 0.164062 2.58398 0.972507 2.58398 1.94406C2.58398 2.76806 3.04843 3.44228 3.72576 3.68895C4.0631 3.81117 4.26976 3.49028 4.24087 3.23295C4.21643 3.01962 4.07465 2.88051 3.91687 2.78051C3.70132 2.64406 3.47243 2.33251 3.47243 1.94628C3.47243 1.45562 3.77065 1.01517 4.1391 1.01517C4.50754 1.01517 4.80576 1.4174 4.80576 1.86184H5.25732C5.25598 1.8894 5.25021 1.91562 5.25021 1.94362C5.25021 2.76762 5.71465 3.44184 6.39198 3.68851C6.72932 3.81073 6.93598 3.48984 6.90709 3.23251C6.88265 3.01962 6.74087 2.88051 6.58309 2.78051C6.36754 2.64406 6.13865 2.33251 6.13865 1.94628C6.13865 1.45562 6.43687 1.01517 6.80532 1.01517C7.17376 1.01517 7.47287 1.41784 7.47287 1.86228H7.92443C7.92309 1.88984 7.91732 1.91606 7.91732 1.94406C7.91732 2.76806 8.38176 3.44228 9.0591 3.68895C9.39643 3.81117 9.60309 3.49028 9.57421 3.23295C9.54976 3.02006 9.40798 2.88095 9.25021 2.78095C9.03465 2.64451 8.80576 2.33295 8.80576 1.94673C8.80576 1.45606 9.10398 1.01562 9.47243 1.01562C9.84087 1.01562 10.1395 1.41784 10.1395 1.86228H10.5911C10.5898 1.88984 10.584 1.91606 10.584 1.94406C10.584 2.76806 11.0484 3.44228 11.7258 3.68895C12.0631 3.81117 12.2698 3.49028 12.2409 3.23295C12.2164 3.02006 12.0746 2.88095 11.9169 2.78095C11.7013 2.64451 11.4724 2.33295 11.4724 1.94673C11.4724 1.45606 11.7706 1.01562 12.1391 1.01562C12.5075 1.01562 12.8062 1.41784 12.8062 1.86228H13.6933C13.684 0.973396 12.9929 0.164062 12.1395 0.164062Z" fill="#66757F"/>
<path d="M4.88824 6.75391H6.66602V8.53168H4.88824V6.75391ZM7.11046 6.75391H8.88824V8.53168H7.11046V6.75391ZM9.33268 6.75391H11.1105V8.53168H9.33268V6.75391ZM11.5549 6.75391H13.3327V8.53168H11.5549V6.75391ZM2.66602 8.97613H4.44379V10.7539H2.66602V8.97613ZM4.88824 8.97613H6.66602V10.7539H4.88824V8.97613ZM7.11046 8.97613H8.88824V10.7539H7.11046V8.97613ZM9.33268 8.97613H11.1105V10.7539H9.33268V8.97613ZM11.5549 8.97613H13.3327V10.7539H11.5549V8.97613ZM2.66602 11.1984H4.44379V12.9761H2.66602V11.1984ZM4.88824 11.1984H6.66602V12.9761H4.88824V11.1984ZM7.11046 11.1984H8.88824V12.9761H7.11046V11.1984ZM9.33268 11.1984H11.1105V12.9761H9.33268V11.1984ZM11.5549 11.1984H13.3327V12.9761H11.5549V11.1984ZM2.66602 13.4206H4.44379V15.1984H2.66602V13.4206ZM4.88824 13.4206H6.66602V15.1984H4.88824V13.4206ZM7.11046 13.4206H8.88824V15.1984H7.11046V13.4206Z" fill="white"/>
</g>
<defs>
<clipPath id="clip0_488_21585">
<rect width="16" height="16" fill="white" transform="translate(0 0.0859375)"/>
</clipPath>
</defs>
</svg>
