<svg preserveAspectRatio="none" width="100%" height="100%" overflow="visible" style="display: block;" viewBox="0 0 24 24" fill="none" xmlns="http://www.w3.org/2000/svg">
<g id="directions">
<mask id="mask0_0_18" style="mask-type:alpha" maskUnits="userSpaceOnUse" x="0" y="0" width="24" height="24">
<rect id="Bounding box" width="24" height="24" fill="#D9D9D9"/>
</mask>
<g mask="url(#mask0_0_18)">
<path id="directions_2" d="M10.0001 12.001H13.5001V13.301C13.5001 13.5343 13.6001 13.6926 13.8001 13.776C14.0001 13.8593 14.1834 13.8176 14.3501 13.651L16.3001 11.701C16.5001 11.501 16.6001 11.2676 16.6001 11.001C16.6001 10.7343 16.5001 10.501 16.3001 10.301L14.3501 8.35098C14.1834 8.18431 14.0001 8.14264 13.8001 8.22598C13.6001 8.30931 13.5001 8.46764 13.5001 8.70098V10.001H9.00006C8.71673 10.001 8.47923 10.0968 8.28756 10.2885C8.09589 10.4801 8.00006 10.7176 8.00006 11.001V14.001C8.00006 14.2843 8.09589 14.5218 8.28756 14.7135C8.47923 14.9051 8.71673 15.001 9.00006 15.001C9.28339 15.001 9.52089 14.9051 9.71256 14.7135C9.90423 14.5218 10.0001 14.2843 10.0001 14.001V12.001ZM12.0001 22.001C11.7501 22.001 11.5042 21.951 11.2626 21.851C11.0209 21.751 10.8001 21.601 10.6001 21.401L2.60006 13.401C2.40006 13.201 2.25006 12.9801 2.15006 12.7385C2.05006 12.4968 2.00006 12.251 2.00006 12.001C2.00006 11.751 2.05006 11.5051 2.15006 11.2635C2.25006 11.0218 2.40006 10.801 2.60006 10.601L10.6001 2.60098C10.8001 2.40098 11.0209 2.25098 11.2626 2.15098C11.5042 2.05098 11.7501 2.00098 12.0001 2.00098C12.2501 2.00098 12.4959 2.05098 12.7376 2.15098C12.9792 2.25098 13.2001 2.40098 13.4001 2.60098L21.4001 10.601C21.6001 10.801 21.7501 11.0218 21.8501 11.2635C21.9501 11.5051 22.0001 11.751 22.0001 12.001C22.0001 12.251 21.9501 12.4968 21.8501 12.7385C21.7501 12.9801 21.6001 13.201 21.4001 13.401L13.4001 21.401C13.2001 21.601 12.9792 21.751 12.7376 21.851C12.4959 21.951 12.2501 22.001 12.0001 22.001ZM12.0001 20.001L20.0001 12.001L12.0001 4.00098L4.00006 12.001L12.0001 20.001Z" fill="#0060A8"/>
</g>
</g>
</svg>
