<svg width="24" height="24" viewBox="0 0 24 24" fill="none" xmlns="http://www.w3.org/2000/svg">
<path d="M1.33333 7.33301C0 7.33301 0 8.66634 0 8.66634V22.6663C0 22.6663 0 23.9997 1.33333 23.9997H22.6667C24 23.9997 24 22.6663 24 22.6663V8.66634C24 8.66634 24 7.33301 22.6667 7.33301H1.33333Z" fill="#5C913B"/>
<path d="M1.33333 4C0 4 0 5.33333 0 5.33333V18.6667C0 18.6667 0 20 1.33333 20H22.6667C24 20 24 18.6667 24 18.6667V5.33333C24 5.33333 24 4 22.6667 4H1.33333Z" fill="#A7D28B"/>
<path d="M16.6654 16.3337C19.0586 16.3337 20.9987 14.3936 20.9987 12.0003C20.9987 9.60709 19.0586 7.66699 16.6654 7.66699C14.2721 7.66699 12.332 9.60709 12.332 12.0003C12.332 14.3936 14.2721 16.3337 16.6654 16.3337Z" fill="#77B255"/>
<path d="M22 19H2C1.44867 19 1 18.5513 1 18V6C1 5.44867 1.44867 5 2 5H22C22.5513 5 23 5.44867 23 6V18C23 18.5513 22.5513 19 22 19ZM2 5.66667C1.81667 5.66667 1.66667 5.816 1.66667 6V18C1.66667 18.1833 1.81667 18.3333 2 18.3333H22C22.1833 18.3333 22.3333 18.1833 22.3333 18V6C22.3333 5.816 22.1833 5.66667 22 5.66667H2Z" fill="#5C913B"/>
<path d="M9.33203 4H14.6654V20.0413H9.33203V4Z" fill="#FFE8B6"/>
<path d="M9.33203 20H14.6654V24H9.33203V20Z" fill="#FFAC33"/>
<path d="M7.87297 13.3489C7.87297 11.3629 4.21097 11.4922 4.21097 10.2929C4.21097 9.7122 4.7663 9.42887 5.4103 9.42887C6.49364 9.42887 6.6863 10.1249 7.17697 10.1249C7.5243 10.1249 7.69164 9.9062 7.69164 9.66087C7.69164 9.0902 6.82763 8.65953 5.99897 8.5102V7.9602C5.99897 7.61687 5.72097 7.33887 5.37764 7.33887C5.0343 7.33887 4.7563 7.61753 4.7563 7.9602V8.52887C3.85364 8.73553 3.07564 9.3622 3.07564 10.3829C3.07564 12.2909 6.73764 12.2135 6.73764 13.5549C6.73764 14.0182 6.23497 14.4822 5.40964 14.4822C4.17164 14.4822 3.75897 13.6442 3.25697 13.6442C3.01164 13.6442 2.79297 13.8502 2.79297 14.1609C2.79297 14.6549 3.61964 15.2482 4.75764 15.4149L4.75697 15.4175V16.0402C4.75697 16.3829 5.03564 16.6615 5.37897 16.6615C5.72164 16.6609 5.99964 16.3822 5.99964 16.0402V15.4175C5.99964 15.4109 5.9963 15.4049 5.99564 15.3989C7.01897 15.2075 7.87297 14.5415 7.87297 13.3489Z" fill="#5C913B"/>
</svg>
