<svg preserveAspectRatio="none" width="100%" height="100%" overflow="visible" style="display: block;" viewBox="0 0 21.3695 19.6586" fill="none" xmlns="http://www.w3.org/2000/svg">
  <path d="M8.03681 11.0914C7.85574 10.0814 7.68882 9.1393 7.5219 8.19436C7.37479 7.36542 7.2305 6.53365 7.08904 5.7047C7.03529 5.38501 7.03246 5.06531 7.34932 4.87293C7.68882 4.66923 7.97174 4.88142 8.249 5.05683C9.81069 6.04703 11.3696 7.04007 12.9284 8.03027C13.0501 8.10666 13.1802 8.17173 13.3386 8.25943C13.4858 7.41351 13.5876 6.61003 13.7687 5.82353C14.1563 4.13735 14.5835 2.45966 14.9937 0.781972C15.0248 0.651831 15.0418 0.504715 15.121 0.405694C15.2512 0.244433 15.4152 0.0181001 15.5822 0.00112515C15.7406 -0.0158498 15.9952 0.162387 16.0858 0.323649C17.1382 2.17392 18.1991 4.02136 19.1922 5.90557C19.9108 7.2664 20.5304 8.67532 21.1924 10.0644C21.4668 10.6444 21.4555 10.8481 20.9208 11.1904C19.0535 12.3843 17.1835 13.5754 15.2738 14.7014C13.1463 15.9547 10.9735 17.1288 8.82614 18.3454C8.20939 18.6962 7.61243 19.081 6.99285 19.4318C6.33083 19.8052 5.97718 19.7345 5.57544 19.0923C4.21462 16.9251 2.87077 14.7467 1.52692 12.5711C1.14498 11.9543 0.777193 11.3291 0.403744 10.7095C0.341503 10.6076 0.270775 10.5114 0.217021 10.4096C0.0501007 10.0899 -0.130966 9.75323 0.134975 9.41373C0.398087 9.07706 0.763048 9.1591 1.11669 9.25247C3.32909 9.84376 5.54432 10.4351 7.75672 11.0263C7.82745 11.0462 7.89818 11.0575 8.04247 11.0914H8.03681ZM20.4936 10.7463C18.9743 7.56912 17.5173 4.49383 15.7717 1.45814C15.2681 3.57152 14.7872 5.58305 14.309 7.59458C14.2044 8.04159 14.1223 8.49142 14.0176 8.93843C13.9243 9.33734 13.6583 9.47031 13.2849 9.31188C13.1349 9.24964 12.9963 9.16193 12.8577 9.07423C11.4375 8.19153 10.02 7.30601 8.60264 6.42331C8.45552 6.33278 8.30558 6.2479 8.08207 6.11493C8.11602 6.33278 8.13583 6.46009 8.15563 6.58457C8.42157 8.21982 8.69317 9.85225 8.95628 11.4875C9.02418 11.9204 8.87707 12.1014 8.43006 12.0958C8.1528 12.0929 7.87272 12.0364 7.60395 11.9628C5.65183 11.4281 3.69971 10.8821 1.74759 10.3445C1.61179 10.3077 1.46751 10.2936 1.23269 10.254C2.94998 13.1539 4.61919 15.9661 6.27424 18.7584C11.0244 16.082 15.7463 13.4198 20.4908 10.7434L20.4936 10.7463Z" fill="#0A0906"/>
  <path d="M20.4932 10.7474C15.7487 13.4237 11.0269 16.086 6.27674 18.7624C4.62168 15.97 2.95248 13.155 1.23518 10.2579C1.47283 10.3004 1.61429 10.3117 1.75009 10.3485C3.7022 10.8888 5.65149 11.432 7.60644 11.9667C7.87521 12.0403 8.15813 12.0969 8.43255 12.0997C8.87956 12.1054 9.02951 11.9243 8.95878 11.4914C8.6985 9.85618 8.4269 8.22376 8.15813 6.5885C8.13832 6.46119 8.11852 6.33671 8.08457 6.11886C8.30807 6.25184 8.45802 6.33671 8.60513 6.42724C10.0225 7.30994 11.4428 8.19547 12.8602 9.07816C12.9988 9.16304 13.1374 9.25074 13.2874 9.31581C13.6608 9.47424 13.9239 9.33844 14.0201 8.94236C14.1248 8.49536 14.2069 8.04552 14.3115 7.59851C14.7868 5.58698 15.2706 3.57545 15.7742 1.46207C17.517 4.49493 18.9768 7.57305 20.4961 10.7502L20.4932 10.7474Z" fill="#F5B71A"/>
</svg>
