<svg width="24" height="24" viewBox="0 0 24 24" fill="none" xmlns="http://www.w3.org/2000/svg">
<g clip-path="url(#clip0_event_terms_warning)">
<path d="M1.768 23.3332C0.540005 23.3332 -0.00132871 22.4412 0.564005 21.3512L10.97 1.31457C11.536 0.22457 12.462 0.22457 13.028 1.31457L23.434 21.3519C24.0007 22.4412 23.4587 23.3332 22.2307 23.3332H1.768Z" fill="#FFCC4D"/>
<path d="M10.3867 19.3018C10.3867 18.4132 11.1101 17.6898 11.9994 17.6898C12.8881 17.6898 13.6114 18.4132 13.6114 19.3018C13.6114 20.1912 12.8874 20.9145 11.9994 20.9145C11.1101 20.9145 10.3867 20.1912 10.3867 19.3018ZM10.5107 7.10651C10.5107 6.23851 11.1514 5.70117 11.9987 5.70117C12.8261 5.70117 13.4874 6.25917 13.4874 7.10651V15.0652C13.4874 15.9125 12.8261 16.4705 11.9987 16.4705C11.1514 16.4705 10.5107 15.9325 10.5107 15.0652V7.10651Z" fill="#231F20"/>
</g>
<defs>
<clipPath id="clip0_event_terms_warning">
<rect width="24" height="24" fill="white"/>
</clipPath>
</defs>
</svg>
