<svg width="24" height="24" viewBox="0 0 24 24" fill="none" xmlns="http://www.w3.org/2000/svg">
<path d="M14.357 12.0012L22.5136 3.84517C23.1643 3.1945 23.1643 2.13917 22.5136 1.4885C21.8623 0.837167 20.8076 0.837167 20.157 1.4885L12.0003 9.6445L3.8443 1.4885C3.19364 0.837167 2.13764 0.837167 1.48764 1.4885C0.836302 2.13917 0.836302 3.1945 1.48764 3.84517L9.64363 12.0012L1.46897 20.1765C0.817635 20.8278 0.817635 21.8825 1.46897 22.5332C1.7943 22.8585 2.22097 23.0212 2.64764 23.0212C3.0743 23.0212 3.50097 22.8585 3.8263 22.5332L12.001 14.3578L20.157 22.5138C20.4823 22.8392 20.909 23.0018 21.3356 23.0018C21.7623 23.0018 22.1883 22.8392 22.5143 22.5138C23.165 21.8625 23.165 20.8078 22.5143 20.1572L14.357 12.0012Z" fill="#DD2E44"/>
</svg>
