<svg width="24" height="24" viewBox="0 0 24 24" fill="none" xmlns="http://www.w3.org/2000/svg">
<path d="M10.952 20.2189C11.2867 20.4531 11.7006 20.5448 12.1028 20.4738C12.505 20.4028 12.8625 20.1749 13.0967 19.8403C13.137 19.7829 13.1656 19.7182 13.1808 19.6498C13.196 19.5814 13.1976 19.5107 13.1854 19.4416C13.1732 19.3726 13.1475 19.3067 13.1097 19.2477C13.072 19.1886 13.0229 19.1376 12.9654 19.0976L11.732 17.7983L14.5467 19.7683C14.6542 19.8438 14.7756 19.8974 14.9038 19.9259C15.0321 19.9545 15.1647 19.9574 15.2941 19.9345C15.4235 19.9117 15.5471 19.8635 15.6579 19.7927C15.7686 19.722 15.8643 19.6301 15.9394 19.5223C16.0147 19.4147 16.068 19.2933 16.0964 19.1651C16.1248 19.0369 16.1277 18.9043 16.1048 18.775C16.082 18.6457 16.0339 18.5221 15.9633 18.4114C15.8927 18.3006 15.801 18.2049 15.6934 18.1296L13.296 15.9263L16.8794 18.4349C16.9869 18.5105 17.1083 18.5641 17.2365 18.5926C17.3648 18.6211 17.4974 18.624 17.6268 18.6012C17.7562 18.5783 17.8798 18.5302 17.9905 18.4594C18.1013 18.3887 18.1969 18.2967 18.272 18.1889C18.3473 18.0813 18.4007 17.96 18.4291 17.8317C18.4575 17.7035 18.4603 17.571 18.4375 17.4417C18.4146 17.3123 18.3665 17.1888 18.296 17.078C18.2254 16.9673 18.1336 16.8716 18.026 16.7963L14.8487 14.0809L18.758 16.8176C18.8656 16.8932 18.9869 16.9467 19.1152 16.9753C19.2434 17.0038 19.3761 17.0067 19.5055 16.9839C19.6349 16.961 19.7585 16.9128 19.8692 16.8421C19.9799 16.7713 20.0756 16.6794 20.1507 16.5716C20.226 16.464 20.2794 16.3426 20.3078 16.2144C20.3361 16.0862 20.339 15.9536 20.3161 15.8243C20.2933 15.695 20.2452 15.5714 20.1746 15.4607C20.104 15.35 20.0123 15.2542 19.9047 15.1789L3.15538 7.46094L0.844045 11.1416C0.584712 11.5416 0.655379 12.0836 1.02805 12.4023L6.21871 16.8496C6.45538 17.0523 6.70138 17.2436 6.95671 17.4223L10.952 20.2189Z" fill="#EF9645"/>
<path d="M19.868 14.5005L12.3333 9.06654L12.294 9.01321L12.3293 8.95988L12.3646 8.92454L12.934 9.23721C13.5726 9.65054 15.032 10.2612 16.138 10.2612C16.8946 10.2612 17.348 9.97787 17.4833 9.42321C17.5245 9.17803 17.4667 8.92653 17.3228 8.72384C17.1788 8.52115 16.9604 8.38379 16.7153 8.34188C16.0463 8.24203 15.4082 7.99349 14.848 7.61454L14.478 7.36588C14.062 7.08521 13.5906 6.76721 13.2426 6.56188C12.8093 6.29921 12.338 6.17188 11.8006 6.17188C11.0033 6.17188 10.1933 6.45321 9.41065 6.72521L8.56665 7.01587C8.20244 7.13859 7.8203 7.19966 7.43598 7.19654C6.40665 7.19654 5.39931 6.80588 4.42531 6.42854L4.32731 6.38988C4.12685 6.31311 3.90595 6.30837 3.70238 6.37647C3.49882 6.44457 3.32523 6.58127 3.21131 6.76321L0.899979 10.4452C0.782305 10.6287 0.734842 10.8485 0.766321 11.0642C0.7978 11.2799 0.906104 11.477 1.07131 11.6192L6.26131 16.0672C6.49598 16.2679 6.74265 16.4592 6.99465 16.6352L11.1046 19.5125C11.2481 19.613 11.4099 19.6843 11.5809 19.7222C11.7519 19.7602 11.9286 19.764 12.1011 19.7336C12.2736 19.7032 12.4384 19.6392 12.5861 19.5451C12.7338 19.451 12.8615 19.3287 12.962 19.1852C13.0428 19.0692 13.0744 18.9259 13.0499 18.7866C13.0254 18.6473 12.9469 18.5234 12.8313 18.4419L11.6093 17.5865C11.5774 17.5641 11.5504 17.5352 11.5302 17.5018C11.51 17.4685 11.4969 17.4312 11.4917 17.3925C11.4866 17.3538 11.4895 17.3145 11.5004 17.2769C11.5112 17.2394 11.5297 17.2046 11.5546 17.1745C11.5999 17.1203 11.6639 17.085 11.7339 17.0757C11.8039 17.0665 11.8749 17.0839 11.9326 17.1245L14.5853 18.9812C14.7881 19.1232 15.039 19.1788 15.2828 19.1358C15.5266 19.0928 15.7433 18.9547 15.8853 18.7519C16.0273 18.5491 16.0829 18.2982 16.0399 18.0544C15.9969 17.8106 15.8588 17.5939 15.656 17.4519L13.1733 15.7145C13.1414 15.6921 13.1144 15.6632 13.0942 15.6298C13.074 15.5965 13.0609 15.5592 13.0557 15.5205C13.0506 15.4818 13.0535 15.4425 13.0644 15.4049C13.0752 15.3674 13.0937 15.3326 13.1186 15.3025C13.164 15.2484 13.2279 15.2132 13.2979 15.204C13.3679 15.1947 13.4388 15.212 13.4966 15.2525L16.918 17.6479C17.0184 17.7182 17.1317 17.768 17.2514 17.7945C17.371 17.8211 17.4948 17.8237 17.6155 17.8024C17.7362 17.7812 17.8515 17.7363 17.9549 17.6704C18.0583 17.6045 18.1477 17.519 18.218 17.4185C18.2883 17.3181 18.3381 17.2048 18.3646 17.0852C18.3912 16.9655 18.3938 16.8418 18.3726 16.721C18.3513 16.6003 18.3064 16.485 18.2405 16.3816C18.1747 16.2782 18.0891 16.1888 17.9886 16.1185L14.7433 13.8472C14.7111 13.825 14.6839 13.7962 14.6635 13.7628C14.6431 13.7294 14.6299 13.692 14.6248 13.6532C14.6197 13.6144 14.6228 13.5749 14.6339 13.5374C14.6451 13.4998 14.6639 13.465 14.6893 13.4352C14.7298 13.3869 14.7869 13.3556 14.8494 13.3475C14.9119 13.3393 14.9751 13.3549 15.0266 13.3912L18.7973 16.0305C18.8978 16.1008 19.0111 16.1507 19.1308 16.1772C19.2505 16.2037 19.3743 16.2063 19.495 16.185C19.6158 16.1637 19.7312 16.1188 19.8346 16.0529C19.9379 15.987 20.0273 15.9013 20.0976 15.8009C20.1679 15.7004 20.2178 15.5871 20.2443 15.4674C20.2708 15.3477 20.2734 15.2239 20.2521 15.1031C20.2308 14.9824 20.1859 14.867 20.12 14.7636C20.0541 14.6602 19.9684 14.5708 19.868 14.5005Z" fill="#FFDC5D"/>
<path d="M11.024 18.6182C10.9773 18.7962 10.886 18.9502 10.7647 19.0722L10.0953 19.7362C9.97275 19.8602 9.81974 19.9499 9.65162 19.9962C9.4835 20.0425 9.30616 20.0439 9.13735 20.0002C8.96691 19.9558 8.81122 19.8672 8.68601 19.7434C8.56081 19.6195 8.47054 19.4648 8.42433 19.2948C8.37812 19.1249 8.37762 18.9457 8.42286 18.7755C8.46811 18.6053 8.55751 18.4501 8.68201 18.3255L9.35135 17.6615C9.47394 17.5375 9.62695 17.4479 9.79507 17.4015C9.96319 17.3552 10.1405 17.3538 10.3093 17.3975C10.5658 17.4649 10.7851 17.6313 10.9191 17.8601C11.0531 18.0889 11.0908 18.3616 11.024 18.6182ZM3.99468 15.3375L4.99668 14.3395C5.11125 14.2251 5.19632 14.0846 5.24457 13.93C5.29283 13.7754 5.30283 13.6115 5.27371 13.4522C5.2446 13.2929 5.17724 13.1431 5.07742 13.0156C4.9776 12.8881 4.84832 12.7867 4.70068 12.7202C4.51572 12.637 4.3098 12.6122 4.11039 12.6492C3.91098 12.6861 3.72758 12.783 3.58468 12.9269L2.58268 13.9249C2.46813 14.0393 2.3831 14.1799 2.33489 14.3345C2.28668 14.4891 2.27674 14.6531 2.30592 14.8124C2.3351 14.9717 2.40254 15.1215 2.50242 15.249C2.60231 15.3765 2.73165 15.4778 2.87934 15.5442C3.06424 15.6271 3.27 15.6518 3.46925 15.6149C3.6685 15.5779 3.85178 15.4812 3.99468 15.3375ZM7.46401 15.3722C7.56217 15.2806 7.64087 15.1701 7.69541 15.0474C7.74995 14.9246 7.77921 14.7922 7.78145 14.6579C7.78369 14.5237 7.75887 14.3903 7.70845 14.2658C7.65804 14.1414 7.58308 14.0283 7.48803 13.9335C7.39298 13.8386 7.2798 13.7638 7.15524 13.7137C7.03067 13.6635 6.89728 13.6389 6.76301 13.6414C6.62874 13.6439 6.49636 13.6734 6.37374 13.7282C6.25113 13.783 6.1408 13.8619 6.04934 13.9602L4.04801 15.9589C3.94985 16.0505 3.87115 16.161 3.81661 16.2837C3.76208 16.4064 3.73281 16.5389 3.73057 16.6731C3.72833 16.8074 3.75316 16.9408 3.80357 17.0652C3.85398 17.1897 3.92895 17.3027 4.02399 17.3976C4.11904 17.4925 4.23222 17.5672 4.35679 17.6174C4.48135 17.6676 4.61474 17.6921 4.74901 17.6897C4.88328 17.6872 5.01567 17.6576 5.13828 17.6029C5.26089 17.5481 5.37122 17.4692 5.46268 17.3709L7.46401 15.3722ZM8.96401 17.3722C9.09897 17.237 9.19236 17.0659 9.23313 16.8792C9.2739 16.6926 9.26035 16.4981 9.19407 16.3189C9.12779 16.1397 9.01157 15.9833 8.85915 15.8681C8.70673 15.7529 8.52449 15.6837 8.33401 15.6689C8.19018 15.658 8.04571 15.6786 7.91066 15.7293C7.77561 15.7799 7.65322 15.8594 7.55201 15.9622L6.21534 17.2922C6.08018 17.4274 5.9866 17.5985 5.94571 17.7853C5.90482 17.9721 5.91832 18.1666 5.98462 18.346C6.05092 18.5253 6.16724 18.6818 6.31979 18.7971C6.47234 18.9123 6.65473 18.9814 6.84534 18.9962C7.14868 19.0202 7.42801 18.9022 7.62735 18.7029L8.96401 17.3722ZM20.0007 14.6142L20.4187 14.2529L15.81 7.01953L7.63001 8.34286C7.49991 8.36483 7.37542 8.41222 7.26363 8.4823C7.15184 8.55239 7.05496 8.64381 6.9785 8.75134C6.90205 8.85887 6.84752 8.98041 6.81804 9.10901C6.78856 9.23762 6.7847 9.37077 6.80668 9.50086C7.24534 11.2975 10.8087 9.96286 12.3767 9.1002L20.0007 14.6142Z" fill="#EF9645"/>
<path d="M11.024 17.9545C10.9773 18.1325 10.886 18.2865 10.7647 18.4085L10.0953 19.0725C9.97275 19.1965 9.81974 19.2862 9.65162 19.3325C9.4835 19.3788 9.30616 19.3802 9.13735 19.3365C8.96691 19.2921 8.81122 19.2035 8.68601 19.0797C8.56081 18.9558 8.47054 18.8011 8.42433 18.6311C8.37812 18.4612 8.37762 18.282 8.42286 18.1118C8.46811 17.9416 8.55751 17.7864 8.68201 17.6618L9.35135 16.9978C9.47394 16.8738 9.62695 16.7842 9.79507 16.7378C9.96319 16.6915 10.1405 16.6901 10.3093 16.7338C10.5658 16.8012 10.7851 16.9676 10.9191 17.1964C11.0531 17.4252 11.0908 17.6979 11.024 17.9545ZM3.99468 14.6738L4.99668 13.6758C5.11125 13.5614 5.19632 13.4209 5.24457 13.2663C5.29283 13.1117 5.30283 12.9478 5.27371 12.7885C5.2446 12.6292 5.17724 12.4794 5.07742 12.3519C4.9776 12.2244 4.84832 12.123 4.70068 12.0565C4.51569 11.9735 4.30981 11.9488 4.11044 11.9857C3.91107 12.0227 3.72768 12.1194 3.58468 12.2632L2.58268 13.2612C2.46813 13.3756 2.3831 13.5162 2.33489 13.6708C2.28668 13.8254 2.27674 13.9894 2.30592 14.1487C2.3351 14.308 2.40254 14.4578 2.50242 14.5853C2.60231 14.7128 2.73165 14.8141 2.87934 14.8805C3.06424 14.9634 3.27 14.9881 3.46925 14.9512C3.6685 14.9143 3.85178 14.8175 3.99468 14.6738ZM7.46401 14.7085C7.56217 14.6169 7.64087 14.5064 7.69541 14.3837C7.74995 14.261 7.77921 14.1285 7.78145 13.9942C7.78369 13.86 7.75887 13.7266 7.70845 13.6021C7.65804 13.4777 7.58308 13.3646 7.48803 13.2698C7.39298 13.1749 7.2798 13.1001 7.15524 13.05C7.03067 12.9998 6.89728 12.9752 6.76301 12.9777C6.62874 12.9802 6.49636 13.0097 6.37374 13.0645C6.25113 13.1193 6.1408 13.1982 6.04934 13.2965L4.04801 15.2952C3.94985 15.3868 3.87115 15.4973 3.81661 15.62C3.76208 15.7427 3.73281 15.8752 3.73057 16.0094C3.72833 16.1437 3.75316 16.2771 3.80357 16.4015C3.85398 16.526 3.92895 16.639 4.02399 16.7339C4.11904 16.8288 4.23222 16.9035 4.35679 16.9537C4.48135 17.0039 4.61474 17.0285 4.74901 17.026C4.88328 17.0235 5.01567 16.9939 5.13828 16.9392C5.26089 16.8844 5.37122 16.8055 5.46268 16.7072L7.46401 14.7085ZM8.96401 16.7085C9.09897 16.5733 9.19236 16.4022 9.23313 16.2155C9.2739 16.0289 9.26035 15.8344 9.19407 15.6552C9.12779 15.476 9.01157 15.3196 8.85915 15.2044C8.70673 15.0892 8.52449 15.02 8.33401 15.0052C8.19018 14.9943 8.04571 15.0149 7.91066 15.0656C7.77561 15.1162 7.65322 15.1957 7.55201 15.2985L6.21534 16.6285C6.08018 16.7637 5.9866 16.9348 5.94571 17.1216C5.90482 17.3084 5.91832 17.5029 5.98462 17.6823C6.05092 17.8616 6.16724 18.0181 6.31979 18.1334C6.47234 18.2486 6.65473 18.3177 6.84534 18.3325C7.14868 18.3565 7.42801 18.2385 7.62735 18.0392L8.96401 16.7085ZM23.3353 11.7378C23.5119 11.5853 23.6272 11.374 23.6602 11.1431C23.6931 10.9121 23.6415 10.677 23.5147 10.4812L23.5127 10.4778L21.2013 6.1305C21.0793 5.93549 20.8933 5.78896 20.6751 5.71599C20.4569 5.64302 20.2202 5.64815 20.0053 5.7305C18.6773 6.2445 17.2227 6.83517 15.8107 6.35517L15.0787 6.10383C13.78 5.65383 12.368 5.1265 11.0787 5.90783C10.6153 6.1805 9.92001 6.66317 9.47134 6.96117C8.91705 7.33136 8.28866 7.57617 7.63001 7.6785C7.49972 7.70006 7.37498 7.74718 7.26297 7.81714C7.15096 7.88711 7.0539 7.97854 6.97737 8.08617C6.90085 8.1938 6.84637 8.31551 6.81707 8.44429C6.78778 8.57306 6.78424 8.70636 6.80668 8.8365C7.21534 10.5112 10.34 9.44184 12.032 8.5905C12.1376 8.53747 12.2558 8.51447 12.3736 8.52399C12.4914 8.53351 12.6043 8.5752 12.7 8.6445L20.4227 14.2552L23.3353 11.7378Z" fill="#FFCC4D"/>
</svg>
