<svg width="24" height="24" viewBox="0 0 24 24" fill="none" xmlns="http://www.w3.org/2000/svg">
<g clip-path="url(#clip0_event_terms_replace)">
<path d="M24 21.3333C24 22.806 22.806 24 21.3333 24H2.66667C1.194 24 0 22.806 0 21.3333V2.66667C0 1.194 1.194 0 2.66667 0H21.3333C22.806 0 24 1.194 24 2.66667V21.3333Z" fill="#3B88C3"/>
<path d="M14.8273 14.8275L16.7133 16.7135C14.1099 19.3168 9.88861 19.3162 7.28461 16.7128C5.78661 15.2155 5.15528 13.1822 5.38194 11.2295L2.69061 11.4742C2.54728 14.0342 3.44261 16.6422 5.39861 18.5988C9.04327 22.2435 14.9539 22.2442 18.5979 18.5988L20.4833 20.4842L21.0493 14.2615L14.8273 14.8275ZM18.5986 5.39952C14.9533 1.75485 9.04461 1.75485 5.39928 5.39952L3.51394 3.51418L2.94794 9.73685L9.17061 9.17085L7.28461 7.28485C9.88861 4.68152 14.1086 4.68152 16.7126 7.28485C18.2113 8.78285 18.8419 10.8162 18.6166 12.7688L21.3073 12.5248C21.4513 9.96418 20.5553 7.35618 18.5986 5.39952Z" fill="white"/>
</g>
<defs>
<clipPath id="clip0_event_terms_replace">
<rect width="24" height="24" fill="white"/>
</clipPath>
</defs>
</svg>
