<svg width="24" height="24" viewBox="0 0 24 24" fill="none" xmlns="http://www.w3.org/2000/svg">
<g clip-path="url(#clip0_event_terms_check)">
<path d="M24 21.3333C24 22.806 22.806 24 21.3333 24H2.66667C1.194 24 0 22.806 0 21.3333V2.66667C0 1.194 1.194 0 2.66667 0H21.3333C22.806 0 24 1.194 24 2.66667V21.3333Z" fill="#77B255"/>
<path d="M19.5181 4.24127C18.7474 3.7406 17.7154 3.95993 17.2127 4.73193L9.9554 15.9179L6.60273 12.8179C5.92673 12.1926 4.87206 12.2346 4.2474 12.9099C3.62273 13.5859 3.66406 14.6406 4.34006 15.2653L9.14607 19.7093C9.46607 20.0059 9.87273 20.1526 10.2767 20.1526C10.7254 20.1526 11.2994 19.9646 11.6761 19.3933C11.8974 19.0559 20.0094 6.5466 20.0094 6.5466C20.5101 5.77393 20.2901 4.74193 19.5181 4.24127Z" fill="white"/>
</g>
<defs>
<clipPath id="clip0_event_terms_check">
<rect width="24" height="24" fill="white"/>
</clipPath>
</defs>
</svg>
