<svg width="16" height="17" viewBox="0 0 16 17" fill="none" xmlns="http://www.w3.org/2000/svg">
<g clip-path="url(#clip0_488_21591)">
<path d="M12.8885 9.30043V8.42798C13.3329 7.9702 14.1836 7.14354 14.3956 6.08443C14.4587 6.11954 14.42 6.14221 14.4902 6.14221C14.8271 6.14221 15.0485 5.70532 15.0485 5.16576C15.0485 4.63509 14.7569 4.20532 14.4267 4.19198C14.4902 3.96265 14.5209 3.65598 14.5209 3.2622C14.5209 1.94843 13.388 0.371094 10.8529 0.371094C8.60046 0.371094 7.1889 1.94843 7.1889 3.2622C7.1889 3.64354 7.21157 3.95643 7.25201 4.19865C6.94223 4.24532 6.69779 4.65776 6.69779 5.16532C6.69779 5.70487 6.97068 6.14176 7.30801 6.14176C7.37779 6.14176 7.27734 6.11909 7.34001 6.08398C7.55201 7.14354 8.44401 7.96976 8.88845 8.42798V9.24887C7.11068 9.46754 5.77734 10.4169 5.77734 11.3666V11.7266C5.77734 12.0875 6.14312 12.0875 6.50357 12.0875H14.828C15.1893 12.0875 15.5551 12.0875 15.5551 11.7266V11.3666C15.5551 10.4773 14.2218 9.59021 12.8885 9.30043Z" fill="#55ACEE"/>
<path d="M7.55642 12.8551V11.9827C8.00087 11.5249 8.85153 10.6982 9.06353 9.63911C9.12665 9.67423 9.08798 9.69689 9.1582 9.69689C9.49509 9.69689 9.71642 9.26 9.71642 8.72045C9.71642 8.18978 9.42487 7.76 9.09465 7.74667C9.1582 7.51734 9.18887 7.21067 9.18887 6.81689C9.18887 5.50311 8.05598 3.92578 5.52087 3.92578C3.26798 3.92578 1.85687 5.50311 1.85687 6.81689C1.85687 7.19823 1.87953 7.51111 1.91998 7.75334C1.6102 7.8 1.36576 8.21245 1.36576 8.72C1.36576 9.25956 1.63865 9.69645 1.97598 9.69645C2.04576 9.69645 1.94531 9.67378 2.00798 9.63867C2.21998 10.6982 3.11198 11.5244 3.55642 11.9827V12.8036C1.77865 13.0222 0.445312 13.9716 0.445312 14.9213V15.2818C0.445312 15.6422 0.81109 15.6422 1.17153 15.6422H9.49598C9.85731 15.6422 10.2231 15.6422 10.2231 15.2813V14.9209C10.2231 14.032 8.88976 13.1449 7.55642 12.8551Z" fill="#226699"/>
</g>
<defs>
<clipPath id="clip0_488_21591">
<rect width="16" height="16" fill="white" transform="translate(0 0.0859375)"/>
</clipPath>
</defs>
</svg>
