<svg width="17" height="16" viewBox="0 0 17 16" fill="none" xmlns="http://www.w3.org/2000/svg">
<rect x="0.833333" y="0.333333" width="15.3333" height="15.3333" rx="5" fill="#FFEFD6"/>
<rect x="0.833333" y="0.333333" width="15.3333" height="15.3333" rx="5" stroke="#FABB22" stroke-width="0.666667"/>
<path d="M7.16723 7.85565C7.31981 7.40107 7.46292 6.9775 7.60666 6.55278C7.73248 6.18003 7.86006 5.80677 7.98814 5.43532C8.03785 5.29224 8.10792 5.16078 8.27738 5.15432C8.45841 5.14839 8.52421 5.29973 8.59594 5.43474C8.99948 6.19606 9.40126 6.95789 9.80366 7.71857C9.83527 7.77757 9.87278 7.83387 9.91656 7.90589C10.1637 7.5933 10.3834 7.28775 10.6309 7.00721C11.1613 6.40563 11.7056 5.81655 12.2432 5.22361C12.2846 5.17745 12.3241 5.12112 12.3778 5.09867C12.4658 5.06236 12.5817 5.00717 12.6522 5.03829C12.7193 5.06747 12.7814 5.19847 12.7816 5.2851C12.7901 6.28222 12.8027 7.28012 12.7799 8.27758C12.764 8.9983 12.6978 9.71611 12.653 10.4355C12.6335 10.7354 12.5836 10.8162 12.2937 10.8343C11.2816 10.897 10.2691 10.9579 9.2552 10.9832C8.12591 11.0109 6.99618 10.9958 5.86718 11.0039C5.54259 11.0068 5.21836 11.0281 4.89264 11.0304C4.54493 11.0322 4.41936 10.9226 4.40185 10.5682C4.34068 9.37112 4.28882 8.17326 4.23633 6.97656C4.22106 6.63709 4.21334 6.29737 4.20209 5.95868C4.1999 5.90281 4.19306 5.84732 4.19426 5.79338C4.19875 5.6245 4.20138 5.44545 4.38325 5.36717C4.56337 5.28941 4.69094 5.40621 4.81147 5.52506C5.56387 6.27154 6.3174 7.01867 7.0698 7.76515C7.09365 7.78939 7.11939 7.81014 7.16949 7.85694L7.16723 7.85565ZM12.2219 10.5551C12.3223 8.90861 12.425 7.31796 12.4035 5.67771C11.7316 6.42765 11.0914 7.14107 10.4524 7.85513C10.311 8.01417 10.1781 8.17953 10.0367 8.33857C9.91053 8.48051 9.77464 8.47428 9.66069 8.32428C9.61464 8.26462 9.57877 8.19712 9.54291 8.12962C9.17196 7.44455 8.80276 6.75896 8.43294 6.07454C8.39431 6.00394 8.3533 5.93502 8.2936 5.82964C8.25865 5.92652 8.23821 5.98313 8.2184 6.03859C7.9605 6.76836 7.70548 7.49827 7.44645 8.22741C7.37718 8.42001 7.27807 8.46056 7.1007 8.3563C6.99054 8.29192 6.89122 8.20489 6.8002 8.1135C6.13921 7.44953 5.48073 6.78093 4.82037 6.1158C4.7743 6.06978 4.71979 6.03109 4.63478 5.96133C4.6752 7.53956 4.71594 9.07094 4.75544 10.591C7.24966 10.5791 9.72942 10.5665 12.2214 10.5533L12.2219 10.5551Z" fill="#0A0906"/>
<path d="M12.2234 10.5545C9.73149 10.5677 7.25172 10.5802 4.7575 10.5921C4.71801 9.07207 4.6779 7.53954 4.63684 5.96247C4.72236 6.03403 4.77636 6.07092 4.82244 6.11693C5.48217 6.78322 6.14014 7.45002 6.80227 8.11464C6.89329 8.20603 6.99374 8.2937 7.10277 8.35744C7.28014 8.46169 7.38038 8.4218 7.44852 8.22855C7.70868 7.50006 7.9637 6.77015 8.22047 6.03972C8.24091 5.98311 8.26072 5.92766 8.29567 5.83078C8.35537 5.93616 8.39638 6.00508 8.43501 6.07568C8.80483 6.7601 9.17515 7.44633 9.54498 8.13076C9.58147 8.1971 9.61734 8.2646 9.66276 8.32542C9.77671 8.47542 9.9121 8.47985 10.0387 8.33971C10.1801 8.18067 10.3131 8.01531 10.4545 7.85627C11.0924 7.14156 11.7337 6.42879 12.4056 5.67885C12.4265 7.3173 12.3244 8.90975 12.2239 10.5563L12.2234 10.5545Z" fill="#F5B71A"/>
</svg>
