<svg width="16" height="17" viewBox="0 0 16 17" fill="none" xmlns="http://www.w3.org/2000/svg">
<g clip-path="url(#clip0_488_21588)">
<path d="M8.00043 16.0872C8.98227 16.0872 9.77821 15.7888 9.77821 15.4206C9.77821 15.0524 8.98227 14.7539 8.00043 14.7539C7.01859 14.7539 6.22266 15.0524 6.22266 15.4206C6.22266 15.7888 7.01859 16.0872 8.00043 16.0872Z" fill="#292F33"/>
<path d="M6.37305 4.85156C6.37305 4.85156 7.5086 15.6396 8.0006 15.6405C8.49216 15.6409 9.62727 4.85156 9.62727 4.85156H6.37305Z" fill="#99AAB5"/>
<path d="M8.00087 7.19705C9.96455 7.19705 11.5564 5.60517 11.5564 3.64149C11.5564 1.67781 9.96455 0.0859375 8.00087 0.0859375C6.03719 0.0859375 4.44531 1.67781 4.44531 3.64149C4.44531 5.60517 6.03719 7.19705 8.00087 7.19705Z" fill="#DD2E44"/>
</g>
<defs>
<clipPath id="clip0_488_21588">
<rect width="16" height="16" fill="white" transform="translate(0 0.0859375)"/>
</clipPath>
</defs>
</svg>
