<svg width="256" height="256" viewBox="0 0 256 256" fill="none" xmlns="http://www.w3.org/2000/svg">
<path d="M61.9678 42.0117C51.4344 50.2891 42.9624 60.1984 36.5518 71.7397" stroke="#739484" stroke-width="2"/>
<path d="M36.5512 71.7402C30.3165 82.7696 26.0605 94.5109 23.7832 106.964" stroke="#638979" stroke-width="2"/>
<path d="M23.7832 106.964C20.4072 124.553 20.9459 141.897 25.3992 158.996" stroke="#497C68" stroke-width="2"/>
<path d="M25.3994 158.996C28.5141 170.041 33.1914 180.316 39.4314 189.82" stroke="#406F5B" stroke-width="2"/>
<path d="M39.4316 189.82C52.541 209.271 70.1223 223.01 92.1756 231.036" stroke="#3B695A" stroke-width="2"/>
<path d="M92.1758 231.036L94.3518 231.476" stroke="#94936F" stroke-width="2"/>
<path d="M94.3516 231.476L100.528 233.076" stroke="#717D43" stroke-width="2"/>
<path d="M100.527 233.076C100.853 233.482 101.525 233.532 102.543 233.228" stroke="#71723D" stroke-width="2"/>
<path d="M102.544 233.228C103.112 234.996 121.832 236.396 123.072 236.46" stroke="#78864E" stroke-width="2"/>
<path d="M123.071 236.46C132.181 236.716 141.245 235.985 150.263 234.268" stroke="#717D43" stroke-width="2"/>
<path d="M150.264 234.268C150.626 234.284 150.909 234.006 151.112 233.436" stroke="#71723D" stroke-width="2"/>
<path d="M151.111 233.435L153.847 233.315" stroke="#452B32" stroke-width="2"/>
<path d="M153.848 233.316L163.944 230.58" stroke="#71723D" stroke-width="2"/>
<path d="M163.943 230.579C164.034 230.233 164.151 230.201 164.295 230.483" stroke="#94936F" stroke-width="2"/>
<path d="M164.296 230.484C184.992 224.084 204.064 207.716 216.184 190.164" stroke="#396451" stroke-width="2"/>
<path d="M216.184 190.164C225.069 176.783 230.632 162.063 232.872 146.004" stroke="#3A6954" stroke-width="2"/>
<path d="M232.871 146.004C236.69 118.746 231.714 93.3936 217.943 69.9482" stroke="#41755E" stroke-width="2"/>
<path d="M217.944 69.9482C205.36 49.8282 186.808 33.8442 164.504 25.7002" stroke="#4A816B" stroke-width="2"/>
<path d="M164.503 25.7C148.29 19.8814 131.605 17.9694 114.447 19.964" stroke="#588877" stroke-width="2"/>
<path d="M114.448 19.9639C108.16 20.7532 102.042 22.1399 96.0957 24.1239" stroke="#648E7C" stroke-width="2"/>
<path d="M96.0958 24.124C83.5251 28.108 72.1491 34.0707 61.9678 42.012" stroke="#749987" stroke-width="2"/>
<path d="M164.504 25.7002C163.808 29.5802 160.392 32.3562 159.056 35.6202C158.956 35.872 158.793 36.095 158.584 36.2682C156.253 38.1829 155.538 40.1349 156.44 42.1242" stroke="#75B185" stroke-width="2"/>
<path d="M156.44 42.124C141.912 36.508 126.848 31.908 111.472 29.332" stroke="#506354" stroke-width="2"/>
<path d="M111.472 29.3314C111.344 29.1501 111.269 29.1127 111.248 29.2194" stroke="#6B7B64" stroke-width="2"/>
<path d="M111.247 29.2199C108.351 24.1319 115.343 24.3799 114.447 19.9639" stroke="#90BE95" stroke-width="2"/>
<path d="M111.248 29.2199L101.144 28.5879" stroke="#778169" stroke-width="2"/>
<path d="M101.144 28.588L101.384 28.452C101.494 28.3878 101.581 28.2916 101.635 28.1763C101.688 28.0609 101.705 27.9319 101.684 27.8066C101.662 27.6813 101.602 27.5656 101.513 27.4751C101.424 27.3845 101.309 27.3235 101.184 27.3L97.2397 26.572C96.9677 26.524 96.7917 26.3694 96.7117 26.108L96.0957 24.124" stroke="#ACCFA5" stroke-width="2"/>
<path d="M101.144 28.5879C86.96 30.2039 79.464 40.2279 76.96 53.7639" stroke="#878C74" stroke-width="2"/>
<path d="M76.9601 53.7637L76.0321 59.4677C75.9894 59.7397 75.8374 59.8357 75.5761 59.7557L75.0801 59.5957" stroke="#656F5E" stroke-width="2"/>
<path d="M75.0794 59.596C64.8154 57.388 52.5114 57.572 45.8154 66.788" stroke="#818470" stroke-width="2"/>
<path d="M45.8157 66.7881C44.5677 68.9481 43.917 70.9534 43.8637 72.8041C43.6823 79.1081 43.845 86.3588 44.3517 94.5561" stroke="#656F5E" stroke-width="2"/>
<path d="M44.3513 94.5556C43.4499 94.5076 43.0953 93.4623 43.2873 91.4196C43.3193 91.089 43.1726 90.961 42.8473 91.0356C40.4473 91.5903 38.1193 91.4863 35.8633 90.7236" stroke="#9FC9A0" stroke-width="2"/>
<path d="M35.8637 90.724L34.8718 90.38C34.6051 90.284 34.5171 90.1026 34.6077 89.836C36.0557 85.508 37.6237 81.7 42.0317 80.02C42.3144 79.908 42.4477 79.7026 42.4317 79.404C42.2984 77.004 42.4104 74.6253 42.7677 72.268C42.8797 71.5426 42.5784 71.268 41.8637 71.444C41.3411 71.5666 40.6824 71.3986 39.8877 70.94C39.7917 70.8845 39.6846 70.8494 39.5732 70.8371C39.4617 70.8247 39.3482 70.8352 39.2398 70.868L36.5517 71.74" stroke="#ACCFA5" stroke-width="2"/>
<path d="M217.944 69.9482L215.296 72.5082C215.104 72.6949 214.874 72.7696 214.608 72.7322L212.384 72.4602C212.293 72.4496 212.256 72.3989 212.272 72.3082L212.296 72.1002C212.344 71.7642 212.248 71.7162 212.008 71.9562L211.352 72.6282" stroke="#5F9E6C" stroke-width="2"/>
<path d="M211.352 72.6279C210.749 69.3852 209.237 66.9932 206.816 65.4519C196.352 58.8119 184.488 52.9959 171.224 48.0039" stroke="#3B5742" stroke-width="2"/>
<path d="M171.223 48.004L156.439 42.124" stroke="#425C49" stroke-width="2"/>
<path d="M111.472 29.332C111.376 29.3907 111.309 29.4734 111.272 29.58C111.187 29.8467 111.277 30.02 111.544 30.1C113.336 30.6227 115.152 31.004 116.992 31.244C117.344 31.2867 117.509 31.484 117.488 31.836C117.477 32.06 117.373 32.244 117.176 32.388C117.016 32.5107 116.835 32.556 116.632 32.524C112.547 31.788 108.427 31.5747 104.272 31.884C104.015 31.905 103.759 31.8581 103.528 31.748C102.669 31.348 101.781 31.268 100.864 31.508C100.797 31.5261 100.737 31.5656 100.694 31.6207C100.651 31.6757 100.628 31.7433 100.627 31.813C100.626 31.8827 100.648 31.9509 100.689 32.007C100.73 32.0632 100.789 32.1043 100.856 32.124C107.16 33.884 113.864 33.788 119.648 35.124C122.843 35.8654 125.901 36.716 128.824 37.676C128.975 37.7132 129.104 37.8086 129.185 37.9414C129.265 38.0742 129.289 38.2334 129.252 38.384C129.215 38.5347 129.119 38.6644 128.987 38.7447C128.854 38.8249 128.695 38.8492 128.544 38.812C109.64 35.556 90.552 40.86 77.96 55.42" stroke="#372628" stroke-width="2"/>
<path d="M77.96 55.42C77.5066 54.2733 77.1733 53.7213 76.96 53.764" stroke="#302122" stroke-width="2"/>
<path d="M171.224 48.0034C170.792 47.8967 170.507 48.0007 170.368 48.3154C170.256 48.5767 170.333 48.7527 170.6 48.8434L171.136 49.0274C171.285 49.0807 171.336 49.1847 171.288 49.3394C171.037 50.1234 170.648 50.8061 170.12 51.3874C169.843 51.6914 169.693 51.6407 169.672 51.2354C169.667 51.1287 169.669 51.0221 169.68 50.9154C169.685 50.8683 169.677 50.8207 169.656 50.7779C169.636 50.7352 169.604 50.6989 169.564 50.6732C169.524 50.6475 169.478 50.6333 169.431 50.6323C169.384 50.6313 169.337 50.6434 169.296 50.6674C167.915 51.4194 166.52 52.1394 165.112 52.8274C163.616 53.5554 161.528 53.7554 159.896 55.0354C159.712 55.1826 159.493 55.2841 159.256 55.3314C157.68 55.6194 156.44 56.7954 155.288 57.2434C153.459 57.9527 151.659 58.7234 149.888 59.5554C148.216 60.3394 145.832 61.0274 143.976 62.2114C142.104 63.4034 140.232 63.8274 138.384 64.9954C138.361 65.0099 138.34 65.0243 138.324 65.0361C138.307 65.0478 138.298 65.0561 138.296 65.0594L138.4 65.2434C138.437 65.3181 138.419 65.3741 138.344 65.4114L132.992 67.8354C132.741 67.9474 132.48 67.9981 132.208 67.9874L130.688 67.9234C130.405 67.9074 130.187 68.0194 130.032 68.2594C129.323 69.3527 128.328 70.1927 127.048 70.7794C126.829 70.8807 126.6 70.9341 126.36 70.9394C124.925 70.9714 123.821 71.6087 123.048 72.8514C122.981 72.9583 122.89 73.0484 122.784 73.1149C122.677 73.1815 122.557 73.2227 122.432 73.2354C121.504 73.3101 120.525 73.7047 119.496 74.4194C118.136 75.3527 116.029 76.0887 113.176 76.6274C112.909 76.6807 112.683 76.8061 112.496 77.0034C111.595 77.9421 110.389 78.2647 108.88 77.9714C104.139 77.0381 99.832 75.5794 95.96 73.5954C88.064 69.5474 79.696 65.1394 77.96 55.4194" stroke="#150912" stroke-width="2"/>
<path d="M211.352 72.6279C211.149 74.4999 211.192 75.7453 211.48 76.3639" stroke="#324B35" stroke-width="2"/>
<path d="M211.48 76.3633C210.099 97.0939 208.827 113.974 207.664 127.003C207.568 128.065 207.237 129.35 206.672 130.859" stroke="#2B3F2B" stroke-width="2"/>
<path d="M206.671 130.86C201.178 127.628 196.132 128.468 191.535 133.38" stroke="#855F35" stroke-width="2"/>
<path d="M191.536 133.38C189.248 136.175 187.301 139.337 185.696 142.868C185.685 142.894 185.665 142.914 185.639 142.924C185.614 142.935 185.585 142.935 185.56 142.924C185.534 142.913 185.514 142.893 185.504 142.868C185.493 142.842 185.493 142.814 185.504 142.788C186.512 139.948 187.784 137.612 187.448 134.556C186.16 122.964 182.4 110.78 179.096 99.5321C179.021 99.2761 178.85 99.1374 178.584 99.1161C161.021 97.6441 143.602 95.1774 126.328 91.7161C113.4 89.1294 101.077 84.8228 89.3597 78.7961C89.1037 78.6628 88.9144 78.7267 88.7917 78.9881L85.3438 86.5561" stroke="#85512E" stroke-width="2"/>
<path d="M85.3431 86.5557C80.1218 98.353 75.3271 110.313 70.9591 122.436C69.5031 126.478 68.7004 129.838 68.5511 132.516C68.3164 136.713 68.8071 141.022 70.0231 145.444" stroke="#866042" stroke-width="2"/>
<path d="M70.0237 145.444C68.1091 138.698 65.0771 133.783 60.9277 130.7" stroke="#855C3A" stroke-width="2"/>
<path d="M60.9277 130.699C55.8131 128.006 51.3411 128.689 47.5117 132.747" stroke="#866F49" stroke-width="2"/>
<path d="M47.5116 132.748L45.3916 109.476" stroke="#3B5742" stroke-width="2"/>
<path d="M45.3916 109.476L44.3516 94.5557" stroke="#495E4E" stroke-width="2"/>
<path d="M45.8158 66.7881L44.9678 70.7321" stroke="#2B191E" stroke-width="2"/>
<path d="M44.9672 70.7317L44.9512 77.0117C44.9512 77.4011 45.1112 77.4837 45.4312 77.2597C54.1938 71.0677 63.9592 67.5744 74.7272 66.7797C75.0845 66.7531 75.1725 66.5851 74.9912 66.2757C73.0072 62.8597 69.4312 62.2917 65.7992 62.1717C65.6737 62.1695 65.5519 62.1265 65.4512 62.0489C65.3506 61.9712 65.2763 61.863 65.2392 61.7397C65.1272 61.3877 65.2098 60.9504 65.4872 60.4277" stroke="#1E0F16" stroke-width="2"/>
<path d="M65.4873 60.4277C69.162 61.4464 72.3593 61.169 75.0793 59.5957" stroke="#2B191E" stroke-width="2"/>
<path d="M65.4878 60.4275C60.9998 59.8035 55.5998 61.3955 52.0478 64.2515C50.9598 65.1262 49.8904 66.0115 48.8398 66.9075C48.6553 67.0657 48.508 67.2594 48.4078 67.4755L45.6798 73.1795C45.6507 73.2376 45.6034 73.2845 45.5451 73.313C45.4868 73.3415 45.4207 73.3501 45.357 73.3373C45.2934 73.3246 45.2357 73.2913 45.1928 73.2425C45.1499 73.1938 45.1243 73.1323 45.1198 73.0675L44.9678 70.7315" stroke="#3A2328" stroke-width="2"/>
<path d="M35.8639 90.7236L34.8799 92.0676C34.6933 92.3183 34.7093 92.5556 34.9279 92.7796C37.8079 95.633 39.1386 98.2676 38.9199 100.684" stroke="#90BE95" stroke-width="2"/>
<path d="M38.9192 100.684C35.7032 103.66 32.5779 106.012 29.5432 107.74C29.3299 107.862 29.1192 107.86 28.9112 107.732C27.4979 106.878 26.2499 106.958 25.1672 107.972C25.0774 108.057 24.9669 108.117 24.8466 108.147C24.7263 108.176 24.6001 108.174 24.4803 108.14C24.3604 108.107 24.251 108.042 24.1625 107.954C24.0741 107.866 24.0095 107.756 23.9752 107.636L23.7832 106.964" stroke="#82B78A" stroke-width="2"/>
<path d="M232.872 146.003C232.701 145.971 232.546 146.043 232.407 146.219C232.274 146.395 232.112 146.425 231.92 146.307C229.68 144.899 229.4 129.795 229.12 127.691C227.576 115.963 225.167 104.067 220.607 93.2513C218.303 87.7846 215.261 82.1553 211.479 76.3633" stroke="#4F8655" stroke-width="2"/>
<path d="M164.296 230.484C164.291 230.334 164.333 230.209 164.424 230.108C164.552 229.964 164.6 229.796 164.568 229.604C162.272 216.292 158.8 200.428 143.048 197.604" stroke="#A3AA69" stroke-width="2"/>
<path d="M143.048 197.603C140.536 196.494 137.648 195.913 134.384 195.859" stroke="#808837" stroke-width="2"/>
<path d="M134.383 195.86C133.541 195.71 133.245 194.652 133.495 192.684" stroke="#A2823E" stroke-width="2"/>
<path d="M133.496 192.683V186.563" stroke="#9B7140" stroke-width="2"/>
<path d="M133.496 186.563C155.088 185.019 171.288 179.115 181.808 158.971C181.936 158.726 182.125 158.659 182.376 158.771L186.144 160.387" stroke="#A28C4E" stroke-width="2"/>
<path d="M186.144 160.387C201.936 166.291 219.672 142.403 206.672 130.859" stroke="#A29A55" stroke-width="2"/>
<path d="M191.536 133.38C192.005 133.785 192.512 133.921 193.056 133.788C193.322 133.719 193.541 133.577 193.712 133.364C195.317 131.305 197.432 130.388 200.056 130.612C200.312 130.633 200.482 130.767 200.568 131.012C201.232 132.98 202.384 136.524 204.304 138.156C204.495 138.316 204.625 138.54 204.672 138.788C206.536 148.26 201.392 153.612 194.104 158.436C191.52 160.14 189.144 160.02 186.144 160.388" stroke="#FCAC57" stroke-width="2"/>
<path d="M133.496 186.564L130.088 186.116" stroke="#F48343" stroke-width="2"/>
<path d="M130.088 186.116C132.312 185.236 135.771 184.399 140.464 183.604C144.373 182.948 149.304 181.204 155.256 178.372C162.621 174.868 168.661 169.756 173.376 163.036" stroke="#FCA95C" stroke-width="2"/>
<path d="M173.376 163.036C175.424 161.692 176.541 159.905 176.728 157.676" stroke="#FA9355" stroke-width="2"/>
<path d="M176.727 157.676C178.589 152.935 180.271 147.881 181.775 142.516C182.399 140.292 182.439 137.364 182.207 135.46C181.359 128.476 177.799 117.692 175.375 107.012C175.348 106.899 175.285 106.797 175.196 106.722C175.107 106.647 174.996 106.603 174.879 106.596L161.319 105.708" stroke="#FCA95C" stroke-width="2"/>
<path d="M161.319 105.708C156.647 105.116 150.701 103.863 143.479 101.948C127.319 97.6652 112.527 92.3212 99.1035 85.9159C96.1035 84.4919 92.9595 83.2759 90.1035 81.1239C89.8955 80.9692 89.7195 80.9985 89.5755 81.2119C89.2501 81.6972 89.0955 82.3079 89.1115 83.0439" stroke="#FCAD65" stroke-width="2"/>
<path d="M89.112 83.0439L87.832 86.3719" stroke="#FDBC6C" stroke-width="2"/>
<path d="M87.8318 86.3721L87.1198 87.1881C86.9704 87.3587 86.7837 87.4254 86.5597 87.3881C86.1117 87.3027 85.7064 87.0254 85.3438 86.5561" stroke="#FCAD65" stroke-width="2"/>
<path d="M199.432 137.772C193.552 132.332 188.312 148.228 187.104 150.996C186.96 151.322 187.064 151.46 187.416 151.412C191.224 150.852 197.392 149.124 199.592 145.828C201 143.724 201.568 139.74 199.432 137.772Z" stroke="#EE7E3C" stroke-width="2"/>
<path d="M161.32 105.708C159.024 107.66 157.272 111.988 161.504 113.228" stroke="#FDB871" stroke-width="2"/>
<path d="M161.503 113.227C157.599 112.987 148.439 113.203 147.023 117.043C146.945 117.257 146.934 117.489 146.991 117.707C147.546 119.75 148.839 120.523 150.871 120.027C155.207 118.977 159.159 118.417 162.727 118.347C166.199 118.275 169.831 119.395 173.455 120.211" stroke="#826141" stroke-width="2"/>
<path d="M173.456 120.212C173.018 121.503 172.064 122.735 170.592 123.908C170.378 124.073 170.29 124.292 170.328 124.564C170.648 126.868 170.4 129.524 171.736 131.588C173.072 133.644 174.168 135.164 173.304 137.172" stroke="#FDB871" stroke-width="2"/>
<path d="M173.304 137.172C170.576 127.388 160.36 122.724 151.408 127.924C151.188 128.054 151.02 128.258 150.936 128.499C150.851 128.741 150.854 129.004 150.944 129.244C150.976 129.334 151.149 129.297 151.464 129.132" stroke="#826141" stroke-width="2"/>
<path d="M151.464 129.132C151.379 129.655 151.525 130.148 151.904 130.612" stroke="#F4CFAA" stroke-width="2"/>
<path d="M151.903 130.611C146.015 135.227 147.495 145.147 155.271 146.355" stroke="#826141" stroke-width="2"/>
<path d="M155.272 146.355C154.371 146.691 154.699 146.982 156.256 147.227" stroke="#F4CFAA" stroke-width="2"/>
<path d="M156.256 147.228L157.088 147.892C157.376 148.121 157.339 148.22 156.976 148.188C155.744 148.081 154.917 148.652 154.496 149.9C154.443 150.054 154.477 150.185 154.6 150.292C154.845 150.5 154.939 150.756 154.88 151.06C154.828 151.32 154.856 151.591 154.96 151.836C155.381 152.796 156.04 153.641 156.936 154.372" stroke="#FDB871" stroke-width="2"/>
<path d="M156.935 154.372C154.114 155.753 152.815 157.652 153.039 160.068" stroke="#FBA269" stroke-width="2"/>
<path d="M153.04 160.068L148.936 160.292C148.643 160.308 148.4 160.426 148.208 160.644C146.859 162.175 145.192 163.143 143.208 163.548" stroke="#FDB871" stroke-width="2"/>
<path d="M143.208 163.548C144.264 160.46 144.842 157.426 144.944 154.444C144.954 154.172 144.861 154.132 144.664 154.324C137.456 161.516 126.04 164.884 115.672 163.54C115.442 163.508 115.354 163.607 115.408 163.836C116.16 166.839 117.837 169.343 120.44 171.348" stroke="#AF6243" stroke-width="2"/>
<path d="M120.439 171.348C122.578 172.665 125.119 173.35 128.063 173.404" stroke="#E67A4E" stroke-width="2"/>
<path d="M128.064 173.404C128.027 173.553 127.827 173.636 127.464 173.652C127.149 173.668 127.085 173.801 127.272 174.052L127.464 174.308C127.597 174.489 127.552 174.58 127.328 174.58L118.576 174.692C118.551 174.692 118.527 174.7 118.508 174.717C118.489 174.733 118.476 174.755 118.472 174.78C118.456 174.849 118.453 174.921 118.464 174.996C118.469 175.03 118.467 175.065 118.456 175.098C118.446 175.131 118.429 175.161 118.406 175.186C118.382 175.211 118.354 175.23 118.322 175.241C118.291 175.253 118.257 175.256 118.224 175.252C115.432 174.988 112.592 175.412 110.736 172.94C110.571 172.721 110.355 172.583 110.088 172.524C107.224 171.873 104.512 170.839 101.952 169.42C98.6 167.556 96.368 169.308 93.448 168.916C91.5814 168.665 89.8747 167.94 88.3281 166.74C88.2854 166.703 88.264 166.657 88.264 166.604C88.264 166.529 88.264 166.452 88.264 166.372C88.2587 166.191 88.1654 166.087 87.984 166.06C83.968 165.428 78.96 160.316 77.448 156.076C77.3771 155.874 77.242 155.701 77.0632 155.583C76.8845 155.465 76.6719 155.41 76.4575 155.424C76.2432 155.439 76.0389 155.523 75.8755 155.663C75.7121 155.804 75.5986 155.994 75.5521 156.204L74.248 162.26" stroke="#FDB871" stroke-width="2"/>
<path d="M74.2472 162.259L72.3672 158.691" stroke="#A39B62" stroke-width="2"/>
<path d="M72.3674 158.691C72.2554 156.819 71.8394 155.427 72.0554 153.515C72.4181 150.294 71.7408 147.603 70.0234 145.443" stroke="#FDB871" stroke-width="2"/>
<path d="M87.8318 86.3715C86.4078 92.6115 83.8558 98.6035 81.7758 104.643C81.2078 106.275 79.8398 107.787 79.6078 109.963C79.5758 110.23 79.4825 110.47 79.3278 110.683C77.9571 112.539 77.2131 113.915 77.0958 114.811C76.8238 116.875 76.0638 119.657 74.8158 123.155C72.4105 129.865 71.5998 137.137 72.3838 144.971C72.4478 145.667 72.9278 146.267 73.6318 146.211C73.9358 146.185 74.0745 146.019 74.0478 145.715C73.3705 136.803 74.6558 128.246 77.9038 120.043C81.1198 111.939 84.1198 103.675 86.7438 95.4515C87.1438 94.1981 87.8772 93.9582 88.9438 94.7315C91.8558 96.8382 94.6211 99.1315 97.2398 101.611C97.3634 101.728 97.5248 101.796 97.6944 101.803C97.864 101.809 98.0304 101.755 98.1629 101.648C98.2953 101.542 98.385 101.392 98.4153 101.225C98.4456 101.058 98.4145 100.885 98.3278 100.739C95.4958 95.9795 91.7758 90.7635 91.5598 85.1075C91.5118 83.8755 90.4958 81.9955 89.1118 83.0435" stroke="#FECB80" stroke-width="2"/>
<path d="M107.672 114.275C101.328 109.971 89.0957 112.099 82.8797 115.339C81.7703 115.921 81.6237 116.683 82.4397 117.627C83.3277 118.651 84.1117 118.771 85.4637 118.395C91.0157 116.865 96.5383 116.843 102.032 118.331C105.04 119.147 108.328 118.963 108.088 114.995C108.078 114.851 108.035 114.711 107.963 114.586C107.891 114.461 107.791 114.355 107.672 114.275Z" stroke="#826141" stroke-width="2"/>
<path d="M86.1592 142.22C88.0738 144.679 90.9059 146.148 94.6552 146.628C98.9272 147.172 103.439 149.212 107.231 146.348C113.759 141.404 112.063 134.9 106.831 129.908" stroke="#F8CDA1" stroke-width="2"/>
<path d="M106.832 129.908C106.32 124.764 95.7437 125.836 92.8717 127.044C88.4477 128.916 80.7917 137.708 86.1597 142.22" stroke="#8A6447" stroke-width="2"/>
<path d="M106.831 129.908C95.6205 126.932 88.7298 131.036 86.1592 142.22" stroke="#85756F" stroke-width="2"/>
<path d="M124.071 144.012C123.527 143.847 123.122 143.828 122.855 143.956C122.545 144.105 122.279 144.35 122.099 144.653C121.918 144.956 121.832 145.301 121.855 145.634C121.878 145.967 122.008 146.271 122.224 146.498C122.441 146.725 122.733 146.863 123.055 146.892L124.591 147.044C124.842 147.07 125.094 147.014 125.309 146.882C125.524 146.75 125.69 146.551 125.78 146.316C125.87 146.081 125.881 145.822 125.809 145.581C125.737 145.339 125.587 145.128 125.383 144.98L124.071 144.012Z" stroke="#FDD28E" stroke-width="2"/>
<path d="M124.071 144.012C125.298 144.166 126.258 144.796 126.951 145.9C127.133 146.182 127.074 146.401 126.775 146.556C125.815 147.062 124.781 147.361 123.671 147.452C123.373 147.473 123.127 147.598 122.935 147.828C122.301 148.612 122.213 149.545 122.671 150.628C122.789 150.9 122.997 151.06 123.295 151.108C127.567 151.74 132.271 146.268 127.223 143.212C126.671 142.876 123.135 142.1 124.071 144.012Z" stroke="#FCAD65" stroke-width="2"/>
<path d="M103.944 158.828C103.882 157.287 102.754 155.852 100.808 154.838C98.8614 153.825 96.2567 153.316 93.5664 153.424C90.8761 153.532 88.3206 154.248 86.462 155.415C84.6035 156.581 83.5941 158.102 83.656 159.643C83.7179 161.184 84.846 162.62 86.7922 163.633C88.7383 164.646 91.343 165.155 94.0333 165.047C96.7236 164.939 99.2791 164.223 101.138 163.057C102.996 161.891 104.006 160.37 103.944 158.828Z" stroke="#FBA269" stroke-width="2"/>
<path d="M45.3919 109.476C43.8559 107.604 43.4586 104.892 44.1999 101.34C44.2639 101.041 44.2186 100.758 44.0639 100.492C43.4719 99.4624 43.2853 98.3584 43.5039 97.1797C43.521 97.1156 43.5134 97.0474 43.4825 96.9887C43.4515 96.93 43.3997 96.885 43.3371 96.8629C43.2746 96.8407 43.206 96.8428 43.145 96.8689C43.084 96.895 43.0351 96.9432 43.0079 97.0037C42.5386 97.8784 41.8293 98.377 40.8799 98.4997C40.6346 98.5317 40.4639 98.6597 40.3679 98.8837C39.8666 100.046 39.3839 100.646 38.9199 100.684" stroke="#75B185" stroke-width="2"/>
<path d="M47.5116 132.748C44.6796 136.929 44.1223 141.604 45.8396 146.772" stroke="#B3C280" stroke-width="2"/>
<path d="M45.8394 146.771C45.2581 146.654 44.9461 146.945 44.9034 147.643C44.8928 147.846 44.7994 147.897 44.6234 147.795L44.3674 147.635C44.1807 147.523 43.9888 147.518 43.7914 147.619C37.3194 150.851 30.5834 154.011 27.5354 159.619C27.4532 159.773 27.325 159.898 27.1687 159.976C27.0123 160.054 26.8356 160.081 26.6631 160.054C26.4906 160.026 26.331 159.946 26.2063 159.824C26.0816 159.701 25.9981 159.543 25.9674 159.371C25.9034 159.035 25.7141 158.91 25.3994 158.995" stroke="#5F9E6C" stroke-width="2"/>
<path d="M176.728 157.675C171.405 152.806 164.808 151.705 156.936 154.371" stroke="#FB9E61" stroke-width="2"/>
<path d="M156.256 147.228C162.624 146.092 166.928 145.9 171.696 140.988" stroke="#F4CBA1" stroke-width="2"/>
<path d="M171.695 140.988C172.965 141.015 173.501 139.743 173.303 137.172" stroke="#825D38" stroke-width="2"/>
<path d="M173.456 120.212C174.032 120.036 174.517 119.518 174.912 118.66C175.109 118.244 175.021 117.897 174.648 117.62C170.717 114.681 166.336 113.217 161.504 113.228" stroke="#825D38" stroke-width="2"/>
<path d="M171.696 140.988C169.125 130.161 162.381 126.209 151.464 129.132" stroke="#797471" stroke-width="2"/>
<path d="M155.271 146.356C158.847 146.66 161.583 143.196 162.591 140.188C164.775 133.676 158.455 126.7 151.903 130.612" stroke="#797471" stroke-width="2"/>
<path d="M100.529 146.68C101.415 146.958 102.357 147.028 103.3 146.888C104.243 146.747 105.17 146.397 106.027 145.859C106.884 145.321 107.654 144.605 108.294 143.752C108.934 142.899 109.43 141.925 109.756 140.886C110.413 138.789 110.333 136.554 109.532 134.675C108.731 132.795 107.276 131.424 105.486 130.863C104.6 130.585 103.658 130.515 102.715 130.656C101.771 130.796 100.845 131.146 99.9882 131.684C99.1314 132.222 98.3611 132.938 97.7212 133.791C97.0814 134.644 96.5846 135.618 96.2591 136.657C95.6018 138.754 95.6824 140.989 96.4831 142.868C97.2839 144.748 98.7392 146.119 100.529 146.68Z" stroke="#7D7269" stroke-width="2"/>
<path d="M60.9275 130.7C52.3089 133.175 49.3515 138.546 52.0555 146.812C52.8555 149.26 54.7862 151.671 57.8475 154.044C57.9547 154.127 58.0331 154.242 58.0719 154.371C58.1106 154.5 58.1077 154.638 58.0635 154.764C57.7329 155.724 57.7382 156.671 58.0795 157.604C58.1755 157.866 58.1969 158.13 58.1435 158.396L57.7515 160.356" stroke="#FDC778" stroke-width="2"/>
<path d="M57.7518 160.355C51.9705 157.593 47.9998 153.065 45.8398 146.771" stroke="#AAB573" stroke-width="2"/>
<path d="M155.761 138.874C155.983 138.852 156.197 138.778 156.391 138.656C156.586 138.534 156.757 138.368 156.895 138.165C157.033 137.962 157.136 137.728 157.196 137.475C157.256 137.222 157.274 136.956 157.247 136.691C157.194 136.157 156.965 135.663 156.611 135.317C156.257 134.971 155.806 134.801 155.359 134.846C155.137 134.868 154.923 134.942 154.728 135.064C154.534 135.185 154.362 135.352 154.224 135.555C154.086 135.758 153.984 135.992 153.924 136.245C153.863 136.498 153.846 136.764 153.872 137.028C153.926 137.563 154.155 138.057 154.509 138.403C154.863 138.749 155.313 138.919 155.761 138.874Z" stroke="#797471" stroke-width="2"/>
<path d="M99.8 138.563L101.896 138.547C102.092 138.545 102.279 138.466 102.417 138.327C102.555 138.187 102.632 137.999 102.632 137.803V137.131C102.63 136.667 102.583 136.207 102.496 135.779C102.409 135.351 102.282 134.962 102.123 134.635C101.964 134.308 101.775 134.049 101.569 133.873C101.363 133.698 101.142 133.609 100.92 133.611H100.712C100.265 133.617 99.8394 133.992 99.5275 134.655C99.2156 135.317 99.0432 136.214 99.0479 137.147V137.819C99.0479 137.918 99.0675 138.015 99.1053 138.106C99.1432 138.197 99.1988 138.279 99.2687 138.348C99.3386 138.418 99.4216 138.472 99.5128 138.509C99.604 138.546 99.7016 138.564 99.8 138.563Z" stroke="#797471" stroke-width="2"/>
<path d="M72.3678 158.691C68.1812 161.193 63.3385 161.721 57.8398 160.275" stroke="#A2975A" stroke-width="2"/>
<path d="M57.84 160.275C58.208 160.435 58.1786 160.462 57.752 160.355" stroke="#A9A364" stroke-width="2"/>
<path d="M64.4073 143.06C60.4713 132.596 50.7753 141.492 58.1833 148.692C60.7647 151.204 63.8233 152.326 67.3593 152.06C67.447 152.052 67.5316 152.023 67.606 151.976C67.6804 151.929 67.7425 151.866 67.7872 151.79C67.8318 151.715 67.8576 151.631 67.8625 151.544C67.8674 151.457 67.8513 151.371 67.8153 151.292C66.6047 148.614 65.4687 145.87 64.4073 143.06Z" stroke="#F58E4F" stroke-width="2"/>
<path d="M101.2 137.156L101.344 135.748C101.357 135.645 101.333 135.54 101.276 135.453C101.219 135.365 101.133 135.301 101.033 135.271C100.933 135.241 100.826 135.248 100.73 135.29C100.635 135.332 100.557 135.406 100.512 135.5C100.181 136.124 100.208 136.727 100.592 137.308C100.933 137.825 101.136 137.775 101.2 137.156Z" stroke="#A89E95" stroke-width="2"/>
<path d="M156.032 137.732C156.144 137.193 156.018 136.7 155.656 136.252C155.341 135.863 155.096 135.903 154.92 136.372C154.68 137.017 154.818 137.553 155.336 137.98C155.704 138.284 155.936 138.201 156.032 137.732Z" stroke="#9F8F89" stroke-width="2"/>
<path d="M57.8398 160.275C59.0318 163.563 61.1678 165.891 63.1358 168.659" stroke="#4F8655" stroke-width="2"/>
<path d="M63.1356 168.66C62.2076 171.055 61.1516 173.417 59.9676 175.748C58.9276 177.788 56.9356 179.108 55.7836 181.372C55.661 181.612 55.4903 181.807 55.2716 181.956C53.101 183.428 51.581 185.399 50.7116 187.868C50.6263 188.108 50.5996 188.356 50.6316 188.612C51.0956 192.212 45.8156 188.924 44.9276 188.164C44.6663 187.945 44.4316 187.972 44.2236 188.244C43.2796 189.513 41.973 189.887 40.3036 189.364C40.181 189.327 40.1116 189.372 40.0956 189.5L40.0556 189.788C40.0343 189.937 39.965 189.969 39.8476 189.884C39.7356 189.799 39.597 189.777 39.4316 189.82" stroke="#518B5E" stroke-width="2"/>
<path d="M173.375 163.036C167.223 164.364 157.535 165.244 153.039 160.068" stroke="#FB9E61" stroke-width="2"/>
<path d="M143.207 163.548L141.063 167.596" stroke="#AE5E3A" stroke-width="2"/>
<path d="M141.063 167.596C133.98 164.833 127.394 165.3 121.303 168.996C120.434 169.524 120.146 170.308 120.439 171.348" stroke="#982017" stroke-width="2"/>
<path d="M128.063 173.404C133.407 173.569 137.741 171.633 141.063 167.596" stroke="#E67645" stroke-width="2"/>
<path d="M130.087 186.116L121.535 186.212" stroke="#F58E4F" stroke-width="2"/>
<path d="M121.536 186.212C102.328 185.796 83.936 179.812 74.248 162.26" stroke="#A2975A" stroke-width="2"/>
<path d="M121.535 186.212L121.719 192.588" stroke="#9B7140" stroke-width="2"/>
<path d="M121.72 192.588C121.885 194.369 121.563 195.513 120.752 196.02" stroke="#A2823E" stroke-width="2"/>
<path d="M120.752 196.02C106.976 197.324 99.0237 204.052 95.3438 217.404" stroke="#A3AA69" stroke-width="2"/>
<path d="M95.3438 217.404C94.3891 214.993 93.2904 212.919 92.0477 211.18C82.0797 197.26 72.8957 182.676 63.1357 168.66" stroke="#4A8054" stroke-width="2"/>
<path d="M95.3438 217.404C94.0318 221.33 92.9758 225.874 92.1758 231.036" stroke="#A5AF72" stroke-width="2"/>
<path d="M133.496 192.684L121.72 192.588" stroke="#F47933" stroke-width="2"/>
<path d="M134.384 195.859C134.68 201.691 131.84 204.603 127.064 207.299C126.844 207.425 126.587 207.469 126.337 207.424C126.087 207.379 125.86 207.247 125.696 207.051C123.253 204.123 121.467 200.777 120.336 197.011" stroke="#D9902A" stroke-width="2"/>
<path d="M120.335 197.012C119.973 196.846 120.111 196.516 120.751 196.02" stroke="#FDB25C" stroke-width="2"/>
<path d="M143.048 197.604C149.032 199.497 153.349 202.585 156 206.868C159.984 213.292 162.12 222.556 163.208 229.516C163.312 230.22 163.376 230.188 163.944 230.58" stroke="#DBB855" stroke-width="2"/>
<path d="M153.847 233.316C153.997 227.214 153.365 221.236 151.951 215.38C151.845 214.948 151.783 214.956 151.767 215.404L151.111 233.436" stroke="#8C4F18" stroke-width="2"/>
<path d="M150.264 234.268C149.848 234.279 149.453 234.186 149.08 233.988C148.824 233.855 148.739 233.65 148.824 233.372C149.8 230.196 150.2 226.42 148.112 223.532C144.04 217.908 135.88 215.26 130.728 212.596C130.515 212.484 130.392 212.548 130.36 212.788L129.672 218.412C129.67 218.448 129.654 218.482 129.627 218.506C129.599 218.53 129.564 218.542 129.528 218.54C129.492 218.538 129.458 218.522 129.434 218.495C129.41 218.468 129.398 218.432 129.4 218.396C129.331 216.172 129.427 213.951 129.688 211.732C129.694 211.678 129.688 211.623 129.672 211.572C129.656 211.52 129.629 211.472 129.593 211.431C129.558 211.391 129.515 211.358 129.466 211.336C129.418 211.313 129.365 211.301 129.312 211.3L125.744 211.236C125.349 211.226 125.125 211.026 125.072 210.636L124.696 207.972C124.669 207.791 124.603 207.628 124.496 207.484C122.187 204.252 120.285 200.866 118.792 197.324" stroke="#B7A129" stroke-width="2"/>
<path d="M118.792 197.323C118.888 196.998 119.403 196.894 120.336 197.011" stroke="#DBB855" stroke-width="2"/>
<path d="M118.792 197.324C115.288 197.484 112.376 198.284 110.056 199.724" stroke="#DBC35B" stroke-width="2"/>
<path d="M110.056 199.724C108.045 200.721 106.794 201.564 106.304 202.252C102.552 207.5 97.1837 216.244 96.7677 222.748C96.7517 223.014 96.645 223.236 96.4477 223.412C95.0024 224.724 94.2184 226.329 94.0957 228.228" stroke="#E2CC66" stroke-width="2"/>
<path d="M94.0953 228.228C93.258 229.262 93.3433 230.345 94.3513 231.476" stroke="#DBC35B" stroke-width="2"/>
<path d="M123.072 236.46V213.548C123.071 213.386 123.021 213.229 122.928 213.097C122.835 212.966 122.704 212.866 122.552 212.812C116.064 210.428 113.568 205.132 110.056 199.724" stroke="#BEB639" stroke-width="2"/>
<path d="M102.544 233.228L103.48 215.868C103.491 215.591 103.552 215.327 103.664 215.076C103.952 214.425 103.851 213.833 103.36 213.3C103.27 213.204 103.156 213.132 103.031 213.09C102.905 213.049 102.772 213.04 102.642 213.064C102.513 213.088 102.392 213.144 102.291 213.227C102.19 213.31 102.112 213.418 102.064 213.54C100.203 218.276 99.5761 223.185 100.184 228.268C100.193 228.35 100.176 228.433 100.136 228.505C100.097 228.578 100.036 228.637 99.9624 228.674C99.8887 228.711 99.8054 228.725 99.7236 228.714C99.6418 228.703 99.5652 228.667 99.5041 228.612L96.2481 225.508C96.1996 225.461 96.1387 225.43 96.0728 225.419C96.0068 225.407 95.9387 225.416 95.8767 225.443C95.8147 225.47 95.7616 225.515 95.7238 225.572C95.6861 225.629 95.6653 225.696 95.6641 225.764C95.6641 226.271 96.0667 226.977 96.8721 227.884" stroke="#BEAB34" stroke-width="2"/>
<path d="M96.8717 227.883C95.2877 227.67 94.3624 227.785 94.0957 228.227" stroke="#BEB639" stroke-width="2"/>
<path d="M106.847 207.3C107.594 205.918 108.514 204.686 109.607 203.604C109.885 203.332 109.861 203.086 109.535 202.868L109.215 202.652C109.091 202.571 108.942 202.538 108.795 202.56C108.647 202.583 108.513 202.658 108.415 202.772L104.023 207.916C103.783 208.198 103.81 208.454 104.103 208.684L105.503 209.788C105.733 209.964 105.759 210.166 105.583 210.396C103.951 212.524 105.383 215.46 106.543 217.884C109.063 223.124 113.911 216.188 114.399 213.508C114.447 213.257 114.343 213.116 114.087 213.084C112.274 212.854 110.562 212.292 108.951 211.396C108.722 211.268 108.477 211.204 108.215 211.204H107.295C107.158 211.205 107.025 211.162 106.915 211.081C106.805 211 106.724 210.885 106.684 210.754C106.644 210.622 106.647 210.481 106.692 210.35C106.737 210.22 106.822 210.107 106.935 210.028C108.157 209.18 109.178 208.118 109.999 206.844C110.036 206.786 110.053 206.717 110.048 206.649C110.043 206.58 110.016 206.515 109.972 206.463C109.927 206.411 109.866 206.375 109.799 206.36C109.732 206.345 109.662 206.352 109.599 206.38C108.986 206.662 108.41 207.017 107.871 207.444C107.69 207.588 107.485 207.644 107.255 207.612L106.983 207.572C106.807 207.55 106.762 207.46 106.847 207.3Z" stroke="#BCB557" stroke-width="2"/>
<path d="M100.527 233.076C99.7751 230.846 98.5564 229.116 96.8711 227.884" stroke="#B7A129" stroke-width="2"/>
<path d="M164.503 25.7C163.807 29.58 160.391 32.356 159.055 35.62C158.956 35.8719 158.793 36.0948 158.583 36.268C156.253 38.1827 155.538 40.1347 156.439 42.124C141.911 36.508 126.847 31.908 111.471 29.332C111.343 29.1507 111.269 29.1134 111.247 29.22C108.351 24.132 115.343 24.38 114.447 19.964C131.605 17.9694 148.29 19.8814 164.503 25.7Z" fill="#83B890"/>
<path d="M114.448 19.9639C115.344 24.3799 108.352 24.1319 111.248 29.2199L101.144 28.5879L101.384 28.4519C101.494 28.3877 101.581 28.2914 101.635 28.1761C101.688 28.0607 101.705 27.9318 101.684 27.8064C101.662 27.6811 101.602 27.5655 101.513 27.4749C101.424 27.3844 101.309 27.3233 101.184 27.2999L97.2397 26.5719C96.9677 26.5239 96.7917 26.3692 96.7117 26.1079L96.0957 24.1239C102.042 22.1399 108.16 20.7532 114.448 19.9639Z" fill="#9CC49A"/>
<path d="M96.0957 24.124L96.7118 26.108C96.7918 26.3694 96.9678 26.524 97.2398 26.572L101.184 27.3C101.309 27.3235 101.424 27.3845 101.513 27.4751C101.602 27.5656 101.662 27.6813 101.684 27.8066C101.705 27.9319 101.688 28.0609 101.635 28.1763C101.581 28.2916 101.494 28.3878 101.384 28.452L101.144 28.588C86.9598 30.204 79.4637 40.228 76.9597 53.764L76.0318 59.468C75.9891 59.74 75.8371 59.836 75.5757 59.756L75.0798 59.596C64.8158 57.388 52.5118 57.572 45.8158 66.788C44.5678 68.948 43.9171 70.9534 43.8637 72.804C43.6824 79.108 43.8451 86.3587 44.3517 94.556C43.4504 94.508 43.0957 93.4627 43.2877 91.42C43.3197 91.0894 43.1731 90.9614 42.8478 91.036C40.4478 91.5907 38.1197 91.4867 35.8637 90.724L34.8718 90.38C34.6051 90.284 34.5171 90.1027 34.6077 89.836C36.0557 85.508 37.6237 81.7 42.0317 80.02C42.3144 79.908 42.4477 79.7027 42.4317 79.404C42.2984 77.004 42.4104 74.6254 42.7677 72.268C42.8797 71.5427 42.5784 71.268 41.8637 71.444C41.3411 71.5667 40.6824 71.3987 39.8877 70.94C39.7917 70.8845 39.6846 70.8495 39.5732 70.8371C39.4617 70.8247 39.3482 70.8352 39.2398 70.868L36.5517 71.74C42.9624 60.1987 51.4344 50.2894 61.9677 42.012C72.1491 34.0707 83.5251 28.108 96.0957 24.124Z" fill="#BBDAB0"/>
<path d="M164.504 25.7002C186.808 33.8442 205.36 49.8282 217.944 69.9482L215.296 72.5082C215.104 72.6949 214.874 72.7695 214.608 72.7322L212.384 72.4602C212.293 72.4495 212.256 72.3989 212.272 72.3082L212.296 72.1002C212.344 71.7642 212.248 71.7162 212.008 71.9562L211.352 72.6282C210.749 69.3855 209.237 66.9935 206.816 65.4522C196.352 58.8122 184.488 52.9962 171.224 48.0042L156.44 42.1242C155.538 40.1349 156.253 38.1829 158.584 36.2682C158.793 36.095 158.956 35.872 159.056 35.6202C160.392 32.3562 163.808 29.5802 164.504 25.7002Z" fill="#67AA79"/>
<path d="M101.144 28.5879L111.248 29.2199C111.269 29.1132 111.344 29.1506 111.472 29.3319C111.376 29.3906 111.309 29.4732 111.272 29.5799C111.187 29.8466 111.277 30.0199 111.544 30.0999C113.336 30.6226 115.152 31.0039 116.992 31.2439C117.344 31.2866 117.509 31.4839 117.488 31.8359C117.477 32.0599 117.373 32.2439 117.176 32.3879C117.016 32.5106 116.835 32.5559 116.632 32.5239C112.547 31.7879 108.427 31.5746 104.272 31.8839C104.015 31.9049 103.759 31.8579 103.528 31.7479C102.669 31.3479 101.781 31.2679 100.864 31.5079C100.797 31.5259 100.737 31.5655 100.694 31.6205C100.651 31.6756 100.628 31.7431 100.627 31.8129C100.626 31.8826 100.648 31.9507 100.689 32.0069C100.73 32.063 100.789 32.1041 100.856 32.1239C107.16 33.8839 113.864 33.7879 119.648 35.1239C122.843 35.8652 125.901 36.7159 128.824 37.6759C128.975 37.713 129.104 37.8085 129.185 37.9412C129.265 38.074 129.289 38.2332 129.252 38.3839C129.215 38.5345 129.119 38.6643 128.987 38.7445C128.854 38.8248 128.695 38.849 128.544 38.8119C109.64 35.5559 90.552 40.8599 77.96 55.4199C77.5066 54.2732 77.1733 53.7212 76.96 53.7639C79.464 40.2279 86.96 30.2039 101.144 28.5879Z" fill="#523D38"/>
<path d="M111.472 29.332C126.848 31.908 141.912 36.508 156.44 42.124L171.224 48.004C170.792 47.8974 170.507 48.0014 170.368 48.316C170.256 48.5774 170.333 48.7534 170.6 48.844L171.136 49.028C171.285 49.0814 171.336 49.1854 171.288 49.34C171.037 50.124 170.648 50.8067 170.12 51.388C169.843 51.692 169.693 51.6414 169.672 51.236C169.667 51.1294 169.669 51.0227 169.68 50.916C169.685 50.8689 169.677 50.8213 169.656 50.7786C169.636 50.7358 169.604 50.6995 169.564 50.6738C169.524 50.6481 169.478 50.634 169.431 50.633C169.384 50.6319 169.337 50.6441 169.296 50.668C167.915 51.42 166.52 52.14 165.112 52.828C163.616 53.556 161.528 53.756 159.896 55.036C159.712 55.1832 159.493 55.2847 159.256 55.332C157.68 55.62 156.44 56.796 155.288 57.244C153.459 57.9534 151.659 58.724 149.888 59.556C148.216 60.34 145.832 61.028 143.976 62.212C142.104 63.404 140.232 63.828 138.384 64.996C138.361 65.0105 138.34 65.0249 138.324 65.0367C138.307 65.0485 138.298 65.0567 138.296 65.06L138.4 65.244C138.437 65.3187 138.419 65.3747 138.344 65.412L132.992 67.836C132.741 67.948 132.48 67.9987 132.208 67.988L130.688 67.924C130.405 67.908 130.187 68.02 130.032 68.26C129.323 69.3534 128.328 70.1934 127.048 70.78C126.829 70.8814 126.6 70.9347 126.36 70.94C124.925 70.972 123.821 71.6094 123.048 72.852C122.981 72.9589 122.89 73.049 122.784 73.1156C122.677 73.1821 122.557 73.2233 122.432 73.236C121.504 73.3107 120.525 73.7054 119.496 74.42C118.136 75.3534 116.029 76.0894 113.176 76.628C112.909 76.6814 112.683 76.8067 112.496 77.004C111.595 77.9427 110.389 78.2654 108.88 77.972C104.139 77.0387 99.832 75.58 95.96 73.596C88.064 69.548 79.696 65.14 77.96 55.42C90.552 40.86 109.64 35.556 128.544 38.812C128.695 38.8492 128.854 38.8249 128.987 38.7447C129.119 38.6644 129.215 38.5347 129.252 38.384C129.289 38.2334 129.265 38.0742 129.185 37.9414C129.104 37.8086 128.975 37.7132 128.824 37.676C125.901 36.716 122.843 35.8654 119.648 35.124C113.864 33.788 107.16 33.884 100.856 32.124C100.789 32.1043 100.73 32.0632 100.689 32.007C100.648 31.9509 100.626 31.8827 100.627 31.813C100.628 31.7433 100.651 31.6757 100.694 31.6207C100.737 31.5656 100.797 31.5261 100.864 31.508C101.781 31.268 102.669 31.348 103.528 31.748C103.759 31.8581 104.015 31.905 104.272 31.884C108.427 31.5747 112.547 31.788 116.632 32.524C116.835 32.556 117.016 32.5107 117.176 32.388C117.373 32.244 117.477 32.06 117.488 31.836C117.509 31.484 117.344 31.2867 116.992 31.244C115.152 31.004 113.336 30.6227 111.544 30.1C111.277 30.02 111.187 29.8467 111.272 29.58C111.309 29.4734 111.376 29.3907 111.472 29.332Z" fill="#1C0E18"/>
<path d="M171.224 48.0034C184.488 52.9954 196.352 58.8114 206.816 65.4514C209.237 66.9927 210.749 69.3847 211.352 72.6274C211.149 74.4994 211.192 75.7447 211.48 76.3634C210.098 97.0941 208.826 113.974 207.664 127.003C207.568 128.065 207.237 129.35 206.672 130.859C201.178 127.627 196.133 128.467 191.536 133.379C189.248 136.174 187.301 139.337 185.696 142.867C185.685 142.893 185.665 142.913 185.639 142.924C185.614 142.934 185.585 142.934 185.56 142.923C185.534 142.913 185.514 142.893 185.504 142.867C185.493 142.841 185.493 142.813 185.504 142.787C186.512 139.947 187.784 137.611 187.448 134.555C186.16 122.963 182.4 110.779 179.096 99.5314C179.021 99.2754 178.85 99.1367 178.584 99.1154C161.021 97.6434 143.602 95.1767 126.328 91.7154C113.4 89.1287 101.077 84.8221 89.3597 78.7954C89.1037 78.6621 88.9144 78.7261 88.7917 78.9874L85.3437 86.5554C80.1224 98.3527 75.3277 110.313 70.9597 122.435C69.5037 126.478 68.701 129.838 68.5517 132.515C68.317 136.713 68.8077 141.022 70.0237 145.443C68.109 138.697 65.077 133.782 60.9277 130.699C55.813 128.006 51.341 128.689 47.5117 132.747L45.3917 109.475L44.3517 94.5554C43.845 86.3581 43.6823 79.1074 43.8637 72.8034C43.917 70.9527 44.5677 68.9474 45.8157 66.7874L44.9677 70.7314L44.9517 77.0114C44.9517 77.4007 45.1117 77.4834 45.4317 77.2594C54.1943 71.0674 63.9597 67.5741 74.7277 66.7794C75.085 66.7527 75.173 66.5847 74.9917 66.2754C73.0077 62.8594 69.4317 62.2914 65.7997 62.1714C65.6742 62.1692 65.5524 62.1262 65.4517 62.0485C65.3511 61.9709 65.2768 61.8626 65.2397 61.7394C65.1277 61.3874 65.2103 60.9501 65.4877 60.4274C69.1623 61.4461 72.3597 61.1687 75.0797 59.5954L75.5757 59.7554C75.837 59.8354 75.989 59.7394 76.0317 59.4674L76.9597 53.7634C77.173 53.7207 77.5063 54.2727 77.9597 55.4194C79.6957 65.1394 88.0637 69.5474 95.9597 73.5954C99.8317 75.5794 104.138 77.0381 108.88 77.9714C110.389 78.2647 111.594 77.9421 112.496 77.0034C112.682 76.8061 112.909 76.6807 113.176 76.6274C116.029 76.0887 118.136 75.3527 119.496 74.4194C120.525 73.7047 121.504 73.3101 122.432 73.2354C122.556 73.2227 122.677 73.1815 122.783 73.1149C122.89 73.0484 122.98 72.9583 123.048 72.8514C123.821 71.6087 124.925 70.9714 126.36 70.9394C126.6 70.9341 126.829 70.8807 127.048 70.7794C128.328 70.1927 129.322 69.3527 130.032 68.2594C130.186 68.0194 130.405 67.9074 130.688 67.9234L132.208 67.9874C132.48 67.9981 132.741 67.9474 132.992 67.8354L138.344 65.4114C138.418 65.3741 138.437 65.3181 138.4 65.2434L138.296 65.0594C138.297 65.0561 138.307 65.0478 138.323 65.0361C138.339 65.0243 138.361 65.0099 138.384 64.9954C140.232 63.8274 142.104 63.4034 143.976 62.2114C145.832 61.0274 148.216 60.3394 149.888 59.5554C151.658 58.7234 153.458 57.9527 155.288 57.2434C156.44 56.7954 157.68 55.6194 159.256 55.3314C159.492 55.2841 159.712 55.1826 159.896 55.0354C161.528 53.7554 163.616 53.5554 165.112 52.8274C166.52 52.1394 167.914 51.4194 169.296 50.6674C169.337 50.6434 169.383 50.6313 169.431 50.6323C169.478 50.6333 169.524 50.6475 169.564 50.6732C169.604 50.6989 169.636 50.7352 169.656 50.7779C169.677 50.8207 169.685 50.8683 169.68 50.9154C169.669 51.0221 169.666 51.1287 169.672 51.2354C169.693 51.6407 169.842 51.6914 170.12 51.3874C170.648 50.8061 171.037 50.1234 171.288 49.3394C171.336 49.1847 171.285 49.0807 171.136 49.0274L170.6 48.8434C170.333 48.7527 170.256 48.5767 170.368 48.3154C170.506 48.0007 170.792 47.8967 171.224 48.0034Z" fill="#0E040B"/>
<path d="M75.0798 59.596C72.3598 61.1693 69.1624 61.4467 65.4878 60.428C60.9998 59.804 55.5998 61.396 52.0478 64.252C50.9598 65.1267 49.8904 66.012 48.8398 66.908C48.6553 67.0662 48.508 67.2599 48.4078 67.476L45.6798 73.18C45.6507 73.238 45.6034 73.2849 45.5451 73.3135C45.4868 73.342 45.4207 73.3505 45.357 73.3378C45.2934 73.325 45.2357 73.2917 45.1928 73.243C45.1499 73.1942 45.1243 73.1328 45.1198 73.068L44.9678 70.732L45.8158 66.788C52.5118 57.572 64.8158 57.388 75.0798 59.596Z" fill="#472D30"/>
<path d="M65.4872 60.4275C65.2098 60.9502 65.1272 61.3875 65.2392 61.7395C65.2763 61.8628 65.3506 61.971 65.4512 62.0487C65.5519 62.1263 65.6737 62.1693 65.7992 62.1715C69.4312 62.2915 73.0072 62.8595 74.9912 66.2755C75.1725 66.5849 75.0845 66.7529 74.7272 66.7795C63.9592 67.5742 54.1938 71.0675 45.4312 77.2595C45.1112 77.4835 44.9512 77.4009 44.9512 77.0115L44.9672 70.7315L45.1192 73.0675C45.1237 73.1323 45.1493 73.1938 45.1922 73.2425C45.2351 73.2913 45.2928 73.3246 45.3564 73.3373C45.4201 73.3501 45.4861 73.3415 45.5445 73.313C45.6028 73.2845 45.6501 73.2376 45.6792 73.1795L48.4072 67.4755C48.5074 67.2594 48.6547 67.0657 48.8392 66.9075C49.8898 66.0115 50.9592 65.1262 52.0472 64.2515C55.5992 61.3955 60.9992 59.8035 65.4872 60.4275Z" fill="#2D1920"/>
<path d="M35.8632 90.724L34.8792 92.068C34.6925 92.3186 34.7085 92.556 34.9272 92.78C37.8072 95.6333 39.1379 98.268 38.9192 100.684C35.7032 103.66 32.5779 106.012 29.5432 107.74C29.3299 107.863 29.1192 107.86 28.9112 107.732C27.4979 106.879 26.2499 106.959 25.1672 107.972C25.0774 108.057 24.9669 108.118 24.8466 108.147C24.7263 108.177 24.6001 108.175 24.4803 108.141C24.3604 108.107 24.251 108.043 24.1625 107.954C24.0741 107.866 24.0095 107.756 23.9752 107.636L23.7832 106.964C26.0605 94.5106 30.3165 82.7693 36.5512 71.74L39.2392 70.868C39.3477 70.8352 39.4612 70.8247 39.5726 70.8371C39.6841 70.8494 39.7911 70.8845 39.8872 70.94C40.6819 71.3986 41.3405 71.5666 41.8632 71.444C42.5779 71.268 42.8792 71.5426 42.7672 72.268C42.4099 74.6253 42.2979 77.004 42.4312 79.404C42.4472 79.7026 42.3139 79.908 42.0312 80.02C37.6232 81.7 36.0552 85.508 34.6072 89.836C34.5165 90.1026 34.6045 90.284 34.8712 90.38L35.8632 90.724Z" fill="#9CC49A"/>
<path d="M217.943 69.9482C231.714 93.3936 236.69 118.746 232.871 146.004C232.701 145.972 232.546 146.044 232.407 146.22C232.274 146.396 232.111 146.426 231.919 146.308C229.679 144.9 229.399 129.796 229.119 127.692C227.575 115.964 225.167 104.068 220.607 93.2522C218.303 87.7856 215.26 82.1562 211.479 76.3642C211.191 75.7456 211.148 74.5002 211.351 72.6282L212.007 71.9562C212.247 71.7162 212.343 71.7642 212.295 72.1002L212.271 72.3082C212.255 72.3989 212.292 72.4496 212.383 72.4602L214.607 72.7322C214.874 72.7696 215.103 72.6949 215.295 72.5082L217.943 69.9482Z" fill="#56915F"/>
<path d="M232.871 146.003C230.631 162.062 225.069 176.782 216.183 190.163C204.063 207.715 184.991 224.083 164.295 230.483C164.29 230.334 164.333 230.209 164.423 230.107C164.551 229.963 164.599 229.795 164.567 229.603C162.271 216.291 158.799 200.427 143.047 197.603C140.535 196.494 137.647 195.913 134.383 195.859C133.541 195.71 133.245 194.651 133.495 192.683V186.563C155.087 185.019 171.287 179.115 181.807 158.971C181.935 158.726 182.125 158.659 182.375 158.771L186.143 160.387C201.935 166.291 219.671 142.403 206.671 130.859C207.237 129.35 207.567 128.065 207.663 127.003C208.826 113.974 210.098 97.0939 211.479 76.3633C215.261 82.1553 218.303 87.7846 220.607 93.2513C225.167 104.067 227.575 115.963 229.119 127.691C229.399 129.795 229.679 144.899 231.919 146.307C232.111 146.425 232.274 146.395 232.407 146.219C232.546 146.043 232.701 145.971 232.871 146.003Z" fill="#487A4B"/>
<path d="M191.536 133.38C192.005 133.785 192.512 133.921 193.056 133.788C193.322 133.719 193.541 133.577 193.712 133.364C195.317 131.305 197.432 130.388 200.056 130.612C200.312 130.633 200.482 130.767 200.568 131.012C201.232 132.98 202.384 136.524 204.304 138.156C204.495 138.316 204.625 138.54 204.672 138.788C206.536 148.26 201.392 153.612 194.104 158.436C191.52 160.14 189.144 160.02 186.144 160.388L182.376 158.772C182.125 158.66 181.936 158.727 181.808 158.972C171.288 179.116 155.088 185.02 133.496 186.564L130.088 186.116C132.312 185.236 135.77 184.399 140.464 183.604C144.373 182.948 149.304 181.204 155.256 178.372C162.621 174.868 168.661 169.756 173.376 163.036C175.424 161.692 176.541 159.905 176.728 157.676C178.589 152.935 180.272 147.881 181.776 142.516C182.4 140.292 182.44 137.364 182.208 135.46C181.36 128.476 177.8 117.692 175.376 107.012C175.349 106.899 175.286 106.797 175.196 106.722C175.107 106.647 174.996 106.603 174.88 106.596L161.32 105.708C156.648 105.116 150.701 103.863 143.48 101.948C127.32 97.6654 112.528 92.3214 99.1037 85.9161C96.1037 84.4921 92.9597 83.2761 90.1037 81.1241C89.8957 80.9694 89.7197 80.9987 89.5757 81.2121C89.2504 81.6974 89.0957 82.3081 89.1117 83.0441L87.8318 86.3721L87.1198 87.1881C86.9704 87.3587 86.7837 87.4254 86.5597 87.3881C86.1117 87.3027 85.7064 87.0254 85.3438 86.5561L88.7917 78.9881C88.9144 78.7267 89.1037 78.6628 89.3597 78.7961C101.077 84.8228 113.4 89.1294 126.328 91.7161C143.602 95.1774 161.021 97.6441 178.584 99.1161C178.85 99.1374 179.021 99.2761 179.096 99.5321C182.4 110.78 186.16 122.964 187.448 134.556C187.784 137.612 186.512 139.948 185.504 142.788C185.493 142.814 185.493 142.842 185.504 142.868C185.514 142.893 185.534 142.913 185.56 142.924C185.585 142.935 185.614 142.935 185.639 142.924C185.665 142.914 185.685 142.894 185.696 142.868C187.301 139.337 189.248 136.175 191.536 133.38ZM199.432 137.772C193.552 132.332 188.312 148.228 187.104 150.996C186.96 151.321 187.064 151.46 187.416 151.412C191.224 150.852 197.392 149.124 199.592 145.828C201 143.724 201.568 139.74 199.432 137.772Z" fill="#FB9E50"/>
<path d="M161.319 105.708C159.023 107.66 157.271 111.988 161.503 113.228C157.599 112.988 148.439 113.204 147.023 117.044C146.945 117.258 146.934 117.489 146.991 117.708C147.546 119.751 148.839 120.524 150.871 120.028C155.207 118.977 159.159 118.417 162.727 118.348C166.199 118.276 169.831 119.396 173.455 120.212C173.018 121.503 172.063 122.735 170.591 123.908C170.378 124.073 170.29 124.292 170.327 124.564C170.647 126.868 170.399 129.524 171.735 131.588C173.071 133.644 174.167 135.164 173.303 137.172C170.575 127.388 160.359 122.724 151.407 127.924C151.187 128.054 151.02 128.258 150.935 128.499C150.85 128.741 150.853 129.004 150.943 129.244C150.975 129.335 151.148 129.297 151.463 129.132C151.378 129.655 151.524 130.148 151.903 130.612C146.015 135.228 147.495 145.148 155.271 146.356C154.37 146.692 154.698 146.983 156.255 147.228L157.087 147.892C157.375 148.121 157.338 148.22 156.975 148.188C155.743 148.081 154.916 148.652 154.495 149.9C154.442 150.055 154.476 150.185 154.599 150.292C154.844 150.5 154.938 150.756 154.879 151.06C154.827 151.321 154.855 151.591 154.959 151.836C155.38 152.796 156.039 153.641 156.935 154.372C154.114 155.753 152.815 157.652 153.039 160.068L148.935 160.292C148.642 160.308 148.399 160.425 148.207 160.644C146.858 162.175 145.191 163.143 143.207 163.548C144.263 160.46 144.842 157.425 144.943 154.444C144.954 154.172 144.86 154.132 144.663 154.324C137.455 161.516 126.039 164.884 115.671 163.54C115.442 163.508 115.354 163.607 115.407 163.836C116.159 166.839 117.836 169.343 120.439 171.348C122.578 172.665 125.119 173.351 128.063 173.404C128.026 173.553 127.826 173.636 127.463 173.652C127.148 173.668 127.084 173.801 127.271 174.052L127.463 174.308C127.596 174.489 127.551 174.58 127.327 174.58L118.575 174.692C118.55 174.692 118.526 174.7 118.507 174.716C118.488 174.733 118.475 174.755 118.471 174.78C118.455 174.849 118.452 174.921 118.463 174.996C118.468 175.03 118.466 175.065 118.455 175.098C118.445 175.131 118.428 175.161 118.405 175.186C118.381 175.211 118.353 175.23 118.321 175.241C118.29 175.253 118.256 175.256 118.223 175.252C115.431 174.988 112.591 175.412 110.735 172.94C110.57 172.721 110.354 172.583 110.087 172.524C107.223 171.873 104.511 170.839 101.951 169.42C98.5991 167.556 96.3671 169.308 93.4471 168.916C91.5804 168.665 89.8737 167.94 88.3271 166.74C88.2844 166.703 88.2631 166.657 88.2631 166.604C88.2631 166.529 88.2631 166.452 88.2631 166.372C88.2577 166.191 88.1644 166.087 87.9831 166.06C83.9671 165.428 78.9591 160.316 77.4471 156.076C77.3761 155.874 77.241 155.701 77.0623 155.583C76.8835 155.465 76.6709 155.409 76.4566 155.424C76.2422 155.438 76.0379 155.522 75.8745 155.663C75.7111 155.804 75.5976 155.994 75.5511 156.204L74.2471 162.26L72.3671 158.692C72.2551 156.82 71.8391 155.428 72.0551 153.516C72.4178 150.295 71.7404 147.604 70.0231 145.444C68.8071 141.023 68.3164 136.713 68.5511 132.516C68.7004 129.839 69.5031 126.479 70.9591 122.436C75.3271 110.313 80.1218 98.3532 85.3431 86.5559C85.7058 87.0252 86.1111 87.3025 86.5591 87.3879C86.7831 87.4252 86.9698 87.3585 87.1191 87.1879L87.8311 86.3719C86.4071 92.6119 83.8551 98.6039 81.7751 104.644C81.2071 106.276 79.8391 107.788 79.6071 109.964C79.5751 110.231 79.4817 110.471 79.3271 110.684C77.9564 112.54 77.2124 113.916 77.0951 114.812C76.8231 116.876 76.0631 119.657 74.8151 123.156C72.4098 129.865 71.5991 137.137 72.3831 144.972C72.4471 145.668 72.9271 146.268 73.6311 146.212C73.9351 146.185 74.0737 146.02 74.0471 145.716C73.3697 136.804 74.6551 128.247 77.9031 120.044C81.1191 111.94 84.1191 103.676 86.7431 95.4519C87.1431 94.1985 87.8764 93.9585 88.9431 94.7319C91.8551 96.8385 94.6204 99.1319 97.2391 101.612C97.3626 101.728 97.5241 101.796 97.6937 101.803C97.8633 101.81 98.0297 101.755 98.1621 101.649C98.2946 101.543 98.3842 101.392 98.4145 101.225C98.4449 101.058 98.4138 100.886 98.3271 100.74C95.4951 95.9799 91.7751 90.7639 91.5591 85.1079C91.5111 83.8759 90.4951 81.9959 89.1111 83.0439C89.0951 82.3079 89.2497 81.6972 89.5751 81.2119C89.7191 80.9985 89.8951 80.9692 90.1031 81.1239C92.9591 83.2759 96.1031 84.4919 99.1031 85.9159C112.527 92.3212 127.319 97.6652 143.479 101.948C150.7 103.863 156.647 105.116 161.319 105.708ZM107.671 114.276C101.327 109.972 89.0951 112.1 82.8791 115.34C81.7698 115.921 81.6231 116.684 82.4391 117.628C83.3271 118.652 84.1111 118.772 85.4631 118.396C91.0151 116.865 96.5378 116.844 102.031 118.332C105.039 119.148 108.327 118.964 108.087 114.996C108.077 114.852 108.035 114.712 107.963 114.587C107.89 114.462 107.791 114.355 107.671 114.276ZM86.1591 142.22C88.0737 144.679 90.9058 146.148 94.6551 146.628C98.9271 147.172 103.439 149.212 107.231 146.348C113.759 141.404 112.063 134.9 106.831 129.908C106.319 124.764 95.7431 125.836 92.8711 127.044C88.4471 128.916 80.7911 137.708 86.1591 142.22ZM124.071 144.012C123.527 143.847 123.122 143.828 122.855 143.956C122.545 144.105 122.279 144.35 122.098 144.653C121.918 144.956 121.832 145.301 121.855 145.634C121.878 145.967 122.007 146.271 122.224 146.498C122.441 146.725 122.733 146.863 123.055 146.892L124.591 147.044C124.842 147.07 125.094 147.014 125.309 146.882C125.524 146.75 125.69 146.551 125.78 146.316C125.87 146.081 125.88 145.822 125.809 145.581C125.737 145.339 125.587 145.128 125.383 144.98L124.071 144.012C125.298 144.167 126.258 144.796 126.951 145.9C127.132 146.183 127.074 146.401 126.775 146.556C125.815 147.063 124.78 147.361 123.671 147.452C123.372 147.473 123.127 147.599 122.935 147.828C122.3 148.612 122.212 149.545 122.671 150.628C122.788 150.9 122.996 151.06 123.295 151.108C127.567 151.74 132.271 146.268 127.223 143.212C126.671 142.876 123.135 142.1 124.071 144.012ZM103.943 158.828C103.881 157.287 102.753 155.852 100.807 154.839C98.8607 153.825 96.2559 153.317 93.5656 153.425C90.8753 153.533 88.3198 154.249 86.4613 155.415C84.6027 156.581 83.5933 158.102 83.6552 159.643C83.7172 161.185 84.8453 162.62 86.7914 163.633C88.7375 164.647 91.3422 165.155 94.0325 165.047C96.7228 164.939 99.2784 164.223 101.137 163.057C102.995 161.891 104.005 160.37 103.943 158.828Z" fill="#FDBC79"/>
<path d="M87.8318 86.3715L89.1118 83.0435C90.4958 81.9955 91.5118 83.8755 91.5598 85.1075C91.7758 90.7635 95.4958 95.9795 98.3278 100.739C98.4145 100.885 98.4456 101.058 98.4153 101.225C98.385 101.392 98.2953 101.542 98.1629 101.648C98.0304 101.755 97.864 101.809 97.6944 101.803C97.5248 101.796 97.3634 101.728 97.2398 101.611C94.6211 99.1315 91.8558 96.8382 88.9438 94.7315C87.8772 93.9582 87.1438 94.1981 86.7438 95.4515C84.1198 103.675 81.1198 111.939 77.9038 120.043C74.6558 128.246 73.3705 136.803 74.0478 145.715C74.0745 146.019 73.9358 146.185 73.6318 146.211C72.9278 146.267 72.4478 145.667 72.3838 144.971C71.5998 137.137 72.4105 129.865 74.8158 123.155C76.0638 119.657 76.8238 116.875 77.0958 114.811C77.2131 113.915 77.9571 112.539 79.3278 110.683C79.4825 110.47 79.5758 110.23 79.6078 109.963C79.8398 107.787 81.2078 106.275 81.7758 104.643C83.8558 98.6035 86.4078 92.6115 87.8318 86.3715Z" fill="#FED987"/>
<path d="M35.8639 90.7236C38.1199 91.4863 40.4479 91.5903 42.8479 91.0356C43.1733 90.961 43.3199 91.089 43.2879 91.4196C43.0959 93.4623 43.4506 94.5076 44.3519 94.5556L45.3919 109.476C43.8559 107.604 43.4586 104.892 44.1999 101.34C44.2639 101.041 44.2186 100.758 44.0639 100.492C43.4719 99.4623 43.2853 98.3583 43.5039 97.1796C43.521 97.1155 43.5134 97.0473 43.4825 96.9886C43.4515 96.9299 43.3997 96.885 43.3371 96.8628C43.2746 96.8406 43.206 96.8428 43.145 96.8689C43.084 96.895 43.0351 96.9431 43.0079 97.0036C42.5386 97.8783 41.8293 98.377 40.8799 98.4996C40.6346 98.5316 40.4639 98.6596 40.3679 98.8836C39.8666 100.046 39.3839 100.646 38.9199 100.684C39.1386 98.2676 37.8079 95.633 34.9279 92.7796C34.7093 92.5556 34.6933 92.3183 34.8799 92.0676L35.8639 90.7236Z" fill="#83B890"/>
<path d="M45.3912 109.476L47.5112 132.748C44.6792 136.929 44.1219 141.604 45.8392 146.772C45.2579 146.654 44.9459 146.945 44.9032 147.644C44.8925 147.846 44.7992 147.897 44.6232 147.796L44.3672 147.636C44.1805 147.524 43.9885 147.518 43.7912 147.62C37.3192 150.852 30.5832 154.012 27.5352 159.62C27.453 159.774 27.3248 159.898 27.1684 159.976C27.0121 160.054 26.8354 160.081 26.6629 160.054C26.4904 160.027 26.3307 159.946 26.206 159.824C26.0814 159.702 25.9979 159.544 25.9672 159.372C25.9032 159.036 25.7139 158.91 25.3992 158.996C20.9459 141.897 20.4072 124.553 23.7832 106.964L23.9752 107.636C24.0095 107.756 24.0741 107.866 24.1625 107.954C24.251 108.043 24.3604 108.107 24.4803 108.141C24.6001 108.174 24.7263 108.177 24.8466 108.147C24.9669 108.117 25.0774 108.057 25.1672 107.972C26.2499 106.958 27.4979 106.878 28.9112 107.732C29.1192 107.86 29.3299 107.862 29.5432 107.74C32.5779 106.012 35.7032 103.66 38.9192 100.684C39.3832 100.646 39.8659 100.046 40.3672 98.8837C40.4632 98.6597 40.6339 98.5317 40.8792 98.4997C41.8285 98.377 42.5379 97.8784 43.0072 97.0037C43.0343 96.9432 43.0833 96.895 43.1443 96.8689C43.2053 96.8428 43.2739 96.8407 43.3364 96.8629C43.3989 96.885 43.4508 96.93 43.4817 96.9887C43.5126 97.0474 43.5203 97.1156 43.5032 97.1797C43.2845 98.3584 43.4712 99.4624 44.0632 100.492C44.2179 100.758 44.2632 101.041 44.1992 101.34C43.4579 104.892 43.8552 107.604 45.3912 109.476Z" fill="#67AA79"/>
<path d="M161.32 105.708L174.88 106.596C174.996 106.603 175.107 106.647 175.197 106.722C175.286 106.797 175.349 106.899 175.376 107.012C177.8 117.692 181.36 128.476 182.208 135.46C182.44 137.364 182.4 140.292 181.776 142.516C180.272 147.881 178.589 152.935 176.728 157.676C171.405 152.807 164.808 151.705 156.936 154.372C156.04 153.641 155.381 152.796 154.96 151.836C154.856 151.591 154.828 151.321 154.88 151.06C154.939 150.756 154.845 150.5 154.6 150.292C154.477 150.185 154.443 150.055 154.496 149.9C154.917 148.652 155.744 148.081 156.976 148.188C157.339 148.22 157.376 148.121 157.088 147.892L156.256 147.228C162.624 146.092 166.928 145.9 171.696 140.988C172.965 141.015 173.501 139.743 173.304 137.172C174.168 135.164 173.072 133.644 171.736 131.588C170.4 129.524 170.648 126.868 170.328 124.564C170.291 124.292 170.379 124.073 170.592 123.908C172.064 122.735 173.019 121.503 173.456 120.212C174.032 120.036 174.517 119.519 174.912 118.66C175.109 118.244 175.021 117.897 174.648 117.62C170.717 114.681 166.336 113.217 161.504 113.228C157.272 111.988 159.024 107.66 161.32 105.708Z" fill="#FCB468"/>
<path d="M107.672 114.275C107.791 114.355 107.891 114.461 107.963 114.586C108.035 114.711 108.078 114.851 108.088 114.995C108.328 118.963 105.04 119.147 102.032 118.331C96.5383 116.843 91.0157 116.865 85.4637 118.395C84.1117 118.771 83.3277 118.651 82.4397 117.627C81.6237 116.683 81.7703 115.921 82.8797 115.339C89.0957 112.099 101.328 109.971 107.672 114.275Z" fill="#070608"/>
<path d="M161.503 113.227C166.335 113.217 170.717 114.681 174.647 117.619C175.021 117.897 175.109 118.243 174.911 118.659C174.517 119.518 174.031 120.035 173.455 120.211C169.831 119.395 166.199 118.275 162.727 118.347C159.159 118.417 155.207 118.977 150.871 120.027C148.839 120.523 147.546 119.75 146.991 117.707C146.934 117.489 146.945 117.257 147.023 117.043C148.439 113.203 157.599 112.987 161.503 113.227Z" fill="#070608"/>
<path d="M173.304 137.172C173.501 139.742 172.965 141.014 171.696 140.988C169.125 130.161 162.381 126.209 151.464 129.132C151.149 129.297 150.976 129.334 150.944 129.244C150.854 129.004 150.851 128.741 150.936 128.499C151.02 128.258 151.188 128.054 151.408 127.924C160.36 122.724 170.576 127.388 173.304 137.172Z" fill="#070608"/>
<path d="M106.832 129.908C95.621 126.932 88.7303 131.036 86.1597 142.22C80.7917 137.708 88.4477 128.916 92.8717 127.044C95.7437 125.836 106.32 124.764 106.832 129.908Z" fill="#160B14"/>
<path d="M171.696 140.988C166.928 145.9 162.624 146.092 156.256 147.228C154.699 146.983 154.371 146.692 155.272 146.356C158.848 146.66 161.584 143.196 162.592 140.188C164.776 133.676 158.456 126.7 151.904 130.612C151.525 130.148 151.379 129.655 151.464 129.132C162.381 126.209 169.125 130.161 171.696 140.988Z" fill="#EBE1DA"/>
<path d="M106.831 129.908C112.063 134.9 113.759 141.404 107.231 146.348C103.439 149.212 98.9272 147.172 94.6552 146.628C90.9059 146.148 88.0738 144.679 86.1592 142.22C88.7298 131.036 95.6205 126.932 106.831 129.908ZM100.529 146.681C101.415 146.958 102.357 147.029 103.3 146.888C104.243 146.747 105.17 146.398 106.026 145.86C106.883 145.322 107.654 144.606 108.293 143.752C108.933 142.899 109.43 141.925 109.756 140.887C110.413 138.789 110.332 136.555 109.532 134.675C108.731 132.795 107.275 131.424 105.486 130.863C104.599 130.585 103.658 130.515 102.715 130.656C101.771 130.797 100.845 131.146 99.9879 131.684C99.1311 132.222 98.3608 132.938 97.7209 133.792C97.0811 134.645 96.5843 135.619 96.2588 136.657C95.6015 138.755 95.6821 140.989 96.4828 142.869C97.2836 144.749 98.7389 146.12 100.529 146.681Z" fill="#F3DEC9"/>
<path d="M206.672 130.86C219.672 142.404 201.936 166.292 186.144 160.388C189.144 160.02 191.52 160.139 194.104 158.435C201.392 153.611 206.536 148.26 204.672 138.788C204.625 138.539 204.495 138.316 204.304 138.156C202.384 136.524 201.232 132.979 200.568 131.011C200.482 130.766 200.312 130.633 200.056 130.611C197.432 130.387 195.317 131.305 193.712 133.364C193.541 133.577 193.322 133.718 193.056 133.788C192.512 133.921 192.005 133.785 191.536 133.38C196.133 128.468 201.178 127.628 206.672 130.86Z" fill="#FCBA5E"/>
<path d="M60.9276 130.699C52.3089 133.174 49.3516 138.545 52.0556 146.811C52.8556 149.259 54.7863 151.67 57.8476 154.043C57.9547 154.127 58.0332 154.241 58.072 154.37C58.1107 154.499 58.1078 154.637 58.0636 154.763C57.7329 155.723 57.7383 156.67 58.0796 157.603C58.1756 157.865 58.1969 158.129 58.1436 158.395L57.7516 160.355C51.9703 157.593 47.9996 153.065 45.8396 146.771C44.1223 141.603 44.6796 136.929 47.5116 132.747C51.3409 128.689 55.8129 128.006 60.9276 130.699Z" fill="#FED987"/>
<path d="M155.271 146.356C147.495 145.148 146.015 135.228 151.903 130.612C158.455 126.7 164.775 133.676 162.591 140.188C161.583 143.196 158.847 146.66 155.271 146.356ZM155.76 138.874C155.982 138.852 156.196 138.778 156.391 138.656C156.585 138.535 156.757 138.368 156.895 138.165C157.033 137.962 157.135 137.728 157.195 137.475C157.256 137.222 157.273 136.956 157.247 136.691C157.194 136.157 156.965 135.663 156.61 135.317C156.256 134.971 155.806 134.801 155.358 134.846C155.137 134.868 154.922 134.942 154.728 135.064C154.533 135.185 154.362 135.352 154.224 135.555C154.086 135.758 153.984 135.992 153.923 136.245C153.863 136.498 153.845 136.764 153.872 137.028C153.925 137.563 154.154 138.057 154.508 138.403C154.862 138.749 155.313 138.919 155.76 138.874Z" fill="#070608"/>
<path d="M100.529 146.68C98.7392 146.119 97.2839 144.748 96.4831 142.868C95.6824 140.989 95.6018 138.754 96.2591 136.657C96.5846 135.618 97.0814 134.644 97.7212 133.791C98.3611 132.938 99.1314 132.222 99.9882 131.684C100.845 131.146 101.771 130.796 102.715 130.656C103.658 130.515 104.6 130.585 105.486 130.863C107.276 131.424 108.731 132.795 109.532 134.675C110.333 136.554 110.413 138.789 109.756 140.886C109.43 141.925 108.934 142.899 108.294 143.752C107.654 144.605 106.884 145.321 106.027 145.859C105.17 146.397 104.243 146.747 103.3 146.888C102.357 147.028 101.415 146.958 100.529 146.68ZM99.7995 138.564L101.895 138.548C102.091 138.545 102.279 138.466 102.416 138.327C102.554 138.188 102.631 138 102.631 137.804V137.132C102.629 136.667 102.583 136.208 102.495 135.779C102.408 135.351 102.281 134.962 102.122 134.635C101.963 134.308 101.775 134.049 101.569 133.873C101.362 133.698 101.142 133.609 100.919 133.612H100.711C100.265 133.617 99.8389 133.992 99.527 134.655C99.2151 135.318 99.0427 136.214 99.0475 137.148V137.82C99.0475 137.918 99.067 138.015 99.1049 138.106C99.1428 138.197 99.1983 138.279 99.2682 138.348C99.3382 138.418 99.4211 138.472 99.5123 138.509C99.6035 138.546 99.7011 138.565 99.7995 138.564Z" fill="#070608"/>
<path d="M60.9275 130.7C65.0769 133.783 68.1089 138.698 70.0235 145.444C71.7409 147.604 72.4182 150.295 72.0555 153.516C71.8395 155.428 72.2555 156.82 72.3675 158.692C68.1809 161.194 63.3382 161.722 57.8395 160.276C58.2075 160.436 58.1782 160.463 57.7515 160.356L58.1435 158.396C58.1969 158.13 58.1755 157.866 58.0795 157.604C57.7382 156.671 57.7329 155.724 58.0635 154.764C58.1077 154.638 58.1106 154.5 58.0719 154.371C58.0331 154.242 57.9547 154.127 57.8475 154.044C54.7862 151.671 52.8555 149.26 52.0555 146.812C49.3515 138.546 52.3089 133.175 60.9275 130.7ZM64.4075 143.06C60.4715 132.596 50.7755 141.492 58.1835 148.692C60.7649 151.204 63.8235 152.327 67.3595 152.06C67.4472 152.052 67.5318 152.023 67.6062 151.977C67.6806 151.93 67.7428 151.866 67.7874 151.791C67.832 151.716 67.8579 151.631 67.8628 151.545C67.8677 151.458 67.8515 151.371 67.8155 151.292C66.6049 148.615 65.4689 145.871 64.4075 143.06Z" fill="#FCB468"/>
<path d="M99.8 138.563C99.7016 138.564 99.604 138.546 99.5128 138.509C99.4216 138.472 99.3386 138.418 99.2687 138.348C99.1988 138.279 99.1432 138.197 99.1053 138.106C99.0675 138.015 99.0479 137.918 99.0479 137.819V137.147C99.0432 136.214 99.2156 135.317 99.5275 134.655C99.8394 133.992 100.265 133.617 100.712 133.611H100.92C101.142 133.609 101.363 133.698 101.569 133.873C101.775 134.049 101.964 134.308 102.123 134.635C102.282 134.962 102.409 135.351 102.496 135.779C102.583 136.207 102.63 136.667 102.632 137.131V137.803C102.632 137.999 102.555 138.187 102.417 138.327C102.279 138.466 102.092 138.545 101.896 138.547L99.8 138.563ZM101.2 137.155L101.344 135.747C101.357 135.644 101.333 135.539 101.276 135.452C101.219 135.365 101.133 135.3 101.033 135.271C100.933 135.241 100.826 135.247 100.731 135.289C100.635 135.331 100.558 135.406 100.512 135.499C100.181 136.123 100.208 136.726 100.592 137.307C100.933 137.825 101.136 137.774 101.2 137.155Z" fill="#EBE1DA"/>
<path d="M155.761 138.874C155.313 138.919 154.863 138.749 154.509 138.403C154.155 138.057 153.926 137.563 153.872 137.028C153.846 136.764 153.863 136.498 153.924 136.245C153.984 135.992 154.086 135.758 154.224 135.555C154.362 135.352 154.534 135.185 154.728 135.064C154.923 134.942 155.137 134.868 155.359 134.846C155.806 134.801 156.257 134.971 156.611 135.317C156.965 135.663 157.194 136.157 157.247 136.691C157.274 136.956 157.256 137.222 157.196 137.475C157.136 137.728 157.033 137.962 156.895 138.165C156.757 138.368 156.586 138.534 156.391 138.656C156.197 138.778 155.983 138.852 155.761 138.874ZM156.032 137.732C156.144 137.193 156.019 136.7 155.656 136.252C155.341 135.863 155.096 135.903 154.92 136.372C154.68 137.017 154.819 137.553 155.336 137.98C155.704 138.284 155.936 138.201 156.032 137.732Z" fill="#EBE1DA"/>
<path d="M100.592 137.308C100.208 136.727 100.181 136.124 100.512 135.5C100.557 135.406 100.635 135.332 100.73 135.29C100.826 135.248 100.933 135.241 101.033 135.271C101.133 135.301 101.219 135.365 101.276 135.453C101.333 135.54 101.357 135.645 101.344 135.748L101.2 137.156C101.136 137.775 100.933 137.825 100.592 137.308Z" fill="#645A4F"/>
<path d="M155.336 137.98C154.818 137.553 154.68 137.017 154.92 136.372C155.096 135.903 155.341 135.863 155.656 136.252C156.018 136.7 156.144 137.193 156.032 137.732C155.936 138.201 155.704 138.284 155.336 137.98Z" fill="#523D38"/>
<path d="M187.104 150.996C188.312 148.228 193.552 132.332 199.432 137.772C201.568 139.74 201 143.724 199.592 145.828C197.392 149.124 191.224 150.852 187.416 151.412C187.064 151.46 186.96 151.322 187.104 150.996Z" fill="#E05E28"/>
<path d="M58.1833 148.692C50.7753 141.492 60.4713 132.596 64.4073 143.06C65.4687 145.87 66.6047 148.614 67.8153 151.292C67.8513 151.371 67.8674 151.457 67.8625 151.544C67.8576 151.631 67.8318 151.715 67.7872 151.79C67.7425 151.866 67.6804 151.929 67.606 151.976C67.5316 152.023 67.447 152.052 67.3593 152.06C63.8233 152.326 60.7647 151.204 58.1833 148.692Z" fill="#ED6735"/>
<path d="M124.071 144.012C123.135 142.1 126.671 142.876 127.223 143.212C132.271 146.268 127.567 151.74 123.295 151.108C122.997 151.06 122.789 150.9 122.671 150.628C122.213 149.545 122.301 148.612 122.935 147.828C123.127 147.598 123.373 147.473 123.671 147.452C124.781 147.361 125.815 147.062 126.775 146.556C127.074 146.401 127.133 146.182 126.951 145.9C126.258 144.796 125.298 144.166 124.071 144.012Z" fill="#FB9E50"/>
<path d="M124.071 144.012L125.383 144.98C125.587 145.128 125.737 145.339 125.809 145.581C125.881 145.822 125.87 146.081 125.78 146.316C125.69 146.551 125.524 146.75 125.309 146.882C125.094 147.014 124.842 147.07 124.591 147.044L123.055 146.892C122.733 146.863 122.441 146.725 122.224 146.498C122.008 146.271 121.878 145.967 121.855 145.634C121.832 145.301 121.918 144.956 122.099 144.653C122.279 144.35 122.545 144.105 122.855 143.956C123.122 143.828 123.527 143.847 124.071 144.012Z" fill="#FCE8A3"/>
<path d="M45.8394 146.771C47.9994 153.065 51.9701 157.593 57.7514 160.355C58.1781 160.462 58.2074 160.435 57.8394 160.275C59.0314 163.563 61.1674 165.891 63.1354 168.659C62.2074 171.054 61.1514 173.417 59.9674 175.747C58.9274 177.787 56.9354 179.107 55.7834 181.371C55.6608 181.611 55.4901 181.806 55.2714 181.955C53.1008 183.427 51.5807 185.398 50.7114 187.867C50.6261 188.107 50.5994 188.355 50.6314 188.611C51.0954 192.211 45.8154 188.923 44.9274 188.163C44.6661 187.945 44.4314 187.971 44.2234 188.243C43.2794 189.513 41.9728 189.886 40.3034 189.363C40.1808 189.326 40.1114 189.371 40.0954 189.499L40.0554 189.787C40.0341 189.937 39.9648 189.969 39.8474 189.883C39.7354 189.798 39.5967 189.777 39.4314 189.819C33.1914 180.315 28.5141 170.041 25.3994 158.995C25.7141 158.91 25.9034 159.035 25.9674 159.371C25.9981 159.543 26.0816 159.701 26.2063 159.824C26.331 159.946 26.4906 160.026 26.6631 160.054C26.8356 160.081 27.0123 160.054 27.1687 159.976C27.325 159.898 27.4532 159.773 27.5354 159.619C30.5834 154.011 37.3194 150.851 43.7914 147.619C43.9888 147.518 44.1807 147.523 44.3674 147.635L44.6234 147.795C44.7994 147.897 44.8928 147.846 44.9034 147.643C44.9461 146.945 45.2581 146.654 45.8394 146.771Z" fill="#56915F"/>
<path d="M176.727 157.675C176.541 159.905 175.423 161.691 173.375 163.035C167.223 164.363 157.535 165.243 153.039 160.067C152.815 157.651 154.114 155.753 156.935 154.371C164.807 151.705 171.405 152.806 176.727 157.675Z" fill="#F98759"/>
<path d="M94.0325 165.047C99.6348 164.822 104.072 162.038 103.943 158.829C103.814 155.619 99.168 153.2 93.5657 153.425C87.9634 153.65 83.5264 156.434 83.6553 159.643C83.7842 162.853 88.4302 165.272 94.0325 165.047Z" fill="#F98759"/>
<path d="M143.208 163.548L141.064 167.596C133.981 164.834 127.394 165.3 121.304 168.996C120.434 169.524 120.146 170.308 120.44 171.348C117.837 169.343 116.16 166.839 115.408 163.836C115.354 163.607 115.442 163.508 115.672 163.54C126.04 164.884 137.456 161.516 144.664 154.324C144.861 154.132 144.954 154.172 144.944 154.444C144.842 157.426 144.264 160.46 143.208 163.548Z" fill="#60080C"/>
<path d="M128.064 173.404C133.408 173.569 137.741 171.633 141.064 167.596L143.208 163.548C145.192 163.143 146.859 162.175 148.208 160.644C148.4 160.425 148.643 160.308 148.936 160.292L153.04 160.068C157.536 165.244 167.224 164.364 173.376 163.036C168.661 169.756 162.621 174.868 155.256 178.372C149.304 181.204 144.373 182.948 140.464 183.604C135.771 184.399 132.312 185.236 130.088 186.116L121.536 186.212C102.328 185.796 83.936 179.812 74.248 162.26L75.5521 156.204C75.5986 155.994 75.7121 155.804 75.8755 155.663C76.0389 155.523 76.2432 155.439 76.4575 155.424C76.6719 155.41 76.8845 155.465 77.0632 155.583C77.242 155.701 77.3771 155.874 77.448 156.076C78.96 160.316 83.968 165.428 87.984 166.06C88.1654 166.087 88.2587 166.191 88.2641 166.372C88.2641 166.452 88.2641 166.529 88.2641 166.604C88.2641 166.657 88.2854 166.703 88.3281 166.74C89.8747 167.94 91.5814 168.665 93.448 168.916C96.368 169.308 98.6001 167.556 101.952 169.42C104.512 170.839 107.224 171.873 110.088 172.524C110.355 172.583 110.571 172.721 110.736 172.94C112.592 175.412 115.432 174.988 118.224 175.252C118.257 175.256 118.291 175.253 118.322 175.241C118.354 175.23 118.382 175.211 118.406 175.186C118.429 175.161 118.446 175.131 118.456 175.098C118.467 175.065 118.469 175.03 118.464 174.996C118.453 174.921 118.456 174.849 118.472 174.78C118.476 174.755 118.489 174.733 118.508 174.717C118.527 174.7 118.551 174.692 118.576 174.692L127.328 174.58C127.552 174.58 127.597 174.489 127.464 174.308L127.272 174.052C127.085 173.801 127.149 173.668 127.464 173.652C127.827 173.636 128.027 173.553 128.064 173.404Z" fill="#FCB468"/>
<path d="M72.3678 158.691L74.2478 162.259C83.9358 179.811 102.328 185.795 121.536 186.211L121.72 192.587C121.885 194.369 121.563 195.513 120.752 196.019C106.976 197.323 99.0238 204.051 95.3438 217.403C94.3892 214.993 93.2905 212.918 92.0478 211.179C82.0798 197.259 72.8958 182.675 63.1358 168.659C61.1678 165.891 59.0318 163.563 57.8398 160.275C63.3385 161.721 68.1812 161.193 72.3678 158.691Z" fill="#487A4B"/>
<path d="M141.063 167.596C137.74 171.633 133.407 173.569 128.063 173.404C125.119 173.35 122.578 172.665 120.439 171.348C120.146 170.308 120.434 169.524 121.303 168.996C127.394 165.3 133.98 164.833 141.063 167.596Z" fill="#CF3722"/>
<path d="M63.1356 168.66C72.8956 182.676 82.0796 197.26 92.0476 211.18C93.2903 212.919 94.389 214.993 95.3436 217.404C94.0316 221.329 92.9756 225.873 92.1756 231.036C70.1223 223.009 52.541 209.271 39.4316 189.82C39.597 189.777 39.7356 189.799 39.8476 189.884C39.965 189.969 40.0343 189.937 40.0556 189.788L40.0956 189.5C40.1116 189.372 40.181 189.327 40.3036 189.364C41.973 189.887 43.2796 189.513 44.2236 188.244C44.4316 187.972 44.6663 187.945 44.9276 188.164C45.8156 188.924 51.0956 192.212 50.6316 188.612C50.5996 188.356 50.6263 188.108 50.7116 187.868C51.581 185.399 53.101 183.428 55.2716 181.956C55.4903 181.807 55.661 181.612 55.7836 181.372C56.9356 179.108 58.9276 177.788 59.9676 175.748C61.1516 173.417 62.2076 171.055 63.1356 168.66Z" fill="#4B855D"/>
<path d="M130.087 186.116L133.495 186.564V192.684L121.719 192.588L121.535 186.212L130.087 186.116Z" fill="#ED6735"/>
<path d="M121.719 192.588L133.495 192.684C133.245 194.652 133.541 195.711 134.383 195.86C134.679 201.692 131.839 204.604 127.063 207.3C126.844 207.426 126.586 207.47 126.336 207.424C126.086 207.379 125.859 207.247 125.695 207.052C123.253 204.124 121.466 200.777 120.335 197.012C119.973 196.847 120.111 196.516 120.751 196.02C121.562 195.513 121.885 194.369 121.719 192.588Z" fill="#FB8A30"/>
<path d="M134.384 195.859C137.648 195.913 140.536 196.494 143.048 197.603C149.032 199.497 153.349 202.585 156 206.867C159.984 213.291 162.12 222.555 163.208 229.515C163.312 230.219 163.376 230.187 163.944 230.579L153.848 233.315C153.997 227.214 153.365 221.235 151.952 215.379C151.845 214.947 151.784 214.955 151.768 215.403L151.112 233.435C150.909 234.006 150.627 234.283 150.264 234.267C149.848 234.278 149.453 234.185 149.08 233.987C148.824 233.854 148.739 233.649 148.824 233.371C149.8 230.195 150.2 226.419 148.112 223.531C144.04 217.907 135.88 215.259 130.728 212.595C130.515 212.483 130.392 212.547 130.36 212.787L129.672 218.411C129.67 218.447 129.654 218.481 129.627 218.505C129.599 218.529 129.564 218.542 129.528 218.539C129.492 218.537 129.458 218.521 129.434 218.494C129.41 218.467 129.398 218.431 129.4 218.395C129.331 216.171 129.427 213.95 129.688 211.731C129.694 211.677 129.688 211.622 129.672 211.571C129.656 211.519 129.629 211.471 129.593 211.431C129.558 211.39 129.515 211.357 129.466 211.335C129.418 211.312 129.365 211.3 129.312 211.299L125.744 211.235C125.349 211.225 125.125 211.025 125.072 210.635L124.696 207.971C124.669 207.79 124.603 207.627 124.496 207.483C122.187 204.251 120.285 200.865 118.792 197.323C118.888 196.998 119.403 196.894 120.336 197.011C121.467 200.777 123.253 204.123 125.696 207.051C125.86 207.247 126.087 207.379 126.337 207.424C126.587 207.469 126.844 207.425 127.064 207.299C131.84 204.603 134.68 201.691 134.384 195.859Z" fill="#B79623"/>
<path d="M120.752 196.02C120.112 196.516 119.973 196.846 120.336 197.012C119.402 196.894 118.888 196.998 118.792 197.324C115.288 197.484 112.376 198.284 110.056 199.724C108.045 200.721 106.794 201.564 106.304 202.252C102.552 207.5 97.1838 216.244 96.7678 222.748C96.7518 223.014 96.6451 223.236 96.4478 223.412C95.0024 224.724 94.2184 226.329 94.0958 228.228C93.2584 229.262 93.3438 230.345 94.3518 231.476L92.1758 231.036C92.9758 225.873 94.0318 221.329 95.3438 217.404C99.0238 204.052 106.976 197.324 120.752 196.02Z" fill="#FED987"/>
<path d="M118.792 197.324C120.285 200.866 122.186 204.252 124.496 207.484C124.602 207.628 124.669 207.791 124.696 207.972L125.072 210.636C125.125 211.026 125.349 211.226 125.744 211.236L129.312 211.3C129.365 211.301 129.418 211.313 129.466 211.336C129.514 211.358 129.558 211.391 129.593 211.431C129.629 211.472 129.655 211.52 129.671 211.572C129.688 211.623 129.693 211.678 129.688 211.732C129.426 213.951 129.33 216.172 129.4 218.396C129.399 218.414 129.401 218.432 129.407 218.449C129.413 218.466 129.422 218.481 129.434 218.495C129.458 218.522 129.492 218.538 129.528 218.54C129.564 218.542 129.599 218.53 129.626 218.506C129.653 218.482 129.67 218.448 129.672 218.412L130.36 212.788C130.392 212.548 130.514 212.484 130.728 212.596C135.88 215.26 144.04 217.908 148.112 223.532C150.2 226.42 149.8 230.196 148.824 233.372C148.738 233.65 148.824 233.855 149.08 233.988C149.453 234.186 149.848 234.279 150.264 234.268C141.245 235.986 132.181 236.716 123.072 236.46V213.548C123.071 213.387 123.021 213.23 122.928 213.098C122.835 212.966 122.704 212.867 122.552 212.812C116.064 210.428 113.568 205.132 110.056 199.724C112.376 198.284 115.288 197.484 118.792 197.324Z" fill="#B7AC2E"/>
<path d="M143.048 197.604C158.8 200.428 162.272 216.292 164.568 229.604C164.6 229.796 164.552 229.964 164.424 230.108C164.333 230.209 164.291 230.334 164.296 230.484C164.152 230.201 164.035 230.233 163.944 230.58C163.376 230.188 163.312 230.22 163.208 229.516C162.12 222.556 159.984 213.292 156 206.868C153.349 202.585 149.032 199.497 143.048 197.604Z" fill="#FED987"/>
<path d="M110.056 199.724C113.568 205.132 116.064 210.428 122.552 212.812C122.704 212.866 122.835 212.966 122.928 213.097C123.021 213.229 123.071 213.386 123.072 213.548V236.46C121.832 236.396 103.112 234.996 102.544 233.228L103.48 215.868C103.49 215.59 103.552 215.326 103.664 215.076C103.952 214.425 103.85 213.833 103.36 213.3C103.269 213.203 103.156 213.131 103.03 213.09C102.905 213.049 102.771 213.04 102.642 213.064C102.513 213.088 102.392 213.144 102.291 213.227C102.19 213.31 102.112 213.418 102.064 213.54C100.202 218.276 99.5757 223.185 100.184 228.268C100.192 228.35 100.176 228.433 100.136 228.505C100.096 228.578 100.036 228.636 99.962 228.674C99.8884 228.711 99.8051 228.725 99.7233 228.714C99.6414 228.703 99.5649 228.667 99.5037 228.612L96.2477 225.508C96.1993 225.461 96.1384 225.43 96.0724 225.419C96.0065 225.407 95.9383 225.415 95.8763 225.443C95.8144 225.47 95.7613 225.515 95.7235 225.572C95.6857 225.629 95.6649 225.695 95.6637 225.764C95.6637 226.27 96.0664 226.977 96.8717 227.884C95.2877 227.67 94.3624 227.785 94.0957 228.228C94.2184 226.329 95.0024 224.724 96.4477 223.412C96.645 223.236 96.7517 223.014 96.7677 222.748C97.1837 216.244 102.552 207.5 106.304 202.252C106.794 201.564 108.045 200.721 110.056 199.724ZM106.848 207.3C107.594 205.918 108.514 204.686 109.608 203.604C109.885 203.332 109.861 203.086 109.536 202.868L109.216 202.652C109.092 202.571 108.942 202.538 108.795 202.56C108.648 202.582 108.513 202.658 108.416 202.772L104.024 207.916C103.784 208.198 103.81 208.454 104.104 208.684L105.504 209.788C105.733 209.964 105.76 210.166 105.584 210.396C103.952 212.524 105.384 215.46 106.544 217.884C109.064 223.124 113.912 216.188 114.4 213.508C114.448 213.257 114.344 213.116 114.088 213.084C112.274 212.854 110.562 212.292 108.952 211.396C108.722 211.268 108.477 211.204 108.216 211.204H107.296C107.159 211.205 107.026 211.161 106.916 211.08C106.806 210.999 106.725 210.885 106.684 210.754C106.644 210.622 106.647 210.481 106.692 210.35C106.737 210.22 106.823 210.107 106.936 210.028C108.157 209.18 109.178 208.118 110 206.844C110.037 206.786 110.054 206.717 110.049 206.649C110.044 206.58 110.017 206.515 109.972 206.463C109.927 206.411 109.867 206.375 109.8 206.36C109.733 206.345 109.662 206.352 109.6 206.38C108.986 206.662 108.41 207.017 107.872 207.444C107.69 207.588 107.485 207.644 107.256 207.612L106.984 207.572C106.808 207.55 106.762 207.46 106.848 207.3Z" fill="#C5BF44"/>
<path d="M106.983 207.572L107.255 207.612C107.485 207.644 107.69 207.588 107.871 207.444C108.41 207.017 108.986 206.662 109.599 206.38C109.662 206.352 109.732 206.345 109.799 206.36C109.866 206.375 109.927 206.411 109.972 206.463C110.016 206.515 110.043 206.58 110.048 206.649C110.053 206.717 110.036 206.786 109.999 206.844C109.178 208.118 108.157 209.18 106.935 210.028C106.822 210.107 106.737 210.22 106.692 210.35C106.647 210.481 106.644 210.622 106.684 210.754C106.724 210.885 106.805 211 106.915 211.081C107.025 211.162 107.158 211.205 107.295 211.204H108.215C108.477 211.204 108.722 211.268 108.951 211.396C110.562 212.292 112.274 212.854 114.087 213.084C114.343 213.116 114.447 213.257 114.399 213.508C113.911 216.188 109.063 223.124 106.543 217.884C105.383 215.46 103.951 212.524 105.583 210.396C105.759 210.166 105.733 209.964 105.503 209.788L104.103 208.684C103.81 208.454 103.783 208.198 104.023 207.916L108.415 202.772C108.513 202.658 108.647 202.583 108.795 202.56C108.942 202.538 109.091 202.571 109.215 202.652L109.535 202.868C109.861 203.086 109.885 203.332 109.607 203.604C108.514 204.686 107.594 205.918 106.847 207.3C106.762 207.46 106.807 207.55 106.983 207.572Z" fill="#B3AB69"/>
<path d="M102.544 233.228C101.525 233.532 100.853 233.481 100.528 233.076C99.7761 230.847 98.5574 229.116 96.8721 227.884C96.0667 226.977 95.6641 226.271 95.6641 225.764C95.6653 225.696 95.6861 225.629 95.7238 225.572C95.7616 225.515 95.8147 225.47 95.8767 225.443C95.9387 225.416 96.0068 225.407 96.0728 225.419C96.1387 225.43 96.1996 225.461 96.2481 225.508L99.5041 228.612C99.5652 228.667 99.6418 228.703 99.7236 228.714C99.8054 228.725 99.8887 228.711 99.9624 228.674C100.036 228.636 100.097 228.578 100.136 228.505C100.176 228.433 100.193 228.35 100.184 228.268C99.5761 223.185 100.203 218.276 102.064 213.54C102.112 213.418 102.19 213.31 102.291 213.227C102.392 213.144 102.513 213.088 102.642 213.064C102.772 213.04 102.905 213.049 103.031 213.09C103.156 213.132 103.27 213.204 103.36 213.3C103.851 213.833 103.952 214.425 103.664 215.076C103.552 215.327 103.491 215.591 103.48 215.868L102.544 233.228Z" fill="#B79623"/>
<path d="M153.847 233.316L151.111 233.436L151.767 215.404C151.783 214.956 151.845 214.948 151.951 215.38C153.365 221.236 153.997 227.214 153.847 233.316Z" fill="#60080C"/>
<path d="M96.8713 227.883C98.5566 229.115 99.7753 230.846 100.527 233.075L94.3513 231.475C93.3433 230.345 93.258 229.262 94.0953 228.227C94.362 227.785 95.2873 227.67 96.8713 227.883Z" fill="#B7AC2E"/>
</svg>
