<svg width="256" height="256" viewBox="0 0 256 256" fill="none" xmlns="http://www.w3.org/2000/svg">
<path d="M53.1774 52.8418C44.6121 61.7271 37.8947 71.7725 33.0254 82.9778" stroke="#729E86" stroke-width="2"/>
<path d="M33.025 82.9775C32.7904 83.6389 32.5451 84.0122 32.2891 84.0975" stroke="#639884" stroke-width="2"/>
<path d="M79.1938 33.7773C69.3591 38.8013 60.6871 45.156 53.1777 52.8413" stroke="#72A189" stroke-width="2"/>
<path d="M233.122 143.481C236.522 109.041 226.794 76.5852 201.994 51.9932" stroke="#5C9B8A" stroke-width="2"/>
<path d="M201.993 51.9938C190.761 41.0711 177.729 33.0071 162.897 27.8018" stroke="#6FA490" stroke-width="2"/>
<path d="M162.897 27.801C134.817 17.609 105.529 20.241 79.1934 33.777" stroke="#74A58D" stroke-width="2"/>
<path d="M162.898 27.8018C161.271 29.1191 159.543 29.5058 157.714 28.9618C157.479 28.8924 157.247 28.9004 157.018 28.9858L150.618 31.3538C150.34 31.4551 150.202 31.6524 150.202 31.9458C150.202 33.4338 149.554 34.3778 148.258 34.7778C144.082 36.0738 140.21 38.4178 136.13 40.1058C135.314 40.4418 134.519 41.1698 133.746 42.2898C133.596 42.5031 133.647 42.6498 133.898 42.7298C134.943 43.0604 135.855 43.6284 136.634 44.4338C136.666 44.4711 136.682 44.5164 136.682 44.5698C136.676 44.6391 136.666 44.7084 136.65 44.7778C136.607 44.9164 136.658 44.9858 136.802 44.9858C137.994 44.9858 138.514 46.9138 137.762 47.0898" stroke="#AACCA2" stroke-width="2"/>
<path d="M137.762 47.089L134.594 45.377" stroke="#6E705C" stroke-width="2"/>
<path d="M134.594 45.3776C135.474 44.2736 133.034 43.6976 132.29 43.3856C127.111 41.2096 121.442 40.0496 115.282 39.9056C96.9538 39.4816 77.7939 44.7136 64.6979 57.8976C64.4152 58.1856 64.1272 58.6389 63.8338 59.2576C63.2258 60.5456 61.8178 61.3936 61.2258 62.2976C57.8338 67.4816 55.6498 73.1482 54.6738 79.2975" stroke="#D3CD9B" stroke-width="2"/>
<path d="M54.6734 79.297C53.1854 79.4516 52.3907 78.9663 52.2894 77.841C52.2771 77.71 52.2335 77.5842 52.1625 77.4741C52.0915 77.3641 51.995 77.2731 51.8814 77.209C50.6867 76.537 49.6334 76.713 48.7214 77.737C48.5454 77.9343 48.3321 78.0783 48.0814 78.169C47.6974 78.305 37.3934 81.209 37.2654 82.625C37.2494 82.8596 37.1294 83.0116 36.9054 83.081C36.2921 83.2783 35.6948 83.2063 35.1134 82.865C34.8521 82.7156 34.6521 82.7743 34.5134 83.041L34.2494 83.521C34.0467 83.905 33.8067 83.929 33.5294 83.593L33.0254 82.977" stroke="#A0C89C" stroke-width="2"/>
<path d="M201.994 51.9931L201.578 52.9451C201.434 53.2918 201.548 53.4651 201.922 53.4651H202.29C202.333 53.4678 202.374 53.4849 202.406 53.5137C202.438 53.5425 202.46 53.5813 202.467 53.6239C202.474 53.6664 202.467 53.7102 202.447 53.7481C202.426 53.7861 202.393 53.8161 202.354 53.8331C201.372 54.1958 200.692 54.1425 200.314 53.6731C200.138 53.4491 199.911 53.2998 199.634 53.2251C198.439 52.8998 197.383 52.3238 196.466 51.4971C196.263 51.3105 196.05 51.2998 195.826 51.4651C194.658 52.3291 194.444 53.4145 195.186 54.7211C195.218 54.7798 195.212 54.8331 195.17 54.8811C195.111 54.9398 195.063 54.9904 195.026 55.0331C195.02 55.04 195.018 55.0485 195.018 55.0571C195.018 55.0658 195.02 55.0742 195.026 55.0811C195.959 56.4038 196.948 57.6758 197.994 58.8971C198.159 59.0891 198.18 59.2971 198.058 59.5211C197.924 59.7611 197.852 60.0358 197.842 60.3451" stroke="#92C39F" stroke-width="2"/>
<path d="M197.841 60.3452C194.246 56.0092 189.868 52.7799 184.705 50.6572" stroke="#60695A" stroke-width="2"/>
<path d="M184.706 50.657C174.999 45.7556 165.367 45.8303 155.81 50.881" stroke="#797865" stroke-width="2"/>
<path d="M155.81 50.8818C152.54 52.8978 149.791 55.3298 147.562 58.1778C147.364 58.4338 147.191 58.4178 147.042 58.1298C144.727 53.7085 141.634 50.0285 137.762 47.0898" stroke="#6A6F5F" stroke-width="2"/>
<path d="M134.594 45.3768L129.521 43.4648" stroke="#937058" stroke-width="2"/>
<path d="M129.522 43.4651C107.098 36.9451 76.8577 45.6411 62.3857 64.1611" stroke="#A2795E" stroke-width="2"/>
<path d="M62.3858 64.1611C58.6631 69.4305 56.2738 75.2865 55.2178 81.7291" stroke="#9B755B" stroke-width="2"/>
<path d="M55.2172 81.7289C54.1079 82.4062 53.9266 81.5955 54.6732 79.2969" stroke="#C4C898" stroke-width="2"/>
<path d="M129.521 43.4648C128.257 44.9368 131.409 45.2968 132.329 45.7928" stroke="#3D1C1F" stroke-width="2"/>
<path d="M132.33 45.793C132.175 46.129 132.204 46.5103 132.418 46.937C132.471 47.0431 132.489 47.1638 132.469 47.2817C132.449 47.3996 132.392 47.5087 132.306 47.593C131.671 48.2223 130.916 48.4436 130.042 48.257C129.834 48.2143 129.642 48.2516 129.466 48.369C128.452 49.0303 127.324 49.3876 126.082 49.441C125.922 49.4485 125.769 49.5072 125.647 49.6082C125.524 49.7093 125.438 49.8471 125.402 50.001L125.194 50.865C125.163 50.9928 125.095 51.1087 125 51.1983C124.905 51.2879 124.786 51.3472 124.658 51.369C112.834 53.2676 101.602 56.921 90.9616 62.329C88.1696 63.745 85.3295 65.897 82.4655 67.633C82.383 67.6859 82.2849 67.7093 82.1873 67.6991C82.0898 67.6889 81.9986 67.6458 81.9288 67.5769C81.859 67.508 81.8146 67.4174 81.8032 67.32C81.7917 67.2226 81.8136 67.1242 81.8655 67.041L83.1055 64.889C83.1486 64.8198 83.1663 64.7379 83.1556 64.6571C83.145 64.5763 83.1067 64.5018 83.0472 64.4461C82.9878 64.3904 82.9109 64.3571 82.8296 64.3518C82.7483 64.3465 82.6677 64.3695 82.6015 64.417C78.4495 67.249 76.1775 70.009 73.9375 74.433C72.9935 76.289 71.5856 77.7636 69.7136 78.857C69.6615 78.8877 69.6034 78.907 69.5431 78.9135C69.4828 78.92 69.4216 78.9137 69.3636 78.8948C69.3055 78.876 69.2518 78.8451 69.206 78.8041C69.1602 78.7631 69.1232 78.713 69.0975 78.657L67.8175 75.753C67.7108 75.5023 67.7189 75.257 67.8415 75.017C70.1242 70.6916 73.1802 67.017 77.0095 63.993C77.1166 63.9084 77.1898 63.788 77.2161 63.6532C77.2425 63.5185 77.2203 63.378 77.1535 63.257C76.9935 62.9743 76.7508 62.953 76.4255 63.193C70.5695 67.561 66.5109 73.2356 64.2495 80.217C64.1749 80.4516 64.0229 80.6223 63.7935 80.729L60.6975 82.105C60.5429 82.1726 60.3685 82.1788 60.2105 82.1222C60.0526 82.0656 59.9233 81.9505 59.8495 81.801C59.3162 80.7236 58.4709 80.0276 57.3136 79.713C56.9989 79.6276 56.8762 79.425 56.9455 79.105C57.9429 74.481 59.7215 70.193 62.2815 66.241C62.5855 65.777 62.6202 65.0836 62.3855 64.161" stroke="#452122" stroke-width="2"/>
<path d="M117.314 44.8657C117.429 44.7738 117.513 44.6481 117.554 44.5061C117.594 44.3641 117.589 44.2128 117.538 44.0731C117.488 43.9335 117.396 43.8123 117.274 43.7264C117.152 43.6405 117.007 43.5942 116.858 43.5938C106.642 43.6417 95.2897 45.6658 88.2977 53.3938C88.277 53.4196 88.2649 53.4513 88.263 53.4844C88.261 53.5175 88.2694 53.5503 88.287 53.5784C88.3045 53.6065 88.3304 53.6285 88.361 53.6412C88.3915 53.654 88.4254 53.657 88.4577 53.6497C97.215 51.2444 105.938 48.7564 114.626 46.1857C115.735 45.8604 116.631 45.4204 117.314 44.8657Z" stroke="#A2795E" stroke-width="2"/>
<path d="M155.81 50.8809C156.061 53.0622 154.997 54.9422 152.618 56.5209C152.38 56.6812 152.207 56.9193 152.13 57.1929C151.863 58.1849 152.106 58.8435 152.858 59.1689C152.964 59.214 153.059 59.2814 153.137 59.3669C153.216 59.4523 153.276 59.5538 153.314 59.6649L153.946 61.5449C153.983 61.6562 154.061 61.7495 154.165 61.8059C154.268 61.8622 154.39 61.8776 154.506 61.8489C158.818 60.8569 162.962 60.8329 167.482 60.4729C171.626 60.1529 176.034 62.2009 179.906 64.2969C180.362 64.5449 181.202 64.4249 181.642 64.1369C181.829 64.0195 182.013 64.0195 182.194 64.1369C183.554 65.0382 184.69 64.8809 185.602 63.6649C185.794 63.4089 185.89 63.1209 185.89 62.8009V61.9449C185.89 61.6622 186.031 61.5369 186.314 61.5689C186.81 61.6329 187.29 61.7635 187.754 61.9609C191.226 63.4409 191.29 58.4569 193.13 56.7209" stroke="#3D1C1F" stroke-width="2"/>
<path d="M193.13 56.7217C198.026 61.2977 201.351 66.479 203.106 72.2657C204.93 78.271 205.533 84.7403 204.914 91.6737C204.893 91.855 204.81 92.0017 204.666 92.1137L204.218 92.4417C203.946 92.639 203.823 92.9057 203.85 93.2417C204.133 96.9803 203.501 100.548 201.954 103.946C201.799 104.282 201.679 104.268 201.594 103.906L201.418 103.178C201.381 103.012 201.279 102.919 201.114 102.898C200.133 102.77 199.295 102.324 198.602 101.562C198.521 101.474 198.46 101.369 198.421 101.255C198.383 101.141 198.368 101.019 198.378 100.898C198.565 98.4817 198.49 96.0684 198.154 93.6577C198.095 93.247 197.967 93.223 197.77 93.5857C196.258 96.3377 197.138 99.0817 196.154 101.706C196.063 101.962 195.885 102.058 195.618 101.994C194.957 101.828 194.309 101.94 193.674 102.33C193.461 102.463 193.234 102.484 192.994 102.394L190.194 101.306C189.815 101.162 189.581 101.287 189.49 101.682C189.469 101.794 189.402 101.884 189.29 101.954C188.965 102.167 188.81 102.079 188.826 101.69L188.874 100.042C188.879 99.839 188.783 99.7137 188.586 99.6657C188.01 99.5377 187.762 99.271 187.842 98.8657C187.889 98.6152 187.861 98.3564 187.762 98.1217C186.727 95.631 185.527 93.2283 184.162 90.9137C183.21 89.2897 179.802 85.3457 178.242 84.4177C169.85 79.4337 161.418 77.0737 152.69 74.0257C149.794 73.0097 145.386 70.8337 145.034 67.3537C145.013 67.1563 144.901 67.063 144.698 67.0737C142.767 67.191 141.535 67.559 141.002 68.1777C128.674 82.5057 109.114 81.4657 93.1699 88.8577C86.7139 91.8497 79.1219 91.3697 75.2979 98.8097C74.0979 101.146 73.218 107.186 73.41 109.826C73.746 114.524 73.4713 119.204 72.5859 123.866C72.5379 124.127 72.3886 124.303 72.1379 124.394C70.0819 125.162 70.458 127.482 67.562 126.802C67.306 126.743 67.0526 126.756 66.802 126.842C65.9113 127.151 65.1566 126.911 64.5379 126.122C64.3619 125.892 64.2846 125.634 64.306 125.346C64.37 124.492 64.2099 123.551 63.8259 122.522C61.2713 115.738 58.8579 108.074 56.5859 99.5297" stroke="#240D14" stroke-width="2"/>
<path d="M56.5859 99.529C58.3726 100.132 59.0073 98.841 58.4899 95.657C58.4366 95.3156 58.578 95.113 58.914 95.049L61.6739 94.505C61.7296 94.4932 61.781 94.4678 61.823 94.4314C61.8651 94.3949 61.8965 94.3486 61.914 94.297L62.754 92.057C62.8553 91.7796 63.0393 91.6996 63.306 91.817C66.458 93.209 67.6179 90.761 69.3219 88.337C70.1593 87.137 70.6313 85.7716 70.7379 84.241C70.7539 84.008 70.8107 83.7779 70.906 83.561L72.114 80.873C72.2206 80.6383 72.3753 80.4463 72.5779 80.297C74.1619 79.161 76.882 74.329 78.61 74.929C78.7454 74.9763 78.8666 75.0572 78.9623 75.1642C79.0579 75.2712 79.1249 75.4006 79.1568 75.5405C79.1888 75.6804 79.1848 75.8261 79.1451 75.964C79.1054 76.1019 79.0314 76.2275 78.9299 76.329C77.0419 78.217 75.57 80.465 75.306 83.049C75.186 84.273 73.746 84.441 73.81 85.969C73.8116 86.0304 73.8298 86.09 73.8629 86.1417C73.8961 86.1935 73.9428 86.2354 73.9983 86.2631C74.0538 86.2908 74.116 86.3034 74.1785 86.2995C74.2411 86.2956 74.3016 86.2754 74.354 86.241C87.506 77.313 101.634 72.569 118.242 66.001C121.794 64.5983 125.423 63.425 129.13 62.481C131.33 61.921 133.61 60.809 136.082 60.377C136.365 60.3236 136.573 60.1716 136.706 59.921C137.314 58.785 138.245 58.081 139.498 57.809C139.667 57.7737 139.819 57.6849 139.933 57.5559C140.048 57.4268 140.117 57.2644 140.131 57.0927C140.146 56.921 140.104 56.7492 140.013 56.603C139.922 56.4567 139.786 56.3438 139.626 56.281C136.053 54.8836 132.319 54.2756 128.426 54.457C128.246 54.4679 128.069 54.4167 127.924 54.3118C127.778 54.2069 127.673 54.0548 127.626 53.8807C127.58 53.7066 127.594 53.5212 127.666 53.3552C127.739 53.1893 127.866 53.053 128.026 52.969C130.85 51.489 135.858 54.089 138.45 53.049C138.772 52.9199 139.057 52.7079 139.275 52.4365C139.493 52.1652 139.634 51.8451 139.683 51.5119C139.732 51.1786 139.686 50.8453 139.552 50.5489C139.418 50.2525 139.2 50.0047 138.922 49.833L132.33 45.793" stroke="#36181C" stroke-width="2"/>
<path d="M56.5858 99.5293C56.0045 94.1586 55.8392 88.9879 56.0898 84.0173C56.1112 83.6759 55.9618 83.5666 55.6418 83.6893C55.3538 83.7959 55.0312 84.2119 54.6738 84.9373" stroke="#2C1217" stroke-width="2"/>
<path d="M54.6738 84.9375L55.2178 81.7295" stroke="#68705C" stroke-width="2"/>
<path d="M184.705 50.6572L193.129 56.7212" stroke="#33161A" stroke-width="2"/>
<path d="M197.842 60.3457C199.778 62.5644 201.407 65.0844 202.73 67.9057" stroke="#4C6054" stroke-width="2"/>
<path d="M202.729 67.9053C211.153 87.7053 204.521 108.737 195.089 126.601C194.956 126.852 195.025 127.025 195.297 127.121C201.047 129.18 205.489 132.913 208.625 138.321" stroke="#3C5550" stroke-width="2"/>
<path d="M208.626 138.321C216.714 151.305 218.442 167.497 211.77 181.569" stroke="#4C6054" stroke-width="2"/>
<path d="M211.77 181.569C201.666 199.633 183.402 206.361 163.298 203.961" stroke="#3C5550" stroke-width="2"/>
<path d="M163.298 203.961L161.994 203.841C161.701 203.815 161.495 203.665 161.378 203.393C157.874 195.335 152.013 189.7 143.794 186.489" stroke="#604C28" stroke-width="2"/>
<path d="M143.793 186.49L141.393 186.074C141.105 186.026 140.881 186.122 140.721 186.362C140.364 186.9 140.007 186.988 139.649 186.626" stroke="#42291A" stroke-width="2"/>
<path d="M139.649 186.625C140.569 185.097 137.481 185.249 136.153 185.113" stroke="#7E422B" stroke-width="2"/>
<path d="M136.154 185.114C135.178 183.935 135.007 182.538 135.642 180.922" stroke="#753C31" stroke-width="2"/>
<path d="M135.642 180.922C153.274 179.546 172.354 173.242 180.826 156.098C180.996 155.746 181.252 155.666 181.594 155.858L183.41 156.858C183.666 157.002 183.935 157.106 184.218 157.17C192.308 158.988 198.506 156.916 202.81 150.954C206.97 145.186 206.89 138.97 202.05 133.706C199.842 131.314 195.154 128.65 191.962 130.258C189.394 131.554 188.194 136.45 188.074 139.002" stroke="#894E3A" stroke-width="2"/>
<path d="M188.073 139.001C188.073 141.028 188.327 142.988 188.833 144.881C189.26 146.455 188.74 146.983 187.273 146.465C187.054 146.387 186.86 146.252 186.713 146.073C184.927 143.892 183.572 141.127 182.649 137.777" stroke="#824534" stroke-width="2"/>
<path d="M182.65 137.778L182.346 129.474" stroke="#8B5D48" stroke-width="2"/>
<path d="M182.346 129.474C182.922 116.78 182.914 107.647 182.322 102.074C181.538 94.7378 176.618 91.3378 169.722 88.7538C159.954 85.0898 151.538 81.5538 144.09 73.9538C143.887 73.7511 143.695 73.7564 143.514 73.9698C134.658 84.3458 118.522 88.0898 105.058 90.2258" stroke="#894E3A" stroke-width="2"/>
<path d="M105.057 90.2256C94.9028 91.9909 88.3774 93.3296 85.4814 94.2416C77.6334 96.7216 75.2734 103.298 75.2734 110.866C75.2734 117.863 75.2841 124.844 75.3055 131.81" stroke="#8B5D48" stroke-width="2"/>
<path d="M75.3053 131.81C74.9053 131.906 74.7292 131.794 74.7772 131.474" stroke="#824534" stroke-width="2"/>
<path d="M74.7773 131.473C70.5 129.254 66.5694 129.212 62.9854 131.345" stroke="#894E3A" stroke-width="2"/>
<path d="M62.9861 131.346C55.5221 134.218 52.4981 141.498 55.3701 149.122" stroke="#896A53" stroke-width="2"/>
<path d="M55.3691 149.121C60.5478 157.02 67.7692 159.153 77.0332 155.521" stroke="#894E3A" stroke-width="2"/>
<path d="M77.0341 155.521C76.8421 155.217 77.0181 155.068 77.5621 155.073" stroke="#824534" stroke-width="2"/>
<path d="M77.5615 155.073C82.6655 169.673 97.3935 176.881 111.898 179.449" stroke="#8B6351" stroke-width="2"/>
<path d="M111.897 179.449L120.169 180.713" stroke="#894E3A" stroke-width="2"/>
<path d="M120.17 180.713C120.191 182.004 119.941 183.182 119.418 184.249" stroke="#753C31" stroke-width="2"/>
<path d="M119.417 184.249C119.06 184.66 118.625 184.873 118.113 184.889" stroke="#7E422B" stroke-width="2"/>
<path d="M118.114 184.89L115.082 185.466" stroke="#854A30" stroke-width="2"/>
<path d="M115.081 185.465L110.441 186.609" stroke="#42291A" stroke-width="2"/>
<path d="M110.442 186.609L104.674 189.057" stroke="#604C28" stroke-width="2"/>
<path d="M104.674 189.058C94.3539 193.802 91.3539 215.29 90.7939 225.298" stroke="#8B6351" stroke-width="2"/>
<path d="M90.7939 225.297C90.4019 223.513 90.3939 221.673 89.4819 220.057C80.4339 204.041 67.0739 191.033 54.2659 179.089C49.1032 174.268 44.9885 168.86 41.9219 162.865" stroke="#3C5550" stroke-width="2"/>
<path d="M41.9221 162.865C39.6714 157.953 38.0848 152.812 37.1621 147.441" stroke="#566454" stroke-width="2"/>
<path d="M37.1619 147.442L37.0898 146.098" stroke="#8B755E" stroke-width="2"/>
<path d="M37.0898 146.097C37.2125 145.948 37.3645 145.871 37.5458 145.865C37.6583 145.861 37.769 145.895 37.8594 145.964C37.9498 146.032 38.0143 146.13 38.0418 146.241C39.3378 151.847 41.2952 157.196 43.9139 162.289C44.8819 164.177 46.4578 164.657 48.3858 164.137C48.6898 164.057 48.8365 163.86 48.8258 163.545C48.7538 161.033 48.2178 155.441 51.0418 154.817C51.0978 154.806 51.1508 154.784 51.198 154.752C51.2452 154.719 51.2856 154.678 51.3168 154.629C51.3481 154.581 51.3696 154.527 51.38 154.47C51.3905 154.413 51.3897 154.354 51.3778 154.297C50.6658 150.865 49.2258 143.049 52.2178 141.169C52.4205 141.047 52.5592 140.873 52.6338 140.649C54.0525 136.596 56.3165 133.105 59.4258 130.177C59.6445 129.975 59.7298 129.727 59.6818 129.433C59.4045 127.737 59.8898 126.284 61.1378 125.073C61.2274 124.986 61.2963 124.881 61.3392 124.764C61.3821 124.648 61.3981 124.524 61.3858 124.401C61.0392 120.401 60.1619 116.532 58.7539 112.793C58.6739 112.585 58.5245 112.465 58.3059 112.433L55.8178 112.065" stroke="#240D14" stroke-width="2"/>
<path d="M55.8174 112.065L57.6174 111.377C57.7443 111.326 57.8544 111.241 57.9351 111.13C58.0157 111.02 58.0636 110.889 58.0734 110.753C58.0947 110.31 57.9241 109.881 57.5614 109.465" stroke="#8B755E" stroke-width="2"/>
<path d="M57.562 109.466C55.546 101.114 53.8659 94.5135 54.6739 84.9375" stroke="#566454" stroke-width="2"/>
<path d="M233.122 143.481C232.38 150.921 230.842 158.175 228.506 165.241" stroke="#5A9886" stroke-width="2"/>
<path d="M228.505 165.241C226.415 171.337 223.809 177.233 220.689 182.929" stroke="#588B7C" stroke-width="2"/>
<path d="M220.69 182.93C220.05 182.951 219.532 182.716 219.138 182.226C218.978 182.028 218.78 181.972 218.546 182.058L217.978 182.274C217.919 182.294 217.857 182.301 217.795 182.292C217.734 182.283 217.676 182.26 217.625 182.224C217.575 182.187 217.534 182.14 217.506 182.084C217.479 182.029 217.465 181.968 217.466 181.906C217.498 180.711 217.212 179.639 216.61 178.69C216.45 178.45 216.252 178.412 216.018 178.578L213.578 180.322C213.418 180.434 213.287 180.578 213.186 180.754C212.892 181.266 212.42 181.538 211.77 181.57" stroke="#6EAF95" stroke-width="2"/>
<path d="M208.625 138.321C208.999 138.012 209.463 137.911 210.017 138.017C210.3 138.071 210.511 137.975 210.65 137.729C224.09 113.937 223.409 87.6013 206.617 65.5373C206.534 65.4287 206.419 65.349 206.287 65.3093C206.156 65.2697 206.016 65.2721 205.886 65.3162C205.757 65.3603 205.644 65.4439 205.564 65.5553C205.484 65.6667 205.441 65.8003 205.442 65.9373C205.442 66.4813 205.178 66.7293 204.65 66.6813C204.383 66.66 204.18 66.764 204.042 66.9933C203.695 67.548 203.257 67.852 202.729 67.9053" stroke="#6EAF95" stroke-width="2"/>
<path d="M182.346 129.473L182.298 127.417C182.292 127.204 182.188 127.084 181.986 127.057L181.73 127.025C181.468 126.988 181.332 126.838 181.322 126.577C181.274 125.497 180.698 124.673 180.706 123.657C180.727 117.812 180.644 111.961 180.458 106.105C180.226 98.8092 178.858 93.6811 171.818 91.2971C166.98 89.6598 162.799 88.1158 159.274 86.6652C153.858 84.4332 148.738 80.8171 143.594 77.5851C143.373 77.4466 143.106 77.4007 142.85 77.4572C141.788 77.6918 141.111 78.3051 140.818 79.2971C140.738 79.5745 140.578 79.7958 140.338 79.9611C130.418 86.9131 117.618 90.4331 105.37 91.9851C105.167 92.0118 105.066 91.9211 105.066 91.7131L105.058 90.2251" stroke="#FAA472" stroke-width="2"/>
<path d="M57.5617 109.465C50.1057 112.025 44.5323 116.721 40.8417 123.553C36.1697 132.209 35.6497 137.953 36.2417 148.057C36.247 148.164 36.303 148.222 36.4097 148.233L36.6097 148.265C36.8657 148.297 37.0176 148.185 37.0656 147.929L37.1617 147.441" stroke="#C7D3A3" stroke-width="2"/>
<path d="M41.9218 162.865C41.8045 162.988 41.6552 163.063 41.4738 163.089C41.1965 163.121 40.9912 163.012 40.8579 162.761C38.7512 158.729 37.3218 154.465 36.5698 149.969C36.5485 149.841 36.4738 149.777 36.3458 149.777C36.0258 149.783 35.7165 149.655 35.4178 149.393C31.7698 146.193 31.4018 151.681 28.4258 151.705C28.1698 151.705 27.9698 151.815 27.8258 152.033L26.7778 153.593C26.6178 153.833 26.4525 153.836 26.2818 153.601C26.0098 153.233 25.6819 152.988 25.2979 152.865" stroke="#77B395" stroke-width="2"/>
<path d="M25.2978 152.866C20.9884 129.298 23.3191 106.375 32.2897 84.0977" stroke="#629380" stroke-width="2"/>
<path d="M37.4596 105.772C37.4401 105.636 37.3854 105.508 37.2986 105.393C37.2117 105.278 37.0945 105.179 36.9535 105.102C36.8125 105.024 36.6506 104.97 36.477 104.942C36.3033 104.915 36.1213 104.914 35.9414 104.94C35.5781 104.992 35.2453 105.151 35.0163 105.381C34.7872 105.611 34.6806 105.893 34.7199 106.166C34.7394 106.302 34.7941 106.43 34.8809 106.545C34.9677 106.66 35.085 106.759 35.226 106.836C35.3669 106.914 35.5289 106.968 35.7025 106.996C35.8762 107.023 36.0582 107.024 36.2381 106.998C36.6014 106.946 36.9342 106.787 37.1632 106.557C37.3923 106.327 37.4989 106.045 37.4596 105.772Z" stroke="#C1D5A9" stroke-width="2"/>
<path d="M182.65 137.777C181.61 139.644 181.18 141.884 181.362 144.497" stroke="#F39B6D" stroke-width="2"/>
<path d="M181.361 144.497C181.009 144.817 180.681 144.996 180.377 145.033" stroke="#FAA472" stroke-width="2"/>
<path d="M180.377 145.033L180.457 144.625C180.521 144.332 180.404 144.159 180.105 144.105C178.366 143.78 176.649 143.415 174.953 143.009C174.802 142.974 174.66 142.906 174.537 142.81C174.415 142.714 174.315 142.592 174.245 142.453C174.175 142.314 174.136 142.162 174.131 142.006C174.126 141.851 174.156 141.696 174.217 141.553C174.377 141.18 174.286 141.023 173.945 141.081C173.705 141.129 173.569 141.273 173.537 141.513C173.324 143.055 172.462 144.055 170.953 144.513" stroke="#FCBA8A" stroke-width="2"/>
<path d="M170.954 144.513C170.735 144.076 170.703 143.67 170.858 143.297" stroke="#FAD4BA" stroke-width="2"/>
<path d="M170.857 143.297C171.817 142.62 172.46 141.772 172.785 140.753C172.871 140.492 172.871 140.233 172.785 139.977C171.143 134.777 167.599 131.356 162.153 129.713" stroke="#945E45" stroke-width="2"/>
<path d="M162.154 129.714C153.146 126.538 145.458 134.57 149.722 143.442" stroke="#C76B4C" stroke-width="2"/>
<path d="M149.722 143.441L148.81 143.857" stroke="#FAD4BA" stroke-width="2"/>
<path d="M148.81 143.858C148.682 143.543 148.548 143.295 148.41 143.114C148.365 143.049 148.297 143.005 148.219 142.99C148.142 142.976 148.062 142.993 147.998 143.038C147.933 143.082 147.888 143.151 147.874 143.228C147.86 143.305 147.877 143.385 147.922 143.45C149.164 145.418 150.783 146.986 152.778 148.154C153.242 148.426 153.204 148.583 152.666 148.626C151.058 148.754 150.586 146.554 149.082 146.266C148.831 146.218 148.602 146.119 148.394 145.97L145.962 144.202C145.759 144.052 145.532 144.012 145.282 144.082C144.194 144.396 143.423 144.039 142.97 143.01C142.919 142.891 142.829 142.793 142.714 142.734C142.6 142.675 142.468 142.657 142.341 142.684C142.214 142.712 142.1 142.782 142.018 142.884C141.936 142.985 141.89 143.112 141.89 143.242V144.466C141.89 144.796 141.772 144.847 141.538 144.618L141.202 144.274C141.01 144.087 140.761 143.974 140.498 143.954C138.103 143.788 135.738 143.54 133.402 143.21C133.327 143.199 133.259 143.164 133.205 143.111C133.152 143.059 133.117 142.99 133.105 142.916C133.094 142.842 133.106 142.766 133.141 142.699C133.175 142.633 133.23 142.579 133.298 142.546L133.658 142.378C133.866 142.282 133.922 142.13 133.826 141.922C132.746 139.634 130.906 140.802 129.042 140.466C128.919 140.442 128.792 140.453 128.675 140.496C128.558 140.54 128.455 140.615 128.378 140.714C127.738 141.508 127.039 141.706 126.282 141.306C124.484 140.351 122.836 140.218 121.338 140.906C121.226 140.956 121.104 140.977 120.983 140.966C120.862 140.955 120.747 140.912 120.65 140.842C118.719 139.439 116.871 139.495 115.106 141.01C114.935 141.154 114.738 141.226 114.514 141.226C113.506 141.234 110.914 142.234 110.33 141.226C110.218 141.028 110.13 141.039 110.066 141.258C109.207 144.202 107.442 146.308 104.77 147.578" stroke="#FCBA8A" stroke-width="2"/>
<path d="M104.769 147.578C104.743 146.65 104.466 146.196 103.938 146.218" stroke="#FAD4BA" stroke-width="2"/>
<path d="M103.938 146.217C106.551 145.022 107.844 143.241 107.817 140.873" stroke="#B46D4D" stroke-width="2"/>
<path d="M107.817 140.873C108.175 138.836 107.828 136.793 106.777 134.745" stroke="#945E45" stroke-width="2"/>
<path d="M106.778 134.745C107.567 133.935 106.751 132.847 104.33 131.481" stroke="#A4664A" stroke-width="2"/>
<path d="M104.33 131.482C104.933 131.332 105.306 131.02 105.45 130.546C105.541 130.236 105.45 129.991 105.178 129.81L103.57 128.714C103.346 128.559 103.095 128.474 102.818 128.458C93.3781 127.962 84.7702 131.37 82.8102 141.41C82.7622 141.655 82.6555 141.874 82.4901 142.066C80.4261 144.53 79.4768 147.079 79.6421 149.714C79.7328 151.09 79.7328 152.162 79.6421 152.93C79.632 153.014 79.5937 153.092 79.5333 153.152C79.473 153.212 79.3943 153.249 79.3099 153.259C79.2255 153.268 79.1405 153.248 79.0686 153.203C78.9967 153.158 78.9423 153.09 78.9142 153.01C78.4928 151.831 78.2048 150.634 78.0501 149.418C78.0128 149.156 77.8635 149.036 77.6021 149.058C77.4261 149.079 77.2235 149.167 76.9941 149.322" stroke="#FCBA8A" stroke-width="2"/>
<path d="M76.9937 149.322L75.3057 131.81" stroke="#F39B6D" stroke-width="2"/>
<path d="M86.5936 118.906C84.5056 121.13 82.6656 122.682 84.2736 125.394C84.307 125.451 84.3542 125.499 84.411 125.534C84.4678 125.569 84.5325 125.589 84.5995 125.593C84.6666 125.597 84.7339 125.585 84.7956 125.557C84.8574 125.529 84.9116 125.487 84.9536 125.434C88.8336 120.322 92.2897 116.426 99.0097 116.538C100.722 116.57 102.842 117.402 104.874 117.506C105.146 117.522 105.386 117.436 105.594 117.25C108.314 114.818 105.53 111.442 102.666 111.586C96.2389 111.911 90.8816 114.351 86.5936 118.906Z" stroke="#945E45" stroke-width="2"/>
<path d="M152.698 111.762C146.97 111.098 146.482 119.13 152.346 117.554C160.322 115.41 166.146 119.066 170.682 125.442C170.858 125.687 171.06 125.711 171.29 125.514C172.74 124.26 172.78 122.876 171.41 121.362C166.375 115.82 160.138 112.62 152.698 111.762Z" stroke="#945E45" stroke-width="2"/>
<path d="M25.2979 152.865L27.2499 160.865" stroke="#48847C" stroke-width="2"/>
<path d="M55.8181 112.065C41.8421 116.977 35.3542 132.041 37.0902 146.097" stroke="#957C63" stroke-width="2"/>
<path d="M54.0974 118.569C46.5054 122.089 39.4574 133.497 40.8974 142.177C40.9507 142.502 41.1294 142.604 41.4334 142.481C42.7774 141.942 43.9507 140.953 44.9534 139.513C46.7934 136.857 62.0494 116.801 54.4814 118.441C54.3485 118.467 54.2196 118.51 54.0974 118.569Z" stroke="#703F27" stroke-width="2"/>
<path d="M104.33 131.481C95.2662 124.881 76.7062 139.193 87.1062 145.209" stroke="#A46C53" stroke-width="2"/>
<path d="M87.1055 145.209C88.6201 147.273 90.2948 148.201 92.1294 147.993" stroke="#D79564" stroke-width="2"/>
<path d="M92.1299 147.993C96.4232 149.07 100.637 148.932 104.77 147.577" stroke="#FADBC3" stroke-width="2"/>
<path d="M148.81 143.857C150.767 146.369 153.172 147.855 156.026 148.313C160.346 149.009 167.858 148.169 170.954 144.513" stroke="#FADBC3" stroke-width="2"/>
<path d="M180.377 145.033C177.809 155.225 172.665 159.425 164.641 165.801C156.409 172.337 145.689 176.153 135.481 178.129C131.657 178.873 127.433 178.745 123.401 178.857C117.681 179.017 112.929 178.065 107.593 176.681C107.535 176.665 107.474 176.669 107.419 176.691C107.364 176.714 107.317 176.754 107.286 176.806C107.254 176.857 107.24 176.918 107.245 176.979C107.25 177.04 107.274 177.099 107.313 177.145C107.734 177.636 108.276 177.975 108.937 178.161C109.145 178.22 109.356 178.252 109.569 178.257C110.476 178.268 111.252 178.665 111.897 179.449" stroke="#FAAB7C" stroke-width="2"/>
<path d="M77.5622 155.073L76.9941 149.321" stroke="#F3A276" stroke-width="2"/>
<path d="M130.482 155.921C127.922 156.433 126.754 157.129 123.866 155.569C123.818 155.542 123.762 155.532 123.707 155.541C123.652 155.55 123.602 155.577 123.565 155.617C123.527 155.657 123.504 155.709 123.499 155.764C123.494 155.82 123.508 155.875 123.538 155.921C124.93 158.097 128.746 157.185 130.578 156.177C131.101 155.884 131.069 155.798 130.482 155.921Z" stroke="#E69973" stroke-width="2"/>
<path d="M118.313 164.538C117.972 164.068 117.508 163.628 116.921 163.218C116.452 162.892 116.372 162.97 116.681 163.45C120.289 169.026 124.849 173.154 132.025 170.986C135.108 170.058 137.247 167.882 138.441 164.458" stroke="#A7634D" stroke-width="2"/>
<path d="M138.441 164.458C138.969 163.748 139.236 163.364 139.241 163.306C139.401 162.234 138.975 161.892 137.961 162.282C130.569 165.13 125.673 164.306 118.313 164.538" stroke="#F3A276" stroke-width="2"/>
<path d="M138.441 164.457C134.105 165.865 121.985 168.121 118.313 164.537" stroke="#9E4530" stroke-width="2"/>
<path d="M162.153 129.713C155.985 130.569 149.881 131.849 150.089 139.049C150.142 140.937 150.921 142.316 152.425 143.185" stroke="#601611" stroke-width="2"/>
<path d="M152.426 143.185C152.639 143.777 152.999 144.193 153.506 144.433C153.703 144.524 153.903 144.532 154.106 144.457L159.762 142.377C159.993 142.29 160.248 142.295 160.474 142.393L161.778 142.961" stroke="#802519" stroke-width="2"/>
<path d="M161.778 142.961C157.644 147.702 153.626 147.862 149.722 143.441" stroke="#C68C86" stroke-width="2"/>
<path d="M74.7779 131.474C74.1859 131.65 73.6872 131.959 73.2819 132.402C73.1165 132.583 73.0259 132.799 73.0099 133.05L72.7539 137.762C72.738 137.989 72.7679 138.22 72.8419 138.442C73.0552 139.076 72.8552 139.532 72.2419 139.81C68.3699 141.562 64.1539 143.45 64.2659 148.274C64.3779 153.378 70.4099 155.25 74.4419 155.402C74.7173 155.412 74.9893 155.333 75.2179 155.178L76.2499 154.482C76.5006 154.311 76.6712 154.37 76.7619 154.658L77.0339 155.522" stroke="#F18C5F" stroke-width="2"/>
<path d="M55.3691 149.122L55.8171 148.594C55.9771 148.407 56.0305 148.194 55.9771 147.954C54.5318 141.532 56.8678 135.996 62.9852 131.346" stroke="#F8B17E" stroke-width="2"/>
<path d="M106.778 134.746C104.5 132.628 102.119 131.863 99.6338 132.45" stroke="#3D110E" stroke-width="2"/>
<path d="M99.6336 132.449C97.8789 131.942 96.4336 131.873 95.2976 132.241C88.7909 134.342 85.9563 138.63 86.7936 145.105" stroke="#A28783" stroke-width="2"/>
<path d="M86.7939 145.105C86.8953 145.143 86.9993 145.177 87.106 145.209" stroke="#7F4124" stroke-width="2"/>
<path d="M170.858 143.297C170.404 137.425 167.674 133.548 162.666 131.665C160.914 131.009 153.546 132.585 157.922 135.465C158.135 135.604 158.356 135.623 158.586 135.521L159.698 135.033" stroke="#937F7E" stroke-width="2"/>
<path d="M159.698 135.033C160.092 135.044 160.29 135.188 160.29 135.465C160.311 140.687 157.69 143.26 152.426 143.185" stroke="#4D1812" stroke-width="2"/>
<path d="M135.642 180.921L120.17 180.713" stroke="#E4845C" stroke-width="2"/>
<path d="M181.361 144.497L180.361 154.105C180.339 154.312 180.371 154.526 180.454 154.72C180.536 154.915 180.665 155.081 180.825 155.198C180.984 155.315 181.167 155.377 181.351 155.378C181.535 155.378 181.711 155.317 181.857 155.201C182.209 154.929 182.463 155.012 182.617 155.449C182.691 155.658 182.835 155.836 183.024 155.951C183.214 156.066 183.438 156.112 183.657 156.081C188.18 155.441 191.529 153.316 193.705 149.705C197.065 144.129 192.913 140.633 188.073 139.001" stroke="#F18C5F" stroke-width="2"/>
<path d="M161.777 142.961C163.377 140.793 164.409 135.969 161.689 134.001C161.578 133.921 161.443 133.88 161.305 133.884C161.168 133.888 161.036 133.938 160.929 134.025L159.697 135.033" stroke="#B38E87" stroke-width="2"/>
<path d="M99.6335 132.449C99.9215 135.201 99.1749 136.772 97.3936 137.161" stroke="#937F7E" stroke-width="2"/>
<path d="M97.3937 137.161C96.727 136.761 96.5057 135.95 96.7297 134.729C96.7777 134.462 96.6657 134.329 96.3937 134.329C95.455 134.334 94.8523 134.758 94.5857 135.601C93.0977 140.345 95.6417 144.305 99.6737 146.449C101.071 147.196 102.492 147.118 103.938 146.217" stroke="#B38E87" stroke-width="2"/>
<path d="M92.1299 147.993L86.7939 145.105" stroke="#D5B094" stroke-width="2"/>
<path d="M107.818 140.873C105.108 144.1 102.38 144.82 99.6337 143.033C99.4044 142.884 99.2231 142.689 99.0898 142.449C98.8551 142.038 98.5244 141.724 98.0978 141.505C97.8684 141.388 97.6951 141.214 97.5777 140.985C96.9377 139.7 96.8764 138.425 97.3938 137.161" stroke="#4D1812" stroke-width="2"/>
<path d="M90.7939 225.297C90.9539 225.932 90.9566 226.582 90.802 227.249" stroke="#ADB292" stroke-width="2"/>
<path d="M90.8013 227.249C90.8439 227.708 90.6706 228.26 90.2812 228.905" stroke="#829B69" stroke-width="2"/>
<path d="M90.282 228.905C73.482 222.388 59.202 212.188 47.442 198.305C38.0873 187.265 31.3567 174.785 27.25 160.865" stroke="#478079" stroke-width="2"/>
<path d="M90.2812 228.905L100.553 231.681C100.603 231.695 100.656 231.699 100.707 231.691C100.759 231.682 100.808 231.663 100.851 231.634C100.895 231.605 100.931 231.568 100.959 231.523C100.986 231.479 101.003 231.429 101.009 231.377L101.913 223.953" stroke="#6C7751" stroke-width="2"/>
<path d="M101.914 223.953C102.41 224.214 102.799 224.004 103.082 223.321C103.194 223.06 103.389 222.908 103.666 222.865C104.151 222.79 104.738 222.942 105.426 223.321" stroke="#2A3135" stroke-width="2"/>
<path d="M105.425 223.321L105.281 232.401C105.279 232.521 105.318 232.637 105.393 232.731C105.467 232.825 105.572 232.889 105.689 232.913C120.991 236.199 136.263 236.148 151.505 232.761" stroke="#6C7751" stroke-width="2"/>
<path d="M151.506 232.762L157.562 231.33C157.877 231.255 158.005 231.06 157.946 230.746L156.53 222.634C156.47 222.293 156.298 221.982 156.042 221.75C155.785 221.518 155.459 221.379 155.114 221.354C153.183 221.204 152.133 220.258 151.962 218.514" stroke="#416C63" stroke-width="2"/>
<path d="M151.962 218.513C152.271 217.857 152.749 217.476 153.394 217.369" stroke="#586E60" stroke-width="2"/>
<path d="M153.394 217.369C157.41 218.497 158.426 227.265 158.666 230.473C158.687 230.75 158.836 230.86 159.114 230.801C162.65 229.996 166.159 228.777 169.642 227.145" stroke="#6C7751" stroke-width="2"/>
<path d="M169.642 227.146C192.004 218.602 209.02 203.863 220.69 182.93" stroke="#478079" stroke-width="2"/>
<path d="M126.114 169.97C126.007 170.204 126.074 170.375 126.314 170.482C127.954 171.234 133.162 170.386 134.05 168.77C134.226 168.45 134.132 168.298 133.77 168.314C132.082 168.386 126.882 168.282 126.114 169.97Z" stroke="#881E16" stroke-width="2"/>
<path d="M169.642 227.145C167.378 217.801 164.338 211.369 162.346 204.673C162.255 204.358 162.367 204.166 162.682 204.097L163.298 203.961" stroke="#829B69" stroke-width="2"/>
<path d="M136.154 185.113C133.554 185.753 120.41 187.257 119.418 184.249" stroke="#D9784D" stroke-width="2"/>
<path d="M139.649 186.625L138.377 190.417" stroke="#A66436" stroke-width="2"/>
<path d="M138.377 190.418L137.617 187.65C137.584 187.525 137.521 187.409 137.434 187.313C137.348 187.217 137.24 187.142 137.119 187.095C136.998 187.048 136.868 187.031 136.739 187.044C136.61 187.057 136.486 187.1 136.377 187.17C133.193 189.207 130.297 191.583 127.689 194.298C127.513 194.479 127.335 194.482 127.153 194.306L119.425 186.786C119.207 186.578 119.017 186.346 118.857 186.09L118.113 184.89" stroke="#E9854C" stroke-width="2"/>
<path d="M138.378 190.417C136.53 195.401 131.762 202.041 126.458 203.345C125.279 203.633 124.37 203.537 123.73 203.057C117.916 198.694 115.034 192.83 115.082 185.465" stroke="#AC6C3B" stroke-width="2"/>
<path d="M143.794 186.489C143.634 192.201 142.09 200.961 137.722 204.569C137.519 204.735 137.303 204.751 137.074 204.617C136.327 204.175 135.922 203.5 135.858 202.593C135.855 202.514 135.824 202.439 135.771 202.381C135.717 202.322 135.645 202.284 135.567 202.274C135.489 202.263 135.409 202.281 135.342 202.323C135.276 202.365 135.226 202.43 135.202 202.505L132.898 208.713C132.845 208.856 132.756 208.983 132.641 209.083C132.526 209.182 132.388 209.252 132.239 209.284C132.09 209.317 131.936 209.312 131.79 209.269C131.643 209.227 131.51 209.148 131.402 209.041C129.434 207.057 126.826 205.153 124.458 208.033C121.498 211.649 118.458 204.617 118.018 202.513C117.996 202.411 117.946 202.316 117.875 202.239C117.803 202.163 117.712 202.107 117.611 202.077C117.511 202.048 117.404 202.046 117.302 202.072C117.201 202.098 117.108 202.151 117.034 202.225L115.426 203.833C115.312 203.946 115.176 204.032 115.026 204.086C114.876 204.141 114.716 204.162 114.558 204.148C114.399 204.134 114.246 204.086 114.108 204.007C113.971 203.928 113.853 203.819 113.762 203.689C110.274 198.713 110.114 193.857 110.442 186.609" stroke="#886E33" stroke-width="2"/>
<path d="M153.394 217.37L155.058 205.042C155.069 204.943 155.047 204.843 154.994 204.758C154.942 204.673 154.862 204.609 154.768 204.576C154.674 204.542 154.572 204.542 154.478 204.574C154.384 204.606 154.303 204.67 154.25 204.754C154.01 205.148 153.658 205.199 153.194 204.906C152.986 204.772 152.828 204.594 152.721 204.37C151.095 200.951 149.991 197.108 149.41 192.842C149.383 192.644 149.263 192.54 149.05 192.53C148.879 192.524 148.801 192.607 148.817 192.778L151.321 220.866" stroke="#938951" stroke-width="2"/>
<path d="M151.321 220.865L151.505 232.761" stroke="#7B8653" stroke-width="2"/>
<path d="M105.426 223.321C105.565 217.679 106.173 212.127 107.25 206.665C107.373 206.047 107.343 206.039 107.162 206.641L101.914 223.953" stroke="#644B25" stroke-width="2"/>
<path d="M90.8018 227.25L91.3377 228.098C91.5297 228.396 91.6658 228.372 91.7458 228.026C92.0871 226.634 92.3644 224.535 92.5777 221.73C92.9057 217.426 95.0577 208.402 96.0257 204.882C97.6577 198.972 100.54 193.698 104.674 189.058" stroke="#D1A96A" stroke-width="2"/>
<path d="M151.961 218.514C151.945 219.287 151.732 220.071 151.321 220.866" stroke="#687E63" stroke-width="2"/>
<path d="M162.897 27.801C161.271 29.1183 159.543 29.505 157.713 28.961C157.479 28.8916 157.247 28.8996 157.017 28.985L150.617 31.353C150.34 31.4543 150.201 31.6516 150.201 31.945C150.201 33.433 149.553 34.377 148.257 34.777C144.081 36.073 140.209 38.417 136.129 40.105C135.313 40.441 134.519 41.169 133.745 42.289C133.596 42.5023 133.647 42.649 133.897 42.729C134.943 43.0596 135.855 43.6276 136.633 44.433C136.665 44.4703 136.681 44.5156 136.681 44.569C136.676 44.6383 136.665 44.7076 136.649 44.777C136.607 44.9156 136.657 44.985 136.801 44.985C137.993 44.985 138.513 46.913 137.761 47.089L134.593 45.377C135.473 44.273 133.033 43.697 132.289 43.385C127.111 41.209 121.441 40.049 115.281 39.905C96.9534 39.481 77.7934 44.713 64.6974 57.897C64.4147 58.185 64.1267 58.6383 63.8334 59.257C63.2254 60.545 61.8174 61.393 61.2254 62.297C57.8334 67.481 55.6494 73.1476 54.6734 79.2969C53.1854 79.4516 52.3907 78.9663 52.2894 77.841C52.2771 77.71 52.2335 77.5841 52.1625 77.4741C52.0915 77.364 51.995 77.2731 51.8814 77.2089C50.6867 76.5369 49.6334 76.713 48.7214 77.737C48.5454 77.9343 48.3321 78.0783 48.0814 78.169C47.6974 78.305 37.3934 81.209 37.2654 82.625C37.2494 82.8596 37.1294 83.0116 36.9054 83.081C36.2921 83.2783 35.6948 83.2063 35.1134 82.865C34.8521 82.7156 34.6521 82.7743 34.5134 83.041L34.2494 83.521C34.0467 83.905 33.8067 83.929 33.5294 83.593L33.0254 82.977C37.8947 71.7716 44.6121 61.7263 53.1774 52.841C60.6867 45.1556 69.3587 38.801 79.1934 33.777C105.529 20.241 134.817 17.609 162.897 27.801Z" fill="#AECD9E"/>
<path d="M162.898 27.8018C177.73 33.0071 190.762 41.0711 201.994 51.9938L201.578 52.9458C201.434 53.2924 201.548 53.4658 201.922 53.4658H202.29C202.333 53.4684 202.374 53.4855 202.406 53.5143C202.438 53.5431 202.46 53.582 202.467 53.6245C202.474 53.667 202.467 53.7108 202.447 53.7488C202.426 53.7868 202.393 53.8167 202.354 53.8338C201.372 54.1964 200.692 54.1431 200.314 53.6738C200.138 53.4498 199.911 53.3004 199.634 53.2258C198.439 52.9004 197.383 52.3244 196.466 51.4978C196.263 51.3111 196.05 51.3004 195.826 51.4658C194.658 52.3298 194.444 53.4151 195.186 54.7218C195.218 54.7804 195.212 54.8338 195.17 54.8818C195.111 54.9404 195.063 54.9911 195.026 55.0338C195.021 55.0407 195.018 55.0491 195.018 55.0578C195.018 55.0664 195.021 55.0748 195.026 55.0818C195.959 56.4044 196.948 57.6764 197.994 58.8978C198.159 59.0898 198.18 59.2978 198.058 59.5218C197.924 59.7618 197.852 60.0364 197.842 60.3458C194.247 56.0098 189.868 52.7804 184.706 50.6578C174.999 45.7564 165.367 45.8311 155.81 50.8818C152.54 52.8978 149.791 55.3298 147.562 58.1778C147.364 58.4338 147.191 58.4178 147.042 58.1298C144.727 53.7084 141.634 50.0284 137.762 47.0898C138.514 46.9138 137.994 44.9858 136.802 44.9858C136.658 44.9858 136.607 44.9164 136.65 44.7778C136.666 44.7084 136.676 44.6391 136.682 44.5698C136.682 44.5164 136.666 44.4711 136.634 44.4338C135.855 43.6284 134.943 43.0604 133.898 42.7298C133.647 42.6498 133.596 42.5031 133.746 42.2898C134.519 41.1698 135.314 40.4418 136.13 40.1058C140.21 38.4178 144.082 36.0738 148.258 34.7778C149.554 34.3778 150.202 33.4338 150.202 31.9458C150.202 31.6524 150.34 31.4551 150.618 31.3538L157.018 28.9858C157.247 28.9004 157.479 28.8924 157.714 28.9618C159.543 29.5058 161.271 29.1191 162.898 27.8018Z" fill="#A5CBA5"/>
<path d="M134.593 45.3776L129.521 43.4656C107.097 36.9456 76.8572 45.6416 62.3852 64.1616C58.6626 69.4309 56.2732 75.2869 55.2172 81.7296C54.1079 82.4069 53.9266 81.5962 54.6732 79.2975C55.6492 73.1482 57.8332 67.4816 61.2252 62.2976C61.8172 61.3936 63.2252 60.5456 63.8332 59.2576C64.1266 58.6389 64.4146 58.1856 64.6973 57.8976C77.7933 44.7136 96.9532 39.4816 115.281 39.9056C121.441 40.0496 127.111 41.2096 132.289 43.3856C133.033 43.6976 135.473 44.2736 134.593 45.3776Z" fill="#F7CD97"/>
<path d="M129.522 43.4651C128.258 44.9371 131.41 45.2971 132.33 45.7931C132.175 46.1291 132.204 46.5105 132.418 46.9371C132.471 47.0432 132.489 47.164 132.469 47.2819C132.449 47.3998 132.392 47.5088 132.306 47.5931C131.671 48.2225 130.916 48.4438 130.042 48.2571C129.834 48.2145 129.642 48.2518 129.466 48.3691C128.452 49.0305 127.324 49.3878 126.082 49.4411C125.922 49.4487 125.769 49.5074 125.647 49.6084C125.524 49.7094 125.438 49.8473 125.402 50.0011L125.194 50.8651C125.163 50.993 125.095 51.1089 125 51.1985C124.905 51.2881 124.786 51.3474 124.658 51.3691C112.834 53.2678 101.602 56.9211 90.9616 62.3291C88.1696 63.7451 85.3295 65.8971 82.4655 67.6331C82.383 67.6861 82.2849 67.7094 82.1873 67.6992C82.0898 67.689 81.9986 67.646 81.9288 67.5771C81.859 67.5082 81.8146 67.4176 81.8032 67.3202C81.7917 67.2228 81.8136 67.1244 81.8655 67.0411L83.1055 64.8891C83.1486 64.82 83.1663 64.738 83.1556 64.6573C83.145 64.5765 83.1067 64.5019 83.0472 64.4463C82.9878 64.3906 82.9109 64.3572 82.8296 64.3519C82.7483 64.3466 82.6677 64.3697 82.6015 64.4171C78.4495 67.2491 76.1775 70.0091 73.9375 74.4331C72.9935 76.2891 71.5856 77.7638 69.7136 78.8571C69.6615 78.8879 69.6034 78.9072 69.5431 78.9137C69.4828 78.9202 69.4216 78.9138 69.3636 78.895C69.3055 78.8761 69.2518 78.8452 69.206 78.8042C69.1602 78.7633 69.1232 78.7131 69.0975 78.6571L67.8175 75.7531C67.7108 75.5025 67.7189 75.2571 67.8415 75.0171C70.1242 70.6918 73.1802 67.0171 77.0095 63.9931C77.1166 63.9086 77.1898 63.7882 77.2161 63.6534C77.2425 63.5186 77.2203 63.3782 77.1535 63.2571C76.9935 62.9745 76.7508 62.9531 76.4255 63.1931C70.5695 67.5611 66.5109 73.2358 64.2495 80.2171C64.1749 80.4518 64.0229 80.6225 63.7935 80.7291L60.6975 82.1051C60.5429 82.1728 60.3685 82.179 60.2105 82.1223C60.0526 82.0657 59.9233 81.9507 59.8495 81.8011C59.3162 80.7238 58.4709 80.0278 57.3136 79.7131C56.9989 79.6278 56.8762 79.4251 56.9455 79.1051C57.9429 74.4811 59.7215 70.1931 62.2815 66.2411C62.5855 65.7771 62.6202 65.0838 62.3855 64.1611C76.8575 45.6411 107.098 36.9451 129.522 43.4651ZM117.314 44.8651C117.429 44.7731 117.513 44.6474 117.553 44.5054C117.594 44.3635 117.588 44.2122 117.538 44.0725C117.488 43.9328 117.396 43.8117 117.274 43.7258C117.152 43.6399 117.006 43.5936 116.858 43.5931C106.642 43.6411 95.2895 45.6651 88.2975 53.3931C88.2769 53.419 88.2647 53.4507 88.2628 53.4838C88.2609 53.5168 88.2693 53.5497 88.2868 53.5778C88.3044 53.6059 88.3302 53.6278 88.3608 53.6406C88.3914 53.6534 88.4252 53.6564 88.4575 53.6491C97.2149 51.2438 105.938 48.7558 114.626 46.1851C115.735 45.8598 116.631 45.4198 117.314 44.8651Z" fill="#4C2524"/>
<path d="M129.522 43.4658L134.594 45.3778L137.762 47.0898C141.634 50.0285 144.727 53.7085 147.042 58.1298C147.191 58.4178 147.365 58.4338 147.562 58.1778C149.791 55.3298 152.541 52.8978 155.81 50.8818C156.061 53.0632 154.997 54.9432 152.618 56.5218C152.38 56.6822 152.207 56.9202 152.13 57.1938C151.863 58.1858 152.106 58.8445 152.858 59.1698C152.964 59.2149 153.059 59.2824 153.137 59.3678C153.216 59.4533 153.276 59.5548 153.314 59.6658L153.946 61.5458C153.982 61.6572 154.06 61.7504 154.164 61.8068C154.268 61.8632 154.39 61.8786 154.506 61.8498C158.818 60.8578 162.962 60.8338 167.482 60.4738C171.626 60.1538 176.034 62.2018 179.906 64.2978C180.362 64.5458 181.202 64.4258 181.642 64.1378C181.829 64.0205 182.013 64.0205 182.194 64.1378C183.554 65.0391 184.69 64.8818 185.602 63.6658C185.794 63.4098 185.89 63.1218 185.89 62.8018V61.9458C185.89 61.6632 186.031 61.5378 186.314 61.5698C186.81 61.6338 187.29 61.7645 187.754 61.9618C191.226 63.4418 191.29 58.4578 193.13 56.7218C198.026 61.2978 201.351 66.4792 203.106 72.2658C204.93 78.2712 205.533 84.7405 204.914 91.6738C204.893 91.8551 204.81 92.0018 204.666 92.1138L204.218 92.4418C203.946 92.6392 203.823 92.9058 203.85 93.2418C204.133 96.9805 203.501 100.548 201.954 103.946C201.799 104.282 201.679 104.268 201.594 103.906L201.418 103.178C201.381 103.012 201.279 102.919 201.114 102.898C200.133 102.77 199.295 102.324 198.602 101.562C198.521 101.474 198.46 101.369 198.421 101.255C198.383 101.141 198.368 101.019 198.378 100.898C198.565 98.4818 198.49 96.0685 198.154 93.6578C198.095 93.2472 197.967 93.2231 197.77 93.5858C196.258 96.3378 197.138 99.0818 196.154 101.706C196.063 101.962 195.885 102.058 195.618 101.994C194.957 101.828 194.309 101.94 193.674 102.33C193.461 102.463 193.234 102.484 192.994 102.394L190.194 101.306C189.815 101.162 189.581 101.287 189.49 101.682C189.469 101.794 189.402 101.884 189.29 101.954C188.965 102.167 188.81 102.079 188.826 101.69L188.874 100.042C188.879 99.8392 188.783 99.7138 188.586 99.6658C188.01 99.5378 187.762 99.2712 187.842 98.8658C187.889 98.6153 187.861 98.3566 187.762 98.1218C186.727 95.6312 185.527 93.2285 184.162 90.9138C183.21 89.2898 179.802 85.3458 178.242 84.4178C169.85 79.4338 161.418 77.0738 152.69 74.0258C149.794 73.0098 145.386 70.8338 145.034 67.3538C145.013 67.1565 144.901 67.0632 144.698 67.0738C142.767 67.1912 141.535 67.5592 141.002 68.1778C128.674 82.5058 109.114 81.4658 93.1699 88.8578C86.7139 91.8498 79.1219 91.3698 75.2979 98.8098C74.0979 101.146 73.218 107.186 73.41 109.826C73.746 114.524 73.4713 119.204 72.5859 123.866C72.5379 124.127 72.3886 124.303 72.1379 124.394C70.0819 125.162 70.458 127.482 67.562 126.802C67.306 126.743 67.0526 126.756 66.802 126.842C65.9113 127.151 65.1566 126.911 64.5379 126.122C64.3619 125.892 64.2846 125.634 64.306 125.346C64.37 124.492 64.2099 123.551 63.8259 122.522C61.2713 115.738 58.8579 108.074 56.5859 99.5298C58.3726 100.132 59.0073 98.8418 58.4899 95.6578C58.4366 95.3165 58.578 95.1138 58.914 95.0498L61.6739 94.5058C61.7296 94.4941 61.781 94.4687 61.823 94.4322C61.8651 94.3957 61.8965 94.3494 61.914 94.2978L62.754 92.0578C62.8553 91.7805 63.0393 91.7005 63.306 91.8178C66.458 93.2098 67.6179 90.7618 69.3219 88.3378C70.1593 87.1378 70.6313 85.7725 70.7379 84.2418C70.7539 84.0089 70.8107 83.7788 70.906 83.5618L72.114 80.8738C72.2206 80.6391 72.3753 80.4471 72.5779 80.2978C74.1619 79.1618 76.882 74.3298 78.61 74.9298C78.7454 74.9772 78.8666 75.0581 78.9623 75.1651C79.0579 75.272 79.1249 75.4015 79.1568 75.5414C79.1888 75.6813 79.1848 75.827 79.1451 75.9649C79.1054 76.1028 79.0314 76.2283 78.9299 76.3298C77.0419 78.2178 75.57 80.4658 75.306 83.0498C75.186 84.2738 73.746 84.4418 73.81 85.9698C73.8116 86.0312 73.8298 86.0909 73.8629 86.1426C73.8961 86.1943 73.9428 86.2362 73.9983 86.264C74.0538 86.2917 74.116 86.3043 74.1785 86.3004C74.2411 86.2965 74.3016 86.2763 74.354 86.2418C87.506 77.3138 101.634 72.5698 118.242 66.0018C121.794 64.5992 125.423 63.4258 129.13 62.4818C131.33 61.9218 133.61 60.8098 136.082 60.3778C136.365 60.3245 136.573 60.1725 136.706 59.9218C137.314 58.7858 138.245 58.0818 139.498 57.8098C139.667 57.7746 139.819 57.6858 139.933 57.5567C140.048 57.4277 140.117 57.2652 140.131 57.0935C140.146 56.9218 140.104 56.7501 140.013 56.6038C139.922 56.4576 139.786 56.3446 139.626 56.2818C136.053 54.8845 132.319 54.2765 128.426 54.4578C128.246 54.4687 128.069 54.4175 127.924 54.3126C127.778 54.2078 127.673 54.0556 127.626 53.8815C127.58 53.7075 127.594 53.522 127.666 53.3561C127.739 53.1902 127.866 53.0538 128.026 52.9698C130.85 51.4898 135.858 54.0898 138.45 53.0498C138.772 52.9207 139.057 52.7088 139.275 52.4374C139.493 52.1661 139.634 51.846 139.683 51.5127C139.732 51.1795 139.686 50.8462 139.552 50.5498C139.418 50.2534 139.2 50.0056 138.922 49.8338L132.33 45.7938C131.41 45.2978 128.258 44.9378 129.522 43.4658Z" fill="#2E1319"/>
<path d="M117.314 44.8657C116.631 45.4204 115.735 45.8604 114.626 46.1857C105.938 48.7564 97.215 51.2444 88.4577 53.6497C88.4254 53.657 88.3915 53.654 88.361 53.6412C88.3304 53.6285 88.3045 53.6065 88.287 53.5784C88.2694 53.5503 88.261 53.5175 88.263 53.4844C88.2649 53.4513 88.277 53.4196 88.2977 53.3938C95.2897 45.6658 106.642 43.6417 116.858 43.5938C117.007 43.5942 117.152 43.6405 117.274 43.7264C117.396 43.8123 117.488 43.9335 117.538 44.0731C117.589 44.2128 117.594 44.3641 117.554 44.5061C117.513 44.6481 117.429 44.7738 117.314 44.8657Z" fill="#F7CD97"/>
<path d="M132.33 45.793L138.922 49.833C139.2 50.0047 139.418 50.2525 139.552 50.5489C139.686 50.8453 139.731 51.1786 139.683 51.5119C139.634 51.8451 139.493 52.1652 139.275 52.4365C139.057 52.7079 138.772 52.9199 138.45 53.049C135.858 54.089 130.85 51.489 128.026 52.969C127.866 53.053 127.739 53.1893 127.666 53.3552C127.594 53.5212 127.579 53.7066 127.626 53.8807C127.673 54.0548 127.778 54.2069 127.923 54.3118C128.069 54.4167 128.246 54.4679 128.426 54.457C132.319 54.2756 136.052 54.8836 139.626 56.281C139.786 56.3438 139.922 56.4567 140.013 56.603C140.104 56.7492 140.146 56.921 140.131 57.0927C140.117 57.2644 140.048 57.4268 139.933 57.5559C139.819 57.6849 139.666 57.7737 139.498 57.809C138.245 58.081 137.314 58.785 136.706 59.921C136.573 60.1716 136.364 60.3236 136.082 60.377C133.61 60.809 131.33 61.921 129.13 62.481C125.423 63.425 121.794 64.5983 118.242 66.001C101.634 72.569 87.5059 77.313 74.3539 86.241C74.3015 86.2754 74.241 86.2956 74.1784 86.2995C74.1159 86.3034 74.0537 86.2908 73.9982 86.2631C73.9427 86.2354 73.896 86.1935 73.8628 86.1417C73.8297 86.09 73.8115 86.0304 73.8099 85.969C73.7459 84.441 75.1859 84.273 75.3059 83.049C75.5699 80.465 77.0418 78.217 78.9298 76.329C79.0313 76.2275 79.1053 76.1019 79.145 75.964C79.1847 75.8261 79.1887 75.6804 79.1567 75.5405C79.1248 75.4006 79.0578 75.2712 78.9622 75.1642C78.8665 75.0572 78.7453 74.9763 78.6099 74.929C76.8819 74.329 74.1618 79.161 72.5778 80.297C72.3752 80.4463 72.2205 80.6383 72.1139 80.873L70.9059 83.561C70.8106 83.7779 70.7538 84.008 70.7378 84.241C70.6312 85.7716 70.1592 87.137 69.3218 88.337C67.6178 90.761 66.4579 93.209 63.3059 91.817C63.0392 91.6996 62.8552 91.7796 62.7539 92.057L61.9139 94.297C61.8964 94.3486 61.865 94.3949 61.8229 94.4314C61.7809 94.4678 61.7295 94.4932 61.6738 94.505L58.9139 95.049C58.5779 95.113 58.4365 95.3156 58.4898 95.657C59.0072 98.841 58.3725 100.132 56.5858 99.529C56.0045 94.1583 55.8392 88.9876 56.0898 84.017C56.1112 83.6756 55.9618 83.5663 55.6418 83.689C55.3538 83.7956 55.0312 84.2116 54.6738 84.937L55.2178 81.729C56.2738 75.2863 58.6632 69.4303 62.3858 64.161C62.6205 65.0836 62.5858 65.777 62.2818 66.241C59.7218 70.193 57.9432 74.481 56.9458 79.105C56.8765 79.425 56.9992 79.6276 57.3139 79.713C58.4712 80.0276 59.3165 80.7236 59.8499 81.801C59.9236 81.9505 60.0529 82.0656 60.2108 82.1222C60.3688 82.1788 60.5432 82.1726 60.6979 82.105L63.7938 80.729C64.0232 80.6223 64.1752 80.4516 64.2499 80.217C66.5112 73.2356 70.5698 67.561 76.4258 63.193C76.7512 62.953 76.9939 62.9743 77.1539 63.257C77.2206 63.378 77.2428 63.5185 77.2165 63.6532C77.1901 63.788 77.1169 63.9084 77.0099 63.993C73.1805 67.017 70.1245 70.6916 67.8418 75.017C67.7192 75.257 67.7112 75.5023 67.8178 75.753L69.0979 78.657C69.1235 78.713 69.1605 78.7631 69.2063 78.8041C69.2521 78.845 69.3058 78.876 69.3639 78.8948C69.4219 78.9137 69.4831 78.92 69.5434 78.9135C69.6037 78.907 69.6618 78.8877 69.7139 78.857C71.5859 77.7636 72.9938 76.289 73.9378 74.433C76.1778 70.009 78.4499 67.249 82.6019 64.417C82.668 64.3695 82.7487 64.3465 82.8299 64.3518C82.9112 64.3571 82.9881 64.3904 83.0476 64.4461C83.107 64.5018 83.1453 64.5763 83.156 64.6571C83.1666 64.7379 83.1489 64.8198 83.1059 64.889L81.8658 67.041C81.814 67.1242 81.792 67.2226 81.8035 67.32C81.815 67.4174 81.8593 67.508 81.9291 67.5769C81.9989 67.6458 82.0901 67.6889 82.1876 67.6991C82.2852 67.7093 82.3833 67.6859 82.4658 67.633C85.3298 65.897 88.1699 63.745 90.9619 62.329C101.602 56.921 112.834 53.2676 124.658 51.369C124.786 51.3472 124.905 51.2879 125 51.1983C125.096 51.1087 125.163 50.9928 125.194 50.865L125.402 50.001C125.438 49.8471 125.524 49.7093 125.647 49.6082C125.77 49.5072 125.922 49.4485 126.082 49.441C127.324 49.3876 128.452 49.0303 129.466 48.369C129.642 48.2516 129.834 48.2143 130.042 48.257C130.917 48.4436 131.671 48.2223 132.306 47.593C132.392 47.5087 132.449 47.3996 132.469 47.2817C132.489 47.1638 132.471 47.0431 132.418 46.937C132.204 46.5103 132.175 46.129 132.33 45.793Z" fill="#3E1D1F"/>
<path d="M184.706 50.658L193.13 56.722C191.29 58.458 191.226 63.442 187.754 61.962C187.29 61.7646 186.81 61.6339 186.314 61.5699C186.031 61.5379 185.89 61.6633 185.89 61.946V62.802C185.89 63.122 185.794 63.41 185.602 63.666C184.69 64.882 183.554 65.0393 182.194 64.1379C182.013 64.0206 181.829 64.0206 181.642 64.1379C181.202 64.4259 180.362 64.546 179.906 64.298C176.034 62.202 171.626 60.154 167.482 60.474C162.962 60.834 158.818 60.858 154.506 61.85C154.39 61.8787 154.268 61.8633 154.165 61.8069C154.061 61.7506 153.983 61.6573 153.946 61.546L153.314 59.666C153.276 59.5549 153.216 59.4534 153.137 59.368C153.059 59.2825 152.964 59.215 152.858 59.1699C152.106 58.8446 151.863 58.186 152.13 57.194C152.207 56.9204 152.38 56.6823 152.618 56.522C154.997 54.9433 156.061 53.0633 155.81 50.8819C165.367 45.8313 174.999 45.7566 184.706 50.658Z" fill="#4C2524"/>
<path d="M184.706 50.6572C189.869 52.7799 194.247 56.0092 197.842 60.3452C199.778 62.5639 201.407 65.0839 202.73 67.9052C211.154 87.7052 204.522 108.737 195.09 126.601C194.957 126.852 195.026 127.025 195.298 127.121C201.047 129.18 205.49 132.913 208.626 138.321C216.714 151.305 218.442 167.497 211.77 181.569C201.666 199.633 183.402 206.361 163.298 203.961L161.994 203.841C161.701 203.815 161.495 203.665 161.378 203.393C157.874 195.335 152.013 189.7 143.794 186.489L141.394 186.073C141.106 186.025 140.882 186.121 140.722 186.361C140.364 186.9 140.007 186.988 139.65 186.625C140.57 185.097 137.482 185.249 136.154 185.113C135.178 183.935 135.007 182.537 135.642 180.921C153.274 179.545 172.354 173.241 180.826 156.097C180.996 155.745 181.253 155.665 181.594 155.857L183.41 156.857C183.666 157.001 183.935 157.105 184.218 157.169C192.308 158.988 198.506 156.916 202.81 150.953C206.97 145.185 206.89 138.969 202.05 133.705C199.842 131.313 195.154 128.649 191.962 130.257C189.394 131.553 188.194 136.449 188.074 139.001C188.074 141.028 188.327 142.988 188.834 144.881C189.261 146.455 188.74 146.983 187.274 146.465C187.054 146.387 186.861 146.251 186.714 146.073C184.927 143.892 183.573 141.127 182.65 137.777L182.346 129.473C182.922 116.78 182.914 107.647 182.322 102.073C181.538 94.7372 176.618 91.3372 169.722 88.7532C159.954 85.0892 151.538 81.5532 144.09 73.9532C143.887 73.7506 143.695 73.7559 143.514 73.9692C134.658 84.3452 118.522 88.0892 105.058 90.2252C94.9032 91.9906 88.3778 93.3292 85.4818 94.2412C77.6338 96.7212 75.2738 103.297 75.2738 110.865C75.2738 117.863 75.2845 124.844 75.3059 131.809C74.9059 131.905 74.7298 131.793 74.7778 131.473C70.5005 129.255 66.5698 129.212 62.9858 131.345C55.5218 134.217 52.4978 141.497 55.3698 149.121C60.5485 157.02 67.7698 159.153 77.0338 155.521C76.8418 155.217 77.0179 155.068 77.5619 155.073C82.6659 169.673 97.3939 176.881 111.898 179.449L120.17 180.713C120.191 182.004 119.94 183.183 119.418 184.249C119.06 184.66 118.626 184.873 118.114 184.889L115.082 185.465L110.442 186.609L104.674 189.057C94.3538 193.801 91.3538 215.289 90.7938 225.297C90.4018 223.513 90.3938 221.673 89.4818 220.057C80.4338 204.041 67.0738 191.033 54.2658 179.089C49.1032 174.268 44.9885 168.86 41.9218 162.865C39.6712 157.953 38.0845 152.812 37.1619 147.441L37.0898 146.097C37.2125 145.948 37.3645 145.871 37.5458 145.865C37.6583 145.86 37.769 145.895 37.8594 145.964C37.9498 146.032 38.0143 146.13 38.0418 146.241C39.3378 151.847 41.2952 157.196 43.9139 162.289C44.8819 164.177 46.4578 164.657 48.3858 164.137C48.6898 164.057 48.8365 163.86 48.8258 163.545C48.7538 161.033 48.2178 155.441 51.0418 154.817C51.0978 154.806 51.1508 154.784 51.198 154.751C51.2452 154.719 51.2856 154.678 51.3168 154.629C51.3481 154.581 51.3696 154.527 51.38 154.47C51.3905 154.413 51.3897 154.354 51.3778 154.297C50.6658 150.865 49.2258 143.049 52.2178 141.169C52.4205 141.047 52.5592 140.873 52.6338 140.649C54.0525 136.596 56.3165 133.105 59.4258 130.177C59.6445 129.975 59.7298 129.727 59.6818 129.433C59.4045 127.737 59.8898 126.284 61.1378 125.073C61.2274 124.986 61.2963 124.88 61.3392 124.764C61.3821 124.648 61.3981 124.524 61.3858 124.401C61.0392 120.401 60.1619 116.532 58.7539 112.793C58.6739 112.585 58.5245 112.465 58.3059 112.433L55.8178 112.065L57.6178 111.377C57.7447 111.327 57.8549 111.241 57.9355 111.131C58.0161 111.02 58.0641 110.89 58.0738 110.753C58.0952 110.311 57.9245 109.881 57.5619 109.465C55.5459 101.113 53.8658 94.5132 54.6738 84.9372C55.0312 84.2119 55.3538 83.7959 55.6418 83.6892C55.9618 83.5666 56.1112 83.6759 56.0898 84.0172C55.8392 88.9879 56.0045 94.1586 56.5858 99.5292C58.8578 108.073 61.2712 115.737 63.8258 122.521C64.2098 123.551 64.3699 124.492 64.3059 125.345C64.2845 125.633 64.3618 125.892 64.5378 126.121C65.1565 126.911 65.9112 127.151 66.8019 126.841C67.0525 126.756 67.3059 126.743 67.5619 126.801C70.4579 127.481 70.0818 125.161 72.1378 124.393C72.3885 124.303 72.5378 124.127 72.5858 123.865C73.4712 119.204 73.7459 114.524 73.4099 109.825C73.2179 107.185 74.0979 101.145 75.2979 98.8092C79.1219 91.3692 86.7138 91.8492 93.1698 88.8572C109.114 81.4652 128.674 82.5052 141.002 68.1772C141.535 67.5586 142.767 67.1906 144.698 67.0732C144.901 67.0626 145.013 67.1559 145.034 67.3532C145.386 70.8332 149.794 73.0092 152.69 74.0252C161.418 77.0732 169.85 79.4332 178.242 84.4172C179.802 85.3452 183.21 89.2892 184.162 90.9132C185.527 93.2279 186.727 95.6306 187.762 98.1212C187.861 98.356 187.889 98.6148 187.842 98.8652C187.762 99.2706 188.01 99.5372 188.586 99.6652C188.783 99.7132 188.879 99.8386 188.874 100.041L188.826 101.689C188.81 102.079 188.965 102.167 189.29 101.953C189.402 101.884 189.469 101.793 189.49 101.681C189.581 101.287 189.815 101.161 190.194 101.305L192.994 102.393C193.234 102.484 193.46 102.463 193.674 102.329C194.308 101.94 194.956 101.828 195.618 101.993C195.884 102.057 196.063 101.961 196.154 101.705C197.138 99.0812 196.258 96.3372 197.77 93.5852C197.967 93.2226 198.095 93.2466 198.154 93.6572C198.49 96.0679 198.565 98.4812 198.378 100.897C198.368 101.019 198.383 101.14 198.421 101.254C198.46 101.369 198.521 101.473 198.602 101.561C199.295 102.324 200.133 102.769 201.114 102.897C201.279 102.919 201.38 103.012 201.418 103.177L201.594 103.905C201.679 104.268 201.799 104.281 201.954 103.945C203.501 100.548 204.133 96.9799 203.85 93.2412C203.823 92.9052 203.946 92.6386 204.218 92.4412L204.666 92.1132C204.81 92.0012 204.893 91.8546 204.914 91.6732C205.533 84.7399 204.93 78.2706 203.106 72.2652C201.351 66.4786 198.026 61.2972 193.13 56.7212L184.706 50.6572Z" fill="#1A060F"/>
<path d="M201.994 51.9931C226.794 76.5851 236.522 109.041 233.122 143.481C232.38 150.921 230.842 158.174 228.506 165.241C226.415 171.337 223.81 177.233 220.69 182.929C220.05 182.95 219.532 182.716 219.138 182.225C218.978 182.028 218.78 181.972 218.546 182.057L217.978 182.273C217.919 182.294 217.857 182.3 217.795 182.291C217.734 182.282 217.676 182.259 217.626 182.223C217.575 182.187 217.534 182.139 217.507 182.084C217.479 182.028 217.465 181.967 217.466 181.905C217.498 180.71 217.212 179.638 216.61 178.689C216.45 178.449 216.252 178.412 216.018 178.577L213.578 180.321C213.418 180.433 213.287 180.577 213.186 180.753C212.892 181.265 212.42 181.537 211.77 181.569C218.442 167.497 216.714 151.305 208.626 138.321C208.999 138.012 209.463 137.91 210.018 138.017C210.3 138.07 210.511 137.974 210.65 137.729C224.09 113.937 223.41 87.6011 206.618 65.5371C206.534 65.4285 206.419 65.3488 206.288 65.3091C206.156 65.2695 206.016 65.2719 205.886 65.316C205.757 65.3601 205.644 65.4437 205.564 65.5551C205.485 65.6665 205.442 65.8001 205.442 65.9371C205.442 66.4811 205.178 66.7291 204.65 66.6811C204.383 66.6598 204.18 66.7638 204.042 66.9931C203.695 67.5478 203.258 67.8518 202.73 67.9051C201.407 65.0838 199.778 62.5638 197.842 60.3451C197.852 60.0358 197.924 59.7611 198.058 59.5211C198.18 59.2971 198.159 59.0891 197.994 58.8971C196.948 57.6758 195.959 56.4038 195.026 55.0811C195.02 55.0742 195.018 55.0658 195.018 55.0571C195.018 55.0485 195.02 55.04 195.026 55.0331C195.063 54.9904 195.111 54.9398 195.17 54.8811C195.212 54.8331 195.218 54.7798 195.186 54.7211C194.444 53.4145 194.658 52.3291 195.826 51.4651C196.05 51.2998 196.263 51.3105 196.466 51.4971C197.383 52.3238 198.439 52.8998 199.634 53.2251C199.911 53.2998 200.138 53.4491 200.314 53.6731C200.692 54.1425 201.372 54.1958 202.354 53.8331C202.393 53.8161 202.426 53.7861 202.447 53.7481C202.467 53.7102 202.474 53.6664 202.467 53.6239C202.46 53.5813 202.438 53.5425 202.406 53.5137C202.374 53.4849 202.333 53.4678 202.29 53.4651H201.922C201.548 53.4651 201.434 53.2918 201.578 52.9451L201.994 51.9931Z" fill="#7EBA98"/>
<path d="M208.625 138.321C205.489 132.913 201.047 129.18 195.297 127.121C195.025 127.025 194.956 126.852 195.089 126.601C204.521 108.737 211.153 87.7053 202.729 67.9053C203.257 67.852 203.695 67.548 204.041 66.9933C204.18 66.764 204.383 66.66 204.649 66.6813C205.177 66.7293 205.441 66.4813 205.441 65.9373C205.441 65.8003 205.484 65.6667 205.564 65.5553C205.644 65.4439 205.756 65.3603 205.886 65.3162C206.016 65.2721 206.156 65.2697 206.287 65.3093C206.418 65.349 206.534 65.4287 206.617 65.5373C223.409 87.6013 224.089 113.937 210.649 137.729C210.511 137.975 210.3 138.071 210.017 138.017C209.463 137.911 208.999 138.012 208.625 138.321Z" fill="#5DA491"/>
<path d="M182.346 129.474L182.298 127.418C182.292 127.204 182.188 127.084 181.986 127.058L181.73 127.026C181.468 126.988 181.332 126.839 181.322 126.578C181.274 125.498 180.698 124.674 180.706 123.658C180.727 117.812 180.644 111.962 180.458 106.106C180.226 98.8098 178.858 93.6818 171.818 91.2978C166.98 89.6604 162.799 88.1164 159.274 86.6658C153.858 84.4338 148.738 80.8178 143.594 77.5858C143.373 77.4473 143.106 77.4013 142.85 77.4578C141.788 77.6924 141.111 78.3058 140.818 79.2978C140.738 79.5751 140.578 79.7964 140.338 79.9618C130.418 86.9138 117.618 90.4338 105.37 91.9858C105.167 92.0124 105.066 91.9218 105.066 91.7138L105.058 90.2258C118.522 88.0898 134.658 84.3458 143.514 73.9698C143.695 73.7564 143.887 73.7511 144.09 73.9538C151.538 81.5538 159.954 85.0898 169.722 88.7538C176.618 91.3378 181.538 94.7378 182.322 102.074C182.914 107.647 182.922 116.78 182.346 129.474Z" fill="#F89564"/>
<path d="M54.6737 79.2979C53.9271 81.5966 54.1084 82.4073 55.2177 81.7299L54.6737 84.9379C53.8657 94.5139 55.5458 101.114 57.5618 109.466C50.1058 112.026 44.5324 116.722 40.8417 123.554C36.1697 132.21 35.6497 137.954 36.2417 148.058C36.2471 148.165 36.3031 148.223 36.4098 148.234L36.6098 148.266C36.8658 148.298 37.0177 148.186 37.0657 147.93L37.1618 147.442C38.0844 152.813 39.6711 157.954 41.9217 162.866C41.8044 162.989 41.6551 163.063 41.4737 163.09C41.1964 163.122 40.9911 163.013 40.8578 162.762C38.7511 158.73 37.3217 154.466 36.5697 149.97C36.5484 149.842 36.4738 149.778 36.3458 149.778C36.0258 149.783 35.7164 149.655 35.4177 149.394C31.7697 146.194 31.4017 151.682 28.4257 151.706C28.1697 151.706 27.9697 151.815 27.8257 152.034L26.7777 153.594C26.6177 153.834 26.4524 153.837 26.2817 153.602C26.0097 153.234 25.6818 152.989 25.2978 152.866C20.9884 129.298 23.3191 106.375 32.2897 84.0979C32.5457 84.0126 32.7911 83.6393 33.0257 82.9779L33.5297 83.594C33.8071 83.93 34.0471 83.906 34.2498 83.522L34.5138 83.0419C34.6524 82.7753 34.8524 82.7166 35.1138 82.8659C35.6951 83.2073 36.2924 83.2793 36.9058 83.082C37.1298 83.0126 37.2497 82.8606 37.2657 82.6259C37.3937 81.2099 47.6977 78.306 48.0817 78.17C48.3324 78.0793 48.5457 77.9353 48.7217 77.7379C49.6337 76.7139 50.6871 76.5379 51.8817 77.2099C51.9953 77.2741 52.0918 77.365 52.1628 77.4751C52.2339 77.5851 52.2774 77.711 52.2897 77.8419C52.3911 78.9673 53.1857 79.4526 54.6737 79.2979ZM37.4596 105.773C37.4401 105.637 37.3854 105.509 37.2986 105.394C37.2117 105.279 37.0945 105.18 36.9535 105.103C36.8125 105.025 36.6506 104.971 36.477 104.943C36.3033 104.916 36.1213 104.915 35.9414 104.941C35.5781 104.993 35.2453 105.152 35.0163 105.382C34.7872 105.612 34.6806 105.894 34.7199 106.167C34.7394 106.302 34.7941 106.431 34.8809 106.546C34.9677 106.661 35.085 106.76 35.226 106.837C35.3669 106.915 35.5289 106.969 35.7025 106.996C35.8762 107.024 36.0582 107.025 36.2381 106.999C36.6014 106.947 36.9342 106.788 37.1632 106.558C37.3923 106.328 37.4989 106.046 37.4596 105.773Z" fill="#91C299"/>
<path d="M182.345 129.473L182.649 137.777C181.609 139.644 181.18 141.884 181.361 144.497C181.009 144.817 180.681 144.996 180.377 145.033L180.457 144.625C180.521 144.332 180.404 144.158 180.105 144.105C178.367 143.78 176.649 143.414 174.953 143.009C174.802 142.974 174.66 142.906 174.538 142.81C174.415 142.714 174.316 142.592 174.246 142.453C174.175 142.314 174.136 142.162 174.132 142.006C174.127 141.851 174.156 141.696 174.217 141.553C174.377 141.18 174.287 141.022 173.945 141.081C173.705 141.129 173.569 141.273 173.537 141.513C173.324 143.054 172.463 144.054 170.953 144.513C170.735 144.076 170.703 143.67 170.857 143.297C171.817 142.62 172.46 141.772 172.785 140.753C172.871 140.492 172.871 140.233 172.785 139.977C171.143 134.777 167.599 131.356 162.153 129.713C153.145 126.537 145.457 134.569 149.721 143.441L148.809 143.857C148.681 143.542 148.548 143.294 148.409 143.113C148.365 143.048 148.296 143.004 148.219 142.99C148.142 142.976 148.062 142.993 147.997 143.037C147.933 143.082 147.888 143.15 147.874 143.227C147.86 143.305 147.877 143.384 147.921 143.449C149.164 145.417 150.783 146.985 152.777 148.153C153.241 148.425 153.204 148.582 152.665 148.625C151.057 148.753 150.585 146.553 149.081 146.265C148.831 146.217 148.601 146.118 148.393 145.969L145.961 144.201C145.759 144.052 145.532 144.012 145.281 144.081C144.193 144.396 143.423 144.038 142.969 143.009C142.919 142.89 142.829 142.793 142.714 142.733C142.6 142.674 142.468 142.657 142.341 142.684C142.214 142.711 142.1 142.781 142.018 142.883C141.936 142.985 141.89 143.111 141.889 143.241V144.465C141.889 144.796 141.772 144.846 141.537 144.617L141.201 144.273C141.01 144.087 140.761 143.974 140.497 143.953C138.103 143.788 135.737 143.54 133.401 143.209C133.327 143.198 133.258 143.164 133.205 143.111C133.152 143.058 133.117 142.99 133.105 142.915C133.094 142.841 133.106 142.765 133.141 142.699C133.175 142.632 133.23 142.578 133.297 142.545L133.657 142.377C133.865 142.281 133.921 142.129 133.825 141.921C132.745 139.633 130.905 140.801 129.041 140.465C128.919 140.441 128.792 140.452 128.675 140.496C128.557 140.54 128.455 140.615 128.377 140.713C127.737 141.508 127.039 141.705 126.281 141.305C124.484 140.35 122.836 140.217 121.337 140.905C121.226 140.956 121.103 140.977 120.983 140.966C120.862 140.954 120.747 140.911 120.649 140.841C118.719 139.438 116.871 139.494 115.105 141.009C114.935 141.153 114.737 141.225 114.513 141.225C113.505 141.233 110.913 142.233 110.329 141.225C110.217 141.028 110.129 141.038 110.065 141.257C109.207 144.201 107.441 146.308 104.769 147.577C104.743 146.649 104.465 146.196 103.937 146.217C106.551 145.022 107.844 143.241 107.817 140.873C108.175 138.836 107.828 136.793 106.777 134.745C107.567 133.934 106.751 132.846 104.329 131.481C104.932 131.332 105.305 131.02 105.449 130.545C105.54 130.236 105.449 129.99 105.177 129.809L103.569 128.713C103.345 128.558 103.095 128.473 102.817 128.457C93.3774 127.961 84.7695 131.369 82.8095 141.409C82.7615 141.654 82.6548 141.873 82.4895 142.065C80.4255 144.529 79.4761 147.078 79.6415 149.713C79.7321 151.089 79.7321 152.161 79.6415 152.929C79.6313 153.013 79.593 153.092 79.5327 153.152C79.4723 153.211 79.3936 153.249 79.3092 153.258C79.2248 153.267 79.1398 153.248 79.0679 153.203C78.9961 153.157 78.9417 153.089 78.9135 153.009C78.4921 151.83 78.2041 150.633 78.0495 149.417C78.0121 149.156 77.8628 149.036 77.6015 149.057C77.4255 149.078 77.2228 149.166 76.9935 149.321L75.3055 131.809C75.2841 124.844 75.2734 117.862 75.2734 110.865C75.2734 103.297 77.6334 96.7212 85.4814 94.2412C88.3774 93.3292 94.9028 91.9905 105.057 90.2251L105.065 91.7131C105.065 91.9211 105.167 92.0118 105.369 91.9851C117.617 90.4331 130.417 86.9131 140.337 79.9611C140.577 79.7958 140.737 79.5745 140.817 79.2971C141.111 78.3051 141.788 77.6918 142.849 77.4572C143.105 77.4007 143.373 77.4466 143.593 77.5851C148.737 80.8171 153.857 84.4332 159.273 86.6651C162.799 88.1158 166.98 89.6598 171.817 91.2971C178.857 93.6811 180.225 98.8092 180.457 106.105C180.644 111.961 180.727 117.812 180.705 123.657C180.697 124.673 181.273 125.497 181.321 126.577C181.332 126.838 181.468 126.988 181.729 127.025L181.985 127.057C182.188 127.084 182.292 127.204 182.297 127.417L182.345 129.473ZM86.5935 118.905C84.5055 121.129 82.6654 122.681 84.2734 125.393C84.3068 125.451 84.354 125.499 84.4108 125.534C84.4676 125.569 84.5323 125.589 84.5994 125.593C84.6664 125.597 84.7337 125.584 84.7955 125.556C84.8572 125.529 84.9114 125.486 84.9535 125.433C88.8335 120.321 92.2895 116.425 99.0095 116.537C100.721 116.569 102.841 117.401 104.873 117.505C105.145 117.521 105.385 117.436 105.593 117.249C108.313 114.817 105.529 111.441 102.665 111.585C96.2388 111.91 90.8815 114.35 86.5935 118.905ZM152.697 111.761C146.969 111.097 146.481 119.129 152.345 117.553C160.321 115.409 166.145 119.065 170.681 125.441C170.857 125.686 171.06 125.71 171.289 125.513C172.74 124.26 172.78 122.876 171.409 121.361C166.375 115.82 160.137 112.62 152.697 111.761Z" fill="#FBB380"/>
<path d="M36.2378 106.999C36.9944 106.89 37.5412 106.341 37.4593 105.772C37.3774 105.204 36.6977 104.831 35.9411 104.94C35.1846 105.049 34.6377 105.599 34.7196 106.167C34.8015 106.736 35.4813 107.108 36.2378 106.999Z" fill="#F1E8B9"/>
<path d="M57.5617 109.466C57.9244 109.882 58.095 110.311 58.0737 110.754C58.0639 110.89 58.016 111.021 57.9353 111.131C57.8547 111.242 57.7446 111.327 57.6176 111.378L55.8176 112.066C41.8416 116.978 35.3537 132.042 37.0897 146.098L37.1617 147.442L37.0656 147.93C37.0176 148.186 36.8657 148.298 36.6097 148.266L36.4097 148.234C36.303 148.223 36.247 148.164 36.2417 148.058C35.6497 137.954 36.1697 132.21 40.8417 123.554C44.5323 116.722 50.1057 112.026 57.5617 109.466Z" fill="#FCE4AD"/>
<path d="M86.5936 118.906C90.8816 114.351 96.2389 111.911 102.666 111.586C105.53 111.442 108.314 114.818 105.594 117.25C105.386 117.436 105.146 117.522 104.874 117.506C102.842 117.402 100.722 116.57 99.0097 116.538C92.2897 116.426 88.8336 120.322 84.9536 125.434C84.9116 125.487 84.8574 125.529 84.7956 125.557C84.7339 125.585 84.6666 125.597 84.5995 125.593C84.5325 125.589 84.4678 125.569 84.411 125.534C84.3542 125.499 84.307 125.451 84.2736 125.394C82.6656 122.682 84.5056 121.13 86.5936 118.906Z" fill="#2D0909"/>
<path d="M152.346 117.554C146.482 119.13 146.97 111.098 152.698 111.762C160.138 112.62 166.375 115.82 171.41 121.362C172.78 122.876 172.74 124.26 171.29 125.514C171.06 125.711 170.858 125.687 170.682 125.442C166.146 119.066 160.322 115.41 152.346 117.554Z" fill="#2D0909"/>
<path d="M55.8181 112.065L58.3062 112.433C58.5248 112.465 58.6742 112.585 58.7542 112.793C60.1622 116.532 61.0395 120.401 61.3862 124.401C61.3984 124.524 61.3825 124.648 61.3395 124.764C61.2966 124.881 61.2278 124.986 61.1382 125.073C59.8902 126.284 59.4048 127.737 59.6822 129.433C59.7302 129.727 59.6448 129.975 59.4262 130.177C56.3168 133.105 54.0528 136.596 52.6342 140.649C52.5595 140.873 52.4208 141.047 52.2181 141.169C49.2261 143.049 50.6662 150.865 51.3782 154.297C51.3901 154.354 51.3908 154.413 51.3803 154.47C51.3699 154.527 51.3484 154.581 51.3172 154.629C51.2859 154.678 51.2456 154.719 51.1984 154.752C51.1512 154.784 51.0981 154.806 51.0422 154.817C48.2182 155.441 48.7542 161.033 48.8262 163.545C48.8368 163.86 48.6902 164.057 48.3862 164.137C46.4582 164.657 44.8822 164.177 43.9142 162.289C41.2955 157.196 39.3382 151.847 38.0422 146.241C38.0146 146.13 37.9501 146.032 37.8597 145.964C37.7694 145.895 37.6586 145.861 37.5462 145.865C37.3648 145.871 37.2128 145.948 37.0902 146.097C35.3542 132.041 41.8421 116.977 55.8181 112.065ZM54.0982 118.569C46.5062 122.089 39.4582 133.497 40.8982 142.177C40.9515 142.503 41.1302 142.604 41.4342 142.481C42.7782 141.943 43.9515 140.953 44.9542 139.513C46.7942 136.857 62.0502 116.801 54.4822 118.441C54.3493 118.468 54.2204 118.511 54.0982 118.569Z" fill="#2E1319"/>
<path d="M40.8974 142.177C39.4574 133.497 46.5054 122.089 54.0974 118.569C54.2196 118.51 54.3485 118.467 54.4814 118.441C62.0494 116.801 46.7934 136.857 44.9534 139.513C43.9507 140.953 42.7774 141.942 41.4334 142.481C41.1294 142.604 40.9507 142.502 40.8974 142.177Z" fill="#B26A35"/>
<path d="M104.33 131.482C95.2661 124.882 76.7062 139.194 87.1062 145.21C88.6208 147.274 90.2955 148.202 92.1301 147.994C96.4235 149.071 100.637 148.932 104.77 147.578C107.442 146.308 109.207 144.202 110.066 141.258C110.13 141.039 110.218 141.028 110.33 141.226C110.914 142.234 113.506 141.234 114.514 141.226C114.738 141.226 114.935 141.154 115.106 141.01C116.871 139.495 118.719 139.439 120.65 140.842C120.748 140.912 120.863 140.955 120.983 140.966C121.104 140.977 121.227 140.957 121.338 140.906C122.837 140.218 124.485 140.351 126.282 141.306C127.039 141.706 127.738 141.508 128.378 140.714C128.455 140.615 128.558 140.54 128.675 140.496C128.792 140.453 128.919 140.442 129.042 140.466C130.906 140.802 132.746 139.634 133.826 141.922C133.922 142.13 133.866 142.282 133.658 142.378L133.298 142.546C133.231 142.579 133.176 142.633 133.141 142.699C133.107 142.766 133.094 142.842 133.106 142.916C133.117 142.99 133.153 143.059 133.206 143.111C133.259 143.164 133.328 143.199 133.402 143.21C135.738 143.54 138.103 143.788 140.498 143.954C140.762 143.974 141.011 144.087 141.202 144.274L141.538 144.618C141.773 144.847 141.89 144.796 141.89 144.466V143.242C141.891 143.112 141.936 142.985 142.019 142.884C142.101 142.782 142.215 142.712 142.342 142.684C142.469 142.657 142.601 142.675 142.715 142.734C142.829 142.793 142.92 142.891 142.97 143.01C143.423 144.039 144.194 144.396 145.282 144.082C145.533 144.012 145.759 144.052 145.962 144.202L148.394 145.97C148.602 146.119 148.831 146.218 149.082 146.266C150.586 146.554 151.058 148.754 152.666 148.626C153.205 148.583 153.242 148.426 152.778 148.154C150.783 146.986 149.165 145.418 147.922 143.45C147.878 143.385 147.861 143.305 147.875 143.228C147.889 143.151 147.933 143.082 147.998 143.038C148.063 142.993 148.143 142.976 148.22 142.99C148.297 143.005 148.366 143.049 148.41 143.114C148.549 143.295 148.682 143.543 148.81 143.858C150.767 146.37 153.173 147.855 156.026 148.314C160.346 149.01 167.858 148.17 170.954 144.514C172.463 144.055 173.325 143.055 173.538 141.514C173.57 141.274 173.706 141.13 173.946 141.082C174.287 141.023 174.378 141.18 174.218 141.554C174.157 141.697 174.127 141.851 174.132 142.007C174.137 142.162 174.176 142.315 174.246 142.454C174.316 142.592 174.416 142.714 174.538 142.81C174.661 142.906 174.803 142.974 174.954 143.01C176.65 143.415 178.367 143.78 180.106 144.106C180.405 144.159 180.522 144.332 180.458 144.626L180.378 145.034C177.81 155.226 172.666 159.426 164.642 165.802C156.41 172.338 145.69 176.154 135.482 178.13C131.658 178.874 127.434 178.746 123.402 178.858C117.682 179.018 112.93 178.066 107.594 176.682C107.536 176.666 107.475 176.67 107.42 176.692C107.365 176.714 107.318 176.754 107.287 176.806C107.255 176.858 107.241 176.919 107.246 176.98C107.251 177.041 107.275 177.099 107.314 177.146C107.735 177.636 108.277 177.975 108.938 178.162C109.146 178.22 109.357 178.252 109.57 178.258C110.477 178.268 111.253 178.666 111.898 179.45C97.3941 176.882 82.6662 169.674 77.5622 155.074L76.9941 149.322C77.2235 149.167 77.4261 149.079 77.6021 149.058C77.8635 149.036 78.0128 149.156 78.0501 149.418C78.2048 150.634 78.4928 151.831 78.9142 153.01C78.9423 153.09 78.9967 153.158 79.0686 153.203C79.1405 153.248 79.2255 153.268 79.3099 153.259C79.3943 153.249 79.473 153.212 79.5333 153.152C79.5937 153.092 79.632 153.014 79.6421 152.93C79.7328 152.162 79.7328 151.09 79.6421 149.714C79.4768 147.079 80.4261 144.53 82.4901 142.066C82.6555 141.874 82.7622 141.655 82.8102 141.41C84.7702 131.37 93.3781 127.962 102.818 128.458C103.095 128.474 103.346 128.559 103.57 128.714L105.178 129.81C105.45 129.991 105.541 130.236 105.45 130.546C105.306 131.02 104.933 131.332 104.33 131.482ZM130.482 155.922C127.922 156.434 126.754 157.13 123.866 155.57C123.818 155.543 123.762 155.533 123.707 155.542C123.653 155.551 123.602 155.577 123.565 155.618C123.527 155.658 123.504 155.71 123.499 155.765C123.494 155.82 123.508 155.875 123.538 155.922C124.93 158.098 128.746 157.186 130.578 156.178C131.101 155.884 131.069 155.799 130.482 155.922ZM118.314 164.538C117.973 164.068 117.509 163.628 116.922 163.218C116.453 162.892 116.373 162.97 116.682 163.45C120.29 169.026 124.85 173.154 132.026 170.986C135.109 170.058 137.247 167.882 138.442 164.458C138.97 163.748 139.237 163.364 139.242 163.306C139.402 162.234 138.975 161.892 137.962 162.282C130.57 165.13 125.674 164.306 118.314 164.538Z" fill="#FCC093"/>
<path d="M162.154 129.714C155.986 130.57 149.882 131.85 150.09 139.05C150.143 140.938 150.922 142.316 152.426 143.186C152.639 143.778 152.999 144.194 153.506 144.434C153.703 144.524 153.903 144.532 154.106 144.458L159.762 142.378C159.993 142.29 160.248 142.296 160.474 142.394L161.778 142.962C157.644 147.703 153.626 147.863 149.722 143.442C145.458 134.57 153.146 126.538 162.154 129.714Z" fill="#932318"/>
<path d="M74.7771 131.473C74.1851 131.649 73.6865 131.958 73.2812 132.401C73.1158 132.582 73.0252 132.798 73.0092 133.049L72.7532 137.761C72.7373 137.988 72.7672 138.219 72.8412 138.441C73.0545 139.076 72.8545 139.532 72.2412 139.809C68.3692 141.561 64.1531 143.449 64.2651 148.273C64.3771 153.377 70.4092 155.249 74.4412 155.401C74.7166 155.411 74.9885 155.333 75.2171 155.177L76.2492 154.481C76.4998 154.31 76.6705 154.369 76.7612 154.657L77.0332 155.521C67.7692 159.153 60.5478 157.02 55.3691 149.121L55.8171 148.593C55.9771 148.406 56.0305 148.193 55.9771 147.953C54.5318 141.532 56.8678 135.996 62.9852 131.345C66.5692 129.212 70.4998 129.254 74.7771 131.473Z" fill="#F89564"/>
<path d="M104.33 131.481C106.752 132.846 107.568 133.934 106.778 134.745C104.501 132.628 102.12 131.862 99.6342 132.449C97.8795 131.942 96.4342 131.873 95.2982 132.241C88.7915 134.342 85.9569 138.63 86.7942 145.105C86.8955 145.142 86.9995 145.177 87.1062 145.209C76.7062 139.193 95.2662 124.881 104.33 131.481Z" fill="#4C1813"/>
<path d="M162.153 129.714C167.599 131.357 171.142 134.778 172.785 139.978C172.87 140.234 172.87 140.493 172.785 140.754C172.46 141.773 171.817 142.621 170.857 143.298C170.404 137.426 167.673 133.549 162.665 131.666C160.913 131.01 153.545 132.586 157.921 135.466C158.134 135.605 158.356 135.623 158.585 135.522L159.697 135.034C160.092 135.045 160.289 135.189 160.289 135.466C160.31 140.687 157.689 143.261 152.425 143.186C150.921 142.317 150.142 140.938 150.089 139.05C149.881 131.85 155.985 130.57 162.153 129.714Z" fill="#2D0909"/>
<path d="M135.641 180.922L120.169 180.714L111.897 179.45C111.252 178.666 110.476 178.268 109.569 178.258C109.356 178.252 109.145 178.22 108.937 178.162C108.276 177.975 107.734 177.636 107.313 177.146C107.274 177.099 107.25 177.041 107.245 176.98C107.24 176.919 107.254 176.858 107.286 176.806C107.317 176.754 107.364 176.714 107.419 176.692C107.474 176.669 107.535 176.666 107.593 176.682C112.929 178.066 117.681 179.018 123.401 178.858C127.433 178.746 131.657 178.874 135.481 178.13C145.689 176.154 156.409 172.338 164.641 165.802C172.665 159.426 177.809 155.226 180.377 145.034C180.681 144.996 181.009 144.818 181.361 144.498L180.361 154.106C180.339 154.313 180.371 154.527 180.454 154.721C180.536 154.915 180.665 155.081 180.825 155.198C180.984 155.315 181.167 155.378 181.351 155.378C181.535 155.379 181.711 155.317 181.857 155.202C182.209 154.93 182.462 155.012 182.617 155.45C182.691 155.659 182.835 155.836 183.024 155.951C183.214 156.067 183.437 156.113 183.657 156.082C188.18 155.442 191.529 153.316 193.705 149.706C197.065 144.13 192.913 140.634 188.073 139.002C188.193 136.45 189.393 131.554 191.961 130.258C195.153 128.65 199.841 131.314 202.049 133.706C206.889 138.97 206.969 145.186 202.809 150.954C198.505 156.916 192.308 158.988 184.217 157.17C183.934 157.106 183.665 157.002 183.409 156.858L181.593 155.858C181.252 155.666 180.996 155.746 180.825 156.098C172.353 173.242 153.273 179.546 135.641 180.922Z" fill="#F89564"/>
<path d="M62.9861 131.346C56.8688 135.996 54.5328 141.532 55.9781 147.954C56.0314 148.194 55.9781 148.407 55.8181 148.594L55.3701 149.122C52.4981 141.498 55.5221 134.218 62.9861 131.346Z" fill="#F7CD97"/>
<path d="M170.858 143.297C170.703 143.671 170.735 144.076 170.954 144.513C167.858 148.169 160.346 149.009 156.026 148.313C153.172 147.855 150.767 146.369 148.81 143.857L149.722 143.441C153.626 147.863 157.644 147.703 161.778 142.961C163.378 140.793 164.41 135.969 161.69 134.001C161.578 133.921 161.443 133.88 161.305 133.884C161.168 133.888 161.036 133.938 160.93 134.025L159.698 135.033L158.586 135.521C158.356 135.623 158.135 135.604 157.922 135.465C153.546 132.585 160.914 131.009 162.666 131.665C167.674 133.548 170.404 137.425 170.858 143.297Z" fill="#F8F5F3"/>
<path d="M74.7779 131.474C74.7299 131.794 74.9059 131.906 75.3059 131.81L76.9939 149.322L77.5619 155.074C77.0179 155.068 76.8419 155.218 77.0339 155.522L76.7619 154.658C76.6712 154.37 76.5006 154.311 76.2499 154.482L75.2179 155.178C74.9893 155.333 74.7173 155.412 74.4419 155.402C70.4099 155.25 64.3779 153.378 64.2659 148.274C64.1539 143.45 68.3699 141.562 72.2419 139.81C72.8552 139.532 73.0552 139.076 72.8419 138.442C72.7679 138.22 72.738 137.989 72.7539 137.762L73.0099 133.05C73.0259 132.799 73.1165 132.583 73.2819 132.402C73.6872 131.959 74.1859 131.65 74.7779 131.474Z" fill="#EA8359"/>
<path d="M99.6336 132.449C99.9216 135.201 99.1749 136.772 97.3936 137.161C96.7269 136.761 96.5056 135.95 96.7296 134.729C96.7776 134.462 96.6656 134.329 96.3936 134.329C95.4549 134.334 94.8523 134.758 94.5856 135.601C93.0976 140.345 95.6416 144.305 99.6736 146.449C101.071 147.196 102.492 147.118 103.938 146.217C104.466 146.196 104.743 146.649 104.77 147.577C100.636 148.932 96.4229 149.07 92.1296 147.993L86.7936 145.105C85.9563 138.63 88.7909 134.342 95.2976 132.241C96.4336 131.873 97.8789 131.942 99.6336 132.449Z" fill="#F8F5F3"/>
<path d="M106.778 134.746C107.828 136.794 108.175 138.836 107.818 140.874C105.108 144.1 102.38 144.82 99.6337 143.034C99.4044 142.884 99.2231 142.69 99.0898 142.45C98.8551 142.039 98.5244 141.724 98.0978 141.506C97.8684 141.388 97.6951 141.215 97.5777 140.986C96.9377 139.7 96.8764 138.426 97.3938 137.162C99.1751 136.772 99.9217 135.202 99.6337 132.45C102.119 131.863 104.5 132.628 106.778 134.746Z" fill="#2D0909"/>
<path d="M161.778 142.961L160.474 142.393C160.248 142.296 159.993 142.29 159.762 142.377L154.106 144.457C153.903 144.532 153.703 144.524 153.506 144.433C152.999 144.193 152.639 143.777 152.426 143.185C157.69 143.26 160.311 140.687 160.29 135.465C160.29 135.188 160.092 135.044 159.698 135.033L160.93 134.025C161.036 133.938 161.168 133.888 161.306 133.884C161.443 133.88 161.578 133.921 161.69 134.001C164.41 135.969 163.378 140.793 161.778 142.961Z" fill="#6D261A"/>
<path d="M97.3937 137.161C96.8764 138.425 96.9377 139.7 97.5777 140.985C97.695 141.214 97.8684 141.388 98.0977 141.505C98.5244 141.724 98.855 142.038 99.0897 142.449C99.223 142.689 99.4043 142.884 99.6337 143.033C102.38 144.82 105.108 144.1 107.818 140.873C107.844 143.241 106.551 145.022 103.938 146.217C102.492 147.118 101.071 147.196 99.6737 146.449C95.6417 144.305 93.0977 140.345 94.5857 135.601C94.8523 134.758 95.455 134.334 96.3937 134.329C96.6657 134.329 96.7777 134.462 96.7297 134.729C96.5057 135.95 96.727 136.761 97.3937 137.161Z" fill="#6D261A"/>
<path d="M182.649 137.777C183.572 141.127 184.927 143.892 186.713 146.073C186.86 146.252 187.054 146.387 187.273 146.465C188.74 146.983 189.26 146.455 188.833 144.881C188.327 142.988 188.073 141.028 188.073 139.001C192.913 140.633 197.065 144.129 193.705 149.705C191.529 153.316 188.18 155.441 183.657 156.081C183.438 156.112 183.214 156.066 183.024 155.951C182.835 155.836 182.691 155.659 182.617 155.449C182.463 155.012 182.209 154.929 181.857 155.201C181.711 155.317 181.535 155.379 181.351 155.378C181.167 155.378 180.984 155.315 180.825 155.198C180.665 155.081 180.536 154.915 180.454 154.721C180.371 154.526 180.339 154.312 180.361 154.105L181.361 144.497C181.18 141.884 181.609 139.644 182.649 137.777Z" fill="#EA8359"/>
<path d="M87.106 145.209C86.9993 145.177 86.8953 145.143 86.7939 145.105L92.1299 147.993C90.2953 148.201 88.6206 147.273 87.106 145.209Z" fill="#B26A35"/>
<path d="M41.9218 162.865C44.9885 168.86 49.1032 174.268 54.2658 179.089C67.0738 191.033 80.4338 204.041 89.4818 220.057C90.3938 221.673 90.4018 223.513 90.7938 225.297C90.9538 225.932 90.9565 226.583 90.8019 227.249C90.8445 227.708 90.6712 228.26 90.2818 228.905C73.4818 222.388 59.2018 212.188 47.4418 198.305C38.0872 187.265 31.3565 174.785 27.2499 160.865L25.2979 152.865C25.6819 152.988 26.0098 153.233 26.2818 153.601C26.4525 153.836 26.6178 153.833 26.7778 153.593L27.8258 152.033C27.9698 151.815 28.1698 151.705 28.4258 151.705C31.4018 151.681 31.7698 146.193 35.4178 149.393C35.7165 149.655 36.0258 149.783 36.3458 149.777C36.4738 149.777 36.5485 149.841 36.5698 149.969C37.3218 154.465 38.7512 158.729 40.8579 162.761C40.9912 163.012 41.1965 163.121 41.4738 163.089C41.6552 163.063 41.8045 162.988 41.9218 162.865Z" fill="#5DA491"/>
<path d="M123.866 155.569C126.754 157.129 127.922 156.433 130.482 155.921C131.069 155.798 131.101 155.884 130.578 156.177C128.746 157.185 124.93 158.097 123.538 155.921C123.508 155.875 123.494 155.82 123.499 155.764C123.504 155.709 123.527 155.657 123.565 155.617C123.602 155.577 123.652 155.55 123.707 155.541C123.762 155.532 123.818 155.542 123.866 155.569Z" fill="#CF7253"/>
<path d="M138.441 164.458C134.105 165.866 121.985 168.122 118.313 164.538C125.673 164.306 130.569 165.13 137.961 162.282C138.975 161.892 139.401 162.234 139.241 163.306C139.236 163.364 138.969 163.748 138.441 164.458Z" fill="#EA8359"/>
<path d="M118.313 164.538C121.985 168.122 134.105 165.866 138.441 164.458C137.247 167.882 135.108 170.058 132.025 170.986C124.849 173.154 120.289 169.026 116.681 163.45C116.372 162.97 116.452 162.892 116.921 163.218C117.508 163.628 117.972 164.068 118.313 164.538ZM126.113 169.97C126.007 170.204 126.073 170.375 126.313 170.482C127.953 171.234 133.161 170.386 134.049 168.77C134.225 168.45 134.132 168.298 133.769 168.314C132.081 168.386 126.881 168.282 126.113 169.97Z" fill="#510607"/>
<path d="M126.114 169.97C126.882 168.282 132.082 168.386 133.77 168.314C134.132 168.298 134.226 168.45 134.05 168.77C133.162 170.386 127.954 171.234 126.314 170.482C126.074 170.375 126.007 170.204 126.114 169.97Z" fill="#BE3624"/>
<path d="M220.69 182.93C209.021 203.863 192.005 218.602 169.642 227.146C167.378 217.802 164.338 211.37 162.346 204.674C162.255 204.359 162.367 204.167 162.682 204.098L163.298 203.962C183.402 206.362 201.666 199.634 211.77 181.57C212.42 181.538 212.893 181.266 213.186 180.754C213.287 180.578 213.418 180.434 213.578 180.322L216.018 178.578C216.252 178.412 216.45 178.45 216.61 178.69C217.213 179.639 217.498 180.711 217.466 181.906C217.465 181.968 217.479 182.029 217.507 182.084C217.535 182.14 217.575 182.187 217.626 182.224C217.676 182.26 217.734 182.283 217.796 182.292C217.857 182.301 217.919 182.294 217.978 182.274L218.546 182.058C218.781 181.972 218.978 182.028 219.138 182.226C219.533 182.716 220.05 182.951 220.69 182.93Z" fill="#5DA491"/>
<path d="M135.642 180.922C135.007 182.538 135.178 183.935 136.154 185.114C133.554 185.754 120.41 187.258 119.418 184.25C119.941 183.183 120.191 182.005 120.17 180.714L135.642 180.922Z" fill="#CF7253"/>
<path d="M119.417 184.249C120.409 187.257 133.553 185.753 136.153 185.113C137.481 185.249 140.569 185.097 139.649 186.625L138.377 190.417L137.617 187.649C137.584 187.524 137.521 187.409 137.434 187.312C137.348 187.216 137.24 187.141 137.119 187.095C136.998 187.048 136.868 187.03 136.739 187.043C136.61 187.056 136.486 187.099 136.377 187.169C133.193 189.206 130.297 191.582 127.689 194.297C127.513 194.478 127.335 194.481 127.153 194.305L119.425 186.785C119.207 186.577 119.017 186.345 118.857 186.089L118.113 184.889C118.625 184.873 119.06 184.66 119.417 184.249Z" fill="#E27D47"/>
<path d="M118.114 184.89L118.858 186.09C119.018 186.346 119.207 186.578 119.426 186.786L127.154 194.306C127.335 194.482 127.514 194.479 127.69 194.298C130.298 191.583 133.194 189.207 136.378 187.17C136.487 187.1 136.611 187.057 136.74 187.044C136.868 187.031 136.999 187.048 137.119 187.095C137.24 187.142 137.348 187.217 137.435 187.313C137.521 187.409 137.584 187.525 137.618 187.65L138.378 190.418C136.53 195.402 131.762 202.042 126.458 203.346C125.279 203.634 124.37 203.538 123.73 203.058C117.916 198.695 115.034 192.831 115.082 185.466L118.114 184.89Z" fill="#EF8D50"/>
<path d="M115.082 185.466C115.034 192.831 117.917 198.695 123.73 203.058C124.37 203.538 125.279 203.634 126.458 203.346C131.762 202.042 136.53 195.402 138.378 190.418L139.65 186.626C140.007 186.988 140.365 186.9 140.722 186.362C140.882 186.122 141.106 186.026 141.394 186.074L143.794 186.49C143.634 192.202 142.09 200.962 137.722 204.57C137.519 204.735 137.303 204.751 137.074 204.618C136.327 204.175 135.922 203.5 135.858 202.594C135.855 202.515 135.824 202.44 135.771 202.381C135.717 202.323 135.645 202.285 135.567 202.274C135.489 202.264 135.409 202.281 135.342 202.324C135.276 202.366 135.226 202.43 135.202 202.506L132.898 208.714C132.845 208.856 132.756 208.983 132.641 209.083C132.526 209.183 132.388 209.252 132.239 209.285C132.09 209.317 131.936 209.312 131.79 209.27C131.643 209.227 131.51 209.149 131.402 209.042C129.434 207.058 126.826 205.154 124.458 208.034C121.498 211.65 118.458 204.618 118.018 202.514C117.996 202.411 117.946 202.317 117.875 202.24C117.803 202.163 117.712 202.107 117.611 202.078C117.511 202.048 117.404 202.047 117.302 202.073C117.201 202.099 117.108 202.152 117.034 202.226L115.426 203.834C115.312 203.946 115.176 204.032 115.026 204.087C114.876 204.141 114.716 204.162 114.558 204.149C114.399 204.135 114.246 204.087 114.108 204.007C113.971 203.928 113.853 203.82 113.762 203.69C110.274 198.714 110.114 193.858 110.442 186.61L115.082 185.466Z" fill="#694B25"/>
<path d="M110.441 186.609C110.113 193.857 110.273 198.713 113.761 203.689C113.852 203.819 113.97 203.928 114.108 204.007C114.245 204.086 114.398 204.134 114.557 204.148C114.715 204.162 114.875 204.141 115.025 204.086C115.175 204.032 115.312 203.946 115.425 203.833L117.033 202.225C117.107 202.151 117.2 202.098 117.302 202.072C117.403 202.046 117.51 202.048 117.611 202.077C117.711 202.107 117.802 202.163 117.874 202.239C117.945 202.316 117.995 202.411 118.017 202.513C118.457 204.617 121.497 211.649 124.457 208.033C126.825 205.153 129.433 207.057 131.401 209.041C131.509 209.148 131.643 209.227 131.789 209.269C131.935 209.312 132.09 209.317 132.238 209.284C132.387 209.252 132.525 209.182 132.641 209.083C132.756 208.983 132.844 208.856 132.897 208.713L135.201 202.505C135.225 202.43 135.275 202.365 135.342 202.323C135.408 202.281 135.488 202.263 135.566 202.274C135.645 202.284 135.717 202.322 135.77 202.381C135.823 202.439 135.854 202.514 135.857 202.593C135.921 203.5 136.327 204.175 137.073 204.617C137.303 204.751 137.519 204.735 137.721 204.569C142.089 200.961 143.633 192.201 143.793 186.489C152.012 189.7 157.873 195.335 161.377 203.393C161.495 203.665 161.7 203.815 161.993 203.841L163.297 203.961L162.681 204.097C162.367 204.167 162.255 204.359 162.345 204.673C164.337 211.369 167.377 217.801 169.641 227.145C166.159 228.777 162.649 229.996 159.113 230.801C158.836 230.86 158.687 230.751 158.665 230.473C158.425 227.265 157.409 218.497 153.393 217.369L155.057 205.041C155.069 204.942 155.047 204.842 154.994 204.758C154.942 204.673 154.862 204.609 154.768 204.575C154.674 204.542 154.572 204.541 154.478 204.574C154.383 204.606 154.303 204.669 154.249 204.753C154.009 205.148 153.657 205.199 153.193 204.905C152.985 204.772 152.828 204.593 152.721 204.369C151.095 200.951 149.991 197.108 149.409 192.841C149.383 192.644 149.263 192.54 149.049 192.529C148.879 192.524 148.801 192.607 148.817 192.777L151.321 220.865L151.505 232.761C136.263 236.148 120.991 236.199 105.689 232.913C105.572 232.889 105.467 232.825 105.393 232.731C105.318 232.637 105.279 232.521 105.281 232.401L105.425 223.321C105.564 217.679 106.172 212.127 107.249 206.665C107.372 206.047 107.343 206.039 107.161 206.641L101.913 223.953L101.009 231.377C101.003 231.429 100.986 231.479 100.959 231.523C100.931 231.568 100.895 231.606 100.851 231.635C100.808 231.663 100.759 231.683 100.707 231.691C100.656 231.699 100.603 231.696 100.553 231.681L90.2812 228.905C90.6706 228.26 90.8439 227.708 90.8013 227.249L91.3373 228.097C91.5293 228.396 91.6653 228.372 91.7453 228.025C92.0866 226.633 92.3639 224.535 92.5772 221.729C92.9052 217.425 95.0572 208.401 96.0252 204.881C97.6572 198.972 100.54 193.697 104.673 189.057L110.441 186.609Z" fill="#A69141"/>
<path d="M104.674 189.058C100.541 193.698 97.6579 198.972 96.0259 204.882C95.0579 208.402 92.9059 217.426 92.5779 221.73C92.3646 224.535 92.0873 226.634 91.7459 228.026C91.6659 228.372 91.5299 228.396 91.3379 228.098L90.802 227.25C90.9566 226.583 90.9539 225.932 90.7939 225.298C91.3539 215.29 94.3539 193.802 104.674 189.058Z" fill="#FCC093"/>
<path d="M153.394 217.37C152.748 217.476 152.271 217.858 151.962 218.514C151.946 219.287 151.732 220.071 151.321 220.866L148.817 192.778C148.801 192.607 148.879 192.524 149.05 192.53C149.263 192.54 149.383 192.644 149.41 192.842C149.991 197.108 151.095 200.951 152.721 204.37C152.828 204.594 152.986 204.772 153.194 204.906C153.658 205.199 154.01 205.148 154.25 204.754C154.303 204.67 154.384 204.606 154.478 204.574C154.572 204.542 154.674 204.542 154.768 204.576C154.862 204.609 154.942 204.673 154.994 204.758C155.047 204.843 155.069 204.943 155.058 205.042L153.394 217.37Z" fill="#7F8060"/>
<path d="M105.426 223.321C104.738 222.943 104.151 222.791 103.666 222.865C103.389 222.908 103.194 223.06 103.082 223.321C102.799 224.004 102.41 224.215 101.914 223.953L107.162 206.641C107.343 206.039 107.373 206.047 107.25 206.665C106.173 212.127 105.565 217.679 105.426 223.321Z" fill="#220509"/>
<path d="M151.961 218.514C152.132 220.258 153.183 221.204 155.113 221.354C155.458 221.379 155.785 221.518 156.041 221.75C156.298 221.982 156.47 222.293 156.529 222.634L157.945 230.746C158.004 231.06 157.876 231.255 157.561 231.33L151.505 232.762L151.321 220.866C151.732 220.071 151.945 219.287 151.961 218.514Z" fill="#507B65"/>
</svg>
