<svg width="256" height="256" viewBox="0 0 256 256" fill="none" xmlns="http://www.w3.org/2000/svg">
<path d="M54.6448 72.2217L55.6848 72.6217C55.7461 72.6467 55.7981 72.6912 55.8327 72.7481C55.8673 72.8051 55.8825 72.8714 55.8762 72.9369C55.8698 73.0024 55.8421 73.0634 55.7974 73.1105C55.7527 73.1576 55.6935 73.1883 55.6288 73.1977C52.7968 73.6377 49.0128 73.9577 46.7408 75.0697C39.2208 78.7257 44.5808 88.3497 49.1328 92.0617C49.165 92.0889 49.1889 92.125 49.2015 92.1654C49.2142 92.2058 49.215 92.2487 49.2039 92.2888C49.1928 92.3289 49.1703 92.3644 49.1392 92.3908C49.108 92.4173 49.0696 92.4336 49.0288 92.4377L38.2607 93.8137C38.1114 93.8318 37.9722 93.899 37.8651 94.0046C37.758 94.1103 37.6889 94.2485 37.6688 94.3977C37.5514 95.3203 37.5834 96.355 37.7647 97.5017C39.4821 108.547 42.6794 118.883 47.3567 128.51C47.7354 129.299 48.3648 130.208 49.2448 131.238" stroke="#C19FA0" stroke-width="2"/>
<path d="M49.2449 131.238C46.3062 131.654 44.2235 132.934 42.9969 135.078C34.4049 150.054 46.3729 168.718 64.1409 164.206C64.4075 164.137 64.6049 164.222 64.7329 164.462C75.8929 184.942 93.2128 194.166 115.661 198.966C115.981 199.038 116.053 199.206 116.093 199.51" stroke="#FFE3D3" stroke-width="2"/>
<path d="M116.094 199.51L111.646 200.03" stroke="#FDD4C5" stroke-width="2"/>
<path d="M111.645 200.029C96.5013 201.445 80.9092 208.621 76.6292 224.261C76.5635 224.501 76.5924 224.757 76.71 224.976C76.8277 225.195 77.025 225.36 77.2612 225.437L82.5413 227.173" stroke="#B4E1C6" stroke-width="2"/>
<path d="M161.893 202.79L151.637 200.398" stroke="#ACD4B8" stroke-width="2"/>
<path d="M151.637 200.397L143.525 199.285" stroke="#FDD4C5" stroke-width="2"/>
<path d="M143.525 199.285L149.045 197.621" stroke="#FFE3D3" stroke-width="2"/>
<path d="M149.045 197.622C167.709 192.982 184.469 182.366 193.357 164.966C193.47 164.742 193.656 164.564 193.885 164.462C194.114 164.36 194.371 164.34 194.613 164.406C213.349 169.446 227.037 142.958 211.085 131.39" stroke="#FDD4C5" stroke-width="2"/>
<path d="M211.085 131.39C211.96 129.027 212.659 125.851 213.181 121.862C215.181 106.55 213.661 92.0274 208.621 78.2941C208.253 77.2807 207.501 76.0727 206.365 74.6701C206.136 74.3874 205.882 74.3607 205.605 74.5901L201.173 78.238C201.114 78.2887 201.039 78.3186 200.961 78.3231C200.883 78.3277 200.805 78.3066 200.74 78.2633C200.675 78.2199 200.626 78.1565 200.6 78.0826C200.574 78.0088 200.573 77.9286 200.597 77.8541C202.693 71.1394 202.827 64.2567 200.997 57.2061" stroke="#B29095" stroke-width="2"/>
<path d="M200.997 57.2056C199.909 52.4696 190.109 34.0216 187.477 50.6216C187.466 50.6798 187.438 50.7336 187.395 50.7752C187.353 50.8168 187.298 50.8441 187.241 50.853C187.183 50.8619 187.124 50.852 187.073 50.8248C187.022 50.7976 186.981 50.7544 186.957 50.7016C180.093 36.6856 168.621 25.5336 153.093 21.7656" stroke="#BB999C" stroke-width="2"/>
<path d="M153.093 21.7661C145.792 19.7394 138.357 19.5314 130.789 21.1421" stroke="#C19FA0" stroke-width="2"/>
<path d="M130.789 21.1425C123.664 22.8758 117.501 26.2305 112.301 31.2065C112.249 31.2557 112.182 31.2858 112.111 31.2916C112.04 31.2974 111.969 31.2785 111.91 31.2383C111.851 31.198 111.807 31.1387 111.787 31.0703C111.766 31.0019 111.77 30.9286 111.797 30.8625C113.76 25.7158 114.783 20.3798 114.869 14.8545C114.87 14.7713 114.848 14.6894 114.805 14.618C114.762 14.5467 114.701 14.4886 114.627 14.4504C114.553 14.4122 114.47 14.3953 114.387 14.4017C114.304 14.4081 114.224 14.4374 114.157 14.4865C109.65 17.8145 104.837 20.6731 99.7168 23.0625C89.3328 27.9105 79.7888 31.4625 75.0048 42.8865C74.9769 42.9512 74.9289 43.0052 74.8678 43.0405C74.8068 43.0757 74.7361 43.0904 74.6661 43.0824C74.5961 43.0743 74.5305 43.0439 74.4791 42.9956C74.4277 42.9474 74.3933 42.8838 74.3808 42.8145C73.8635 39.5078 73.3462 36.1798 72.8288 32.8305C72.5648 31.1185 71.6528 29.7425 69.7808 30.9985C61.3088 36.7025 57.3248 47.0065 61.5728 56.8305C61.7435 57.2305 61.6262 57.3505 61.2208 57.1905C56.2288 55.1985 43.9968 50.1905 39.8848 56.1585C34.0848 64.5825 49.6128 70.4865 54.6448 72.2225" stroke="#CBA7A5" stroke-width="2"/>
<path d="M130.789 21.1416C132.261 21.6376 132.946 22.4243 132.845 23.5016C132.818 23.7896 132.896 24.0483 133.077 24.2776L134.549 26.1736C134.688 26.3603 134.712 26.5603 134.621 26.7736C134.005 28.1816 134.397 29.4456 133.885 30.7896C133.48 31.8509 133.05 32.9096 132.597 33.9656C132.508 34.1847 132.489 34.4274 132.541 34.6616C132.834 35.9523 132.552 37.1709 131.693 38.3176C131.538 38.5203 131.522 38.7309 131.645 38.9496C131.826 39.2856 131.847 39.6056 131.709 39.9096C131.506 40.3469 131.413 40.3283 131.429 39.8536C131.429 39.7523 131.437 39.6216 131.453 39.4616C131.464 39.3828 131.447 39.3027 131.405 39.2353C131.362 39.168 131.297 39.1178 131.222 39.0938C131.146 39.0698 131.064 39.0735 130.99 39.1042C130.917 39.135 130.857 39.1907 130.821 39.2616L126.717 46.6456C126.568 46.9176 126.36 47.1336 126.093 47.2936C125.453 47.6776 125.285 48.2003 125.589 48.8616C125.674 49.0323 125.64 49.1736 125.485 49.2856C117.293 55.4349 108.592 60.7069 99.3808 65.1016C89.4448 69.8456 78.3008 72.7816 69.3648 64.8296C69.2386 64.7186 69.0779 64.6547 68.9099 64.6487C68.742 64.6427 68.5771 64.695 68.4433 64.7968C68.3095 64.8985 68.2151 65.0434 68.176 65.2069C68.1369 65.3704 68.1556 65.5423 68.2288 65.6936C68.5568 66.3656 64.8209 68.1656 64.1969 68.6376C64.0889 68.7212 63.9593 68.7724 63.8233 68.7851C63.6873 68.7979 63.5505 68.7717 63.4288 68.7096C58.9968 66.4376 58.6769 73.5016 55.0369 71.5496C54.7222 71.3789 54.5808 71.4723 54.6128 71.8296L54.6449 72.2216" stroke="#8E4847" stroke-width="2"/>
<path d="M153.093 21.7656C153.664 23.131 154.946 23.8163 156.941 23.8216C157.229 23.8216 157.466 23.931 157.653 24.1496C158.549 25.1896 159.421 25.8536 159.765 27.2776C162.069 36.7976 163.669 43.4936 160.773 53.0456C156.597 66.8536 145.261 70.0776 132.549 72.3816C130.661 72.7256 129.141 73.6616 127.973 74.9976C122.557 81.1896 115.573 87.7976 106.549 85.5016C104.333 84.9416 102.917 84.4216 100.605 85.2136C98.0503 86.0883 95.4743 86.8803 92.877 87.5896C92.621 87.659 92.4104 87.7976 92.245 88.0056C91.397 89.0723 90.309 89.771 88.981 90.1016C88.6823 90.1763 88.453 90.3416 88.293 90.5976L86.117 94.0456C86.021 94.2003 86.013 94.3603 86.093 94.5256C86.205 94.7496 86.613 95.9576 85.917 95.8776" stroke="#7E3A3E" stroke-width="2"/>
<path d="M85.9169 95.8779L84.0049 96.1819" stroke="#C1887A" stroke-width="2"/>
<path d="M84.0048 96.1816C77.1835 97.6643 70.2662 98.2856 63.2529 98.0456C62.9649 98.035 62.7409 98.1523 62.5809 98.3976C62.2342 98.9256 62.0288 99.6456 61.9648 100.558" stroke="#C07567" stroke-width="2"/>
<path d="M61.9655 100.559L58.1255 105.799C58.0823 105.858 58.0558 105.927 58.0488 106C58.0417 106.073 58.0544 106.146 58.0855 106.213C58.1166 106.279 58.1649 106.336 58.2255 106.377C58.286 106.418 58.3565 106.442 58.4295 106.447L64.4135 106.799C64.4767 106.801 64.5383 106.819 64.593 106.851C64.6477 106.883 64.6939 106.927 64.7277 106.981C64.7615 107.034 64.7818 107.095 64.787 107.158C64.7922 107.221 64.7821 107.284 64.7575 107.343C63.7335 109.764 62.2749 111.871 60.3815 113.663C60.3428 113.699 60.3139 113.744 60.2977 113.795C60.2815 113.846 60.2784 113.899 60.2889 113.952C60.2993 114.004 60.3228 114.052 60.3572 114.093C60.3916 114.133 60.4358 114.164 60.4855 114.183L63.9415 115.495C64.2562 115.612 64.2749 115.767 63.9975 115.959C59.4855 119.119 59.3895 140.071 58.4455 140.071" stroke="#C1887A" stroke-width="2"/>
<path d="M58.4451 140.07C56.1331 137.23 55.8371 134.174 53.4531 131.798C53.2672 131.612 53.0195 131.501 52.7571 131.486L49.2451 131.238" stroke="#C28475" stroke-width="2"/>
<path d="M180.669 125.246C178.917 116.462 167.261 110.278 159.229 109.246C148.053 107.798 147.821 119.63 156.045 119.286" stroke="#E6A17B" stroke-width="2"/>
<path d="M173.773 133.862C170.291 131.569 167.224 130.646 164.573 131.094" stroke="#FFE3D3" stroke-width="2"/>
<path d="M164.573 131.094C154.029 131.022 151.701 143.774 154.869 151.47C159.485 162.662 172.341 158.59 173.493 147.926" stroke="#8A6D60" stroke-width="2"/>
<path d="M173.493 147.926C174.544 147.67 175.379 147.238 175.997 146.63" stroke="#FFE3D3" stroke-width="2"/>
<path d="M176.454 158.63C170.502 157.846 165.419 159.302 161.205 162.998C158.701 165.19 157.75 168.07 159.854 170.846C163.91 176.19 170.174 175.03 176.078 174.334" stroke="#FEAB90" stroke-width="2"/>
<path d="M143.525 199.285C134.205 199.733 127.957 200.333 116.093 199.509" stroke="#FDB899" stroke-width="2"/>
<path d="M58.4453 140.07C58.6213 140.342 58.7067 140.628 58.7013 140.926C58.7013 141.198 58.8187 141.409 59.0533 141.558C59.3307 141.734 59.4133 141.94 59.3013 142.174C59.1787 142.425 59.2213 142.646 59.4293 142.838C62.1653 145.406 63.4453 148.918 65.1253 151.662C65.9573 153.028 66.6933 154.449 67.3333 155.926C67.9653 157.39 69.2293 158.614 70.0613 160.062C70.1257 160.173 70.2162 160.267 70.325 160.335C70.4337 160.404 70.5573 160.444 70.6853 160.454L74.7733 160.758" stroke="#FFCCAD" stroke-width="2"/>
<path d="M74.7728 160.758C70.0288 163.646 72.2768 171.326 75.8688 173.83C79.1755 176.139 83.2235 177.115 88.0128 176.758" stroke="#FDB899" stroke-width="2"/>
<path d="M88.0127 176.758C88.738 178.656 90.1087 180.094 92.1247 181.07C92.354 181.187 92.3887 181.344 92.2287 181.542C90.1807 184.078 95.0607 186.102 96.5247 187.782C96.658 187.936 96.722 188.115 96.7167 188.318L96.6927 189.182C96.6874 189.603 96.8901 189.779 97.3007 189.71L100.477 189.174C100.749 189.131 100.994 189.19 101.213 189.35C103.186 190.806 105.17 190.902 107.165 189.638C107.373 189.504 107.461 189.315 107.429 189.07C106.938 185.454 108.493 182.035 112.093 178.814" stroke="#FFCCAD" stroke-width="2"/>
<path d="M112.093 178.814C112.658 181.47 114.551 183.95 117.773 186.254" stroke="#96766B" stroke-width="2"/>
<path d="M117.773 186.254C122.872 189.166 128.96 189.963 136.037 188.646C138.651 188.16 140.624 187.198 141.957 185.758" stroke="#FEAB90" stroke-width="2"/>
<path d="M141.957 185.757C145.189 184.085 150.149 179.389 149.397 175.277C149.29 174.707 148.959 174.493 148.405 174.637C140.074 176.771 132.013 177.499 124.221 176.821" stroke="#96766B" stroke-width="2"/>
<path d="M124.221 176.822L124.517 176.462C124.55 176.42 124.57 176.369 124.573 176.316C124.577 176.264 124.565 176.211 124.538 176.165C124.511 176.119 124.471 176.083 124.423 176.06C124.375 176.037 124.322 176.029 124.269 176.038C123.224 176.224 122.493 175.878 122.077 174.998C121.897 174.619 121.825 174.199 121.869 173.783C121.913 173.366 122.071 172.97 122.325 172.638L124.557 169.75C124.76 169.488 125.027 169.336 125.357 169.294C125.629 169.251 125.872 169.134 126.085 168.942C126.256 168.787 126.336 168.592 126.325 168.358C126.293 167.296 126.451 166.462 126.798 165.854" stroke="#FFCCAD" stroke-width="2"/>
<path d="M126.797 165.854C129.013 172.054 141.189 163.326 134.221 154.934C133.533 154.102 131.773 152.67 131.005 153.982" stroke="#FDB899" stroke-width="2"/>
<path d="M131.005 153.982L125.669 152.11C125.603 152.086 125.544 152.048 125.494 151.999C125.445 151.95 125.407 151.891 125.382 151.826C125.358 151.762 125.348 151.693 125.353 151.624C125.359 151.556 125.379 151.489 125.413 151.43C126.037 150.331 126.186 149.176 125.861 147.966C125.792 147.699 125.805 147.438 125.901 147.182C126.365 145.896 126.477 144.595 126.237 143.278C125.933 141.63 126.549 140.11 126.485 138.47C126.301 133.118 126.669 127.134 125.485 121.926C124.757 118.702 124.709 114.75 124.669 111.51C124.669 111.381 124.694 111.253 124.744 111.133C124.793 111.014 124.866 110.905 124.957 110.814L125.277 110.51" stroke="#FFCCAD" stroke-width="2"/>
<path d="M131.005 153.982C134.389 158.694 131.293 163.398 126.797 165.854" stroke="#FDBD9F" stroke-width="2"/>
<path d="M124.221 176.822L112.509 174.686C112.378 174.663 112.243 174.668 112.114 174.703C111.984 174.737 111.864 174.799 111.762 174.884C111.659 174.969 111.576 175.076 111.518 175.196C111.461 175.317 111.431 175.448 111.429 175.582C111.418 176.643 111.64 177.721 112.093 178.814" stroke="#967A71" stroke-width="2"/>
<path d="M88.0134 176.757C95.1174 175.989 101.741 170.301 94.0054 163.837C88.5868 159.315 82.1761 158.288 74.7734 160.757" stroke="#FDBD9F" stroke-width="2"/>
<path d="M61.9648 100.558C68.3488 100.819 74.6849 100.518 80.9729 99.6536C81.2395 99.6216 81.5008 99.643 81.7568 99.7176C83.3968 100.198 83.7248 97.2616 84.0048 96.1816" stroke="#FDBD9F" stroke-width="2"/>
<path d="M200.998 57.2061C199.792 59.4567 199.718 62.2407 200.774 65.5581C200.819 65.6959 200.834 65.8417 200.817 65.9854C200.801 66.129 200.753 66.2671 200.678 66.3901C200.187 67.2114 199.974 68.0994 200.038 69.0541C200.05 69.2074 200.021 69.3612 199.955 69.5002C199.889 69.6392 199.788 69.7584 199.662 69.8461C197.998 70.9821 196.558 71.4381 194.374 71.2061C187.134 70.4141 185.638 74.9821 180.462 78.5581C180.243 78.7127 180.102 78.9207 180.038 79.1821C179.552 81.1394 179.603 82.2381 180.19 82.4781" stroke="#6F2B33" stroke-width="2"/>
<path d="M180.189 82.4777L172.013 96.1497C171.848 96.4323 171.661 96.4483 171.453 96.1977C168.309 92.4137 167.069 87.1257 166.333 82.3977C166.325 82.3489 166.301 82.3036 166.265 82.2692C166.229 82.2347 166.183 82.213 166.134 82.2074C166.085 82.2019 166.036 82.2129 165.996 82.2387C165.955 82.2645 165.924 82.3035 165.909 82.3497C162.73 90.7763 158.093 98.299 151.997 104.918" stroke="#B96E63" stroke-width="2"/>
<path d="M151.997 104.918C151.56 105.649 150.984 106.03 150.269 106.062C150.13 106.069 149.991 106.037 149.87 105.971C149.748 105.904 149.648 105.806 149.581 105.686C147.549 102.027 146.579 98.0886 146.669 93.87C146.673 93.7735 146.646 93.6785 146.592 93.5985C146.538 93.5185 146.46 93.4577 146.369 93.4248C146.278 93.3919 146.18 93.3886 146.087 93.4154C145.994 93.4422 145.913 93.4977 145.853 93.574C142.117 98.27 131.397 109.862 125.277 110.51" stroke="#BB7D71" stroke-width="2"/>
<path d="M125.277 110.511L127.901 98.3105" stroke="#BB8276" stroke-width="2"/>
<path d="M127.901 98.31L129.269 89.286C129.284 89.1774 129.262 89.0663 129.205 88.9716C129.149 88.8768 129.063 88.8041 128.96 88.7656C128.858 88.7272 128.746 88.7253 128.644 88.7603C128.541 88.7953 128.454 88.8651 128.397 88.958C123.496 96.6433 116.931 102.401 108.701 106.23" stroke="#B96E63" stroke-width="2"/>
<path d="M108.701 106.23L105.509 107.214C105.389 107.251 105.262 107.255 105.141 107.226C105.019 107.196 104.908 107.134 104.819 107.046C104.73 106.958 104.667 106.847 104.636 106.726C104.606 106.605 104.609 106.478 104.645 106.358L107.549 96.5819C107.569 96.52 107.569 96.4538 107.549 96.3921C107.53 96.3303 107.491 96.2759 107.439 96.2361C107.387 96.1962 107.324 96.1727 107.258 96.1688C107.192 96.1648 107.126 96.1806 107.069 96.2139C100.957 99.9259 89.2929 106.062 82.1409 105.894C81.1595 105.873 80.8982 105.427 81.3568 104.558L85.9168 95.8779" stroke="#BB8276" stroke-width="2"/>
<path d="M141.957 185.758C136.717 182.086 121.909 180.238 117.773 186.254" stroke="#955954" stroke-width="2"/>
<path d="M149.045 197.622C150.352 196.705 152.354 195.851 155.053 195.062C157.672 194.299 160.554 192.889 163.701 190.83C170.037 186.678 174.045 181.478 176.077 174.334" stroke="#FDB899" stroke-width="2"/>
<path d="M176.077 174.335C183.205 171.775 189.269 167.479 189.293 159.263C189.293 159.007 189.165 158.876 188.909 158.871L176.453 158.631" stroke="#FC9C82" stroke-width="2"/>
<path d="M176.453 158.63L175.997 146.63" stroke="#FDB899" stroke-width="2"/>
<path d="M175.997 146.63C176.237 143.308 176.232 140.798 175.981 139.102C175.677 137.086 174.941 135.34 173.773 133.862" stroke="#FDD4C5" stroke-width="2"/>
<path d="M173.773 133.862C172.482 130.902 171.274 128.214 170.149 125.798C168.605 122.494 166.765 122.926 163.725 123.27C163.48 123.297 163.272 123.398 163.101 123.574C161.893 124.814 157.933 125.59 157.053 123.51C156.469 122.134 157.573 120.566 156.045 119.286" stroke="#FDB899" stroke-width="2"/>
<path d="M156.045 119.286C164.557 117.462 170.589 121.142 177.461 125.83C178.16 126.304 178.984 126.504 179.933 126.43C180.205 126.403 180.378 126.259 180.453 125.998L180.669 125.246" stroke="#E4926D" stroke-width="2"/>
<path d="M180.669 125.246H181.413C181.696 125.246 181.837 125.104 181.837 124.822C181.717 115.726 179.429 106.118 178.061 97.7978C177.912 96.8858 177.613 96.8324 177.165 97.6378C175.917 99.9044 174.882 102.275 174.061 104.75C174.042 104.808 174.01 104.862 173.967 104.907C173.925 104.952 173.874 104.987 173.816 105.011C173.758 105.034 173.696 105.045 173.634 105.043C173.571 105.041 173.509 105.025 173.453 104.998L161.293 99.0458C161.19 98.9948 161.078 98.9651 160.963 98.9585C160.848 98.9519 160.733 98.9685 160.625 99.0073C160.516 99.0462 160.417 99.1064 160.333 99.1845C160.248 99.2626 160.18 99.3569 160.133 99.4618C158.912 102.166 157.258 104.566 155.173 106.662C155.069 106.766 154.942 106.843 154.803 106.888C154.663 106.932 154.516 106.943 154.373 106.918C153.418 106.758 152.626 106.091 151.997 104.918" stroke="#FDB899" stroke-width="2"/>
<path d="M151.637 200.398C152.154 202.281 152.376 204.204 152.301 206.166C151.989 214.238 138.397 217.894 132.165 218.046" stroke="#ABAA7E" stroke-width="2"/>
<path d="M132.165 218.047C131.786 217.871 131.384 217.82 130.957 217.895" stroke="#B3B68C" stroke-width="2"/>
<path d="M130.957 217.895C128.173 214.271 121.949 207.047 117.325 206.431C117.091 206.399 116.891 206.295 116.725 206.119C116.32 205.692 115.835 205.54 115.269 205.663C114.971 205.727 114.789 205.609 114.725 205.311C114.245 203.071 112.157 204.783 111.405 205.879" stroke="#FDB899" stroke-width="2"/>
<path d="M111.405 205.877C111.079 203.456 111.16 201.507 111.645 200.029" stroke="#B3B68C" stroke-width="2"/>
<path d="M173.493 147.926C174.301 141.998 172.413 134.774 166.837 132.182C166.096 131.835 165.341 131.472 164.573 131.094" stroke="#89898C" stroke-width="2"/>
<path d="M127.901 98.3104L125.837 97.6144C125.581 97.529 125.357 97.5797 125.165 97.7664C120.755 102.065 115.888 105.761 110.565 108.854C109.269 109.612 107.952 109.628 106.613 108.902C106.569 108.878 106.532 108.841 106.507 108.797C106.482 108.752 106.47 108.702 106.473 108.651C106.475 108.6 106.492 108.551 106.521 108.509C106.55 108.467 106.59 108.434 106.637 108.414L109.173 107.342C109.249 107.31 109.317 107.262 109.371 107.2C109.426 107.139 109.466 107.066 109.488 106.988C109.51 106.909 109.514 106.827 109.5 106.747C109.486 106.667 109.453 106.592 109.405 106.526C109.24 106.297 109.005 106.198 108.701 106.23" stroke="#FDBD9F" stroke-width="2"/>
<path d="M211.085 131.391C204.901 128.463 202.989 136.535 201.197 140.327C200.376 142.049 199.832 141.967 199.565 140.079C198.829 134.799 198.325 128.743 197.109 123.863C195.728 118.321 193.768 113.092 191.229 108.175C190.899 107.529 191.011 106.972 191.565 106.503L196.621 102.191C196.877 101.977 196.856 101.793 196.557 101.639C188.245 97.4145 183.909 91.0225 180.189 82.4785" stroke="#B1665C" stroke-width="2"/>
<path d="M161.893 202.789C172.533 207.221 179.749 211.685 183.421 223.253C184.045 225.213 182.597 225.149 181.493 225.605C167.397 231.482 152.706 234.792 137.421 235.533" stroke="#95C3AD" stroke-width="2"/>
<path d="M111.405 205.879C115.805 212.572 122.323 216.578 130.957 217.895" stroke="#B5C59A" stroke-width="2"/>
<path d="M132.165 218.045C132.571 219.565 133.301 220.83 134.357 221.838C134.407 221.885 134.441 221.947 134.455 222.014C134.47 222.081 134.464 222.151 134.438 222.215C134.412 222.278 134.368 222.333 134.31 222.371C134.253 222.41 134.186 222.43 134.117 222.429C121.589 222.181 107.141 218.037 104.901 203.757C104.864 203.544 104.739 203.438 104.525 203.438C104.381 203.438 104.253 203.523 104.141 203.693C104.003 203.907 103.963 204.136 104.021 204.381C107.317 219.181 121.429 222.981 134.837 223.421C135.136 223.432 135.357 223.565 135.501 223.821C137.293 226.989 137.565 232.437 137.421 235.533" stroke="#62B77F" stroke-width="2"/>
<path d="M137.421 235.534C124.445 236.041 111.642 234.88 99.013 232.054C93.669 230.854 88.005 228.926 82.541 227.174" stroke="#9DCFBB" stroke-width="2"/>
<path d="M207.181 135.462C203.589 136.942 201.789 140.318 200.949 143.91C200.245 146.902 197.429 155.318 199.917 157.59C201.037 158.608 202.226 158.848 203.485 158.31C209.842 155.59 213.058 150.563 213.133 143.23C213.17 139.603 211.415 137.016 207.869 135.47C207.639 135.368 207.41 135.366 207.181 135.462Z" stroke="#FC9C82" stroke-width="2"/>
<path d="M47.1808 138.206C42.0688 144.518 45.9568 153.414 52.0288 157.326C54.9728 159.222 61.1168 159.518 59.7088 154.398C58.2368 149.038 57.1808 144.294 54.6128 139.262C52.8688 135.838 49.7408 135.038 47.1808 138.206Z" stroke="#FDB899" stroke-width="2"/>
<path d="M99.621 109.174C91.949 109.75 79.933 115.582 78.141 123.862C78.0934 124.082 78.1052 124.311 78.1751 124.526C78.2451 124.74 78.3708 124.932 78.5392 125.081C78.7077 125.231 78.913 125.333 79.134 125.378C79.355 125.422 79.5838 125.407 79.797 125.334C87.045 122.846 92.101 116.43 100.813 119.334C104.845 120.678 108.101 120.142 109.101 115.446C110.325 109.662 103.789 108.862 99.621 109.174Z" stroke="#E6A580" stroke-width="2"/>
<path d="M88.7334 156.478C103.989 165.662 111.221 137.366 97.0294 131.414" stroke="#897266" stroke-width="2"/>
<path d="M97.0296 131.414C96.8056 128.166 89.9576 131.046 87.8696 132.47C82.3256 136.254 80.4776 142.086 82.6616 148.63C84.059 152.801 86.083 155.417 88.7336 156.478" stroke="#FEE7D8" stroke-width="2"/>
<path d="M97.0287 131.414C87.4767 129.254 83.9327 140.726 84.7647 147.91C85.1221 150.998 86.4448 153.854 88.7328 156.478" stroke="#89898C" stroke-width="2"/>
<path d="M95.5395 147.366C95.8519 147.317 96.1506 147.2 96.4184 147.021C96.6862 146.843 96.9179 146.607 97.1003 146.327C97.2827 146.046 97.4123 145.727 97.4815 145.387C97.5508 145.047 97.5584 144.693 97.5039 144.345C97.4495 143.998 97.334 143.663 97.1641 143.36C96.9943 143.058 96.7734 142.793 96.5139 142.582C96.2545 142.371 95.9617 142.217 95.6522 142.129C95.3427 142.041 95.0227 142.021 94.7102 142.07C94.3978 142.119 94.0992 142.236 93.8314 142.414C93.5636 142.592 93.3319 142.829 93.1494 143.109C92.967 143.389 92.8375 143.709 92.7682 144.049C92.699 144.389 92.6914 144.743 92.7458 145.09C92.8003 145.438 92.9158 145.773 93.0856 146.075C93.2555 146.378 93.4764 146.642 93.7358 146.854C93.9952 147.065 94.2881 147.219 94.5975 147.307C94.907 147.394 95.2271 147.414 95.5395 147.366Z" stroke="#89898C" stroke-width="2"/>
<path d="M165.782 144.478C165.782 143.808 165.515 143.165 165.041 142.691C164.567 142.217 163.924 141.95 163.254 141.95C162.583 141.95 161.94 142.217 161.466 142.691C160.992 143.165 160.726 143.808 160.726 144.478C160.726 145.149 160.992 145.792 161.466 146.266C161.94 146.74 162.583 147.006 163.254 147.006C163.924 147.006 164.567 146.74 165.041 146.266C165.515 145.792 165.782 145.149 165.782 144.478Z" stroke="#89898C" stroke-width="2"/>
<path d="M130.789 21.1425C132.261 21.6385 132.946 22.4251 132.845 23.5025C132.818 23.7905 132.895 24.0491 133.077 24.2785L134.549 26.1745C134.688 26.3611 134.711 26.5611 134.621 26.7745C134.005 28.1825 134.397 29.4465 133.885 30.7905C133.48 31.8518 133.05 32.9105 132.597 33.9665C132.508 34.1855 132.489 34.4282 132.541 34.6625C132.834 35.9531 132.552 37.1718 131.693 38.3185C131.538 38.5211 131.522 38.7318 131.645 38.9505C131.826 39.2865 131.847 39.6065 131.709 39.9105C131.506 40.3478 131.413 40.3291 131.429 39.8545C131.429 39.7531 131.437 39.6225 131.453 39.4625C131.464 39.3837 131.447 39.3035 131.405 39.2362C131.362 39.1688 131.297 39.1187 131.222 39.0947C131.146 39.0707 131.064 39.0744 130.99 39.1051C130.917 39.1358 130.857 39.1916 130.821 39.2625L126.717 46.6465C126.567 46.9185 126.36 47.1345 126.093 47.2945C125.453 47.6785 125.285 48.2011 125.589 48.8625C125.674 49.0331 125.64 49.1745 125.485 49.2865C117.293 55.4358 108.592 60.7078 99.3808 65.1025C89.4448 69.8465 78.3008 72.7825 69.3648 64.8305C69.2386 64.7195 69.0779 64.6555 68.9099 64.6496C68.742 64.6436 68.5771 64.6959 68.4433 64.7976C68.3095 64.8994 68.215 65.0443 68.176 65.2078C68.1369 65.3712 68.1556 65.5432 68.2288 65.6945C68.5568 66.3665 64.8209 68.1665 64.1969 68.6385C64.0888 68.7221 63.9593 68.7732 63.8233 68.786C63.6873 68.7987 63.5505 68.7726 63.4288 68.7105C58.9968 66.4385 58.6768 73.5025 55.0368 71.5505C54.7222 71.3798 54.5808 71.4731 54.6128 71.8305L54.6448 72.2225C49.6128 70.4865 34.0848 64.5825 39.8848 56.1585C43.9968 50.1905 56.2288 55.1985 61.2208 57.1905C61.6262 57.3505 61.7435 57.2305 61.5728 56.8305C57.3248 47.0065 61.3088 36.7025 69.7808 30.9985C71.6528 29.7425 72.5648 31.1185 72.8288 32.8305C73.3462 36.1798 73.8635 39.5078 74.3808 42.8145C74.3933 42.8838 74.4277 42.9474 74.4791 42.9956C74.5305 43.0439 74.5961 43.0743 74.6661 43.0824C74.7361 43.0904 74.8068 43.0757 74.8678 43.0405C74.9289 43.0052 74.9769 42.9512 75.0048 42.8865C79.7888 31.4625 89.3328 27.9105 99.7168 23.0625C104.837 20.6731 109.65 17.8145 114.157 14.4865C114.224 14.4374 114.304 14.4081 114.387 14.4017C114.47 14.3953 114.553 14.4122 114.627 14.4504C114.701 14.4886 114.762 14.5467 114.805 14.618C114.848 14.6894 114.87 14.7713 114.869 14.8545C114.783 20.3798 113.76 25.7158 111.797 30.8625C111.77 30.9286 111.766 31.0019 111.787 31.0703C111.807 31.1387 111.851 31.198 111.91 31.2383C111.969 31.2785 112.04 31.2974 112.111 31.2916C112.182 31.2858 112.249 31.2557 112.301 31.2065C117.501 26.2305 123.664 22.8758 130.789 21.1425Z" fill="#974F4C"/>
<path d="M153.093 21.7661C153.663 23.1314 154.946 23.8168 156.941 23.8221C157.229 23.8221 157.466 23.9314 157.653 24.1501C158.549 25.1901 159.421 25.8541 159.765 27.2781C162.069 36.7981 163.669 43.4941 160.773 53.0461C156.597 66.8541 145.261 70.0781 132.549 72.3821C130.661 72.7261 129.141 73.6621 127.973 74.9981C122.557 81.1901 115.573 87.7981 106.549 85.5021C104.333 84.9421 102.917 84.4221 100.605 85.2141C98.0501 86.0888 95.4741 86.8808 92.8768 87.5901C92.6208 87.6594 92.4101 87.7981 92.2448 88.0061C91.3968 89.0728 90.3088 89.7714 88.9808 90.1021C88.6821 90.1768 88.4528 90.3421 88.2928 90.5981L86.1168 94.0461C86.0208 94.2008 86.0128 94.3608 86.0928 94.5261C86.2048 94.7501 86.6128 95.9581 85.9168 95.8781L84.0047 96.1821C77.1834 97.6648 70.2661 98.2861 63.2528 98.0461C62.9648 98.0354 62.7408 98.1528 62.5808 98.3981C62.2341 98.9261 62.0287 99.6461 61.9647 100.558L58.1248 105.798C58.0816 105.857 58.055 105.927 58.048 106C58.041 106.073 58.0537 106.146 58.0848 106.212C58.1159 106.278 58.1642 106.335 58.2247 106.376C58.2852 106.417 58.3557 106.442 58.4288 106.446L64.4127 106.798C64.4759 106.801 64.5375 106.819 64.5922 106.851C64.6469 106.882 64.6931 106.927 64.7269 106.98C64.7607 107.034 64.7811 107.094 64.7863 107.158C64.7915 107.221 64.7813 107.284 64.7567 107.342C63.7327 109.763 62.2741 111.87 60.3808 113.662C60.342 113.698 60.3131 113.744 60.2969 113.795C60.2807 113.845 60.2777 113.899 60.2881 113.951C60.2985 114.003 60.322 114.052 60.3564 114.092C60.3909 114.133 60.435 114.164 60.4848 114.182L63.9408 115.494C64.2554 115.611 64.2741 115.766 63.9968 115.958C59.4848 119.118 59.3888 140.07 58.4448 140.07C56.1328 137.23 55.8368 134.174 53.4528 131.798C53.2669 131.612 53.0191 131.501 52.7567 131.486L49.2448 131.238C48.3648 130.209 47.7354 129.299 47.3567 128.51C42.6794 118.883 39.4821 108.547 37.7647 97.5021C37.5834 96.3554 37.5514 95.3208 37.6688 94.3981C37.6889 94.249 37.758 94.1108 37.8651 94.0051C37.9722 93.8994 38.1114 93.8322 38.2607 93.8141L49.0288 92.4381C49.0696 92.434 49.108 92.4178 49.1392 92.3913C49.1703 92.3648 49.1928 92.3293 49.2039 92.2892C49.215 92.2491 49.2142 92.2062 49.2015 92.1658C49.1889 92.1255 49.165 92.0894 49.1328 92.0621C44.5808 88.3501 39.2208 78.7261 46.7408 75.0701C49.0128 73.9581 52.7968 73.6381 55.6288 73.1981C55.6935 73.1887 55.7527 73.1581 55.7974 73.111C55.8421 73.0638 55.8698 73.0028 55.8762 72.9374C55.8825 72.8719 55.8673 72.8055 55.8327 72.7486C55.7981 72.6916 55.7461 72.6472 55.6848 72.6221L54.6448 72.2221L54.6127 71.8301C54.5807 71.4728 54.7221 71.3794 55.0368 71.5501C58.6768 73.5021 58.9968 66.4381 63.4288 68.7101C63.5504 68.7722 63.6872 68.7984 63.8232 68.7856C63.9592 68.7729 64.0888 68.7217 64.1968 68.6381C64.8208 68.1661 68.5568 66.3661 68.2288 65.6941C68.1555 65.5428 68.1368 65.3709 68.1759 65.2074C68.215 65.0439 68.3094 64.899 68.4432 64.7973C68.577 64.6955 68.7419 64.6432 68.9099 64.6492C69.0778 64.6552 69.2385 64.7191 69.3647 64.8301C78.3007 72.7821 89.4448 69.8461 99.3808 65.1021C108.591 60.7074 117.293 55.4354 125.485 49.2861C125.639 49.1741 125.674 49.0328 125.589 48.8621C125.285 48.2008 125.453 47.6781 126.093 47.2941C126.359 47.1341 126.567 46.9181 126.717 46.6461L130.821 39.2621C130.857 39.1912 130.917 39.1355 130.99 39.1047C131.064 39.074 131.146 39.0703 131.221 39.0943C131.297 39.1183 131.362 39.1685 131.405 39.2358C131.447 39.3032 131.464 39.3834 131.453 39.4621C131.437 39.6221 131.429 39.7528 131.429 39.8541C131.413 40.3288 131.506 40.3474 131.709 39.9101C131.847 39.6061 131.826 39.2861 131.645 38.9501C131.522 38.7314 131.538 38.5208 131.693 38.3181C132.551 37.1714 132.834 35.9528 132.541 34.6621C132.489 34.4279 132.508 34.1852 132.597 33.9661C133.05 32.9101 133.479 31.8514 133.885 30.7901C134.397 29.4461 134.005 28.1821 134.621 26.7741C134.711 26.5608 134.687 26.3608 134.549 26.1741L133.077 24.2781C132.895 24.0488 132.818 23.7901 132.845 23.5021C132.946 22.4248 132.261 21.6381 130.789 21.1421C138.357 19.5314 145.791 19.7394 153.093 21.7661Z" fill="#844042"/>
<path d="M153.093 21.7656C168.621 25.5336 180.093 36.6856 186.957 50.7016C186.981 50.7544 187.022 50.7976 187.073 50.8248C187.124 50.852 187.183 50.8619 187.241 50.853C187.299 50.844 187.353 50.8168 187.395 50.7752C187.438 50.7336 187.466 50.6798 187.477 50.6216C190.109 34.0216 199.909 52.4696 200.997 57.2056C199.792 59.4563 199.717 62.2403 200.773 65.5576C200.818 65.6954 200.833 65.8413 200.816 65.9849C200.8 66.1286 200.752 66.2667 200.677 66.3896C200.186 67.211 199.973 68.099 200.037 69.0536C200.049 69.207 200.02 69.3608 199.954 69.4998C199.889 69.6387 199.787 69.758 199.661 69.8456C197.997 70.9816 196.557 71.4376 194.373 71.2056C187.133 70.4136 185.637 74.9816 180.461 78.5576C180.242 78.7123 180.101 78.9203 180.037 79.1816C179.552 81.139 179.602 82.2376 180.189 82.4776L172.013 96.1496C171.848 96.4323 171.661 96.4483 171.453 96.1976C168.309 92.4136 167.069 87.1256 166.333 82.3976C166.325 82.3488 166.301 82.3036 166.264 82.2691C166.228 82.2346 166.182 82.2129 166.134 82.2074C166.085 82.2019 166.036 82.2129 165.996 82.2386C165.955 82.2644 165.924 82.3035 165.909 82.3496C162.73 90.7763 158.093 98.299 151.997 104.918C151.56 105.648 150.984 106.03 150.269 106.062C150.129 106.068 149.991 106.037 149.869 105.97C149.748 105.904 149.648 105.805 149.581 105.686C147.549 102.027 146.578 98.0883 146.669 93.8696C146.672 93.7732 146.645 93.6782 146.591 93.5982C146.537 93.5182 146.459 93.4574 146.369 93.4245C146.278 93.3916 146.179 93.3883 146.086 93.4151C145.994 93.4419 145.912 93.4974 145.853 93.5736C142.117 98.2696 131.397 109.862 125.277 110.51L127.901 98.3096L129.269 89.2856C129.284 89.177 129.261 89.066 129.205 88.9712C129.149 88.8765 129.062 88.8037 128.96 88.7653C128.858 88.7268 128.746 88.7249 128.643 88.7599C128.541 88.795 128.454 88.8648 128.397 88.9576C123.496 96.643 116.93 102.4 108.701 106.23L105.509 107.214C105.389 107.251 105.262 107.255 105.141 107.226C105.019 107.196 104.908 107.134 104.819 107.046C104.73 106.958 104.667 106.847 104.636 106.726C104.606 106.605 104.609 106.477 104.645 106.358L107.549 96.5816C107.569 96.5197 107.569 96.4535 107.549 96.3918C107.53 96.33 107.491 96.2756 107.439 96.2357C107.387 96.1959 107.324 96.1724 107.258 96.1685C107.192 96.1645 107.126 96.1803 107.069 96.2136C100.957 99.9256 89.2929 106.062 82.1409 105.894C81.1595 105.872 80.8982 105.427 81.3568 104.558L85.9168 95.8776C86.6128 95.9576 86.2049 94.7496 86.0929 94.5256C86.0129 94.3603 86.0208 94.2003 86.1168 94.0456L88.2929 90.5976C88.4529 90.3416 88.6822 90.1763 88.9809 90.1016C90.3089 89.771 91.3969 89.0723 92.2449 88.0056C92.4102 87.7976 92.6208 87.659 92.8768 87.5896C95.4742 86.8803 98.0502 86.0883 100.605 85.2136C102.917 84.4216 104.333 84.9416 106.549 85.5016C115.573 87.7976 122.557 81.1896 127.973 74.9976C129.141 73.6616 130.661 72.7256 132.549 72.3816C145.261 70.0776 156.597 66.8536 160.773 53.0456C163.669 43.4936 162.069 36.7976 159.765 27.2776C159.421 25.8536 158.549 25.1896 157.653 24.1496C157.466 23.931 157.229 23.8216 156.941 23.8216C154.946 23.8163 153.664 23.131 153.093 21.7656Z" fill="#77333A"/>
<path d="M200.998 57.2061C202.827 64.2567 202.694 71.1394 200.598 77.8541C200.574 77.9286 200.575 78.0088 200.601 78.0826C200.627 78.1565 200.676 78.2199 200.741 78.2633C200.806 78.3066 200.883 78.3277 200.961 78.3231C201.04 78.3186 201.114 78.2887 201.174 78.238L205.606 74.5901C205.883 74.3607 206.136 74.3874 206.366 74.6701C207.502 76.0727 208.254 77.2807 208.622 78.2941C213.662 92.0274 215.182 106.55 213.182 121.862C212.659 125.851 211.96 129.027 211.086 131.39C204.902 128.462 202.99 136.534 201.198 140.326C200.376 142.049 199.832 141.966 199.566 140.078C198.83 134.798 198.326 128.742 197.11 123.862C195.728 118.321 193.768 113.091 191.23 108.174C190.899 107.529 191.011 106.971 191.566 106.502L196.622 102.19C196.878 101.977 196.856 101.793 196.558 101.638C188.246 97.414 183.91 91.022 180.19 82.4781C179.603 82.2381 179.552 81.1394 180.038 79.1821C180.102 78.9207 180.243 78.7127 180.462 78.5581C185.638 74.9821 187.134 70.4141 194.374 71.2061C196.558 71.4381 197.998 70.9821 199.662 69.8461C199.788 69.7584 199.889 69.6392 199.955 69.5002C200.021 69.3612 200.05 69.2074 200.038 69.0541C199.974 68.0994 200.187 67.2114 200.678 66.3901C200.753 66.2671 200.801 66.129 200.817 65.9854C200.834 65.8417 200.819 65.6959 200.774 65.5581C199.718 62.2407 199.792 59.4567 200.998 57.2061Z" fill="#66222C"/>
<path d="M180.189 82.4777C183.909 91.0217 188.245 97.4137 196.557 101.638C196.856 101.792 196.877 101.976 196.621 102.19L191.565 106.502C191.01 106.971 190.898 107.528 191.229 108.174C193.768 113.091 195.728 118.32 197.109 123.862C198.325 128.742 198.829 134.798 199.565 140.078C199.832 141.966 200.376 142.048 201.197 140.326C202.989 136.534 204.901 128.462 211.085 131.39C227.037 142.958 213.349 169.446 194.613 164.406C194.371 164.34 194.114 164.36 193.885 164.462C193.656 164.564 193.47 164.742 193.357 164.966C184.469 182.366 167.709 192.982 149.045 197.622C150.352 196.704 152.354 195.851 155.053 195.062C157.672 194.299 160.554 192.888 163.701 190.83C170.037 186.678 174.045 181.478 176.077 174.334C183.205 171.774 189.269 167.478 189.293 159.262C189.293 159.006 189.165 158.875 188.909 158.87L176.453 158.63L175.997 146.63C176.237 143.307 176.232 140.798 175.981 139.102C175.677 137.086 174.941 135.339 173.773 133.862C172.482 130.902 171.274 128.214 170.149 125.798C168.605 122.494 166.765 122.926 163.725 123.27C163.48 123.296 163.272 123.398 163.101 123.574C161.893 124.814 157.933 125.59 157.053 123.51C156.469 122.134 157.573 120.566 156.045 119.286C164.557 117.462 170.589 121.142 177.461 125.83C178.16 126.304 178.984 126.504 179.933 126.43C180.205 126.403 180.378 126.259 180.453 125.998L180.669 125.246H181.413C181.696 125.246 181.837 125.104 181.837 124.822C181.717 115.726 179.429 106.118 178.061 97.7977C177.912 96.8857 177.613 96.8323 177.165 97.6377C175.917 99.9043 174.882 102.275 174.061 104.75C174.041 104.808 174.01 104.862 173.967 104.907C173.925 104.952 173.873 104.987 173.816 105.011C173.758 105.034 173.696 105.045 173.633 105.043C173.571 105.041 173.509 105.025 173.453 104.998L161.293 99.0457C161.19 98.9947 161.077 98.965 160.963 98.9584C160.848 98.9518 160.733 98.9684 160.625 99.0072C160.516 99.0461 160.417 99.1063 160.332 99.1844C160.248 99.2625 160.18 99.3568 160.133 99.4617C158.912 102.166 157.258 104.566 155.173 106.662C155.069 106.766 154.942 106.843 154.802 106.888C154.663 106.932 154.516 106.943 154.373 106.918C153.418 106.758 152.626 106.091 151.997 104.918C158.093 98.299 162.73 90.7763 165.909 82.3497C165.924 82.3035 165.955 82.2645 165.996 82.2387C166.036 82.2129 166.085 82.2019 166.134 82.2074C166.182 82.213 166.228 82.2347 166.265 82.2692C166.301 82.3036 166.325 82.3489 166.333 82.3977C167.069 87.1257 168.309 92.4137 171.453 96.1977C171.661 96.4483 171.848 96.4323 172.013 96.1497L180.189 82.4777ZM207.181 135.462C203.589 136.942 201.789 140.318 200.949 143.91C200.245 146.902 197.429 155.318 199.917 157.59C201.037 158.608 202.226 158.848 203.485 158.31C209.842 155.59 213.058 150.563 213.133 143.23C213.17 139.603 211.416 137.016 207.869 135.47C207.64 135.368 207.41 135.366 207.181 135.462Z" fill="#FBA98B"/>
<path d="M127.901 98.31L125.837 97.614C125.581 97.5287 125.357 97.5793 125.165 97.766C120.755 102.065 115.888 105.761 110.565 108.854C109.269 109.611 107.952 109.627 106.613 108.902C106.569 108.877 106.532 108.841 106.507 108.796C106.482 108.752 106.47 108.701 106.473 108.651C106.475 108.6 106.492 108.551 106.521 108.509C106.55 108.467 106.59 108.434 106.637 108.414L109.173 107.342C109.249 107.31 109.317 107.261 109.371 107.2C109.426 107.139 109.466 107.066 109.488 106.987C109.51 106.909 109.514 106.826 109.5 106.747C109.486 106.667 109.453 106.591 109.405 106.526C109.24 106.297 109.005 106.198 108.701 106.23C116.931 102.401 123.496 96.6433 128.397 88.958C128.454 88.8651 128.541 88.7953 128.644 88.7603C128.746 88.7253 128.858 88.7272 128.96 88.7656C129.063 88.8041 129.149 88.8768 129.205 88.9716C129.262 89.0663 129.284 89.1774 129.269 89.286L127.901 98.31Z" fill="#FBA98B"/>
<path d="M151.997 104.918C152.626 106.091 153.418 106.758 154.373 106.918C154.516 106.943 154.663 106.933 154.802 106.888C154.942 106.844 155.069 106.766 155.173 106.662C157.258 104.566 158.912 102.166 160.133 99.462C160.18 99.3571 160.248 99.2628 160.332 99.1847C160.417 99.1066 160.516 99.0464 160.624 99.0075C160.733 98.9687 160.848 98.9521 160.963 98.9587C161.077 98.9653 161.19 98.995 161.293 99.046L173.453 104.998C173.509 105.026 173.571 105.041 173.633 105.043C173.696 105.046 173.758 105.035 173.816 105.011C173.873 104.988 173.925 104.952 173.967 104.907C174.01 104.862 174.041 104.808 174.061 104.75C174.882 102.275 175.917 99.9046 177.165 97.638C177.613 96.8326 177.912 96.886 178.061 97.798C179.429 106.118 181.717 115.726 181.837 124.822C181.837 125.105 181.696 125.246 181.413 125.246H180.669C178.917 116.462 167.261 110.278 159.229 109.246C148.053 107.798 147.821 119.63 156.045 119.286C157.573 120.566 156.469 122.134 157.053 123.51C157.933 125.59 161.893 124.814 163.101 123.574C163.272 123.398 163.48 123.297 163.725 123.27C166.765 122.926 168.605 122.494 170.149 125.798C171.274 128.214 172.482 130.902 173.773 133.862C170.29 131.569 167.224 130.646 164.573 131.094C154.029 131.022 151.701 143.774 154.869 151.47C159.485 162.662 172.341 158.59 173.493 147.926C174.544 147.67 175.378 147.238 175.997 146.63L176.453 158.63C170.501 157.846 165.418 159.302 161.205 162.998C158.701 165.19 157.749 168.07 159.853 170.846C163.909 176.19 170.173 175.03 176.077 174.334C174.045 181.478 170.037 186.678 163.701 190.83C160.554 192.889 157.672 194.299 155.053 195.062C152.354 195.851 150.352 196.705 149.045 197.622L143.525 199.286C134.205 199.734 127.957 200.334 116.093 199.51C116.053 199.206 115.981 199.038 115.661 198.966C93.2128 194.166 75.8929 184.942 64.7329 164.462C64.6049 164.222 64.4075 164.137 64.1409 164.206C46.3729 168.718 34.4049 150.054 42.9969 135.078C44.2235 132.934 46.3062 131.654 49.2449 131.238L52.7568 131.486C53.0192 131.501 53.267 131.612 53.4529 131.798C55.8369 134.174 56.1329 137.23 58.4449 140.07C58.6209 140.342 58.7062 140.627 58.7009 140.926C58.7009 141.198 58.8182 141.409 59.0529 141.558C59.3302 141.734 59.4129 141.939 59.3009 142.174C59.1782 142.425 59.2209 142.646 59.4289 142.838C62.1649 145.406 63.4449 148.918 65.1249 151.662C65.9569 153.027 66.6929 154.449 67.3329 155.926C67.9649 157.39 69.2288 158.614 70.0608 160.062C70.1253 160.173 70.2158 160.267 70.3245 160.335C70.4332 160.403 70.5569 160.444 70.6849 160.454L74.7729 160.758C70.0289 163.646 72.2768 171.326 75.8688 173.83C79.1755 176.139 83.2235 177.115 88.0128 176.758C88.7382 178.657 90.1089 180.094 92.1249 181.07C92.3542 181.187 92.3889 181.345 92.2289 181.542C90.1809 184.078 95.0609 186.102 96.5249 187.782C96.6582 187.937 96.7222 188.115 96.7168 188.318L96.6929 189.182C96.6875 189.603 96.8902 189.779 97.3009 189.71L100.477 189.174C100.749 189.131 100.994 189.19 101.213 189.35C103.186 190.806 105.17 190.902 107.165 189.638C107.373 189.505 107.461 189.315 107.429 189.07C106.938 185.454 108.493 182.035 112.093 178.814C112.658 181.47 114.552 183.95 117.773 186.254C122.872 189.166 128.96 189.963 136.037 188.646C138.65 188.161 140.624 187.198 141.957 185.758C145.189 184.086 150.149 179.39 149.397 175.278C149.29 174.707 148.96 174.494 148.405 174.638C140.074 176.771 132.013 177.499 124.221 176.822L124.517 176.462C124.55 176.42 124.569 176.37 124.573 176.317C124.576 176.264 124.564 176.211 124.537 176.166C124.51 176.12 124.471 176.083 124.423 176.06C124.375 176.038 124.321 176.03 124.269 176.038C123.224 176.225 122.493 175.878 122.077 174.998C121.897 174.62 121.824 174.199 121.868 173.783C121.912 173.367 122.07 172.97 122.325 172.638L124.557 169.75C124.76 169.489 125.026 169.337 125.357 169.294C125.629 169.251 125.872 169.134 126.085 168.942C126.256 168.787 126.336 168.593 126.325 168.358C126.293 167.297 126.45 166.462 126.797 165.854C129.013 172.054 141.189 163.326 134.221 154.934C133.533 154.102 131.773 152.67 131.005 153.982L125.669 152.11C125.603 152.086 125.544 152.048 125.494 151.999C125.445 151.95 125.407 151.891 125.382 151.827C125.358 151.762 125.348 151.693 125.353 151.624C125.359 151.556 125.379 151.49 125.413 151.43C126.037 150.331 126.186 149.177 125.861 147.966C125.792 147.699 125.805 147.438 125.901 147.182C126.365 145.897 126.477 144.595 126.237 143.278C125.933 141.63 126.549 140.11 126.485 138.47C126.301 133.118 126.669 127.134 125.485 121.926C124.757 118.702 124.709 114.75 124.669 111.51C124.669 111.381 124.694 111.253 124.744 111.133C124.793 111.014 124.865 110.905 124.957 110.814L125.277 110.51C131.397 109.862 142.117 98.27 145.853 93.574C145.912 93.4977 145.994 93.4422 146.086 93.4154C146.179 93.3886 146.278 93.3919 146.369 93.4248C146.459 93.4577 146.537 93.5185 146.591 93.5985C146.645 93.6785 146.672 93.7735 146.669 93.87C146.578 98.0886 147.549 102.027 149.581 105.686C149.648 105.806 149.748 105.904 149.869 105.971C149.991 106.037 150.129 106.069 150.269 106.062C150.984 106.03 151.56 105.649 151.997 104.918ZM47.1809 138.206C42.0689 144.518 45.9569 153.414 52.0289 157.326C54.9729 159.222 61.1168 159.518 59.7088 154.398C58.2368 149.038 57.1808 144.294 54.6128 139.262C52.8688 135.838 49.7409 135.038 47.1809 138.206Z" fill="#FFC7A7"/>
<path d="M85.9175 95.8779L81.3575 104.558C80.8988 105.427 81.1602 105.873 82.1415 105.894C89.2935 106.062 100.958 99.9259 107.07 96.2139C107.127 96.1806 107.193 96.1648 107.259 96.1688C107.325 96.1727 107.388 96.1962 107.44 96.2361C107.492 96.2759 107.53 96.3303 107.55 96.3921C107.569 96.4538 107.569 96.52 107.55 96.5819L104.646 106.358C104.609 106.478 104.606 106.605 104.637 106.726C104.668 106.847 104.731 106.958 104.82 107.046C104.909 107.134 105.02 107.196 105.141 107.226C105.263 107.255 105.39 107.251 105.51 107.214L108.702 106.23C109.006 106.198 109.24 106.297 109.406 106.526C109.454 106.591 109.486 106.667 109.5 106.746C109.515 106.826 109.511 106.909 109.488 106.987C109.466 107.066 109.426 107.139 109.372 107.2C109.317 107.261 109.249 107.31 109.174 107.342L106.638 108.414C106.591 108.434 106.551 108.467 106.522 108.509C106.493 108.55 106.476 108.6 106.473 108.65C106.471 108.701 106.483 108.752 106.507 108.796C106.532 108.841 106.569 108.877 106.614 108.902C107.952 109.627 109.27 109.611 110.566 108.854C115.888 105.761 120.755 102.065 125.166 97.7659C125.358 97.5793 125.582 97.5286 125.838 97.6139L127.902 98.3099L125.278 110.51L124.958 110.814C124.866 110.905 124.794 111.014 124.744 111.133C124.695 111.253 124.669 111.381 124.67 111.51C124.71 114.75 124.758 118.702 125.486 121.926C126.67 127.134 126.302 133.118 126.486 138.47C126.55 140.11 125.934 141.63 126.238 143.278C126.478 144.595 126.366 145.897 125.902 147.182C125.806 147.438 125.792 147.699 125.862 147.966C126.187 149.177 126.038 150.331 125.414 151.43C125.38 151.49 125.359 151.556 125.354 151.624C125.349 151.693 125.358 151.762 125.383 151.827C125.407 151.891 125.445 151.95 125.495 151.999C125.545 152.048 125.604 152.086 125.67 152.11L131.006 153.982C134.39 158.694 131.294 163.398 126.798 165.854C126.451 166.462 126.294 167.297 126.326 168.358C126.336 168.593 126.256 168.787 126.086 168.942C125.872 169.134 125.63 169.251 125.358 169.294C125.027 169.337 124.76 169.489 124.558 169.75L122.326 172.638C122.071 172.97 121.913 173.367 121.869 173.783C121.825 174.199 121.897 174.62 122.078 174.998C122.494 175.878 123.224 176.225 124.27 176.038C124.322 176.03 124.375 176.038 124.423 176.06C124.471 176.083 124.511 176.12 124.538 176.166C124.565 176.211 124.577 176.264 124.573 176.317C124.57 176.37 124.55 176.42 124.518 176.462L124.222 176.822L112.51 174.686C112.378 174.663 112.243 174.668 112.114 174.703C111.985 174.737 111.865 174.799 111.762 174.884C111.659 174.969 111.576 175.076 111.519 175.196C111.461 175.317 111.431 175.448 111.43 175.582C111.419 176.643 111.64 177.721 112.094 178.814C108.494 182.035 106.939 185.454 107.43 189.07C107.462 189.315 107.374 189.505 107.166 189.638C105.171 190.902 103.187 190.806 101.214 189.35C100.995 189.19 100.75 189.131 100.478 189.174L97.3015 189.71C96.8909 189.779 96.6882 189.603 96.6935 189.182L96.7175 188.318C96.7228 188.115 96.6589 187.937 96.5255 187.782C95.0615 186.102 90.1815 184.078 92.2295 181.542C92.3895 181.345 92.3549 181.187 92.1255 181.07C90.1095 180.094 88.7388 178.657 88.0135 176.758C95.1175 175.99 101.742 170.302 94.0055 163.838C88.5868 159.315 82.1762 158.289 74.7735 160.758L70.6855 160.454C70.5575 160.444 70.4339 160.403 70.3252 160.335C70.2165 160.267 70.126 160.173 70.0615 160.062C69.2295 158.614 67.9655 157.39 67.3335 155.926C66.6935 154.449 65.9575 153.027 65.1255 151.662C63.4455 148.918 62.1655 145.406 59.4295 142.838C59.2215 142.646 59.1789 142.425 59.3015 142.174C59.4135 141.939 59.3309 141.734 59.0535 141.558C58.8189 141.409 58.7015 141.198 58.7015 140.926C58.7069 140.627 58.6215 140.342 58.4455 140.07C59.3895 140.07 59.4855 119.118 63.9975 115.958C64.2749 115.766 64.2562 115.611 63.9415 115.494L60.4855 114.182C60.4358 114.163 60.3916 114.132 60.3572 114.092C60.3228 114.051 60.2993 114.003 60.2889 113.951C60.2784 113.899 60.2815 113.845 60.2977 113.794C60.3139 113.744 60.3428 113.698 60.3815 113.662C62.2749 111.87 63.7335 109.763 64.7575 107.342C64.7821 107.284 64.7922 107.22 64.787 107.157C64.7818 107.094 64.7615 107.033 64.7277 106.98C64.6939 106.927 64.6477 106.882 64.593 106.85C64.5383 106.819 64.4767 106.801 64.4135 106.798L58.4295 106.446C58.3565 106.441 58.286 106.417 58.2255 106.376C58.1649 106.335 58.1166 106.278 58.0855 106.212C58.0544 106.146 58.0417 106.072 58.0488 105.999C58.0558 105.927 58.0823 105.857 58.1255 105.798L61.9655 100.558C68.3495 100.819 74.6855 100.518 80.9735 99.6539C81.2402 99.6219 81.5015 99.6433 81.7575 99.7179C83.3975 100.198 83.7255 97.2619 84.0055 96.1819L85.9175 95.8779ZM99.6215 109.174C91.9495 109.75 79.9335 115.582 78.1415 123.862C78.0939 124.082 78.1057 124.311 78.1756 124.526C78.2456 124.74 78.3712 124.932 78.5397 125.081C78.7082 125.231 78.9134 125.334 79.1345 125.378C79.3555 125.422 79.5843 125.407 79.7975 125.334C87.0455 122.846 92.1015 116.43 100.814 119.334C104.846 120.678 108.102 120.142 109.102 115.446C110.326 109.662 103.79 108.862 99.6215 109.174ZM88.7335 156.478C103.99 165.662 111.222 137.366 97.0295 131.414C96.8055 128.166 89.9575 131.046 87.8695 132.47C82.3255 136.254 80.4775 142.086 82.6615 148.63C84.0588 152.801 86.0829 155.417 88.7335 156.478Z" fill="#FED0B2"/>
<path d="M84.0048 96.1816C83.7248 97.2616 83.3968 100.198 81.7568 99.7176C81.5008 99.643 81.2395 99.6216 80.9729 99.6536C74.6849 100.518 68.3488 100.819 61.9648 100.558C62.0288 99.6456 62.2342 98.9256 62.5809 98.3976C62.7409 98.1523 62.9649 98.035 63.2529 98.0456C70.2662 98.2856 77.1835 97.6643 84.0048 96.1816Z" fill="#FBA98B"/>
<path d="M78.141 123.862C79.933 115.582 91.949 109.75 99.621 109.174C103.789 108.862 110.325 109.662 109.101 115.446C108.101 120.142 104.845 120.678 100.813 119.334C92.101 116.43 87.045 122.846 79.797 125.334C79.5838 125.407 79.355 125.422 79.134 125.378C78.913 125.333 78.7077 125.231 78.5392 125.081C78.3708 124.932 78.2451 124.74 78.1751 124.526C78.1052 124.311 78.0934 124.082 78.141 123.862Z" fill="#CD7A4E"/>
<path d="M180.669 125.246L180.453 125.998C180.379 126.259 180.205 126.403 179.933 126.43C178.984 126.505 178.16 126.305 177.461 125.83C170.589 121.142 164.557 117.462 156.045 119.286C147.821 119.63 148.053 107.798 159.229 109.246C167.261 110.278 178.917 116.462 180.669 125.246Z" fill="#CD7A4E"/>
<path d="M97.0296 131.414C87.4776 129.254 83.9336 140.726 84.7656 147.91C85.123 150.998 86.4456 153.854 88.7336 156.478C86.083 155.417 84.059 152.801 82.6616 148.63C80.4776 142.086 82.3256 136.254 87.8696 132.47C89.9576 131.046 96.8056 128.166 97.0296 131.414Z" fill="#FEFEFE"/>
<path d="M173.773 133.862C174.941 135.34 175.677 137.086 175.981 139.102C176.232 140.798 176.237 143.308 175.997 146.63C175.379 147.238 174.544 147.67 173.493 147.926C174.301 141.998 172.413 134.774 166.837 132.182C166.096 131.836 165.341 131.473 164.573 131.094C167.224 130.646 170.291 131.569 173.773 133.862Z" fill="#FEFEFE"/>
<path d="M97.0287 131.414C111.221 137.366 103.989 165.662 88.7328 156.478C86.4448 153.854 85.1221 150.998 84.7647 147.91C83.9327 140.726 87.4767 129.254 97.0287 131.414ZM95.5394 147.366C95.8518 147.317 96.1504 147.2 96.4183 147.021C96.6861 146.843 96.9178 146.607 97.1002 146.327C97.2826 146.046 97.4121 145.727 97.4814 145.387C97.5506 145.047 97.5583 144.693 97.5038 144.345C97.4493 143.998 97.3339 143.663 97.164 143.36C96.9941 143.058 96.7732 142.793 96.5138 142.582C96.2544 142.371 95.9616 142.217 95.6521 142.129C95.3426 142.041 95.0225 142.021 94.7101 142.07C94.3977 142.119 94.099 142.236 93.8312 142.414C93.5634 142.592 93.3317 142.829 93.1493 143.109C92.9669 143.389 92.8374 143.709 92.7681 144.049C92.6989 144.389 92.6912 144.743 92.7457 145.09C92.8001 145.438 92.9156 145.773 93.0855 146.075C93.2554 146.378 93.4763 146.642 93.7357 146.854C93.9951 147.065 94.2879 147.219 94.5974 147.307C94.9069 147.394 95.227 147.415 95.5394 147.366Z" fill="#141319"/>
<path d="M164.573 131.094C165.341 131.473 166.096 131.835 166.837 132.182C172.413 134.774 174.301 141.998 173.493 147.926C172.341 158.59 159.485 162.662 154.869 151.47C151.701 143.774 154.029 131.022 164.573 131.094ZM165.781 144.478C165.781 143.808 165.515 143.165 165.041 142.69C164.567 142.216 163.924 141.95 163.253 141.95C162.583 141.95 161.94 142.216 161.466 142.69C160.992 143.165 160.725 143.808 160.725 144.478C160.725 145.149 160.992 145.792 161.466 146.266C161.94 146.74 162.583 147.006 163.253 147.006C163.924 147.006 164.567 146.74 165.041 146.266C165.515 145.792 165.781 145.149 165.781 144.478Z" fill="#141319"/>
<path d="M200.949 143.91C201.789 140.318 203.589 136.942 207.181 135.462C207.41 135.366 207.639 135.368 207.869 135.47C211.415 137.016 213.17 139.603 213.133 143.23C213.058 150.563 209.842 155.59 203.485 158.31C202.226 158.848 201.037 158.608 199.917 157.59C197.429 155.318 200.245 146.902 200.949 143.91Z" fill="#FC8E79"/>
<path d="M47.1808 138.206C49.7408 135.038 52.8688 135.838 54.6128 139.262C57.1808 144.294 58.2368 149.038 59.7088 154.398C61.1168 159.518 54.9728 159.222 52.0288 157.326C45.9568 153.414 42.0688 144.518 47.1808 138.206Z" fill="#FBA98B"/>
<path d="M163.254 147.006C164.65 147.006 165.782 145.874 165.782 144.478C165.782 143.082 164.65 141.95 163.254 141.95C161.857 141.95 160.726 143.082 160.726 144.478C160.726 145.874 161.857 147.006 163.254 147.006Z" fill="#FEFEFE"/>
<path d="M92.7465 145.091C92.9754 146.553 94.2262 147.572 95.5401 147.366C96.854 147.161 97.7335 145.808 97.5045 144.346C97.2755 142.884 96.0247 141.865 94.7108 142.071C93.3969 142.277 92.5175 143.629 92.7465 145.091Z" fill="#FEFEFE"/>
<path d="M126.797 165.854C131.293 163.398 134.389 158.694 131.005 153.982C131.773 152.67 133.533 154.102 134.221 154.934C141.189 163.326 129.013 172.054 126.797 165.854Z" fill="#FBA98B"/>
<path d="M176.454 158.63L188.909 158.87C189.165 158.875 189.294 159.006 189.294 159.262C189.27 167.478 183.206 171.774 176.078 174.334C170.174 175.03 163.91 176.19 159.854 170.846C157.75 168.07 158.701 165.19 161.205 162.998C165.419 159.302 170.502 157.846 176.454 158.63Z" fill="#FC8E79"/>
<path d="M88.0128 176.757C83.2235 177.115 79.1755 176.139 75.8688 173.829C72.2768 171.325 70.0288 163.645 74.7728 160.757C82.1755 158.288 88.5861 159.315 94.0048 163.837C101.741 170.301 95.1168 175.989 88.0128 176.757Z" fill="#FBA98B"/>
<path d="M124.221 176.821C132.013 177.499 140.074 176.771 148.405 174.637C148.96 174.493 149.29 174.707 149.397 175.277C150.149 179.389 145.189 184.085 141.957 185.757C136.717 182.085 121.909 180.237 117.773 186.253C114.552 183.949 112.658 181.469 112.093 178.813C111.64 177.72 111.418 176.643 111.429 175.581C111.431 175.448 111.461 175.316 111.518 175.196C111.576 175.075 111.659 174.968 111.762 174.883C111.864 174.798 111.984 174.736 112.114 174.702C112.243 174.668 112.378 174.662 112.509 174.685L124.221 176.821Z" fill="#2D242F"/>
<path d="M141.957 185.758C140.624 187.198 138.651 188.161 136.037 188.646C128.96 189.963 122.872 189.166 117.773 186.254C121.909 180.238 136.717 182.086 141.957 185.758Z" fill="#FC8E79"/>
<path d="M143.525 199.285L151.637 200.397C152.154 202.28 152.376 204.202 152.301 206.165C151.989 214.237 138.397 217.893 132.165 218.045C131.786 217.869 131.383 217.818 130.957 217.893C128.173 214.269 121.949 207.045 117.325 206.429C117.09 206.397 116.89 206.293 116.725 206.117C116.319 205.69 115.834 205.538 115.269 205.661C114.97 205.725 114.789 205.608 114.725 205.309C114.245 203.069 112.157 204.781 111.405 205.877C111.079 203.456 111.16 201.506 111.645 200.029L116.093 199.509C127.957 200.333 134.205 199.733 143.525 199.285Z" fill="#FBA98B"/>
<path d="M111.645 200.029C111.16 201.507 111.08 203.456 111.405 205.877C115.805 212.571 122.323 216.576 130.957 217.893C131.384 217.819 131.787 217.869 132.165 218.045C132.571 219.565 133.301 220.829 134.357 221.837C134.407 221.885 134.441 221.946 134.455 222.014C134.47 222.081 134.463 222.151 134.438 222.215C134.412 222.278 134.368 222.333 134.31 222.371C134.253 222.409 134.186 222.43 134.117 222.429C121.589 222.181 107.141 218.037 104.901 203.757C104.864 203.544 104.739 203.437 104.525 203.437C104.381 203.437 104.253 203.523 104.141 203.693C104.003 203.907 103.963 204.136 104.021 204.381C107.317 219.181 121.429 222.981 134.837 223.421C135.136 223.432 135.357 223.565 135.501 223.821C137.293 226.989 137.565 232.437 137.421 235.533C124.445 236.04 111.643 234.88 99.0132 232.053C93.6692 230.853 88.0053 228.925 82.5413 227.173L77.2612 225.437C77.025 225.36 76.8277 225.195 76.71 224.976C76.5924 224.757 76.5635 224.501 76.6292 224.261C80.9092 208.621 96.5013 201.445 111.645 200.029Z" fill="#6AC38D"/>
<path d="M151.637 200.398L161.893 202.79C172.533 207.222 179.749 211.686 183.421 223.254C184.045 225.214 182.597 225.15 181.493 225.606C167.397 231.484 152.707 234.793 137.421 235.534C137.565 232.438 137.293 226.99 135.501 223.822C135.357 223.566 135.136 223.433 134.837 223.422C121.429 222.982 107.317 219.182 104.021 204.382C103.963 204.137 104.003 203.908 104.141 203.694C104.253 203.524 104.381 203.438 104.525 203.438C104.739 203.438 104.864 203.545 104.901 203.758C107.141 218.038 121.589 222.182 134.117 222.43C134.186 222.431 134.253 222.41 134.31 222.372C134.368 222.334 134.412 222.279 134.438 222.216C134.464 222.152 134.47 222.082 134.455 222.015C134.441 221.948 134.407 221.886 134.357 221.838C133.301 220.83 132.571 219.566 132.165 218.046C138.397 217.894 151.989 214.238 152.301 206.166C152.376 204.204 152.155 202.281 151.637 200.398Z" fill="#5AAA71"/>
<path d="M130.957 217.895C122.323 216.577 115.805 212.572 111.405 205.879C112.157 204.783 114.245 203.071 114.725 205.311C114.789 205.609 114.971 205.727 115.269 205.663C115.835 205.54 116.32 205.692 116.725 206.119C116.891 206.295 117.091 206.399 117.325 206.431C121.949 207.047 128.173 214.271 130.957 217.895Z" fill="#FFC7A7"/>
</svg>
