<svg width="256" height="256" viewBox="0 0 256 256" fill="none" xmlns="http://www.w3.org/2000/svg">
<path d="M64.5216 41.0889C55.6896 47.8089 48.0496 55.7369 41.6016 64.8729" stroke="#6B9483" stroke-width="2"/>
<path d="M41.6017 64.8721C33.7511 76.0507 28.1377 88.5441 24.7617 102.352" stroke="#618F7D" stroke-width="2"/>
<path d="M24.7611 102.353C20.8171 117.169 20.9851 135.217 22.9691 150.297" stroke="#4F867B" stroke-width="2"/>
<path d="M116.777 21.1367C97.4922 23.1207 80.0735 29.7714 64.5215 41.0887" stroke="#6C9886" stroke-width="2"/>
<path d="M231.849 106.737C229.999 97.0035 226.919 87.7048 222.609 78.8408" stroke="#5A9483" stroke-width="2"/>
<path d="M222.61 78.841C210.754 54.801 189.058 36.705 164.186 27.377" stroke="#639884" stroke-width="2"/>
<path d="M164.185 27.3763C148.895 22.0003 133.092 19.9203 116.777 21.1363" stroke="#6D9D8A" stroke-width="2"/>
<path d="M164.185 27.3759C163.985 27.9519 163.809 28.3279 163.121 28.1439C159.969 27.3066 156.823 26.4293 153.681 25.5119C152.353 25.1279 151.316 24.9439 150.569 24.9599C147.873 25.0399 144.345 27.0959 146.561 30.2239C146.7 30.4266 146.756 30.6479 146.729 30.8879C146.409 33.6879 144.217 34.0959 142.361 35.3759C142.169 35.5093 141.959 35.5599 141.729 35.5279C140.748 35.4053 139.807 35.5279 138.905 35.8959C138.859 35.9114 138.821 35.9434 138.799 35.9856C138.777 36.0278 138.771 36.0773 138.784 36.1243C138.797 36.1712 138.828 36.2124 138.869 36.2397C138.911 36.267 138.961 36.2785 139.009 36.2719C143.009 35.8026 145.505 36.8586 146.497 39.4399" stroke="#9BC79F" stroke-width="2"/>
<path d="M146.497 39.4405L137.745 37.7685C137.377 37.6991 137.374 37.6191 137.737 37.5285C138.244 37.4058 138.502 37.0751 138.513 36.5365C138.524 36.2538 138.388 36.1071 138.105 36.0965C123.79 35.4725 110.012 37.7578 96.7689 42.9525C95.2063 43.5658 93.5476 44.4111 91.7929 45.4885C87.7609 47.9685 83.6889 50.2645 79.8969 52.9605C73.3209 57.6405 67.5209 61.0085 62.9609 68.3765" stroke="#B7CCA1" stroke-width="2"/>
<path d="M62.9615 68.3761L60.7136 71.1921C60.5376 71.4161 60.3695 71.4134 60.2095 71.1841C57.3695 67.2241 54.1696 67.5361 50.1936 66.6641C48.1562 66.2161 46.0816 66.1387 43.9696 66.4321C43.8443 66.449 43.7168 66.431 43.6011 66.3802C43.4854 66.3294 43.3859 66.2477 43.3135 66.1441C42.9775 65.6534 42.5482 65.4827 42.0256 65.6321C41.8656 65.6747 41.7669 65.6161 41.7296 65.4561L41.6016 64.8721" stroke="#9BC79F" stroke-width="2"/>
<path d="M222.61 78.8408C222.284 78.9155 222.162 79.1742 222.242 79.6168C222.274 79.8088 222.212 79.8488 222.058 79.7368L221.866 79.5928C221.626 79.4168 221.38 79.4115 221.13 79.5768C219.908 80.4035 218.604 80.7901 217.218 80.7368C215.804 80.6781 214.828 80.7422 214.29 80.9288C212.722 81.4675 211.186 82.2941 209.682 83.4088" stroke="#88BE99" stroke-width="2"/>
<path d="M209.682 83.4084C206.285 76.6351 201.946 71.8538 196.666 69.0645" stroke="#77B395" stroke-width="2"/>
<path d="M196.665 69.0646C193.793 63.1766 186.697 57.4726 179.921 60.0246C179.649 60.1313 179.433 60.0619 179.273 59.8166C173.449 50.9766 160.681 44.9846 150.993 41.8086" stroke="#4B8983" stroke-width="2"/>
<path d="M150.994 41.8084C150.509 40.6884 149.01 39.8991 146.498 39.4404" stroke="#ADC89B" stroke-width="2"/>
<path d="M190.074 56.6642C187.423 56.7015 184.839 57.1442 182.322 57.9922C181.677 58.2108 181.693 58.3442 182.37 58.3922C185.65 58.6215 188.677 59.6482 191.45 61.4722C191.797 61.7015 191.917 61.6135 191.81 61.2082L190.674 57.1202C190.64 56.9878 190.562 56.8707 190.453 56.788C190.344 56.7053 190.211 56.6616 190.074 56.6642Z" stroke="#88BE99" stroke-width="2"/>
<path d="M150.993 41.8087C144.108 39.7713 137.135 38.7287 130.073 38.6807" stroke="#668F84" stroke-width="2"/>
<path d="M130.074 38.6807C104.106 39.63 82.7085 49.91 65.8818 69.5207" stroke="#689E8F" stroke-width="2"/>
<path d="M65.881 69.521L62.9609 68.377" stroke="#ADC89B" stroke-width="2"/>
<path d="M130.074 38.6807C131.231 39.262 132.423 39.5527 133.65 39.5527C133.745 39.5548 133.838 39.5809 133.92 39.6284C134.003 39.6759 134.072 39.7434 134.122 39.8247C134.65 40.726 134.495 41.19 133.658 41.2167C126.564 41.478 121.284 44.3793 117.818 49.9207C117.402 50.5873 117.498 50.6727 118.106 50.1767C124.402 45.0967 131.322 41.9447 139.37 42.5847C144.783 43.0113 149.028 43.734 152.106 44.7527C161.562 47.8807 164.626 56.9847 159.234 65.2727C159.189 65.3411 159.132 65.3998 159.064 65.4452C158.996 65.4906 158.92 65.5217 158.84 65.5367C158.76 65.5516 158.678 65.5501 158.598 65.5323C158.519 65.5144 158.444 65.4805 158.378 65.4327C153.3 61.8433 147.698 59.846 141.57 59.4407C140.41 59.3687 139.314 58.9207 138.378 58.8727C131.514 58.494 124.652 58.4327 117.794 58.6887C104.85 59.1687 89.8735 63.1207 79.4095 70.8407C71.9135 76.3767 66.6175 81.2247 61.2655 89.2647C61.0255 89.622 60.2629 90.3233 58.9775 91.3687" stroke="#066077" stroke-width="2"/>
<path d="M58.9778 91.3682L54.2578 94.7842" stroke="#3A8F8C" stroke-width="2"/>
<path d="M54.2578 94.7843C54.8338 91.1149 56.0765 87.7683 57.9858 84.7443C58.0561 84.6311 58.1011 84.5046 58.1177 84.3734C58.1342 84.2421 58.122 84.1093 58.0818 83.9843L57.7218 82.8643" stroke="#054F6A" stroke-width="2"/>
<path d="M57.7217 82.8645C60.0417 78.2245 62.7617 73.7765 65.8817 69.5205" stroke="#4C998D" stroke-width="2"/>
<path d="M77.9934 61.7769C76.8894 62.7129 73.0894 66.1209 73.6414 67.6089C73.6942 67.7545 73.7789 67.8866 73.8893 67.9953C73.9997 68.104 74.133 68.1867 74.2794 68.2373C74.4259 68.2879 74.5818 68.3052 74.7358 68.2878C74.8898 68.2704 75.0379 68.2188 75.1694 68.1369C85.884 61.4862 96.8174 55.2142 107.969 49.3209C109.457 48.5369 110.841 47.3369 112.129 46.3049C112.318 46.1526 112.454 45.9464 112.522 45.714C112.589 45.4816 112.584 45.2341 112.506 45.0049C112.429 44.7757 112.283 44.5757 112.088 44.432C111.893 44.2882 111.659 44.2076 111.417 44.2009C109.972 44.1582 108.479 44.4142 106.937 44.9689C96.2814 48.8302 86.6334 54.4329 77.9934 61.7769Z" stroke="#82AA97" stroke-width="2"/>
<path d="M196.665 69.0647C194.591 68.8354 192.351 67.8594 189.945 66.1367" stroke="#317A7F" stroke-width="2"/>
<path d="M189.946 66.1362C189.178 66.2909 188.492 66.1709 187.89 65.7762C184.906 63.8242 181.33 62.7602 178.034 61.4082C177.063 61.0135 176.052 60.6909 175.002 60.4402C174.66 60.3602 174.359 60.4349 174.098 60.6642L162.274 70.9922C162.215 71.0427 162.148 71.0807 162.074 71.1037C162.001 71.1268 161.923 71.1344 161.846 71.1261C161.77 71.1179 161.696 71.0939 161.629 71.0557C161.562 71.0175 161.504 70.966 161.458 70.9042C159.33 68.0722 156.522 66.2109 153.034 65.3202C152.959 65.2981 152.879 65.3034 152.807 65.335C152.736 65.3667 152.679 65.4227 152.645 65.493C152.611 65.5632 152.604 65.6432 152.624 65.7186C152.643 65.794 152.69 65.8598 152.754 65.9042L159.658 70.8322C159.805 70.938 159.925 71.0783 160.005 71.2409C160.086 71.4035 160.126 71.5834 160.121 71.7649C160.117 71.9464 160.067 72.124 159.978 72.2822C159.889 72.4403 159.763 72.5742 159.61 72.6722C148.255 79.9202 135.82 84.9815 122.306 87.8562C103.658 91.8242 83.9936 96.1202 69.3376 109.336C64.4336 113.76 64.7857 119.84 65.6497 126.048C66.0417 128.888 65.4017 131.048 64.3297 133.48C64.2362 133.693 64.0928 133.881 63.9114 134.027C63.7299 134.173 63.5158 134.273 63.287 134.32C63.0582 134.366 62.8214 134.357 62.5963 134.293C62.3713 134.229 62.1646 134.112 61.9937 133.952L57.3057 129.536" stroke="#043F5F" stroke-width="2"/>
<path d="M57.3057 129.537C55.9617 127.526 55.0844 124.801 54.6737 121.361C53.9484 115.329 54.2017 109.643 55.4337 104.305" stroke="#398081" stroke-width="2"/>
<path d="M55.433 104.304C56.2383 104.08 56.9743 104.024 57.641 104.136C57.7283 104.152 57.8184 104.139 57.8981 104.1C57.9778 104.061 58.043 103.998 58.0841 103.919C58.1252 103.841 58.14 103.751 58.1265 103.663C58.113 103.576 58.0718 103.495 58.009 103.432C57.337 102.76 56.4037 102.283 55.209 102" stroke="#1F6674" stroke-width="2"/>
<path d="M55.209 102C55.8757 98.5495 57.1317 95.0055 58.977 91.3682" stroke="#398081" stroke-width="2"/>
<path d="M90.1615 87.2245C90.1348 87.3205 90.1215 87.4192 90.1215 87.5205C90.1194 87.5629 90.1285 87.605 90.148 87.6427C90.1675 87.6803 90.1966 87.7122 90.2324 87.7349C90.2681 87.7577 90.3093 87.7706 90.3516 87.7722C90.394 87.7739 90.436 87.7644 90.4735 87.7445C100.266 82.8005 113.01 78.1045 120.33 75.0165C128.81 71.4405 138.073 68.6565 146.001 64.0245C146.056 63.9943 146.1 63.9488 146.129 63.8937C146.158 63.8386 146.171 63.7762 146.165 63.7142C146.159 63.6522 146.135 63.5933 146.096 63.5447C146.057 63.4961 146.005 63.4599 145.946 63.4405C131.362 58.2405 119.178 61.4245 105.17 67.5685C92.4735 73.1445 82.8255 81.2405 74.5775 92.2325C73.8735 93.1685 67.8015 101.185 68.2655 101.481C68.3407 101.531 68.4299 101.555 68.5186 101.55C68.6073 101.544 68.6901 101.508 68.7535 101.449C75.0628 95.7312 81.9268 90.7792 89.3455 86.5925C89.4415 86.5385 89.5513 86.5139 89.6612 86.5219C89.7711 86.53 89.8761 86.5702 89.9633 86.6377C90.0504 86.7052 90.1156 86.7968 90.1509 86.9012C90.1862 87.0056 90.1898 87.1181 90.1615 87.2245Z" stroke="#066077" stroke-width="2"/>
<path d="M67.1692 89.0968C68.4972 88.9448 73.4252 84.1528 74.9052 83.1048C81.3479 78.5394 87.8066 73.9901 94.2812 69.4568C94.9452 68.9928 95.8332 68.9048 96.2172 67.8248C96.2612 67.7023 96.2708 67.5701 96.2449 67.4425C96.2191 67.315 96.1587 67.197 96.0705 67.1013C95.9822 67.0057 95.8695 66.936 95.7444 66.8999C95.6194 66.8639 95.4868 66.8628 95.3612 66.8968C89.3132 68.5368 83.3692 70.5928 78.4252 74.5608C73.7692 78.2941 69.6919 82.5874 66.1932 87.4408C66.0732 87.606 66.0041 87.8026 65.9944 88.0066C65.9846 88.2105 66.0346 88.4129 66.1383 88.5888C66.242 88.7646 66.3948 88.9064 66.5779 88.9967C66.761 89.0869 66.9666 89.1217 67.1692 89.0968Z" stroke="#066077" stroke-width="2"/>
<path d="M189.945 66.1367C190.543 66.9101 191.199 67.5527 191.913 68.0647C207.425 79.1207 206.553 118.721 197.353 133.217" stroke="#306972" stroke-width="2"/>
<path d="M197.354 133.217L192.554 135.401C192.319 135.507 192.154 135.681 192.058 135.921C190.069 140.918 191.055 145.065 195.018 148.361" stroke="#7A5D58" stroke-width="2"/>
<path d="M195.017 148.36C192.863 149.502 190.436 149.083 187.737 147.104" stroke="#695053" stroke-width="2"/>
<path d="M187.738 147.104L186.506 143.704" stroke="#7A5D58" stroke-width="2"/>
<path d="M186.506 143.704C185.346 135.824 186.378 127.808 186.29 120.16C186.274 118.752 185.252 116.307 183.226 112.824" stroke="#7F695E" stroke-width="2"/>
<path d="M183.226 112.825C177.679 103.47 174.386 93.4219 173.346 82.6806C173.342 82.6339 173.323 82.5895 173.294 82.5534C173.264 82.5172 173.224 82.4908 173.179 82.4778C173.134 82.4648 173.086 82.4658 173.041 82.4806C172.997 82.4953 172.958 82.5232 172.93 82.5606C153.226 107.897 117.594 116.513 87.0977 113.473C87.0484 113.467 87.0014 113.449 86.9616 113.419C86.9218 113.39 86.8905 113.35 86.871 113.305C86.8515 113.259 86.8444 113.209 86.8505 113.16C86.8566 113.111 86.8756 113.064 86.9057 113.025C90.4257 108.422 95.0603 105.534 100.81 104.361C100.879 104.35 100.911 104.31 100.906 104.241C100.906 104.171 100.9 104.102 100.89 104.033C100.879 103.974 100.847 103.945 100.794 103.945C93.2497 104.049 77.4497 106.433 72.5697 111.961C68.0897 117.033 69.5617 124.881 69.4977 131.009C69.4177 138.249 67.4097 147.849 58.3057 148.521" stroke="#775956" stroke-width="2"/>
<path d="M58.3057 148.52C64.2417 145.504 66.3377 136.04 58.9297 133.2" stroke="#7A5D58" stroke-width="2"/>
<path d="M58.9297 133.2C58.263 132.491 57.7217 131.269 57.3057 129.536" stroke="#386F74" stroke-width="2"/>
<path d="M57.7211 82.8643L51.1211 97.9442" stroke="#4A7876" stroke-width="2"/>
<path d="M51.1214 97.9443C50.4867 98.339 50.0494 98.9497 49.8094 99.7763C49.7294 100.048 49.5507 100.174 49.2734 100.152C47.6467 100.03 46.5214 100.203 45.8974 100.672C42.8627 102.955 39.4574 104.312 35.6814 104.744C35.436 104.776 35.2414 104.891 35.0974 105.088L33.4014 107.408" stroke="#7FB998" stroke-width="2"/>
<path d="M33.4016 107.408C32.959 107.339 32.719 107.24 32.6816 107.112" stroke="#9BC79F" stroke-width="2"/>
<path d="M32.6817 107.113C33.1217 106.673 32.9297 106.201 32.4497 105.905C30.0551 104.438 27.4924 103.254 24.7617 102.353" stroke="#7FB998" stroke-width="2"/>
<path d="M50.2815 75.6404L50.3535 74.5444C50.3567 74.4992 50.351 74.4538 50.3367 74.4108C50.3224 74.3678 50.2997 74.3281 50.27 74.2939C50.2402 74.2597 50.204 74.2317 50.1634 74.2116C50.1229 74.1914 50.0787 74.1795 50.0335 74.1764L49.5055 74.1444C48.9991 74.1112 48.5085 74.1565 48.1401 74.2703C47.7717 74.3841 47.5551 74.5573 47.5375 74.7524L47.5135 75.0564C47.5063 75.1539 47.5491 75.2539 47.6393 75.3505C47.7295 75.4472 47.8655 75.5386 48.0393 75.6196C48.2132 75.7006 48.4216 75.7695 48.6526 75.8225C48.8836 75.8755 49.1326 75.9115 49.3855 75.9284L49.9135 75.9684C49.9593 75.9717 50.0053 75.9657 50.0488 75.9509C50.0923 75.936 50.1324 75.9126 50.1667 75.8821C50.201 75.8515 50.2288 75.8144 50.2486 75.7729C50.2683 75.7314 50.2795 75.6863 50.2815 75.6404Z" stroke="#9BC79F" stroke-width="2"/>
<path d="M209.682 83.4082C212.444 88.7949 214.748 94.8322 216.594 101.52C216.674 101.814 216.866 101.934 217.17 101.88C217.906 101.742 218.439 101.883 218.77 102.304" stroke="#6EAF95" stroke-width="2"/>
<path d="M218.769 102.305L218.257 104.977C218.204 105.259 218.041 105.443 217.769 105.529L214.521 106.537C214.416 106.57 214.325 106.637 214.262 106.728C214.2 106.819 214.169 106.928 214.176 107.038C214.182 107.149 214.225 107.254 214.298 107.337C214.371 107.42 214.469 107.476 214.577 107.497L217.905 108.121C218.021 108.143 218.131 108.193 218.224 108.265C218.317 108.337 218.391 108.43 218.441 108.537C219.225 110.19 219.684 112.115 219.817 114.313" stroke="#93B997" stroke-width="2"/>
<path d="M219.817 114.312L219.977 117.753C219.988 118.003 220.113 118.166 220.353 118.241C221.305 118.537 221.609 124.113 221.793 125.305C221.836 125.577 221.801 125.838 221.689 126.089C221.071 127.486 221.041 128.883 221.601 130.281C221.703 130.537 221.697 130.79 221.585 131.041C221.143 132.027 220.948 132.955 221.001 133.824" stroke="#6EAF95" stroke-width="2"/>
<path d="M221.002 133.824C220.516 134.992 219.762 135.774 218.738 136.168C218.487 136.264 218.487 136.368 218.738 136.48L219.938 137.008" stroke="#93B997" stroke-width="2"/>
<path d="M219.938 137.009C220.066 142.609 219.372 148.358 217.858 154.257C215.954 161.657 214.866 168.633 210.21 175.433C209.447 176.547 208.983 177.465 208.818 178.185C208.556 179.331 208.62 180.393 209.01 181.369" stroke="#65AA94" stroke-width="2"/>
<path d="M209.01 181.368L208.898 185.632C208.887 185.963 208.716 186.133 208.386 186.144C204.268 186.283 203.394 186.653 205.762 187.256" stroke="#93B997" stroke-width="2"/>
<path d="M205.762 187.257C200.791 193.748 196.122 200.412 191.754 207.249C189.162 211.297 184.49 213.657 180.146 215.297C174.7 217.345 169.21 219.265 163.674 221.057C162.943 221.292 162.154 221.98 161.306 223.121" stroke="#65AA94" stroke-width="2"/>
<path d="M161.306 223.12C158.026 212.48 154.386 204.68 144.25 198.776C144.01 198.638 143.916 198.432 143.97 198.16C144.167 197.115 143.946 196.68 143.306 196.856" stroke="#539B8F" stroke-width="2"/>
<path d="M143.306 196.857C162.33 192.177 179.954 182.153 186.642 162.441C186.738 162.147 186.932 162.051 187.226 162.153C195.306 165.017 203.698 162.361 208.266 155.257C212.122 149.249 211.306 142.497 206.018 137.793C203.754 135.785 200.218 134.873 197.354 133.217" stroke="#A79878" stroke-width="2"/>
<path d="M184.474 194.097L182.066 194.545C182.008 194.556 181.955 194.585 181.916 194.629C181.877 194.673 181.852 194.728 181.847 194.787C181.841 194.845 181.855 194.904 181.886 194.954C181.917 195.004 181.963 195.043 182.018 195.065C182.674 195.321 183.354 195.39 184.058 195.273C184.201 195.25 184.348 195.274 184.476 195.342C184.605 195.41 184.708 195.517 184.77 195.649C185.159 196.475 185.338 197.369 185.306 198.329C185.304 198.385 185.321 198.441 185.353 198.488C185.386 198.535 185.432 198.569 185.486 198.587C185.54 198.605 185.598 198.606 185.652 198.588C185.706 198.57 185.753 198.535 185.786 198.489C186.223 197.875 186.279 197.235 185.954 196.569C185.692 196.035 185.855 195.809 186.442 195.889C186.98 195.969 187.466 195.857 187.898 195.553C187.952 195.515 187.996 195.463 188.024 195.403C188.052 195.342 188.064 195.276 188.059 195.209C188.053 195.142 188.03 195.077 187.992 195.021C187.954 194.965 187.902 194.919 187.842 194.889L186.962 194.457C186.732 194.35 186.583 194.174 186.514 193.929L185.65 190.793C185.631 190.704 185.58 190.626 185.507 190.574C185.433 190.521 185.343 190.498 185.253 190.51C185.164 190.521 185.082 190.565 185.023 190.634C184.965 190.702 184.934 190.79 184.938 190.881L184.882 193.617C184.876 193.889 184.74 194.049 184.474 194.097Z" stroke="#93B997" stroke-width="2"/>
<path d="M231.849 106.736C235.081 126.416 234.529 145.848 228.545 164.904" stroke="#598F80" stroke-width="2"/>
<path d="M228.545 164.904C225.841 172.574 222.239 179.766 217.737 186.48" stroke="#568679" stroke-width="2"/>
<path d="M217.737 186.48C213.297 188.888 220.153 174.44 220.361 174.048C225.681 164.28 225.505 150.648 224.801 139.656C224.721 138.445 224.228 137.336 223.321 136.328" stroke="#76B597" stroke-width="2"/>
<path d="M223.322 136.328L221.002 133.824" stroke="#A3C49A" stroke-width="2"/>
<path d="M219.818 114.313C220.484 112.883 220.826 111.393 220.842 109.841C220.842 109.694 220.87 109.548 220.927 109.412C220.983 109.276 221.066 109.153 221.17 109.049C222.343 107.833 223.778 107.102 225.474 106.857C227.015 106.633 227.034 106.27 225.53 105.769C224.042 105.281 221.322 106.665 220.962 103.873C220.754 102.273 220.479 100.686 220.138 99.1126C220.119 99.037 220.076 98.9692 220.014 98.9207C219.952 98.8722 219.877 98.8457 219.799 98.8457C219.722 98.8457 219.647 98.8722 219.588 98.9207C219.529 98.9692 219.488 99.037 219.474 99.1126L218.77 102.305" stroke="#A3C49A" stroke-width="2"/>
<path d="M183.225 112.825L181.841 113.009C181.601 113.041 181.409 112.961 181.265 112.769C177.201 107.169 174.22 101.028 172.321 94.3448C172.231 94.0248 172.065 93.9769 171.825 94.2009C150.241 114.257 124.209 119.729 95.4493 118.097C91.5213 117.873 88.4733 116.585 85.0973 114.865C84.1053 114.364 83.116 114.137 82.1293 114.185C78.0413 114.377 73.9693 113.793 73.5453 119.297C73.0253 125.873 71.3453 132.497 71.0573 138.705C70.6893 146.393 70.2253 152.409 71.7613 158.105" stroke="#F29362" stroke-width="2"/>
<path d="M71.7617 158.105C65.3564 160.393 60.759 158.713 57.9697 153.065C57.1644 151.422 57.2764 149.907 58.3057 148.521" stroke="#EE875C" stroke-width="2"/>
<path d="M54.2571 94.7842L51.1211 97.9442" stroke="#386F74" stroke-width="2"/>
<path d="M55.209 102L55.433 104.304" stroke="#539689" stroke-width="2"/>
<path d="M58.9299 133.2C58.3592 133.584 57.7458 133.758 57.0898 133.72" stroke="#AF9D7A" stroke-width="2"/>
<path d="M57.09 133.721C45.018 135.577 44.274 149.897 51.698 157.161" stroke="#9BBE99" stroke-width="2"/>
<path d="M51.6973 157.16L55.4813 160.064" stroke="#AF9D7A" stroke-width="2"/>
<path d="M55.4812 160.064C57.0225 161.712 56.3772 162.102 53.5452 161.232C53.3319 161.168 53.1399 161.206 52.9692 161.344C52.1212 162.022 51.2598 162.688 50.3852 163.344C48.9532 164.424 46.8972 164.624 45.5692 166.208C44.3692 167.656 44.9692 169.456 42.8972 170.88C42.6732 171.03 42.5159 171.235 42.4252 171.496C41.6412 173.696 40.8012 176.064 38.0892 175.512C37.9388 175.481 37.782 175.508 37.651 175.588C37.52 175.668 37.4249 175.796 37.3852 175.944C37.2038 176.632 36.7265 176.95 35.9532 176.896C35.6439 176.88 35.4439 177.019 35.3532 177.312L35.2012 177.776C35.1052 178.075 34.9372 178.126 34.6972 177.928L34.2012 177.52C34.1559 177.481 34.1 177.457 34.0407 177.451C33.9814 177.445 33.9215 177.458 33.8688 177.487C33.8161 177.517 33.773 177.562 33.7453 177.616C33.7175 177.67 33.7063 177.732 33.7132 177.792L33.8412 178.84C33.8785 179.128 33.7665 179.208 33.5052 179.08L32.4812 178.592C32.4665 178.584 32.4542 178.572 32.4461 178.557C32.4381 178.542 32.4347 178.525 32.4365 178.509C32.4383 178.493 32.4451 178.478 32.4561 178.467C32.467 178.456 32.4814 178.45 32.4972 178.448L32.7772 178.4C32.9692 178.368 32.9959 178.286 32.8572 178.152L32.5932 177.88C32.4972 177.784 32.3879 177.771 32.2652 177.84C32.1692 177.899 32.0225 177.955 31.8252 178.008" stroke="#60A894" stroke-width="2"/>
<path d="M31.8257 178.009C27.3084 169.273 24.3564 160.036 22.9697 150.297" stroke="#4B7C75" stroke-width="2"/>
<path d="M32.6819 107.113C31.9299 107.033 31.4792 107.345 31.3299 108.049C31.3076 108.151 31.308 108.257 31.3311 108.36C31.3541 108.462 31.3992 108.558 31.4632 108.641C31.5272 108.724 31.6085 108.792 31.7016 108.84C31.7946 108.889 31.8971 108.916 32.0019 108.921C32.6419 108.947 33.1592 108.699 33.5539 108.177C33.6712 108.017 33.6765 107.852 33.5698 107.681L33.4019 107.409" stroke="#89BD9E" stroke-width="2"/>
<path d="M29.6816 147.752C29.463 148.355 29.6763 148.771 30.3216 149C30.4262 149.037 30.5375 149.05 30.6477 149.038C30.7578 149.027 30.8641 148.991 30.9589 148.934C31.0537 148.876 31.1346 148.799 31.1959 148.707C31.2573 148.614 31.2974 148.51 31.3136 148.4C31.479 147.312 31.031 146.992 29.9696 147.44C29.8367 147.501 29.7331 147.614 29.6816 147.752Z" stroke="#89BD9E" stroke-width="2"/>
<path d="M186.505 143.704L186.529 144.088C186.551 144.371 186.417 144.512 186.129 144.512H185.737C185.492 144.512 185.364 144.39 185.353 144.144C185.348 143.952 185.335 143.75 185.313 143.536C185.26 143.024 185.209 143.024 185.161 143.536C182.577 170.44 168.273 183.256 144.297 192.208C141.433 193.275 138.567 194.446 135.697 195.72" stroke="#F69764" stroke-width="2"/>
<path d="M135.698 195.721L121.13 196.793" stroke="#E58B5F" stroke-width="2"/>
<path d="M121.13 196.793L116.978 197.241" stroke="#A19B7B" stroke-width="2"/>
<path d="M116.978 197.24C95.2176 193.8 78.5296 182.728 72.2656 160.624" stroke="#A6A27E" stroke-width="2"/>
<path d="M72.2657 160.624L71.7617 158.104" stroke="#F69764" stroke-width="2"/>
<path d="M152.274 124.464C151.138 126.224 151.231 127.696 152.554 128.88C154.594 130.696 156.994 129.76 159.53 129.312C164.09 128.512 169.818 133.104 172.962 136.272C173.858 137.179 174.644 137.144 175.322 136.168C175.451 135.982 175.531 135.766 175.553 135.541C175.576 135.315 175.54 135.088 175.45 134.88C172.607 128.171 167.722 123.925 160.794 122.144C157.642 121.336 154.066 121.68 152.274 124.464Z" stroke="#8E543A" stroke-width="2"/>
<path d="M96.9218 122.881C90.4818 122.809 82.0978 127.073 80.6898 133.897C80.4818 134.91 80.8152 135.627 81.6898 136.049C81.9298 136.166 82.1645 136.153 82.3938 136.009C87.5618 132.689 91.1458 128.369 97.9618 131.529C107.018 135.737 107.514 123.001 96.9218 122.881Z" stroke="#8E543A" stroke-width="2"/>
<path d="M82.7617 151.473C83.2471 153.761 84.2471 154.897 85.7617 154.881" stroke="#E7A269" stroke-width="2"/>
<path d="M85.7617 154.881C89.9937 156.745 96.6177 158.673 101.234 157.065C101.328 157.031 101.409 156.966 101.464 156.881C101.518 156.796 101.544 156.695 101.538 156.593C101.516 156.241 101.356 156.073 101.058 156.089" stroke="#F9CCAF" stroke-width="2"/>
<path d="M101.057 156.088C106.873 152.064 106.089 144.728 100.601 141.08C94.2254 136.84 86.3854 139.544 82.2174 145.44C80.6281 147.685 80.8094 149.696 82.7614 151.472" stroke="#94563A" stroke-width="2"/>
<path d="M101.057 156.089C96.6814 158.065 91.7134 156.089 90.4574 151.521C89.6734 148.681 91.5534 143.833 95.0494 143.649C95.2038 143.641 95.3564 143.685 95.4832 143.773C95.61 143.861 95.7037 143.99 95.7495 144.137C95.7954 144.285 95.7908 144.444 95.7364 144.588C95.6821 144.733 95.5811 144.856 95.4494 144.937C94.6387 145.438 94.284 146.145 94.3854 147.057C94.4138 147.308 94.5025 147.548 94.6439 147.758C94.7854 147.967 94.9754 148.14 95.1978 148.26C95.4201 148.38 95.6683 148.445 95.921 148.448C96.1738 148.452 96.4237 148.394 96.6494 148.281C99.2574 146.977 99.2174 144.449 96.5934 143.297C90.6094 140.657 84.0974 145.241 83.0254 151.265" stroke="#937F7E" stroke-width="2"/>
<path d="M83.0257 151.265C82.9457 151.435 82.8577 151.505 82.7617 151.473" stroke="#805539" stroke-width="2"/>
<path d="M85.7614 154.881C84.2254 154.081 83.3134 152.875 83.0254 151.265" stroke="#E6CBAE" stroke-width="2"/>
<path d="M152.457 150.841C151.897 153.747 153.447 155.854 157.105 157.161C160.657 158.425 174.145 158.745 173.505 152.209" stroke="#F9CCAF" stroke-width="2"/>
<path d="M173.505 152.209C175.169 150.113 175.69 148.033 174.042 145.657C167.786 136.625 151.601 137.497 152.457 150.841" stroke="#8E543A" stroke-width="2"/>
<path d="M173.505 152.209C172.345 139.817 155.657 140.545 158.681 147.209C158.778 147.421 158.92 147.61 159.098 147.762C159.275 147.913 159.484 148.024 159.709 148.086C159.935 148.148 160.171 148.159 160.401 148.12C160.631 148.08 160.85 147.99 161.041 147.857L162.297 146.977" stroke="#8D7D7E" stroke-width="2"/>
<path d="M162.298 146.977L163.53 145.505" stroke="#370F0E" stroke-width="2"/>
<path d="M163.529 145.505L165.113 147.153" stroke="#4B1F1A" stroke-width="2"/>
<path d="M165.114 147.152C164.079 151.243 161.57 152.768 157.586 151.728C157.38 151.673 157.161 151.69 156.966 151.777C156.771 151.863 156.611 152.013 156.513 152.203C156.415 152.392 156.384 152.609 156.427 152.818C156.469 153.028 156.582 153.216 156.746 153.352L157.914 154.336C158.175 154.555 158.22 154.811 158.05 155.104L157.354 156.344" stroke="#370F0E" stroke-width="2"/>
<path d="M157.353 156.345C155.156 155.678 153.524 153.843 152.457 150.841" stroke="#8D7D7E" stroke-width="2"/>
<path d="M157.354 156.345C164.33 158.921 168.882 151.033 165.946 145.721C164.826 143.713 162.362 142.633 160.506 144.409" stroke="#A28783" stroke-width="2"/>
<path d="M160.506 144.408C159.554 144.952 159.066 146.816 160.458 146.904C160.514 146.909 160.571 146.899 160.622 146.873C160.672 146.848 160.715 146.809 160.745 146.76C160.776 146.712 160.792 146.656 160.794 146.598C160.796 146.54 160.782 146.483 160.754 146.432C160.205 145.446 160.25 144.851 160.89 144.648" stroke="#97B2B1" stroke-width="2"/>
<path d="M160.89 144.648C161.578 145.032 162.047 145.808 162.298 146.976" stroke="#A28783" stroke-width="2"/>
<path d="M165.113 147.153C165.625 146.065 165.097 145.516 163.529 145.505" stroke="#60281F" stroke-width="2"/>
<path d="M160.89 144.648C160.917 144.595 160.789 144.515 160.506 144.408" stroke="#414341" stroke-width="2"/>
<path d="M173.025 159.009L171.785 160.025C171.726 160.074 171.676 160.134 171.64 160.202C171.604 160.269 171.581 160.344 171.574 160.42C171.567 160.497 171.574 160.574 171.597 160.648C171.619 160.721 171.656 160.79 171.705 160.849L172.001 161.201C172.391 161.676 172.868 162.047 173.327 162.233C173.786 162.419 174.19 162.405 174.449 162.193L174.633 162.041C174.762 161.936 174.852 161.785 174.897 161.598C174.942 161.41 174.941 161.189 174.895 160.947C174.849 160.706 174.758 160.448 174.628 160.19C174.498 159.931 174.331 159.677 174.137 159.441L173.849 159.089C173.8 159.029 173.74 158.98 173.673 158.944C173.605 158.908 173.53 158.885 173.454 158.878C173.377 158.87 173.3 158.878 173.226 158.901C173.153 158.923 173.085 158.96 173.025 159.009Z" stroke="#FBB27F" stroke-width="2"/>
<path d="M113.489 178.824C117.463 181.315 121.729 183.182 126.289 184.424" stroke="#94563A" stroke-width="2"/>
<path d="M126.289 184.425C131.686 185.55 136.828 184.731 141.713 181.969" stroke="#C76341" stroke-width="2"/>
<path d="M141.713 181.968C145.1 180.39 148.14 178.368 150.833 175.904C151.153 175.611 151.102 175.507 150.681 175.592C138.425 178.062 126.321 178.856 114.369 177.976" stroke="#94563A" stroke-width="2"/>
<path d="M114.369 177.977C108.055 176.926 102.247 175.283 96.9455 173.049C96.5561 172.883 96.3241 173.006 96.2495 173.417L96.0975 174.169C96.0441 174.462 96.1615 174.643 96.4495 174.713L113.489 178.825" stroke="#E58B5F" stroke-width="2"/>
<path d="M114.37 177.977C113.666 178.142 113.373 178.425 113.49 178.825" stroke="#7E3E2E" stroke-width="2"/>
<path d="M141.713 181.968C140.865 181.446 139.964 181.158 139.009 181.104C138.742 181.088 138.508 180.992 138.305 180.816C137.217 179.84 135.993 179.43 134.633 179.584C130.745 180.032 127.689 179.824 126.289 184.424" stroke="#601611" stroke-width="2"/>
<path d="M143.306 196.857C141.396 197.166 139.466 197.081 137.514 196.601" stroke="#9D8F75" stroke-width="2"/>
<path d="M137.513 196.601L135.697 195.721" stroke="#E07F59" stroke-width="2"/>
<path d="M187.737 147.105L187.145 159.449C187.14 159.57 187.171 159.69 187.233 159.795C187.296 159.9 187.387 159.986 187.497 160.041C191.681 162.121 197.673 157.569 199.801 154.409C203.049 149.577 197.561 144.969 194.081 142.681C193.868 142.542 193.721 142.347 193.641 142.097L192.537 138.521C192.5 138.398 192.468 138.401 192.441 138.529C191.601 142.817 192.161 144.433 195.505 147.145C195.597 147.219 195.658 147.326 195.675 147.444C195.693 147.562 195.667 147.684 195.601 147.785C195.42 148.046 195.225 148.238 195.017 148.361" stroke="#E07F59" stroke-width="2"/>
<path d="M72.2654 160.624C68.1748 162.848 63.9614 163.331 59.6254 162.072C58.2574 161.672 56.9694 160.56 55.4814 160.064" stroke="#A29678" stroke-width="2"/>
<path d="M51.6976 157.161C48.9403 153.374 47.8043 149.342 48.2896 145.065C48.5536 142.737 50.4976 138.217 52.1616 136.721C53.4576 135.569 55.1003 134.569 57.0896 133.721" stroke="#DDAC7D" stroke-width="2"/>
<path d="M223.321 136.328C221.577 137.843 220.449 138.069 219.938 137.008" stroke="#9BBE99" stroke-width="2"/>
<path d="M134.209 235.168L145.513 233.576" stroke="#407975" stroke-width="2"/>
<path d="M145.514 233.576L149.242 232.88C149.53 232.827 149.679 232.651 149.69 232.352C149.791 227.488 149.495 222.645 148.802 217.824C148.795 217.752 148.814 217.679 148.856 217.619C148.899 217.56 148.961 217.518 149.032 217.5C149.102 217.483 149.177 217.491 149.242 217.524C149.307 217.557 149.358 217.613 149.386 217.68C151.002 222.213 152.079 226.869 152.618 231.648C152.625 231.709 152.645 231.768 152.677 231.82C152.708 231.872 152.75 231.917 152.799 231.951C152.849 231.985 152.905 232.008 152.963 232.018C153.021 232.028 153.081 232.024 153.138 232.008L162.914 229.328" stroke="#3B7273" stroke-width="2"/>
<path d="M162.913 229.328C186.3 221.515 204.574 207.232 217.737 186.48" stroke="#4D8178" stroke-width="2"/>
<path d="M162.914 229.328L161.306 223.12" stroke="#5BA191" stroke-width="2"/>
<path d="M205.762 187.256C206.802 187.384 207.663 187.736 208.346 188.312C208.548 188.483 208.663 188.699 208.69 188.96L209.234 193.56C209.292 194.029 209.428 194.053 209.642 193.632C210.634 191.656 210.466 189.92 211.21 188.336C211.338 188.069 211.548 187.931 211.842 187.92C212.812 187.883 213.596 187.52 214.194 186.832C214.244 186.774 214.279 186.703 214.293 186.628C214.308 186.552 214.302 186.474 214.277 186.401C214.252 186.328 214.208 186.263 214.15 186.212C214.092 186.161 214.021 186.127 213.946 186.112L211.842 185.704C211.686 185.672 211.539 185.605 211.411 185.51C211.282 185.415 211.176 185.293 211.098 185.152L209.01 181.368" stroke="#9BBE99" stroke-width="2"/>
<path d="M92.6196 147.06C92.6707 147.097 92.734 147.116 92.8057 147.116C92.8774 147.116 92.9561 147.097 93.0374 147.061C93.1187 147.024 93.2009 146.97 93.2794 146.902C93.3579 146.834 93.4311 146.754 93.4949 146.665C93.5587 146.576 93.6117 146.481 93.651 146.385C93.6903 146.289 93.7152 146.194 93.724 146.105C93.7329 146.016 93.7257 145.936 93.7028 145.868C93.6799 145.8 93.6418 145.746 93.5906 145.709C93.5394 145.672 93.4761 145.653 93.4044 145.653C93.3327 145.653 93.254 145.672 93.1727 145.709C93.0914 145.746 93.0092 145.8 92.9307 145.867C92.8522 145.935 92.779 146.016 92.7152 146.105C92.6515 146.193 92.5984 146.289 92.5591 146.385C92.5198 146.481 92.495 146.576 92.4861 146.665C92.4772 146.753 92.4844 146.834 92.5073 146.902C92.5302 146.97 92.5684 147.024 92.6196 147.06Z" stroke="#684633" stroke-width="2"/>
<path d="M31.8252 178.009C46.5372 206.201 72.7452 226.441 104.137 232.489" stroke="#3D7472" stroke-width="2"/>
<path d="M104.138 232.488L107.066 233.112" stroke="#316267" stroke-width="2"/>
<path d="M107.065 233.112C115.801 234.968 124.849 235.654 134.209 235.168" stroke="#3D7472" stroke-width="2"/>
<path d="M116.978 197.24C117.154 199.043 116.69 199.824 115.586 199.584" stroke="#4D998F" stroke-width="2"/>
<path d="M115.586 199.584C108.359 202.773 102.986 208.197 99.4658 215.856C97.4071 220.331 95.9938 224.675 95.2258 228.888C95.2216 228.923 95.2288 228.957 95.2463 228.987C95.2638 229.016 95.2904 229.037 95.3218 229.048C95.3911 229.069 95.4605 229.091 95.5298 229.112C95.7378 229.176 95.8604 229.101 95.8978 228.888C97.7058 218.792 102.826 208.472 111.33 202.416" stroke="#80B798" stroke-width="2"/>
<path d="M111.33 202.417C112.045 202.79 112.727 202.7 113.378 202.145C113.602 201.953 113.834 201.94 114.074 202.105C114.431 202.356 114.759 202.505 115.058 202.553" stroke="#4D998F" stroke-width="2"/>
<path d="M115.058 202.553L115.234 206.729C115.238 206.865 115.285 206.997 115.368 207.107C115.451 207.217 115.566 207.3 115.698 207.345C116.802 207.718 117.663 207.417 118.282 206.441C118.37 206.299 118.505 206.182 118.664 206.111C118.823 206.04 118.996 206.017 119.156 206.048C119.315 206.079 119.451 206.161 119.54 206.28C119.63 206.399 119.669 206.549 119.65 206.705C119.447 208.497 120.135 209.641 121.714 210.137C121.996 210.227 122.204 210.139 122.338 209.873L123.722 207.121C123.751 207.061 123.795 207.009 123.85 206.97C123.904 206.931 123.968 206.906 124.034 206.898C124.101 206.889 124.168 206.897 124.231 206.92C124.293 206.944 124.349 206.982 124.394 207.033L127.226 210.305C127.412 210.518 127.659 210.67 127.933 210.742C128.208 210.813 128.497 210.801 128.764 210.706C129.031 210.611 129.264 210.438 129.432 210.21C129.6 209.982 129.695 209.708 129.706 209.425C129.738 208.502 130.034 207.542 130.594 206.545" stroke="#A2C4A5" stroke-width="2"/>
<path d="M130.594 206.544L130.682 206.344C130.788 206.104 130.887 206.107 130.978 206.352C131.532 207.878 132.45 209.142 133.73 210.144C133.852 210.241 134.003 210.296 134.16 210.3C134.317 210.305 134.472 210.258 134.602 210.168C136.026 209.187 136.775 207.814 136.85 206.048C136.855 205.904 136.912 205.766 137.01 205.66C137.108 205.554 137.241 205.486 137.384 205.468C137.528 205.451 137.673 205.485 137.793 205.565C137.914 205.645 138.002 205.765 138.042 205.904C138.319 206.854 139.087 207.512 140.346 207.88" stroke="#8DB797" stroke-width="2"/>
<path d="M140.346 207.881C141.071 208.585 141.855 209.052 142.698 209.281C142.813 209.311 142.92 209.367 143.011 209.444C143.102 209.522 143.176 209.619 143.226 209.729C143.711 210.806 144.007 211.801 144.114 212.713C144.812 218.825 145.279 225.78 145.514 233.577" stroke="#4D998F" stroke-width="2"/>
<path d="M107.066 233.112C107.039 228.211 107.644 223.411 108.882 218.712C109.031 218.152 108.972 218.131 108.706 218.648C106.45 223.016 104.927 227.629 104.138 232.488" stroke="#468E86" stroke-width="2"/>
<path d="M137.514 196.601C135.727 201.081 131.981 202.934 126.274 202.161C123.165 201.739 121.45 199.95 121.13 196.793" stroke="#8C8270" stroke-width="2"/>
<path d="M140.346 207.881C142.77 207.881 142.698 203.489 142.786 201.721C142.788 201.647 142.769 201.573 142.73 201.51C142.691 201.447 142.634 201.397 142.566 201.366C142.498 201.335 142.423 201.325 142.35 201.337C142.276 201.349 142.208 201.382 142.154 201.433C138.938 204.452 134.986 205.918 130.298 205.833" stroke="#88B094" stroke-width="2"/>
<path d="M130.298 205.833C125.578 206.209 119.114 205.833 116.306 201.521C116.14 201.265 115.922 201.206 115.65 201.345C115.314 201.515 115.116 201.918 115.058 202.553" stroke="#9DBDA3" stroke-width="2"/>
<path d="M111.33 202.416C113.303 201.627 114.722 200.683 115.586 199.584" stroke="#7BB095" stroke-width="2"/>
<path d="M130.298 205.832L130.594 206.544" stroke="#DDDBAB" stroke-width="2"/>
<path d="M164.186 27.3763C163.986 27.9523 163.81 28.3283 163.122 28.1443C159.97 27.3069 156.823 26.4296 153.682 25.5123C152.354 25.1283 151.316 24.9443 150.57 24.9603C147.874 25.0403 144.346 27.0963 146.562 30.2243C146.7 30.4269 146.756 30.6483 146.73 30.8883C146.41 33.6883 144.218 34.0963 142.362 35.3763C142.17 35.5096 141.959 35.5603 141.73 35.5283C140.748 35.4056 139.807 35.5283 138.906 35.8963C138.859 35.9118 138.822 35.9437 138.799 35.9859C138.777 36.0282 138.772 36.0776 138.785 36.1246C138.798 36.1716 138.828 36.2127 138.87 36.24C138.911 36.2674 138.961 36.2788 139.01 36.2723C143.01 35.8029 145.506 36.8589 146.498 39.4403L137.746 37.7683C137.378 37.6989 137.375 37.6189 137.738 37.5283C138.244 37.4056 138.503 37.0749 138.514 36.5363C138.524 36.2536 138.388 36.1069 138.106 36.0963C123.791 35.4723 110.012 37.7576 96.7696 42.9523C95.2069 43.5656 93.5482 44.4109 91.7936 45.4883C87.7616 47.9683 83.6896 50.2643 79.8976 52.9603C73.3216 57.6403 67.5215 61.0083 62.9615 68.3763L60.7136 71.1923C60.5376 71.4163 60.3695 71.4136 60.2095 71.1843C57.3695 67.2243 54.1696 67.5363 50.1936 66.6643C48.1562 66.2163 46.0816 66.1389 43.9696 66.4323C43.8443 66.4491 43.7168 66.4312 43.6011 66.3804C43.4854 66.3296 43.3859 66.2479 43.3135 66.1443C42.9775 65.6536 42.5482 65.4829 42.0256 65.6323C41.8656 65.6749 41.7669 65.6163 41.7296 65.4563L41.6016 64.8723C48.0496 55.7363 55.6896 47.8083 64.5216 41.0883C80.0736 29.7709 97.4922 23.1203 116.778 21.1363C133.092 19.9203 148.895 22.0003 164.186 27.3763Z" fill="#A5CBA5"/>
<path d="M164.185 27.3769C189.057 36.7049 210.753 54.8009 222.609 78.8409C222.284 78.9156 222.161 79.1743 222.241 79.6169C222.273 79.8089 222.212 79.8489 222.057 79.7369L221.865 79.5929C221.625 79.4169 221.38 79.4116 221.129 79.5769C219.908 80.4036 218.604 80.7903 217.217 80.7369C215.804 80.6783 214.828 80.7423 214.289 80.9289C212.721 81.4676 211.185 82.2943 209.681 83.4089C206.284 76.6356 201.945 71.8543 196.665 69.0649C193.793 63.1769 186.697 57.4729 179.921 60.0249C179.649 60.1316 179.433 60.0623 179.273 59.8169C173.449 50.9769 160.681 44.9849 150.993 41.8089C150.508 40.6889 149.009 39.8996 146.497 39.4409C145.505 36.8596 143.009 35.8036 139.009 36.2729C138.961 36.2795 138.911 36.268 138.869 36.2407C138.828 36.2134 138.797 36.1722 138.784 36.1252C138.771 36.0782 138.777 36.0288 138.799 35.9866C138.821 35.9444 138.859 35.9124 138.905 35.8969C139.807 35.5289 140.748 35.4063 141.729 35.5289C141.959 35.5609 142.169 35.5103 142.361 35.3769C144.217 34.0969 146.409 33.6889 146.729 30.8889C146.756 30.6489 146.7 30.4276 146.561 30.2249C144.345 27.0969 147.873 25.0409 150.569 24.9609C151.316 24.9449 152.353 25.1289 153.681 25.5129C156.823 26.4303 159.969 27.3076 163.121 28.1449C163.809 28.3289 163.985 27.9529 164.185 27.3769ZM190.073 56.6649C187.423 56.7023 184.839 57.1449 182.321 57.9929C181.676 58.2116 181.692 58.3449 182.369 58.3929C185.649 58.6223 188.676 59.6489 191.449 61.4729C191.796 61.7023 191.916 61.6143 191.809 61.2089L190.673 57.1209C190.639 56.9885 190.561 56.8715 190.452 56.7888C190.344 56.706 190.21 56.6624 190.073 56.6649Z" fill="#91C299"/>
<path d="M146.497 39.4405C149.009 39.8991 150.508 40.6885 150.993 41.8085C144.108 39.7711 137.134 38.7285 130.073 38.6805C104.105 39.6298 82.7076 49.9098 65.881 69.5205L62.9609 68.3765C67.5209 61.0085 73.3209 57.6405 79.8969 52.9605C83.6889 50.2645 87.7609 47.9685 91.7929 45.4885C93.5476 44.4111 95.2063 43.5658 96.7689 42.9525C110.012 37.7578 123.79 35.4725 138.105 36.0965C138.388 36.1071 138.524 36.2538 138.513 36.5365C138.502 37.0751 138.244 37.4058 137.737 37.5285C137.374 37.6191 137.377 37.6991 137.745 37.7685L146.497 39.4405Z" fill="#C8CD9C"/>
<path d="M130.074 38.6807C131.231 39.262 132.423 39.5527 133.65 39.5527C133.745 39.5548 133.838 39.5809 133.921 39.6284C134.003 39.6759 134.072 39.7434 134.122 39.8247C134.65 40.726 134.495 41.19 133.658 41.2167C126.564 41.478 121.284 44.3793 117.818 49.9207C117.402 50.5873 117.498 50.6727 118.106 50.1767C124.402 45.0967 131.322 41.9447 139.37 42.5847C144.783 43.0113 149.028 43.734 152.106 44.7527C161.562 47.8807 164.626 56.9847 159.234 65.2727C159.19 65.3411 159.132 65.3998 159.064 65.4452C158.997 65.4906 158.92 65.5217 158.84 65.5367C158.76 65.5516 158.678 65.5501 158.598 65.5323C158.519 65.5144 158.444 65.4805 158.378 65.4327C153.3 61.8433 147.698 59.846 141.57 59.4407C140.41 59.3687 139.314 58.9207 138.378 58.8727C131.514 58.494 124.652 58.4327 117.794 58.6887C104.85 59.1687 89.8738 63.1207 79.4098 70.8407C71.9138 76.3767 66.6178 81.2247 61.2658 89.2647C61.0258 89.622 60.2631 90.3233 58.9778 91.3687L54.2578 94.7847C54.8338 91.1153 56.0765 87.7687 57.9858 84.7447C58.0561 84.6316 58.1011 84.505 58.1177 84.3738C58.1342 84.2425 58.122 84.1098 58.0818 83.9847L57.7218 82.8647C60.0418 78.2247 62.7618 73.7767 65.8818 69.5207C82.7085 49.91 104.106 39.63 130.074 38.6807ZM77.9938 61.7767C76.8898 62.7127 73.0898 66.1207 73.6418 67.6087C73.6946 67.7543 73.7793 67.8864 73.8897 67.9951C74.0001 68.1038 74.1334 68.1865 74.2799 68.2371C74.4263 68.2877 74.5822 68.305 74.7362 68.2876C74.8902 68.2702 75.0383 68.2186 75.1698 68.1367C85.8845 61.486 96.8178 55.214 107.97 49.3207C109.458 48.5367 110.842 47.3367 112.13 46.3047C112.318 46.1525 112.455 45.9463 112.522 45.7138C112.59 45.4814 112.584 45.2339 112.507 45.0047C112.429 44.7755 112.283 44.5755 112.088 44.4318C111.894 44.288 111.66 44.2074 111.418 44.2007C109.972 44.158 108.479 44.414 106.938 44.9687C96.2818 48.83 86.6338 54.4327 77.9938 61.7767Z" fill="#076F81"/>
<path d="M130.074 38.6807C137.135 38.7287 144.108 39.7713 150.994 41.8087C160.682 44.9847 173.45 50.9767 179.274 59.8167C179.434 60.062 179.65 60.1313 179.922 60.0247C186.698 57.4727 193.794 63.1767 196.666 69.0647C194.591 68.8353 192.351 67.8593 189.946 66.1367C189.178 66.2913 188.492 66.1713 187.89 65.7767C184.906 63.8247 181.33 62.7607 178.034 61.4087C177.063 61.014 176.052 60.6913 175.002 60.4407C174.66 60.3607 174.359 60.4353 174.098 60.6647L162.274 70.9927C162.216 71.0432 162.148 71.0811 162.074 71.1042C162.001 71.1272 161.923 71.1348 161.846 71.1266C161.77 71.1183 161.696 71.0943 161.629 71.0562C161.562 71.018 161.504 70.9664 161.458 70.9047C159.33 68.0727 156.522 66.2113 153.034 65.3207C152.959 65.2986 152.879 65.3038 152.808 65.3355C152.736 65.3671 152.679 65.4231 152.645 65.4934C152.611 65.5637 152.604 65.6437 152.624 65.7191C152.644 65.7944 152.69 65.8602 152.754 65.9047L159.658 70.8327C159.805 70.9385 159.925 71.0788 160.005 71.2414C160.086 71.404 160.126 71.5839 160.121 71.7654C160.117 71.9469 160.068 72.1245 159.978 72.2826C159.889 72.4408 159.763 72.5747 159.61 72.6727C148.255 79.9207 135.82 84.982 122.306 87.8567C103.658 91.8247 83.9937 96.1207 69.3377 109.337C64.4337 113.761 64.7857 119.841 65.6497 126.049C66.0417 128.889 65.4017 131.049 64.3297 133.481C64.2362 133.694 64.0928 133.881 63.9114 134.028C63.73 134.174 63.5159 134.274 63.2871 134.32C63.0583 134.366 62.8214 134.357 62.5964 134.293C62.3713 134.229 62.1646 134.112 61.9937 133.953L57.3057 129.537C55.9617 127.526 55.0844 124.801 54.6737 121.361C53.9484 115.329 54.2017 109.643 55.4337 104.305C56.239 104.081 56.975 104.025 57.6417 104.137C57.729 104.153 57.819 104.14 57.8988 104.101C57.9785 104.062 58.0436 103.999 58.0847 103.92C58.1258 103.841 58.1407 103.752 58.1272 103.664C58.1137 103.576 58.0725 103.495 58.0097 103.433C57.3377 102.761 56.4043 102.283 55.2097 102.001C55.8763 98.55 57.1324 95.006 58.9777 91.3687C60.263 90.3233 61.0257 89.622 61.2657 89.2647C66.6177 81.2247 71.9137 76.3767 79.4097 70.8407C89.8737 63.1207 104.85 59.1687 117.794 58.6887C124.652 58.4327 131.514 58.494 138.378 58.8727C139.314 58.9207 140.41 59.3687 141.57 59.4407C147.698 59.846 153.3 61.8433 158.378 65.4327C158.444 65.4805 158.519 65.5144 158.598 65.5323C158.678 65.5501 158.76 65.5516 158.84 65.5367C158.92 65.5217 158.996 65.4906 159.064 65.4452C159.132 65.3998 159.189 65.3411 159.234 65.2727C164.626 56.9847 161.562 47.8807 152.106 44.7527C149.028 43.734 144.783 43.0113 139.37 42.5847C131.322 41.9447 124.402 45.0967 118.106 50.1767C117.498 50.6727 117.402 50.5873 117.818 49.9207C121.284 44.3793 126.564 41.478 133.658 41.2167C134.495 41.19 134.65 40.726 134.122 39.8247C134.072 39.7434 134.003 39.6759 133.92 39.6284C133.838 39.5809 133.745 39.5548 133.65 39.5527C132.423 39.5527 131.231 39.262 130.074 38.6807ZM90.1617 87.2247C90.135 87.3207 90.1217 87.4193 90.1217 87.5207C90.1196 87.563 90.1287 87.6051 90.1482 87.6428C90.1677 87.6804 90.1968 87.7123 90.2326 87.735C90.2683 87.7578 90.3095 87.7707 90.3518 87.7724C90.3942 87.7741 90.4362 87.7645 90.4737 87.7447C100.266 82.8007 113.01 78.1047 120.33 75.0167C128.81 71.4407 138.074 68.6567 146.002 64.0247C146.056 63.9944 146.101 63.949 146.13 63.8938C146.159 63.8387 146.171 63.7763 146.165 63.7143C146.159 63.6523 146.135 63.5934 146.096 63.5448C146.057 63.4962 146.005 63.46 145.946 63.4407C131.362 58.2407 119.178 61.4247 105.17 67.5687C92.4737 73.1447 82.8257 81.2407 74.5777 92.2327C73.8737 93.1687 67.8017 101.185 68.2657 101.481C68.3409 101.531 68.4301 101.556 68.5188 101.55C68.6074 101.544 68.6903 101.508 68.7537 101.449C75.063 95.7313 81.927 90.7793 89.3457 86.5927C89.4417 86.5386 89.5515 86.514 89.6614 86.5221C89.7713 86.5301 89.8763 86.5704 89.9634 86.6378C90.0505 86.7053 90.1158 86.797 90.1511 86.9013C90.1863 87.0057 90.19 87.1182 90.1617 87.2247ZM67.1697 89.0967C68.4977 88.9447 73.4257 84.1527 74.9057 83.1047C81.3484 78.5393 87.807 73.99 94.2817 69.4567C94.9457 68.9927 95.8337 68.9047 96.2177 67.8247C96.2617 67.7022 96.2713 67.57 96.2454 67.4424C96.2195 67.3149 96.1592 67.1969 96.071 67.1012C95.9827 67.0056 95.87 66.9359 95.7449 66.8998C95.6199 66.8638 95.4873 66.8627 95.3617 66.8967C89.3137 68.5367 83.3697 70.5927 78.4257 74.5607C73.7697 78.294 69.6923 82.5873 66.1937 87.4407C66.0737 87.6059 66.0046 87.8025 65.9948 88.0065C65.9851 88.2104 66.0351 88.4127 66.1388 88.5886C66.2424 88.7645 66.3952 88.9063 66.5784 88.9966C66.7615 89.0868 66.967 89.1216 67.1697 89.0967Z" fill="#04506C"/>
<path d="M73.6414 67.6089C73.0894 66.1209 76.8894 62.7129 77.9934 61.7769C86.6334 54.4329 96.2814 48.8302 106.937 44.9689C108.479 44.4142 109.972 44.1582 111.417 44.2009C111.659 44.2076 111.893 44.2882 112.088 44.432C112.283 44.5757 112.429 44.7757 112.506 45.0049C112.584 45.2341 112.589 45.4816 112.522 45.714C112.454 45.9464 112.318 46.1526 112.129 46.3049C110.841 47.3369 109.457 48.5369 107.969 49.3209C96.8174 55.2142 85.884 61.4862 75.1694 68.1369C75.0379 68.2188 74.8898 68.2704 74.7358 68.2878C74.5818 68.3052 74.4259 68.2879 74.2794 68.2373C74.133 68.1867 73.9997 68.104 73.8893 67.9953C73.7789 67.8866 73.6942 67.7545 73.6414 67.6089Z" fill="#FCE4AD"/>
<path d="M190.674 57.1202L191.81 61.2082C191.917 61.6135 191.797 61.7015 191.45 61.4722C188.677 59.6482 185.65 58.6215 182.37 58.3922C181.693 58.3442 181.677 58.2108 182.322 57.9922C184.839 57.1442 187.423 56.7015 190.074 56.6642C190.211 56.6616 190.344 56.7053 190.453 56.788C190.562 56.8707 190.64 56.9878 190.674 57.1202Z" fill="#7EBA98"/>
<path d="M189.946 66.1362C190.543 66.9095 191.199 67.5522 191.914 68.0642C207.426 79.1202 206.554 118.72 197.354 133.216L192.554 135.4C192.319 135.507 192.154 135.68 192.058 135.92C190.068 140.918 191.055 145.064 195.018 148.36C192.863 149.502 190.436 149.083 187.738 147.104L186.506 143.704C185.346 135.824 186.378 127.808 186.29 120.16C186.274 118.752 185.252 116.307 183.226 112.824C177.679 103.47 174.386 93.4216 173.346 82.6802C173.342 82.6335 173.323 82.5892 173.294 82.553C173.264 82.5168 173.224 82.4904 173.179 82.4775C173.134 82.4645 173.086 82.4654 173.041 82.4802C172.997 82.495 172.958 82.5229 172.93 82.5602C153.226 107.896 117.594 116.512 87.0977 113.472C87.0484 113.467 87.0014 113.448 86.9616 113.419C86.9218 113.389 86.8905 113.35 86.871 113.304C86.8515 113.259 86.8444 113.209 86.8505 113.16C86.8566 113.11 86.8756 113.064 86.9057 113.024C90.4257 108.422 95.0603 105.534 100.81 104.36C100.879 104.35 100.911 104.31 100.906 104.24C100.906 104.171 100.9 104.102 100.89 104.032C100.879 103.974 100.847 103.944 100.794 103.944C93.2497 104.048 77.4497 106.432 72.5697 111.96C68.0897 117.032 69.5617 124.88 69.4977 131.008C69.4177 138.248 67.4097 147.848 58.3057 148.52C64.2417 145.504 66.3377 136.04 58.9297 133.2C58.263 132.491 57.7217 131.27 57.3057 129.536L61.9937 133.952C62.1646 134.112 62.3713 134.229 62.5963 134.293C62.8214 134.357 63.0582 134.366 63.287 134.32C63.5158 134.274 63.7299 134.173 63.9114 134.027C64.0928 133.881 64.2362 133.693 64.3297 133.48C65.4017 131.048 66.0417 128.888 65.6497 126.048C64.7857 119.84 64.4336 113.76 69.3376 109.336C83.9936 96.1202 103.658 91.8242 122.306 87.8562C135.82 84.9815 148.255 79.9202 159.61 72.6722C159.763 72.5742 159.889 72.4403 159.978 72.2822C160.067 72.124 160.117 71.9464 160.121 71.7649C160.126 71.5834 160.086 71.4035 160.005 71.2409C159.925 71.0783 159.805 70.938 159.658 70.8322L152.754 65.9042C152.69 65.8598 152.643 65.794 152.624 65.7186C152.604 65.6432 152.611 65.5632 152.645 65.493C152.679 65.4227 152.736 65.3667 152.807 65.335C152.879 65.3034 152.959 65.2981 153.034 65.3202C156.522 66.2109 159.33 68.0722 161.458 70.9042C161.504 70.966 161.562 71.0175 161.629 71.0557C161.696 71.0939 161.77 71.1179 161.846 71.1261C161.923 71.1344 162.001 71.1268 162.074 71.1037C162.148 71.0807 162.215 71.0427 162.274 70.9922L174.098 60.6642C174.359 60.4349 174.66 60.3602 175.002 60.4402C176.052 60.6909 177.063 61.0135 178.034 61.4082C181.33 62.7602 184.906 63.8242 187.89 65.7762C188.492 66.1709 189.178 66.2909 189.946 66.1362Z" fill="#032E52"/>
<path d="M90.1615 87.2245C90.1898 87.1181 90.1862 87.0056 90.1509 86.9012C90.1156 86.7968 90.0504 86.7052 89.9633 86.6377C89.8761 86.5702 89.7711 86.53 89.6612 86.5219C89.5513 86.5139 89.4415 86.5385 89.3455 86.5925C81.9268 90.7792 75.0628 95.7312 68.7535 101.449C68.6901 101.508 68.6073 101.544 68.5186 101.55C68.4299 101.555 68.3407 101.531 68.2655 101.481C67.8015 101.185 73.8735 93.1685 74.5775 92.2325C82.8255 81.2405 92.4735 73.1445 105.17 67.5685C119.178 61.4245 131.362 58.2405 145.946 63.4405C146.005 63.4599 146.057 63.4961 146.096 63.5447C146.135 63.5933 146.159 63.6522 146.165 63.7142C146.171 63.7762 146.158 63.8386 146.129 63.8937C146.1 63.9488 146.056 63.9943 146.001 64.0245C138.073 68.6565 128.81 71.4405 120.33 75.0165C113.01 78.1045 100.266 82.8005 90.4735 87.7445C90.436 87.7644 90.394 87.7739 90.3516 87.7722C90.3093 87.7706 90.2681 87.7577 90.2324 87.7349C90.1966 87.7122 90.1675 87.6803 90.148 87.6427C90.1285 87.605 90.1194 87.5629 90.1215 87.5205C90.1215 87.4192 90.1348 87.3205 90.1615 87.2245Z" fill="#076F81"/>
<path d="M41.6017 64.8721L41.7297 65.4561C41.7671 65.6161 41.8657 65.6747 42.0257 65.6321C42.5484 65.4827 42.9777 65.6534 43.3137 66.1441C43.3861 66.2477 43.4856 66.3294 43.6013 66.3802C43.717 66.431 43.8445 66.449 43.9697 66.4321C46.0817 66.1387 48.1564 66.2161 50.1937 66.6641C54.1697 67.5361 57.3697 67.2241 60.2097 71.1841C60.3697 71.4134 60.5377 71.4161 60.7137 71.1921L62.9617 68.3761L65.8817 69.5201C62.7617 73.7761 60.0417 78.2241 57.7217 82.8641L51.1217 97.9441C50.4871 98.3387 50.0497 98.9494 49.8097 99.7761C49.7297 100.048 49.5511 100.173 49.2737 100.152C47.6471 100.029 46.5217 100.203 45.8977 100.672C42.8631 102.955 39.4577 104.312 35.6817 104.744C35.4364 104.776 35.2417 104.891 35.0977 105.088L33.4017 107.408C32.9591 107.339 32.7191 107.24 32.6817 107.112C33.1217 106.672 32.9297 106.2 32.4497 105.904C30.0551 104.437 27.4924 103.253 24.7617 102.352C28.1377 88.5441 33.7511 76.0507 41.6017 64.8721ZM50.2817 75.6401L50.3537 74.5441C50.357 74.4989 50.3513 74.4535 50.337 74.4105C50.3226 74.3675 50.2999 74.3278 50.2702 74.2936C50.2405 74.2594 50.2043 74.2314 50.1637 74.2112C50.1231 74.1911 50.079 74.1791 50.0337 74.1761L49.5057 74.1441C48.9994 74.1109 48.5088 74.1561 48.1404 74.27C47.7719 74.3838 47.5554 74.557 47.5377 74.7521L47.5137 75.0561C47.5066 75.1536 47.5493 75.2535 47.6395 75.3502C47.7298 75.4468 47.8657 75.5382 48.0396 75.6192C48.2134 75.7002 48.4218 75.7692 48.6528 75.8222C48.8838 75.8752 49.1328 75.9112 49.3857 75.9281L49.9137 75.9681C49.9596 75.9713 50.0056 75.9654 50.0491 75.9505C50.0926 75.9357 50.1326 75.9123 50.1669 75.8817C50.2012 75.8512 50.2291 75.814 50.2488 75.7725C50.2685 75.731 50.2797 75.686 50.2817 75.6401Z" fill="#91C299"/>
<path d="M189.946 66.1367C192.351 67.8594 194.591 68.8354 196.666 69.0647C201.946 71.8541 206.284 76.6354 209.682 83.4087C212.444 88.7954 214.748 94.8327 216.594 101.521C216.674 101.814 216.866 101.934 217.17 101.881C217.906 101.742 218.439 101.883 218.77 102.305L218.258 104.977C218.204 105.259 218.042 105.443 217.77 105.529L214.522 106.537C214.416 106.57 214.325 106.637 214.263 106.728C214.2 106.819 214.17 106.928 214.176 107.039C214.183 107.149 214.226 107.254 214.298 107.337C214.371 107.42 214.469 107.476 214.578 107.497L217.906 108.121C218.022 108.143 218.131 108.193 218.224 108.265C218.317 108.337 218.392 108.43 218.442 108.537C219.226 110.19 219.684 112.115 219.818 114.313L219.978 117.753C219.988 118.003 220.114 118.166 220.354 118.241C221.306 118.537 221.61 124.113 221.794 125.305C221.836 125.577 221.802 125.838 221.69 126.089C221.071 127.486 221.042 128.883 221.602 130.281C221.703 130.537 221.698 130.79 221.586 131.041C221.143 132.027 220.948 132.955 221.002 133.825C220.516 134.993 219.762 135.774 218.738 136.169C218.487 136.265 218.487 136.369 218.738 136.481L219.938 137.009C220.066 142.609 219.372 148.358 217.858 154.257C215.954 161.657 214.866 168.633 210.21 175.433C209.447 176.547 208.983 177.465 208.818 178.185C208.556 179.331 208.62 180.393 209.01 181.369L208.898 185.633C208.887 185.963 208.716 186.134 208.386 186.145C204.268 186.283 203.394 186.654 205.762 187.257C200.791 193.747 196.122 200.411 191.754 207.249C189.162 211.297 184.49 213.657 180.146 215.297C174.7 217.345 169.21 219.265 163.674 221.057C162.943 221.291 162.154 221.979 161.306 223.121C158.026 212.481 154.386 204.681 144.25 198.777C144.01 198.638 143.916 198.433 143.97 198.161C144.167 197.115 143.946 196.681 143.306 196.857C162.33 192.177 179.954 182.153 186.642 162.441C186.738 162.147 186.932 162.051 187.226 162.153C195.306 165.017 203.698 162.361 208.266 155.257C212.122 149.249 211.306 142.497 206.018 137.793C203.754 135.785 200.218 134.873 197.354 133.217C206.554 118.721 207.426 79.1207 191.914 68.0647C191.199 67.5527 190.543 66.9101 189.946 66.1367ZM184.474 194.097L182.066 194.545C182.008 194.556 181.955 194.586 181.916 194.629C181.876 194.673 181.852 194.728 181.847 194.787C181.841 194.845 181.855 194.904 181.886 194.954C181.917 195.004 181.963 195.043 182.018 195.065C182.674 195.321 183.354 195.39 184.058 195.273C184.201 195.25 184.348 195.275 184.476 195.342C184.605 195.41 184.708 195.518 184.77 195.649C185.159 196.475 185.338 197.369 185.306 198.329C185.304 198.386 185.32 198.441 185.353 198.488C185.385 198.535 185.432 198.57 185.486 198.588C185.54 198.606 185.598 198.606 185.652 198.588C185.706 198.57 185.753 198.535 185.786 198.489C186.223 197.875 186.279 197.235 185.954 196.569C185.692 196.035 185.855 195.809 186.442 195.889C186.98 195.969 187.466 195.857 187.898 195.553C187.952 195.515 187.996 195.463 188.024 195.403C188.052 195.343 188.064 195.276 188.059 195.209C188.053 195.142 188.03 195.077 187.992 195.021C187.954 194.965 187.902 194.919 187.842 194.889L186.962 194.457C186.732 194.35 186.583 194.174 186.514 193.929L185.65 190.793C185.631 190.704 185.58 190.626 185.507 190.574C185.433 190.522 185.343 190.499 185.253 190.51C185.164 190.521 185.082 190.565 185.023 190.634C184.965 190.702 184.934 190.791 184.938 190.881L184.882 193.617C184.876 193.889 184.74 194.049 184.474 194.097Z" fill="#5DA491"/>
<path d="M74.9052 83.1048C73.4252 84.1528 68.4972 88.9448 67.1692 89.0968C66.9666 89.1217 66.761 89.0869 66.5779 88.9967C66.3948 88.9064 66.242 88.7646 66.1383 88.5888C66.0346 88.4129 65.9846 88.2105 65.9944 88.0066C66.0041 87.8026 66.0732 87.606 66.1932 87.4408C69.6919 82.5874 73.7692 78.2941 78.4252 74.5608C83.3692 70.5928 89.3132 68.5368 95.3612 66.8968C95.4868 66.8628 95.6194 66.8639 95.7444 66.8999C95.8695 66.936 95.9822 67.0057 96.0705 67.1013C96.1587 67.197 96.2191 67.315 96.2449 67.4425C96.2708 67.5701 96.2612 67.7023 96.2172 67.8248C95.8332 68.9048 94.9452 68.9928 94.2812 69.4568C87.8066 73.9901 81.3479 78.5394 74.9052 83.1048Z" fill="#076F81"/>
<path d="M50.2815 75.6404C50.2795 75.6863 50.2683 75.7314 50.2486 75.7729C50.2288 75.8144 50.201 75.8515 50.1667 75.8821C50.1324 75.9126 50.0923 75.936 50.0488 75.9509C50.0053 75.9657 49.9593 75.9717 49.9135 75.9684L49.3855 75.9284C49.1326 75.9115 48.8836 75.8755 48.6526 75.8225C48.4216 75.7695 48.2132 75.7006 48.0393 75.6196C47.8655 75.5386 47.7295 75.4472 47.6393 75.3505C47.5491 75.2539 47.5063 75.1539 47.5135 75.0564L47.5375 74.7524C47.5551 74.5573 47.7717 74.3841 48.1401 74.2703C48.5085 74.1565 48.9991 74.1112 49.5055 74.1444L50.0335 74.1764C50.0787 74.1795 50.1229 74.1914 50.1634 74.2116C50.204 74.2317 50.2402 74.2597 50.27 74.2939C50.2997 74.3281 50.3224 74.3678 50.3367 74.4108C50.351 74.4538 50.3567 74.4992 50.3535 74.5444L50.2815 75.6404Z" fill="#A5CBA5"/>
<path d="M222.61 78.8408C226.919 87.7048 229.999 97.0035 231.85 106.737C235.082 126.417 234.53 145.849 228.546 164.905C225.842 172.574 222.239 179.766 217.738 186.481C213.298 188.889 220.154 174.441 220.362 174.049C225.682 164.281 225.506 150.649 224.802 139.657C224.722 138.446 224.228 137.337 223.322 136.329L221.002 133.825C220.948 132.955 221.143 132.027 221.586 131.041C221.698 130.79 221.703 130.537 221.602 130.281C221.042 128.883 221.071 127.486 221.69 126.089C221.802 125.838 221.836 125.577 221.794 125.305C221.61 124.113 221.306 118.537 220.354 118.241C220.114 118.166 219.988 118.003 219.978 117.753L219.818 114.313C220.484 112.883 220.826 111.393 220.842 109.841C220.842 109.694 220.871 109.548 220.927 109.412C220.983 109.276 221.066 109.153 221.17 109.049C222.343 107.833 223.778 107.102 225.474 106.857C227.015 106.633 227.034 106.27 225.53 105.769C224.042 105.281 221.322 106.665 220.962 103.873C220.754 102.273 220.479 100.686 220.138 99.1128C220.119 99.0371 220.076 98.9694 220.014 98.9209C219.953 98.8723 219.877 98.8459 219.799 98.8459C219.722 98.8459 219.647 98.8723 219.588 98.9209C219.529 98.9694 219.489 99.0371 219.474 99.1128L218.77 102.305C218.439 101.883 217.906 101.742 217.17 101.881C216.866 101.934 216.674 101.814 216.594 101.521C214.748 94.8328 212.444 88.7955 209.682 83.4088C211.186 82.2941 212.722 81.4675 214.29 80.9288C214.828 80.7422 215.804 80.6781 217.218 80.7368C218.604 80.7901 219.908 80.4035 221.13 79.5768C221.38 79.4115 221.626 79.4168 221.866 79.5928L222.058 79.7368C222.212 79.8488 222.274 79.8088 222.242 79.6168C222.162 79.1742 222.284 78.9155 222.61 78.8408Z" fill="#7EBA98"/>
<path d="M183.226 112.825L181.842 113.009C181.602 113.041 181.41 112.961 181.266 112.769C177.202 107.169 174.22 101.027 172.322 94.3446C172.231 94.0246 172.066 93.9766 171.826 94.2006C150.242 114.257 124.21 119.729 95.4497 118.097C91.5217 117.873 88.4737 116.585 85.0977 114.865C84.1057 114.363 83.1164 114.137 82.1297 114.185C78.0417 114.377 73.9697 113.793 73.5457 119.297C73.0257 125.873 71.3457 132.497 71.0577 138.705C70.6897 146.393 70.2257 152.409 71.7617 158.105C65.3564 160.393 60.759 158.713 57.9697 153.065C57.1644 151.422 57.2764 149.907 58.3057 148.521C67.4097 147.849 69.4177 138.249 69.4977 131.009C69.5617 124.881 68.0897 117.033 72.5697 111.961C77.4497 106.433 93.2497 104.049 100.794 103.945C100.847 103.945 100.879 103.974 100.89 104.033C100.9 104.102 100.906 104.171 100.906 104.241C100.911 104.31 100.879 104.35 100.81 104.361C95.0604 105.534 90.4257 108.422 86.9057 113.025C86.8757 113.064 86.8566 113.111 86.8505 113.16C86.8445 113.209 86.8515 113.259 86.8711 113.305C86.8906 113.35 86.9219 113.39 86.9617 113.419C87.0015 113.449 87.0484 113.467 87.0977 113.473C117.594 116.513 153.226 107.897 172.93 82.5606C172.958 82.5232 172.997 82.4953 173.041 82.4806C173.086 82.4658 173.134 82.4648 173.179 82.4778C173.224 82.4908 173.264 82.5172 173.294 82.5534C173.324 82.5895 173.342 82.6339 173.346 82.6806C174.386 93.4219 177.679 103.47 183.226 112.825Z" fill="#EA8359"/>
<path d="M57.7211 82.8643L58.0811 83.9843C58.1213 84.1093 58.1335 84.2421 58.1169 84.3734C58.1004 84.5046 58.0554 84.6311 57.9851 84.7443C56.0757 87.7683 54.8331 91.1149 54.2571 94.7843L51.1211 97.9442L57.7211 82.8643Z" fill="#032E52"/>
<path d="M58.9771 91.3682C57.1318 95.0055 55.8757 98.5495 55.2091 102L55.4331 104.304C54.2011 109.643 53.9478 115.328 54.6731 121.36C55.0838 124.8 55.9611 127.525 57.3051 129.536C57.7211 131.269 58.2624 132.491 58.9291 133.2C58.3584 133.584 57.7451 133.757 57.0891 133.72C45.0171 135.576 44.2731 149.896 51.6971 157.16L55.4811 160.064C57.0224 161.712 56.3771 162.101 53.5451 161.232C53.3318 161.168 53.1398 161.205 52.9691 161.344C52.1211 162.021 51.2598 162.688 50.3851 163.344C48.9531 164.424 46.8971 164.624 45.5691 166.208C44.3691 167.656 44.9691 169.456 42.8971 170.88C42.6731 171.029 42.5158 171.235 42.4251 171.496C41.6411 173.696 40.8011 176.064 38.0891 175.512C37.9387 175.48 37.7819 175.507 37.6509 175.588C37.5199 175.668 37.4248 175.796 37.3851 175.944C37.2037 176.632 36.7264 176.949 35.9531 176.896C35.6438 176.88 35.4438 177.019 35.3531 177.312L35.2011 177.776C35.1051 178.075 34.9371 178.125 34.6971 177.928L34.2011 177.52C34.1558 177.481 34.0999 177.457 34.0406 177.451C33.9813 177.445 33.9214 177.458 33.8687 177.487C33.816 177.516 33.7729 177.561 33.7452 177.616C33.7174 177.67 33.7062 177.732 33.7131 177.792L33.8411 178.84C33.8784 179.128 33.7664 179.208 33.5051 179.08L32.4811 178.592C32.4664 178.584 32.4541 178.572 32.446 178.557C32.438 178.542 32.4346 178.525 32.4364 178.509C32.4382 178.493 32.445 178.478 32.456 178.467C32.4669 178.456 32.4813 178.45 32.4971 178.448L32.7771 178.4C32.9691 178.368 32.9958 178.285 32.8571 178.152L32.5931 177.88C32.4971 177.784 32.3878 177.771 32.2651 177.84C32.1691 177.899 32.0224 177.955 31.8251 178.008C27.3078 169.272 24.3558 160.035 22.9691 150.296C20.9851 135.216 20.8171 117.168 24.7611 102.352C27.4917 103.253 30.0544 104.437 32.4491 105.904C32.9291 106.2 33.1211 106.672 32.6811 107.112C31.9291 107.032 31.4784 107.344 31.3291 108.048C31.3069 108.151 31.3073 108.257 31.3303 108.359C31.3533 108.461 31.3984 108.557 31.4624 108.64C31.5264 108.723 31.6078 108.791 31.7008 108.84C31.7939 108.888 31.8964 108.916 32.0011 108.92C32.6411 108.947 33.1584 108.699 33.5531 108.176C33.6704 108.016 33.6758 107.851 33.5691 107.68L33.4011 107.408L35.0971 105.088C35.2411 104.891 35.4358 104.776 35.6811 104.744C39.4571 104.312 42.8624 102.955 45.8971 100.672C46.5211 100.203 47.6464 100.029 49.2731 100.152C49.5504 100.173 49.7291 100.048 49.8091 99.7762C50.0491 98.9495 50.4864 98.3388 51.1211 97.9442L54.2571 94.7842L58.9771 91.3682ZM29.6811 147.752C29.4624 148.355 29.6758 148.771 30.3211 149C30.4257 149.037 30.537 149.05 30.6471 149.038C30.7573 149.027 30.8636 148.991 30.9583 148.934C31.0531 148.876 31.1341 148.799 31.1954 148.707C31.2567 148.614 31.2969 148.51 31.3131 148.4C31.4784 147.312 31.0304 146.992 29.9691 147.44C29.8361 147.501 29.7326 147.614 29.6811 147.752Z" fill="#6DAF96"/>
<path d="M183.225 112.825C185.252 116.308 186.273 118.753 186.289 120.161C186.377 127.809 185.345 135.825 186.505 143.705L186.529 144.089C186.551 144.372 186.417 144.513 186.129 144.513H185.737C185.492 144.513 185.364 144.39 185.353 144.145C185.348 143.953 185.335 143.75 185.313 143.537C185.26 143.025 185.209 143.025 185.161 143.537C182.577 170.441 168.273 183.257 144.297 192.209C141.433 193.276 138.567 194.446 135.697 195.721L121.129 196.793L116.977 197.241C95.2173 193.801 78.5293 182.729 72.2653 160.625L71.7613 158.105C70.2253 152.409 70.6893 146.393 71.0573 138.705C71.3453 132.497 73.0253 125.873 73.5453 119.297C73.9693 113.793 78.0413 114.377 82.1293 114.185C83.116 114.137 84.1053 114.364 85.0973 114.865C88.4733 116.585 91.5213 117.873 95.4493 118.097C124.209 119.729 150.241 114.257 171.825 94.2009C172.065 93.9769 172.231 94.0248 172.321 94.3448C174.22 101.028 177.201 107.169 181.265 112.769C181.409 112.961 181.601 113.041 181.841 113.009L183.225 112.825ZM152.273 124.465C151.137 126.225 151.231 127.697 152.553 128.881C154.593 130.697 156.993 129.761 159.529 129.313C164.089 128.513 169.817 133.105 172.961 136.273C173.857 137.18 174.644 137.145 175.321 136.169C175.451 135.983 175.53 135.767 175.553 135.542C175.575 135.316 175.54 135.089 175.449 134.881C172.607 128.172 167.721 123.926 160.793 122.145C157.641 121.337 154.065 121.681 152.273 124.465ZM96.9213 122.881C90.4813 122.809 82.0973 127.073 80.6893 133.897C80.4813 134.91 80.8146 135.628 81.6893 136.049C81.9293 136.166 82.164 136.153 82.3933 136.009C87.5613 132.689 91.1453 128.369 97.9613 131.529C107.017 135.737 107.513 123.001 96.9213 122.881ZM82.7613 151.473C83.2466 153.761 84.2466 154.897 85.7613 154.881C89.9933 156.745 96.6173 158.673 101.233 157.065C101.328 157.031 101.408 156.966 101.463 156.881C101.518 156.796 101.544 156.695 101.537 156.593C101.516 156.241 101.356 156.073 101.057 156.089C106.873 152.065 106.089 144.729 100.601 141.081C94.2253 136.841 86.3853 139.545 82.2173 145.441C80.6279 147.686 80.8093 149.697 82.7613 151.473ZM152.457 150.841C151.897 153.748 153.447 155.854 157.105 157.161C160.657 158.425 174.145 158.745 173.505 152.209C175.169 150.113 175.689 148.033 174.041 145.657C167.785 136.625 151.601 137.497 152.457 150.841ZM173.025 159.009L171.785 160.025C171.726 160.074 171.676 160.134 171.64 160.201C171.604 160.269 171.582 160.344 171.574 160.42C171.567 160.497 171.574 160.574 171.597 160.648C171.619 160.721 171.656 160.79 171.705 160.849L172.001 161.201C172.391 161.676 172.868 162.047 173.327 162.233C173.786 162.419 174.19 162.405 174.449 162.193L174.633 162.041C174.762 161.936 174.852 161.785 174.897 161.597C174.942 161.41 174.941 161.189 174.895 160.947C174.849 160.706 174.758 160.448 174.628 160.19C174.498 159.931 174.331 159.677 174.137 159.441L173.849 159.089C173.801 159.029 173.741 158.98 173.673 158.944C173.605 158.908 173.53 158.885 173.454 158.878C173.377 158.87 173.3 158.878 173.227 158.9C173.153 158.923 173.085 158.96 173.025 159.009ZM113.489 178.825C117.463 181.316 121.729 183.182 126.289 184.425C131.687 185.55 136.828 184.732 141.713 181.969C145.1 180.39 148.14 178.369 150.833 175.905C151.153 175.612 151.103 175.508 150.681 175.593C138.425 178.062 126.321 178.857 114.369 177.977C108.055 176.926 108.023 177.548 102.721 175.313C102.332 175.148 102.1 175.27 102.025 175.681L101.873 176.433C101.82 176.726 101.937 176.908 102.225 176.977L113.489 178.825Z" fill="#FAA36A"/>
<path d="M219.817 114.313C219.684 112.115 219.225 110.19 218.441 108.537C218.391 108.43 218.317 108.337 218.224 108.265C218.131 108.193 218.021 108.143 217.905 108.121L214.577 107.497C214.469 107.476 214.371 107.419 214.298 107.336C214.225 107.253 214.182 107.149 214.176 107.038C214.169 106.928 214.2 106.819 214.262 106.728C214.325 106.637 214.416 106.57 214.521 106.537L217.769 105.529C218.041 105.443 218.204 105.259 218.257 104.977L218.769 102.305L219.473 99.1126C219.488 99.037 219.528 98.9692 219.588 98.9207C219.647 98.8722 219.721 98.8457 219.799 98.8457C219.876 98.8457 219.952 98.8722 220.014 98.9207C220.075 98.9692 220.119 99.037 220.137 99.1126C220.479 100.686 220.753 102.273 220.961 103.873C221.321 106.665 224.041 105.281 225.529 105.769C227.033 106.27 227.015 106.633 225.473 106.857C223.777 107.102 222.343 107.833 221.169 109.049C221.065 109.153 220.983 109.276 220.926 109.412C220.87 109.548 220.841 109.694 220.841 109.841C220.825 111.393 220.484 112.883 219.817 114.313Z" fill="#C8CD9C"/>
<path d="M55.209 102C56.4037 102.283 57.337 102.76 58.009 103.432C58.0718 103.495 58.113 103.576 58.1265 103.663C58.14 103.751 58.1252 103.841 58.0841 103.919C58.043 103.998 57.9778 104.061 57.8981 104.1C57.8184 104.139 57.7283 104.152 57.641 104.136C56.9743 104.024 56.2383 104.08 55.433 104.304L55.209 102Z" fill="#397C7B"/>
<path d="M32.6819 107.113C32.7192 107.241 32.9592 107.339 33.4019 107.409L33.5698 107.681C33.6765 107.852 33.6712 108.017 33.5539 108.177C33.1592 108.699 32.6419 108.947 32.0019 108.921C31.8971 108.916 31.7946 108.889 31.7016 108.84C31.6085 108.792 31.5272 108.724 31.4632 108.641C31.3992 108.558 31.3541 108.462 31.3311 108.36C31.308 108.257 31.3076 108.151 31.3299 108.049C31.4792 107.345 31.9299 107.033 32.6819 107.113Z" fill="#A5CBA5"/>
<path d="M152.274 124.464C154.066 121.68 157.642 121.336 160.794 122.144C167.722 123.925 172.607 128.171 175.45 134.88C175.54 135.088 175.576 135.315 175.553 135.541C175.531 135.766 175.451 135.982 175.322 136.168C174.644 137.144 173.858 137.179 172.962 136.272C169.818 133.104 164.09 128.512 159.53 129.312C156.994 129.76 154.594 130.696 152.554 128.88C151.231 127.696 151.138 126.224 152.274 124.464Z" fill="#220509"/>
<path d="M80.6898 133.897C82.0978 127.073 90.4818 122.809 96.9218 122.881C107.514 123.001 107.018 135.737 97.9618 131.529C91.1458 128.369 87.5618 132.689 82.3938 136.009C82.1645 136.153 81.9298 136.166 81.6898 136.049C80.8152 135.627 80.4818 134.91 80.6898 133.897Z" fill="#220509"/>
<path d="M197.353 133.217C200.217 134.873 203.753 135.785 206.017 137.793C211.305 142.497 212.121 149.249 208.265 155.257C203.697 162.361 195.305 165.017 187.225 162.153C186.932 162.051 186.737 162.147 186.641 162.441C179.953 182.153 162.329 192.177 143.305 196.857C141.396 197.166 139.465 197.081 137.513 196.601L135.697 195.721C138.567 194.446 141.433 193.275 144.297 192.209C168.273 183.257 182.577 170.441 185.161 143.537C185.209 143.025 185.26 143.025 185.313 143.537C185.335 143.75 185.348 143.953 185.353 144.145C185.364 144.39 185.492 144.513 185.737 144.513H186.129C186.417 144.513 186.551 144.371 186.529 144.089L186.505 143.705L187.737 147.105L187.145 159.449C187.141 159.57 187.171 159.69 187.234 159.795C187.296 159.9 187.388 159.986 187.497 160.041C191.681 162.121 197.673 157.569 199.801 154.409C203.049 149.577 197.561 144.969 194.081 142.681C193.868 142.542 193.721 142.347 193.641 142.097L192.537 138.521C192.5 138.398 192.468 138.401 192.441 138.529C191.601 142.817 192.161 144.433 195.505 147.145C195.597 147.22 195.658 147.326 195.676 147.444C195.693 147.563 195.667 147.684 195.601 147.785C195.42 148.046 195.225 148.238 195.017 148.361C191.055 145.065 190.068 140.918 192.057 135.921C192.153 135.681 192.319 135.507 192.553 135.401L197.353 133.217Z" fill="#F18B5E"/>
<path d="M58.9296 133.2C66.3376 136.04 64.2416 145.504 58.3056 148.52C57.2763 149.907 57.1643 151.422 57.9696 153.064C60.759 158.712 65.3563 160.392 71.7616 158.104L72.2656 160.624C68.175 162.848 63.9616 163.331 59.6256 162.072C58.2576 161.672 56.9696 160.56 55.4816 160.064L51.6976 157.16C48.9403 153.374 47.8043 149.342 48.2896 145.064C48.5536 142.736 50.4976 138.216 52.1616 136.72C53.4576 135.568 55.1003 134.568 57.0896 133.72C57.7456 133.758 58.359 133.584 58.9296 133.2Z" fill="#F18B5E"/>
<path d="M57.09 133.721C55.1007 134.569 53.458 135.569 52.162 136.721C50.498 138.217 48.554 142.737 48.29 145.065C47.8047 149.342 48.9407 153.374 51.698 157.161C44.274 149.897 45.018 135.577 57.09 133.721Z" fill="#C8CD9C"/>
<path d="M221.002 133.824L223.322 136.328C221.578 137.843 220.45 138.07 219.938 137.008L218.738 136.48C218.487 136.368 218.487 136.264 218.738 136.168C219.762 135.774 220.516 134.992 221.002 133.824Z" fill="#C8CD9C"/>
<path d="M223.322 136.328C224.228 137.336 224.722 138.445 224.802 139.656C225.506 150.648 225.682 164.28 220.362 174.048C220.154 174.44 213.298 188.888 217.738 186.48C204.575 207.232 186.3 221.515 162.914 229.328L161.306 223.12C162.154 221.979 162.943 221.291 163.674 221.056C169.21 219.264 174.7 217.344 180.146 215.296C184.49 213.656 189.162 211.296 191.754 207.248C196.122 200.411 200.791 193.747 205.762 187.256C206.802 187.384 207.663 187.736 208.346 188.312C208.548 188.483 208.663 188.699 208.69 188.96L209.234 193.56C209.292 194.029 209.428 194.053 209.642 193.632C210.634 191.656 210.466 189.92 211.21 188.336C211.338 188.069 211.548 187.931 211.842 187.92C212.812 187.883 213.596 187.52 214.194 186.832C214.244 186.774 214.279 186.703 214.293 186.628C214.308 186.552 214.302 186.474 214.277 186.401C214.252 186.328 214.208 186.263 214.15 186.212C214.092 186.161 214.021 186.127 213.946 186.112L211.842 185.704C211.686 185.672 211.539 185.605 211.411 185.51C211.282 185.415 211.175 185.293 211.098 185.152L209.01 181.368C208.62 180.392 208.556 179.331 208.818 178.184C208.983 177.464 209.447 176.547 210.21 175.432C214.866 168.632 215.954 161.656 217.858 154.256C219.372 148.357 220.066 142.608 219.938 137.008C220.45 138.069 221.578 137.843 223.322 136.328Z" fill="#6DAF96"/>
<path d="M187.737 147.105C190.436 149.083 192.862 149.502 195.017 148.361C195.225 148.238 195.42 148.046 195.601 147.785C195.667 147.684 195.693 147.562 195.675 147.444C195.658 147.326 195.597 147.219 195.505 147.145C192.161 144.433 191.601 142.817 192.441 138.529C192.468 138.401 192.5 138.398 192.537 138.521L193.641 142.097C193.721 142.347 193.868 142.542 194.081 142.681C197.561 144.969 203.049 149.577 199.801 154.409C197.673 157.569 191.681 162.121 187.497 160.041C187.387 159.986 187.296 159.9 187.233 159.795C187.171 159.69 187.14 159.57 187.145 159.449L187.737 147.105Z" fill="#CF7253"/>
<path d="M101.057 156.088C96.6814 158.064 91.7134 156.088 90.4574 151.52C89.6734 148.68 91.5534 143.832 95.0494 143.648C95.2038 143.64 95.3564 143.684 95.4832 143.772C95.61 143.861 95.7037 143.989 95.7495 144.137C95.7954 144.284 95.7908 144.443 95.7364 144.588C95.6821 144.733 95.5811 144.855 95.4494 144.936C94.6387 145.437 94.2841 146.144 94.3854 147.056C94.4138 147.307 94.5025 147.548 94.6439 147.757C94.7854 147.967 94.9754 148.139 95.1978 148.259C95.4201 148.379 95.6683 148.444 95.921 148.448C96.1738 148.451 96.4237 148.394 96.6494 148.28C99.2574 146.976 99.2174 144.448 96.5934 143.296C90.6094 140.656 84.0974 145.24 83.0254 151.264C82.9454 151.435 82.8574 151.504 82.7614 151.472C80.8094 149.696 80.6281 147.685 82.2174 145.44C86.3854 139.544 94.2254 136.84 100.601 141.08C106.089 144.728 106.873 152.064 101.057 156.088ZM92.6199 147.06C92.6711 147.096 92.7343 147.115 92.806 147.115C92.8777 147.115 92.9564 147.097 93.0377 147.06C93.119 147.023 93.2013 146.969 93.2798 146.901C93.3583 146.833 93.4315 146.753 93.4952 146.664C93.559 146.575 93.612 146.48 93.6514 146.384C93.6907 146.288 93.7155 146.193 93.7244 146.104C93.7333 146.016 93.726 145.935 93.7031 145.867C93.6802 145.799 93.6421 145.745 93.5909 145.708C93.5397 145.672 93.4765 145.653 93.4048 145.653C93.3331 145.653 93.2543 145.671 93.1731 145.708C93.0918 145.745 93.0095 145.799 92.931 145.867C92.8525 145.935 92.7793 146.015 92.7156 146.104C92.6518 146.193 92.5987 146.288 92.5594 146.384C92.5201 146.48 92.4953 146.575 92.4864 146.664C92.4775 146.753 92.4848 146.833 92.5077 146.901C92.5305 146.969 92.5687 147.023 92.6199 147.06Z" fill="#2D0909"/>
<path d="M173.505 152.209C172.345 139.817 155.658 140.545 158.682 147.209C158.778 147.421 158.92 147.61 159.098 147.762C159.276 147.913 159.484 148.024 159.71 148.086C159.935 148.148 160.171 148.159 160.401 148.12C160.631 148.08 160.85 147.99 161.042 147.857L162.297 146.977L163.53 145.505L165.114 147.153C164.079 151.243 161.57 152.769 157.586 151.729C157.379 151.674 157.161 151.691 156.966 151.777C156.77 151.863 156.611 152.013 156.513 152.203C156.415 152.392 156.384 152.61 156.427 152.819C156.469 153.028 156.581 153.216 156.746 153.353L157.914 154.337C158.175 154.555 158.22 154.811 158.049 155.105L157.353 156.345C155.156 155.678 153.524 153.843 152.457 150.841C151.601 137.497 167.786 136.625 174.042 145.657C175.69 148.033 175.169 150.113 173.505 152.209Z" fill="#220509"/>
<path d="M173.505 152.209C174.145 158.745 160.657 158.425 157.105 157.161C153.447 155.854 151.897 153.747 152.457 150.841C153.524 153.843 155.156 155.678 157.353 156.345C164.329 158.921 168.881 151.033 165.945 145.721C164.825 143.713 162.361 142.633 160.505 144.409C159.553 144.953 159.065 146.817 160.457 146.905C160.514 146.91 160.57 146.899 160.621 146.874C160.671 146.848 160.714 146.809 160.744 146.761C160.775 146.713 160.792 146.656 160.793 146.599C160.795 146.541 160.781 146.484 160.753 146.433C160.204 145.446 160.249 144.851 160.889 144.649C161.577 145.033 162.047 145.809 162.297 146.977L161.041 147.857C160.85 147.99 160.631 148.08 160.401 148.12C160.171 148.159 159.935 148.148 159.709 148.086C159.484 148.024 159.275 147.913 159.098 147.762C158.92 147.61 158.778 147.421 158.681 147.209C155.657 140.545 172.345 139.817 173.505 152.209Z" fill="#F8F5F3"/>
<path d="M101.057 156.089C101.356 156.073 101.516 156.241 101.537 156.593C101.544 156.694 101.518 156.796 101.463 156.881C101.408 156.966 101.328 157.03 101.233 157.065C96.6174 158.673 89.9934 156.745 85.7614 154.881C84.2254 154.081 83.3134 152.875 83.0254 151.265C84.0974 145.241 90.6094 140.657 96.5934 143.297C99.2174 144.449 99.2574 146.977 96.6494 148.281C96.4237 148.394 96.1738 148.452 95.921 148.448C95.6683 148.445 95.4201 148.38 95.1978 148.26C94.9754 148.14 94.7854 147.967 94.6439 147.758C94.5025 147.548 94.4138 147.308 94.3854 147.057C94.284 146.145 94.6387 145.438 95.4494 144.937C95.5811 144.856 95.6821 144.733 95.7364 144.588C95.7908 144.444 95.7954 144.285 95.7495 144.137C95.7037 143.99 95.61 143.861 95.4832 143.773C95.3564 143.685 95.2038 143.641 95.0494 143.649C91.5534 143.833 89.6734 148.681 90.4574 151.521C91.7134 156.089 96.6814 158.065 101.057 156.089Z" fill="#F8F5F3"/>
<path d="M157.354 156.345L158.05 155.105C158.22 154.811 158.175 154.555 157.914 154.337L156.746 153.353C156.582 153.216 156.469 153.028 156.427 152.819C156.384 152.61 156.415 152.392 156.513 152.203C156.611 152.013 156.771 151.863 156.966 151.777C157.161 151.691 157.38 151.674 157.586 151.729C161.57 152.769 164.079 151.243 165.114 147.153C165.626 146.065 165.098 145.515 163.53 145.505L162.298 146.977C162.047 145.809 161.578 145.033 160.89 144.649C160.916 144.595 160.788 144.515 160.506 144.409C162.362 142.633 164.826 143.713 165.946 145.721C168.882 151.033 164.33 158.921 157.354 156.345Z" fill="#4C1813"/>
<path d="M160.506 144.408C160.789 144.515 160.917 144.595 160.89 144.648C160.25 144.851 160.205 145.446 160.754 146.432C160.782 146.483 160.796 146.54 160.794 146.598C160.792 146.656 160.776 146.712 160.745 146.76C160.715 146.809 160.672 146.848 160.622 146.873C160.571 146.899 160.514 146.909 160.458 146.904C159.066 146.816 159.554 144.952 160.506 144.408Z" fill="#356E6E"/>
<path d="M165.113 147.153L163.529 145.505C165.097 145.516 165.625 146.065 165.113 147.153Z" fill="#73382A"/>
<path d="M92.7154 146.105C92.4472 146.478 92.4044 146.906 92.6197 147.06C92.8349 147.215 93.2268 147.038 93.495 146.665C93.7631 146.292 93.8059 145.864 93.5907 145.709C93.3754 145.554 92.9835 145.732 92.7154 146.105Z" fill="#A2825D"/>
<path d="M29.6816 147.752C29.7331 147.614 29.8367 147.501 29.9696 147.44C31.031 146.992 31.479 147.312 31.3136 148.4C31.2974 148.51 31.2573 148.614 31.1959 148.707C31.1346 148.799 31.0537 148.876 30.9589 148.934C30.8641 148.991 30.7578 149.027 30.6477 149.038C30.5375 149.05 30.4262 149.037 30.3216 149C29.6763 148.771 29.463 148.355 29.6816 147.752Z" fill="#A5CBA5"/>
<path d="M83.0257 151.265C83.3137 152.875 84.2257 154.081 85.7617 154.881C84.2471 154.897 83.2471 153.761 82.7617 151.473C82.8577 151.505 82.9457 151.435 83.0257 151.265Z" fill="#D3A168"/>
<path d="M173.025 159.009C173.085 158.96 173.153 158.923 173.226 158.901C173.3 158.878 173.377 158.87 173.454 158.878C173.53 158.885 173.605 158.908 173.673 158.944C173.74 158.98 173.8 159.029 173.849 159.089L174.137 159.441C174.331 159.677 174.498 159.931 174.628 160.19C174.758 160.448 174.849 160.706 174.895 160.947C174.941 161.189 174.942 161.41 174.897 161.598C174.852 161.785 174.762 161.936 174.633 162.041L174.449 162.193C174.19 162.405 173.786 162.419 173.327 162.233C172.868 162.047 172.391 161.676 172.001 161.201L171.705 160.849C171.656 160.79 171.619 160.721 171.597 160.648C171.574 160.574 171.567 160.497 171.574 160.42C171.581 160.344 171.604 160.269 171.64 160.202C171.676 160.134 171.726 160.074 171.785 160.025L173.025 159.009Z" fill="#FCC093"/>
<path d="M55.4812 160.064C56.9692 160.56 58.2572 161.672 59.6252 162.072C63.9612 163.331 68.1745 162.848 72.2652 160.624C78.5292 182.728 95.2172 193.8 116.977 197.24C117.153 199.043 116.689 199.824 115.585 199.584C108.359 202.774 102.985 208.198 99.4652 215.856C97.4065 220.331 95.9932 224.675 95.2252 228.888C95.221 228.923 95.2282 228.958 95.2457 228.987C95.2632 229.016 95.2898 229.038 95.3212 229.048C95.3905 229.07 95.4599 229.091 95.5292 229.112C95.7372 229.176 95.8599 229.102 95.8972 228.888C97.7052 218.792 102.825 208.472 111.329 202.416C112.044 202.79 112.727 202.699 113.377 202.144C113.601 201.952 113.833 201.939 114.073 202.104C114.431 202.355 114.759 202.504 115.057 202.552L115.233 206.728C115.238 206.865 115.285 206.996 115.368 207.106C115.451 207.216 115.565 207.299 115.697 207.344C116.801 207.718 117.663 207.416 118.281 206.44C118.37 206.298 118.505 206.182 118.664 206.111C118.823 206.039 118.996 206.017 119.155 206.048C119.314 206.079 119.45 206.16 119.54 206.28C119.63 206.399 119.668 206.549 119.649 206.704C119.447 208.496 120.135 209.64 121.713 210.136C121.996 210.227 122.204 210.139 122.337 209.872L123.721 207.12C123.751 207.06 123.795 207.009 123.85 206.97C123.904 206.931 123.967 206.906 124.034 206.897C124.1 206.889 124.168 206.896 124.23 206.92C124.293 206.943 124.349 206.982 124.393 207.032L127.225 210.304C127.412 210.518 127.659 210.67 127.933 210.741C128.207 210.813 128.497 210.801 128.764 210.706C129.031 210.611 129.263 210.438 129.431 210.21C129.599 209.981 129.695 209.708 129.705 209.424C129.737 208.502 130.033 207.542 130.593 206.544L130.681 206.344C130.788 206.104 130.887 206.107 130.977 206.352C131.532 207.878 132.449 209.142 133.729 210.144C133.852 210.241 134.003 210.296 134.16 210.3C134.317 210.305 134.471 210.259 134.601 210.168C136.025 209.187 136.775 207.814 136.849 206.048C136.855 205.904 136.912 205.766 137.01 205.66C137.108 205.554 137.24 205.486 137.384 205.468C137.527 205.451 137.672 205.485 137.793 205.565C137.913 205.645 138.001 205.765 138.041 205.904C138.319 206.854 139.087 207.512 140.345 207.88C141.071 208.584 141.855 209.051 142.697 209.28C142.812 209.311 142.919 209.367 143.01 209.444C143.102 209.522 143.175 209.619 143.225 209.728C143.711 210.806 144.007 211.8 144.113 212.712C144.812 218.824 145.279 225.779 145.513 233.576L134.209 235.168C124.849 235.654 115.801 234.968 107.065 233.112C107.039 228.211 107.644 223.411 108.881 218.712C109.031 218.152 108.972 218.131 108.705 218.648C106.449 223.016 104.927 227.63 104.137 232.488C72.7452 226.44 46.5372 206.2 31.8252 178.008C32.0225 177.955 32.1692 177.899 32.2652 177.84C32.3879 177.771 32.4972 177.784 32.5932 177.88L32.8572 178.152C32.9959 178.286 32.9692 178.368 32.7772 178.4L32.4972 178.448C32.4814 178.45 32.467 178.456 32.4561 178.467C32.4451 178.478 32.4383 178.493 32.4365 178.509C32.4347 178.525 32.4381 178.542 32.4461 178.557C32.4542 178.572 32.4665 178.584 32.4812 178.592L33.5052 179.08C33.7665 179.208 33.8785 179.128 33.8412 178.84L33.7132 177.792C33.7063 177.732 33.7175 177.67 33.7453 177.616C33.773 177.562 33.8161 177.517 33.8688 177.487C33.9215 177.458 33.9814 177.445 34.0407 177.451C34.1 177.457 34.1559 177.481 34.2012 177.52L34.6972 177.928C34.9372 178.126 35.1052 178.075 35.2012 177.776L35.3532 177.312C35.4439 177.019 35.6439 176.88 35.9532 176.896C36.7265 176.95 37.2038 176.632 37.3852 175.944C37.4249 175.796 37.52 175.668 37.651 175.588C37.782 175.508 37.9388 175.481 38.0892 175.512C40.8012 176.064 41.6412 173.696 42.4252 171.496C42.5159 171.235 42.6732 171.03 42.8972 170.88C44.9692 169.456 44.3692 167.656 45.5692 166.208C46.8972 164.624 48.9532 164.424 50.3852 163.344C51.2598 162.688 52.1212 162.022 52.9692 161.344C53.1399 161.206 53.3319 161.168 53.5452 161.232C56.3772 162.102 57.0225 161.712 55.4812 160.064Z" fill="#52A091"/>
<path d="M119.806 180.312C119.102 180.477 118.809 180.76 118.926 181.16L101.886 177.048C101.598 176.978 101.481 176.797 101.534 176.504L101.686 175.752C101.761 175.341 101.993 175.218 102.382 175.384C107.683 177.618 113.491 179.261 119.806 180.312Z" fill="#CF7253"/>
<path d="M141.713 181.968C140.865 181.446 139.964 181.158 139.009 181.104C138.742 181.088 138.508 180.992 138.305 180.816C137.217 179.84 135.993 179.43 134.633 179.584C130.745 180.032 127.689 179.824 126.289 184.424C120.721 183.712 112.721 183.568 103.921 176.512C103.804 176.112 108.321 176.912 114.369 177.976C126.321 178.856 138.425 178.062 150.681 175.592C151.103 175.507 151.153 175.611 150.833 175.904C148.14 178.368 145.1 180.39 141.713 181.968Z" fill="#2D0909"/>
<path d="M141.713 181.968C136.828 184.731 131.686 185.55 126.289 184.424C127.689 179.824 130.745 180.032 134.633 179.584C135.993 179.43 137.217 179.84 138.305 180.816C138.508 180.992 138.742 181.088 139.009 181.104C139.964 181.158 140.865 181.446 141.713 181.968Z" fill="#932318"/>
<path d="M205.762 187.256C203.394 186.653 204.268 186.283 208.386 186.144C208.716 186.133 208.887 185.963 208.898 185.632L209.01 181.368L211.098 185.152C211.176 185.293 211.282 185.415 211.411 185.51C211.539 185.605 211.686 185.672 211.842 185.704L213.946 186.112C214.022 186.127 214.092 186.161 214.15 186.212C214.208 186.263 214.252 186.328 214.277 186.401C214.302 186.474 214.308 186.552 214.293 186.628C214.279 186.703 214.244 186.774 214.194 186.832C213.596 187.52 212.812 187.883 211.842 187.92C211.548 187.931 211.338 188.069 211.21 188.336C210.466 189.92 210.634 191.656 209.642 193.632C209.428 194.053 209.292 194.029 209.234 193.56L208.69 188.96C208.663 188.699 208.548 188.483 208.346 188.312C207.663 187.736 206.802 187.384 205.762 187.256Z" fill="#C8CD9C"/>
<path d="M184.882 193.617L184.938 190.881C184.934 190.79 184.965 190.702 185.023 190.634C185.082 190.565 185.164 190.521 185.253 190.51C185.343 190.498 185.433 190.521 185.507 190.574C185.58 190.626 185.631 190.704 185.65 190.793L186.514 193.929C186.583 194.174 186.732 194.35 186.962 194.457L187.842 194.889C187.902 194.919 187.954 194.965 187.992 195.021C188.03 195.077 188.053 195.142 188.059 195.209C188.064 195.276 188.052 195.342 188.024 195.403C187.996 195.463 187.952 195.515 187.898 195.553C187.466 195.857 186.98 195.969 186.442 195.889C185.855 195.809 185.692 196.035 185.954 196.569C186.279 197.235 186.223 197.875 185.786 198.489C185.753 198.535 185.706 198.57 185.652 198.588C185.598 198.606 185.54 198.605 185.486 198.587C185.432 198.569 185.386 198.535 185.353 198.488C185.321 198.441 185.304 198.385 185.306 198.329C185.338 197.369 185.159 196.475 184.77 195.649C184.708 195.517 184.605 195.41 184.476 195.342C184.348 195.274 184.201 195.25 184.058 195.273C183.354 195.39 182.674 195.321 182.018 195.065C181.963 195.043 181.917 195.004 181.886 194.954C181.855 194.904 181.841 194.845 181.847 194.787C181.852 194.728 181.877 194.673 181.916 194.629C181.955 194.585 182.008 194.556 182.066 194.545L184.474 194.097C184.74 194.049 184.876 193.889 184.882 193.617Z" fill="#C8CD9C"/>
<path d="M135.698 195.721L137.514 196.601C135.727 201.081 131.981 202.934 126.274 202.161C123.165 201.739 121.45 199.95 121.13 196.793L135.698 195.721Z" fill="#CF7253"/>
<path d="M137.514 196.601C139.466 197.081 141.397 197.166 143.306 196.857C143.946 196.681 144.167 197.115 143.97 198.161C143.917 198.433 144.01 198.638 144.25 198.777C154.386 204.681 158.026 212.481 161.306 223.121L162.914 229.329L153.138 232.009C153.081 232.025 153.022 232.028 152.963 232.018C152.905 232.009 152.849 231.986 152.8 231.952C152.75 231.917 152.708 231.873 152.677 231.82C152.646 231.768 152.626 231.709 152.618 231.649C152.079 226.87 151.002 222.214 149.386 217.681C149.358 217.613 149.307 217.558 149.242 217.525C149.177 217.492 149.103 217.483 149.032 217.501C148.961 217.518 148.899 217.56 148.857 217.62C148.815 217.679 148.795 217.752 148.802 217.825C149.495 222.646 149.791 227.489 149.69 232.353C149.679 232.651 149.53 232.827 149.242 232.881L145.514 233.577C145.279 225.779 144.813 218.825 144.114 212.713C144.007 211.801 143.711 210.806 143.226 209.729C143.176 209.619 143.103 209.522 143.011 209.444C142.92 209.367 142.813 209.311 142.698 209.281C141.855 209.051 141.071 208.585 140.346 207.881C142.77 207.881 142.698 203.489 142.786 201.721C142.789 201.646 142.769 201.573 142.73 201.51C142.691 201.447 142.634 201.396 142.566 201.366C142.499 201.335 142.423 201.325 142.35 201.337C142.277 201.349 142.208 201.382 142.154 201.433C138.938 204.451 134.986 205.918 130.298 205.833C125.578 206.209 119.114 205.833 116.306 201.521C116.141 201.265 115.922 201.206 115.65 201.345C115.314 201.515 115.117 201.918 115.058 202.553C114.759 202.505 114.431 202.355 114.074 202.105C113.834 201.939 113.602 201.953 113.378 202.145C112.727 202.699 112.045 202.79 111.33 202.417C113.303 201.627 114.722 200.683 115.586 199.585C116.69 199.825 117.154 199.043 116.978 197.241L121.13 196.793C121.45 199.95 123.165 201.739 126.274 202.161C131.981 202.934 135.727 201.081 137.514 196.601Z" fill="#48928C"/>
<path d="M115.586 199.584C114.722 200.683 113.303 201.627 111.33 202.416C102.826 208.472 97.7058 218.792 95.8978 228.888C95.8604 229.101 95.7378 229.176 95.5298 229.112C95.4605 229.091 95.3911 229.069 95.3218 229.048C95.2904 229.037 95.2638 229.016 95.2463 228.987C95.2288 228.957 95.2216 228.923 95.2258 228.888C95.9938 224.675 97.4071 220.331 99.4658 215.856C102.986 208.197 108.359 202.773 115.586 199.584Z" fill="#AECD9E"/>
<path d="M130.298 205.833L130.594 206.545C130.034 207.542 129.738 208.502 129.706 209.425C129.695 209.708 129.6 209.981 129.432 210.21C129.264 210.438 129.031 210.611 128.764 210.706C128.497 210.801 128.208 210.813 127.933 210.742C127.659 210.67 127.412 210.518 127.226 210.305L124.394 207.033C124.349 206.982 124.293 206.944 124.231 206.92C124.168 206.896 124.101 206.889 124.034 206.897C123.968 206.906 123.904 206.931 123.85 206.97C123.795 207.009 123.751 207.061 123.722 207.121L122.338 209.873C122.204 210.139 121.996 210.227 121.714 210.137C120.135 209.641 119.447 208.497 119.65 206.705C119.669 206.549 119.63 206.399 119.54 206.28C119.451 206.16 119.315 206.079 119.156 206.048C118.996 206.017 118.823 206.039 118.664 206.111C118.505 206.182 118.37 206.298 118.282 206.441C117.663 207.417 116.802 207.718 115.698 207.345C115.566 207.299 115.451 207.216 115.368 207.106C115.285 206.996 115.238 206.865 115.234 206.729L115.058 202.553C115.116 201.918 115.314 201.515 115.65 201.345C115.922 201.206 116.14 201.265 116.306 201.521C119.114 205.833 125.578 206.209 130.298 205.833Z" fill="#F1E8B9"/>
<path d="M140.346 207.881C139.087 207.513 138.319 206.854 138.042 205.905C138.002 205.766 137.914 205.646 137.794 205.566C137.673 205.486 137.528 205.451 137.385 205.469C137.241 205.486 137.108 205.554 137.01 205.66C136.912 205.767 136.855 205.904 136.85 206.049C136.775 207.814 136.026 209.188 134.602 210.169C134.472 210.259 134.317 210.305 134.16 210.301C134.003 210.297 133.852 210.242 133.73 210.145C132.45 209.142 131.533 207.878 130.978 206.353C130.887 206.108 130.789 206.105 130.682 206.345L130.594 206.545L130.298 205.833C134.986 205.918 138.938 204.452 142.154 201.433C142.208 201.382 142.276 201.349 142.35 201.337C142.423 201.325 142.498 201.335 142.566 201.366C142.634 201.397 142.691 201.447 142.73 201.51C142.769 201.573 142.788 201.647 142.786 201.721C142.698 203.489 142.77 207.881 140.346 207.881Z" fill="#C8CD9C"/>
<path d="M107.066 233.112L104.138 232.488C104.927 227.629 106.45 223.016 108.706 218.648C108.972 218.131 109.031 218.152 108.882 218.712C107.644 223.411 107.039 228.211 107.066 233.112Z" fill="#397C7B"/>
</svg>
