<svg width="256" height="256" viewBox="0 0 256 256" fill="none" xmlns="http://www.w3.org/2000/svg">
<path d="M45.1942 67.5703C42.1009 76.189 40.4049 85.293 40.1062 94.8823C39.7329 106.808 40.3436 119.141 41.9382 131.882" stroke="#978D91" stroke-width="2"/>
<path d="M41.9375 131.883L42.0415 136.355" stroke="#D1B1A3" stroke-width="2"/>
<path d="M42.042 136.354C42.3407 139.794 43.106 143.17 44.338 146.482" stroke="#F6D1BF" stroke-width="2"/>
<path d="M44.3379 146.482C48.5299 167.482 56.3379 188.098 68.3139 205.946" stroke="#978D91" stroke-width="2"/>
<path d="M68.3145 205.947L68.5384 206.283" stroke="#A0CAC5" stroke-width="2"/>
<path d="M68.5389 206.284L63.419 209.308C63.1683 209.452 63.139 209.633 63.331 209.852C97.619 249.14 160.371 248.94 194.619 209.836C194.827 209.601 194.792 209.407 194.515 209.252L188.043 205.588" stroke="#E8EEEE" stroke-width="2"/>
<path d="M188.042 205.587C191.589 200.142 194.666 194.64 197.274 189.083" stroke="#978D91" stroke-width="2"/>
<path d="M197.275 189.082C203.281 176.074 207.681 162.541 210.475 148.482" stroke="#91888C" stroke-width="2"/>
<path d="M210.475 148.483C210.933 147.427 211.435 146.411 211.979 145.435C214.96 140.069 215.456 134.512 213.467 128.763" stroke="#EDC8B7" stroke-width="2"/>
<path d="M213.467 128.762C218.243 97.3544 215.971 65.1224 193.675 40.4824" stroke="#978D91" stroke-width="2"/>
<path d="M193.673 40.4828C178.625 23.7708 148.785 7.53881 126.433 20.9788C126.322 21.0454 126.197 21.0838 126.069 21.0908C125.94 21.0977 125.813 21.073 125.697 21.0188C112.169 14.5148 98.3854 15.3868 84.8254 21.7868C65.7454 30.7868 51.8734 47.7148 45.1934 67.5708" stroke="#A69B9D" stroke-width="2"/>
<path d="M193.673 40.4824C193.033 40.9891 192.983 41.5144 193.521 42.0584C197.079 45.6691 200.1 49.7971 202.585 54.4424C202.671 54.6041 202.715 54.7846 202.714 54.9677C202.712 55.1507 202.664 55.3303 202.575 55.4902C202.486 55.6501 202.358 55.7852 202.203 55.8831C202.049 55.9809 201.872 56.0384 201.689 56.0504C190.057 56.7624 177.617 55.4824 165.865 54.7704C160.393 54.4344 154.273 49.9384 149.161 48.3544C130.74 42.6691 112.983 44.5757 95.8894 54.0744C92.9534 55.7064 87.3294 61.3864 82.3534 62.7784C70.3 66.1331 57.9134 67.7304 45.1934 67.5704" stroke="#3E2A30" stroke-width="2"/>
<path d="M213.466 128.762C210.986 123.914 207.279 121.831 202.346 122.514C198.626 123.034 197.354 127.098 195.786 130.978" stroke="#85574A" stroke-width="2"/>
<path d="M195.785 130.979C191.097 93.1148 170.545 55.8588 127.465 56.1788C87.8493 56.4748 68.3773 90.2908 61.7373 124.483" stroke="#7B4E43" stroke-width="2"/>
<path d="M61.7388 124.482L60.6428 130.482C60.5788 130.855 60.4909 130.861 60.3789 130.498C59.4909 127.522 56.1868 121.25 52.2988 121.842C46.6988 122.695 43.2962 125.903 42.0908 131.466" stroke="#8F6152" stroke-width="2"/>
<path d="M42.0895 131.467C42.1695 131.675 42.1188 131.813 41.9375 131.883" stroke="#6A4036" stroke-width="2"/>
<path d="M210.475 148.482C205.643 152.029 200.217 152.912 194.195 151.13C193.689 150.976 193.326 151.141 193.107 151.626C188.211 162.464 181.086 171.397 171.731 178.426C163.299 184.762 152.795 188.466 142.403 191.098" stroke="#7F5245" stroke-width="2"/>
<path d="M142.403 191.099C138.046 192.037 133.427 192.563 128.547 192.675" stroke="#D18969" stroke-width="2"/>
<path d="M128.546 192.676C127.863 188.025 127.85 183.372 128.506 178.716" stroke="#E59C77" stroke-width="2"/>
<path d="M128.506 178.715C134.047 178.848 139.157 176.875 143.834 172.795" stroke="#D87D68" stroke-width="2"/>
<path d="M143.834 172.794C147.002 169.696 149.018 165.704 149.882 160.818C150.226 158.874 149.89 155.906 147.146 156.714" stroke="#C26B59" stroke-width="2"/>
<path d="M147.146 156.714C144.138 156.618 140.458 156.727 136.106 157.042C128.117 157.629 119.717 157.365 110.906 156.25" stroke="#EDC8B7" stroke-width="2"/>
<path d="M110.906 156.252C111.813 155.66 112.546 155.385 113.106 155.428C118.413 155.844 123.722 156.132 129.034 156.292C129.65 156.308 130.13 155.988 130.65 155.708C130.837 155.601 130.901 155.444 130.842 155.236L130.666 154.604C130.565 154.241 130.605 153.894 130.786 153.564C131.138 152.918 131.325 152.22 131.346 151.468C131.357 151.222 131.24 151.1 130.994 151.1C126.666 151.052 122.826 151.276 122.154 145.748C122.138 145.62 122.165 145.491 122.231 145.381C122.297 145.271 122.397 145.185 122.518 145.138C122.638 145.091 122.771 145.084 122.896 145.119C123.021 145.154 123.132 145.229 123.21 145.332C125.6 148.527 128.466 149.183 131.81 147.3C137.594 144.044 130.706 140.732 128.194 139.516C127.866 139.358 127.589 139.11 127.395 138.802C127.201 138.493 127.098 138.136 127.098 137.772L127.106 66.7158" stroke="#E59C77" stroke-width="2"/>
<path d="M195.786 130.979C195.754 131.939 195.424 132.875 194.794 133.787C194.645 134.006 194.536 133.987 194.466 133.731C193.746 131.131 193.514 128.459 192.674 126.011C190.573 119.862 189.066 115.673 188.154 113.443C177.914 88.3632 156.25 65.9952 127.106 66.7152" stroke="#D18969" stroke-width="2"/>
<path d="M127.105 66.7158C95.8573 68.9238 74.0413 96.9398 63.2813 124.124C63.18 124.369 62.9986 124.489 62.7373 124.484H61.7373" stroke="#DB9271" stroke-width="2"/>
<path d="M110.907 156.25L110.275 156.482" stroke="#F6D1BF" stroke-width="2"/>
<path d="M110.274 156.483C103.09 156.067 111.898 170.355 113.546 172.171" stroke="#CB7461" stroke-width="2"/>
<path d="M113.547 172.17C117.558 176.303 122.544 178.485 128.507 178.714" stroke="#E28770" stroke-width="2"/>
<path d="M128.547 192.675C123.982 192.803 119.382 192.267 114.747 191.067" stroke="#DB9271" stroke-width="2"/>
<path d="M114.746 191.066C95.4344 187.002 78.6184 176.834 68.1544 159.834C66.8958 157.786 65.3438 154.991 63.4984 151.45C63.3704 151.204 63.1758 151.119 62.9145 151.194C57.7465 152.666 51.3704 152.874 47.1064 149.05" stroke="#895C4D" stroke-width="2"/>
<path d="M47.1059 149.05L44.3379 146.482" stroke="#8F6152" stroke-width="2"/>
<path d="M42.042 136.355C42.4633 134.723 42.4793 133.093 42.09 131.467" stroke="#C98564" stroke-width="2"/>
<path d="M143.835 172.794C140.107 167.637 135.323 164.781 129.483 164.226C123.573 163.666 118.24 165.762 113.483 170.514C113.301 170.696 113.283 170.893 113.427 171.106C113.715 171.528 113.755 171.882 113.547 172.17" stroke="#BF5651" stroke-width="2"/>
<path d="M147.147 156.714C137.003 163.474 120.099 165.434 110.275 156.482" stroke="#D3A0A0" stroke-width="2"/>
<path d="M149.906 193.195C149.432 193.349 149.229 193.709 149.298 194.275C149.336 194.595 149.2 194.784 148.89 194.843L147.21 195.155C146.933 195.208 146.669 195.299 146.418 195.427C137.77 199.931 128.258 199.939 119.178 197.475C115.818 196.563 112.698 194.992 109.818 192.763" stroke="#D18969" stroke-width="2"/>
<path d="M197.274 189.083C196.24 187.792 196.328 186.563 197.538 185.395C197.721 185.218 197.846 184.992 197.898 184.747C198.546 181.475 200.53 178.891 201.386 176.099C203.026 170.755 205.122 165.259 206.402 159.835C206.605 158.987 207.034 157.944 207.69 156.707C208.245 155.656 208.68 153.744 208.994 150.971C209.016 150.768 208.933 150.707 208.746 150.787C206.149 151.928 204.216 153.702 202.946 156.107C194.578 171.963 187.13 184.819 172.762 196.123C172.138 196.614 171.842 197.411 171.874 198.515" stroke="#29171F" stroke-width="2"/>
<path d="M171.874 198.514C165.538 196.285 158.999 194.706 152.258 193.778" stroke="#325553" stroke-width="2"/>
<path d="M152.258 193.779L149.906 193.195" stroke="#7F5245" stroke-width="2"/>
<path d="M149.907 193.195L142.403 191.099" stroke="#75493E" stroke-width="2"/>
<path d="M47.1057 149.05C46.7431 149.668 46.8631 150.162 47.4657 150.53C50.7057 152.522 53.4818 157.034 55.2178 160.378C61.0018 171.522 68.1777 181.994 77.1857 190.778C79.7831 193.306 82.4177 195.847 85.0897 198.402" stroke="#29171F" stroke-width="2"/>
<path d="M85.0904 198.403L68.3145 205.947" stroke="#385A58" stroke-width="2"/>
<path d="M114.746 191.067L109.818 192.763" stroke="#75493E" stroke-width="2"/>
<path d="M109.818 192.763L104.834 193.747" stroke="#7F5245" stroke-width="2"/>
<path d="M104.835 193.747C98.1948 194.712 91.6135 196.264 85.0908 198.403" stroke="#325553" stroke-width="2"/>
<path d="M152.258 193.779C149.97 200.819 145.509 205.704 138.874 208.435C128.97 212.515 115.554 210.595 108.938 201.443C107.669 199.683 106.301 197.118 104.834 193.747" stroke="#8E957E" stroke-width="2"/>
<path d="M188.457 205.842C186.606 208.444 184.07 210.703 180.849 212.618C147.289 232.538 101.105 231.65 69.8571 207.522C69.3718 207.148 68.9318 206.735 68.5371 206.282" stroke="#89BBB5" stroke-width="2"/>
<path d="M188.042 205.588C188.181 205.673 188.319 205.759 188.458 205.844" stroke="#807D81" stroke-width="2"/>
<path d="M188.459 205.844L171.875 198.516" stroke="#385A58" stroke-width="2"/>
<path d="M66.898 40.0428C63.37 45.7868 70.73 47.2507 74.586 46.9707C75.674 46.8961 77.8794 46.5174 81.202 45.8348C87.21 44.6108 124.018 33.3948 120.402 23.9868C120.301 23.7308 120.13 23.5361 119.89 23.4028C117.922 22.3041 115.933 21.7814 113.922 21.8348C100.013 22.1868 87.0447 25.9307 75.0181 33.0667C72.2821 34.6907 68.33 37.7228 66.898 40.0428Z" stroke="#5C4545" stroke-width="2"/>
<path d="M69.3133 51.0805C69.2429 50.6035 69.0186 50.154 68.6532 49.7576C68.2879 49.3612 67.7886 49.0257 67.1839 48.7703C66.5793 48.5149 65.8811 48.3446 65.1292 48.2691C64.3773 48.1936 63.5864 48.2144 62.8017 48.3302C62.017 48.4461 61.2539 48.6548 60.5559 48.9444C59.8579 49.234 59.2387 49.5989 58.7337 50.0181C58.2287 50.4374 57.8477 50.9028 57.6125 51.3879C57.3773 51.873 57.2925 52.3681 57.3629 52.8452C57.4333 53.3222 57.6576 53.7718 58.023 54.1682C58.3884 54.5646 58.8876 54.9 59.4923 55.1554C60.097 55.4108 60.7952 55.5811 61.5471 55.6566C62.299 55.7322 63.0898 55.7114 63.8745 55.5955C64.6592 55.4796 65.4223 55.271 66.1203 54.9814C66.8183 54.6917 67.4375 54.3269 67.9425 53.9076C68.4476 53.4884 68.8286 53.0229 69.0638 52.5378C69.299 52.0528 69.3837 51.5576 69.3133 51.0805Z" stroke="#5C4545" stroke-width="2"/>
<path d="M159.746 97.4917C150.818 95.2597 150.834 105.9 157.17 106.62C163.692 107.361 170.22 108.318 176.754 109.492C177.09 109.556 177.3 109.42 177.386 109.084C178.698 103.884 163.402 98.4037 159.746 97.4917Z" stroke="#7F5245" stroke-width="2"/>
<path d="M149.498 134.482C153.514 147.698 168.602 147.826 175.666 137.33" stroke="#EDC8B7" stroke-width="2"/>
<path d="M175.666 137.33L177.866 132.626C178.005 132.327 178.237 132.207 178.562 132.266C179.063 132.357 179.415 132.218 179.618 131.85C179.694 131.714 179.736 131.562 179.74 131.406C179.745 131.25 179.711 131.095 179.642 130.954L178.858 129.378C178.629 128.914 178.77 128.639 179.282 128.554C182.498 128.002 182.162 125.49 179.05 126.17C178.421 126.309 177.946 126.095 177.626 125.53C173.082 117.394 159.306 112.266 152.266 120.634C149.029 124.479 148.106 129.095 149.498 134.482" stroke="#794D3B" stroke-width="2"/>
<path d="M175.666 137.33C177.874 128.973 175.01 123.442 167.074 120.738C166.861 120.434 166.61 120.357 166.322 120.506C165.992 120.682 166.008 120.813 166.37 120.898C168.312 121.352 169.658 122.472 170.41 124.258" stroke="#8A8383" stroke-width="2"/>
<path d="M170.41 124.259C169.695 125.006 169.143 124.995 168.754 124.227C168.678 124.064 168.543 123.935 168.376 123.867C168.21 123.799 168.023 123.797 167.855 123.861C167.687 123.925 167.549 124.05 167.469 124.212C167.389 124.373 167.374 124.559 167.426 124.731C170.93 138.163 153.602 139.947 154.322 128.531C154.329 128.404 154.298 128.277 154.232 128.167C154.167 128.057 154.07 127.969 153.954 127.915C153.682 127.782 153.41 127.771 153.138 127.883" stroke="#502A1F" stroke-width="2"/>
<path d="M153.138 127.883L153.042 126.411C153.037 126.321 153.003 126.237 152.945 126.169C152.887 126.101 152.809 126.053 152.721 126.034C152.633 126.014 152.541 126.023 152.457 126.059C152.374 126.095 152.304 126.157 152.258 126.235C150.674 129.04 149.754 131.79 149.498 134.483" stroke="#8A8383" stroke-width="2"/>
<path d="M153.138 127.884C150.834 133.356 153.418 140.284 159.522 141.06C169.394 142.316 173.674 132.204 170.41 124.26" stroke="#C4A49B" stroke-width="2"/>
<path d="M200.722 129.21C205.666 127.938 209.554 133.554 210.41 137.65C210.431 137.778 210.519 137.853 210.674 137.874C210.914 137.911 210.999 137.813 210.93 137.578C209.602 132.962 205.61 127.25 199.994 128.706C199.876 128.733 199.799 128.802 199.762 128.914C199.708 129.074 199.836 129.181 200.146 129.234C200.335 129.271 200.533 129.262 200.722 129.21Z" stroke="#D18969" stroke-width="2"/>
<path d="M185.106 151.667C185.078 150.884 184.744 150.119 184.126 149.417C183.507 148.715 182.615 148.09 181.5 147.576C180.386 147.062 179.07 146.671 177.63 146.423C176.189 146.176 174.651 146.078 173.103 146.135C169.978 146.249 167.004 146.988 164.835 148.187C162.666 149.387 161.48 150.949 161.538 152.531C161.567 153.314 161.9 154.078 162.519 154.78C163.138 155.482 164.03 156.108 165.144 156.621C166.259 157.135 167.574 157.527 169.015 157.774C170.455 158.021 171.993 158.12 173.541 158.063C176.666 157.948 179.641 157.21 181.809 156.01C183.978 154.811 185.164 153.248 185.106 151.667Z" stroke="#D87D68" stroke-width="2"/>
<path d="M103.361 103.587C104.297 100.571 102.521 96.5305 98.7213 97.3225C92.6013 98.5865 82.0973 102.291 78.6813 107.939C78.5708 108.123 78.5155 108.334 78.522 108.549C78.5285 108.763 78.5964 108.971 78.7178 109.148C78.8392 109.325 79.0088 109.464 79.2066 109.547C79.4043 109.631 79.6218 109.655 79.8333 109.619C85.0653 108.675 90.4493 107.907 95.9853 107.315C99.6653 106.923 102.313 107.003 103.361 103.587Z" stroke="#8F6152" stroke-width="2"/>
<path d="M79.627 136.051C86.035 147.803 102.259 148.371 106.411 134.203" stroke="#F6D1BF" stroke-width="2"/>
<path d="M106.41 134.203C110.114 112.435 85.7142 112.619 77.0182 126.267C76.9557 126.365 76.8723 126.447 76.774 126.508C76.6757 126.569 76.5651 126.607 76.4502 126.619L74.8022 126.803C74.7199 126.813 74.642 126.846 74.5772 126.898C74.5124 126.949 74.4631 127.018 74.4349 127.096C74.4067 127.174 74.4007 127.258 74.4175 127.339C74.4343 127.42 74.4734 127.495 74.5302 127.555L76.5062 129.611C76.7142 129.825 76.7862 130.078 76.7222 130.371C76.5942 131.011 76.2129 131.451 75.5782 131.691C75.515 131.715 75.4582 131.753 75.4126 131.802C75.367 131.852 75.3338 131.911 75.3158 131.976C75.2978 132.041 75.2955 132.109 75.3092 132.175C75.3228 132.241 75.3519 132.303 75.3942 132.355C75.9275 133.011 76.6289 133.243 77.4982 133.051C77.6248 133.024 77.757 133.039 77.8752 133.094C77.9935 133.149 78.0913 133.24 78.1542 133.355L79.6262 136.051" stroke="#785340" stroke-width="2"/>
<path d="M106.409 134.203C106.073 131.59 105.191 129.126 103.761 126.811C103.607 126.566 103.46 126.571 103.321 126.827C103.124 127.195 103.039 127.616 103.065 128.091" stroke="#807F7F" stroke-width="2"/>
<path d="M103.066 128.091H102.53C102.258 128.086 102.09 128.217 102.026 128.483C101.042 132.643 99.9381 136.707 94.6181 136.139C90.0341 135.659 87.8581 131.443 88.2901 127.075" stroke="#45261C" stroke-width="2"/>
<path d="M88.291 127.074L89.4271 124.562C89.5391 124.306 89.731 124.138 90.003 124.058C91.875 123.504 93.8404 123.717 95.899 124.698" stroke="#200C07" stroke-width="2"/>
<path d="M95.8984 124.7C102.602 129.764 103.066 118.124 96.9625 121.308" stroke="#807F7F" stroke-width="2"/>
<path d="M96.9615 121.306C97.3135 120.789 97.3135 120.303 96.9615 119.85C96.7962 119.631 96.5775 119.506 96.3055 119.474C93.2922 119.111 90.5028 119.631 87.9375 121.034" stroke="#200C07" stroke-width="2"/>
<path d="M87.9374 121.034C81.0681 123.818 78.2974 128.824 79.6254 136.05" stroke="#807F7F" stroke-width="2"/>
<path d="M96.9619 121.307C96.2045 122.133 95.8498 123.264 95.8978 124.699" stroke="#9E8A86" stroke-width="2"/>
<path d="M88.2904 127.074C88.0984 125.511 87.3704 124.237 86.1064 123.25" stroke="#643123" stroke-width="2"/>
<path d="M86.1064 123.25L87.9384 121.034" stroke="#9E8A86" stroke-width="2"/>
<path d="M86.1052 123.25C83.3318 127.618 83.3478 132.039 86.1532 136.514C92.2812 146.282 107.353 139.33 103.065 128.09" stroke="#C4A49B" stroke-width="2"/>
<path d="M58.1942 129.066C56.4128 128.357 54.5088 128.37 52.4822 129.106C50.8288 129.703 49.6262 130.466 48.8742 131.394C48.8634 131.405 48.855 131.418 48.8494 131.432C48.8439 131.445 48.8413 131.46 48.8419 131.475C48.8424 131.49 48.8461 131.504 48.8526 131.518C48.8592 131.531 48.8684 131.543 48.88 131.553C48.8916 131.563 48.9051 131.571 48.9199 131.576C48.9347 131.581 48.9505 131.583 48.9663 131.582C48.9821 131.582 48.9976 131.578 49.012 131.572C49.0264 131.566 49.0394 131.557 49.0502 131.546C51.2902 129.301 53.9702 128.538 57.0902 129.258C57.2397 129.292 57.4229 129.315 57.6073 129.322C57.7917 129.329 57.9655 129.321 58.0977 129.298C58.23 129.275 58.3122 129.239 58.3299 129.196C58.3476 129.154 58.2995 129.108 58.1942 129.066Z" stroke="#DB9271" stroke-width="2"/>
<path d="M92.1109 151.982C92.1294 151.226 91.8647 150.47 91.3319 149.758C90.7992 149.046 90.0088 148.392 89.0059 147.832C88.003 147.272 86.8073 146.819 85.487 146.497C84.1667 146.175 82.7476 145.992 81.3109 145.956C79.8741 145.921 78.4477 146.035 77.1133 146.292C75.7788 146.549 74.5623 146.944 73.5333 147.454C72.5043 147.964 71.6829 148.579 71.116 149.264C70.5492 149.949 70.2479 150.691 70.2294 151.447C70.2109 152.204 70.4756 152.959 71.0084 153.671C71.5411 154.383 72.3315 155.038 73.3344 155.597C74.3372 156.157 75.533 156.611 76.8533 156.932C78.1736 157.254 79.5927 157.438 81.0294 157.473C82.4662 157.508 83.8925 157.394 85.227 157.137C86.5614 156.88 87.7779 156.485 88.8069 155.976C89.8359 155.466 90.6573 154.851 91.2242 154.165C91.7911 153.48 92.0924 152.738 92.1109 151.982Z" stroke="#E28770" stroke-width="2"/>
<path d="M159.234 121.873C159.057 121.597 158.82 121.363 158.537 121.185C158.254 121.007 157.929 120.888 157.582 120.834C157.235 120.781 156.872 120.795 156.514 120.875C156.157 120.955 155.811 121.1 155.496 121.3C155.182 121.501 154.906 121.755 154.683 122.046C154.461 122.337 154.296 122.661 154.199 122.998C154.101 123.336 154.073 123.68 154.116 124.012C154.159 124.344 154.272 124.657 154.449 124.933C154.625 125.21 154.862 125.443 155.145 125.622C155.429 125.8 155.753 125.919 156.1 125.972C156.447 126.025 156.81 126.012 157.168 125.932C157.526 125.852 157.872 125.707 158.186 125.506C158.5 125.305 158.777 125.052 158.999 124.76C159.222 124.469 159.387 124.146 159.484 123.808C159.581 123.471 159.609 123.126 159.566 122.794C159.523 122.462 159.41 122.149 159.234 121.873Z" stroke="#8A8383" stroke-width="2"/>
<path d="M193.673 40.4828C193.033 40.9895 192.983 41.5148 193.521 42.0588C197.079 45.6695 200.1 49.7975 202.585 54.4428C202.671 54.6045 202.715 54.785 202.714 54.9681C202.712 55.1511 202.664 55.3307 202.575 55.4906C202.486 55.6505 202.358 55.7856 202.203 55.8834C202.049 55.9813 201.872 56.0388 201.689 56.0508C190.057 56.7628 177.617 55.4828 165.865 54.7708C160.393 54.4348 154.273 49.9388 149.161 48.3548C130.74 42.6695 112.983 44.5761 95.8894 54.0748C92.9534 55.7068 87.3294 61.3868 82.3534 62.7788C70.3 66.1335 57.9134 67.7308 45.1934 67.5708C51.8734 47.7148 65.7454 30.7868 84.8254 21.7868C98.3854 15.3868 112.169 14.5148 125.697 21.0188C125.813 21.073 125.94 21.0977 126.069 21.0908C126.197 21.0838 126.322 21.0454 126.433 20.9788C148.785 7.53881 178.625 23.7708 193.673 40.4828ZM66.8974 40.0428C63.3694 45.7868 70.7294 47.2508 74.5854 46.9708C75.6734 46.8961 77.8787 46.5175 81.2014 45.8348C87.2094 44.6108 124.017 33.3948 120.401 23.9868C120.3 23.7308 120.129 23.5362 119.889 23.4028C117.921 22.3042 115.932 21.7815 113.921 21.8348C100.012 22.1868 87.0441 25.9308 75.0174 33.0668C72.2814 34.6908 68.3294 37.7228 66.8974 40.0428ZM69.3125 51.0805C69.2421 50.6034 69.0178 50.1539 68.6525 49.7575C68.2871 49.3611 67.7879 49.0256 67.1832 48.7703C66.5785 48.5149 65.8803 48.3445 65.1284 48.269C64.3765 48.1935 63.5857 48.2143 62.801 48.3302C62.0163 48.446 61.2532 48.6547 60.5552 48.9443C59.8572 49.2339 59.238 49.5988 58.733 50.0181C58.2279 50.4373 57.8469 50.9028 57.6117 51.3878C57.3765 51.8729 57.2917 52.3681 57.3622 52.8451C57.4326 53.3222 57.6569 53.7717 58.0223 54.1681C58.3876 54.5645 58.8869 54.9 59.4916 55.1554C60.0962 55.4108 60.7944 55.5811 61.5463 55.6566C62.2982 55.7321 63.0891 55.7113 63.8738 55.5955C64.6585 55.4796 65.4216 55.2709 66.1196 54.9813C66.8176 54.6917 67.4368 54.3268 67.9418 53.9076C68.4468 53.4883 68.8278 53.0229 69.063 52.5378C69.2982 52.0527 69.383 51.5575 69.3125 51.0805Z" fill="#4D383B"/>
<path d="M74.586 46.9707C70.73 47.2507 63.37 45.7868 66.898 40.0428C68.33 37.7228 72.2821 34.6907 75.0181 33.0667C87.0447 25.9307 100.013 22.1868 113.922 21.8348C115.933 21.7814 117.922 22.3041 119.89 23.4028C120.13 23.5361 120.301 23.7308 120.402 23.9868C124.018 33.3948 87.21 44.6108 81.202 45.8348C77.8794 46.5174 75.674 46.8961 74.586 46.9707Z" fill="#6A514E"/>
<path d="M193.674 40.4824C215.97 65.1224 218.242 97.3544 213.466 128.762C210.986 123.914 207.28 121.832 202.346 122.514C198.626 123.034 197.354 127.098 195.786 130.978C191.098 93.1144 170.546 55.8584 127.466 56.1784C87.8502 56.4744 68.3782 90.2904 61.7382 124.482L60.6422 130.482C60.5782 130.856 60.4903 130.861 60.3783 130.498C59.4903 127.522 56.1862 121.25 52.2982 121.842C46.6982 122.696 43.2956 125.904 42.0902 131.466C42.1702 131.674 42.1196 131.813 41.9382 131.882C40.3436 119.141 39.7329 106.808 40.1062 94.8824C40.4049 85.2931 42.1009 76.1891 45.1942 67.5704C57.9142 67.7304 70.3009 66.1331 82.3542 62.7784C87.3302 61.3864 92.9542 55.7064 95.8902 54.0744C112.984 44.5757 130.741 42.6691 149.162 48.3544C154.274 49.9384 160.394 54.4344 165.866 54.7704C177.618 55.4824 190.058 56.7624 201.69 56.0504C201.873 56.0384 202.05 55.9809 202.204 55.8831C202.359 55.7852 202.487 55.6501 202.576 55.4902C202.665 55.3303 202.713 55.1507 202.714 54.9677C202.716 54.7846 202.672 54.6041 202.586 54.4424C200.101 49.7971 197.08 45.6691 193.522 42.0584C192.984 41.5144 193.034 40.9891 193.674 40.4824Z" fill="#2F1C24"/>
<path d="M63.8742 55.5958C67.1742 55.1085 69.6093 53.0871 69.313 51.0808C69.0167 49.0746 66.1014 47.8432 62.8014 48.3305C59.5014 48.8179 57.0663 50.8393 57.3626 52.8455C57.6588 54.8517 60.5742 56.0831 63.8742 55.5958Z" fill="#6A514E"/>
<path d="M195.785 130.979C195.753 131.939 195.423 132.875 194.793 133.787C194.644 134.005 194.535 133.987 194.465 133.731C193.745 131.131 193.513 128.459 192.673 126.011C190.572 119.861 189.065 115.672 188.153 113.443C177.913 88.3628 156.249 65.9948 127.105 66.7148C95.8573 68.9228 74.0413 96.9388 63.2813 124.123C63.18 124.368 62.9986 124.488 62.7373 124.483H61.7373C68.3773 90.2908 87.8493 56.4748 127.465 56.1788C170.545 55.8588 191.097 93.1148 195.785 130.979Z" fill="#C77F62"/>
<path d="M195.786 130.979C197.354 127.099 198.626 123.035 202.346 122.515C207.28 121.832 210.986 123.915 213.466 128.763C215.456 134.512 214.96 140.07 211.978 145.435C211.434 146.411 210.933 147.427 210.474 148.483C205.642 152.03 200.216 152.913 194.194 151.131C193.688 150.977 193.325 151.142 193.106 151.627C188.21 162.465 181.085 171.398 171.73 178.427C163.298 184.763 152.794 188.467 142.402 191.099C138.045 192.038 133.426 192.563 128.546 192.675C127.864 188.025 127.85 183.371 128.506 178.715C134.048 178.848 139.157 176.875 143.834 172.795C147.002 169.697 149.018 165.704 149.882 160.819C150.226 158.875 149.89 155.907 147.146 156.715C144.138 156.619 140.458 156.729 136.106 157.043C128.117 157.63 119.717 157.366 110.906 156.251C111.813 155.659 112.546 155.385 113.106 155.427C118.413 155.843 123.722 156.131 129.034 156.291C129.65 156.307 130.13 155.987 130.65 155.707C130.837 155.601 130.901 155.443 130.842 155.235L130.666 154.603C130.565 154.241 130.605 153.894 130.786 153.563C131.138 152.918 131.325 152.219 131.346 151.467C131.357 151.222 131.24 151.099 130.994 151.099C126.666 151.051 122.826 151.275 122.154 145.747C122.138 145.619 122.165 145.491 122.231 145.38C122.297 145.27 122.397 145.185 122.518 145.137C122.638 145.09 122.771 145.083 122.896 145.118C123.021 145.153 123.132 145.228 123.21 145.331C125.6 148.526 128.466 149.182 131.81 147.299C137.594 144.043 130.706 140.731 128.194 139.515C127.866 139.357 127.589 139.11 127.395 138.801C127.201 138.493 127.098 138.136 127.098 137.771L127.106 66.7152C156.25 65.9952 177.914 88.3632 188.154 113.443C189.066 115.673 190.573 119.862 192.674 126.011C193.514 128.459 193.746 131.131 194.466 133.731C194.536 133.987 194.645 134.006 194.794 133.787C195.424 132.875 195.754 131.939 195.786 130.979ZM159.746 97.4912C150.818 95.2592 150.834 105.899 157.17 106.619C163.693 107.36 170.221 108.318 176.754 109.491C177.09 109.555 177.301 109.419 177.386 109.083C178.698 103.883 163.402 98.4032 159.746 97.4912ZM149.498 134.483C153.514 147.699 168.602 147.827 175.666 137.331L177.866 132.627C178.005 132.329 178.237 132.208 178.562 132.267C179.064 132.358 179.416 132.219 179.618 131.851C179.695 131.716 179.736 131.563 179.741 131.407C179.745 131.251 179.711 131.096 179.642 130.955L178.858 129.379C178.629 128.915 178.77 128.641 179.282 128.555C182.498 128.003 182.162 125.491 179.05 126.171C178.421 126.31 177.946 126.097 177.626 125.531C173.082 117.395 159.306 112.267 152.266 120.635C149.029 124.481 148.106 129.097 149.498 134.483ZM200.722 129.211C205.666 127.939 209.554 133.555 210.41 137.651C210.432 137.779 210.52 137.854 210.674 137.875C210.914 137.913 211 137.814 210.93 137.579C209.602 132.963 205.61 127.251 199.994 128.707C199.877 128.734 199.8 128.803 199.762 128.915C199.709 129.075 199.837 129.182 200.146 129.235C200.336 129.272 200.533 129.264 200.722 129.211ZM185.106 151.667C185.078 150.884 184.744 150.12 184.126 149.418C183.507 148.716 182.615 148.09 181.5 147.576C180.386 147.063 179.07 146.671 177.63 146.424C176.189 146.177 174.651 146.078 173.104 146.135C169.978 146.25 167.004 146.988 164.835 148.188C162.666 149.387 161.48 150.95 161.538 152.531C161.567 153.314 161.9 154.079 162.519 154.781C163.138 155.483 164.03 156.108 165.144 156.622C166.259 157.136 167.574 157.527 169.015 157.775C170.455 158.022 171.993 158.12 173.541 158.063C176.666 157.949 179.641 157.21 181.809 156.011C183.978 154.811 185.164 153.249 185.106 151.667Z" fill="#DB926F"/>
<path d="M127.106 66.7158L127.098 137.772C127.098 138.136 127.201 138.493 127.395 138.802C127.589 139.11 127.866 139.358 128.194 139.516C130.706 140.732 137.594 144.044 131.81 147.3C128.466 149.183 125.599 148.527 123.21 145.332C123.131 145.229 123.021 145.154 122.896 145.119C122.77 145.084 122.638 145.091 122.517 145.138C122.397 145.185 122.297 145.271 122.231 145.381C122.165 145.491 122.138 145.62 122.154 145.748C122.826 151.276 126.666 151.052 130.994 151.1C131.239 151.1 131.357 151.222 131.346 151.468C131.325 152.22 131.138 152.918 130.786 153.564C130.605 153.894 130.565 154.241 130.666 154.604L130.842 155.236C130.901 155.444 130.837 155.601 130.65 155.708C130.13 155.988 129.65 156.308 129.034 156.292C123.722 156.132 118.413 155.844 113.106 155.428C112.546 155.385 111.813 155.66 110.906 156.252L110.274 156.484C103.09 156.068 111.898 170.356 113.546 172.172C117.557 176.305 122.543 178.486 128.506 178.716C127.85 183.372 127.863 188.025 128.546 192.676C123.981 192.804 119.381 192.268 114.746 191.068C95.434 187.004 78.618 176.836 68.154 159.836C66.8953 157.788 65.3433 154.993 63.498 151.452C63.37 151.207 63.1753 151.121 62.914 151.196C57.746 152.668 51.37 152.876 47.106 149.052L44.338 146.484C43.106 143.172 42.3407 139.796 42.042 136.356C42.4633 134.724 42.4793 133.094 42.09 131.468C43.2953 125.905 46.698 122.697 52.298 121.844C56.186 121.252 59.49 127.524 60.378 130.5C60.49 130.863 60.578 130.857 60.642 130.484L61.738 124.484H62.738C62.9993 124.489 63.1806 124.369 63.282 124.124C74.042 96.9398 95.858 68.9238 127.106 66.7158ZM103.362 103.588C104.298 100.572 102.522 96.5318 98.722 97.3238C92.602 98.5878 82.098 102.292 78.682 107.94C78.5715 108.124 78.5162 108.336 78.5227 108.55C78.5292 108.765 78.5971 108.973 78.7185 109.15C78.8399 109.327 79.0095 109.465 79.2073 109.548C79.405 109.632 79.6226 109.657 79.834 109.62C85.066 108.676 90.45 107.908 95.986 107.316C99.666 106.924 102.314 107.004 103.362 103.588ZM79.626 136.052C86.034 147.804 102.258 148.372 106.41 134.204C110.114 112.436 85.714 112.62 77.018 126.268C76.9555 126.365 76.8721 126.447 76.7738 126.508C76.6756 126.569 76.5649 126.607 76.45 126.62L74.802 126.804C74.7197 126.814 74.6418 126.846 74.577 126.898C74.5122 126.95 74.4629 127.018 74.4347 127.096C74.4065 127.174 74.4005 127.258 74.4173 127.34C74.4342 127.421 74.4732 127.496 74.53 127.556L76.506 129.612C76.714 129.825 76.786 130.078 76.722 130.372C76.594 131.012 76.2127 131.452 75.578 131.692C75.5148 131.715 75.458 131.753 75.4124 131.803C75.3668 131.852 75.3336 131.912 75.3156 131.977C75.2976 132.042 75.2953 132.11 75.309 132.176C75.3226 132.242 75.3517 132.303 75.394 132.356C75.9273 133.012 76.6287 133.244 77.498 133.052C77.6246 133.025 77.7568 133.039 77.875 133.094C77.9933 133.149 78.0911 133.241 78.154 133.356L79.626 136.052ZM58.194 129.068C56.4127 128.358 54.5086 128.372 52.482 129.108C50.8286 129.705 49.626 130.468 48.874 131.396C48.8632 131.407 48.8548 131.419 48.8493 131.433C48.8437 131.447 48.8412 131.462 48.8417 131.477C48.8422 131.491 48.8459 131.506 48.8524 131.519C48.859 131.533 48.8683 131.545 48.8798 131.555C48.8914 131.565 48.905 131.572 48.9198 131.577C48.9346 131.583 48.9504 131.585 48.9662 131.584C48.982 131.583 48.9975 131.58 49.0119 131.574C49.0263 131.568 49.0392 131.559 49.05 131.548C51.29 129.303 53.97 128.54 57.09 129.26C57.2395 129.294 57.4227 129.316 57.6071 129.324C57.7916 129.331 57.9653 129.322 58.0976 129.299C58.2298 129.276 58.3121 129.24 58.3297 129.198C58.3474 129.156 58.2993 129.11 58.194 129.068ZM92.1107 151.983C92.1292 151.227 91.8645 150.471 91.3318 149.759C90.799 149.047 90.0086 148.393 89.0058 147.833C88.0029 147.274 86.8072 146.82 85.4869 146.498C84.1665 146.176 82.7475 145.993 81.3107 145.958C79.874 145.922 78.4476 146.037 77.1131 146.294C75.7787 146.55 74.5622 146.945 73.5332 147.455C72.5042 147.965 71.6828 148.58 71.1159 149.265C70.549 149.95 70.2478 150.692 70.2293 151.448C70.2108 152.205 70.4755 152.96 71.0083 153.672C71.541 154.384 72.3314 155.039 73.3342 155.599C74.3371 156.158 75.5329 156.612 76.8532 156.933C78.1735 157.255 79.5925 157.439 81.0293 157.474C82.4661 157.509 83.8924 157.395 85.2269 157.138C86.5613 156.881 87.7778 156.487 88.8068 155.977C89.8358 155.467 90.6572 154.852 91.2241 154.166C91.791 153.481 92.0923 152.739 92.1107 151.983Z" fill="#EEA57F"/>
<path d="M157.17 106.62C150.834 105.9 150.818 95.2597 159.746 97.4917C163.402 98.4037 178.698 103.884 177.386 109.084C177.3 109.42 177.09 109.556 176.754 109.492C170.22 108.318 163.692 107.361 157.17 106.62Z" fill="#23121A"/>
<path d="M98.7213 97.3225C102.521 96.5305 104.297 100.571 103.361 103.587C102.313 107.003 99.6653 106.923 95.9853 107.315C90.4493 107.907 85.0653 108.675 79.8333 109.619C79.6218 109.655 79.4043 109.631 79.2066 109.547C79.0088 109.464 78.8392 109.325 78.7178 109.148C78.5964 108.971 78.5285 108.763 78.522 108.549C78.5155 108.334 78.5708 108.123 78.6813 107.939C82.0973 102.291 92.6013 98.5865 98.7213 97.3225Z" fill="#2F1C24"/>
<path d="M175.666 137.33C177.874 128.973 175.01 123.442 167.074 120.738C166.861 120.434 166.61 120.357 166.322 120.506C165.991 120.682 166.007 120.813 166.37 120.898C168.311 121.351 169.658 122.471 170.41 124.258C169.695 125.005 169.143 124.994 168.754 124.226C168.678 124.063 168.543 123.934 168.377 123.866C168.21 123.798 168.024 123.796 167.855 123.86C167.687 123.923 167.549 124.049 167.469 124.21C167.39 124.372 167.374 124.558 167.426 124.73C170.93 138.162 153.602 139.946 154.322 128.53C154.329 128.402 154.298 128.275 154.232 128.166C154.167 128.056 154.07 127.968 153.954 127.914C153.682 127.781 153.41 127.77 153.138 127.882L153.042 126.41C153.037 126.321 153.003 126.236 152.945 126.168C152.887 126.1 152.809 126.053 152.721 126.033C152.633 126.013 152.54 126.022 152.457 126.058C152.374 126.094 152.304 126.156 152.258 126.234C150.674 129.039 149.754 131.789 149.498 134.482C148.106 129.095 149.029 124.479 152.266 120.634C159.306 112.266 173.082 117.394 177.626 125.53C177.946 126.095 178.421 126.309 179.05 126.17C182.162 125.49 182.498 128.002 179.282 128.554C178.77 128.639 178.629 128.914 178.858 129.378L179.642 130.954C179.711 131.095 179.745 131.25 179.74 131.406C179.736 131.562 179.694 131.714 179.618 131.85C179.415 132.218 179.063 132.357 178.562 132.266C178.237 132.207 178.005 132.327 177.866 132.626L175.666 137.33ZM159.235 121.872C159.058 121.596 158.821 121.362 158.538 121.184C158.254 121.005 157.93 120.886 157.583 120.833C157.236 120.78 156.873 120.794 156.515 120.874C156.157 120.954 155.811 121.098 155.497 121.299C155.183 121.5 154.907 121.753 154.684 122.045C154.461 122.336 154.297 122.66 154.199 122.997C154.102 123.334 154.074 123.679 154.117 124.011C154.16 124.343 154.273 124.656 154.449 124.932C154.626 125.208 154.863 125.442 155.146 125.62C155.43 125.799 155.754 125.918 156.101 125.971C156.448 126.024 156.811 126.01 157.169 125.93C157.527 125.85 157.873 125.706 158.187 125.505C158.501 125.304 158.777 125.051 159 124.759C159.223 124.468 159.387 124.144 159.485 123.807C159.582 123.47 159.61 123.125 159.567 122.793C159.524 122.461 159.411 122.148 159.235 121.872Z" fill="#160807"/>
<path d="M106.41 134.203C106.074 131.59 105.192 129.126 103.762 126.811C103.608 126.566 103.461 126.571 103.322 126.827C103.125 127.195 103.04 127.617 103.066 128.091H102.53C102.258 128.086 102.09 128.217 102.026 128.483C101.042 132.643 99.9382 136.707 94.6182 136.139C90.0342 135.659 87.8582 131.443 88.2902 127.075L89.4262 124.563C89.5382 124.307 89.7302 124.139 90.0022 124.059C91.8742 123.505 93.8395 123.718 95.8982 124.699C102.602 129.763 103.066 118.123 96.9622 121.307C97.3142 120.79 97.3142 120.305 96.9622 119.851C96.7969 119.633 96.5782 119.507 96.3062 119.475C93.2929 119.113 90.5035 119.633 87.9382 121.035C81.0688 123.819 78.2982 128.825 79.6262 136.051L78.1542 133.355C78.0913 133.24 77.9935 133.149 77.8752 133.094C77.757 133.039 77.6248 133.024 77.4982 133.051C76.6289 133.243 75.9275 133.011 75.3942 132.355C75.3519 132.303 75.3228 132.241 75.3092 132.175C75.2955 132.109 75.2978 132.041 75.3158 131.976C75.3338 131.911 75.367 131.852 75.4126 131.802C75.4582 131.753 75.515 131.715 75.5782 131.691C76.2129 131.451 76.5942 131.011 76.7222 130.371C76.7862 130.078 76.7142 129.825 76.5062 129.611L74.5302 127.555C74.4734 127.495 74.4343 127.42 74.4175 127.339C74.4007 127.258 74.4067 127.174 74.4349 127.096C74.4631 127.018 74.5124 126.949 74.5772 126.898C74.642 126.846 74.7199 126.813 74.8022 126.803L76.4502 126.619C76.5651 126.607 76.6757 126.569 76.774 126.508C76.8723 126.447 76.9557 126.365 77.0182 126.267C85.7142 112.619 110.114 112.435 106.41 134.203Z" fill="#010100"/>
<path d="M96.9625 121.306C96.2051 122.133 95.8504 123.263 95.8984 124.698C93.8398 123.717 91.8744 123.503 90.0024 124.058C89.7304 124.138 89.5385 124.306 89.4265 124.562L88.2904 127.074C88.0984 125.511 87.3704 124.237 86.1064 123.25L87.9384 121.034C90.5038 119.631 93.2931 119.111 96.3064 119.474C96.5784 119.506 96.7971 119.631 96.9625 119.85C97.3145 120.303 97.3145 120.789 96.9625 121.306Z" fill="#3E160E"/>
<path d="M175.666 137.33C168.602 147.826 153.514 147.698 149.498 134.482C149.754 131.789 150.674 129.04 152.258 126.234C152.304 126.156 152.374 126.095 152.457 126.059C152.541 126.022 152.633 126.013 152.721 126.033C152.809 126.053 152.887 126.1 152.945 126.168C153.003 126.236 153.037 126.321 153.042 126.41L153.138 127.882C150.834 133.354 153.418 140.282 159.522 141.058C169.394 142.314 173.674 132.202 170.41 124.258C169.658 122.472 168.311 121.352 166.37 120.898C166.007 120.813 165.991 120.682 166.322 120.506C166.61 120.357 166.861 120.434 167.074 120.738C175.01 123.442 177.874 128.973 175.666 137.33Z" fill="#FEFDFE"/>
<path d="M95.8978 124.7C95.8498 123.265 96.2045 122.134 96.9619 121.308C103.066 118.124 102.602 129.764 95.8978 124.7Z" fill="#FEFDFE"/>
<path d="M158.187 125.505C159.508 124.66 159.977 123.034 159.234 121.873C158.492 120.711 156.818 120.455 155.497 121.3C154.176 122.145 153.707 123.772 154.449 124.933C155.192 126.094 156.865 126.351 158.187 125.505Z" fill="#FEFDFE"/>
<path d="M87.9374 121.034L86.1054 123.25C83.3321 127.618 83.3481 132.039 86.1534 136.514C92.2814 146.282 107.353 139.33 103.065 128.09C103.039 127.616 103.124 127.194 103.321 126.826C103.46 126.57 103.607 126.565 103.761 126.81C105.191 129.125 106.073 131.589 106.409 134.202C102.257 148.37 86.0334 147.802 79.6254 136.05C78.2974 128.824 81.0681 123.818 87.9374 121.034Z" fill="#FEFDFE"/>
<path d="M86.1052 123.25C87.3692 124.237 88.0972 125.511 88.2892 127.074C87.8572 131.442 90.0332 135.658 94.6172 136.138C99.9372 136.706 101.041 132.642 102.025 128.482C102.089 128.215 102.257 128.085 102.529 128.09H103.065C107.353 139.33 92.2812 146.282 86.1532 136.514C83.3478 132.039 83.3318 127.618 86.1052 123.25Z" fill="#894B37"/>
<path d="M170.41 124.259C173.674 132.203 169.394 142.315 159.522 141.059C153.418 140.283 150.834 133.355 153.138 127.883C153.41 127.771 153.682 127.782 153.954 127.915C154.07 127.969 154.167 128.057 154.233 128.167C154.298 128.277 154.329 128.404 154.322 128.531C153.602 139.947 170.93 138.163 167.426 124.731C167.374 124.559 167.39 124.373 167.469 124.212C167.549 124.05 167.687 123.925 167.855 123.861C168.024 123.797 168.21 123.799 168.377 123.867C168.544 123.935 168.678 124.064 168.754 124.227C169.143 124.995 169.695 125.006 170.41 124.259Z" fill="#894B37"/>
<path d="M57.0902 129.258C53.9702 128.538 51.2902 129.301 49.0502 131.546C49.0394 131.557 49.0264 131.566 49.012 131.572C48.9976 131.578 48.9821 131.582 48.9663 131.582C48.9505 131.583 48.9347 131.581 48.9199 131.576C48.9051 131.571 48.8916 131.563 48.88 131.553C48.8684 131.543 48.8592 131.531 48.8526 131.518C48.8461 131.504 48.8424 131.49 48.8419 131.475C48.8413 131.46 48.8439 131.445 48.8494 131.432C48.855 131.418 48.8634 131.405 48.8742 131.394C49.6262 130.466 50.8288 129.703 52.4822 129.106C54.5088 128.37 56.4128 128.357 58.1942 129.066C58.2995 129.108 58.3476 129.154 58.3299 129.196C58.3122 129.239 58.23 129.275 58.0977 129.298C57.9655 129.321 57.7917 129.329 57.6073 129.322C57.4229 129.315 57.2397 129.292 57.0902 129.258Z" fill="#C77F62"/>
<path d="M210.41 137.65C209.554 133.554 205.666 127.938 200.722 129.21C200.533 129.262 200.335 129.271 200.146 129.234C199.836 129.181 199.708 129.074 199.762 128.914C199.799 128.802 199.876 128.733 199.994 128.706C205.61 127.25 209.602 132.962 210.93 137.578C210.999 137.813 210.914 137.911 210.674 137.874C210.519 137.853 210.431 137.778 210.41 137.65Z" fill="#C77F62"/>
<path d="M42.0895 131.467C42.4788 133.093 42.4628 134.723 42.0415 136.355L41.9375 131.883C42.1188 131.813 42.1695 131.675 42.0895 131.467Z" fill="#A46448"/>
<path d="M81.0294 157.473C87.0718 157.621 92.0331 155.163 92.1109 151.983C92.1886 148.802 87.3533 146.105 81.3109 145.957C75.2685 145.809 70.3071 148.268 70.2294 151.448C70.1517 154.628 74.987 157.326 81.0294 157.473Z" fill="#D56860"/>
<path d="M173.54 158.063C180.048 157.825 185.226 154.961 185.105 151.667C184.984 148.373 179.611 145.897 173.102 146.135C166.594 146.374 161.416 149.238 161.537 152.531C161.658 155.825 167.032 158.302 173.54 158.063Z" fill="#D56860"/>
<path d="M44.3379 146.482L47.1059 149.05C46.7432 149.669 46.8633 150.162 47.4659 150.53C50.7059 152.522 53.4819 157.034 55.2179 160.378C61.0019 171.522 68.1779 181.994 77.1859 190.778C79.7832 193.306 82.4179 195.848 85.0899 198.402L68.3139 205.946C56.3379 188.098 48.5299 167.482 44.3379 146.482Z" fill="#2F1C24"/>
<path d="M210.475 148.482C207.681 162.541 203.281 176.074 197.275 189.082C196.241 187.792 196.329 186.562 197.539 185.394C197.722 185.217 197.847 184.992 197.899 184.746C198.547 181.474 200.531 178.89 201.387 176.098C203.027 170.754 205.123 165.258 206.403 159.834C206.606 158.986 207.035 157.944 207.691 156.706C208.246 155.656 208.681 153.744 208.995 150.97C209.017 150.768 208.934 150.706 208.747 150.786C206.15 151.928 204.217 153.701 202.947 156.106C194.579 171.962 187.131 184.818 172.763 196.122C172.139 196.613 171.843 197.41 171.875 198.514C165.539 196.285 159.001 194.706 152.259 193.778L149.907 193.194L142.403 191.098C152.795 188.466 163.299 184.762 171.731 178.426C181.086 171.397 188.211 162.464 193.107 151.626C193.326 151.141 193.689 150.976 194.195 151.13C200.217 152.912 205.643 152.029 210.475 148.482Z" fill="#23121A"/>
<path d="M47.1057 149.05C51.3697 152.874 57.7457 152.666 62.9137 151.194C63.1751 151.119 63.3697 151.204 63.4977 151.45C65.3431 154.991 66.8951 157.786 68.1537 159.834C78.6177 176.834 95.4337 187.002 114.746 191.066L109.818 192.762L104.834 193.746C98.1937 194.711 91.6124 196.263 85.0897 198.402C82.4177 195.847 79.7831 193.306 77.1857 190.778C68.1777 181.994 61.0018 171.522 55.2178 160.378C53.4818 157.034 50.7057 152.522 47.4657 150.53C46.8631 150.162 46.7431 149.668 47.1057 149.05Z" fill="#23121A"/>
<path d="M197.274 189.083C194.666 194.64 191.589 200.142 188.042 205.587C188.181 205.672 188.32 205.758 188.458 205.843L171.874 198.515C171.842 197.411 172.138 196.614 172.762 196.123C187.13 184.819 194.578 171.963 202.946 156.107C204.216 153.702 206.149 151.928 208.746 150.787C208.933 150.707 209.016 150.768 208.994 150.971C208.68 153.744 208.245 155.656 207.69 156.707C207.034 157.944 206.605 158.987 206.402 159.835C205.122 165.259 203.026 170.755 201.386 176.099C200.53 178.891 198.546 181.475 197.898 184.747C197.846 184.992 197.721 185.218 197.538 185.395C196.328 186.563 196.24 187.792 197.274 189.083Z" fill="#2F1C24"/>
<path d="M110.907 156.25C119.718 157.365 128.118 157.629 136.107 157.042C140.459 156.727 144.139 156.618 147.147 156.714C137.003 163.474 120.099 165.434 110.275 156.482L110.907 156.25Z" fill="#FEFDFE"/>
<path d="M110.274 156.483C120.098 165.435 137.002 163.475 147.146 156.715C149.89 155.907 150.226 158.875 149.882 160.819C149.018 165.704 147.002 169.696 143.834 172.795C140.106 167.637 135.322 164.781 129.482 164.227C123.572 163.667 118.239 165.763 113.482 170.515C113.3 170.696 113.282 170.893 113.426 171.107C113.714 171.528 113.754 171.883 113.546 172.171C111.898 170.355 103.09 156.067 110.274 156.483Z" fill="#A84342"/>
<path d="M143.835 172.794C139.157 176.874 134.048 178.848 128.507 178.714C122.544 178.485 117.557 176.304 113.547 172.17C113.755 171.882 113.715 171.528 113.427 171.106C113.283 170.893 113.301 170.696 113.483 170.514C118.24 165.762 123.573 163.666 129.483 164.226C135.323 164.781 140.107 167.637 143.835 172.794Z" fill="#D56860"/>
<path d="M114.746 191.067C119.381 192.267 123.981 192.803 128.546 192.675C133.426 192.563 138.045 192.038 142.402 191.099L149.906 193.195C149.432 193.35 149.229 193.71 149.298 194.275C149.336 194.595 149.2 194.785 148.89 194.843L147.21 195.155C146.933 195.209 146.669 195.299 146.418 195.427C137.77 199.931 128.258 199.939 119.178 197.475C115.818 196.563 112.698 194.993 109.818 192.763L114.746 191.067Z" fill="#C77F62"/>
<path d="M109.818 192.763C112.698 194.992 115.818 196.563 119.178 197.475C128.258 199.939 137.77 199.931 146.418 195.427C146.669 195.299 146.933 195.208 147.21 195.155L148.89 194.843C149.199 194.784 149.335 194.595 149.298 194.275C149.229 193.709 149.431 193.349 149.906 193.195L152.258 193.779C149.97 200.819 145.509 205.704 138.874 208.435C128.97 212.515 115.554 210.595 108.938 201.443C107.669 199.683 106.301 197.117 104.834 193.747L109.818 192.763Z" fill="#DB926F"/>
<path d="M104.834 193.747C106.301 197.118 107.669 199.683 108.938 201.443C115.554 210.595 128.97 212.515 138.874 208.435C145.509 205.704 149.97 200.819 152.258 193.779C159 194.707 165.538 196.286 171.874 198.515L188.458 205.843C186.608 208.446 184.072 210.704 180.85 212.619C147.29 232.539 101.106 231.651 69.8584 207.523C69.3731 207.15 68.9331 206.736 68.5384 206.283L68.3145 205.947L85.0904 198.403C91.6131 196.264 98.1944 194.712 104.834 193.747Z" fill="#41978C"/>
<path d="M188.459 205.844C188.32 205.759 188.182 205.673 188.043 205.588L194.515 209.252C194.792 209.407 194.827 209.601 194.619 209.836C160.371 248.94 97.619 249.14 63.331 209.852C63.139 209.633 63.1683 209.452 63.419 209.308L68.5389 206.284C68.9336 206.737 69.3736 207.151 69.859 207.524C101.107 231.652 147.291 232.54 180.851 212.62C184.072 210.705 186.608 208.447 188.459 205.844Z" fill="#D1DEDE"/>
</svg>
