<svg width="256" height="256" viewBox="0 0 256 256" fill="none" xmlns="http://www.w3.org/2000/svg">
<path d="M68.9998 52.433C68.1945 52.1504 67.4025 52.353 66.6238 53.041C49.5838 67.985 39.1651 86.4997 35.3678 108.585C34.2051 115.332 33.3491 123.524 32.7998 133.161" stroke="#F5F5F2" stroke-width="2"/>
<path d="M32.7998 133.161C32.9705 137.705 34.5305 142.297 37.4798 146.937" stroke="#8E8B96" stroke-width="2"/>
<path d="M37.4801 146.938C36.6534 147.94 36.4774 149.423 36.9521 151.385C43.2614 177.529 57.0588 198.225 78.3441 213.473C78.5761 213.633 79.0881 213.745 79.2241 213.969" stroke="#F5F5F2" stroke-width="2"/>
<path d="M79.2236 213.969L80.9916 215.361" stroke="#FCCCB3" stroke-width="2"/>
<path d="M204.569 75.5931C199.891 68.7131 194.454 62.5264 188.257 57.033C188.033 56.8357 187.787 56.7984 187.521 56.921C187.142 57.0917 186.835 57.0144 186.601 56.6891C186.489 56.5397 186.411 56.5557 186.369 56.7371C186.342 56.8277 186.321 56.9237 186.305 57.025" stroke="#F5F5F2" stroke-width="2"/>
<path d="M186.303 57.0251L182.759 52.5371" stroke="#8E8B96" stroke-width="2"/>
<path d="M182.76 52.5371C171.92 39.3851 155.472 31.2571 138.768 28.8891C112.68 25.1931 87.096 33.017 69 52.433" stroke="#9A939D" stroke-width="2"/>
<path d="M182.76 52.5371C181.912 52.8651 182.136 53.9291 182.664 54.4731C187.648 59.6971 189.928 65.8011 192.744 72.0011C193.166 72.9238 193.099 73.7265 192.544 74.4091C192.352 74.6491 192.118 74.7024 191.84 74.5691C191.36 74.3451 190.934 74.3798 190.56 74.6731C190.505 74.7158 190.441 74.7441 190.372 74.7553C190.303 74.7665 190.232 74.7604 190.166 74.7375C190.1 74.7145 190.039 74.6755 189.991 74.6238C189.943 74.5721 189.907 74.5094 189.888 74.4411L189.552 73.1211C189.451 72.7371 189.23 72.6491 188.888 72.8571L188.376 73.1771" stroke="#2A2135" stroke-width="2"/>
<path d="M188.376 73.1775C185.128 65.6202 180.573 58.8682 174.712 52.9215C174.44 52.6442 174.275 52.6975 174.216 53.0815C174.152 53.5242 174.469 54.1109 175.168 54.8415" stroke="#3D2D3E" stroke-width="2"/>
<path d="M175.167 54.8408L171.591 51.8088C171.42 51.6594 171.22 51.5928 170.991 51.6088C170.308 51.6674 169.876 52.0328 169.695 52.7048C169.62 52.9928 169.679 53.2514 169.871 53.4807C172.66 56.8301 174.682 59.6114 175.935 61.8247C176.391 62.6327 184.799 79.6968 183.863 80.5928C183.634 80.8168 183.45 80.7821 183.311 80.4887L180.055 73.5207C179.98 73.3607 179.86 73.3048 179.695 73.3528C179.191 73.4808 178.903 71.9768 178.599 71.5448C178.482 71.3794 178.399 71.3954 178.351 71.5928C178.303 71.7688 178.37 71.9394 178.551 72.1048C178.574 72.1278 178.588 72.1575 178.593 72.1894C178.598 72.2214 178.592 72.2541 178.577 72.2826C178.562 72.3111 178.538 72.3341 178.509 72.3481C178.48 72.3622 178.447 72.3666 178.415 72.3607L174.343 71.4727C174.202 71.4415 174.055 71.4665 173.931 71.5425C173.807 71.6185 173.717 71.7396 173.679 71.8807C173.482 72.5847 173.108 72.7874 172.559 72.4887C172.333 72.3659 172.066 72.3371 171.815 72.4088C169.191 73.1288 164.183 72.5927 162.999 74.4247C161.823 76.2327 163.335 77.8568 165.079 78.5528C168.479 79.9128 173.239 81.3607 175.887 83.9127C176.095 84.1101 176.111 84.3234 175.935 84.5528C175.631 84.9528 175.202 85.1581 174.647 85.1687C174.386 85.1741 174.156 85.2594 173.959 85.4247C173.212 86.0594 172.618 86.9154 172.175 87.9927C171.562 89.4967 170.468 90.6887 168.895 91.5687C168.654 91.6997 168.453 91.8931 168.311 92.1287L168.191 92.3367C168.036 92.5981 167.807 92.7261 167.503 92.7207C163.911 92.6807 160.759 92.4247 157.111 93.2887C151.871 94.5207 148.143 93.4407 142.039 91.4887C139.543 90.6941 138.114 91.0247 137.751 92.4807" stroke="#2A2135" stroke-width="2"/>
<path d="M137.751 92.4806C133.021 90.3419 128.49 87.8673 124.159 85.0566" stroke="#99675F" stroke-width="2"/>
<path d="M124.16 85.0572C124.794 84.6572 124.845 84.1052 124.312 83.4012C124.152 83.1932 123.941 83.0651 123.68 83.0171C122.586 82.8145 121.885 82.1905 121.576 81.1452C121.533 81.005 121.46 80.8763 121.362 80.7683C121.264 80.6604 121.143 80.5759 121.008 80.5211C117.52 79.0598 114.482 76.9451 111.896 74.1771C111.704 73.9745 111.472 73.8758 111.2 73.8812C97.9198 74.1212 87.5118 75.3932 76.5438 82.4812C68.9838 87.3612 64.1598 92.3052 61.7918 100.785C61.7494 100.938 61.6736 101.081 61.5699 101.201C61.4662 101.322 61.3372 101.418 61.1919 101.483C61.0467 101.548 60.8889 101.58 60.7299 101.577C60.5708 101.574 60.4144 101.536 60.2718 101.465C57.1598 99.9211 54.6638 108.473 51.6398 109.329C51.5144 109.365 51.4059 109.444 51.3339 109.552C51.262 109.661 51.2314 109.792 51.2478 109.921C51.2905 110.236 51.2291 110.486 51.0638 110.673C51.0315 110.709 50.9894 110.735 50.9426 110.748C50.8958 110.76 50.8464 110.758 50.8005 110.743C50.7545 110.728 50.7141 110.699 50.6841 110.661C50.6541 110.623 50.636 110.577 50.6318 110.529C49.2665 98.1825 51.0478 86.0705 55.9758 74.1932C56.1411 73.7932 55.9518 73.5878 55.4078 73.5771" stroke="#2A2135" stroke-width="2"/>
<path d="M55.4072 73.5766C58.7566 65.8006 63.2872 58.7526 68.9992 52.4326" stroke="#908B91" stroke-width="2"/>
<path d="M196.791 144.514C196.012 144.834 195.22 145.298 194.415 145.906C189.439 149.666 184.567 150.434 179.223 146.602C178.973 146.42 178.807 146.482 178.727 146.786L177.951 149.858" stroke="#8D5F58" stroke-width="2"/>
<path d="M177.951 149.856C177.077 149.291 176.525 149.579 176.295 150.72C175.655 153.904 173.935 155.112 171.135 154.344C170.858 154.27 170.602 154.315 170.367 154.48C162.618 160.07 154.717 160.339 146.663 155.288C143.543 153.328 146.351 150.52 148.127 148.536C148.293 148.344 148.498 148.214 148.743 148.144L152.407 147.064" stroke="#FDBA99" stroke-width="2"/>
<path d="M152.408 147.065C155.907 146.494 159.286 145.18 162.544 143.121" stroke="#F8CAB5" stroke-width="2"/>
<path d="M162.544 143.121C162.443 143.169 162.555 143.206 162.88 143.233" stroke="#9B6257" stroke-width="2"/>
<path d="M162.879 143.234C162.247 144.138 164.575 145.314 165.327 146.098C166.999 147.818 168.911 148.786 170.495 150.402C170.567 150.473 170.656 150.525 170.754 150.551C170.852 150.577 170.956 150.577 171.053 150.55C171.15 150.523 171.238 150.47 171.307 150.398C171.376 150.325 171.425 150.235 171.447 150.138C172.743 144.474 173.204 138.874 172.831 133.338C172.367 126.514 172.399 120.162 170.567 113.482C169.703 110.378 168.383 108.914 165.623 107.546C160.78 105.162 156.492 103.319 152.759 102.018" stroke="#FDB290" stroke-width="2"/>
<path d="M152.759 102.017C142.236 98.342 132.301 93.2993 122.951 86.8887" stroke="#FDBA99" stroke-width="2"/>
<path d="M122.952 86.8889L114.648 79.9128C114.385 79.6941 114.072 79.5439 113.739 79.4755C113.405 79.4071 113.06 79.4226 112.736 79.5208C99.9894 83.4035 88.424 89.6595 78.04 98.2889" stroke="#FDBC9B" stroke-width="2"/>
<path d="M78.039 98.289C75.703 99.665 73.399 100.617 71.127 101.145C70.9822 101.178 70.831 101.166 70.6928 101.112C70.5546 101.058 70.4357 100.964 70.3514 100.842C70.2671 100.72 70.2213 100.575 70.2198 100.427C70.2183 100.278 70.2612 100.133 70.343 100.009C71.095 98.905 71.2043 98.1797 70.671 97.833" stroke="#FDB290" stroke-width="2"/>
<path d="M124.16 85.0575C120.875 82.7695 117.683 80.3509 114.584 77.8015C112.216 75.8495 112.152 74.5775 108.328 75.4895C93.9919 78.9215 79.2799 85.3775 70.6719 97.8335" stroke="#8D5F58" stroke-width="2"/>
<path d="M70.6717 97.833C65.6237 106.265 67.4157 120.969 68.3677 130.353C68.4477 131.148 68.3864 131.158 68.1837 130.385C67.5011 127.793 66.5784 125.977 65.4157 124.937C60.9357 120.926 56.3704 121.198 51.7197 125.753" stroke="#8E6C66" stroke-width="2"/>
<path d="M55.4077 73.5762C48.2984 90.1895 47.069 107.582 51.7197 125.752" stroke="#85828A" stroke-width="2"/>
<path d="M51.72 125.753C48.8294 130.254 48.0214 134.758 49.296 139.265C49.584 140.265 51.568 141.737 50.424 142.233" stroke="#F4D6C2" stroke-width="2"/>
<path d="M50.4238 142.233C49.6771 141.385 49.1118 140.918 48.7278 140.833C42.5411 139.521 37.2318 136.964 32.7998 133.161" stroke="#85828A" stroke-width="2"/>
<path d="M175.169 54.8408C181.937 63.4328 186.878 73.0461 189.993 83.6808C190.03 83.8088 190.108 83.8381 190.225 83.7688L190.417 83.6568C190.636 83.5288 190.716 83.3395 190.657 83.0888L188.377 73.1768" stroke="#312437" stroke-width="2"/>
<path d="M186.305 57.0254C200.833 76.8494 203.457 102.633 196.673 125.721" stroke="#85828A" stroke-width="2"/>
<path d="M196.671 125.721C188.922 120.783 183.226 122.343 179.583 130.401C179.503 130.577 179.455 130.569 179.439 130.377C179.29 128.361 179.292 126.345 179.447 124.329C179.98 117.593 179.666 110.908 178.503 104.273C178.475 104.115 178.398 103.969 178.283 103.857C178.168 103.745 178.021 103.672 177.863 103.649C163.991 101.767 150.62 98.0441 137.751 92.4814" stroke="#8D5F58" stroke-width="2"/>
<path d="M84.1846 144.033C84.6806 143.494 84.9846 142.585 85.0966 141.305" stroke="#AF7367" stroke-width="2"/>
<path d="M85.0947 141.305L85.2147 142.761C85.2414 143.065 85.3987 143.262 85.6867 143.353L95.7427 146.641" stroke="#FEDECE" stroke-width="2"/>
<path d="M76.8948 160.28C73.8228 156.222 71.3375 151.856 69.4389 147.184C69.2255 146.656 68.8655 146.52 68.3588 146.776C61.4628 150.216 55.0549 147.944 50.4229 142.232" stroke="#8E6C66" stroke-width="2"/>
<path d="M162.88 143.233C164.811 140.273 165.499 137.739 164.944 135.633" stroke="#9C6F65" stroke-width="2"/>
<path d="M164.943 135.633L165.471 133.281" stroke="#AB7E74" stroke-width="2"/>
<path d="M165.472 133.281C162.299 129.201 158.622 126.468 154.44 125.081" stroke="#9C6F65" stroke-width="2"/>
<path d="M159.831 113.121C161.735 114.481 163.37 116.139 164.735 118.097C164.764 118.134 164.805 118.16 164.85 118.172C164.896 118.184 164.944 118.181 164.988 118.162C165.031 118.144 165.068 118.112 165.091 118.072C165.115 118.031 165.125 117.984 165.119 117.937C164.442 114.379 162.802 111.347 160.199 108.841" stroke="#8E6C66" stroke-width="2"/>
<path d="M204.568 75.5928L204.176 75.7688C203.968 75.8594 203.92 76.0034 204.032 76.2008C213.624 92.7288 217.08 115.193 216.352 133.785C216.304 134.947 216.614 135.699 217.28 136.041C217.405 136.103 217.548 136.121 217.684 136.09C217.821 136.06 217.944 135.983 218.032 135.873C219.019 134.603 219.976 134.233 220.904 134.761" stroke="#E1DFDC" stroke-width="2"/>
<path d="M220.904 134.761C219.907 135.518 218.907 136.166 217.904 136.705C211.269 140.267 204.232 142.87 196.792 144.513" stroke="#85828A" stroke-width="2"/>
<path d="M196.792 144.513C200.472 138.025 201.768 132.257 196.672 125.721" stroke="#F4C9B4" stroke-width="2"/>
<path d="M165.471 133.281C164.079 132.695 162.932 131.815 162.031 130.641C161.99 130.591 161.933 130.557 161.869 130.544C161.805 130.532 161.739 130.542 161.683 130.573C161.627 130.604 161.584 130.654 161.563 130.713C161.542 130.773 161.543 130.838 161.567 130.897C162.351 132.956 163.476 134.535 164.943 135.633" stroke="#492E3B" stroke-width="2"/>
<path d="M162.544 143.12C164.528 136.184 161.176 129.216 153.352 128.568" stroke="#97878A" stroke-width="2"/>
<path d="M153.351 128.568C151.127 127.368 147.759 129.664 146.159 131.056C146.122 131.092 146.097 131.138 146.086 131.189C146.076 131.239 146.081 131.292 146.101 131.339C146.121 131.387 146.155 131.427 146.198 131.455C146.241 131.483 146.292 131.497 146.343 131.496L150.407 131.288C150.658 131.278 150.874 131.187 151.055 131.016L153.103 129.104" stroke="#4E232E" stroke-width="2"/>
<path d="M153.104 129.104C157.976 129.672 159.336 135.696 158.456 139.624C157.28 144.904 151.368 146.864 146.8 144.584" stroke="#97878A" stroke-width="2"/>
<path d="M132.529 185.833C132.006 184.777 131.83 183.377 132.001 181.633" stroke="#8D5F58" stroke-width="2"/>
<path d="M152.759 102.018L153.439 103.778C153.535 104.034 153.719 104.191 153.991 104.25C157.292 104.964 159.361 106.495 160.199 108.842" stroke="#FEC7A7" stroke-width="2"/>
<path d="M160.2 108.841C155.24 105.145 145.168 102.241 141.744 109.137C140.192 112.281 143.52 113.425 146.064 112.377C150.698 110.468 155.288 110.716 159.832 113.121" stroke="#8E736F" stroke-width="2"/>
<path d="M159.831 113.121L159.415 113.657C159.244 113.876 159.034 113.924 158.783 113.801C154.692 111.78 150.516 111.66 146.255 113.441C146.159 113.484 146.164 113.513 146.271 113.529C146.362 113.545 146.434 113.588 146.487 113.657C146.544 113.724 146.576 113.809 146.576 113.897C146.576 113.985 146.544 114.07 146.487 114.137C146.066 114.633 145.906 115.105 146.007 115.553C146.844 119.308 149.655 122.484 154.439 125.081" stroke="#FEC7A7" stroke-width="2"/>
<path d="M154.44 125.081C141.712 123.673 137.496 138.169 146.8 144.585" stroke="#9C776E" stroke-width="2"/>
<path d="M146.801 144.585L146.553 145.009C146.414 145.249 146.465 145.438 146.705 145.577C148.427 146.569 150.329 147.065 152.409 147.065" stroke="#F9DECB" stroke-width="2"/>
<path d="M177.952 149.857C170.112 168.921 152.144 179.945 132 181.633" stroke="#8E736F" stroke-width="2"/>
<path d="M132 181.633C126.486 182.305 121.011 182.499 115.576 182.217" stroke="#FDBA99" stroke-width="2"/>
<path d="M115.576 182.218C115.587 181.999 115.256 181.919 114.584 181.978" stroke="#FEC7A7" stroke-width="2"/>
<path d="M114.585 181.977L113.969 181.401" stroke="#8E736F" stroke-width="2"/>
<path d="M117.728 168.978C121.248 169.436 124.264 169.572 126.776 169.386C135.144 168.762 140.376 164.383 142.472 156.25C142.701 155.354 142.376 154.764 141.496 154.482C141.037 154.332 140.56 154.492 140.064 154.962" stroke="#BC7F6E" stroke-width="2"/>
<path d="M140.064 154.961C135.243 156.625 130.347 157.348 125.376 157.129" stroke="#FEE6D7" stroke-width="2"/>
<path d="M124.464 150.761C126.933 149.945 128.112 148.345 128 145.961C127.989 145.689 127.893 145.454 127.712 145.257C126.944 144.393 125.949 143.726 124.728 143.257" stroke="#FEC7A7" stroke-width="2"/>
<path d="M123.992 142.768C123.928 142.219 123.566 141.707 122.904 141.232" stroke="#F9DECB" stroke-width="2"/>
<path d="M122.953 86.8887C120.873 94.4247 121.825 101.129 121.593 108.225C121.345 115.905 121.137 123.561 121.777 131.233C121.963 133.489 121.963 135.747 121.777 138.009C121.756 138.266 121.797 138.524 121.897 138.761L122.905 141.233" stroke="#FED1B1" stroke-width="2"/>
<path d="M122.903 141.233C122.22 140.727 121.567 140.62 120.943 140.913C120.811 140.973 120.695 141.062 120.605 141.173C120.515 141.285 120.452 141.415 120.423 141.553C119.959 143.671 120.039 145.756 120.663 147.809C120.699 147.927 120.769 148.031 120.864 148.11C120.959 148.188 121.074 148.237 121.197 148.251C121.319 148.264 121.443 148.242 121.553 148.186C121.662 148.131 121.754 148.044 121.815 147.937C122.049 147.527 122.409 147.292 122.895 147.233C123.021 147.217 123.137 147.155 123.218 147.058C123.3 146.962 123.342 146.838 123.335 146.713C123.26 145.279 123.479 143.964 123.991 142.769" stroke="#F9E1CD" stroke-width="2"/>
<path d="M123.992 142.769C124.424 142.982 124.67 143.145 124.728 143.257" stroke="#FED1B1" stroke-width="2"/>
<path d="M124.728 143.257C124.792 146.697 123.573 148.833 121.072 149.665C120.919 149.713 120.79 149.816 120.707 149.953C120.625 150.091 120.596 150.254 120.625 150.411C120.655 150.568 120.741 150.71 120.868 150.808C120.994 150.906 121.152 150.955 121.312 150.945L124.464 150.761" stroke="#FEC9A9" stroke-width="2"/>
<path d="M124.464 150.761C125.616 152.787 125.92 154.91 125.376 157.129" stroke="#FED1B1" stroke-width="2"/>
<path d="M125.376 157.129C119.861 157.459 114.309 156.766 108.72 155.049" stroke="#FEE8D9" stroke-width="2"/>
<path d="M108.719 155.05C108.533 154.399 107.797 154.135 106.511 154.258C106.239 154.284 106.087 154.434 106.055 154.706C105.255 161.73 111.463 166.914 117.727 168.978" stroke="#BC8170" stroke-width="2"/>
<path d="M117.728 168.978L112.696 169.746C112.419 169.788 112.309 169.948 112.368 170.226C112.512 170.876 112.84 171.258 113.352 171.37C113.859 171.482 113.899 171.684 113.472 171.978C111.296 173.46 110.184 175.562 110.136 178.282C110.131 178.548 110.235 178.759 110.448 178.914L113.968 181.402" stroke="#FED1B1" stroke-width="2"/>
<path d="M113.968 181.401C99.6155 178.961 85.6475 172.057 76.8955 160.281" stroke="#8E7671" stroke-width="2"/>
<path d="M76.8955 160.281C78.7515 159.646 80.0128 158.427 80.6795 156.625C80.7808 156.347 80.9675 156.27 81.2395 156.393C88.7515 159.769 97.1595 157.537 103.576 152.833C103.8 152.673 103.928 152.454 103.96 152.177C104.32 148.745 97.7115 148.577 95.7435 146.641" stroke="#FEC9A9" stroke-width="2"/>
<path d="M95.7432 146.641C97.3512 146.465 98.8792 146.857 100.295 146.553C106.695 145.177 106.967 140.417 106.415 134.913C106.394 134.684 106.279 134.521 106.071 134.425C105.831 134.313 105.57 134.3 105.287 134.385" stroke="#FEE8D9" stroke-width="2"/>
<path d="M105.288 134.385C102.824 119.537 87.3518 124.009 82.1998 133.849C81.5918 135.009 80.8558 135.225 79.6718 134.817C79.4585 134.742 79.2718 134.785 79.1118 134.945L78.8398 135.217C78.8074 135.25 78.7835 135.29 78.7701 135.335C78.7567 135.379 78.7542 135.426 78.7629 135.472C78.7715 135.517 78.791 135.56 78.8197 135.596C78.8484 135.633 78.8855 135.662 78.9278 135.681C82.7038 137.321 82.6958 140.761 84.1838 144.033" stroke="#B07D71" stroke-width="2"/>
<path d="M84.1847 144.033C83.8407 147.665 80.3767 148.217 77.1047 148.385C76.7794 148.401 76.5687 148.254 76.4727 147.945C75.5234 144.884 75.6487 141.87 76.8487 138.905C76.9447 138.665 77.102 138.476 77.3207 138.337L77.7287 138.073C77.7786 138.04 77.821 137.998 77.8533 137.948C77.8856 137.898 77.907 137.841 77.916 137.782C77.9251 137.724 77.9216 137.664 77.9059 137.606C77.8902 137.549 77.8625 137.495 77.8247 137.449C76.5874 135.886 76.6994 134.518 78.1607 133.345C78.3954 133.158 78.5154 132.916 78.5207 132.617L78.9207 113.985C78.926 113.777 78.8274 113.66 78.6247 113.633C76.5767 113.353 78.9927 103.153 79.3367 101.705C79.3989 101.441 79.3708 101.165 79.2567 100.921L78.0407 98.2891" stroke="#FEC9A9" stroke-width="2"/>
<path d="M114.584 181.978L114.168 185.306C114.138 185.526 114.036 185.731 113.876 185.886C113.716 186.041 113.509 186.138 113.288 186.162L105.808 186.962" stroke="#8E6C66" stroke-width="2"/>
<path d="M105.807 186.961C86.1515 187.825 66.1035 182.025 52.0315 167.937C51.975 167.884 51.9372 167.814 51.9238 167.738C51.9105 167.661 51.9222 167.582 51.9573 167.513C51.9924 167.444 52.049 167.388 52.1186 167.353C52.1882 167.319 52.2671 167.307 52.3435 167.321C53.8635 167.553 67.5515 168.689 67.7035 167.329C67.7248 167.111 67.6288 167.009 67.4155 167.025C66.0768 167.095 65.1168 167.041 64.5355 166.865C53.1755 163.425 44.1568 156.783 37.4795 146.938" stroke="#85828A" stroke-width="2"/>
<path d="M105.287 134.385C105.503 141.457 100.391 147.689 93.2387 144.417C88.4067 142.209 88.4467 134.305 92.6947 131.529C92.7808 131.472 92.8805 131.44 92.9834 131.436C93.0863 131.432 93.1884 131.456 93.2787 131.505C93.3691 131.554 93.4444 131.627 93.4965 131.716C93.5487 131.805 93.5757 131.906 93.5747 132.009V132.913C93.5733 132.976 93.5909 133.037 93.6251 133.09C93.6593 133.142 93.7085 133.183 93.7663 133.208C93.8242 133.232 93.888 133.238 93.9495 133.225C94.0109 133.213 94.0671 133.182 94.1107 133.137L94.8787 132.361C95.0696 132.168 95.1963 131.92 95.2411 131.652C95.286 131.383 95.2469 131.108 95.1291 130.864C95.0114 130.62 94.8209 130.419 94.584 130.288C94.3471 130.158 94.0755 130.105 93.8067 130.137C87.0627 130.921 86.0467 135.593 85.0947 141.305" stroke="#B09297" stroke-width="2"/>
<path d="M80.9922 215.361L85.5282 217.497" stroke="#E9B79D" stroke-width="2"/>
<path d="M85.5283 217.497L93.9523 221.489" stroke="#E4A68A" stroke-width="2"/>
<path d="M93.9512 221.489C111.082 228.561 129.002 229.599 147.711 224.601" stroke="#E9B79D" stroke-width="2"/>
<path d="M147.712 224.601L154.4 222.161" stroke="#E4A68A" stroke-width="2"/>
<path d="M154.399 222.161L161.087 219.217" stroke="#EBA08D" stroke-width="2"/>
<path d="M161.087 219.217L168.199 215.361" stroke="#E4A68A" stroke-width="2"/>
<path d="M168.2 215.361C188.99 201.713 203.31 182.891 211.16 158.897C212.435 155.003 213.91 151.91 215.584 149.617C219.254 144.587 221.886 139.726 223.48 135.033C223.576 134.75 223.504 134.523 223.264 134.353C222.992 134.155 222.696 134.078 222.376 134.121" stroke="#E1DFDC" stroke-width="2"/>
<path d="M222.376 134.121L220.904 134.761" stroke="#7B7580" stroke-width="2"/>
<path d="M153.353 128.569C153.283 128.564 153.211 128.572 153.137 128.593C153.051 128.62 153.006 128.681 153.001 128.777C152.995 128.884 153.03 128.993 153.105 129.105" stroke="#AA8B8B" stroke-width="2"/>
<path d="M168.2 215.361C165.768 207.639 162.147 201.193 157.336 196.025C152.494 190.82 146.528 188.031 139.44 187.657" stroke="#EEB394" stroke-width="2"/>
<path d="M139.44 187.657L132.784 187.049C132.506 187.023 132.249 186.895 132.069 186.694C131.889 186.494 131.801 186.236 131.824 185.977C131.84 185.843 132.074 185.795 132.528 185.833" stroke="#F4C9B4" stroke-width="2"/>
<path d="M132.527 185.833C155.391 189.041 180.463 184.889 197.567 169.249C198.591 168.316 198.41 167.884 197.023 167.953C193.461 168.129 189.903 167.99 186.351 167.537C186.302 167.53 186.256 167.505 186.223 167.467C186.189 167.43 186.17 167.382 186.168 167.332C186.166 167.282 186.182 167.232 186.212 167.192C186.243 167.152 186.286 167.124 186.335 167.113C202.711 163.225 218.263 151.177 222.375 134.121" stroke="#85828A" stroke-width="2"/>
<path d="M139.44 187.657C137.194 194.809 132.274 198.772 124.68 199.545" stroke="#F78F62" stroke-width="2"/>
<path d="M124.68 199.545C124.184 194.897 121.448 186.561 116.088 186.065C115.821 186.043 115.626 185.913 115.504 185.673C114.805 184.345 114.829 183.193 115.576 182.217" stroke="#FDB290" stroke-width="2"/>
<path d="M124.68 199.545C116.728 200.881 110.16 195.633 108.36 188.081C108.296 187.809 108.128 187.654 107.856 187.617C107.179 187.515 106.491 187.577 105.792 187.801" stroke="#F79C70" stroke-width="2"/>
<path d="M108.72 155.049C108.986 161.492 112.474 165.465 119.184 166.969C128.704 169.097 138.512 165.801 140.064 154.961" stroke="#BC9695" stroke-width="2"/>
<path d="M105.808 186.961L105.792 187.801" stroke="#F4D6C2" stroke-width="2"/>
<path d="M105.791 187.801C105.306 187.737 104.735 187.833 104.079 188.089" stroke="#EEB394" stroke-width="2"/>
<path d="M104.08 188.089C90.3436 190.921 83.7356 201.457 79.2236 213.969" stroke="#F3C4A7" stroke-width="2"/>
<path d="M93.9523 221.489L93.0323 196.433C93.0299 196.399 93.0168 196.367 92.9949 196.341C92.973 196.315 92.9435 196.297 92.9106 196.289C92.8776 196.281 92.843 196.283 92.8117 196.296C92.7804 196.309 92.754 196.332 92.7363 196.361C92.0536 197.598 91.5523 198.945 91.2323 200.401C90.0803 205.665 88.7363 210.881 87.2003 216.049C87.1257 216.305 86.9763 216.507 86.7523 216.657L85.5283 217.497" stroke="#F68A54" stroke-width="2"/>
<path d="M161.088 219.216C159.712 212.171 157.955 205.27 155.816 198.512C155.616 197.88 155.624 196.72 155 196.352C154.643 196.134 154.456 196.235 154.44 196.656C154.336 199.84 154.608 220.792 153.68 221.688C153.499 221.864 153.536 221.958 153.792 221.968C154.059 221.984 154.261 222.048 154.4 222.16" stroke="#F87445" stroke-width="2"/>
<path d="M147.711 224.601C144.543 220.18 140.874 216.334 136.703 213.065C130.967 208.561 123.983 206.329 117.367 203.449C109.607 200.065 104.087 196.769 104.079 188.089" stroke="#F68A54" stroke-width="2"/>
<path d="M107.992 36.0165C85.9117 41.6085 69.4317 57.0726 59.9197 77.3926C59.8823 77.4726 59.909 77.5579 59.9997 77.6486C60.0235 77.6716 60.0521 77.689 60.0835 77.6996C60.1149 77.7102 60.1482 77.7137 60.1811 77.7099C60.214 77.7061 60.2457 77.695 60.2738 77.6775C60.3019 77.66 60.3257 77.6364 60.3437 77.6086C74.9197 54.4806 99.5197 37.5926 126.432 33.1846C126.483 33.1824 126.531 33.1602 126.565 33.1226C126.6 33.0851 126.618 33.0355 126.616 32.9846C126.614 32.9336 126.591 32.8857 126.554 32.8512C126.516 32.8167 126.467 32.7985 126.416 32.8006C120.896 32.5446 113.376 34.6565 107.992 36.0165Z" stroke="#473343" stroke-width="2"/>
<path d="M67.1117 72.9216C65.5651 74.6763 63.9197 76.3163 62.1757 77.8416C59.6077 80.0816 58.5757 83.8816 57.7597 87.0416C57.7323 87.1443 57.7437 87.2535 57.7918 87.3483C57.8398 87.4431 57.9211 87.5169 58.0202 87.5555C58.1192 87.5942 58.229 87.5949 58.3285 87.5576C58.4281 87.5204 58.5104 87.4478 58.5597 87.3536C60.3997 84.0016 62.2957 82.1136 65.6477 78.4496C79.1144 63.735 95.5064 53.631 114.824 48.1376C115.288 48.0016 116.624 47.8576 116.944 47.2976C117.205 46.855 117.082 46.6816 116.576 46.7776C109.04 48.2176 101.216 49.7776 94.4877 52.7696C83.9704 57.4523 74.8451 64.1696 67.1117 72.9216Z" stroke="#473343" stroke-width="2"/>
<path d="M137.192 73.8889C145.544 82.2969 158.672 89.9529 170.872 89.5529C170.952 89.5507 171.029 89.5257 171.095 89.4808C171.161 89.436 171.212 89.3731 171.243 89.2998C171.275 89.2266 171.284 89.1458 171.271 89.0673C171.257 88.9888 171.222 88.9158 171.168 88.8569C171.072 88.7529 170.792 88.5289 170.624 88.4889C158.936 85.5609 147.144 80.8328 137.384 73.6648C137.355 73.6409 137.319 73.6293 137.283 73.6323C137.246 73.6354 137.213 73.6529 137.188 73.6814C137.164 73.7098 137.151 73.7471 137.151 73.7856C137.152 73.8241 137.167 73.861 137.192 73.8889Z" stroke="#3D2D3E" stroke-width="2"/>
<path d="M185.568 131.945L184.368 132.569" stroke="#FD8A65" stroke-width="2"/>
<path d="M184.368 132.568C179.957 134.947 179.435 137.798 182.8 141.12" stroke="#F0835D" stroke-width="2"/>
<path d="M182.8 141.121C187.16 143.081 192.632 142.897 192.784 136.649" stroke="#FD8A65" stroke-width="2"/>
<path d="M192.785 136.649C192.987 137.204 193.299 137.452 193.721 137.393C193.998 137.356 194.137 137.199 194.137 136.921C194.145 131.233 188.977 127.489 183.681 130.793C183.457 130.932 183.457 131.071 183.681 131.209C184.262 131.588 184.891 131.833 185.569 131.945" stroke="#FDBC9B" stroke-width="2"/>
<path d="M192.784 136.649C193.032 132.737 188.776 131.689 185.568 131.945" stroke="#FEA17E" stroke-width="2"/>
<path d="M182.8 141.121C183.114 140.993 183.256 140.788 183.224 140.505" stroke="#F16740" stroke-width="2"/>
<path d="M183.224 140.505C185.808 141.929 191.248 142.369 191.48 138.241C191.49 137.99 191.418 137.766 191.264 137.569C189.717 135.579 187.613 134.713 184.952 134.969" stroke="#FD825E" stroke-width="2"/>
<path d="M184.952 134.968C185.55 134.808 185.944 134.576 186.136 134.272C186.302 134.011 186.253 133.795 185.992 133.624L184.368 132.568" stroke="#F16740" stroke-width="2"/>
<path d="M184.951 134.969C184.402 135.315 184.012 135.787 183.783 136.385C183.692 136.619 183.535 136.79 183.311 136.897C181.895 137.585 182.111 139.617 183.223 140.505" stroke="#F07B55" stroke-width="2"/>
<path d="M85.3441 115.169C90.8641 110.377 97.3601 109.569 103.992 113.161C104.243 113.294 104.504 113.329 104.776 113.265C106.232 112.939 107.048 112.123 107.224 110.817C107.664 107.425 102.288 105.097 99.7601 104.969C92.4428 104.601 87.4001 107.83 84.6321 114.657C84.5905 114.751 84.5824 114.856 84.6094 114.956C84.6364 115.055 84.6967 115.142 84.7802 115.202C84.8637 115.262 84.9654 115.291 85.0681 115.285C85.1708 115.279 85.2682 115.238 85.3441 115.169Z" stroke="#8E7671" stroke-width="2"/>
<path d="M57.5918 139.329C59.3838 141.26 61.6558 141.889 64.4078 141.217C65.5518 140.937 66.6318 140.065 67.9438 139.681C68.1785 139.612 68.2798 139.454 68.2478 139.209C68.2211 139.022 68.1251 138.87 67.9598 138.753" stroke="#FCAB89" stroke-width="2"/>
<path d="M67.9599 138.753C68.1252 135.783 67.1145 133.503 64.9279 131.913C64.7199 131.764 64.4879 131.689 64.2319 131.689C61.0585 131.711 59.0452 131.945 58.1919 132.393C55.1279 134.009 54.4879 137.257 57.5919 139.329" stroke="#FE9773" stroke-width="2"/>
<path d="M67.9594 138.753C67.298 139.27 66.738 139.358 66.2794 139.017C66.0767 138.873 65.8527 138.798 65.6074 138.793C65.2394 138.782 64.8847 138.779 64.5434 138.785C64.3834 138.79 64.314 138.713 64.3354 138.553L64.3994 138.073C64.426 137.886 64.522 137.747 64.6874 137.657C65.4474 137.249 65.6714 136.913 65.3994 136.041C63.6234 130.473 54.6874 132.585 57.5914 139.329" stroke="#FD825E" stroke-width="2"/>
<path d="M79.8395 153.874C81.6235 151.162 79.3115 150.242 77.3355 149.386C77.2372 149.341 77.1273 149.33 77.0222 149.354C76.9172 149.378 76.8227 149.435 76.7531 149.517C76.6835 149.6 76.6426 149.702 76.6365 149.81C76.6305 149.917 76.6596 150.024 76.7195 150.114L79.1835 153.874C79.2191 153.928 79.2678 153.973 79.325 154.004C79.3823 154.035 79.4464 154.051 79.5115 154.051C79.5766 154.051 79.6406 154.035 79.6979 154.004C79.7552 153.973 79.8038 153.928 79.8395 153.874Z" stroke="#FEC9A9" stroke-width="2"/>
<path d="M166.399 136.217L168.232 135.249C168.298 135.213 168.352 135.159 168.388 135.093C168.424 135.026 168.439 134.951 168.432 134.876C168.426 134.801 168.397 134.729 168.35 134.67C168.303 134.612 168.239 134.568 168.167 134.545L166.336 133.937C166.042 133.841 165.866 133.945 165.808 134.249L165.56 135.593C165.54 135.701 165.55 135.813 165.591 135.915C165.631 136.018 165.699 136.107 165.787 136.172C165.874 136.238 165.979 136.276 166.087 136.284C166.195 136.292 166.304 136.269 166.399 136.217Z" stroke="#9C6F65" stroke-width="2"/>
<path d="M153.968 130.889C153.811 130.811 153.635 130.779 153.46 130.797C153.286 130.815 153.12 130.882 152.983 130.991C152.846 131.099 152.743 131.245 152.686 131.409C152.63 131.574 152.622 131.752 152.664 131.921C152.808 132.502 152.963 133.054 153.128 133.577C153.254 133.938 153.501 134.203 153.818 134.316C154.134 134.428 154.496 134.38 154.826 134.181C155.156 133.981 155.428 133.647 155.586 133.248C155.744 132.849 155.775 132.416 155.672 132.041C155.598 131.817 155.03 131.433 153.968 130.889Z" stroke="#9C8E95" stroke-width="2"/>
<path d="M157.504 136.825C157.947 135.62 157.76 134.537 156.944 133.577C156.747 133.348 156.614 133.382 156.544 133.681C156.203 135.228 155.539 136.119 154.552 136.353C151.15 137.169 147.888 137.524 144.768 137.417C144.504 137.408 144.243 137.469 144.01 137.593C143.777 137.716 143.58 137.899 143.439 138.122C143.298 138.345 143.218 138.601 143.207 138.865C143.196 139.129 143.255 139.391 143.376 139.625C146.816 146.185 156.768 146.481 157.752 137.849C157.763 137.771 157.748 137.695 157.712 137.633L157.56 137.377C157.51 137.295 157.479 137.202 157.47 137.107C157.46 137.011 157.472 136.915 157.504 136.825Z" stroke="#5A272C" stroke-width="2"/>
<path d="M64.0384 135.911C64.0196 135.695 63.9341 135.488 63.7869 135.3C63.6397 135.112 63.4337 134.948 63.1806 134.816C62.9275 134.685 62.6322 134.589 62.3117 134.533C61.9912 134.478 61.6518 134.465 61.3127 134.495C60.9736 134.525 60.6415 134.596 60.3354 134.706C60.0294 134.816 59.7553 134.962 59.5288 135.136C59.3024 135.309 59.128 135.507 59.0157 135.717C58.9034 135.928 58.8552 136.147 58.8741 136.363C58.893 136.578 58.9784 136.786 59.1256 136.974C59.2728 137.162 59.4788 137.326 59.7319 137.457C59.9851 137.589 60.2803 137.685 60.6008 137.74C60.9213 137.795 61.2608 137.808 61.5999 137.778C61.939 137.749 62.271 137.677 62.5771 137.567C62.8832 137.457 63.1573 137.311 63.3837 137.138C63.6101 136.964 63.7845 136.767 63.8969 136.556C64.0092 136.346 64.0573 136.126 64.0384 135.911Z" stroke="#FC9E7B" stroke-width="2"/>
<path d="M182.76 52.5371C181.912 52.8651 182.136 53.929 182.664 54.473C187.648 59.697 189.928 65.8011 192.744 72.0011C193.165 72.9237 193.098 73.7264 192.544 74.4091C192.352 74.6491 192.117 74.7024 191.84 74.569C191.36 74.345 190.933 74.3797 190.56 74.673C190.505 74.7158 190.44 74.744 190.371 74.7552C190.302 74.7664 190.232 74.7603 190.165 74.7374C190.099 74.7145 190.039 74.6755 189.99 74.6238C189.942 74.5721 189.907 74.5093 189.888 74.4411L189.552 73.121C189.45 72.737 189.229 72.6491 188.888 72.8571L188.376 73.177C185.128 65.6197 180.573 58.8677 174.712 52.921C174.44 52.6437 174.274 52.697 174.216 53.081C174.152 53.5237 174.469 54.1104 175.168 54.8411L171.592 51.8091C171.421 51.6597 171.221 51.5931 170.992 51.6091C170.309 51.6677 169.877 52.0331 169.696 52.7051C169.621 52.9931 169.68 53.2517 169.872 53.481C172.661 56.8304 174.682 59.6117 175.936 61.825C176.392 62.633 184.8 79.6971 183.864 80.5931C183.634 80.8171 183.45 80.7824 183.312 80.4891L180.056 73.521C179.981 73.361 179.861 73.3051 179.696 73.3531C179.192 73.4811 178.904 71.9771 178.6 71.5451C178.482 71.3797 178.4 71.3957 178.352 71.5931C178.304 71.7691 178.37 71.9397 178.552 72.1051C178.574 72.1281 178.589 72.1578 178.594 72.1897C178.598 72.2217 178.593 72.2544 178.578 72.2829C178.562 72.3114 178.539 72.3344 178.51 72.3484C178.48 72.3625 178.448 72.3669 178.416 72.361L174.344 71.473C174.203 71.4418 174.056 71.4668 173.932 71.5428C173.808 71.6188 173.718 71.7399 173.68 71.881C173.482 72.585 173.109 72.7877 172.56 72.4891C172.334 72.3662 172.067 72.3374 171.816 72.4091C169.192 73.1291 164.184 72.593 163 74.425C161.824 76.233 163.336 77.8571 165.08 78.5531C168.48 79.9131 173.24 81.361 175.888 83.913C176.096 84.1104 176.112 84.3237 175.936 84.5531C175.632 84.9531 175.202 85.1584 174.648 85.169C174.386 85.1744 174.157 85.2597 173.96 85.425C173.213 86.0597 172.618 86.9157 172.176 87.9931C171.562 89.4971 170.469 90.689 168.896 91.569C168.655 91.7001 168.453 91.8934 168.312 92.129L168.192 92.3371C168.037 92.5984 167.808 92.7264 167.504 92.721C163.912 92.681 160.76 92.4251 157.112 93.2891C151.872 94.5211 148.144 93.4411 142.04 91.4891C139.544 90.6944 138.114 91.025 137.752 92.481C133.021 90.3424 128.49 87.8677 124.16 85.0571C124.794 84.6571 124.845 84.1051 124.312 83.4011C124.152 83.1931 123.941 83.065 123.68 83.017C122.586 82.8144 121.885 82.1904 121.576 81.1451C121.533 81.0049 121.46 80.8762 121.362 80.7682C121.264 80.6602 121.143 80.5758 121.008 80.521C117.52 79.0597 114.482 76.945 111.896 74.177C111.704 73.9744 111.472 73.8757 111.2 73.881C97.9198 74.121 87.5118 75.393 76.5438 82.481C68.9838 87.361 64.1598 92.3051 61.7918 100.785C61.7494 100.938 61.6736 101.08 61.5699 101.201C61.4662 101.322 61.3372 101.418 61.1919 101.483C61.0467 101.548 60.8889 101.58 60.7299 101.577C60.5708 101.574 60.4144 101.536 60.2718 101.465C57.1598 99.921 54.6638 108.473 51.6398 109.329C51.5144 109.364 51.4059 109.444 51.3339 109.552C51.262 109.661 51.2314 109.792 51.2478 109.921C51.2905 110.236 51.2291 110.486 51.0638 110.673C51.0315 110.709 50.9894 110.735 50.9426 110.747C50.8958 110.76 50.8464 110.758 50.8005 110.743C50.7545 110.728 50.7141 110.699 50.6841 110.661C50.6541 110.623 50.636 110.577 50.6318 110.529C49.2665 98.1824 51.0478 86.0704 55.9758 74.1931C56.1411 73.7931 55.9518 73.5877 55.4078 73.577C58.7571 65.801 63.2878 58.753 68.9998 52.433C87.0958 33.017 112.68 25.1931 138.768 28.8891C155.472 31.2571 171.92 39.3851 182.76 52.5371ZM107.992 36.017C85.9118 41.609 69.4318 57.0731 59.9198 77.3931C59.8825 77.4731 59.9091 77.5584 59.9998 77.6491C60.0236 77.6721 60.0523 77.6895 60.0836 77.7001C60.115 77.7107 60.1484 77.7142 60.1813 77.7104C60.2142 77.7066 60.2458 77.6955 60.2739 77.678C60.302 77.6604 60.3259 77.6369 60.3438 77.6091C74.9198 54.4811 99.5198 37.593 126.432 33.185C126.483 33.1829 126.531 33.1606 126.565 33.1231C126.6 33.0856 126.618 33.036 126.616 32.985C126.614 32.9341 126.591 32.8862 126.554 32.8517C126.516 32.8171 126.467 32.7989 126.416 32.8011C120.896 32.5451 113.376 34.657 107.992 36.017ZM67.1118 72.921C65.5651 74.6757 63.9198 76.3157 62.1758 77.8411C59.6078 80.0811 58.5758 83.8811 57.7598 87.0411C57.7324 87.1438 57.7438 87.2529 57.7918 87.3477C57.8399 87.4426 57.9212 87.5164 58.0202 87.555C58.1193 87.5936 58.229 87.5943 58.3286 87.5571C58.4281 87.5198 58.5105 87.4472 58.5598 87.3531C60.3998 84.0011 62.2958 82.1131 65.6478 78.4491C79.1145 63.7344 95.5065 53.6304 114.824 48.1371C115.288 48.0011 116.624 47.8571 116.944 47.2971C117.205 46.8544 117.082 46.681 116.576 46.777C109.04 48.217 101.216 49.777 94.4878 52.769C83.9705 57.4517 74.8451 64.169 67.1118 72.921ZM137.192 73.8891C145.544 82.2971 158.672 89.9531 170.872 89.5531C170.951 89.5509 171.029 89.5259 171.095 89.481C171.16 89.4361 171.212 89.3733 171.243 89.3C171.274 89.2267 171.284 89.146 171.27 89.0675C171.257 88.989 171.221 88.916 171.168 88.8571C171.072 88.7531 170.792 88.5291 170.624 88.4891C158.936 85.5611 147.144 80.833 137.384 73.665C137.355 73.6411 137.319 73.6294 137.282 73.6325C137.246 73.6356 137.212 73.6531 137.188 73.6816C137.163 73.71 137.15 73.7473 137.151 73.7858C137.152 73.8243 137.166 73.8612 137.192 73.8891Z" fill="#35293C"/>
<path d="M59.9197 77.3926C69.4317 57.0726 85.9117 41.6085 107.992 36.0165C113.376 34.6565 120.896 32.5446 126.416 32.8006C126.467 32.7985 126.516 32.8167 126.554 32.8512C126.591 32.8857 126.614 32.9336 126.616 32.9846C126.618 33.0355 126.6 33.0851 126.565 33.1226C126.531 33.1602 126.483 33.1824 126.432 33.1846C99.5197 37.5926 74.9197 54.4806 60.3437 77.6086C60.3257 77.6364 60.3019 77.66 60.2738 77.6775C60.2457 77.695 60.214 77.7061 60.1811 77.7099C60.1482 77.7137 60.1149 77.7102 60.0835 77.6996C60.0521 77.689 60.0235 77.6716 59.9997 77.6486C59.909 77.5579 59.8823 77.4726 59.9197 77.3926Z" fill="#583C49"/>
<path d="M67.1117 72.9216C74.8451 64.1696 83.9704 57.4523 94.4877 52.7696C101.216 49.7776 109.04 48.2176 116.576 46.7776C117.082 46.6816 117.205 46.855 116.944 47.2976C116.624 47.8576 115.288 48.0016 114.824 48.1376C95.5064 53.631 79.1144 63.735 65.6477 78.4496C62.2957 82.1136 60.3997 84.0016 58.5597 87.3536C58.5104 87.4478 58.4281 87.5204 58.3285 87.5576C58.229 87.5949 58.1192 87.5942 58.0202 87.5555C57.9211 87.5169 57.8398 87.4431 57.7918 87.3483C57.7437 87.2535 57.7323 87.1443 57.7597 87.0416C58.5757 83.8816 59.6077 80.0816 62.1757 77.8416C63.9197 76.3163 65.5651 74.6763 67.1117 72.9216Z" fill="#583C49"/>
<path d="M175.168 54.8408C181.936 63.4328 186.877 73.0461 189.992 83.6807C190.029 83.8087 190.107 83.8381 190.224 83.7687L190.416 83.6568C190.635 83.5288 190.715 83.3394 190.656 83.0887L188.376 73.1767L188.888 72.8568C189.229 72.6488 189.451 72.7367 189.552 73.1207L189.888 74.4408C189.907 74.509 189.942 74.5718 189.991 74.6235C190.039 74.6751 190.099 74.7142 190.165 74.7371C190.232 74.76 190.303 74.7661 190.371 74.7549C190.44 74.7437 190.505 74.7155 190.56 74.6727C190.933 74.3794 191.36 74.3447 191.84 74.5687C192.117 74.7021 192.352 74.6488 192.544 74.4088C193.099 73.7261 193.165 72.9234 192.744 72.0008C189.928 65.8008 187.648 59.6967 182.664 54.4727C182.136 53.9287 181.912 52.8647 182.76 52.5367L186.304 57.0247C200.832 76.8487 203.456 102.633 196.672 125.721C188.923 120.782 183.227 122.342 179.584 130.401C179.504 130.577 179.456 130.569 179.44 130.377C179.291 128.361 179.293 126.345 179.448 124.329C179.981 117.593 179.667 110.907 178.504 104.273C178.476 104.114 178.399 103.968 178.284 103.856C178.169 103.744 178.022 103.672 177.864 103.649C163.992 101.766 150.621 98.0434 137.752 92.4807C138.115 91.0247 139.544 90.6941 142.04 91.4887C148.144 93.4407 151.872 94.5207 157.112 93.2887C160.76 92.4247 163.912 92.6807 167.504 92.7207C167.808 92.7261 168.037 92.5981 168.192 92.3367L168.312 92.1287C168.454 91.8931 168.655 91.6997 168.896 91.5687C170.469 90.6887 171.563 89.4968 172.176 87.9928C172.619 86.9154 173.213 86.0594 173.96 85.4247C174.157 85.2594 174.387 85.1741 174.648 85.1687C175.203 85.1581 175.632 84.9528 175.936 84.5528C176.112 84.3234 176.096 84.1101 175.888 83.9127C173.24 81.3607 168.48 79.9128 165.08 78.5528C163.336 77.8568 161.824 76.2327 163 74.4247C164.184 72.5927 169.192 73.1288 171.816 72.4088C172.067 72.3371 172.334 72.3659 172.56 72.4887C173.109 72.7874 173.483 72.5847 173.68 71.8807C173.718 71.7396 173.808 71.6185 173.932 71.5425C174.056 71.4665 174.203 71.4415 174.344 71.4727L178.416 72.3607C178.448 72.3666 178.481 72.3622 178.51 72.3481C178.539 72.3341 178.563 72.3111 178.578 72.2826C178.593 72.2541 178.599 72.2214 178.594 72.1894C178.589 72.1575 178.575 72.1278 178.552 72.1048C178.371 71.9394 178.304 71.7688 178.352 71.5928C178.4 71.3954 178.483 71.3794 178.6 71.5448C178.904 71.9768 179.192 73.4808 179.696 73.3528C179.861 73.3048 179.981 73.3607 180.056 73.5207L183.312 80.4887C183.451 80.7821 183.635 80.8168 183.864 80.5928C184.8 79.6968 176.392 62.6327 175.936 61.8247C174.683 59.6114 172.661 56.8301 169.872 53.4807C169.68 53.2514 169.621 52.9928 169.696 52.7048C169.877 52.0328 170.309 51.6674 170.992 51.6088C171.221 51.5928 171.421 51.6594 171.592 51.8088L175.168 54.8408Z" fill="#1E182E"/>
<path d="M68.9998 52.433C63.2878 58.753 58.7571 65.801 55.4078 73.577C48.2985 90.1904 47.0691 107.582 51.7198 125.753C48.8291 130.254 48.0211 134.758 49.2958 139.265C49.5838 140.265 51.5678 141.737 50.4238 142.233C49.6771 141.385 49.1118 140.918 48.7278 140.833C42.5411 139.521 37.2318 136.964 32.7998 133.161C33.3491 123.524 34.2051 115.332 35.3678 108.585C39.1651 86.4997 49.5838 67.985 66.6238 53.041C67.4025 52.353 68.1945 52.1504 68.9998 52.433Z" fill="#EBECE6"/>
<path d="M188.376 73.1775L190.656 83.0895C190.715 83.3402 190.635 83.5296 190.416 83.6576L190.224 83.7695C190.107 83.8388 190.029 83.8095 189.992 83.6815C186.877 73.0469 181.936 63.4335 175.168 54.8415C174.469 54.1109 174.152 53.5242 174.216 53.0815C174.275 52.6975 174.44 52.6442 174.712 52.9215C180.573 58.8682 185.128 65.6202 188.376 73.1775Z" fill="#443040"/>
<path d="M204.569 75.5931L204.177 75.769C203.969 75.8597 203.921 76.0037 204.033 76.2011C213.625 92.7291 217.081 115.193 216.353 133.785C216.305 134.948 216.614 135.7 217.281 136.041C217.405 136.104 217.548 136.121 217.685 136.091C217.822 136.06 217.944 135.983 218.033 135.873C219.019 134.604 219.977 134.233 220.905 134.761C219.907 135.518 218.907 136.166 217.905 136.705C211.27 140.268 204.233 142.87 196.793 144.513C200.473 138.025 201.769 132.257 196.673 125.721C203.457 102.633 200.833 76.849 186.305 57.025C186.321 56.9237 186.342 56.8277 186.369 56.7371C186.411 56.5557 186.489 56.5397 186.601 56.6891C186.835 57.0144 187.142 57.0917 187.521 56.921C187.787 56.7984 188.033 56.8357 188.257 57.033C194.454 62.5264 199.891 68.7131 204.569 75.5931Z" fill="#EBECE6"/>
<path d="M55.4077 73.5762C55.9517 73.5868 56.141 73.7922 55.9757 74.1922C51.0477 86.0695 49.2664 98.1815 50.6317 110.528C50.6359 110.576 50.654 110.622 50.684 110.66C50.714 110.698 50.7544 110.727 50.8004 110.742C50.8463 110.758 50.8957 110.759 50.9425 110.747C50.9893 110.734 51.0314 110.708 51.0637 110.672C51.229 110.486 51.2904 110.235 51.2477 109.92C51.2313 109.791 51.2619 109.66 51.3338 109.551C51.4057 109.443 51.5143 109.364 51.6397 109.328C54.6637 108.472 57.1597 99.9202 60.2717 101.464C60.4143 101.535 60.5707 101.573 60.7298 101.576C60.8888 101.579 61.0466 101.547 61.1918 101.482C61.337 101.417 61.4661 101.321 61.5698 101.2C61.6735 101.08 61.7493 100.938 61.7917 100.784C64.1597 92.3042 68.9837 87.3602 76.5437 82.4802C87.5117 75.3922 97.9197 74.1202 111.2 73.8802C111.472 73.8748 111.704 73.9735 111.896 74.1762C114.482 76.9442 117.52 79.0588 121.008 80.5202C121.143 80.5749 121.264 80.6594 121.362 80.7673C121.46 80.8753 121.533 81.0041 121.576 81.1442C121.885 82.1895 122.586 82.8135 123.68 83.0162C123.941 83.0642 124.152 83.1922 124.312 83.4002C124.845 84.1042 124.794 84.6562 124.16 85.0562C120.874 82.7682 117.682 80.3495 114.584 77.8002C112.216 75.8482 112.152 74.5762 108.328 75.4882C93.9917 78.9202 79.2797 85.3762 70.6717 97.8322C65.6237 106.264 67.4157 120.968 68.3677 130.352C68.4477 131.147 68.3864 131.158 68.1837 130.384C67.501 127.792 66.5784 125.976 65.4157 124.936C60.9357 120.926 56.3704 121.198 51.7197 125.752C47.069 107.582 48.2984 90.1895 55.4077 73.5762Z" fill="#1E182E"/>
<path d="M170.872 89.5529C158.672 89.9529 145.544 82.2969 137.192 73.8889C137.167 73.861 137.152 73.8241 137.151 73.7856C137.151 73.7471 137.164 73.7098 137.188 73.6814C137.213 73.6529 137.246 73.6354 137.283 73.6323C137.319 73.6293 137.355 73.6409 137.384 73.6648C147.144 80.8328 158.936 85.5609 170.624 88.4889C170.792 88.5289 171.072 88.7529 171.168 88.8569C171.222 88.9158 171.257 88.9888 171.271 89.0673C171.284 89.1458 171.275 89.2266 171.243 89.2998C171.212 89.3731 171.161 89.436 171.095 89.4808C171.029 89.5257 170.952 89.5507 170.872 89.5529Z" fill="#443040"/>
<path d="M124.16 85.0575C128.491 87.8682 133.021 90.3428 137.752 92.4815C150.621 98.0442 163.992 101.767 177.864 103.65C178.022 103.672 178.169 103.745 178.284 103.857C178.399 103.969 178.476 104.115 178.504 104.274C179.667 110.908 179.981 117.594 179.448 124.33C179.293 126.346 179.291 128.362 179.44 130.378C179.456 130.57 179.504 130.578 179.584 130.402C183.227 122.343 188.923 120.783 196.672 125.722C201.768 132.258 200.472 138.025 196.792 144.513C196.013 144.833 195.221 145.298 194.416 145.906C189.44 149.666 184.568 150.434 179.224 146.602C178.973 146.42 178.808 146.482 178.728 146.786L177.952 149.858C177.077 149.292 176.525 149.58 176.296 150.722C175.656 153.906 173.936 155.114 171.136 154.346C170.859 154.271 170.603 154.316 170.368 154.482C162.619 160.071 154.717 160.34 146.664 155.29C143.544 153.33 146.352 150.522 148.128 148.538C148.293 148.346 148.499 148.215 148.744 148.146L152.408 147.065C155.907 146.495 159.285 145.18 162.544 143.122C162.443 143.17 162.555 143.207 162.88 143.234C162.248 144.138 164.576 145.314 165.328 146.098C167 147.818 168.912 148.786 170.496 150.402C170.568 150.473 170.657 150.525 170.755 150.551C170.854 150.577 170.957 150.577 171.054 150.55C171.151 150.523 171.239 150.47 171.308 150.398C171.378 150.325 171.426 150.235 171.448 150.138C172.744 144.474 173.205 138.874 172.832 133.338C172.368 126.514 172.4 120.162 170.568 113.482C169.704 110.378 168.384 108.914 165.624 107.546C160.781 105.162 156.493 103.319 152.76 102.018C142.237 98.3428 132.301 93.3002 122.952 86.8895L114.648 79.9135C114.385 79.6948 114.072 79.5446 113.739 79.4761C113.405 79.4077 113.06 79.4233 112.736 79.5215C99.9893 83.4042 88.424 89.6602 78.04 98.2895C75.704 99.6655 73.4 100.618 71.128 101.146C70.9832 101.178 70.832 101.167 70.6938 101.113C70.5555 101.059 70.4367 100.964 70.3524 100.842C70.2681 100.72 70.2222 100.576 70.2207 100.427C70.2192 100.279 70.2622 100.133 70.344 100.01C71.096 98.9055 71.2053 98.1802 70.6719 97.8335C79.2799 85.3775 93.992 78.9215 108.328 75.4895C112.152 74.5775 112.216 75.8495 114.584 77.8015C117.683 80.3509 120.875 82.7695 124.16 85.0575ZM185.568 131.946L184.368 132.57C179.957 134.948 179.435 137.799 182.8 141.122C187.16 143.082 192.632 142.898 192.784 136.65C192.987 137.204 193.299 137.452 193.72 137.394C193.997 137.356 194.136 137.199 194.136 136.922C194.144 131.234 188.976 127.49 183.68 130.794C183.456 130.932 183.456 131.071 183.68 131.21C184.261 131.588 184.891 131.834 185.568 131.946Z" fill="#FCA582"/>
<path d="M122.953 86.8889C120.873 94.4249 121.825 101.129 121.593 108.225C121.345 115.905 121.137 123.561 121.777 131.233C121.963 133.489 121.963 135.748 121.777 138.009C121.756 138.266 121.797 138.524 121.897 138.761L122.905 141.233C122.222 140.726 121.569 140.619 120.945 140.913C120.813 140.973 120.697 141.062 120.607 141.173C120.517 141.284 120.454 141.414 120.425 141.553C119.961 143.67 120.041 145.756 120.665 147.809C120.701 147.926 120.771 148.031 120.866 148.109C120.961 148.188 121.076 148.237 121.199 148.25C121.321 148.264 121.445 148.242 121.555 148.186C121.664 148.13 121.755 148.044 121.817 147.937C122.051 147.526 122.411 147.292 122.897 147.233C123.023 147.217 123.139 147.154 123.22 147.058C123.302 146.961 123.344 146.838 123.337 146.713C123.262 145.278 123.481 143.963 123.993 142.769C124.425 142.982 124.67 143.145 124.729 143.257C124.793 146.697 123.574 148.833 121.073 149.665C120.92 149.713 120.79 149.816 120.708 149.953C120.626 150.091 120.597 150.254 120.626 150.411C120.656 150.569 120.742 150.71 120.868 150.808C120.995 150.906 121.153 150.955 121.313 150.945L124.465 150.761C125.617 152.787 125.921 154.91 125.377 157.129C119.862 157.46 114.31 156.766 108.721 155.049C108.534 154.398 107.798 154.134 106.513 154.257C106.241 154.284 106.089 154.433 106.057 154.705C105.257 161.729 111.465 166.913 117.729 168.977L112.697 169.745C112.419 169.788 112.31 169.948 112.369 170.225C112.513 170.876 112.841 171.257 113.353 171.369C113.859 171.481 113.899 171.684 113.473 171.977C111.297 173.46 110.185 175.561 110.137 178.281C110.131 178.548 110.235 178.758 110.449 178.913L113.969 181.401C99.6167 178.961 85.6487 172.057 76.8967 160.281C78.7527 159.646 80.0141 158.428 80.6807 156.625C80.7821 156.348 80.9687 156.27 81.2407 156.393C88.7527 159.769 97.1607 157.537 103.577 152.833C103.801 152.673 103.929 152.454 103.961 152.177C104.321 148.745 97.7127 148.577 95.7447 146.641C97.3527 146.465 98.8807 146.857 100.297 146.553C106.697 145.177 106.969 140.417 106.417 134.913C106.395 134.683 106.281 134.521 106.073 134.425C105.833 134.313 105.571 134.3 105.289 134.385C102.825 119.537 87.3527 124.009 82.2007 133.849C81.5927 135.009 80.8567 135.225 79.6727 134.817C79.4594 134.742 79.2727 134.785 79.1127 134.945L78.8407 135.217C78.8083 135.25 78.7844 135.291 78.771 135.335C78.7576 135.379 78.7551 135.426 78.7638 135.472C78.7724 135.517 78.7919 135.56 78.8206 135.597C78.8493 135.633 78.8864 135.662 78.9287 135.681C82.7047 137.321 82.6967 140.761 84.1847 144.033C83.8407 147.665 80.3767 148.217 77.1047 148.385C76.7794 148.401 76.5687 148.254 76.4727 147.945C75.5234 144.884 75.6487 141.87 76.8487 138.905C76.9447 138.665 77.102 138.476 77.3207 138.337L77.7287 138.073C77.7786 138.04 77.821 137.998 77.8533 137.947C77.8856 137.897 77.907 137.841 77.916 137.782C77.9251 137.723 77.9216 137.663 77.9059 137.606C77.8902 137.548 77.8625 137.495 77.8247 137.449C76.5874 135.886 76.6994 134.518 78.1607 133.345C78.3954 133.158 78.5154 132.915 78.5207 132.617L78.9207 113.985C78.926 113.777 78.8274 113.66 78.6247 113.633C76.5767 113.353 78.9927 103.153 79.3367 101.705C79.3989 101.441 79.3708 101.165 79.2567 100.921L78.0407 98.2889C88.4247 89.6595 99.99 83.4035 112.737 79.5208C113.061 79.4226 113.406 79.4071 113.739 79.4755C114.073 79.5439 114.385 79.6941 114.649 79.9128L122.953 86.8889ZM85.3447 115.169C90.8647 110.377 97.3607 109.569 103.993 113.161C104.243 113.294 104.505 113.329 104.777 113.265C106.233 112.939 107.049 112.124 107.225 110.817C107.665 107.425 102.289 105.097 99.7607 104.969C92.4434 104.601 87.4007 107.83 84.6327 114.657C84.5911 114.751 84.583 114.856 84.61 114.956C84.6369 115.055 84.6972 115.142 84.7808 115.202C84.8643 115.262 84.9659 115.292 85.0686 115.286C85.1713 115.279 85.2688 115.238 85.3447 115.169Z" fill="#FED3B3"/>
<path d="M122.952 86.8887C132.301 93.2993 142.237 98.342 152.76 102.017L153.44 103.777C153.536 104.033 153.72 104.19 153.992 104.249C157.293 104.963 159.363 106.494 160.2 108.841C155.24 105.145 145.168 102.241 141.744 109.137C140.192 112.281 143.52 113.425 146.064 112.377C150.699 110.467 155.288 110.715 159.832 113.121L159.416 113.657C159.245 113.875 159.035 113.923 158.784 113.801C154.693 111.779 150.517 111.659 146.256 113.441C146.16 113.483 146.165 113.513 146.272 113.529C146.363 113.545 146.435 113.587 146.488 113.657C146.545 113.723 146.577 113.809 146.577 113.897C146.577 113.985 146.545 114.07 146.488 114.137C146.067 114.633 145.907 115.105 146.008 115.553C146.845 119.307 149.656 122.483 154.44 125.081C141.712 123.673 137.496 138.169 146.8 144.585L146.552 145.009C146.413 145.249 146.464 145.438 146.704 145.577C148.427 146.569 150.328 147.065 152.408 147.065L148.744 148.145C148.499 148.214 148.293 148.345 148.128 148.537C146.352 150.521 143.544 153.329 146.664 155.289C154.717 160.339 162.619 160.07 170.368 154.481C170.603 154.315 170.859 154.27 171.136 154.345C173.936 155.113 175.656 153.905 176.296 150.721C176.525 149.579 177.077 149.291 177.952 149.857C170.112 168.921 152.144 179.945 132 181.633C126.485 182.305 121.011 182.499 115.576 182.217C115.587 181.998 115.256 181.918 114.584 181.977L113.968 181.401L110.448 178.913C110.235 178.758 110.131 178.547 110.136 178.281C110.184 175.561 111.296 173.459 113.472 171.977C113.899 171.683 113.859 171.481 113.352 171.369C112.84 171.257 112.512 170.875 112.368 170.225C112.309 169.947 112.419 169.787 112.696 169.745L117.728 168.977C121.248 169.435 124.264 169.571 126.776 169.385C135.144 168.761 140.376 164.382 142.472 156.249C142.701 155.353 142.376 154.763 141.496 154.481C141.037 154.331 140.56 154.491 140.064 154.961C135.243 156.625 130.347 157.347 125.376 157.129C125.92 154.91 125.616 152.787 124.464 150.761C126.933 149.945 128.112 148.345 128 145.961C127.989 145.689 127.893 145.454 127.712 145.257C126.944 144.393 125.949 143.726 124.728 143.257C124.669 143.145 124.424 142.982 123.992 142.769C123.928 142.219 123.565 141.707 122.904 141.233L121.896 138.761C121.796 138.524 121.755 138.266 121.776 138.009C121.963 135.747 121.963 133.489 121.776 131.233C121.136 123.561 121.344 115.905 121.592 108.225C121.824 101.129 120.872 94.4247 122.952 86.8887Z" fill="#FECEAF"/>
<path d="M70.672 97.833C71.2054 98.1797 71.096 98.905 70.344 100.009C70.2622 100.133 70.2193 100.278 70.2208 100.427C70.2223 100.575 70.2682 100.72 70.3525 100.842C70.4367 100.964 70.5556 101.058 70.6938 101.112C70.832 101.166 70.9833 101.178 71.128 101.145C73.4 100.617 75.704 99.665 78.04 98.289L79.256 100.921C79.3701 101.165 79.3983 101.441 79.336 101.705C78.992 103.153 76.576 113.353 78.624 113.633C78.8267 113.66 78.9254 113.777 78.92 113.985L78.52 132.617C78.5147 132.916 78.3947 133.158 78.16 133.345C76.6987 134.518 76.5867 135.886 77.824 137.449C77.8618 137.495 77.8895 137.549 77.9052 137.606C77.9209 137.663 77.9244 137.724 77.9153 137.782C77.9063 137.841 77.8849 137.898 77.8526 137.948C77.8204 137.998 77.7779 138.04 77.728 138.073L77.32 138.337C77.1014 138.476 76.944 138.665 76.848 138.905C75.648 141.87 75.5227 144.884 76.472 147.945C76.568 148.254 76.7787 148.401 77.104 148.385C80.376 148.217 83.84 147.665 84.184 144.033C84.68 143.494 84.984 142.585 85.096 141.305L85.216 142.761C85.2427 143.065 85.4 143.262 85.688 143.353L95.744 146.641C97.712 148.577 104.32 148.745 103.96 152.177C103.928 152.454 103.8 152.673 103.576 152.833C97.16 157.537 88.752 159.769 81.24 156.393C80.968 156.27 80.7814 156.348 80.68 156.625C80.0134 158.428 78.752 159.646 76.896 160.281C73.824 156.222 71.3387 151.857 69.44 147.185C69.2267 146.657 68.8667 146.521 68.36 146.777C61.464 150.217 55.056 147.945 50.424 142.233C51.568 141.737 49.584 140.265 49.296 139.265C48.0214 134.758 48.8294 130.254 51.72 125.753C56.3707 121.198 60.936 120.926 65.416 124.937C66.5787 125.977 67.5014 127.793 68.184 130.385C68.3867 131.158 68.448 131.148 68.368 130.353C67.416 120.969 65.624 106.265 70.672 97.833ZM57.592 139.329C59.384 141.26 61.656 141.889 64.408 141.217C65.552 140.937 66.632 140.065 67.944 139.681C68.1787 139.612 68.28 139.454 68.248 139.209C68.2214 139.022 68.1254 138.87 67.96 138.753C68.1254 135.782 67.1147 133.502 64.928 131.913C64.72 131.764 64.488 131.689 64.232 131.689C61.0587 131.71 59.0454 131.945 58.192 132.393C55.128 134.009 54.488 137.257 57.592 139.329ZM79.84 153.873C81.624 151.161 79.312 150.241 77.336 149.385C77.2378 149.341 77.1279 149.33 77.0228 149.353C76.9177 149.377 76.8233 149.435 76.7537 149.517C76.6841 149.599 76.6432 149.702 76.6371 149.809C76.631 149.917 76.6601 150.023 76.72 150.113L79.184 153.873C79.2197 153.927 79.2683 153.972 79.3256 154.003C79.3829 154.034 79.4469 154.05 79.512 154.05C79.5771 154.05 79.6412 154.034 79.6985 154.003C79.7557 153.972 79.8044 153.927 79.84 153.873Z" fill="#FDBF9E"/>
<path d="M152.76 102.018C156.493 103.319 160.781 105.162 165.624 107.546C168.384 108.914 169.704 110.378 170.568 113.482C172.4 120.162 172.368 126.514 172.832 133.338C173.205 138.874 172.744 144.474 171.448 150.138C171.426 150.235 171.378 150.325 171.308 150.398C171.239 150.47 171.151 150.523 171.054 150.55C170.957 150.577 170.854 150.577 170.756 150.551C170.657 150.525 170.568 150.473 170.496 150.402C168.912 148.786 167 147.818 165.328 146.098C164.576 145.314 162.248 144.138 162.88 143.234C164.811 140.274 165.499 137.74 164.944 135.634L165.472 133.282C162.299 129.202 158.621 126.468 154.44 125.082C149.656 122.484 146.845 119.308 146.008 115.554C145.907 115.106 146.067 114.634 146.488 114.138C146.545 114.071 146.577 113.986 146.577 113.898C146.577 113.81 146.545 113.724 146.488 113.658C146.435 113.588 146.363 113.546 146.272 113.53C146.165 113.514 146.16 113.484 146.256 113.442C150.517 111.66 154.693 111.78 158.784 113.802C159.035 113.924 159.245 113.876 159.416 113.658L159.832 113.122C161.736 114.482 163.371 116.14 164.736 118.098C164.765 118.135 164.806 118.161 164.851 118.173C164.897 118.185 164.945 118.181 164.989 118.163C165.032 118.145 165.069 118.113 165.092 118.073C165.116 118.032 165.126 117.984 165.12 117.938C164.443 114.38 162.803 111.348 160.2 108.842C159.363 106.495 157.293 104.964 153.992 104.25C153.72 104.191 153.536 104.034 153.44 103.778L152.76 102.018ZM166.4 136.218L168.232 135.25C168.298 135.214 168.353 135.16 168.389 135.093C168.424 135.027 168.44 134.951 168.433 134.876C168.426 134.801 168.397 134.73 168.35 134.671C168.303 134.612 168.24 134.569 168.168 134.546L166.336 133.938C166.043 133.842 165.867 133.946 165.808 134.25L165.56 135.594C165.54 135.702 165.551 135.814 165.591 135.916C165.631 136.019 165.699 136.108 165.787 136.173C165.875 136.238 165.979 136.277 166.088 136.285C166.196 136.293 166.304 136.269 166.4 136.218Z" fill="#FDBF9E"/>
<path d="M103.992 113.161C97.3601 109.569 90.8641 110.377 85.3441 115.169C85.2682 115.238 85.1708 115.279 85.0681 115.285C84.9654 115.291 84.8637 115.262 84.7802 115.202C84.6967 115.142 84.6364 115.055 84.6094 114.956C84.5824 114.856 84.5905 114.751 84.6321 114.657C87.4001 107.83 92.4428 104.601 99.7601 104.969C102.288 105.097 107.664 107.425 107.224 110.817C107.048 112.123 106.232 112.939 104.776 113.265C104.504 113.329 104.243 113.294 103.992 113.161Z" fill="#1E182E"/>
<path d="M160.2 108.841C162.802 111.348 164.442 114.38 165.12 117.937C165.125 117.984 165.116 118.031 165.092 118.072C165.068 118.113 165.032 118.145 164.988 118.163C164.945 118.181 164.896 118.184 164.851 118.173C164.805 118.161 164.765 118.134 164.736 118.097C163.37 116.14 161.736 114.481 159.832 113.121C155.288 110.716 150.698 110.468 146.064 112.377C143.52 113.425 140.192 112.281 141.744 109.137C145.168 102.241 155.24 105.145 160.2 108.841Z" fill="#1E182E"/>
<path d="M105.288 134.386C105.504 141.458 100.392 147.69 93.2398 144.418C88.4078 142.21 88.4478 134.306 92.6958 131.53C92.7818 131.473 92.8816 131.441 92.9845 131.437C93.0874 131.433 93.1895 131.456 93.2798 131.506C93.3702 131.555 93.4455 131.628 93.4976 131.717C93.5498 131.806 93.5768 131.907 93.5758 132.01V132.914C93.5744 132.976 93.592 133.038 93.6262 133.091C93.6603 133.143 93.7096 133.184 93.7674 133.208C93.8253 133.233 93.8891 133.239 93.9506 133.226C94.012 133.214 94.0682 133.183 94.1118 133.138L94.8798 132.362C95.0707 132.168 95.1974 131.921 95.2422 131.652C95.2871 131.384 95.2479 131.109 95.1302 130.865C95.0125 130.62 94.822 130.419 94.5851 130.289C94.3482 130.159 94.0766 130.106 93.8078 130.138C87.0638 130.922 86.0478 135.594 85.0958 141.306C84.9838 142.586 84.6798 143.495 84.1838 144.034C82.6958 140.762 82.7038 137.322 78.9278 135.682C78.8855 135.663 78.8484 135.634 78.8197 135.597C78.791 135.561 78.7715 135.518 78.7629 135.473C78.7542 135.427 78.7567 135.38 78.7701 135.336C78.7835 135.291 78.8074 135.251 78.8398 135.218L79.1118 134.946C79.2718 134.786 79.4585 134.743 79.6718 134.818C80.8558 135.226 81.5918 135.01 82.1998 133.85C87.3518 124.01 102.824 119.538 105.288 134.386Z" fill="#61272F"/>
<path d="M154.44 125.081C158.621 126.468 162.299 129.201 165.472 133.281C164.08 132.694 162.933 131.814 162.032 130.641C161.991 130.591 161.934 130.557 161.87 130.544C161.806 130.531 161.74 130.542 161.684 130.573C161.628 130.604 161.585 130.653 161.564 130.713C161.542 130.772 161.544 130.838 161.568 130.897C162.352 132.956 163.477 134.534 164.944 135.633C165.499 137.74 164.811 140.273 162.88 143.233C162.555 143.206 162.443 143.169 162.544 143.121C164.528 136.185 161.176 129.217 153.352 128.569C151.128 127.369 147.76 129.665 146.16 131.057C146.123 131.093 146.098 131.139 146.087 131.189C146.077 131.24 146.082 131.292 146.102 131.34C146.122 131.387 146.155 131.428 146.199 131.456C146.242 131.484 146.292 131.498 146.344 131.497L150.408 131.289C150.659 131.278 150.875 131.188 151.056 131.017L153.104 129.105C157.976 129.673 159.336 135.697 158.456 139.625C157.28 144.905 151.368 146.865 146.8 144.585C137.496 138.169 141.712 123.673 154.44 125.081ZM153.968 130.889C153.811 130.811 153.634 130.779 153.46 130.797C153.285 130.815 153.119 130.882 152.982 130.991C152.845 131.1 152.742 131.245 152.686 131.41C152.629 131.574 152.622 131.752 152.664 131.921C152.808 132.502 152.963 133.054 153.128 133.577C153.253 133.938 153.5 134.203 153.817 134.316C154.134 134.429 154.495 134.38 154.825 134.181C155.155 133.982 155.428 133.647 155.586 133.248C155.744 132.849 155.775 132.416 155.672 132.041C155.597 131.817 155.029 131.433 153.968 130.889ZM157.504 136.825C157.947 135.62 157.76 134.537 156.944 133.577C156.747 133.348 156.613 133.382 156.544 133.681C156.203 135.228 155.539 136.118 154.552 136.353C151.149 137.169 147.888 137.524 144.768 137.417C144.504 137.408 144.243 137.469 144.009 137.592C143.776 137.716 143.58 137.899 143.439 138.122C143.298 138.345 143.218 138.601 143.207 138.865C143.196 139.129 143.254 139.391 143.376 139.625C146.816 146.185 156.768 146.481 157.752 137.849C157.762 137.771 157.748 137.695 157.712 137.633L157.56 137.377C157.51 137.294 157.479 137.202 157.469 137.107C157.46 137.011 157.472 136.915 157.504 136.825Z" fill="#3A1F2C"/>
<path d="M153.351 128.568C153.282 128.563 153.21 128.571 153.135 128.592C153.05 128.619 153.004 128.68 152.999 128.776C152.994 128.883 153.028 128.992 153.103 129.104L151.055 131.016C150.874 131.187 150.658 131.278 150.407 131.288L146.343 131.496C146.292 131.497 146.241 131.483 146.198 131.455C146.155 131.427 146.121 131.387 146.101 131.339C146.081 131.292 146.076 131.239 146.086 131.189C146.097 131.138 146.122 131.092 146.159 131.056C147.759 129.664 151.127 127.368 153.351 128.568Z" fill="#61272F"/>
<path d="M153.351 128.569C161.175 129.217 164.527 136.185 162.543 143.121C159.284 145.18 155.905 146.494 152.407 147.065C150.327 147.065 148.425 146.569 146.703 145.577C146.463 145.438 146.412 145.249 146.551 145.009L146.799 144.585C151.367 146.865 157.279 144.905 158.455 139.625C159.335 135.697 157.975 129.673 153.103 129.105C153.028 128.993 152.993 128.884 152.999 128.777C153.004 128.681 153.049 128.62 153.135 128.593C153.209 128.572 153.281 128.564 153.351 128.569Z" fill="#F3EEE7"/>
<path d="M192.785 136.649C193.033 132.737 188.777 131.689 185.569 131.945C184.891 131.833 184.262 131.588 183.681 131.209C183.457 131.071 183.457 130.932 183.681 130.793C188.977 127.489 194.145 131.233 194.137 136.921C194.137 137.199 193.998 137.356 193.721 137.393C193.299 137.452 192.987 137.204 192.785 136.649Z" fill="#FED3B3"/>
<path d="M105.288 134.385C105.57 134.3 105.832 134.313 106.072 134.425C106.28 134.521 106.394 134.684 106.416 134.913C106.968 140.417 106.696 145.177 100.296 146.553C98.8797 146.857 97.3517 146.465 95.7437 146.641L85.6877 143.353C85.3997 143.262 85.2424 143.065 85.2157 142.761L85.0957 141.305C86.0477 135.593 87.0637 130.921 93.8077 130.137C94.0764 130.105 94.3481 130.158 94.585 130.288C94.8219 130.419 95.0124 130.62 95.1301 130.864C95.2478 131.108 95.287 131.383 95.2421 131.652C95.1973 131.92 95.0706 132.168 94.8797 132.361L94.1117 133.137C94.0681 133.182 94.0119 133.213 93.9504 133.225C93.889 133.238 93.8252 133.232 93.7673 133.208C93.7095 133.183 93.6602 133.142 93.626 133.09C93.5919 133.037 93.5743 132.976 93.5757 132.913V132.009C93.5767 131.906 93.5497 131.805 93.4975 131.716C93.4454 131.627 93.3701 131.554 93.2797 131.505C93.1893 131.456 93.0873 131.432 92.9844 131.436C92.8815 131.44 92.7817 131.472 92.6957 131.529C88.4477 134.305 88.4077 142.209 93.2397 144.417C100.392 147.689 105.504 141.457 105.288 134.385Z" fill="#FEFDFE"/>
<path d="M165.472 133.281L164.944 135.633C163.477 134.535 162.352 132.956 161.568 130.897C161.544 130.838 161.542 130.773 161.564 130.713C161.585 130.654 161.628 130.604 161.684 130.573C161.74 130.542 161.806 130.532 161.87 130.544C161.934 130.557 161.991 130.591 162.032 130.641C162.933 131.815 164.08 132.695 165.472 133.281Z" fill="#583C49"/>
<path d="M153.968 130.889C155.03 131.433 155.598 131.817 155.672 132.041C155.775 132.416 155.744 132.849 155.586 133.248C155.428 133.647 155.156 133.981 154.826 134.181C154.496 134.38 154.134 134.428 153.818 134.316C153.501 134.203 153.254 133.938 153.128 133.577C152.963 133.054 152.808 132.502 152.664 131.921C152.622 131.752 152.63 131.574 152.686 131.409C152.743 131.245 152.846 131.099 152.983 130.991C153.12 130.882 153.286 130.815 153.46 130.797C153.635 130.779 153.811 130.811 153.968 130.889Z" fill="#FEFDFE"/>
<path d="M67.9608 138.753C67.2995 139.271 66.7395 139.359 66.2809 139.017C66.0782 138.873 65.8542 138.799 65.6088 138.793C65.2408 138.783 64.8862 138.78 64.5449 138.785C64.3849 138.791 64.3155 138.713 64.3368 138.553L64.4008 138.073C64.4275 137.887 64.5235 137.748 64.6888 137.657C65.4488 137.249 65.6728 136.913 65.4008 136.041C63.6248 130.473 54.6888 132.585 57.5928 139.329C54.4888 137.257 55.1288 134.009 58.1928 132.393C59.0462 131.945 61.0595 131.711 64.2329 131.689C64.4889 131.689 64.7209 131.764 64.9289 131.913C67.1155 133.503 68.1262 135.783 67.9608 138.753Z" fill="#FE6E48"/>
<path d="M185.568 131.945C188.776 131.689 193.032 132.737 192.784 136.649C192.632 142.897 187.16 143.081 182.8 141.121C183.114 140.993 183.256 140.787 183.224 140.505C185.808 141.929 191.248 142.369 191.48 138.241C191.49 137.99 191.418 137.766 191.264 137.569C189.717 135.579 187.613 134.713 184.952 134.969C185.549 134.809 185.944 134.577 186.136 134.273C186.301 134.011 186.253 133.795 185.992 133.625L184.368 132.569L185.568 131.945Z" fill="#FE6E48"/>
<path d="M67.9594 138.753C68.1247 138.87 68.2207 139.022 68.2474 139.209C68.2794 139.454 68.178 139.611 67.9434 139.681C66.6314 140.065 65.5514 140.937 64.4074 141.217C61.6554 141.889 59.3834 141.259 57.5914 139.329C54.6874 132.585 63.6234 130.473 65.3994 136.041C65.6714 136.913 65.4474 137.249 64.6874 137.657C64.522 137.747 64.426 137.886 64.3994 138.073L64.3354 138.553C64.314 138.713 64.3834 138.79 64.5434 138.785C64.8847 138.779 65.2394 138.782 65.6074 138.793C65.8527 138.798 66.0767 138.873 66.2794 139.017C66.738 139.358 67.298 139.27 67.9594 138.753ZM64.0375 135.911C64.0187 135.695 63.9332 135.488 63.786 135.3C63.6388 135.112 63.4328 134.948 63.1797 134.816C62.9266 134.685 62.6313 134.589 62.3108 134.534C61.9904 134.478 61.6509 134.465 61.3118 134.495C60.9727 134.525 60.6406 134.597 60.3345 134.706C60.0285 134.816 59.7544 134.962 59.5279 135.136C59.3015 135.309 59.1271 135.507 59.0148 135.717C58.9025 135.928 58.8543 136.147 58.8732 136.363C58.8921 136.578 58.9775 136.786 59.1247 136.974C59.2719 137.162 59.4779 137.326 59.7311 137.457C59.9842 137.589 60.2794 137.685 60.5999 137.74C60.9204 137.795 61.2599 137.808 61.599 137.779C61.9381 137.749 62.2701 137.677 62.5762 137.567C62.8823 137.457 63.1564 137.311 63.3828 137.138C63.6093 136.965 63.7836 136.767 63.896 136.556C64.0083 136.346 64.0564 136.126 64.0375 135.911Z" fill="#FB9673"/>
<path d="M184.368 132.568L185.992 133.624C186.253 133.795 186.301 134.011 186.136 134.272C185.944 134.576 185.549 134.808 184.952 134.968C184.403 135.315 184.013 135.787 183.784 136.384C183.693 136.619 183.536 136.79 183.312 136.896C181.896 137.584 182.112 139.616 183.224 140.504C183.256 140.787 183.115 140.992 182.8 141.12C179.435 137.798 179.957 134.947 184.368 132.568Z" fill="#E46037"/>
<path d="M32.7998 133.161C37.2318 136.964 42.5411 139.521 48.7278 140.833C49.1118 140.918 49.6771 141.385 50.4238 142.233C55.0558 147.945 61.4638 150.217 68.3598 146.777C68.8665 146.521 69.2265 146.657 69.4398 147.185C71.3385 151.857 73.8238 156.222 76.8958 160.281C85.6478 172.057 99.6158 178.961 113.968 181.401L114.584 181.977L114.168 185.305C114.138 185.526 114.036 185.73 113.876 185.886C113.717 186.041 113.509 186.138 113.288 186.161L105.808 186.961C86.1518 187.825 66.1038 182.025 52.0318 167.937C51.9753 167.884 51.9375 167.814 51.9242 167.737C51.9108 167.661 51.9225 167.582 51.9576 167.513C51.9927 167.443 52.0493 167.387 52.1189 167.353C52.1885 167.318 52.2674 167.307 52.3438 167.321C53.8638 167.553 67.5518 168.689 67.7038 167.329C67.7251 167.11 67.6291 167.009 67.4158 167.025C66.0771 167.094 65.1171 167.041 64.5358 166.865C53.1758 163.425 44.1571 156.782 37.4798 146.937C34.5305 142.297 32.9705 137.705 32.7998 133.161Z" fill="#1E182E"/>
<path d="M157.56 137.377L157.712 137.633C157.748 137.695 157.763 137.771 157.752 137.849C156.768 146.481 146.816 146.185 143.376 139.625C143.255 139.391 143.196 139.129 143.207 138.865C143.218 138.601 143.298 138.345 143.439 138.122C143.58 137.899 143.777 137.716 144.01 137.593C144.243 137.469 144.504 137.408 144.768 137.417C147.888 137.524 151.15 137.169 154.552 136.353C155.539 136.119 156.203 135.228 156.544 133.681C156.614 133.382 156.747 133.348 156.944 133.577C157.76 134.537 157.947 135.62 157.504 136.825C157.472 136.915 157.46 137.011 157.47 137.107C157.479 137.202 157.51 137.295 157.56 137.377Z" fill="#792F2C"/>
<path d="M165.56 135.593L165.808 134.249C165.866 133.945 166.042 133.841 166.336 133.937L168.167 134.545C168.239 134.568 168.303 134.612 168.35 134.67C168.397 134.729 168.426 134.801 168.432 134.876C168.439 134.951 168.424 135.026 168.388 135.093C168.352 135.159 168.298 135.213 168.232 135.249L166.399 136.217C166.304 136.269 166.195 136.292 166.087 136.284C165.979 136.276 165.874 136.238 165.787 136.172C165.699 136.107 165.631 136.018 165.591 135.915C165.55 135.813 165.54 135.701 165.56 135.593Z" fill="#3A1F2C"/>
<path d="M168.2 215.361C165.768 207.638 162.146 201.193 157.336 196.025C152.493 190.819 146.528 188.03 139.44 187.657L132.784 187.049C132.506 187.023 132.249 186.895 132.069 186.695C131.889 186.494 131.801 186.236 131.824 185.977C131.84 185.843 132.074 185.795 132.528 185.833C155.392 189.041 180.464 184.889 197.568 169.249C198.592 168.315 198.41 167.883 197.024 167.953C193.461 168.129 189.904 167.99 186.352 167.537C186.302 167.529 186.257 167.505 186.223 167.467C186.19 167.43 186.17 167.382 186.169 167.331C186.167 167.281 186.182 167.232 186.213 167.192C186.243 167.152 186.287 167.124 186.336 167.113C202.712 163.225 218.264 151.177 222.376 134.121C222.696 134.078 222.992 134.155 223.264 134.353C223.504 134.523 223.576 134.75 223.48 135.033C221.885 139.726 219.253 144.587 215.584 149.617C213.909 151.91 212.434 155.003 211.16 158.897C203.309 182.891 188.989 201.713 168.2 215.361Z" fill="#EBECE6"/>
<path d="M222.377 134.121C218.265 151.177 202.713 163.225 186.337 167.113C186.288 167.124 186.244 167.152 186.214 167.192C186.183 167.232 186.167 167.282 186.169 167.332C186.171 167.382 186.19 167.43 186.224 167.467C186.257 167.505 186.303 167.53 186.353 167.537C189.905 167.99 193.462 168.129 197.025 167.953C198.411 167.884 198.593 168.316 197.569 169.249C180.465 184.889 155.393 189.041 132.529 185.833C132.006 184.777 131.83 183.377 132.001 181.633C152.145 179.945 170.113 168.921 177.953 149.857L178.729 146.785C178.809 146.481 178.974 146.42 179.225 146.601C184.569 150.433 189.441 149.665 194.417 145.905C195.222 145.297 196.014 144.833 196.793 144.513C204.233 142.87 211.27 140.268 217.905 136.705C218.907 136.166 219.907 135.518 220.905 134.761L222.377 134.121Z" fill="#1E182E"/>
<path d="M61.5989 137.778C63.025 137.653 64.1167 136.817 64.0374 135.911C63.9581 135.004 62.7377 134.37 61.3116 134.495C59.8856 134.62 58.7938 135.456 58.8731 136.362C58.9525 137.269 60.1728 137.903 61.5989 137.778Z" fill="#FCA582"/>
<path d="M184.951 134.969C187.612 134.713 189.716 135.579 191.263 137.569C191.418 137.766 191.49 137.99 191.479 138.241C191.247 142.369 185.807 141.929 183.223 140.505C182.111 139.617 181.895 137.585 183.311 136.897C183.535 136.79 183.692 136.619 183.783 136.385C184.012 135.787 184.402 135.315 184.951 134.969Z" fill="#FB9673"/>
<path d="M122.904 141.233C123.565 141.708 123.928 142.22 123.992 142.769C123.48 143.964 123.261 145.279 123.336 146.713C123.343 146.838 123.301 146.962 123.219 147.058C123.138 147.155 123.022 147.217 122.896 147.233C122.41 147.292 122.05 147.527 121.816 147.937C121.755 148.044 121.663 148.131 121.554 148.186C121.444 148.242 121.32 148.264 121.198 148.251C121.075 148.237 120.96 148.188 120.865 148.11C120.77 148.031 120.7 147.927 120.664 147.809C120.04 145.756 119.96 143.671 120.424 141.553C120.453 141.415 120.516 141.285 120.606 141.173C120.696 141.062 120.812 140.973 120.944 140.913C121.568 140.62 122.221 140.727 122.904 141.233Z" fill="#F3EEE7"/>
<path d="M124.728 143.257C125.949 143.726 126.944 144.393 127.712 145.257C127.893 145.454 127.989 145.689 128 145.961C128.112 148.345 126.933 149.945 124.464 150.761L121.312 150.945C121.152 150.955 120.994 150.906 120.868 150.808C120.741 150.71 120.655 150.568 120.625 150.411C120.596 150.254 120.625 150.091 120.707 149.953C120.79 149.816 120.919 149.713 121.072 149.665C123.573 148.833 124.792 146.697 124.728 143.257Z" fill="#FDBF9E"/>
<path d="M37.4801 146.938C44.1574 156.783 53.1761 163.425 64.5361 166.865C65.1174 167.041 66.0774 167.095 67.4161 167.025C67.6294 167.009 67.7254 167.111 67.7041 167.329C67.5521 168.689 53.8641 167.553 52.3441 167.321C52.2677 167.307 52.1888 167.319 52.1192 167.353C52.0496 167.388 51.993 167.444 51.9579 167.513C51.9228 167.582 51.9111 167.661 51.9244 167.738C51.9378 167.814 51.9756 167.884 52.0321 167.938C66.1041 182.026 86.1521 187.825 105.808 186.961L105.792 187.802C105.307 187.738 104.736 187.834 104.08 188.09C90.3441 190.922 83.7361 201.457 79.2241 213.969C79.0881 213.745 78.5761 213.633 78.3441 213.473C57.0588 198.225 43.2614 177.529 36.9521 151.385C36.4774 149.423 36.6534 147.94 37.4801 146.938Z" fill="#EBECE6"/>
<path d="M77.3355 149.386C79.3115 150.242 81.6235 151.162 79.8395 153.874C79.8038 153.928 79.7552 153.973 79.6979 154.004C79.6406 154.035 79.5766 154.051 79.5115 154.051C79.4464 154.051 79.3823 154.035 79.325 154.004C79.2678 153.973 79.2191 153.928 79.1835 153.874L76.7195 150.114C76.6596 150.024 76.6305 149.917 76.6365 149.81C76.6426 149.702 76.6835 149.6 76.7531 149.517C76.8227 149.435 76.9172 149.378 77.0222 149.354C77.1273 149.33 77.2372 149.341 77.3355 149.386Z" fill="#FED3B3"/>
<path d="M108.72 155.05C108.987 161.492 112.475 165.466 119.184 166.97C128.704 169.098 138.512 165.802 140.064 154.962C140.56 154.492 141.037 154.332 141.496 154.482C142.376 154.764 142.701 155.354 142.472 156.25C140.376 164.383 135.144 168.762 126.776 169.386C124.264 169.572 121.248 169.436 117.728 168.978C111.464 166.914 105.256 161.73 106.056 154.706C106.088 154.434 106.24 154.284 106.512 154.258C107.797 154.135 108.533 154.399 108.72 155.05Z" fill="#792F2C"/>
<path d="M108.721 155.049C114.31 156.766 119.862 157.46 125.377 157.129C130.347 157.348 135.243 156.625 140.065 154.961C138.513 165.801 128.705 169.097 119.185 166.969C112.475 165.465 108.987 161.492 108.721 155.049Z" fill="#FEFDFE"/>
<path d="M132 181.633C131.829 183.377 132.005 184.777 132.528 185.833C132.074 185.795 131.84 185.843 131.824 185.977C131.801 186.236 131.889 186.494 132.069 186.695C132.249 186.896 132.506 187.023 132.784 187.049L139.44 187.657C137.194 194.809 132.274 198.771 124.68 199.545C124.184 194.897 121.448 186.561 116.088 186.065C115.821 186.043 115.626 185.913 115.504 185.673C114.805 184.345 114.829 183.193 115.576 182.217C121.01 182.499 126.485 182.305 132 181.633Z" fill="#FCA582"/>
<path d="M114.584 181.978C115.256 181.919 115.587 181.999 115.576 182.218C114.829 183.194 114.805 184.346 115.504 185.674C115.627 185.914 115.821 186.044 116.088 186.066C121.448 186.562 124.184 194.898 124.68 199.546C116.728 200.882 110.16 195.634 108.36 188.082C108.296 187.81 108.128 187.655 107.856 187.618C107.179 187.516 106.491 187.578 105.792 187.802L105.808 186.962L113.288 186.162C113.509 186.138 113.717 186.041 113.876 185.886C114.036 185.731 114.139 185.526 114.168 185.306L114.584 181.978Z" fill="#FDBF9E"/>
<path d="M124.68 199.545C132.275 198.771 137.195 194.809 139.44 187.657C146.528 188.03 152.493 190.819 157.336 196.025C162.147 201.193 165.768 207.638 168.2 215.361L161.088 219.217C159.712 212.171 157.955 205.27 155.816 198.513C155.616 197.881 155.624 196.721 155 196.353C154.643 196.134 154.456 196.235 154.44 196.657C154.336 199.841 154.608 220.793 153.68 221.689C153.499 221.865 153.536 221.958 153.792 221.969C154.059 221.985 154.261 222.049 154.4 222.161L147.712 224.601C144.544 220.179 140.875 216.334 136.704 213.065C130.968 208.561 123.984 206.329 117.368 203.449C109.608 200.065 104.088 196.769 104.08 188.089C104.736 187.833 105.307 187.737 105.792 187.801C106.491 187.577 107.179 187.515 107.856 187.617C108.128 187.654 108.296 187.809 108.36 188.081C110.16 195.633 116.728 200.881 124.68 199.545Z" fill="#F17941"/>
<path d="M104.08 188.089C104.088 196.769 109.608 200.065 117.368 203.449C123.984 206.329 130.968 208.561 136.704 213.065C140.874 216.334 144.544 220.18 147.712 224.601C129.002 229.598 111.082 228.561 93.9516 221.489L93.0316 196.433C93.0292 196.399 93.0161 196.367 92.9942 196.341C92.9723 196.315 92.9428 196.297 92.9099 196.289C92.877 196.281 92.8424 196.284 92.811 196.297C92.7797 196.309 92.7533 196.332 92.7356 196.361C92.053 197.598 91.5516 198.945 91.2316 200.401C90.0796 205.665 88.7356 210.881 87.1996 216.049C87.125 216.305 86.9756 216.508 86.7516 216.657L85.5276 217.497L80.9916 215.361L79.2236 213.969C83.7356 201.457 90.3436 190.921 104.08 188.089Z" fill="#FA9B67"/>
<path d="M161.088 219.216L154.4 222.16C154.261 222.048 154.059 221.984 153.792 221.968C153.536 221.958 153.499 221.864 153.68 221.688C154.608 220.792 154.336 199.84 154.44 196.656C154.456 196.235 154.643 196.134 155 196.352C155.624 196.72 155.616 197.88 155.816 198.512C157.955 205.27 159.712 212.171 161.088 219.216Z" fill="#FE6E48"/>
<path d="M93.9523 221.489L85.5283 217.497L86.7523 216.657C86.9763 216.507 87.1257 216.305 87.2003 216.049C88.7363 210.881 90.0803 205.665 91.2323 200.401C91.5523 198.945 92.0536 197.598 92.7363 196.361C92.754 196.332 92.7804 196.309 92.8117 196.296C92.843 196.283 92.8776 196.281 92.9106 196.289C92.9435 196.297 92.973 196.315 92.9949 196.341C93.0168 196.367 93.0299 196.399 93.0323 196.433L93.9523 221.489Z" fill="#F17941"/>
</svg>
