<svg width="256" height="256" viewBox="0 0 256 256" fill="none" xmlns="http://www.w3.org/2000/svg">
<path d="M122.738 18.9639C113.207 21.1985 104.82 25.6732 97.5777 32.3879C97.5078 32.4505 97.42 32.4896 97.3267 32.4996C97.2334 32.5097 97.1393 32.4902 97.0577 32.4439C90.4177 28.7879 83.6177 34.0759 81.4417 40.3079C81.351 40.5692 81.1697 40.6839 80.8977 40.6519C73.8177 39.8039 65.8737 42.7879 63.9537 50.3479C63.8844 50.6199 63.7217 50.8145 63.4657 50.9319C57.1777 53.8119 54.4337 59.1959 55.6497 66.0039C55.6977 66.2759 55.5831 66.4305 55.3057 66.4679C41.5297 68.2119 33.9377 80.9639 36.4897 94.3159C36.895 96.4385 37.7297 98.3959 38.9937 100.188C39.1484 100.401 39.1884 100.633 39.1137 100.884C37.4764 106.628 38.3137 111.919 41.6257 116.756C41.7804 116.975 41.8231 117.215 41.7537 117.476C40.7191 121.401 41.4177 124.793 43.8497 127.652" stroke="#DAB1A1" stroke-width="2"/>
<path d="M43.8496 127.651C44.0683 128.313 44.4043 128.777 44.8576 129.043C45.0798 129.178 45.3399 129.232 45.5936 129.195C47.7616 128.907 50.5376 128.075 51.0576 130.875" stroke="#CB9F92" stroke-width="2"/>
<path d="M51.0572 130.875C50.7959 131.835 50.3426 131.606 49.6972 130.187C49.5959 129.974 49.4279 129.867 49.1932 129.867L43.7932 129.979C43.5479 129.985 43.3319 130.062 43.1452 130.211C35.0892 136.875 35.1852 149.371 41.7852 156.971C47.0172 162.998 53.5772 165.014 61.4652 163.019C61.7212 162.95 61.9079 163.035 62.0252 163.275C71.4252 182.891 90.2252 194.699 111.177 198.627C111.529 198.691 111.585 198.854 111.345 199.115L110.921 199.587" stroke="#FEE7D8" stroke-width="2"/>
<path d="M110.922 199.588L103.098 200.516" stroke="#FDC6BC" stroke-width="2"/>
<path d="M103.097 200.516L101.033 200.996" stroke="#FBAEA9" stroke-width="2"/>
<path d="M101.034 200.996C88.0976 203.444 75.5856 210.044 71.9376 223.332C71.8963 223.478 71.9121 223.635 71.9817 223.771C72.0513 223.907 72.1697 224.013 72.3136 224.068L84.0736 228.476" stroke="#EBA1A5" stroke-width="2"/>
<path d="M157.994 202.764L152.762 201.34" stroke="#DA949B" stroke-width="2"/>
<path d="M152.762 201.34L146.562 200.348" stroke="#EBA1A5" stroke-width="2"/>
<path d="M146.562 200.347L139.794 199.523" stroke="#DAB1A1" stroke-width="2"/>
<path d="M139.794 199.523L143.786 198.195" stroke="#FFE3D3" stroke-width="2"/>
<path d="M143.785 198.195C164.249 194.051 182.121 181.947 191.873 163.187C191.946 163.047 192.068 162.937 192.216 162.879C192.364 162.82 192.529 162.816 192.681 162.867C205.113 167.187 217.585 155.339 217.057 143.003C216.855 138.289 215.065 133.934 211.689 129.939" stroke="#FDD4C5" stroke-width="2"/>
<path d="M211.689 129.94C213.508 126.436 213.825 122.876 212.641 119.26C212.551 118.977 212.601 118.721 212.793 118.492C219.476 110.497 220.94 101.545 217.185 91.6357C217.084 91.369 217.073 91.0943 217.153 90.8117C220.529 79.3317 219.249 62.8917 207.321 56.3797C207.071 56.241 207.025 56.0543 207.185 55.8197C208.935 53.2917 209.177 50.769 207.913 48.2517C205.401 43.2277 199.633 43.7796 195.225 45.0996C195.125 45.1306 195.02 45.1399 194.915 45.1272C194.811 45.1144 194.71 45.0798 194.62 45.0256C194.53 44.9713 194.451 44.8986 194.39 44.8122C194.329 44.7258 194.287 44.6275 194.265 44.5236C191.809 32.2676 179.217 16.4357 164.777 21.8117C164.662 21.8554 164.537 21.8688 164.414 21.8506C164.291 21.8325 164.174 21.7833 164.073 21.7077C162.617 20.5983 161.487 19.8623 160.681 19.4996C154.073 16.5023 147.049 15.4303 139.609 16.2837" stroke="#CB9F92" stroke-width="2"/>
<path d="M139.61 16.2836C134.346 16.0863 128.722 16.9796 122.738 18.9636" stroke="#D1A798" stroke-width="2"/>
<path d="M139.61 16.2832C150.303 16.2885 157.17 20.6405 160.21 29.3392C160.311 29.6272 160.514 29.7525 160.818 29.7152C163.938 29.2939 166.829 29.8272 169.49 31.3152C169.601 31.3776 169.696 31.4648 169.768 31.5698C169.84 31.6749 169.887 31.7949 169.905 31.9205C169.923 32.0462 169.911 32.1739 169.871 32.2937C169.831 32.4136 169.763 32.5223 169.674 32.6112L169.378 32.9072C169.17 33.1099 169.061 33.3579 169.05 33.6512L168.89 36.7872C168.874 37.0965 168.749 37.3579 168.514 37.5712C165.922 39.8992 164.458 39.9152 163.434 43.7152C163.367 43.9512 163.212 44.1519 163.002 44.2752L161.994 44.8672C161.752 45.0064 161.57 45.2315 161.482 45.4992C160.57 48.1232 158.482 48.0992 157.026 49.4992C154.994 51.4512 153.642 53.6032 151.082 55.9472C150.874 56.1392 150.629 56.2352 150.346 56.2352H149.546C149.279 56.2352 149.146 56.3685 149.146 56.6352V57.3632C149.146 57.6032 149.026 57.7312 148.786 57.7472C148.018 57.7952 147.362 58.1819 146.818 58.9072C144.49 62.0192 141.106 63.8752 137.978 66.2912C136.01 67.8192 128.146 70.1872 128.322 73.1632C128.338 73.3872 128.237 73.5312 128.018 73.5952C126.146 74.1392 124.234 74.2565 122.282 73.9472C114.063 72.6565 105.818 71.5525 97.5459 70.6352C92.0418 70.0272 86.8418 66.7552 85.1378 61.1552C85.0826 60.9792 84.9877 60.8181 84.8606 60.6846C84.7336 60.551 84.5777 60.4485 84.4051 60.385C84.2325 60.3216 84.0479 60.2988 83.8656 60.3186C83.6832 60.3385 83.5081 60.4002 83.3539 60.4992L77.4979 64.2352C77.2664 64.3877 77.0744 64.5934 76.9378 64.8352C75.8898 66.6992 74.4579 67.4672 73.1779 69.1312C71.1139 71.8272 68.7538 72.6592 69.2898 76.8432C69.3165 77.0885 69.2552 77.3045 69.1059 77.4912C66.5405 80.6859 63.6045 82.8112 60.2979 83.8672" stroke="#9E482C" stroke-width="2"/>
<path d="M60.2975 83.8679C58.9321 82.0439 58.5108 80.1692 59.0334 78.2439C59.9854 74.7719 62.6095 70.3399 66.0415 68.1799C68.9615 66.3399 69.9135 63.4919 70.2975 60.2119C70.4148 59.2625 71.3588 57.5479 73.1295 55.0679C75.8815 51.2119 80.7695 52.7079 83.8015 48.2279C83.8758 48.1174 83.9779 48.0284 84.0975 47.9698C84.2171 47.9112 84.3499 47.885 84.4828 47.8939C84.6157 47.9028 84.7439 47.9465 84.8546 48.0206C84.9652 48.0946 85.0545 48.1965 85.1134 48.3159C86.5534 51.2359 88.6415 53.3959 91.5935 55.0919C103.801 62.1105 116.532 62.6252 129.785 56.6359C136.625 53.5479 144.217 46.6119 142.833 38.5399C141.825 32.6199 136.777 28.5719 131.161 26.8599C129.519 26.3585 128.02 25.5719 126.665 24.4999C126.484 24.3612 126.361 24.1799 126.297 23.9559L125.329 20.6679C125.289 20.5337 125.209 20.4151 125.101 20.3279C124.992 20.2406 124.86 20.189 124.721 20.1799C123.505 20.1052 122.844 19.6999 122.737 18.9639" stroke="#AD5A3B" stroke-width="2"/>
<path d="M211.69 129.94C209.738 128.772 207.567 128.454 205.178 128.988C204.927 129.046 204.727 129.18 204.578 129.388C202.274 132.652 201.634 136.932 199.402 139.788C199.242 139.99 199.042 140.041 198.802 139.94C197.89 139.55 197.402 138.913 197.338 138.028C196.978 132.876 196.146 110.1 192.33 107.244C184.386 101.308 181.122 96.9078 183.258 86.5398C183.586 84.9478 187.066 74.0517 181.986 75.8997C178.618 77.1157 174.066 79.8278 170.298 81.1318C156.61 85.8758 141.162 85.1318 126.538 85.2198" stroke="#CA7558" stroke-width="2"/>
<path d="M126.538 85.2201C118.965 85.3801 111.45 84.9055 103.994 83.7961C95.6258 82.5641 89.7538 79.5561 83.2098 75.3321C82.7764 75.0525 82.2905 74.8642 81.7818 74.7789C81.2731 74.6935 80.7523 74.7128 80.2513 74.8356C79.7503 74.9584 79.2797 75.1822 78.8681 75.4931C78.4566 75.8041 78.1128 76.1957 77.8579 76.6441C73.9779 83.4521 72.2339 87.8281 65.0739 91.7081C64.8361 91.8323 64.649 92.0392 64.5458 92.2921L62.5059 97.2041" stroke="#CC8466" stroke-width="2"/>
<path d="M62.5056 97.2031C58.6816 110.003 56.8496 123.086 57.0096 136.451C57.0203 137.614 57.0043 138.246 56.9616 138.347C56.1509 140.278 55.2389 140.326 54.2256 138.491C52.8709 136.016 51.815 133.478 51.0576 130.875" stroke="#CB886C" stroke-width="2"/>
<path d="M43.8496 127.651C46.4309 128.601 48.0576 128.195 48.7296 126.435C48.8802 126.05 48.9027 125.627 48.7936 125.227C47.7643 121.329 48.1589 117.587 49.9776 114.003C51.6576 110.691 51.5296 107.619 51.5536 104.051C51.5589 103.751 51.6695 103.465 51.8656 103.243C52.6763 102.337 53.6816 101.801 54.8816 101.635C55.1269 101.603 55.3056 101.478 55.4176 101.259C57.0176 98.1152 55.3536 95.3872 56.0576 92.2832C56.7456 89.2512 59.5616 87.4752 60.2976 83.8672" stroke="#A75235" stroke-width="2"/>
<path d="M126.538 85.2197C129.114 85.5237 127.426 87.2597 127.698 88.9477" stroke="#FDB899" stroke-width="2"/>
<path d="M127.698 88.9479C117.266 89.3745 107.079 88.5132 97.1378 86.3639C91.1138 85.0679 85.0658 82.5159 79.2098 80.1079C78.9378 79.9959 78.7085 80.0545 78.5219 80.2839C76.2659 83.0519 74.8979 86.6839 72.9219 89.0999C70.3672 92.2145 67.5405 95.0785 64.4418 97.6919C64.2232 97.8732 63.9885 97.9025 63.7378 97.7799L62.5059 97.2039" stroke="#FFCCAD" stroke-width="2"/>
<path d="M143.785 198.196C150.585 195.444 155.254 193.281 157.793 191.708C164.705 187.436 169.236 181.372 171.385 173.516" stroke="#FDB899" stroke-width="2"/>
<path d="M171.386 173.515C178.34 172.363 183.452 168.529 186.722 162.011C187.314 160.838 187.487 159.051 187.242 156.651C187.215 156.379 187.068 156.227 186.802 156.195C182.322 155.659 177.13 156.427 172.386 156.827" stroke="#FC9C82" stroke-width="2"/>
<path d="M172.386 156.827L173.29 149.283" stroke="#FDB899" stroke-width="2"/>
<path d="M173.29 149.284C175.183 143.343 174.884 137.884 172.394 132.908" stroke="#FDD4C5" stroke-width="2"/>
<path d="M172.394 132.907C172.538 131.286 172.255 129.878 171.546 128.683C171.407 128.454 171.218 128.278 170.978 128.155C169.722 127.523 169.874 125.683 169.618 124.467C169.178 122.427 167.818 121.883 168.514 119.195" stroke="#FDB899" stroke-width="2"/>
<path d="M168.514 119.196L176.714 123.428C176.828 123.487 176.954 123.518 177.08 123.518C177.207 123.518 177.331 123.487 177.442 123.428C179.25 122.476 178.01 120.452 177.338 119.18" stroke="#CA7558" stroke-width="2"/>
<path d="M177.338 119.18C178.154 119.18 178.109 118.526 177.202 117.22C177.045 116.989 176.951 116.721 176.93 116.444C176.482 110.308 173.306 91.8916 164.802 91.6996C161.026 91.6196 157.306 93.0036 153.538 91.3236C152.359 90.7956 151.242 90.5236 150.186 90.5076C142.946 90.3956 137.202 91.0356 129.338 89.2676" stroke="#FDB899" stroke-width="2"/>
<path d="M129.337 89.2673C128.319 89.3313 127.772 89.2246 127.697 88.9473" stroke="#FDBD9F" stroke-width="2"/>
<path d="M129.337 89.2676C129.316 89.4916 129.449 89.6889 129.737 89.8596C129.935 89.9769 130.028 90.1529 130.017 90.3876C129.932 91.6836 130.148 93.3796 130.665 95.4756C131.289 97.9929 131.388 101.932 130.961 107.292C130.956 107.35 130.983 107.388 131.041 107.404C131.105 107.42 131.172 107.438 131.241 107.46C131.262 107.466 131.28 107.48 131.293 107.499C131.306 107.517 131.313 107.54 131.313 107.564C131.335 109.51 131.38 111.454 131.449 113.396C131.505 115.004 131.201 117.06 131.449 118.964C131.684 120.825 131.775 122.19 131.721 123.06C131.369 129.006 130.956 134.95 130.481 140.892C130.313 142.996 132.049 147.66 129.601 148.516C129.319 148.612 129.145 148.809 129.081 149.108C128.841 150.174 128.287 150.996 127.417 151.572C127.167 151.737 127.153 151.924 127.377 152.132C127.628 152.361 127.943 152.465 128.321 152.444" stroke="#FFCCAD" stroke-width="2"/>
<path d="M128.322 152.443C131.394 156.139 127.65 162.059 124.33 163.563C124.104 163.667 123.913 163.835 123.782 164.046C123.651 164.258 123.586 164.503 123.593 164.751C123.601 165 123.682 165.24 123.826 165.443C123.969 165.646 124.17 165.802 124.402 165.891C126.364 166.638 128.295 166.473 130.194 165.395" stroke="#FDBD9F" stroke-width="2"/>
<path d="M130.193 165.396C132.577 166.22 131.929 168.172 131.945 170.124C131.948 170.259 131.977 170.391 132.03 170.513C132.084 170.635 132.161 170.745 132.257 170.836C132.615 171.183 132.735 171.65 132.617 172.236C132.573 172.457 132.589 172.685 132.664 172.897C132.739 173.108 132.871 173.296 133.044 173.439C133.217 173.582 133.426 173.675 133.648 173.708C133.871 173.742 134.098 173.714 134.305 173.628C135.836 173.004 137.484 172.767 139.249 172.916C139.523 172.938 139.799 172.899 140.057 172.804C141.689 172.207 143.028 172.255 144.073 172.948" stroke="#FFCCAD" stroke-width="2"/>
<path d="M144.074 172.948C131.988 175.796 119.81 175.564 107.538 172.252C107.505 172.242 107.471 172.24 107.438 172.245C107.404 172.249 107.372 172.261 107.343 172.279C107.313 172.297 107.288 172.321 107.268 172.349C107.248 172.377 107.233 172.41 107.226 172.444C106.282 176.98 110.746 182.427 114.346 184.723" stroke="#967A71" stroke-width="2"/>
<path d="M114.346 184.723C118.594 188.579 125.274 188.603 130.73 187.731" stroke="#FDAF96" stroke-width="2"/>
<path d="M130.73 187.732C129.839 190.228 127.629 191.567 124.098 191.748C123.917 191.759 123.765 191.7 123.642 191.572C123.199 191.13 122.672 191.01 122.058 191.212C121.877 191.276 121.786 191.404 121.786 191.596V192.876C121.786 193.17 121.682 193.418 121.474 193.62C120.103 194.964 119.845 197.026 120.698 199.804" stroke="#FFCCAD" stroke-width="2"/>
<path d="M120.698 199.803L111.082 199.523" stroke="#DA9A7B" stroke-width="2"/>
<path d="M111.082 199.523C111.029 199.545 110.975 199.566 110.922 199.587" stroke="#FDAF96" stroke-width="2"/>
<path d="M170.873 149.548C173.481 142.228 170.697 128.692 160.529 129.26" stroke="#89898C" stroke-width="2"/>
<path d="M177.338 119.18C171.858 111.404 162.13 105.284 152.546 106.82C146.218 107.836 145.322 116.268 151.506 117.548C152.156 117.686 153.62 117.513 155.898 117.028C160.175 116.116 164.38 116.838 168.514 119.196" stroke="#CC8466" stroke-width="2"/>
<path d="M172.394 132.907C171.37 131.217 170.023 129.849 168.354 128.803C168.108 128.649 167.839 128.566 167.546 128.555L160.698 128.291C160.623 128.289 160.549 128.302 160.48 128.33C160.411 128.357 160.348 128.399 160.296 128.451C160.244 128.504 160.204 128.567 160.178 128.636C160.152 128.705 160.141 128.778 160.146 128.851C160.162 129.134 160.29 129.27 160.53 129.259" stroke="#FFE3D3" stroke-width="2"/>
<path d="M160.529 129.26C149.345 132.188 148.449 150.82 157.729 155.948C163.081 158.908 168.713 154.764 170.873 149.548" stroke="#8A6D60" stroke-width="2"/>
<path d="M170.874 149.547C172.143 149.793 172.949 149.705 173.29 149.283" stroke="#FFE3D3" stroke-width="2"/>
<path d="M172.385 156.828C167.383 157.159 163.167 159.097 159.737 162.644C156.673 165.812 157.841 169.892 161.537 171.868C164.3 173.34 167.583 173.889 171.385 173.516" stroke="#FEAB90" stroke-width="2"/>
<path d="M139.793 199.524C136.508 199.396 133.092 199.566 129.545 200.036C127.999 200.238 125.049 200.161 120.697 199.804" stroke="#DA9676" stroke-width="2"/>
<path d="M130.729 187.731C133.508 187.331 135.682 186.403 137.25 184.947" stroke="#FEAB90" stroke-width="2"/>
<path d="M137.25 184.948C139.703 184.164 142.018 182.537 144.194 180.068C145.986 178.036 146.837 175.647 146.746 172.9C146.735 172.569 146.57 172.436 146.25 172.5L144.074 172.948" stroke="#96766B" stroke-width="2"/>
<path d="M130.194 165.396C133.911 161.866 134.413 157.884 131.698 153.452C131.394 152.94 128.082 150.476 128.322 152.444" stroke="#FDB899" stroke-width="2"/>
<path d="M137.25 184.947C131.255 180.803 124.415 179.95 116.73 182.387C115.946 182.632 115.151 183.411 114.346 184.723" stroke="#955954" stroke-width="2"/>
<path d="M146.561 200.348C146.567 200.614 146.473 200.868 146.281 201.108" stroke="#C65448" stroke-width="2"/>
<path d="M146.282 201.107L139.802 200.635C139.53 200.619 139.338 200.734 139.226 200.979C136.17 207.539 127.362 209.403 120.914 208.059C116.711 207.185 113.434 204.339 111.082 199.523" stroke="#D9795F" stroke-width="2"/>
<path d="M146.282 201.108C147.295 201.097 148.117 201.358 148.746 201.892C148.954 202.068 149.055 202.294 149.05 202.572C148.949 206.129 147.589 209.094 144.97 211.468C139.818 216.14 134.079 218.686 127.754 219.108" stroke="#EA6962" stroke-width="2"/>
<path d="M127.754 219.108C124.842 217.22 121.831 215.759 118.722 214.724C118.482 214.644 118.25 214.668 118.026 214.796C117.157 215.281 116.663 216.105 116.546 217.268" stroke="#FC9C82" stroke-width="2"/>
<path d="M116.546 217.268C108.338 215.428 103.714 208.564 103.098 200.516" stroke="#FA7667" stroke-width="2"/>
<path d="M152.762 201.34L152.482 201.604C152.269 201.801 152.287 201.974 152.538 202.124L152.754 202.252C152.957 202.375 153.045 202.556 153.018 202.796C152.351 208.609 149.919 213.081 145.722 216.212C141.386 219.444 136.189 221.673 130.13 222.9" stroke="#C73741" stroke-width="2"/>
<path d="M130.129 222.9L127.025 219.516" stroke="#E75150" stroke-width="2"/>
<path d="M127.025 219.515C127.271 219.377 127.513 219.241 127.753 219.107" stroke="#E9766B" stroke-width="2"/>
<path d="M116.546 217.268C120.061 218.75 123.554 219.5 127.026 219.516" stroke="#F98470" stroke-width="2"/>
<path d="M130.13 222.899C124.743 223.23 119.615 222.411 114.746 220.443" stroke="#D74446" stroke-width="2"/>
<path d="M114.746 220.444C106.276 217.569 101.236 211.66 99.6258 202.716C99.5778 202.439 99.6578 202.209 99.8658 202.028L101.034 200.996" stroke="#E75150" stroke-width="2"/>
<path d="M157.994 202.764C168.114 206.204 177.186 213.404 179.314 224.06C179.335 224.164 179.318 224.273 179.267 224.368C179.216 224.463 179.134 224.537 179.034 224.58C167.023 229.641 154.65 232.884 141.914 234.308" stroke="#C38390" stroke-width="2"/>
<path d="M114.745 220.443C114.612 220.694 114.543 220.939 114.537 221.179C114.532 221.409 114.639 221.561 114.857 221.635C120.895 223.651 127.068 224.257 133.377 223.451C133.489 223.435 133.545 223.483 133.545 223.595C133.545 223.681 133.545 223.766 133.545 223.851C133.548 223.933 133.577 224.012 133.627 224.078C133.677 224.144 133.746 224.193 133.825 224.219C137.465 225.379 139.921 229.283 142.337 232.075C142.529 232.299 142.575 232.55 142.473 232.827L141.913 234.307" stroke="#C73741" stroke-width="2"/>
<path d="M141.914 234.309C121.474 235.381 103.418 234.461 84.0742 228.477" stroke="#D38F9A" stroke-width="2"/>
<path d="M200.418 157.132C203.65 157.596 207.21 154.46 208.994 152.108C213.228 146.561 213.402 140.873 209.514 135.044C209.012 134.297 207.978 133.793 206.41 133.532C206.17 133.489 205.94 133.529 205.722 133.652L203.41 134.948C203.164 135.087 202.972 135.276 202.834 135.516C202.172 136.695 201.538 137.881 200.93 139.076C199.058 142.74 198.482 147.932 197.65 151.964C197.138 154.492 197.514 156.716 200.418 157.132Z" stroke="#FC9C82" stroke-width="2"/>
<path d="M75.8259 123.18C77.7139 123.716 82.5859 120.468 84.3459 119.468C89.3539 116.62 94.5432 115.983 99.9139 117.556C108.93 120.204 109.922 106.044 98.6899 106.764C89.1139 107.372 79.1699 112.316 74.9699 121.284C74.5112 122.255 74.7966 122.887 75.8259 123.18Z" stroke="#CB886C" stroke-width="2"/>
<path d="M83.834 152.34C85.482 154.244 87.002 155.519 88.394 156.164C93.09 158.356 98.602 154.756 100.21 150.324C103.015 142.607 101.645 136.108 96.098 130.828" stroke="#897266" stroke-width="2"/>
<path d="M96.0978 130.828C95.6498 127.5 89.8738 128.476 87.1218 129.564C82.7218 131.308 80.4258 133.964 79.5538 138.652C78.4551 144.551 79.8818 149.113 83.8338 152.34" stroke="#FEE7D8" stroke-width="2"/>
<path d="M96.0983 130.828C91.8849 128.919 88.4849 129.505 85.8983 132.588C81.2423 138.14 80.5542 144.724 83.8342 152.34" stroke="#89898C" stroke-width="2"/>
<path d="M46.8982 154.684C49.3222 156.788 58.4422 160.804 56.8822 153.444C55.7835 148.27 54.3275 143.209 52.5142 138.26C50.9462 133.964 45.6102 133.02 43.5382 137.028C40.0289 143.822 41.1489 149.708 46.8982 154.684Z" stroke="#FDBD9F" stroke-width="2"/>
<path d="M68.7458 163.211C67.1138 178.995 93.7778 178.675 94.3298 169.107C94.4045 167.843 93.9644 166.592 93.0098 165.355C87.9644 158.859 81.1618 156.774 72.6018 159.099C70.2498 159.734 68.9645 161.104 68.7458 163.211Z" stroke="#FDBD9F" stroke-width="2"/>
<path d="M161.228 145.763C161.551 145.758 161.87 145.684 162.167 145.546C162.464 145.407 162.732 145.207 162.957 144.956C163.182 144.705 163.359 144.408 163.478 144.083C163.597 143.758 163.655 143.411 163.649 143.061C163.638 142.354 163.368 141.681 162.898 141.189C162.428 140.696 161.797 140.426 161.144 140.436C160.82 140.441 160.501 140.515 160.204 140.653C159.907 140.792 159.639 140.992 159.414 141.243C159.189 141.494 159.012 141.791 158.894 142.116C158.775 142.441 158.717 142.788 158.722 143.138C158.733 143.845 159.003 144.518 159.473 145.01C159.943 145.503 160.574 145.773 161.228 145.763Z" stroke="#89898C" stroke-width="2"/>
<path d="M94.7615 143.267C94.7615 142.606 94.4986 141.971 94.0305 141.503C93.5624 141.034 92.9275 140.771 92.2655 140.771C91.6035 140.771 90.9687 141.034 90.5006 141.503C90.0325 141.971 89.7695 142.606 89.7695 143.267C89.7695 143.929 90.0325 144.564 90.5006 145.032C90.9687 145.501 91.6035 145.763 92.2655 145.763C92.9275 145.763 93.5624 145.501 94.0305 145.032C94.4986 144.564 94.7615 143.929 94.7615 143.267Z" stroke="#89898C" stroke-width="2"/>
<path d="M139.609 16.2836C150.303 16.2889 157.169 20.641 160.209 29.3396C160.311 29.6276 160.513 29.753 160.817 29.7156C163.937 29.2943 166.828 29.8276 169.489 31.3156C169.601 31.378 169.696 31.4652 169.768 31.5702C169.84 31.6753 169.887 31.7953 169.905 31.9209C169.923 32.0466 169.911 32.1743 169.871 32.2942C169.831 32.414 169.763 32.5227 169.673 32.6116L169.377 32.9076C169.169 33.1103 169.06 33.3583 169.049 33.6516L168.889 36.7876C168.873 37.097 168.748 37.3583 168.513 37.5716C165.921 39.8996 164.457 39.9156 163.433 43.7156C163.367 43.9516 163.212 44.1523 163.001 44.2756L161.993 44.8676C161.752 45.0068 161.569 45.2319 161.481 45.4996C160.569 48.1236 158.481 48.0996 157.025 49.4996C154.993 51.4516 153.641 53.6036 151.081 55.9476C150.873 56.1396 150.628 56.2356 150.345 56.2356H149.545C149.279 56.2356 149.145 56.3689 149.145 56.6356V57.3636C149.145 57.6036 149.025 57.7316 148.785 57.7476C148.017 57.7956 147.361 58.1823 146.817 58.9076C144.489 62.0196 141.105 63.8756 137.977 66.2916C136.009 67.8196 128.145 70.1876 128.321 73.1636C128.337 73.3876 128.236 73.5316 128.017 73.5956C126.145 74.1396 124.233 74.257 122.281 73.9476C114.063 72.657 105.817 71.5529 97.5455 70.6356C92.0415 70.0276 86.8414 66.7556 85.1374 61.1556C85.0822 60.9796 84.9873 60.8186 84.8603 60.685C84.7332 60.5514 84.5773 60.4489 84.4047 60.3854C84.2321 60.322 84.0475 60.2993 83.8652 60.3191C83.6828 60.3389 83.5077 60.4006 83.3535 60.4996L77.4975 64.2356C77.266 64.3881 77.0741 64.5938 76.9374 64.8356C75.8894 66.6996 74.4575 67.4676 73.1775 69.1316C71.1135 71.8276 68.7534 72.6596 69.2894 76.8436C69.3161 77.089 69.2548 77.305 69.1055 77.4916C66.5401 80.6863 63.6041 82.8116 60.2975 83.8676C58.9321 82.0436 58.5108 80.169 59.0334 78.2436C59.9854 74.7716 62.6095 70.3396 66.0415 68.1796C68.9615 66.3396 69.9135 63.4916 70.2975 60.2116C70.4148 59.2623 71.3588 57.5476 73.1295 55.0676C75.8815 51.2116 80.7695 52.7076 83.8015 48.2276C83.8758 48.1171 83.9779 48.0281 84.0975 47.9695C84.2171 47.9109 84.3499 47.8848 84.4828 47.8937C84.6157 47.9026 84.7439 47.9463 84.8546 48.0203C84.9652 48.0944 85.0545 48.1962 85.1134 48.3156C86.5534 51.2356 88.6415 53.3956 91.5935 55.0916C103.801 62.1103 116.532 62.6249 129.785 56.6356C136.625 53.5476 144.217 46.6116 142.833 38.5396C141.825 32.6196 136.777 28.5716 131.161 26.8596C129.519 26.3583 128.02 25.5716 126.665 24.4996C126.484 24.3609 126.361 24.1796 126.297 23.9556L125.329 20.6676C125.289 20.5335 125.209 20.4148 125.101 20.3276C124.992 20.2404 124.86 20.1888 124.721 20.1796C123.505 20.1049 122.844 19.6996 122.737 18.9636C128.721 16.9796 134.345 16.0863 139.609 16.2836Z" fill="#A45032"/>
<path d="M139.61 16.2837C147.05 15.4303 154.074 16.5023 160.682 19.4996C161.487 19.8623 162.618 20.5983 164.074 21.7077C164.174 21.7833 164.291 21.8325 164.414 21.8506C164.537 21.8688 164.662 21.8554 164.778 21.8117C179.218 16.4357 191.81 32.2676 194.266 44.5236C194.287 44.6275 194.329 44.7258 194.391 44.8122C194.452 44.8986 194.53 44.9713 194.62 45.0256C194.711 45.0798 194.811 45.1144 194.916 45.1272C195.02 45.1399 195.125 45.1306 195.226 45.0996C199.634 43.7796 205.402 43.2277 207.914 48.2517C209.178 50.769 208.935 53.2917 207.186 55.8197C207.026 56.0543 207.071 56.241 207.322 56.3797C219.25 62.8917 220.53 79.3317 217.154 90.8117C217.074 91.0943 217.084 91.369 217.186 91.6357C220.94 101.545 219.476 110.497 212.794 118.492C212.602 118.721 212.551 118.977 212.642 119.26C213.826 122.876 213.508 126.436 211.69 129.94C209.738 128.772 207.567 128.454 205.178 128.988C204.927 129.046 204.727 129.18 204.578 129.388C202.274 132.652 201.634 136.932 199.402 139.788C199.242 139.99 199.042 140.041 198.802 139.94C197.89 139.55 197.402 138.913 197.338 138.028C196.978 132.876 196.146 110.1 192.33 107.244C184.386 101.308 181.122 96.9077 183.258 86.5397C183.586 84.9477 187.066 74.0516 181.986 75.8996C178.618 77.1156 174.066 79.8277 170.298 81.1317C156.61 85.8757 141.162 85.1317 126.538 85.2197C118.964 85.3797 111.45 84.905 103.994 83.7957C95.6256 82.5637 89.7536 79.5557 83.2096 75.3317C82.7762 75.052 82.2902 74.8638 81.7815 74.7784C81.2728 74.693 80.7521 74.7123 80.2511 74.8351C79.7501 74.958 79.2794 75.1817 78.8679 75.4927C78.4564 75.8036 78.1126 76.1953 77.8576 76.6437C73.9776 83.4517 72.2336 87.8277 65.0736 91.7077C64.8358 91.8318 64.6488 92.0388 64.5456 92.2917L62.5056 97.2037C58.6816 110.004 56.8496 123.086 57.0096 136.452C57.0203 137.614 57.0043 138.246 56.9616 138.348C56.1509 140.278 55.2389 140.326 54.2256 138.492C52.8709 136.017 51.815 133.478 51.0576 130.876C50.5376 128.076 47.7616 128.908 45.5936 129.196C45.3399 129.232 45.0798 129.178 44.8576 129.044C44.4043 128.777 44.0683 128.313 43.8496 127.652C46.4309 128.601 48.0576 128.196 48.7296 126.436C48.8802 126.051 48.9027 125.627 48.7936 125.228C47.7643 121.329 48.1589 117.588 49.9776 114.004C51.6576 110.692 51.5296 107.62 51.5536 104.052C51.5589 103.752 51.6695 103.465 51.8656 103.244C52.6763 102.337 53.6816 101.801 54.8816 101.636C55.1269 101.604 55.3056 101.478 55.4176 101.26C57.0176 98.1157 55.3536 95.3877 56.0576 92.2837C56.7456 89.2517 59.5616 87.4757 60.2976 83.8677C63.6043 82.8117 66.5403 80.6863 69.1056 77.4917C69.2549 77.305 69.3163 77.089 69.2896 76.8437C68.7536 72.6597 71.1136 71.8277 73.1776 69.1317C74.4576 67.4677 75.8896 66.6997 76.9376 64.8357C77.0742 64.5938 77.2662 64.3882 77.4976 64.2357L83.3536 60.4996C83.5079 60.4007 83.683 60.3389 83.8653 60.3191C84.0476 60.2993 84.2323 60.322 84.4049 60.3855C84.5774 60.449 84.7333 60.5515 84.8604 60.685C84.9875 60.8186 85.0823 60.9796 85.1376 61.1557C86.8416 66.7557 92.0416 70.0277 97.5456 70.6357C105.818 71.553 114.063 72.657 122.282 73.9477C124.234 74.257 126.146 74.1397 128.018 73.5957C128.236 73.5317 128.338 73.3877 128.322 73.1637C128.146 70.1877 136.01 67.8197 137.978 66.2917C141.106 63.8757 144.49 62.0197 146.818 58.9077C147.362 58.1823 148.018 57.7957 148.786 57.7477C149.026 57.7317 149.146 57.6037 149.146 57.3637V56.6357C149.146 56.369 149.279 56.2357 149.546 56.2357H150.346C150.628 56.2357 150.874 56.1397 151.082 55.9477C153.642 53.6037 154.994 51.4516 157.026 49.4996C158.482 48.0996 160.57 48.1236 161.482 45.4996C161.569 45.2319 161.752 45.0068 161.994 44.8677L163.002 44.2757C163.212 44.1523 163.367 43.9517 163.434 43.7157C164.458 39.9157 165.922 39.8997 168.514 37.5717C168.748 37.3583 168.874 37.097 168.89 36.7877L169.05 33.6517C169.06 33.3583 169.17 33.1103 169.378 32.9077L169.674 32.6117C169.763 32.5227 169.831 32.4141 169.871 32.2942C169.911 32.1744 169.923 32.0466 169.905 31.921C169.887 31.7954 169.84 31.6753 169.768 31.5703C169.696 31.4652 169.601 31.3781 169.49 31.3157C166.828 29.8277 163.938 29.2943 160.818 29.7157C160.514 29.753 160.311 29.6277 160.21 29.3397C157.17 20.641 150.303 16.289 139.61 16.2837Z" fill="#984025"/>
<path d="M122.738 18.9639C122.844 19.6999 123.506 20.1052 124.722 20.1799C124.86 20.189 124.992 20.2406 125.101 20.3279C125.21 20.4151 125.289 20.5337 125.33 20.6679L126.298 23.9559C126.362 24.1799 126.484 24.3612 126.666 24.4999C128.02 25.5719 129.519 26.3585 131.162 26.8599C136.778 28.5719 141.826 32.6199 142.834 38.5399C144.218 46.6119 136.626 53.5479 129.786 56.6359C116.532 62.6252 103.802 62.1105 91.5937 55.0919C88.6417 53.3959 86.5537 51.2359 85.1137 48.3159C85.0548 48.1965 84.9655 48.0946 84.8548 48.0206C84.7441 47.9465 84.6159 47.9028 84.4831 47.8939C84.3502 47.885 84.2173 47.9112 84.0977 47.9698C83.9782 48.0284 83.8761 48.1174 83.8017 48.2279C80.7697 52.7079 75.8817 51.2119 73.1297 55.0679C71.3591 57.5479 70.415 59.2625 70.2977 60.2119C69.9137 63.4919 68.9617 66.3399 66.0417 68.1799C62.6097 70.3399 59.9857 74.7719 59.0337 78.2439C58.511 80.1692 58.9324 82.0439 60.2977 83.8679C59.5617 87.4759 56.7457 89.2519 56.0577 92.2839C55.3537 95.3879 57.0177 98.1159 55.4177 101.26C55.3057 101.479 55.1271 101.604 54.8817 101.636C53.6817 101.801 52.6764 102.337 51.8657 103.244C51.6696 103.466 51.559 103.752 51.5537 104.052C51.5297 107.62 51.6577 110.692 49.9777 114.004C48.1591 117.588 47.7644 121.329 48.7937 125.228C48.9028 125.627 48.8803 126.051 48.7297 126.436C48.0577 128.196 46.431 128.601 43.8497 127.652C41.4177 124.793 40.7191 121.401 41.7537 117.476C41.8231 117.215 41.7804 116.975 41.6257 116.756C38.3137 111.919 37.4764 106.628 39.1137 100.884C39.1884 100.633 39.1484 100.401 38.9937 100.188C37.7297 98.3959 36.895 96.4385 36.4897 94.3159C33.9377 80.9639 41.5297 68.2119 55.3057 66.4679C55.5831 66.4305 55.6977 66.2759 55.6497 66.0039C54.4337 59.1959 57.1777 53.8119 63.4657 50.9319C63.7217 50.8145 63.8844 50.6199 63.9537 50.3479C65.8737 42.7879 73.8177 39.8039 80.8977 40.6519C81.1697 40.6839 81.351 40.5692 81.4417 40.3079C83.6177 34.0759 90.4177 28.7879 97.0577 32.4439C97.1393 32.4902 97.2334 32.5097 97.3267 32.4996C97.42 32.4896 97.5078 32.4505 97.5777 32.3879C104.82 25.6732 113.207 21.1985 122.738 18.9639Z" fill="#B56444"/>
<path d="M126.538 85.2201C129.114 85.5241 127.426 87.2601 127.698 88.9481C117.266 89.3748 107.079 88.5135 97.1378 86.3641C91.1138 85.0681 85.0658 82.5161 79.2098 80.1081C78.9378 79.9961 78.7085 80.0548 78.5219 80.2841C76.2659 83.0521 74.8979 86.6841 72.9219 89.1001C70.3672 92.2148 67.5405 95.0788 64.4418 97.6921C64.2232 97.8735 63.9885 97.9028 63.7378 97.7801L62.5059 97.2041L64.5458 92.2921C64.649 92.0392 64.8361 91.8323 65.0739 91.7081C72.2339 87.8281 73.9779 83.4521 77.8579 76.6441C78.1128 76.1957 78.4566 75.8041 78.8681 75.4931C79.2797 75.1822 79.7503 74.9584 80.2513 74.8356C80.7523 74.7128 81.2731 74.6935 81.7818 74.7789C82.2905 74.8642 82.7764 75.0525 83.2098 75.3321C89.7538 79.5561 95.6258 82.5641 103.994 83.7961C111.45 84.9055 118.965 85.3801 126.538 85.2201Z" fill="#FFC7A7"/>
<path d="M211.689 129.94C215.065 133.934 216.854 138.289 217.057 143.004C217.585 155.34 205.113 167.188 192.681 162.868C192.529 162.816 192.364 162.82 192.216 162.879C192.068 162.938 191.946 163.047 191.873 163.188C182.121 181.948 164.249 194.052 143.785 198.196C150.585 195.444 155.254 193.281 157.793 191.708C164.705 187.436 169.236 181.372 171.385 173.516C178.34 172.364 183.452 168.529 186.721 162.012C187.313 160.838 187.486 159.052 187.241 156.652C187.214 156.38 187.068 156.228 186.801 156.196C182.321 155.66 177.129 156.428 172.385 156.828L173.289 149.284C175.182 143.342 174.884 137.884 172.393 132.908C172.537 131.286 172.254 129.878 171.545 128.684C171.406 128.454 171.217 128.278 170.977 128.156C169.721 127.524 169.873 125.684 169.617 124.468C169.177 122.428 167.817 121.884 168.513 119.196L176.713 123.428C176.827 123.487 176.953 123.518 177.08 123.518C177.207 123.518 177.331 123.487 177.441 123.428C179.249 122.476 178.009 120.452 177.337 119.18C178.153 119.18 178.108 118.526 177.201 117.22C177.044 116.989 176.95 116.721 176.929 116.444C176.481 110.308 173.305 91.8917 164.801 91.6997C161.025 91.6197 157.305 93.0037 153.537 91.3237C152.358 90.7957 151.241 90.5238 150.185 90.5078C142.945 90.3958 137.201 91.0358 129.337 89.2678C128.318 89.3318 127.772 89.2251 127.697 88.9478C127.425 87.2598 129.113 85.5238 126.537 85.2198C141.161 85.1318 156.609 85.8758 170.297 81.1318C174.065 79.8278 178.617 77.1157 181.985 75.8997C187.065 74.0517 183.585 84.9478 183.257 86.5398C181.121 96.9078 184.385 101.308 192.329 107.244C196.145 110.1 196.977 132.876 197.337 138.028C197.401 138.913 197.889 139.55 198.801 139.94C199.041 140.041 199.241 139.99 199.401 139.788C201.633 136.932 202.273 132.652 204.577 129.388C204.726 129.18 204.926 129.046 205.177 128.988C207.566 128.454 209.737 128.772 211.689 129.94ZM200.417 157.132C203.649 157.596 207.209 154.46 208.993 152.108C213.228 146.561 213.401 140.873 209.513 135.044C209.012 134.297 207.977 133.793 206.409 133.532C206.169 133.489 205.94 133.529 205.721 133.652L203.409 134.948C203.164 135.086 202.972 135.276 202.833 135.516C202.172 136.694 201.537 137.881 200.929 139.076C199.057 142.74 198.481 147.932 197.649 151.964C197.137 154.492 197.513 156.716 200.417 157.132Z" fill="#FBA98B"/>
<path d="M127.697 88.9479C127.772 89.2252 128.319 89.3319 129.337 89.2679C129.316 89.4919 129.449 89.6892 129.737 89.8599C129.935 89.9772 130.028 90.1532 130.017 90.3879C129.932 91.6839 130.148 93.3799 130.665 95.4759C131.289 97.9932 131.388 101.932 130.961 107.292C130.956 107.351 130.983 107.388 131.041 107.404C131.105 107.42 131.172 107.439 131.241 107.46C131.262 107.467 131.28 107.48 131.293 107.499C131.306 107.518 131.313 107.54 131.313 107.564C131.335 109.511 131.38 111.455 131.449 113.396C131.505 115.004 131.201 117.06 131.449 118.964C131.684 120.825 131.775 122.191 131.721 123.06C131.369 129.007 130.956 134.951 130.481 140.892C130.313 142.996 132.049 147.66 129.601 148.516C129.319 148.612 129.145 148.809 129.081 149.108C128.841 150.175 128.287 150.996 127.417 151.572C127.167 151.737 127.153 151.924 127.377 152.132C127.628 152.361 127.943 152.465 128.321 152.444C131.393 156.14 127.649 162.06 124.329 163.564C124.103 163.668 123.913 163.836 123.782 164.047C123.651 164.258 123.585 164.503 123.593 164.752C123.601 165 123.681 165.241 123.825 165.444C123.969 165.646 124.169 165.802 124.401 165.892C126.364 166.639 128.295 166.473 130.193 165.396C132.577 166.22 131.929 168.172 131.945 170.124C131.948 170.258 131.977 170.39 132.03 170.512C132.084 170.634 132.161 170.744 132.257 170.836C132.615 171.183 132.735 171.649 132.617 172.236C132.573 172.456 132.589 172.684 132.664 172.896C132.739 173.108 132.87 173.295 133.044 173.438C133.217 173.581 133.426 173.674 133.648 173.708C133.87 173.741 134.098 173.713 134.305 173.628C135.836 173.004 137.484 172.767 139.249 172.916C139.523 172.937 139.799 172.899 140.057 172.804C141.689 172.207 143.028 172.255 144.073 172.948C131.988 175.796 119.809 175.564 107.537 172.252C107.505 172.243 107.471 172.24 107.437 172.245C107.404 172.25 107.371 172.261 107.342 172.279C107.313 172.297 107.287 172.321 107.267 172.349C107.247 172.378 107.233 172.41 107.225 172.444C106.281 176.98 110.745 182.428 114.345 184.724C118.593 188.58 125.273 188.604 130.729 187.732C129.839 190.228 127.628 191.567 124.097 191.748C123.916 191.759 123.764 191.7 123.641 191.572C123.199 191.129 122.671 191.009 122.057 191.212C121.876 191.276 121.785 191.404 121.785 191.596V192.876C121.785 193.169 121.681 193.417 121.473 193.62C120.103 194.964 119.844 197.025 120.697 199.804L111.081 199.524C111.028 199.545 110.975 199.567 110.921 199.588L111.345 199.116C111.585 198.855 111.529 198.692 111.177 198.628C90.2252 194.7 71.4252 182.892 62.0252 163.276C61.9079 163.036 61.7212 162.951 61.4652 163.02C53.5772 165.015 47.0172 162.999 41.7852 156.972C35.1852 149.372 35.0892 136.876 43.1452 130.212C43.3319 130.063 43.5479 129.985 43.7932 129.98L49.1932 129.868C49.4279 129.868 49.5959 129.975 49.6972 130.188C50.3426 131.607 50.7959 131.836 51.0572 130.876C51.8146 133.479 52.8706 136.017 54.2252 138.492C55.2386 140.327 56.1506 140.279 56.9612 138.348C57.0039 138.247 57.0199 137.615 57.0092 136.452C56.8492 123.087 58.6812 110.004 62.5052 97.2039L63.7372 97.7799C63.9879 97.9025 64.2226 97.8732 64.4412 97.6919C67.5399 95.0785 70.3666 92.2145 72.9212 89.0999C74.8972 86.6839 76.2652 83.0519 78.5212 80.2839C78.7079 80.0545 78.9372 79.9959 79.2092 80.1079C85.0652 82.5159 91.1132 85.0679 97.1372 86.3639C107.079 88.5132 117.265 89.3745 127.697 88.9479ZM75.8252 123.18C77.7132 123.716 82.5852 120.468 84.3452 119.468C89.3532 116.62 94.5426 115.983 99.9132 117.556C108.929 120.204 109.921 106.044 98.6892 106.764C89.1132 107.372 79.1692 112.316 74.9692 121.284C74.5106 122.255 74.7959 122.887 75.8252 123.18ZM83.8332 152.34C85.4812 154.244 87.0012 155.519 88.3932 156.164C93.0892 158.356 98.6012 154.756 100.209 150.324C103.015 142.607 101.644 136.108 96.0972 130.828C95.6492 127.5 89.8732 128.476 87.1212 129.564C82.7212 131.308 80.4252 133.964 79.5532 138.652C78.4546 144.551 79.8812 149.113 83.8332 152.34ZM46.8972 154.684C49.3212 156.788 58.4412 160.804 56.8812 153.444C55.7826 148.271 54.3266 143.209 52.5132 138.26C50.9452 133.964 45.6092 133.02 43.5372 137.028C40.0279 143.823 41.1479 149.708 46.8972 154.684ZM68.7452 163.212C67.1132 178.996 93.7772 178.676 94.3292 169.108C94.4039 167.844 93.9639 166.593 93.0092 165.356C87.9639 158.86 81.1612 156.775 72.6012 159.1C70.2492 159.735 68.9639 161.105 68.7452 163.212Z" fill="#FED0B2"/>
<path d="M129.338 89.2676C137.202 91.0356 142.946 90.3956 150.186 90.5076C151.242 90.5236 152.359 90.7956 153.538 91.3236C157.306 93.0036 161.026 91.6196 164.802 91.6996C173.306 91.8916 176.482 110.308 176.93 116.444C176.951 116.721 177.045 116.989 177.202 117.22C178.109 118.526 178.154 119.18 177.338 119.18C171.858 111.404 162.13 105.284 152.546 106.82C146.218 107.836 145.322 116.268 151.506 117.548C152.157 117.686 153.621 117.513 155.898 117.028C160.175 116.116 164.381 116.838 168.514 119.196C167.818 121.884 169.178 122.428 169.618 124.468C169.874 125.684 169.722 127.524 170.978 128.156C171.218 128.278 171.407 128.454 171.546 128.684C172.255 129.878 172.538 131.286 172.394 132.908C171.37 131.217 170.023 129.849 168.354 128.804C168.109 128.649 167.839 128.566 167.546 128.556L160.698 128.292C160.624 128.289 160.549 128.302 160.48 128.33C160.411 128.357 160.349 128.399 160.297 128.452C160.245 128.504 160.205 128.567 160.179 128.636C160.153 128.705 160.142 128.778 160.146 128.852C160.162 129.134 160.29 129.27 160.53 129.26C149.346 132.188 148.45 150.82 157.73 155.948C163.082 158.908 168.714 154.764 170.874 149.548C172.143 149.793 172.949 149.705 173.29 149.284L172.386 156.828C167.383 157.158 163.167 159.097 159.738 162.644C156.674 165.812 157.842 169.892 161.538 171.868C164.301 173.34 167.583 173.889 171.386 173.516C169.237 181.372 164.706 187.436 157.794 191.708C155.255 193.281 150.586 195.444 143.786 198.196L139.794 199.524C136.509 199.396 133.093 199.566 129.546 200.036C127.999 200.238 125.05 200.161 120.698 199.804C119.845 197.025 120.103 194.964 121.474 193.62C121.682 193.417 121.786 193.169 121.786 192.876V191.596C121.786 191.404 121.877 191.276 122.058 191.212C122.672 191.009 123.199 191.129 123.642 191.572C123.765 191.7 123.917 191.758 124.098 191.748C127.629 191.566 129.839 190.228 130.73 187.732C133.509 187.332 135.682 186.404 137.25 184.948C139.703 184.164 142.018 182.537 144.194 180.068C145.986 178.036 146.837 175.646 146.746 172.9C146.735 172.569 146.57 172.436 146.25 172.5L144.074 172.948C143.029 172.254 141.69 172.206 140.058 172.804C139.8 172.899 139.524 172.937 139.25 172.916C137.485 172.766 135.837 173.004 134.306 173.628C134.098 173.713 133.871 173.741 133.649 173.707C133.427 173.674 133.218 173.581 133.045 173.438C132.871 173.295 132.74 173.107 132.665 172.896C132.59 172.684 132.574 172.456 132.618 172.236C132.736 171.649 132.616 171.182 132.258 170.836C132.162 170.744 132.085 170.634 132.031 170.512C131.978 170.39 131.949 170.258 131.946 170.124C131.93 168.172 132.578 166.22 130.194 165.396C133.911 161.865 134.413 157.884 131.698 153.452C131.394 152.94 128.082 150.476 128.322 152.444C127.943 152.465 127.629 152.361 127.378 152.132C127.154 151.924 127.168 151.737 127.418 151.572C128.288 150.996 128.842 150.174 129.082 149.108C129.146 148.809 129.319 148.612 129.602 148.516C132.05 147.66 130.314 142.996 130.482 140.892C130.957 134.95 131.37 129.006 131.722 123.06C131.775 122.19 131.685 120.825 131.45 118.964C131.202 117.06 131.506 115.004 131.45 113.396C131.381 111.454 131.336 109.51 131.314 107.564C131.314 107.54 131.307 107.517 131.294 107.499C131.281 107.48 131.263 107.466 131.242 107.46C131.173 107.438 131.106 107.42 131.042 107.404C130.983 107.388 130.957 107.35 130.962 107.292C131.389 101.932 131.29 97.9929 130.666 95.4756C130.149 93.3796 129.933 91.6836 130.018 90.3876C130.029 90.1529 129.935 89.9769 129.738 89.8596C129.45 89.6889 129.317 89.4916 129.338 89.2676Z" fill="#FFC7A7"/>
<path d="M75.8259 123.18C74.7966 122.887 74.5112 122.255 74.9699 121.284C79.1699 112.316 89.1139 107.372 98.6899 106.764C109.922 106.044 108.93 120.204 99.9139 117.556C94.5432 115.983 89.3539 116.62 84.3459 119.468C82.5859 120.468 77.7139 123.716 75.8259 123.18Z" fill="#984025"/>
<path d="M177.338 119.18C178.01 120.452 179.25 122.476 177.442 123.428C177.331 123.487 177.207 123.518 177.08 123.518C176.954 123.518 176.828 123.487 176.714 123.428L168.514 119.196C164.38 116.838 160.175 116.116 155.898 117.028C153.62 117.513 152.156 117.686 151.506 117.548C145.322 116.268 146.218 107.836 152.546 106.82C162.13 105.284 171.858 111.404 177.338 119.18Z" fill="#984025"/>
<path d="M172.394 132.907C174.884 137.883 175.183 143.342 173.29 149.283C172.948 149.705 172.143 149.793 170.873 149.547C173.481 142.227 170.698 128.691 160.53 129.259C160.29 129.27 160.162 129.134 160.146 128.851C160.141 128.778 160.152 128.705 160.178 128.636C160.204 128.567 160.244 128.504 160.296 128.451C160.348 128.399 160.411 128.357 160.48 128.33C160.549 128.302 160.623 128.289 160.698 128.291L167.546 128.555C167.839 128.566 168.108 128.649 168.354 128.803C170.023 129.849 171.37 131.217 172.394 132.907Z" fill="#FEFEFE"/>
<path d="M96.0978 130.828C91.8845 128.919 88.4845 129.505 85.8978 132.588C81.2418 138.14 80.5538 144.724 83.8338 152.34C79.8818 149.113 78.4551 144.551 79.5538 138.652C80.4258 133.964 82.7218 131.308 87.1218 129.564C89.8738 128.476 95.6498 127.5 96.0978 130.828Z" fill="#FEFEFE"/>
<path d="M160.529 129.26C170.697 128.692 173.481 142.228 170.873 149.548C168.713 154.764 163.081 158.908 157.729 155.948C148.449 150.82 149.345 132.188 160.529 129.26ZM161.227 145.763C161.551 145.758 161.87 145.684 162.167 145.546C162.463 145.407 162.732 145.207 162.957 144.956C163.182 144.705 163.359 144.408 163.477 144.083C163.596 143.758 163.654 143.411 163.649 143.061C163.638 142.354 163.368 141.681 162.898 141.189C162.428 140.696 161.797 140.426 161.143 140.436C160.82 140.441 160.501 140.515 160.204 140.653C159.907 140.792 159.638 140.992 159.413 141.243C159.189 141.494 159.012 141.791 158.893 142.116C158.774 142.441 158.716 142.788 158.722 143.138C158.733 143.845 159.003 144.518 159.473 145.01C159.943 145.503 160.574 145.773 161.227 145.763Z" fill="#141319"/>
<path d="M96.0983 130.828C101.645 136.108 103.016 142.607 100.21 150.324C98.6022 154.756 93.0903 158.356 88.3943 156.164C87.0023 155.518 85.4822 154.244 83.8342 152.34C80.5542 144.724 81.2423 138.14 85.8983 132.588C88.4849 129.505 91.8849 128.919 96.0983 130.828ZM94.7622 143.268C94.7622 142.606 94.4993 141.971 94.0312 141.503C93.5631 141.035 92.9282 140.772 92.2663 140.772C91.6043 140.772 90.9694 141.035 90.5013 141.503C90.0332 141.971 89.7703 142.606 89.7703 143.268C89.7703 143.93 90.0332 144.565 90.5013 145.033C90.9694 145.501 91.6043 145.764 92.2663 145.764C92.9282 145.764 93.5631 145.501 94.0312 145.033C94.4993 144.565 94.7622 143.93 94.7622 143.268Z" fill="#141319"/>
<path d="M200.418 157.132C197.514 156.716 197.138 154.492 197.65 151.964C198.482 147.932 199.058 142.74 200.93 139.076C201.538 137.881 202.172 136.695 202.834 135.516C202.972 135.276 203.164 135.087 203.41 134.948L205.722 133.652C205.94 133.529 206.17 133.489 206.41 133.532C207.978 133.793 209.012 134.297 209.514 135.044C213.402 140.873 213.228 146.561 208.994 152.108C207.21 154.46 203.65 157.596 200.418 157.132Z" fill="#FC8E79"/>
<path d="M46.8982 154.684C41.1489 149.708 40.0289 143.822 43.5382 137.028C45.6102 133.02 50.9462 133.964 52.5142 138.26C54.3275 143.209 55.7835 148.27 56.8822 153.444C58.4422 160.804 49.3222 156.788 46.8982 154.684Z" fill="#FBA98B"/>
<path d="M158.722 143.139C158.745 144.61 159.867 145.785 161.227 145.764C162.588 145.742 163.672 144.532 163.649 143.061C163.626 141.59 162.504 140.415 161.144 140.436C159.783 140.458 158.699 141.667 158.722 143.139Z" fill="#FEFEFE"/>
<path d="M92.2655 145.763C93.644 145.763 94.7615 144.646 94.7615 143.267C94.7615 141.889 93.644 140.771 92.2655 140.771C90.887 140.771 89.7695 141.889 89.7695 143.267C89.7695 144.646 90.887 145.763 92.2655 145.763Z" fill="#FEFEFE"/>
<path d="M130.194 165.396C128.295 166.474 126.364 166.639 124.402 165.892C124.17 165.803 123.969 165.647 123.826 165.444C123.682 165.241 123.601 165.001 123.593 164.752C123.586 164.504 123.651 164.258 123.782 164.047C123.913 163.836 124.104 163.668 124.33 163.564C127.65 162.06 131.394 156.14 128.322 152.444C128.082 150.476 131.394 152.94 131.698 153.452C134.412 157.884 133.911 161.866 130.194 165.396Z" fill="#FBA98B"/>
<path d="M171.385 173.515C167.583 173.889 164.3 173.339 161.537 171.867C157.841 169.891 156.673 165.811 159.737 162.643C163.167 159.097 167.383 157.158 172.385 156.827C177.129 156.427 182.321 155.659 186.801 156.195C187.068 156.227 187.215 156.379 187.241 156.651C187.487 159.051 187.313 160.838 186.721 162.011C183.452 168.529 178.34 172.363 171.385 173.515Z" fill="#FC8E79"/>
<path d="M94.3298 169.107C93.7778 178.675 67.1138 178.995 68.7458 163.211C68.9645 161.104 70.2498 159.734 72.6018 159.099C81.1618 156.774 87.9644 158.859 93.0098 165.355C93.9644 166.592 94.4045 167.843 94.3298 169.107Z" fill="#FBA98B"/>
<path d="M144.074 172.948L146.25 172.5C146.57 172.436 146.735 172.569 146.746 172.9C146.836 175.646 145.986 178.035 144.194 180.067C142.018 182.537 139.703 184.164 137.25 184.948C131.255 180.804 124.415 179.95 116.73 182.388C115.946 182.633 115.151 183.411 114.346 184.723C110.746 182.427 106.282 176.98 107.226 172.444C107.233 172.41 107.248 172.377 107.268 172.349C107.288 172.321 107.313 172.297 107.343 172.279C107.372 172.261 107.404 172.249 107.438 172.245C107.471 172.24 107.505 172.242 107.538 172.252C119.81 175.564 131.988 175.796 144.074 172.948Z" fill="#2D242F"/>
<path d="M137.25 184.947C135.682 186.403 133.508 187.331 130.73 187.731C125.274 188.603 118.594 188.579 114.346 184.723C115.151 183.411 115.946 182.632 116.73 182.387C124.415 179.95 131.255 180.803 137.25 184.947Z" fill="#FC8E79"/>
<path d="M120.698 199.804C125.05 200.161 127.999 200.238 129.546 200.036C133.093 199.566 136.509 199.396 139.794 199.524L146.562 200.348C146.567 200.614 146.474 200.868 146.282 201.108L139.802 200.636C139.53 200.62 139.338 200.734 139.226 200.98C136.17 207.54 127.362 209.404 120.914 208.06C116.711 207.185 113.434 204.34 111.082 199.524L120.698 199.804Z" fill="#B56444"/>
<path d="M110.922 199.587C110.975 199.566 111.028 199.545 111.082 199.523C113.434 204.339 116.711 207.185 120.914 208.059C127.362 209.403 136.17 207.539 139.226 200.979C139.338 200.734 139.53 200.619 139.802 200.635L146.282 201.107C147.295 201.097 148.116 201.358 148.746 201.891C148.954 202.067 149.055 202.294 149.05 202.571C148.948 206.129 147.588 209.094 144.97 211.467C139.818 216.139 134.079 218.686 127.754 219.107C124.842 217.219 121.831 215.758 118.722 214.723C118.482 214.643 118.25 214.667 118.026 214.795C117.156 215.281 116.663 216.105 116.546 217.267C108.338 215.427 103.714 208.563 103.098 200.515L110.922 199.587Z" fill="#FC8E79"/>
<path d="M146.561 200.348L152.761 201.34L152.481 201.604C152.268 201.801 152.287 201.974 152.537 202.124L152.753 202.252C152.956 202.374 153.044 202.556 153.017 202.796C152.351 208.609 149.919 213.081 145.721 216.212C141.385 219.444 136.188 221.673 130.129 222.9L127.025 219.516C127.271 219.377 127.513 219.241 127.753 219.108C134.079 218.686 139.817 216.14 144.969 211.468C147.588 209.094 148.948 206.129 149.049 202.572C149.055 202.294 148.953 202.068 148.745 201.892C148.116 201.358 147.295 201.097 146.281 201.108C146.473 200.868 146.567 200.614 146.561 200.348Z" fill="#D7434B"/>
<path d="M103.098 200.516C103.714 208.564 108.338 215.428 116.546 217.268C120.06 218.75 123.554 219.5 127.026 219.516L130.13 222.9C124.743 223.23 119.615 222.412 114.746 220.444C106.276 217.569 101.236 211.66 99.6258 202.716C99.5778 202.438 99.6578 202.209 99.8658 202.028L101.034 200.996L103.098 200.516Z" fill="#F75E54"/>
<path d="M101.034 200.996L99.8656 202.028C99.6576 202.209 99.5776 202.439 99.6256 202.716C101.236 211.66 106.276 217.569 114.746 220.444C114.612 220.695 114.543 220.94 114.538 221.18C114.532 221.409 114.639 221.561 114.858 221.636C120.895 223.652 127.068 224.257 133.378 223.452C133.49 223.436 133.546 223.484 133.546 223.596C133.546 223.681 133.546 223.767 133.546 223.852C133.548 223.934 133.577 224.013 133.627 224.079C133.677 224.145 133.746 224.194 133.826 224.22C137.466 225.38 139.922 229.284 142.338 232.076C142.53 232.3 142.575 232.551 142.474 232.828L141.914 234.308C121.474 235.38 103.418 234.46 84.0736 228.476L72.3136 224.068C72.1697 224.013 72.0513 223.907 71.9817 223.771C71.9121 223.635 71.8963 223.478 71.9376 223.332C75.5856 210.044 88.0976 203.444 101.034 200.996Z" fill="#D7434B"/>
<path d="M152.761 201.34L157.993 202.764C168.113 206.204 177.185 213.404 179.313 224.06C179.334 224.164 179.317 224.273 179.266 224.368C179.216 224.463 179.133 224.538 179.033 224.58C167.023 229.641 154.649 232.884 141.913 234.308L142.473 232.828C142.575 232.55 142.529 232.3 142.337 232.076C139.921 229.284 137.465 225.38 133.825 224.22C133.746 224.194 133.677 224.145 133.627 224.079C133.577 224.013 133.548 223.934 133.545 223.852C133.545 223.767 133.545 223.681 133.545 223.596C133.545 223.484 133.489 223.436 133.377 223.452C127.068 224.257 120.895 223.652 114.857 221.636C114.639 221.561 114.532 221.409 114.537 221.18C114.543 220.94 114.612 220.695 114.745 220.444C119.615 222.412 124.743 223.231 130.129 222.9C136.188 221.673 141.385 219.444 145.721 216.212C149.919 213.081 152.351 208.609 153.017 202.796C153.044 202.556 152.956 202.375 152.753 202.252L152.537 202.124C152.287 201.974 152.268 201.801 152.481 201.604L152.761 201.34Z" fill="#B62A37"/>
<path d="M127.754 219.108C127.514 219.241 127.271 219.377 127.026 219.516C123.554 219.5 120.061 218.751 116.546 217.268C116.663 216.105 117.157 215.281 118.026 214.796C118.25 214.668 118.482 214.644 118.722 214.724C121.831 215.759 124.842 217.22 127.754 219.108Z" fill="#FBA98B"/>
</svg>
