<svg width="256" height="256" viewBox="0 0 256 256" fill="none" xmlns="http://www.w3.org/2000/svg">
<path d="M76.2097 34.707C57.9644 45.907 44.1484 60.9497 34.7617 79.835" stroke="#739484" stroke-width="2"/>
<path d="M34.7623 79.835C31.8076 86.1283 29.3969 92.715 27.5303 99.595" stroke="#638979" stroke-width="2"/>
<path d="M27.5302 99.5947C23.0502 117.307 22.8342 135.211 26.8822 153.307" stroke="#578374" stroke-width="2"/>
<path d="M26.8818 153.307C30.1885 167.749 36.3085 180.997 45.2418 193.051" stroke="#477668" stroke-width="2"/>
<path d="M45.2422 193.051C58.4902 210.859 77.6022 224.227 98.8022 230.955" stroke="#3F7062" stroke-width="2"/>
<path d="M98.8027 230.956L105.859 232.844C106.141 232.919 106.293 232.809 106.315 232.516L107.707 215.34" stroke="#246C66" stroke-width="2"/>
<path d="M107.706 215.34C107.69 214.292 107.306 209.396 108.29 209.492C108.525 209.513 108.645 209.641 108.65 209.876L109.074 233.076C109.076 233.166 109.11 233.253 109.172 233.321C109.234 233.389 109.318 233.432 109.41 233.444L127.282 235.668" stroke="#30776E" stroke-width="2"/>
<path d="M164.45 25.2989C145.016 19.1176 125.304 18.3443 105.314 22.9789" stroke="#648E7C" stroke-width="2"/>
<path d="M105.314 22.9785C94.8553 25.4958 85.154 29.4052 76.21 34.7065" stroke="#749987" stroke-width="2"/>
<path d="M215.042 195.9C219.474 190.449 223.293 184.516 226.498 178.1" stroke="#3D725F" stroke-width="2"/>
<path d="M226.498 178.099C240.074 150.971 241.402 118.603 231.482 90.1154C225.41 72.6994 214.058 57.5634 199.994 45.6914" stroke="#417866" stroke-width="2"/>
<path d="M199.994 45.6911C190.527 37.5524 180.154 31.3205 168.874 26.9951" stroke="#528574" stroke-width="2"/>
<path d="M168.874 26.9948L164.45 25.2988" stroke="#65917D" stroke-width="2"/>
<path d="M168.874 26.9951C168.085 28.9525 167.32 30.9284 166.578 32.9231C165.434 36.0111 164.05 37.8271 164.762 41.3791C164.821 41.6671 164.976 41.8858 165.226 42.0351L171.098 45.5551" stroke="#89B891" stroke-width="2"/>
<path d="M171.098 45.5549C164.064 42.9736 157.026 41.1923 149.986 40.2109" stroke="#656F5D" stroke-width="2"/>
<path d="M149.986 40.2115C137.058 38.0142 124.295 38.9209 111.698 42.9315C110.194 43.4115 108.629 44.1929 107.002 45.2755" stroke="#778169" stroke-width="2"/>
<path d="M107.002 45.2752C109.082 42.3552 113.042 36.4512 107.754 35.0752" stroke="#526551" stroke-width="2"/>
<path d="M107.755 35.0752C107.349 34.9792 106.699 35.0646 105.803 35.3312" stroke="#778169" stroke-width="2"/>
<path d="M105.802 35.3308C105.797 35.3095 105.791 35.2855 105.786 35.2588" stroke="#808F75" stroke-width="2"/>
<path d="M105.786 35.2585C105.568 32.8212 105.608 30.3758 105.906 27.9225C106.13 26.1385 105.642 24.7065 105.314 22.9785" stroke="#ACCFA5" stroke-width="2"/>
<path d="M105.786 35.2588C94.7301 38.8988 79.5701 49.9308 79.3381 62.7068C79.3328 62.9841 79.1968 63.1574 78.9301 63.2268C72.9515 64.6934 68.1675 68.0108 64.5781 73.1788" stroke="#909A80" stroke-width="2"/>
<path d="M64.5777 73.1792C64.4337 72.9019 64.2817 72.7366 64.1217 72.6832C64.0844 72.6726 64.0524 72.6806 64.0257 72.7072L63.8497 72.8832C63.7164 73.0166 63.5777 73.0246 63.4337 72.9072C62.6817 72.2992 62.0737 71.9873 61.0577 72.2433C51.9777 74.5153 44.7857 77.7712 36.7617 81.0272C36.5057 81.1339 36.2497 81.1339 35.9937 81.0272C35.4764 80.8139 35.0657 80.4166 34.7617 79.8352" stroke="#ACCFA5" stroke-width="2"/>
<path d="M199.994 45.6914L196.938 47.6994C196.735 47.8327 196.572 48.0034 196.45 48.2114C195.207 50.2914 193.559 51.9901 191.506 53.3074C191.322 53.4241 191.171 53.5867 191.069 53.7792C190.966 53.9718 190.916 54.1877 190.922 54.4056C190.929 54.6236 190.992 54.8361 191.105 55.0222C191.219 55.2084 191.379 55.3618 191.57 55.4674C192.754 56.1287 193.234 57.0034 193.01 58.0914" stroke="#659F7A" stroke-width="2"/>
<path d="M193.01 58.091C189.794 55.3443 186.663 53.2723 183.618 51.875" stroke="#647560" stroke-width="2"/>
<path d="M183.619 51.8747C179.395 49.2667 175.221 47.16 171.099 45.5547" stroke="#526354" stroke-width="2"/>
<path d="M107.754 35.0752C106.058 40.0459 103.975 44.8085 101.506 49.3632" stroke="#2D2220" stroke-width="2"/>
<path d="M101.507 49.3629C100.333 46.3603 100.184 43.4589 101.059 40.6589C101.155 40.3496 101.043 40.1629 100.723 40.0989L100.227 40.0029" stroke="#402B2C" stroke-width="2"/>
<path d="M100.227 40.0031C101.987 38.3337 104.024 37.4057 106.339 37.2191C106.605 37.1977 106.715 37.0564 106.667 36.7951C106.581 36.2884 106.293 35.8004 105.803 35.3311" stroke="#5B4C44" stroke-width="2"/>
<path d="M100.226 40.0029C91.6423 44.1469 81.4423 53.3469 80.4983 63.5389C80.477 63.8056 80.341 63.9816 80.0904 64.0669C75.4664 65.6296 71.709 68.4243 68.8184 72.4509" stroke="#493A38" stroke-width="2"/>
<path d="M68.8182 72.4512C62.4715 80.8192 58.6688 90.0565 57.4102 100.163" stroke="#403434" stroke-width="2"/>
<path d="M57.4102 100.163L56.8662 103.867C56.8289 104.123 56.6875 104.203 56.4422 104.107C55.6529 103.803 55.1275 104 54.8662 104.699" stroke="#3D3332" stroke-width="2"/>
<path d="M54.8662 104.699L56.9222 90.915" stroke="#748970" stroke-width="2"/>
<path d="M56.9219 90.9147C58.3512 84.4294 60.9032 78.5174 64.5779 73.1787" stroke="#808F75" stroke-width="2"/>
<path d="M107.002 45.2754L102.922 49.6754" stroke="#2D2220" stroke-width="2"/>
<path d="M102.922 49.6753C102.594 49.8593 101.266 50.1153 101.506 49.3633" stroke="#1A1014" stroke-width="2"/>
<path d="M149.986 40.2109C149.474 40.5363 149.823 41.1336 151.034 42.0029C151.439 42.2909 151.394 42.4029 150.898 42.3389C134.778 40.2589 119.258 43.5869 104.066 49.5549C103.65 49.7149 103.426 50.1549 102.922 49.6749" stroke="#402B2C" stroke-width="2"/>
<path d="M183.618 51.8746C178.621 50.1146 173.794 48.2026 169.138 46.1386C168.429 45.8239 167.746 45.6586 167.09 45.6426C167.012 45.6436 166.938 45.6716 166.878 45.7217C166.819 45.7718 166.779 45.841 166.764 45.9174C166.75 45.9938 166.763 46.0727 166.801 46.1407C166.838 46.2088 166.898 46.2618 166.97 46.2906C172.528 48.2319 177.669 50.7972 182.394 53.9866" stroke="#402B2C" stroke-width="2"/>
<path d="M182.394 53.9873C179.285 56.2326 175.514 57.7366 171.082 58.4993C158.002 60.7393 139.786 65.0993 127.874 67.1713C127.623 67.214 127.413 67.3313 127.242 67.5233L126.586 68.2593C126.399 68.4668 126.152 68.6073 125.882 68.6593L119.362 70.0353C119.1 70.0921 118.828 70.0462 118.602 69.9073C116.559 68.6806 114.586 68.806 112.682 70.2833C112.463 70.4558 112.199 70.5639 111.922 70.5953C103.234 71.518 94.2901 73.1526 85.0901 75.4993C81.5595 76.4006 79.5275 76.022 78.9941 74.3633" stroke="#25141C" stroke-width="2"/>
<path d="M78.9945 74.3632C79.7145 73.7019 80.2052 73.0486 80.4665 72.4032C80.5264 72.2516 80.5439 72.087 80.5171 71.9276C80.4903 71.7681 80.4202 71.6199 80.3145 71.4992L76.5545 67.2512C76.4526 67.1368 76.3144 67.0614 76.1638 67.038C76.0133 67.0146 75.86 67.0448 75.7305 67.1232C73.2559 68.5952 71.2692 70.4086 69.7705 72.5632" stroke="#3A2328" stroke-width="2"/>
<path d="M69.7703 72.5632L68.8184 72.4512" stroke="#25141C" stroke-width="2"/>
<path d="M193.01 58.0908C196.418 60.6722 199.42 63.5308 202.018 66.6668" stroke="#536852" stroke-width="2"/>
<path d="M202.018 66.667C210.823 78.6457 214.804 91.9097 213.962 106.459C213.956 106.614 213.876 106.688 213.722 106.683C213.652 106.683 213.572 106.686 213.482 106.691C213.21 106.712 213.063 106.587 213.042 106.315C212.186 94.163 209.106 82.707 202.274 72.635" stroke="#342426" stroke-width="2"/>
<path d="M202.275 72.6353C197.011 65.2273 190.384 59.0113 182.395 53.9873" stroke="#372628" stroke-width="2"/>
<path d="M226.499 178.099C225.923 178.312 225.424 178.259 225.003 177.939C224.842 177.813 224.727 177.637 224.676 177.439C224.626 177.24 224.642 177.031 224.723 176.843C225.467 175.147 226.123 173.931 226.275 171.923C226.376 170.691 226.645 169.278 227.083 167.683C229.859 157.619 231.995 146.339 231.523 135.675C230.603 114.907 225.987 94.1629 211.827 78.2509C211.672 78.0749 211.48 78.0216 211.251 78.0909L210.227 78.4029" stroke="#4F8C65" stroke-width="2"/>
<path d="M210.226 78.403C208.322 73.923 205.586 70.011 202.018 66.667" stroke="#354F40" stroke-width="2"/>
<path d="M202.274 72.6354C201.597 72.6887 200.946 72.5687 200.322 72.2754C200.098 72.1687 199.933 72.2301 199.826 72.4594C199.25 73.7661 198.25 74.4727 196.826 74.5794C196.618 74.5954 196.45 74.6887 196.322 74.8594L196.09 75.1874C195.951 75.3687 195.773 75.4354 195.554 75.3874C193.914 75.0194 193.09 76.0434 191.826 76.3474C190.226 76.7421 188.629 77.1874 187.034 77.6834C186.778 77.7618 186.503 77.7645 186.242 77.6914C181.794 76.4274 179.394 77.4354 175.09 78.4834C172.266 79.1714 167.922 79.7234 164.41 80.9474C162.314 81.6834 160.258 81.9554 158.146 82.5234C156.754 82.8994 155.154 82.6914 153.658 83.3874C151.346 84.4754 150.666 84.7714 148.474 84.6834C147.274 84.6354 146.229 85.0808 145.338 86.0194C145.151 86.2168 144.927 86.3501 144.666 86.4194C141.514 87.2248 138.335 87.8727 135.13 88.3634C133.426 88.6274 131.49 88.0754 129.482 89.4994C129.433 89.5342 129.392 89.5794 129.362 89.6317C129.331 89.6841 129.313 89.7423 129.308 89.8025C129.303 89.8626 129.31 89.9232 129.331 89.98C129.351 90.0368 129.384 90.0884 129.426 90.1314C129.575 90.2807 129.73 90.4301 129.89 90.5794C130.157 90.8354 130.109 91.0061 129.746 91.0914C129.65 91.1128 129.554 91.1394 129.458 91.1714C129.218 91.2567 128.991 91.2354 128.778 91.1074C122.671 87.5234 116.85 83.5234 111.314 79.1074C111.237 79.0465 111.142 79.0115 111.043 79.0072C110.945 79.0029 110.846 79.0295 110.762 79.0834C102.098 84.5954 94.2421 89.6994 86.6021 97.5474C85.9221 98.2434 85.4262 98.2674 84.6422 98.8354C84.5195 98.9261 84.4848 98.8994 84.5382 98.7554L85.1382 97.1714C85.1559 97.1194 85.158 97.0633 85.1441 97.0101C85.1302 96.9569 85.101 96.909 85.06 96.8723C85.0191 96.8356 84.9682 96.8118 84.9138 96.8038C84.8594 96.7958 84.8039 96.804 84.7541 96.8274C80.8715 98.7581 76.8368 100.289 72.6501 101.419C72.3301 101.507 71.9141 101.987 71.7461 102.267C71.6075 102.507 71.3995 102.622 71.1221 102.611C69.2501 102.537 67.7408 103.227 66.5942 104.683C66.4538 104.855 66.2598 104.976 66.0422 105.027C64.6288 105.337 63.2395 105.689 61.8741 106.083C61.6341 106.153 61.3888 106.171 61.1382 106.139L58.0261 105.747C57.7328 105.71 57.6288 105.55 57.7142 105.267C58.2742 103.427 58.1728 101.726 57.4102 100.163" stroke="#190D16" stroke-width="2"/>
<path d="M69.7706 72.5625L66.6907 77.5065C66.6082 77.6392 66.5618 77.7912 66.5562 77.9474C66.5506 78.1036 66.586 78.2585 66.6588 78.3968C66.7316 78.535 66.8392 78.6519 66.9711 78.7357C67.103 78.8195 67.2546 78.8673 67.4107 78.8745C71.0747 79.0345 74.9867 77.1305 78.9947 74.3625" stroke="#321E24" stroke-width="2"/>
<path d="M66.4186 92.7149C67.3146 93.2509 67.8026 94.0909 68.6586 94.6269C68.8933 94.7709 69.0826 94.7256 69.2266 94.4909C70.3466 92.6989 69.8186 90.8509 67.9066 90.0829C65.8266 89.2509 64.7706 91.7309 66.4186 92.7149Z" stroke="#25141C" stroke-width="2"/>
<path d="M60.4348 99.7949C61.7548 101.731 64.6588 101.139 65.0988 98.8349C65.1283 98.6861 65.1226 98.5331 65.0823 98.3884C65.042 98.2438 64.9681 98.1116 64.8668 98.0029L62.9707 95.9389C62.8007 95.7526 62.584 95.6151 62.3429 95.5406C62.1019 95.4662 61.8454 95.4575 61.5999 95.5154C61.3544 95.5733 61.1288 95.6957 60.9464 95.87C60.7641 96.0443 60.6316 96.2642 60.5628 96.5069C60.2588 97.5709 59.7628 98.8109 60.4348 99.7949Z" stroke="#25141C" stroke-width="2"/>
<path d="M210.227 78.4033C217.723 95.5153 216.475 117.355 213.323 135.403" stroke="#314839" stroke-width="2"/>
<path d="M213.322 135.403C211.588 133.872 209.484 133.168 207.01 133.291" stroke="#8A6451" stroke-width="2"/>
<path d="M207.01 133.291C199.762 134.235 198.45 140.611 194.834 145.451" stroke="#88533C" stroke-width="2"/>
<path d="M194.834 145.451C194.861 144.886 194.965 144.345 195.146 143.827C197.858 136.115 191.554 118.843 189.082 110.731C189.037 110.584 188.952 110.452 188.838 110.351C188.723 110.249 188.584 110.181 188.434 110.155L171.194 106.987" stroke="#884937" stroke-width="2"/>
<path d="M171.194 106.987L155.618 104.339" stroke="#300D12" stroke-width="2"/>
<path d="M155.619 104.339C152.787 103.262 150.011 102.368 147.291 101.659C134.261 98.251 122.811 92.011 112.939 82.939C112.741 82.7577 112.509 82.6697 112.243 82.675C111.565 82.6857 110.976 82.8671 110.475 83.2191" stroke="#834136" stroke-width="2"/>
<path d="M110.475 83.2188C101.664 86.9787 93.9894 92.2161 87.4507 98.9307C79.6427 106.955 75.2027 119.139 72.3387 129.499C71.0747 134.059 70.9334 138.837 71.9147 143.835C71.9275 143.878 71.9224 143.925 71.9006 143.965C71.8789 144.005 71.8422 144.034 71.7987 144.047C71.7552 144.059 71.7085 144.054 71.6687 144.033C71.6289 144.011 71.5994 143.974 71.5867 143.931C70.3547 140.843 67.5467 134.411 63.9707 133.539" stroke="#895F44" stroke-width="2"/>
<path d="M63.97 133.539C61.5754 132.536 59.2794 132.621 57.082 133.795" stroke="#897A5C" stroke-width="2"/>
<path d="M57.0823 133.795C55.3009 124.094 54.5623 114.395 54.8663 104.699" stroke="#4D6252" stroke-width="2"/>
<path d="M56.9223 90.9148C56.8316 90.8881 56.7569 90.8348 56.6983 90.7548C56.5489 90.5468 56.4769 90.5228 56.4823 90.6828C56.4823 90.7521 56.4823 90.8268 56.4823 90.9068C56.4832 90.9319 56.4777 90.9567 56.4661 90.979C56.4545 91.0014 56.4372 91.0205 56.4159 91.0347C56.3945 91.049 56.3697 91.0579 56.3436 91.0607C56.3175 91.0635 56.2909 91.0601 56.2663 91.0508C53.0503 89.6828 52.0823 91.5308 49.7143 92.6668C44.4556 95.1788 39.0476 97.3228 33.4903 99.0988C33.1329 99.2108 32.6396 99.2775 32.0103 99.2988C31.7489 99.3041 31.5089 99.3761 31.2903 99.5148C29.4449 100.677 28.1916 100.704 27.5303 99.5948" stroke="#90BE95" stroke-width="2"/>
<path d="M215.043 195.898C202.696 211.381 187.341 222.61 168.979 229.586" stroke="#3B6C5B" stroke-width="2"/>
<path d="M168.979 229.588C168.803 218.14 166.931 203.836 156.395 197.508" stroke="#8BB58B" stroke-width="2"/>
<path d="M156.395 197.507C153.952 195.933 151.464 194.837 148.931 194.219" stroke="#509E71" stroke-width="2"/>
<path d="M148.93 194.219C146.813 192.971 144.442 192.294 141.818 192.188" stroke="#A29060" stroke-width="2"/>
<path d="M141.818 192.186C141.882 192.08 141.936 191.984 141.978 191.898C142.064 191.717 142.205 191.624 142.402 191.618C159.938 190.922 180.674 185.69 193.114 172.45C195.61 169.794 198.418 165.722 201.194 162.482" stroke="#294633" stroke-width="2"/>
<path d="M201.194 162.484L202.122 162.1" stroke="#A29060" stroke-width="2"/>
<path d="M202.122 162.099C208.746 160.707 214.082 153.099 215.874 147.027C217.159 142.665 216.309 138.79 213.322 135.403" stroke="#A4A176" stroke-width="2"/>
<path d="M155.618 104.339C153.098 104.923 150.106 106.467 149.626 109.235" stroke="#9C4334" stroke-width="2"/>
<path d="M149.626 109.235C148.821 109.565 148.039 109.587 147.282 109.299C133.258 103.987 120.482 96.3947 110.082 85.3627C109.998 85.2716 109.945 85.1565 109.931 85.0343C109.916 84.912 109.941 84.7889 110.002 84.6827C110.301 84.1601 110.458 83.6721 110.474 83.2188" stroke="#F59566" stroke-width="2"/>
<path d="M149.626 109.235L150.738 109.675" stroke="#A26141" stroke-width="2"/>
<path d="M150.738 109.675C150.898 110.107 150.893 110.579 150.722 111.091C150.637 111.347 150.658 111.595 150.786 111.835C153.066 116.003 154.882 120.483 158.482 123.811" stroke="#FAA76B" stroke-width="2"/>
<path d="M158.482 123.811C157.496 124.307 156.741 124.232 156.218 123.587C156.16 123.513 156.118 123.43 156.093 123.34C156.068 123.251 156.062 123.158 156.074 123.067L156.114 122.779C156.157 122.453 156.024 122.341 155.714 122.443L154.298 122.907C153.973 123.013 153.832 122.896 153.874 122.555C153.949 122.048 153.768 121.699 153.33 121.507C153.032 121.373 152.882 121.469 152.882 121.795V122.139C152.884 122.304 152.832 122.466 152.734 122.6C152.636 122.733 152.498 122.832 152.34 122.881C152.181 122.929 152.012 122.925 151.856 122.869C151.7 122.814 151.566 122.709 151.474 122.571C149.64 119.84 147.056 118.219 143.722 117.707C143.466 117.669 143.384 117.773 143.474 118.019L143.706 118.635C143.829 118.976 143.733 119.056 143.418 118.875C141.874 117.979 139.418 118.323 137.714 118.067C134.538 117.587 131.722 117.771 128.722 116.035C125.73 114.307 123.186 115.523 120.034 115.499C119.8 115.499 119.616 115.595 119.482 115.787L118.978 116.523C118.797 116.779 118.552 116.896 118.242 116.875C116.274 116.747 114.472 117.243 112.834 118.363C112.584 118.533 112.312 118.589 112.018 118.531C110.296 118.168 108.898 118.659 107.826 120.003C107.656 120.221 107.576 120.467 107.586 120.739C107.65 122.381 106.81 123.517 105.066 124.147" stroke="#FCB776" stroke-width="2"/>
<path d="M105.066 124.147C94.6499 122.243 87.9939 126.491 85.0979 136.891C84.1912 140.134 84.1966 142.824 85.1139 144.963" stroke="#815C3E" stroke-width="2"/>
<path d="M85.1143 144.963L87.2663 146.667" stroke="#F3CAA7" stroke-width="2"/>
<path d="M87.2662 146.667L87.1381 148.523C87.1284 148.654 87.0838 148.779 87.0092 148.886C86.9346 148.993 86.8326 149.078 86.7141 149.131C84.6875 150.022 82.7781 151.112 80.9861 152.403C79.6021 153.403 76.5221 157.475 79.7701 157.891C80.0421 157.923 80.2715 158.04 80.4581 158.243C82.8261 160.734 85.6661 162.515 88.9781 163.587C89.2359 163.669 89.4571 163.842 89.6021 164.075C92.0661 168.115 96.3061 166.939 100.146 167.243C100.42 167.264 100.688 167.346 100.93 167.483C101.245 167.664 101.517 167.656 101.746 167.459C101.917 167.31 102.117 167.24 102.346 167.251C104.986 167.379 108.13 166.771 110.634 167.523C111.546 167.795 112.485 167.96 113.45 168.019" stroke="#FCB776" stroke-width="2"/>
<path d="M113.45 168.02C114.677 171.822 116.872 175.252 120.034 178.308" stroke="#AE5D40" stroke-width="2"/>
<path d="M120.034 178.307C125.992 182.307 132.453 182.413 139.418 178.627" stroke="#EC7C4C" stroke-width="2"/>
<path d="M139.418 178.626C141.397 177.351 143.183 175.615 144.778 173.418" stroke="#AE5D40" stroke-width="2"/>
<path d="M144.778 173.419C145.13 173.969 145.29 174.651 145.258 175.467C145.253 175.598 145.22 175.725 145.16 175.841C145.101 175.957 145.017 176.059 144.914 176.139C143.922 176.939 142.933 177.758 141.946 178.595C141.919 178.618 141.901 178.65 141.897 178.684C141.892 178.719 141.901 178.754 141.921 178.783C141.942 178.812 141.973 178.834 142.008 178.843C142.043 178.853 142.081 178.85 142.114 178.835C145.69 176.883 146.61 172.115 151.306 173.027C151.582 173.085 151.869 173.057 152.13 172.947C157.069 170.878 162.175 169.398 167.45 168.507C167.578 168.486 167.653 168.539 167.674 168.667L167.714 168.979C167.721 169.022 167.74 169.062 167.768 169.095C167.796 169.128 167.832 169.153 167.873 169.167C167.914 169.181 167.958 169.183 168.001 169.174C168.043 169.165 168.082 169.145 168.114 169.115C169.943 167.281 171.327 166.129 172.266 165.659C176.095 163.734 176.389 162.606 173.146 162.275" stroke="#FCB776" stroke-width="2"/>
<path d="M173.146 162.275C176.336 162.445 179.512 162.235 182.674 161.643" stroke="#FA9D66" stroke-width="2"/>
<path d="M182.674 161.643C183.274 162.259 183.258 162.987 182.722 163.683C175.466 173.307 165.866 181.707 153.738 183.715C153.472 183.763 153.322 183.92 153.29 184.187C153.237 184.581 153.304 184.995 153.49 185.427" stroke="#FAA76B" stroke-width="2"/>
<path d="M153.491 185.428L138.643 187.716" stroke="#815C3E" stroke-width="2"/>
<path d="M138.642 187.715C138.274 187.603 137.949 187.569 137.666 187.611" stroke="#FAA76B" stroke-width="2"/>
<path d="M137.666 187.611L126.506 187.939" stroke="#FB9E52" stroke-width="2"/>
<path d="M126.507 187.938C107.235 185.858 84.5786 181.706 75.5306 161.842C75.4079 161.575 75.2079 161.485 74.9306 161.57C71.8319 162.514 68.6666 162.677 65.4346 162.058" stroke="#815C3E" stroke-width="2"/>
<path d="M65.434 162.058C65.0554 161.808 64.674 161.674 64.29 161.658" stroke="#AFA976" stroke-width="2"/>
<path d="M64.2906 161.659C63.4826 156.059 60.6106 154.547 58.2586 150.483C54.2586 143.587 57.2106 137.203 63.9706 133.539" stroke="#FCCD8B" stroke-width="2"/>
<path d="M108.418 109.867C110.093 110.033 111.792 110.099 113.514 110.067C113.76 110.062 113.973 109.979 114.154 109.819C117.058 107.275 112.882 104.699 110.458 104.147C100.994 102.003 91.9223 106.371 86.1863 113.827C85.7543 114.387 85.573 114.865 85.6423 115.259C85.6631 115.382 85.7149 115.497 85.793 115.594C85.871 115.691 85.9727 115.767 86.0886 115.814C86.2044 115.861 86.3307 115.878 86.4555 115.864C86.5803 115.849 86.6996 115.804 86.8023 115.731C93.357 111.07 100.562 109.115 108.418 109.867Z" stroke="#AE5D40" stroke-width="2"/>
<path d="M61.5463 142.971C59.8583 149.611 66.7943 152.499 72.2263 152.395C72.2796 152.395 72.2903 152.373 72.2583 152.331C70.9303 150.283 69.5943 147.547 68.2503 144.123C67.3063 141.731 62.7143 138.355 61.5463 142.971Z" stroke="#E38A5D" stroke-width="2"/>
<path d="M57.0822 133.795C55.3968 135.022 53.9088 136.776 52.6182 139.059" stroke="#C0D09A" stroke-width="2"/>
<path d="M52.6178 139.059C51.9218 139.203 51.6338 140.539 50.8498 140.075C50.6045 139.931 50.4818 140 50.4818 140.283V140.651C50.4818 140.843 50.3885 140.917 50.2018 140.875C49.4818 140.693 48.9618 140.92 48.6418 141.555C48.5138 141.805 48.3245 141.997 48.0738 142.131C44.4098 144.136 40.7912 146.224 37.2178 148.395C34.2898 150.171 32.8258 149.427 29.9458 152.307C29.0018 153.245 27.9805 153.579 26.8818 153.307" stroke="#73AC85" stroke-width="2"/>
<path d="M171.194 106.987C173.994 109.025 176.472 111.769 178.626 115.219C178.724 115.38 178.767 115.567 178.749 115.754C178.731 115.941 178.654 116.117 178.528 116.256C178.402 116.396 178.235 116.491 178.051 116.527C177.867 116.564 177.676 116.54 177.506 116.459L174.578 115.011" stroke="#A14B34" stroke-width="2"/>
<path d="M174.578 115.011C166.122 109.347 159.834 109.707 150.738 109.675" stroke="#A15539" stroke-width="2"/>
<path d="M194.835 145.451L192.067 145.219C191.773 145.197 191.621 145.037 191.611 144.739C191.379 138.539 189.931 126.987 183.043 124.379C179.933 123.2 176.813 122.027 173.683 120.859C170.403 119.643 172.835 116.531 174.579 115.011" stroke="#F9915E" stroke-width="2"/>
<path d="M207.01 133.291C211.826 136.326 213.711 140.611 212.666 146.147C211.322 153.283 208.49 154.763 203.266 158.979C203.063 159.139 202.927 159.342 202.858 159.587L202.122 162.099" stroke="#FBAC79" stroke-width="2"/>
<path d="M201.194 162.482C198.021 163 194.976 162.533 192.058 161.082C191.966 161.035 191.858 161.026 191.758 161.057C191.658 161.089 191.574 161.158 191.522 161.251C183.018 176.563 170.05 182.146 153.49 185.426" stroke="#805136" stroke-width="2"/>
<path d="M182.674 161.642L187.274 157.33C187.436 157.18 187.532 156.972 187.544 156.751C187.556 156.531 187.482 156.314 187.338 156.146C184.146 152.434 179.09 150.882 174.37 150.146" stroke="#F9915E" stroke-width="2"/>
<path d="M174.37 150.147C174.029 148.782 174.247 147.881 175.026 147.443" stroke="#FBAC6E" stroke-width="2"/>
<path d="M175.026 147.443C178.365 147.075 180.234 146.201 180.634 144.819" stroke="#F2BE9F" stroke-width="2"/>
<path d="M180.635 144.819C181.253 144.44 181.56 143.915 181.555 143.243C181.451 132.747 175.683 123.547 164.227 123.587" stroke="#88533C" stroke-width="2"/>
<path d="M164.226 123.588C162.68 122.814 160.765 122.889 158.482 123.812" stroke="#FBAC6E" stroke-width="2"/>
<path d="M206.123 141.051C200.683 138.275 197.563 149.555 196.443 152.811C196.368 153.019 196.44 153.107 196.659 153.075C201.659 152.275 207.467 150.131 207.883 144.507C207.995 142.971 207.483 141.747 206.123 141.051Z" stroke="#E27F55" stroke-width="2"/>
<path d="M164.226 123.587C158.199 123.976 154.498 126.67 153.122 131.667" stroke="#8A6447" stroke-width="2"/>
<path d="M153.122 131.667C151.618 135.731 151.09 143.139 155.138 146.035C160.338 149.755 168.746 147.947 175.026 147.443" stroke="#F4CFAA" stroke-width="2"/>
<path d="M174.371 150.147C170.523 149.763 161.667 151.323 160.627 156.243C160.57 156.522 160.618 156.81 160.763 157.051C163.067 160.947 168.739 162.315 173.147 162.275" stroke="#FBA269" stroke-width="2"/>
<path d="M144.778 173.419L149.066 163.851C149.205 163.531 149.125 163.456 148.826 163.627C136.954 170.163 121.778 168.843 113.61 157.531C113.513 157.398 113.377 157.299 113.222 157.245C113.067 157.192 112.899 157.187 112.741 157.231C112.583 157.275 112.442 157.367 112.337 157.493C112.232 157.62 112.168 157.775 112.154 157.939C111.893 161.357 112.325 164.717 113.45 168.019" stroke="#AF6243" stroke-width="2"/>
<path d="M87.2666 146.667C92.0293 147.211 96.8106 147.627 101.611 147.915C111.987 148.539 115.379 139.827 111.779 131.299" stroke="#F4CFAA" stroke-width="2"/>
<path d="M111.778 131.299C110.92 128.184 108.682 125.8 105.066 124.146" stroke="#826141" stroke-width="2"/>
<path d="M128.066 151.899C127.047 150.694 125.796 150.238 124.314 150.531C124.193 150.556 124.082 150.613 123.992 150.696C123.902 150.779 123.836 150.886 123.802 151.003C123.242 153.046 123.93 154.099 125.866 154.163" stroke="#FDD4AC" stroke-width="2"/>
<path d="M125.866 154.163C124.65 154.819 124.316 155.614 124.866 156.547C125.004 156.776 125.202 156.923 125.458 156.987C128.215 157.67 130.367 156.763 131.914 154.267C134.514 150.091 128.722 145.787 126.458 148.843C126.276 149.083 126.324 149.262 126.602 149.379C127.7 149.859 128.188 150.699 128.066 151.899" stroke="#FCAD65" stroke-width="2"/>
<path d="M125.866 154.163C127.818 153.689 128.552 152.934 128.066 151.899" stroke="#FCC597" stroke-width="2"/>
<path d="M81.9143 157.779C86.5623 163.147 95.1623 162.595 100.986 159.939C103.906 158.603 106.418 154.723 103.034 152.707C98.9303 150.251 92.7623 148.827 88.1783 150.571C86.2983 151.283 79.3543 154.819 81.9143 157.779Z" stroke="#FBA269" stroke-width="2"/>
<path d="M111.778 131.299C110.445 130.435 109.21 129.555 108.074 128.659C100.258 122.499 89.8742 127.347 86.9222 136.115C86.0982 138.579 85.8263 141.923 85.1143 144.963" stroke="#797471" stroke-width="2"/>
<path d="M180.634 144.819C179.258 137.811 178.226 131.811 172.514 128.267C165.85 124.131 158.21 125.731 153.122 131.667" stroke="#817677" stroke-width="2"/>
<path d="M104.646 145.231C105.445 145.185 106.226 144.951 106.943 144.543C107.66 144.135 108.3 143.56 108.826 142.852C109.353 142.144 109.755 141.316 110.01 140.416C110.264 139.515 110.367 138.56 110.312 137.604C110.257 136.649 110.045 135.712 109.688 134.847C109.332 133.982 108.837 133.205 108.233 132.562C107.629 131.919 106.927 131.422 106.168 131.099C105.408 130.776 104.606 130.633 103.807 130.679C103.008 130.725 102.227 130.959 101.51 131.367C100.792 131.776 100.152 132.35 99.6263 133.059C99.1001 133.767 98.6981 134.595 98.4432 135.495C98.1882 136.395 98.0853 137.351 98.1404 138.306C98.1955 139.262 98.4075 140.199 98.7642 141.064C99.121 141.929 99.6155 142.705 100.22 143.348C100.824 143.991 101.525 144.489 102.285 144.812C103.044 145.135 103.847 145.277 104.646 145.231Z" stroke="#797471" stroke-width="2"/>
<path d="M159.943 145.627C160.762 145.68 161.586 145.536 162.367 145.204C163.148 144.872 163.871 144.358 164.496 143.691C165.12 143.024 165.634 142.218 166.007 141.318C166.379 140.418 166.604 139.442 166.669 138.446C166.799 136.435 166.267 134.463 165.19 132.965C164.112 131.468 162.578 130.566 160.924 130.459C160.106 130.406 159.282 130.55 158.501 130.882C157.72 131.214 156.996 131.728 156.372 132.395C155.747 133.062 155.234 133.868 154.861 134.768C154.488 135.668 154.263 136.644 154.199 137.64C154.069 139.651 154.601 141.623 155.678 143.121C156.756 144.619 158.29 145.52 159.943 145.627Z" stroke="#797471" stroke-width="2"/>
<path d="M159.464 137.43C159.711 137.415 159.951 137.341 160.171 137.213C160.392 137.085 160.588 136.906 160.749 136.685C160.91 136.464 161.033 136.207 161.11 135.926C161.187 135.646 161.217 135.349 161.198 135.053C161.161 134.453 160.927 133.891 160.548 133.49C160.17 133.088 159.678 132.88 159.18 132.911C158.934 132.927 158.693 133.001 158.473 133.128C158.252 133.256 158.056 133.436 157.895 133.657C157.734 133.877 157.611 134.135 157.534 134.415C157.457 134.695 157.427 134.992 157.446 135.289C157.484 135.888 157.717 136.45 158.096 136.852C158.474 137.254 158.967 137.462 159.464 137.43Z" stroke="#797471" stroke-width="2"/>
<path d="M104.991 137.11C105.404 136.973 105.729 136.629 105.895 136.155C106.062 135.681 106.056 135.114 105.878 134.581C105.79 134.317 105.663 134.069 105.503 133.851C105.344 133.632 105.156 133.449 104.949 133.31C104.742 133.171 104.522 133.08 104.299 133.042C104.077 133.004 103.857 133.019 103.653 133.087C103.24 133.224 102.915 133.568 102.748 134.042C102.582 134.517 102.588 135.083 102.766 135.616C102.854 135.88 102.981 136.129 103.14 136.347C103.3 136.565 103.488 136.748 103.695 136.887C103.901 137.026 104.122 137.117 104.345 137.155C104.567 137.194 104.787 137.178 104.991 137.11Z" stroke="#797471" stroke-width="2"/>
<path d="M64.29 161.659C55.41 156.304 51.5193 148.771 52.618 139.059" stroke="#B0C48E" stroke-width="2"/>
<path d="M65.4346 162.059L71.5146 170.443" stroke="#355341" stroke-width="2"/>
<path d="M71.5142 170.443C71.4742 172.387 70.2262 173.323 69.7462 174.859C69.0182 177.219 68.6342 179.195 66.7942 181.091C65.4395 182.483 64.2422 184.017 63.2022 185.691C63.0569 185.925 62.8401 186.102 62.5862 186.195C61.6902 186.515 61.0315 187.118 60.6102 188.003C60.4768 188.281 60.2662 188.47 59.9782 188.571C58.2822 189.174 57.2662 190.337 56.9302 192.059C56.8886 192.274 56.8028 192.479 56.6782 192.659C56.5537 192.839 56.3932 192.992 56.2067 193.107C56.0202 193.222 55.8119 193.297 55.595 193.327C55.378 193.358 55.1571 193.343 54.9462 193.283C51.8208 192.403 48.5862 192.326 45.2422 193.051" stroke="#5B9973" stroke-width="2"/>
<path d="M139.418 178.627C140.351 176.536 138.976 174.68 135.29 173.059C133.706 172.36 130.92 172.189 126.93 172.547C123.832 172.819 121.533 174.739 120.034 178.307" stroke="#9F2718" stroke-width="2"/>
<path d="M141.819 192.187L139.411 192.091C139.117 192.075 138.96 191.923 138.939 191.635L138.643 187.715" stroke="#805136" stroke-width="2"/>
<path d="M126.506 187.939C126.778 189.273 126.789 190.481 126.538 191.563" stroke="#81481C" stroke-width="2"/>
<path d="M126.539 191.563C123.989 191.75 122.17 191.787 121.082 191.675C106.626 190.147 92.6985 186.827 80.3545 178.867" stroke="#294633" stroke-width="2"/>
<path d="M80.3537 178.867C77.0577 176.457 74.111 173.649 71.5137 170.443" stroke="#2D4C3A" stroke-width="2"/>
<path d="M80.3546 178.867L78.7786 180.099C78.5919 180.249 78.5652 180.422 78.6986 180.619L101.115 212.859" stroke="#4F8C65" stroke-width="2"/>
<path d="M101.114 212.859L99.3223 224.331C99.2914 224.532 99.334 224.737 99.4424 224.907C99.5384 225.046 99.5837 225.155 99.5784 225.235" stroke="#60AA83" stroke-width="2"/>
<path d="M99.5787 225.234L98.8027 230.954" stroke="#398F71" stroke-width="2"/>
<path d="M126.538 191.562C126.666 191.754 126.703 191.904 126.65 192.01" stroke="#A38847" stroke-width="2"/>
<path d="M126.65 192.012L124.53 192.964" stroke="#A29060" stroke-width="2"/>
<path d="M124.53 192.963C121.546 193.267 117.714 192.339 117.042 196.603" stroke="#A49D63" stroke-width="2"/>
<path d="M117.042 196.602C117.351 195.941 117.02 195.57 116.05 195.49" stroke="#409371" stroke-width="2"/>
<path d="M116.05 195.492L116.098 195.076C116.136 194.734 115.986 194.596 115.65 194.66C106.674 196.42 103.81 204.364 101.114 212.86" stroke="#5CA37B" stroke-width="2"/>
<path d="M137.666 187.611C137.234 188.843 138.634 190.395 137.49 191.723C137.314 191.926 137.09 192.033 136.818 192.043L128.186 192.395C128.016 192.406 127.856 192.363 127.706 192.267C127.45 192.107 127.098 192.022 126.65 192.011" stroke="#FA934A" stroke-width="2"/>
<path d="M148.93 194.219C148.824 194.603 148.877 194.864 149.09 195.003" stroke="#A7A974" stroke-width="2"/>
<path d="M149.09 195.004L148.338 197.636" stroke="#8C936C" stroke-width="2"/>
<path d="M148.339 197.635C147.229 198.835 146.245 200.083 145.387 201.379C144.883 202.131 143.251 201.659 142.579 201.675C139.187 201.739 135.824 202.075 132.491 202.683C127.371 203.619 124.371 196.899 124.531 192.963" stroke="#FBA866" stroke-width="2"/>
<path d="M148.339 197.635C144.899 204.547 139.387 209.243 131.299 209.307" stroke="#8DA06F" stroke-width="2"/>
<path d="M131.298 209.308C123.938 208.012 119.186 203.777 117.042 196.604" stroke="#99AB76" stroke-width="2"/>
<path d="M156.394 197.508C156.271 197.385 156.125 197.484 155.954 197.804" stroke="#8FCD9F" stroke-width="2"/>
<path d="M155.954 197.804C153.895 196.407 151.607 195.473 149.09 195.004" stroke="#39A17D" stroke-width="2"/>
<path d="M116.05 195.491C111.738 194.747 105.178 208.971 104.034 211.779C102.89 214.571 98.9221 220.827 100.666 224.371" stroke="#51B18F" stroke-width="2"/>
<path d="M100.666 224.371C100.693 224.531 100.663 224.718 100.578 224.931C100.533 225.047 100.45 225.145 100.343 225.209C100.235 225.273 100.11 225.299 99.9861 225.283L99.5781 225.235" stroke="#46A687" stroke-width="2"/>
<path d="M155.954 197.803C158.477 199.163 160.394 200.989 161.706 203.283" stroke="#74B897" stroke-width="2"/>
<path d="M161.707 203.283L159.747 202.475C159.626 202.427 159.495 202.414 159.367 202.436C159.24 202.459 159.122 202.517 159.027 202.603C156.419 204.923 151.139 204.715 146.227 205.179C146.111 205.189 145.995 205.169 145.889 205.122C145.783 205.074 145.69 205 145.619 204.907C145.304 204.486 144.88 204.36 144.347 204.531C144.123 204.6 143.931 204.718 143.771 204.883C140.059 208.67 135.901 210.145 131.299 209.307" stroke="#2A967D" stroke-width="2"/>
<path d="M161.706 203.283C164.853 208.302 166.701 213.742 167.25 219.603" stroke="#80C39F" stroke-width="2"/>
<path d="M167.25 219.604C166.706 220.164 166.354 220.964 166.194 222.004" stroke="#2A9070" stroke-width="2"/>
<path d="M166.194 222.004L161.802 226.404C161.731 226.476 161.638 226.522 161.537 226.534C161.437 226.546 161.335 226.524 161.249 226.471C161.163 226.418 161.097 226.338 161.062 226.243C161.028 226.148 161.026 226.044 161.058 225.948L161.162 225.644C161.178 225.595 161.176 225.541 161.157 225.493C161.138 225.445 161.103 225.405 161.058 225.38L160.834 225.244C160.658 225.137 160.562 224.98 160.546 224.772C160.13 219.292 161.082 213.324 159.77 208.068C159.736 207.925 159.651 207.799 159.531 207.715C159.411 207.63 159.264 207.593 159.118 207.609C158.972 207.626 158.837 207.696 158.739 207.806C158.641 207.915 158.586 208.057 158.586 208.204L158.122 232.548" stroke="#317D71" stroke-width="2"/>
<path d="M158.122 232.547C147.424 234.958 137.144 235.998 127.282 235.667" stroke="#307A6F" stroke-width="2"/>
<path d="M107.706 215.34C105.749 215.351 104.455 215.788 103.826 216.652C103.49 217.116 102.927 218.244 102.138 220.036C101.562 221.34 101.658 222.924 100.666 224.372" stroke="#2A967D" stroke-width="2"/>
<path d="M113.85 211.051C113.973 211.393 114.114 211.673 114.274 211.891C114.329 211.963 114.408 212.014 114.497 212.034C114.585 212.054 114.678 212.043 114.759 212.002C114.84 211.962 114.905 211.894 114.942 211.811C114.979 211.728 114.986 211.635 114.962 211.547L111.754 201.419C111.706 201.265 111.618 201.238 111.49 201.339C110.306 202.283 106.442 207.451 109.866 207.755C110.186 207.787 110.391 207.955 110.482 208.259C110.898 209.635 111.839 210.419 113.306 210.611C113.429 210.629 113.544 210.679 113.64 210.756C113.736 210.834 113.809 210.936 113.85 211.051Z" stroke="#51B18F" stroke-width="2"/>
<path d="M158.122 232.546L161.682 231.738" stroke="#2C555B" stroke-width="2"/>
<path d="M161.682 231.738L168.506 229.578" stroke="#25695A" stroke-width="2"/>
<path d="M168.506 229.578C168.666 229.578 168.823 229.581 168.978 229.586" stroke="#7B9B89" stroke-width="2"/>
<path d="M168.506 229.579L167.25 219.604" stroke="#75B28A" stroke-width="2"/>
<path d="M166.194 222.004C164.33 225.668 161.098 226.868 161.682 231.74" stroke="#266C5C" stroke-width="2"/>
<path d="M164.45 25.2989L168.874 26.995C168.085 28.9523 167.32 30.9283 166.578 32.9229C165.434 36.0109 164.05 37.8269 164.762 41.3789C164.821 41.6669 164.976 41.8856 165.226 42.0349L171.098 45.5549C164.064 42.9736 157.026 41.1923 149.986 40.2109C137.058 38.0136 124.296 38.9203 111.698 42.9309C110.194 43.4109 108.629 44.1923 107.002 45.2749C109.082 42.3549 113.042 36.4509 107.754 35.0749C107.349 34.9789 106.698 35.0643 105.802 35.3309C105.797 35.3096 105.792 35.2856 105.786 35.2589C105.568 32.8216 105.608 30.3763 105.906 27.9229C106.13 26.1389 105.642 24.7069 105.314 22.9789C125.304 18.3443 145.016 19.1176 164.45 25.2989Z" fill="#9CC49A"/>
<path d="M105.314 22.9785C105.642 24.7065 106.13 26.1385 105.906 27.9225C105.607 30.3758 105.567 32.8212 105.786 35.2585C94.7297 38.8985 79.5697 49.9305 79.3377 62.7065C79.3324 62.9839 79.1964 63.1572 78.9297 63.2265C72.951 64.6932 68.167 68.0105 64.5777 73.1785C64.4337 72.9012 64.2817 72.7359 64.1217 72.6825C64.0844 72.6719 64.0524 72.6799 64.0257 72.7065L63.8497 72.8825C63.7164 73.0159 63.5777 73.0239 63.4337 72.9065C62.6817 72.2985 62.0737 71.9865 61.0577 72.2425C51.9777 74.5145 44.7857 77.7705 36.7617 81.0265C36.5057 81.1332 36.2497 81.1332 35.9937 81.0265C35.4764 80.8132 35.0657 80.4159 34.7617 79.8345C44.1484 60.9492 57.9644 45.9065 76.2097 34.7065C85.1537 29.4052 94.8551 25.4958 105.314 22.9785Z" fill="#BBDAB0"/>
<path d="M168.874 26.9951C180.154 31.3205 190.528 37.5524 199.994 45.6911L196.938 47.6991C196.736 47.8324 196.573 48.0031 196.45 48.2111C195.208 50.2911 193.56 51.9898 191.506 53.3071C191.322 53.4238 191.171 53.5864 191.069 53.779C190.967 53.9715 190.916 54.1874 190.923 54.4053C190.929 54.6233 190.992 54.8358 191.106 55.0219C191.219 55.2081 191.379 55.3615 191.57 55.4671C192.754 56.1284 193.234 57.0031 193.01 58.0911C189.794 55.3444 186.664 53.2724 183.618 51.8751C179.394 49.2671 175.221 47.1604 171.098 45.5551L165.226 42.0351C164.976 41.8858 164.821 41.6671 164.762 41.3791C164.05 37.8271 165.434 36.0111 166.578 32.9231C167.32 30.9284 168.085 28.9525 168.874 26.9951Z" fill="#76AC88"/>
<path d="M107.755 35.0752C106.059 40.0459 103.976 44.8086 101.507 49.3632C100.333 46.3606 100.184 43.4592 101.059 40.6592C101.155 40.3499 101.043 40.1632 100.723 40.0992L100.227 40.0032C101.987 38.3339 104.024 37.4059 106.339 37.2192C106.605 37.1979 106.715 37.0566 106.667 36.7952C106.581 36.2886 106.293 35.8006 105.803 35.3312C106.699 35.0646 107.349 34.9792 107.755 35.0752Z" fill="#523D38"/>
<path d="M105.786 35.2588C105.792 35.2855 105.797 35.3095 105.802 35.3308C106.293 35.8001 106.581 36.2881 106.666 36.7948C106.714 37.0561 106.605 37.1975 106.338 37.2188C104.024 37.4055 101.986 38.3334 100.226 40.0028C91.6422 44.1468 81.4422 53.3468 80.4982 63.5388C80.4769 63.8055 80.3409 63.9815 80.0902 64.0668C75.4662 65.6295 71.7089 68.4241 68.8182 72.4508C62.4715 80.8188 58.6689 90.0561 57.4102 100.163L56.8662 103.867C56.8289 104.123 56.6875 104.203 56.4422 104.107C55.6529 103.803 55.1275 104 54.8662 104.699L56.9222 90.9148C58.3515 84.4295 60.9035 78.5174 64.5782 73.1788C68.1675 68.0108 72.9515 64.6934 78.9302 63.2268C79.1969 63.1574 79.3329 62.9841 79.3382 62.7068C79.5702 49.9308 94.7302 38.8988 105.786 35.2588Z" fill="#645A4F"/>
<path d="M107.754 35.0752C113.042 36.4512 109.082 42.3552 107.002 45.2752L102.922 49.6752C102.594 49.8592 101.266 50.1152 101.506 49.3632C103.976 44.8085 106.058 40.0459 107.754 35.0752Z" fill="#070608"/>
<path d="M149.986 40.2106C149.474 40.5359 149.823 41.1332 151.034 42.0026C151.439 42.2906 151.394 42.4026 150.898 42.3386C134.778 40.2586 119.258 43.5866 104.066 49.5546C103.65 49.7146 103.426 50.1546 102.922 49.6746L107.002 45.2746C108.629 44.1919 110.194 43.4106 111.698 42.9306C124.295 38.9199 137.058 38.0132 149.986 40.2106Z" fill="#523D38"/>
<path d="M100.226 40.0029L100.722 40.0989C101.042 40.1629 101.154 40.3496 101.058 40.6589C100.184 43.4589 100.333 46.3603 101.506 49.3629C101.266 50.1149 102.594 49.8589 102.922 49.6749C103.426 50.1549 103.65 49.7149 104.066 49.5549C119.258 43.5869 134.778 40.2589 150.898 42.3389C151.394 42.4029 151.44 42.2909 151.034 42.0029C149.824 41.1336 149.474 40.5363 149.986 40.2109C157.026 41.1923 164.064 42.9736 171.098 45.5549C175.221 47.1603 179.394 49.2669 183.618 51.8749C178.621 50.1149 173.794 48.2029 169.138 46.1389C168.429 45.8243 167.746 45.6589 167.09 45.6429C167.013 45.644 166.938 45.672 166.878 45.7221C166.819 45.7722 166.779 45.8413 166.765 45.9177C166.75 45.9941 166.763 46.0731 166.801 46.1411C166.838 46.2092 166.898 46.2621 166.97 46.2909C172.528 48.2323 177.669 50.7976 182.394 53.9869C179.285 56.2323 175.514 57.7363 171.082 58.4989C158.002 60.7389 139.786 65.0989 127.874 67.1709C127.624 67.2136 127.413 67.3309 127.242 67.5229L126.586 68.2589C126.4 68.4665 126.152 68.6069 125.882 68.6589L119.362 70.0349C119.1 70.0917 118.828 70.0459 118.602 69.9069C116.56 68.6803 114.586 68.8056 112.682 70.2829C112.463 70.4555 112.2 70.5635 111.922 70.5949C103.234 71.5176 94.2904 73.1523 85.0904 75.4989C81.5597 76.4003 79.5277 76.0216 78.9944 74.3629C79.7144 73.7016 80.205 73.0483 80.4664 72.4029C80.5263 72.2513 80.5438 72.0867 80.5169 71.9273C80.4901 71.7678 80.42 71.6196 80.3144 71.4989L76.5543 67.2509C76.4524 67.1365 76.3142 67.0611 76.1637 67.0377C76.0132 67.0143 75.8598 67.0445 75.7303 67.1229C73.2557 68.5949 71.269 70.4083 69.7703 72.5629L68.8184 72.4509C71.709 68.4243 75.4664 65.6296 80.0904 64.0669C80.341 63.9816 80.477 63.8056 80.4983 63.5389C81.4423 53.3469 91.6423 44.1469 100.226 40.0029Z" fill="#2D1920"/>
<path d="M183.618 51.8746C186.664 53.2719 189.794 55.3439 193.01 58.0906C196.418 60.6719 199.421 63.5306 202.018 66.6666C210.824 78.6452 214.805 91.9092 213.962 106.459C213.957 106.613 213.877 106.688 213.722 106.683C213.653 106.683 213.573 106.685 213.482 106.691C213.21 106.712 213.064 106.587 213.042 106.315C212.186 94.1626 209.106 82.7066 202.274 72.6346C197.01 65.2266 190.384 59.0106 182.394 53.9866C177.669 50.7972 172.528 48.2319 166.97 46.2906C166.898 46.2618 166.838 46.2088 166.801 46.1407C166.763 46.0727 166.75 45.9938 166.764 45.9174C166.779 45.841 166.819 45.7718 166.878 45.7217C166.938 45.6716 167.012 45.6436 167.09 45.6426C167.746 45.6586 168.429 45.8239 169.138 46.1386C173.794 48.2026 178.621 50.1146 183.618 51.8746Z" fill="#523D38"/>
<path d="M199.994 45.6914C214.058 57.5634 225.41 72.6994 231.482 90.1154C241.402 118.603 240.074 150.971 226.498 178.099C225.922 178.313 225.423 178.259 225.002 177.939C224.841 177.813 224.726 177.637 224.675 177.439C224.625 177.241 224.641 177.031 224.722 176.843C225.466 175.147 226.122 173.931 226.274 171.923C226.375 170.691 226.644 169.278 227.082 167.683C229.858 157.619 231.994 146.339 231.522 135.675C230.602 114.907 225.986 94.1634 211.826 78.2514C211.671 78.0754 211.479 78.0221 211.25 78.0914L210.226 78.4034C208.322 73.9234 205.586 70.0114 202.018 66.6674C199.42 63.5314 196.418 60.6727 193.01 58.0914C193.234 57.0034 192.754 56.1287 191.57 55.4674C191.379 55.3618 191.219 55.2084 191.105 55.0222C190.992 54.8361 190.929 54.6236 190.922 54.4056C190.916 54.1877 190.966 53.9718 191.069 53.7792C191.171 53.5867 191.322 53.4241 191.506 53.3074C193.559 51.9901 195.207 50.2914 196.45 48.2114C196.572 48.0034 196.735 47.8327 196.938 47.6994L199.994 45.6914Z" fill="#53926C"/>
<path d="M182.394 53.9863C190.383 59.0103 197.01 65.2263 202.274 72.6343C201.597 72.6877 200.946 72.5677 200.322 72.2743C200.098 72.1677 199.933 72.229 199.826 72.4583C199.25 73.765 198.25 74.4717 196.826 74.5783C196.618 74.5943 196.45 74.6877 196.322 74.8583L196.09 75.1863C195.951 75.3677 195.773 75.4343 195.554 75.3863C193.914 75.0183 193.09 76.0423 191.826 76.3463C190.226 76.741 188.629 77.1863 187.034 77.6823C186.778 77.7607 186.503 77.7635 186.242 77.6903C181.794 76.4263 179.394 77.4343 175.09 78.4823C172.266 79.1703 167.922 79.7223 164.41 80.9463C162.314 81.6823 160.258 81.9543 158.146 82.5223C156.754 82.8983 155.154 82.6903 153.658 83.3863C151.346 84.4743 150.666 84.7703 148.474 84.6823C147.274 84.6343 146.229 85.0797 145.338 86.0183C145.151 86.2157 144.927 86.349 144.666 86.4183C141.514 87.2237 138.335 87.8717 135.13 88.3623C133.426 88.6263 131.49 88.0743 129.482 89.4983C129.433 89.5332 129.392 89.5783 129.362 89.6306C129.331 89.683 129.313 89.7412 129.308 89.8014C129.303 89.8615 129.31 89.9221 129.331 89.9789C129.351 90.0357 129.384 90.0874 129.426 90.1303C129.575 90.2797 129.73 90.429 129.89 90.5783C130.157 90.8343 130.109 91.005 129.746 91.0903C129.65 91.1117 129.554 91.1383 129.458 91.1703C129.218 91.2556 128.991 91.2343 128.778 91.1063C122.671 87.5223 116.85 83.5223 111.314 79.1063C111.237 79.0454 111.142 79.0104 111.043 79.0061C110.945 79.0018 110.846 79.0285 110.762 79.0823C102.098 84.5943 94.2421 89.6983 86.6021 97.5463C85.9221 98.2423 85.4262 98.2663 84.6422 98.8343C84.5195 98.925 84.4848 98.8983 84.5382 98.7543L85.1382 97.1703C85.1559 97.1183 85.158 97.0622 85.1441 97.009C85.1302 96.9558 85.101 96.9079 85.06 96.8712C85.0191 96.8345 84.9682 96.8107 84.9138 96.8027C84.8594 96.7947 84.8039 96.8029 84.7541 96.8263C80.8715 98.757 76.8368 100.288 72.6501 101.418C72.3301 101.506 71.9141 101.986 71.7461 102.266C71.6075 102.506 71.3995 102.621 71.1221 102.61C69.2501 102.536 67.7408 103.226 66.5942 104.682C66.4538 104.854 66.2598 104.975 66.0422 105.026C64.6288 105.336 63.2395 105.688 61.8741 106.082C61.6341 106.152 61.3888 106.17 61.1382 106.138L58.0261 105.746C57.7328 105.709 57.6288 105.549 57.7142 105.266C58.2742 103.426 58.1728 101.725 57.4102 100.162C58.6688 90.0557 62.4715 80.8183 68.8182 72.4503L69.7701 72.5623L66.6902 77.5063C66.6077 77.639 66.5613 77.791 66.5557 77.9472C66.5501 78.1034 66.5855 78.2583 66.6583 78.3966C66.7311 78.5349 66.8387 78.6517 66.9706 78.7355C67.1025 78.8193 67.2541 78.8672 67.4102 78.8743C71.0742 79.0343 74.9862 77.1303 78.9942 74.3623C79.5275 76.021 81.5595 76.3996 85.0902 75.4983C94.2902 73.1516 103.234 71.517 111.922 70.5943C112.2 70.5629 112.463 70.4548 112.682 70.2823C114.586 68.805 116.559 68.6797 118.602 69.9063C118.828 70.0453 119.1 70.0911 119.362 70.0343L125.882 68.6583C126.152 68.6063 126.399 68.4658 126.586 68.2583L127.242 67.5223C127.413 67.3303 127.623 67.213 127.874 67.1703C139.786 65.0983 158.002 60.7383 171.082 58.4983C175.514 57.7356 179.285 56.2317 182.394 53.9863ZM66.4182 92.7143C67.3142 93.2503 67.8022 94.0903 68.6582 94.6263C68.8928 94.7703 69.0821 94.725 69.2261 94.4903C70.3461 92.6983 69.8182 90.8503 67.9062 90.0823C65.8262 89.2503 64.7702 91.7303 66.4182 92.7143ZM60.4342 99.7943C61.7542 101.73 64.6581 101.138 65.0981 98.8343C65.1277 98.6855 65.122 98.5325 65.0817 98.3878C65.0414 98.2432 64.9675 98.1111 64.8662 98.0023L62.9701 95.9383C62.8001 95.752 62.5833 95.6145 62.3423 95.5401C62.1013 95.4656 61.8448 95.4569 61.5993 95.5148C61.3537 95.5727 61.1282 95.6951 60.9458 95.8695C60.7635 96.0438 60.631 96.2637 60.5622 96.5063C60.2582 97.5703 59.7622 98.8103 60.4342 99.7943Z" fill="#1C0E18"/>
<path d="M202.018 66.667C205.586 70.011 208.322 73.923 210.226 78.403C217.722 95.515 216.474 117.355 213.322 135.403C211.589 133.872 209.485 133.168 207.01 133.291C199.762 134.235 198.45 140.611 194.834 145.451C194.861 144.886 194.965 144.344 195.146 143.827C197.858 136.115 191.554 118.843 189.082 110.731C189.036 110.584 188.952 110.452 188.837 110.35C188.723 110.249 188.584 110.181 188.434 110.155L171.194 106.987L155.618 104.339C152.786 103.262 150.01 102.368 147.29 101.659C134.261 98.251 122.81 92.011 112.938 82.939C112.741 82.7577 112.509 82.6696 112.242 82.675C111.565 82.6856 110.976 82.867 110.474 83.219C101.664 86.979 93.9889 92.2163 87.4503 98.931C79.6423 106.955 75.2023 119.139 72.3383 129.499C71.0743 134.059 70.9329 138.838 71.9143 143.835C71.927 143.878 71.9219 143.925 71.9002 143.965C71.8784 144.005 71.8418 144.034 71.7983 144.047C71.7548 144.06 71.708 144.055 71.6683 144.033C71.6285 144.011 71.599 143.974 71.5863 143.931C70.3543 140.843 67.5463 134.411 63.9703 133.539C61.5756 132.536 59.2796 132.622 57.0823 133.795C55.3009 124.094 54.5623 114.395 54.8663 104.699C55.1276 104 55.6529 103.803 56.4423 104.107C56.6876 104.203 56.8289 104.123 56.8663 103.867L57.4103 100.163C58.1729 101.726 58.2743 103.427 57.7143 105.267C57.6289 105.55 57.7329 105.71 58.0263 105.747L61.1383 106.139C61.3889 106.171 61.6343 106.152 61.8743 106.083C63.2396 105.688 64.6289 105.336 66.0423 105.027C66.2599 104.975 66.4539 104.854 66.5943 104.683C67.741 103.227 69.2503 102.536 71.1223 102.611C71.3996 102.622 71.6076 102.507 71.7463 102.267C71.9143 101.987 72.3303 101.507 72.6503 101.419C76.8369 100.288 80.8716 98.7576 84.7543 96.827C84.804 96.8036 84.8596 96.7954 84.914 96.8034C84.9684 96.8113 85.0192 96.8352 85.0602 96.8719C85.1011 96.9085 85.1303 96.9565 85.1442 97.0097C85.1581 97.0629 85.1561 97.119 85.1383 97.171L84.5383 98.755C84.4849 98.899 84.5196 98.9257 84.6423 98.835C85.4263 98.267 85.9223 98.243 86.6023 97.547C94.2423 89.699 102.098 84.595 110.762 79.083C110.846 79.0291 110.945 79.0025 111.044 79.0068C111.143 79.0111 111.237 79.0461 111.314 79.107C116.85 83.523 122.672 87.523 128.778 91.107C128.992 91.235 129.218 91.2563 129.458 91.171C129.554 91.139 129.65 91.1123 129.746 91.091C130.109 91.0057 130.157 90.835 129.89 90.579C129.73 90.4296 129.576 90.2803 129.426 90.131C129.384 90.088 129.351 90.0363 129.331 89.9795C129.31 89.9227 129.303 89.8622 129.308 89.802C129.313 89.7419 129.332 89.6836 129.362 89.6313C129.392 89.579 129.433 89.5338 129.482 89.499C131.49 88.075 133.426 88.627 135.13 88.363C138.336 87.8723 141.514 87.2243 144.666 86.419C144.928 86.3497 145.152 86.2163 145.338 86.019C146.229 85.0803 147.274 84.635 148.474 84.683C150.666 84.771 151.346 84.475 153.658 83.387C155.154 82.691 156.754 82.899 158.146 82.523C160.258 81.955 162.314 81.683 164.41 80.947C167.922 79.723 172.266 79.171 175.09 78.483C179.394 77.435 181.794 76.427 186.242 77.691C186.503 77.7641 186.778 77.7613 187.034 77.683C188.629 77.187 190.226 76.7416 191.826 76.347C193.09 76.043 193.914 75.019 195.554 75.387C195.773 75.435 195.952 75.3683 196.09 75.187L196.322 74.859C196.45 74.6883 196.618 74.595 196.826 74.579C198.25 74.4723 199.25 73.7657 199.826 72.459C199.933 72.2297 200.098 72.1683 200.322 72.275C200.946 72.5683 201.597 72.6883 202.274 72.635C209.106 82.707 212.186 94.163 213.042 106.315C213.064 106.587 213.21 106.712 213.482 106.691C213.573 106.686 213.653 106.683 213.722 106.683C213.877 106.688 213.957 106.614 213.962 106.459C214.805 91.9097 210.824 78.6457 202.018 66.667Z" fill="#160B14"/>
<path d="M78.9947 74.3632C74.9867 77.1312 71.0747 79.0352 67.4107 78.8752C67.2546 78.8681 67.103 78.8202 66.9711 78.7364C66.8392 78.6526 66.7316 78.5358 66.6588 78.3975C66.586 78.2592 66.5506 78.1043 66.5562 77.9481C66.5618 77.792 66.6082 77.64 66.6907 77.5072L69.7706 72.5632C71.2693 70.4086 73.256 68.5952 75.7307 67.1232C75.8601 67.0448 76.0135 67.0146 76.164 67.038C76.3145 67.0614 76.4527 67.1368 76.5547 67.2512L80.3147 71.4992C80.4203 71.6199 80.4904 71.7681 80.5172 71.9276C80.5441 72.087 80.5266 72.2516 80.4667 72.4032C80.2053 73.0486 79.7147 73.7019 78.9947 74.3632Z" fill="#472D30"/>
<path d="M64.5783 73.1792C60.9036 78.5179 58.3516 84.4299 56.9223 90.9152C56.8316 90.8886 56.7569 90.8352 56.6983 90.7552C56.5489 90.5472 56.4769 90.5232 56.4823 90.6832C56.4823 90.7526 56.4823 90.8272 56.4823 90.9072C56.4832 90.9323 56.4777 90.9572 56.4661 90.9795C56.4545 91.0018 56.4372 91.0209 56.4159 91.0352C56.3945 91.0494 56.3697 91.0584 56.3436 91.0612C56.3175 91.064 56.2909 91.0606 56.2663 91.0512C53.0503 89.6832 52.0823 91.5313 49.7143 92.6673C44.4556 95.1793 39.0476 97.3232 33.4903 99.0992C33.1329 99.2112 32.6396 99.2779 32.0103 99.2992C31.7489 99.3046 31.5089 99.3766 31.2903 99.5153C29.4449 100.678 28.1916 100.705 27.5303 99.5953C29.3969 92.7153 31.8076 86.1286 34.7623 79.8352C35.0663 80.4166 35.477 80.8139 35.9943 81.0272C36.2503 81.1339 36.5063 81.1339 36.7623 81.0272C44.7863 77.7712 51.9783 74.5153 61.0583 72.2433C62.0743 71.9873 62.6823 72.2992 63.4343 72.9072C63.5783 73.0246 63.7169 73.0166 63.8503 72.8832L64.0263 72.7072C64.0529 72.6806 64.0849 72.6726 64.1223 72.6832C64.2823 72.7366 64.4343 72.9019 64.5783 73.1792Z" fill="#9CC49A"/>
<path d="M226.498 178.099C223.293 184.515 219.474 190.448 215.042 195.899C202.696 211.382 187.341 222.611 168.978 229.587C168.802 218.139 166.93 203.835 156.394 197.507C153.952 195.934 151.464 194.838 148.93 194.219C146.813 192.971 144.442 192.294 141.818 192.187C141.882 192.08 141.936 191.984 141.978 191.899C142.064 191.718 142.205 191.624 142.402 191.619C159.938 190.923 180.674 185.691 193.114 172.451C195.61 169.795 198.418 165.723 201.194 162.483L202.122 162.099C208.746 160.707 214.082 153.099 215.874 147.027C217.16 142.664 216.309 138.79 213.322 135.403C216.474 117.355 217.722 95.5149 210.226 78.4029L211.25 78.0909C211.48 78.0216 211.672 78.0749 211.826 78.2509C225.986 94.1629 230.602 114.907 231.522 135.675C231.994 146.339 229.858 157.619 227.082 167.683C226.645 169.278 226.376 170.691 226.274 171.923C226.122 173.931 225.466 175.147 224.722 176.843C224.642 177.031 224.625 177.24 224.676 177.439C224.727 177.637 224.841 177.813 225.002 177.939C225.424 178.259 225.922 178.312 226.498 178.099Z" fill="#4B855D"/>
<path d="M155.618 104.339C153.098 104.923 150.106 106.467 149.626 109.235C148.821 109.566 148.039 109.587 147.282 109.299C133.258 103.987 120.482 96.395 110.082 85.363C109.998 85.2719 109.945 85.1568 109.931 85.0346C109.916 84.9123 109.941 84.7892 110.002 84.683C110.301 84.1604 110.458 83.6724 110.474 83.2191C110.975 82.8671 111.565 82.6857 112.242 82.675C112.509 82.6697 112.741 82.7577 112.938 82.939C122.81 92.011 134.261 98.251 147.29 101.659C150.01 102.368 152.786 103.262 155.618 104.339Z" fill="#EF7758"/>
<path d="M110.475 83.2188C110.459 83.6721 110.301 84.1601 110.003 84.6827C109.942 84.7889 109.917 84.912 109.931 85.0343C109.946 85.1565 109.999 85.2716 110.083 85.3627C120.483 96.3947 133.259 103.987 147.283 109.299C148.04 109.587 148.821 109.565 149.627 109.235L150.739 109.675C150.899 110.107 150.893 110.579 150.723 111.091C150.637 111.347 150.659 111.595 150.787 111.835C153.067 116.003 154.883 120.483 158.483 123.811C157.496 124.307 156.741 124.232 156.219 123.587C156.161 123.513 156.118 123.43 156.093 123.34C156.068 123.251 156.062 123.158 156.075 123.067L156.115 122.779C156.157 122.453 156.024 122.341 155.715 122.443L154.299 122.907C153.973 123.013 153.832 122.896 153.875 122.555C153.949 122.048 153.768 121.699 153.331 121.507C153.032 121.373 152.883 121.469 152.883 121.795V122.139C152.884 122.304 152.832 122.466 152.734 122.6C152.637 122.733 152.498 122.832 152.34 122.88C152.182 122.929 152.012 122.925 151.856 122.869C151.7 122.814 151.566 122.709 151.475 122.571C149.64 119.84 147.056 118.219 143.723 117.707C143.467 117.669 143.384 117.773 143.475 118.019L143.707 118.635C143.829 118.976 143.733 119.056 143.419 118.875C141.875 117.979 139.419 118.323 137.715 118.067C134.539 117.587 131.723 117.771 128.723 116.035C125.731 114.307 123.187 115.523 120.035 115.499C119.8 115.499 119.616 115.595 119.483 115.787L118.979 116.523C118.797 116.779 118.552 116.896 118.243 116.875C116.275 116.747 114.472 117.243 112.835 118.363C112.584 118.533 112.312 118.589 112.019 118.531C110.296 118.168 108.899 118.659 107.827 120.003C107.656 120.221 107.576 120.467 107.587 120.739C107.651 122.381 106.811 123.517 105.067 124.147C94.6506 122.243 87.9946 126.491 85.0986 136.891C84.192 140.133 84.1973 142.824 85.1146 144.963L87.2666 146.667L87.1386 148.523C87.1289 148.653 87.0843 148.779 87.0097 148.886C86.935 148.993 86.8331 149.078 86.7146 149.131C84.688 150.021 82.7786 151.112 80.9866 152.403C79.6026 153.403 76.5226 157.475 79.7706 157.891C80.0426 157.923 80.272 158.04 80.4586 158.243C82.8266 160.733 85.6666 162.515 88.9786 163.587C89.2364 163.669 89.4576 163.842 89.6026 164.075C92.0666 168.115 96.3066 166.939 100.147 167.243C100.42 167.264 100.688 167.346 100.931 167.483C101.245 167.664 101.517 167.656 101.747 167.459C101.917 167.309 102.117 167.24 102.347 167.251C104.987 167.379 108.131 166.771 110.635 167.523C111.547 167.795 112.485 167.96 113.451 168.019C114.677 171.821 116.872 175.251 120.035 178.307C125.992 182.307 132.453 182.413 139.419 178.627C141.397 177.352 143.184 175.616 144.779 173.419C145.131 173.968 145.291 174.651 145.259 175.467C145.254 175.597 145.22 175.725 145.161 175.841C145.101 175.957 145.017 176.059 144.915 176.139C143.923 176.939 142.933 177.757 141.947 178.595C141.919 178.617 141.902 178.649 141.897 178.683C141.893 178.718 141.902 178.753 141.922 178.782C141.943 178.812 141.973 178.833 142.009 178.843C142.044 178.852 142.082 178.849 142.115 178.835C145.691 176.883 146.611 172.115 151.307 173.027C151.583 173.084 151.87 173.056 152.131 172.947C157.069 170.877 162.176 169.397 167.451 168.507C167.579 168.485 167.653 168.539 167.675 168.667L167.715 168.979C167.722 169.021 167.74 169.061 167.769 169.094C167.797 169.127 167.833 169.152 167.874 169.166C167.915 169.18 167.959 169.183 168.001 169.174C168.044 169.165 168.083 169.144 168.115 169.115C169.944 167.28 171.328 166.128 172.267 165.659C176.096 163.733 176.389 162.605 173.147 162.275C176.336 162.445 179.512 162.235 182.675 161.643C183.275 162.259 183.259 162.987 182.723 163.683C175.467 173.307 165.867 181.707 153.739 183.715C153.472 183.763 153.323 183.92 153.291 184.187C153.237 184.581 153.304 184.995 153.491 185.427L138.643 187.715C138.275 187.603 137.949 187.568 137.667 187.611L126.507 187.939C107.235 185.859 84.5786 181.707 75.5306 161.843C75.408 161.576 75.208 161.485 74.9306 161.571C71.832 162.515 68.6666 162.677 65.4346 162.059C65.056 161.808 64.6746 161.675 64.2906 161.659C63.4826 156.059 60.6106 154.547 58.2586 150.483C54.2586 143.587 57.2106 137.203 63.9706 133.539C67.5466 134.411 70.3546 140.843 71.5866 143.931C71.5994 143.974 71.6289 144.011 71.6686 144.033C71.7084 144.054 71.7551 144.059 71.7986 144.047C71.8421 144.034 71.8788 144.005 71.9005 143.965C71.9223 143.925 71.9274 143.878 71.9146 143.835C70.9333 138.837 71.0746 134.059 72.3386 129.499C75.2026 119.139 79.6426 106.955 87.4506 98.9307C93.9893 92.2161 101.664 86.9787 110.475 83.2188ZM108.419 109.867C110.093 110.032 111.792 110.099 113.515 110.067C113.76 110.061 113.973 109.979 114.155 109.819C117.059 107.275 112.883 104.699 110.459 104.147C100.995 102.003 91.9226 106.371 86.1866 113.827C85.7546 114.387 85.5733 114.864 85.6426 115.259C85.6634 115.381 85.7153 115.497 85.7933 115.594C85.8713 115.691 85.973 115.766 86.0889 115.814C86.2047 115.861 86.331 115.878 86.4558 115.863C86.5806 115.849 86.6999 115.803 86.8026 115.731C93.3573 111.069 100.563 109.115 108.419 109.867ZM61.5466 142.971C59.8586 149.611 66.7946 152.499 72.2266 152.395C72.28 152.395 72.2906 152.373 72.2586 152.331C70.9306 150.283 69.5946 147.547 68.2506 144.123C67.3066 141.731 62.7146 138.355 61.5466 142.971Z" fill="#FBB273"/>
<path d="M66.4186 92.7149C64.7706 91.7309 65.8266 89.2509 67.9066 90.0829C69.8186 90.8509 70.3466 92.6989 69.2266 94.4909C69.0826 94.7256 68.8933 94.7709 68.6586 94.6269C67.8026 94.0909 67.3146 93.2509 66.4186 92.7149Z" fill="#2D1920"/>
<path d="M56.9222 90.9148L54.8662 104.699C54.5622 114.395 55.3009 124.093 57.0822 133.795C55.3969 135.021 53.9089 136.776 52.6182 139.059C51.9222 139.203 51.6342 140.539 50.8502 140.075C50.6049 139.931 50.4822 140 50.4822 140.283V140.651C50.4822 140.843 50.3889 140.917 50.2022 140.875C49.4822 140.693 48.9622 140.92 48.6422 141.555C48.5142 141.805 48.3249 141.997 48.0742 142.131C44.4102 144.136 40.7915 146.224 37.2182 148.395C34.2902 150.171 32.8262 149.427 29.9462 152.307C29.0022 153.245 27.9809 153.579 26.8822 153.307C22.8342 135.211 23.0502 117.307 27.5302 99.5948C28.1915 100.704 29.4449 100.677 31.2902 99.5148C31.5089 99.3761 31.7489 99.3041 32.0102 99.2988C32.6395 99.2775 33.1329 99.2108 33.4902 99.0988C39.0475 97.3228 44.4555 95.1788 49.7142 92.6668C52.0822 91.5308 53.0502 89.6828 56.2662 91.0508C56.2908 91.0601 56.3174 91.0635 56.3435 91.0607C56.3696 91.0579 56.3944 91.049 56.4158 91.0347C56.4372 91.0205 56.4544 91.0014 56.466 90.979C56.4776 90.9567 56.4832 90.9319 56.4822 90.9068C56.4822 90.8268 56.4822 90.7521 56.4822 90.6828C56.4769 90.5228 56.5489 90.5468 56.6982 90.7548C56.7569 90.8348 56.8315 90.8881 56.9222 90.9148Z" fill="#83B890"/>
<path d="M65.0988 98.8349C64.6588 101.139 61.7548 101.731 60.4348 99.7949C59.7628 98.8109 60.2588 97.5709 60.5628 96.5069C60.6316 96.2642 60.7641 96.0443 60.9464 95.87C61.1288 95.6957 61.3544 95.5733 61.5999 95.5154C61.8454 95.4575 62.1019 95.4662 62.3429 95.5406C62.584 95.6151 62.8007 95.7526 62.9707 95.9389L64.8668 98.0029C64.9681 98.1116 65.042 98.2438 65.0823 98.3884C65.1226 98.5331 65.1283 98.6861 65.0988 98.8349Z" fill="#2D1920"/>
<path d="M108.418 109.867C100.562 109.115 93.357 111.07 86.8023 115.731C86.6996 115.804 86.5803 115.849 86.4555 115.864C86.3307 115.878 86.2044 115.861 86.0886 115.814C85.9727 115.767 85.871 115.691 85.793 115.594C85.7149 115.497 85.6631 115.382 85.6423 115.259C85.573 114.865 85.7543 114.387 86.1863 113.827C91.9223 106.371 100.994 102.003 110.458 104.147C112.882 104.699 117.058 107.275 114.154 109.819C113.973 109.979 113.76 110.062 113.514 110.067C111.792 110.099 110.093 110.033 108.418 109.867Z" fill="#60080C"/>
<path d="M155.618 104.339L171.194 106.987C173.994 109.024 176.471 111.768 178.626 115.219C178.723 115.379 178.766 115.567 178.749 115.754C178.731 115.941 178.654 116.117 178.528 116.256C178.402 116.395 178.235 116.49 178.05 116.527C177.866 116.563 177.675 116.539 177.506 116.459L174.578 115.011C166.122 109.347 159.834 109.707 150.738 109.675L149.626 109.235C150.106 106.467 153.098 104.923 155.618 104.339Z" fill="#490F0F"/>
<path d="M171.194 106.986L188.434 110.154C188.584 110.18 188.723 110.248 188.838 110.35C188.952 110.451 189.037 110.583 189.082 110.73C191.554 118.842 197.858 136.114 195.146 143.826C194.965 144.344 194.861 144.885 194.834 145.45L192.066 145.218C191.773 145.197 191.621 145.037 191.61 144.738C191.378 138.538 189.93 126.986 183.042 124.378C179.933 123.2 176.813 122.026 173.682 120.858C170.402 119.642 172.834 116.53 174.578 115.01L177.506 116.458C177.676 116.539 177.867 116.563 178.051 116.526C178.235 116.49 178.402 116.395 178.528 116.255C178.654 116.116 178.731 115.94 178.749 115.753C178.767 115.566 178.724 115.379 178.626 115.218C176.472 111.768 173.994 109.024 171.194 106.986Z" fill="#F98759"/>
<path d="M150.738 109.675C159.834 109.707 166.122 109.347 174.578 115.011C172.834 116.531 170.402 119.643 173.682 120.859C176.813 122.027 179.933 123.2 183.042 124.379C189.93 126.987 191.378 138.539 191.61 144.739C191.621 145.037 191.773 145.197 192.066 145.219L194.834 145.451C198.45 140.611 199.762 134.235 207.01 133.291C211.826 136.325 213.711 140.611 212.666 146.147C211.322 153.283 208.49 154.763 203.266 158.979C203.063 159.139 202.927 159.341 202.858 159.587L202.122 162.099L201.194 162.483C198.021 163 194.975 162.533 192.058 161.083C191.966 161.035 191.858 161.026 191.758 161.058C191.658 161.089 191.574 161.158 191.522 161.251C183.018 176.563 170.05 182.147 153.49 185.427C153.303 184.995 153.237 184.581 153.29 184.187C153.322 183.92 153.471 183.763 153.738 183.715C165.866 181.707 175.466 173.307 182.722 163.683C183.258 162.987 183.274 162.259 182.674 161.643L187.274 157.331C187.436 157.18 187.532 156.972 187.544 156.752C187.556 156.531 187.482 156.314 187.338 156.147C184.146 152.435 179.09 150.883 174.37 150.147C174.029 148.781 174.247 147.88 175.026 147.443C178.365 147.075 180.234 146.2 180.634 144.819C181.253 144.44 181.559 143.915 181.554 143.243C181.45 132.747 175.682 123.547 164.226 123.587C162.679 122.813 160.765 122.888 158.482 123.811C154.882 120.483 153.066 116.003 150.786 111.835C150.658 111.595 150.637 111.347 150.722 111.091C150.893 110.579 150.898 110.107 150.738 109.675ZM206.122 141.051C200.682 138.275 197.562 149.555 196.442 152.811C196.367 153.019 196.439 153.107 196.658 153.075C201.658 152.275 207.466 150.131 207.882 144.507C207.994 142.971 207.482 141.747 206.122 141.051Z" fill="#F99B63"/>
<path d="M158.482 123.811C160.765 122.888 162.679 122.813 164.226 123.587C158.199 123.976 154.498 126.669 153.122 131.667C151.618 135.731 151.09 143.139 155.138 146.035C160.338 149.755 168.746 147.947 175.026 147.443C174.247 147.88 174.029 148.781 174.37 150.147C170.522 149.763 161.666 151.323 160.626 156.243C160.57 156.521 160.618 156.809 160.762 157.051C163.066 160.947 168.738 162.315 173.146 162.275C176.389 162.605 176.095 163.733 172.266 165.659C171.327 166.128 169.943 167.28 168.114 169.115C168.082 169.144 168.043 169.165 168.001 169.174C167.959 169.183 167.915 169.18 167.874 169.166C167.833 169.152 167.796 169.127 167.768 169.094C167.74 169.061 167.721 169.022 167.714 168.979L167.674 168.667C167.653 168.539 167.578 168.485 167.45 168.507C162.175 169.397 157.069 170.877 152.13 172.947C151.869 173.056 151.582 173.084 151.306 173.027C146.61 172.115 145.69 176.883 142.114 178.835C142.081 178.85 142.044 178.852 142.008 178.843C141.973 178.833 141.942 178.812 141.922 178.782C141.901 178.753 141.892 178.718 141.897 178.684C141.901 178.649 141.919 178.618 141.946 178.595C142.933 177.757 143.922 176.939 144.914 176.139C145.017 176.059 145.101 175.957 145.16 175.841C145.22 175.725 145.253 175.597 145.258 175.467C145.29 174.651 145.13 173.968 144.778 173.419L149.066 163.851C149.205 163.531 149.125 163.456 148.826 163.627C136.954 170.163 121.778 168.843 113.61 157.531C113.513 157.398 113.378 157.299 113.222 157.245C113.067 157.192 112.899 157.187 112.741 157.231C112.583 157.276 112.442 157.367 112.337 157.493C112.232 157.62 112.168 157.775 112.154 157.939C111.893 161.357 112.325 164.717 113.45 168.019C112.485 167.96 111.546 167.795 110.634 167.523C108.13 166.771 104.986 167.379 102.346 167.251C102.117 167.24 101.917 167.309 101.746 167.459C101.517 167.656 101.245 167.664 100.93 167.483C100.688 167.346 100.42 167.264 100.146 167.243C96.3061 166.939 92.0661 168.115 89.6021 164.075C89.4571 163.842 89.2359 163.669 88.9781 163.587C85.6661 162.515 82.8261 160.733 80.4581 158.243C80.2715 158.04 80.0421 157.923 79.7701 157.891C76.5221 157.475 79.6021 153.403 80.9861 152.403C82.7781 151.112 84.6875 150.021 86.7141 149.131C86.8326 149.078 86.9346 148.993 87.0092 148.886C87.0838 148.779 87.1284 148.654 87.1381 148.523L87.2662 146.667C92.0288 147.211 96.8101 147.627 101.61 147.915C111.986 148.539 115.378 139.827 111.778 131.299C110.919 128.184 108.682 125.8 105.066 124.147C106.81 123.517 107.65 122.381 107.586 120.739C107.575 120.467 107.655 120.221 107.826 120.003C108.898 118.659 110.295 118.168 112.018 118.531C112.311 118.589 112.583 118.533 112.834 118.363C114.471 117.243 116.274 116.747 118.242 116.875C118.551 116.896 118.797 116.779 118.978 116.523L119.482 115.787C119.615 115.595 119.799 115.499 120.034 115.499C123.186 115.523 125.73 114.307 128.722 116.035C131.722 117.771 134.538 117.587 137.714 118.067C139.418 118.323 141.874 117.979 143.418 118.875C143.733 119.056 143.829 118.976 143.706 118.635L143.474 118.019C143.383 117.773 143.466 117.669 143.722 117.707C147.055 118.219 149.639 119.84 151.474 122.571C151.566 122.709 151.699 122.814 151.855 122.869C152.011 122.925 152.181 122.929 152.339 122.881C152.498 122.832 152.636 122.733 152.734 122.6C152.832 122.466 152.884 122.304 152.882 122.139V121.795C152.882 121.469 153.031 121.373 153.33 121.507C153.767 121.699 153.949 122.048 153.874 122.555C153.831 122.896 153.973 123.013 154.298 122.907L155.714 122.443C156.023 122.341 156.157 122.453 156.114 122.779L156.074 123.067C156.062 123.158 156.068 123.251 156.093 123.34C156.117 123.43 156.16 123.513 156.218 123.587C156.741 124.232 157.495 124.307 158.482 123.811ZM128.066 151.899C127.047 150.693 125.797 150.237 124.314 150.531C124.194 150.555 124.082 150.612 123.992 150.695C123.902 150.779 123.836 150.885 123.802 151.003C123.242 153.045 123.93 154.099 125.866 154.163C124.65 154.819 124.317 155.613 124.866 156.547C125.005 156.776 125.202 156.923 125.458 156.987C128.215 157.669 130.367 156.763 131.914 154.267C134.514 150.091 128.722 145.787 126.458 148.843C126.277 149.083 126.325 149.261 126.602 149.379C127.701 149.859 128.189 150.699 128.066 151.899ZM81.9141 157.779C86.5621 163.147 95.1621 162.595 100.986 159.939C103.906 158.603 106.418 154.723 103.034 152.707C98.9301 150.251 92.7621 148.827 88.1781 150.571C86.2981 151.283 79.3541 154.819 81.9141 157.779Z" fill="#FDBC79"/>
<path d="M105.066 124.147C108.682 125.8 110.919 128.184 111.778 131.299C110.445 130.435 109.21 129.555 108.074 128.659C100.258 122.499 89.8739 127.347 86.9219 136.115C86.0979 138.579 85.8259 141.923 85.1139 144.963C84.1966 142.824 84.1912 140.134 85.0979 136.891C87.9939 126.491 94.6499 122.243 105.066 124.147Z" fill="#070608"/>
<path d="M164.226 123.587C175.682 123.547 181.45 132.747 181.554 143.243C181.559 143.915 181.253 144.44 180.634 144.819C179.258 137.811 178.226 131.811 172.514 128.267C165.85 124.131 158.21 125.731 153.122 131.667C154.498 126.67 158.199 123.976 164.226 123.587Z" fill="#160B14"/>
<path d="M111.778 131.299C115.378 139.827 111.986 148.539 101.61 147.915C96.8103 147.627 92.0289 147.211 87.2663 146.667L85.1143 144.963C85.8263 141.923 86.0982 138.579 86.9222 136.115C89.8742 127.347 100.258 122.499 108.074 128.659C109.21 129.555 110.445 130.435 111.778 131.299ZM104.646 145.231C105.445 145.185 106.226 144.951 106.943 144.543C107.66 144.135 108.3 143.56 108.826 142.852C109.352 142.143 109.754 141.316 110.009 140.415C110.264 139.515 110.367 138.56 110.312 137.604C110.257 136.649 110.045 135.712 109.688 134.846C109.332 133.981 108.837 133.205 108.233 132.562C107.629 131.919 106.927 131.422 106.168 131.099C105.408 130.776 104.606 130.633 103.807 130.679C103.008 130.725 102.227 130.959 101.51 131.367C100.792 131.775 100.152 132.35 99.6262 133.058C99.1 133.766 98.698 134.594 98.4431 135.495C98.1881 136.395 98.0852 137.35 98.1403 138.306C98.1954 139.261 98.4074 140.198 98.7641 141.064C99.1209 141.929 99.6154 142.705 100.22 143.348C100.824 143.991 101.525 144.488 102.285 144.811C103.044 145.134 103.847 145.277 104.646 145.231Z" fill="#EBE1DA"/>
<path d="M180.634 144.819C180.234 146.2 178.365 147.075 175.026 147.443C168.746 147.947 160.338 149.755 155.138 146.035C151.09 143.139 151.618 135.731 153.122 131.667C158.21 125.731 165.85 124.131 172.514 128.267C178.226 131.811 179.258 137.811 180.634 144.819ZM159.944 145.627C160.763 145.68 161.586 145.536 162.367 145.204C163.148 144.872 163.872 144.358 164.496 143.691C165.121 143.024 165.634 142.218 166.007 141.318C166.38 140.418 166.605 139.442 166.669 138.446C166.799 136.435 166.267 134.463 165.19 132.965C164.113 131.467 162.578 130.566 160.925 130.459C160.106 130.406 159.283 130.55 158.501 130.882C157.72 131.214 156.997 131.728 156.372 132.395C155.748 133.062 155.235 133.868 154.862 134.768C154.489 135.668 154.264 136.644 154.199 137.64C154.069 139.651 154.601 141.623 155.679 143.121C156.756 144.619 158.29 145.52 159.944 145.627Z" fill="#EBE1DA"/>
<path d="M159.943 145.627C158.29 145.52 156.756 144.619 155.678 143.121C154.601 141.623 154.069 139.651 154.199 137.64C154.263 136.644 154.488 135.668 154.861 134.768C155.234 133.868 155.747 133.062 156.372 132.395C156.996 131.728 157.72 131.214 158.501 130.882C159.282 130.55 160.106 130.406 160.924 130.459C162.578 130.566 164.112 131.468 165.19 132.965C166.267 134.463 166.799 136.435 166.669 138.446C166.604 139.442 166.379 140.418 166.007 141.318C165.634 142.218 165.12 143.024 164.496 143.691C163.871 144.358 163.148 144.872 162.367 145.204C161.586 145.536 160.762 145.68 159.943 145.627ZM159.464 137.431C159.711 137.415 159.951 137.341 160.171 137.213C160.392 137.086 160.588 136.906 160.749 136.685C160.91 136.465 161.033 136.207 161.11 135.927C161.187 135.647 161.217 135.35 161.198 135.053C161.161 134.454 160.927 133.892 160.548 133.49C160.17 133.088 159.677 132.88 159.18 132.912C158.933 132.927 158.693 133.001 158.473 133.129C158.252 133.257 158.056 133.436 157.895 133.657C157.734 133.878 157.611 134.135 157.534 134.415C157.457 134.696 157.427 134.992 157.446 135.289C157.483 135.888 157.717 136.451 158.096 136.852C158.474 137.254 158.966 137.462 159.464 137.431Z" fill="#070608"/>
<path d="M104.646 145.23C103.847 145.276 103.044 145.134 102.285 144.811C101.525 144.488 100.824 143.99 100.22 143.347C99.6155 142.704 99.121 141.928 98.7642 141.063C98.4075 140.198 98.1955 139.261 98.1404 138.305C98.0853 137.35 98.1882 136.395 98.4432 135.494C98.6981 134.594 99.1001 133.766 99.6263 133.058C100.152 132.349 100.792 131.775 101.51 131.366C102.227 130.958 103.008 130.724 103.807 130.678C104.606 130.632 105.408 130.775 106.168 131.098C106.927 131.421 107.629 131.918 108.233 132.561C108.837 133.204 109.332 133.981 109.688 134.846C110.045 135.711 110.257 136.648 110.312 137.603C110.367 138.559 110.264 139.514 110.01 140.415C109.755 141.315 109.353 142.143 108.826 142.851C108.3 143.559 107.66 144.134 106.943 144.542C106.226 144.95 105.445 145.184 104.646 145.23ZM104.992 137.11C105.404 136.973 105.73 136.629 105.896 136.155C106.062 135.68 106.056 135.114 105.879 134.581C105.791 134.316 105.663 134.068 105.504 133.85C105.345 133.632 105.156 133.449 104.949 133.31C104.743 133.171 104.522 133.08 104.3 133.042C104.077 133.003 103.857 133.019 103.653 133.087C103.24 133.224 102.915 133.568 102.749 134.042C102.582 134.516 102.589 135.082 102.766 135.616C102.854 135.88 102.981 136.128 103.141 136.346C103.3 136.564 103.489 136.748 103.695 136.887C103.902 137.026 104.123 137.117 104.345 137.155C104.568 137.193 104.787 137.178 104.992 137.11Z" fill="#070608"/>
<path d="M63.9699 133.539C57.2099 137.203 54.258 143.587 58.258 150.483C60.61 154.547 63.482 156.059 64.29 161.659C55.41 156.304 51.5193 148.771 52.618 139.059C53.9086 136.776 55.3966 135.021 57.082 133.795C59.2793 132.621 61.5753 132.536 63.9699 133.539Z" fill="#FCE8A3"/>
<path d="M157.446 135.289C157.525 136.536 158.428 137.495 159.465 137.43C160.501 137.365 161.277 136.3 161.199 135.053C161.12 133.805 160.217 132.846 159.18 132.911C158.144 132.976 157.368 134.041 157.446 135.289Z" fill="#EBE1DA"/>
<path d="M102.766 135.616C103.135 136.727 104.132 137.396 104.991 137.11C105.851 136.824 106.248 135.692 105.878 134.581C105.509 133.47 104.512 132.801 103.653 133.087C102.793 133.373 102.396 134.505 102.766 135.616Z" fill="#EBE1DA"/>
<path d="M207.01 133.291C209.485 133.168 211.589 133.872 213.322 135.403C216.309 138.79 217.159 142.664 215.874 147.027C214.082 153.099 208.746 160.707 202.122 162.099L202.858 159.587C202.927 159.342 203.063 159.139 203.266 158.979C208.49 154.763 211.322 153.283 212.666 146.147C213.711 140.611 211.826 136.326 207.01 133.291Z" fill="#FDBD8E"/>
<path d="M52.6178 139.059C51.5192 148.771 55.4098 156.304 64.2898 161.659C64.6738 161.675 65.0552 161.808 65.4338 162.059L71.5138 170.443C71.4738 172.387 70.2258 173.323 69.7458 174.859C69.0178 177.219 68.6338 179.195 66.7938 181.091C65.4392 182.483 64.2418 184.016 63.2018 185.691C63.0566 185.924 62.8398 186.101 62.5858 186.195C61.6898 186.515 61.0312 187.117 60.6098 188.003C60.4765 188.28 60.2658 188.469 59.9778 188.571C58.2818 189.173 57.2658 190.336 56.9298 192.059C56.8882 192.274 56.8024 192.478 56.6779 192.658C56.5534 192.838 56.3928 192.991 56.2063 193.106C56.0199 193.221 55.8116 193.296 55.5946 193.326C55.3777 193.357 55.1567 193.342 54.9458 193.283C51.8205 192.403 48.5858 192.325 45.2418 193.051C36.3085 180.997 30.1885 167.749 26.8818 153.307C27.9805 153.579 29.0018 153.245 29.9458 152.307C32.8258 149.427 34.2898 150.171 37.2178 148.395C40.7912 146.224 44.4098 144.136 48.0738 142.131C48.3245 141.997 48.5138 141.805 48.6418 141.555C48.9618 140.92 49.4818 140.693 50.2018 140.875C50.3885 140.917 50.4818 140.843 50.4818 140.651V140.283C50.4818 140 50.6045 139.931 50.8498 140.075C51.6338 140.539 51.9218 139.203 52.6178 139.059Z" fill="#639F79"/>
<path d="M72.2263 152.395C66.7943 152.499 59.8583 149.611 61.5463 142.971C62.7143 138.355 67.3063 141.731 68.2503 144.123C69.5943 147.547 70.9303 150.283 72.2583 152.331C72.2903 152.373 72.2796 152.395 72.2263 152.395Z" fill="#CA6246"/>
<path d="M206.123 141.051C207.483 141.747 207.995 142.971 207.883 144.507C207.467 150.131 201.659 152.275 196.659 153.075C196.44 153.107 196.368 153.019 196.443 152.811C197.563 149.555 200.683 138.275 206.123 141.051Z" fill="#CA6246"/>
<path d="M125.866 154.163C127.818 153.688 128.551 152.934 128.066 151.899C128.188 150.699 127.7 149.859 126.602 149.379C126.324 149.262 126.276 149.083 126.458 148.843C128.722 145.787 134.514 150.091 131.914 154.267C130.367 156.763 128.215 157.67 125.458 156.987C125.202 156.923 125.004 156.776 124.866 156.547C124.316 155.614 124.65 154.819 125.866 154.163Z" fill="#FB9E50"/>
<path d="M100.986 159.939C95.1623 162.595 86.5623 163.147 81.9143 157.779C79.3543 154.819 86.2983 151.283 88.1783 150.571C92.7623 148.827 98.9303 150.251 103.034 152.707C106.418 154.723 103.906 158.603 100.986 159.939Z" fill="#F98759"/>
<path d="M174.371 150.147C179.091 150.883 184.147 152.435 187.339 156.147C187.483 156.315 187.557 156.532 187.545 156.752C187.533 156.973 187.436 157.18 187.275 157.331L182.675 161.643C179.512 162.235 176.336 162.446 173.147 162.275C168.739 162.315 163.067 160.947 160.763 157.051C160.618 156.81 160.57 156.522 160.627 156.243C161.667 151.323 170.523 149.763 174.371 150.147Z" fill="#F98759"/>
<path d="M128.066 151.898C128.551 152.933 127.818 153.688 125.866 154.162C123.93 154.098 123.242 153.045 123.802 151.002C123.836 150.885 123.902 150.778 123.992 150.695C124.082 150.612 124.193 150.555 124.314 150.53C125.796 150.237 127.047 150.693 128.066 151.898Z" fill="#FCECDE"/>
<path d="M144.778 173.419C143.183 175.616 141.397 177.352 139.418 178.627C140.351 176.536 138.975 174.68 135.29 173.059C133.706 172.36 130.919 172.189 126.93 172.547C123.831 172.819 121.533 174.739 120.034 178.307C116.871 175.251 114.677 171.821 113.45 168.019C112.325 164.717 111.893 161.357 112.154 157.939C112.168 157.775 112.232 157.62 112.337 157.493C112.442 157.367 112.583 157.275 112.741 157.231C112.899 157.187 113.067 157.192 113.222 157.245C113.377 157.299 113.513 157.398 113.61 157.531C121.778 168.843 136.954 170.163 148.826 163.627C149.125 163.456 149.205 163.531 149.066 163.851L144.778 173.419Z" fill="#60080C"/>
<path d="M201.195 162.482C198.419 165.722 195.611 169.795 193.115 172.451C180.675 185.691 159.939 190.922 142.403 191.618C142.205 191.624 142.064 191.717 141.979 191.899C141.936 191.984 141.883 192.08 141.819 192.186L139.411 192.091C139.117 192.075 138.96 191.922 138.939 191.634L138.643 187.714L153.491 185.426C170.051 182.146 183.019 176.563 191.523 161.251C191.574 161.158 191.659 161.089 191.759 161.057C191.859 161.026 191.966 161.035 192.059 161.082C194.976 162.533 198.021 163 201.195 162.482Z" fill="#070608"/>
<path d="M126.507 187.938C126.779 189.271 126.789 190.479 126.539 191.562C123.989 191.749 122.171 191.786 121.083 191.674C106.627 190.146 92.6986 186.826 80.3546 178.866C77.0586 176.455 74.1119 173.647 71.5146 170.442L65.4346 162.058C68.6666 162.677 71.8319 162.514 74.9306 161.57C75.2079 161.485 75.4079 161.575 75.5306 161.842C84.5786 181.706 107.235 185.858 126.507 187.938Z" fill="#070608"/>
<path d="M71.5142 170.443C74.1115 173.649 77.0582 176.457 80.3542 178.867L78.7782 180.099C78.5915 180.249 78.5648 180.422 78.6982 180.619L101.114 212.859L99.3222 224.331C99.2912 224.532 99.3339 224.737 99.4422 224.907C99.5382 225.046 99.5835 225.155 99.5782 225.235L98.8022 230.955C77.6022 224.227 58.4902 210.859 45.2422 193.051C48.5862 192.326 51.8208 192.403 54.9462 193.283C55.1571 193.343 55.378 193.358 55.595 193.327C55.8119 193.297 56.0202 193.222 56.2067 193.107C56.3932 192.992 56.5537 192.839 56.6782 192.659C56.8028 192.479 56.8886 192.274 56.9302 192.059C57.2662 190.337 58.2822 189.174 59.9782 188.571C60.2662 188.47 60.4768 188.281 60.6102 188.003C61.0315 187.118 61.6902 186.515 62.5862 186.195C62.8401 186.102 63.0569 185.925 63.2022 185.691C64.2422 184.017 65.4395 182.483 66.7942 181.091C68.6342 179.195 69.0182 177.219 69.7462 174.859C70.2262 173.323 71.4742 172.387 71.5142 170.443Z" fill="#53926C"/>
<path d="M139.418 178.627C132.453 182.413 125.992 182.307 120.034 178.307C121.533 174.739 123.832 172.819 126.93 172.547C130.92 172.189 133.706 172.36 135.29 173.059C138.976 174.68 140.351 176.536 139.418 178.627Z" fill="#DD4524"/>
<path d="M80.3546 178.867C92.6986 186.827 106.627 190.147 121.083 191.675C122.171 191.787 123.989 191.75 126.539 191.563C126.667 191.755 126.704 191.905 126.651 192.011L124.531 192.963C121.547 193.267 117.715 192.339 117.043 196.603C117.352 195.942 117.021 195.571 116.051 195.491L116.099 195.075C116.136 194.734 115.987 194.595 115.651 194.659C106.675 196.419 103.811 204.363 101.115 212.859L78.6986 180.619C78.5652 180.422 78.5919 180.249 78.7786 180.099L80.3546 178.867Z" fill="#4B855D"/>
<path d="M137.666 187.611C137.234 188.843 138.634 190.395 137.49 191.723C137.314 191.926 137.09 192.033 136.818 192.043L128.186 192.395C128.015 192.406 127.855 192.363 127.706 192.267C127.45 192.107 127.098 192.022 126.65 192.011C126.703 191.905 126.666 191.755 126.538 191.563C126.789 190.481 126.778 189.273 126.506 187.939L137.666 187.611Z" fill="#FB8A30"/>
<path d="M138.643 187.715L138.939 191.635C138.96 191.923 139.117 192.075 139.41 192.091L141.818 192.187C144.442 192.294 146.813 192.971 148.931 194.219C148.824 194.603 148.877 194.865 149.091 195.003L148.339 197.635C147.229 198.835 146.245 200.083 145.387 201.379C144.883 202.131 143.251 201.659 142.579 201.675C139.187 201.739 135.824 202.075 132.491 202.683C127.371 203.619 124.371 196.899 124.531 192.963L126.651 192.011C127.099 192.022 127.451 192.107 127.707 192.267C127.856 192.363 128.016 192.406 128.187 192.395L136.818 192.043C137.09 192.033 137.315 191.926 137.491 191.723C138.635 190.395 137.234 188.843 137.666 187.611C137.949 187.569 138.275 187.603 138.643 187.715Z" fill="#F99B63"/>
<path d="M124.53 192.963C124.37 196.899 127.37 203.619 132.49 202.683C135.823 202.075 139.186 201.739 142.578 201.675C143.25 201.659 144.882 202.131 145.386 201.379C146.245 200.083 147.229 198.835 148.338 197.635C144.898 204.547 139.386 209.243 131.298 209.307C123.938 208.011 119.186 203.776 117.042 196.603C117.714 192.339 121.546 193.267 124.53 192.963Z" fill="#FCB468"/>
<path d="M148.93 194.219C151.464 194.837 153.952 195.933 156.394 197.507C156.272 197.384 156.125 197.483 155.954 197.803C153.896 196.405 151.608 195.472 149.09 195.003C148.877 194.864 148.824 194.603 148.93 194.219Z" fill="#54B685"/>
<path d="M116.05 195.492C111.738 194.748 105.178 208.972 104.034 211.78C102.89 214.572 98.9224 220.828 100.666 224.372C100.693 224.532 100.664 224.718 100.578 224.932C100.533 225.048 100.45 225.146 100.343 225.209C100.236 225.273 100.11 225.299 99.9864 225.284L99.5784 225.236C99.5837 225.156 99.5384 225.046 99.4424 224.908C99.334 224.737 99.2914 224.533 99.3223 224.332L101.114 212.86C103.81 204.364 106.674 196.42 115.65 194.66C115.986 194.596 116.136 194.734 116.098 195.076L116.05 195.492Z" fill="#6DC199"/>
<path d="M149.091 195.004C151.608 195.473 153.896 196.407 155.955 197.804C158.478 199.164 160.395 200.991 161.707 203.284L159.747 202.476C159.626 202.428 159.495 202.415 159.367 202.437C159.24 202.46 159.122 202.518 159.027 202.604C156.419 204.924 151.139 204.716 146.227 205.18C146.111 205.19 145.995 205.17 145.889 205.122C145.783 205.075 145.69 205.001 145.619 204.908C145.304 204.487 144.88 204.361 144.347 204.532C144.123 204.601 143.931 204.719 143.771 204.884C140.059 208.671 135.901 210.145 131.299 209.308C139.387 209.244 144.899 204.548 148.339 197.636L149.091 195.004Z" fill="#1E8B75"/>
<path d="M116.05 195.491C117.021 195.571 117.351 195.942 117.042 196.603C119.186 203.776 123.938 208.011 131.298 209.307C135.901 210.144 140.058 208.67 143.77 204.883C143.93 204.718 144.122 204.6 144.346 204.531C144.879 204.36 145.303 204.486 145.618 204.907C145.689 205 145.782 205.074 145.888 205.121C145.994 205.169 146.111 205.189 146.226 205.179C151.138 204.715 156.418 204.923 159.026 202.603C159.121 202.517 159.239 202.459 159.367 202.436C159.494 202.414 159.625 202.427 159.746 202.475L161.706 203.283C164.853 208.302 166.701 213.742 167.25 219.603C166.706 220.163 166.354 220.963 166.194 222.003L161.802 226.403C161.731 226.475 161.638 226.521 161.537 226.533C161.437 226.545 161.335 226.523 161.249 226.47C161.163 226.417 161.097 226.337 161.062 226.242C161.028 226.147 161.026 226.043 161.058 225.947L161.162 225.643C161.178 225.594 161.176 225.541 161.157 225.492C161.138 225.444 161.103 225.404 161.058 225.379L160.834 225.243C160.658 225.136 160.562 224.979 160.546 224.771C160.13 219.291 161.082 213.323 159.77 208.067C159.736 207.924 159.651 207.798 159.531 207.714C159.411 207.629 159.264 207.592 159.118 207.609C158.972 207.625 158.837 207.695 158.739 207.805C158.641 207.914 158.586 208.056 158.586 208.203L158.122 232.547C147.423 234.958 137.143 235.998 127.282 235.667L109.41 233.443C109.318 233.432 109.234 233.388 109.172 233.32C109.11 233.253 109.075 233.166 109.074 233.075L108.65 209.875C108.645 209.64 108.525 209.512 108.29 209.491C107.306 209.395 107.69 214.291 107.706 215.339C105.749 215.35 104.455 215.787 103.826 216.651C103.49 217.115 102.927 218.243 102.138 220.035C101.562 221.339 101.658 222.923 100.666 224.371C98.9221 220.827 102.89 214.571 104.034 211.779C105.178 208.971 111.738 194.747 116.05 195.491ZM113.85 211.051C113.973 211.392 114.114 211.672 114.274 211.891C114.33 211.963 114.408 212.013 114.497 212.033C114.585 212.054 114.678 212.042 114.759 212.002C114.841 211.961 114.905 211.894 114.942 211.811C114.979 211.728 114.986 211.635 114.962 211.547L111.754 201.419C111.706 201.264 111.618 201.238 111.49 201.339C110.306 202.283 106.442 207.451 109.866 207.755C110.186 207.787 110.391 207.955 110.482 208.259C110.898 209.635 111.839 210.419 113.306 210.611C113.429 210.628 113.544 210.678 113.64 210.756C113.736 210.833 113.809 210.936 113.85 211.051Z" fill="#35A184"/>
<path d="M156.394 197.506C166.93 203.834 168.802 218.138 168.978 229.586C168.823 229.581 168.666 229.578 168.506 229.578L167.25 219.602C166.701 213.741 164.853 208.301 161.706 203.282C160.394 200.989 158.477 199.162 155.954 197.802C156.125 197.482 156.271 197.383 156.394 197.506Z" fill="#CAE4B9"/>
<path d="M113.306 210.611C111.839 210.419 110.898 209.635 110.482 208.259C110.391 207.955 110.186 207.787 109.866 207.755C106.442 207.451 110.306 202.283 111.49 201.339C111.618 201.238 111.706 201.265 111.754 201.419L114.962 211.547C114.986 211.635 114.979 211.728 114.942 211.811C114.905 211.894 114.84 211.962 114.759 212.002C114.678 212.043 114.585 212.054 114.497 212.034C114.408 212.014 114.329 211.963 114.274 211.891C114.114 211.673 113.973 211.393 113.85 211.051C113.809 210.936 113.736 210.834 113.64 210.756C113.544 210.679 113.429 210.629 113.306 210.611Z" fill="#6DC199"/>
<path d="M166.194 222.004C164.33 225.668 161.098 226.868 161.682 231.74L158.122 232.548L158.586 208.204C158.586 208.057 158.641 207.915 158.739 207.806C158.837 207.696 158.972 207.626 159.118 207.609C159.264 207.593 159.411 207.63 159.531 207.715C159.651 207.799 159.736 207.925 159.77 208.068C161.082 213.324 160.13 219.292 160.546 224.772C160.562 224.98 160.658 225.137 160.834 225.244L161.058 225.38C161.103 225.405 161.138 225.445 161.157 225.493C161.176 225.541 161.178 225.595 161.162 225.644L161.058 225.948C161.026 226.044 161.028 226.148 161.062 226.243C161.097 226.338 161.163 226.418 161.249 226.471C161.335 226.524 161.437 226.546 161.537 226.534C161.638 226.522 161.731 226.476 161.802 226.404L166.194 222.004Z" fill="#2C585D"/>
<path d="M107.707 215.34L106.315 232.516C106.293 232.809 106.141 232.919 105.859 232.844L98.8027 230.956L99.5787 225.236L99.9867 225.284C100.111 225.3 100.236 225.273 100.343 225.21C100.451 225.146 100.533 225.048 100.579 224.932C100.664 224.719 100.693 224.532 100.667 224.372C101.659 222.924 101.563 221.34 102.139 220.036C102.928 218.244 103.491 217.116 103.827 216.652C104.456 215.788 105.749 215.351 107.707 215.34Z" fill="#1E8B75"/>
<path d="M167.25 219.604L168.506 229.579L161.682 231.74C161.098 226.868 164.33 225.668 166.194 222.004C166.354 220.964 166.706 220.164 167.25 219.604Z" fill="#1F7F5B"/>
</svg>
