<svg width="256" height="256" viewBox="0 0 256 256" fill="none" xmlns="http://www.w3.org/2000/svg">
<path d="M45.4224 65.4111C37.8944 69.5391 38.1664 79.6751 46.4784 82.7631C46.7718 82.8751 46.9558 83.0805 47.0304 83.3791L48.6704 89.5871C48.7504 89.9018 48.6811 90.1791 48.4624 90.4191C44.1264 95.1791 41.7184 100.531 47.3664 105.387C47.6064 105.59 47.6144 105.803 47.3904 106.027C41.0624 112.323 45.1984 116.275 51.9344 118.515C52.1904 118.6 52.3371 118.776 52.3744 119.043C52.7264 121.675 51.5424 124.715 54.5984 125.803" stroke="#9B8F92" stroke-width="2"/>
<path d="M54.5986 125.803C48.9292 125.569 45.2279 128.057 43.4945 133.267C39.5345 145.203 47.9346 157.619 61.2145 155.803C62.6012 155.611 63.9852 155.438 65.3666 155.283C65.6386 155.257 65.8359 155.366 65.9586 155.611C75.6866 175.627 93.1745 187.979 114.679 193.051C115.068 193.142 115.289 193.217 115.343 193.275C115.759 193.739 115.655 194.067 115.031 194.259L107.879 196.427" stroke="#FCDAC9" stroke-width="2"/>
<path d="M107.878 196.428C95.857 198.188 84.5876 202.076 74.0703 208.092" stroke="#A6BBCC" stroke-width="2"/>
<path d="M74.0702 208.092L67.3502 211.348C67.2708 211.386 67.2014 211.442 67.1476 211.511C67.0939 211.581 67.0574 211.663 67.041 211.749C67.0246 211.836 67.0289 211.925 67.0534 212.009C67.078 212.094 67.1221 212.171 67.1822 212.236C101.23 248.132 163.302 251.844 196.414 211.948C196.569 211.761 196.54 211.614 196.326 211.508L190.606 208.612" stroke="#E8EEEE" stroke-width="2"/>
<path d="M190.606 208.611C179.294 202.579 167.324 198.443 154.694 196.203" stroke="#A6BBCC" stroke-width="2"/>
<path d="M154.695 196.204L143.927 192.924" stroke="#EDC8B7" stroke-width="2"/>
<path d="M143.927 192.923C165.559 188.299 184.215 175.939 193.455 155.387C193.577 155.115 193.785 155.006 194.079 155.059C195.607 155.339 197.359 155.843 198.559 155.955C206.66 156.702 212.313 153.411 215.519 146.083C218.559 139.131 217.007 127.307 207.695 125.995" stroke="#F6D1BF" stroke-width="2"/>
<path d="M207.694 125.995L209.126 119.155C209.151 119.029 209.206 118.91 209.286 118.809C209.367 118.707 209.471 118.626 209.59 118.571C216.518 115.443 213.606 109.427 211.294 104.379C211.177 104.123 211.217 103.894 211.414 103.691C216.782 98.1234 215.934 95.9155 212.414 89.7075C212.291 89.4941 212.278 89.2728 212.374 89.0435C215.755 80.8621 213.782 74.6755 206.454 70.4835C206.193 70.3341 206.065 70.1101 206.07 69.8115C206.086 69.0435 206.438 68.0115 206.486 67.5155C206.843 63.6808 205.334 60.8701 201.958 59.0835C201.848 59.0259 201.756 58.9382 201.694 58.8305C201.631 58.7229 201.601 58.5997 201.606 58.4755C201.739 55.6915 200.662 53.5128 198.374 51.9395" stroke="#9B8F92" stroke-width="2"/>
<path d="M198.374 51.9392C195.334 49.9712 191.758 51.0032 188.574 51.6832C188.51 51.6975 188.443 51.6957 188.379 51.6777C188.315 51.6598 188.257 51.6263 188.209 51.5803C188.162 51.5343 188.127 51.4773 188.106 51.4143C188.086 51.3512 188.082 51.2842 188.094 51.2192C188.825 46.9258 188.017 43.3552 185.67 40.5072C182.694 36.8912 179.782 38.0272 176.03 38.2352C175.753 38.2512 175.508 38.1685 175.294 37.9872C172.772 35.7739 169.806 34.7845 166.398 35.0192C166.062 35.0399 165.73 34.9309 165.472 34.7149C165.215 34.4989 165.051 34.1925 165.014 33.8592C164.486 29.1712 161.937 27.3552 157.366 28.4112C157.052 28.4805 156.772 28.4112 156.526 28.2032C153.865 25.9418 150.94 25.6779 147.75 27.4112C147.652 27.4643 147.542 27.4916 147.431 27.4903C147.319 27.4891 147.21 27.4595 147.113 27.4042C147.016 27.349 146.935 27.2699 146.877 27.1746C146.819 27.0792 146.787 26.9706 146.782 26.8592C146.446 18.8592 137.742 14.0112 130.662 18.1712C129.718 18.7258 128.793 19.3072 127.886 19.9152C127.614 20.0965 127.382 20.0539 127.19 19.7872C123.825 15.0992 119.753 14.5179 114.974 18.0432C114.872 18.1198 114.748 18.1612 114.62 18.1612C114.492 18.1612 114.366 18.1198 114.262 18.0432C105.646 11.7312 100.678 16.7152 98.4223 25.2992C98.3921 25.4177 98.3163 25.5195 98.2114 25.5824C98.1066 25.6453 97.9811 25.6643 97.8623 25.6352C96.0223 25.2112 94.1663 24.5792 92.3743 24.6832C86.4223 25.0405 83.417 28.3712 83.3583 34.6752C83.3573 34.7347 83.3444 34.7934 83.3204 34.8479C83.2964 34.9024 83.2618 34.9516 83.2186 34.9925C83.1754 35.0335 83.1245 35.0655 83.0688 35.0865C83.0131 35.1076 82.9538 35.1173 82.8943 35.1152C75.9423 34.9152 73.1423 39.1792 71.7263 45.2912C71.6767 45.505 71.5446 45.6906 71.3588 45.8075C71.173 45.9244 70.9485 45.9631 70.7343 45.9152C63.8943 44.3712 56.8623 43.2032 54.6783 51.9152C54.6143 52.1872 54.4383 52.3125 54.1503 52.2912C45.6063 51.6272 41.0863 57.3472 45.4223 65.4112" stroke="#A19496" stroke-width="2"/>
<path d="M198.375 51.9395C198.22 52.8035 198.593 53.4701 199.495 53.9395C199.799 54.0941 199.98 54.3421 200.039 54.6835L200.815 59.0995C200.839 59.2324 200.896 59.3569 200.98 59.4617C201.064 59.5664 201.172 59.6481 201.295 59.6995C207.623 62.3955 202.199 70.3475 207.671 72.1635C207.781 72.1857 207.878 72.2509 207.94 72.3447C208.003 72.4385 208.025 72.5531 208.003 72.6635C207.98 72.7738 207.915 72.8707 207.821 72.933C207.728 72.9953 207.613 73.0177 207.503 72.9955C205.887 72.8755 204.335 72.7715 202.663 72.9635C188.543 74.5715 175.599 69.7395 162.759 64.6595C157.927 62.7475 144.167 56.7635 139.551 58.8835C137.748 59.7101 136.455 60.0381 135.671 59.8675C128.831 58.4035 123.271 56.9155 115.303 56.9875C94.8387 57.1555 77.7827 65.5395 65.8707 82.3395C65.7214 82.5421 65.5214 82.6594 65.2707 82.6914C62.4867 83.0514 64.5907 87.2595 61.2147 88.3075C59.6307 88.7928 58.0334 88.7395 56.4227 88.1475C56.2201 88.0728 56.0254 88.0941 55.8387 88.2115C54.4307 89.1235 51.1667 90.0355 49.9667 88.2275C48.9827 86.7475 48.1427 85.8195 48.0147 83.8835C47.9934 83.6168 47.8947 83.3875 47.7187 83.1955C47.1481 82.5715 46.6841 82.1768 46.3267 82.0115C40.6067 79.3875 38.9027 73.6835 42.8787 68.7075C43.7427 67.6248 44.5907 66.5261 45.4227 65.4115" stroke="#3E262A" stroke-width="2"/>
<path d="M207.694 125.995C203.033 125.542 200.5 127.59 200.094 132.139C200.092 132.155 200.084 132.17 200.071 132.182C200.058 132.193 200.042 132.199 200.026 132.199C200.011 132.199 199.996 132.193 199.986 132.182C199.977 132.17 199.972 132.155 199.974 132.139C199.772 128.411 199.393 125.2 198.838 122.507C196.332 110.352 193.212 98.1016 189.478 85.755C189.454 85.6777 189.414 85.6059 189.362 85.544C189.31 85.482 189.246 85.4309 189.174 85.3938C189.101 85.3566 189.023 85.334 188.942 85.3274C188.861 85.3207 188.78 85.3301 188.702 85.355C185.721 86.3043 183.46 85.5363 181.918 83.051C181.858 82.9537 181.766 82.88 181.657 82.8422C181.548 82.8044 181.428 82.8047 181.318 82.843C175.206 85.003 173.014 80.203 170.694 75.907C170.636 75.7966 170.544 75.7073 170.431 75.6514C170.318 75.5955 170.189 75.5758 170.062 75.595C167.257 76.0216 164.974 75.155 163.214 72.995C162.985 72.707 162.686 72.5603 162.318 72.555L156.086 72.419C155.814 72.4136 155.556 72.3443 155.31 72.211L152.414 70.595C152.132 70.4403 151.841 70.419 151.542 70.531C147.678 72.043 143.566 73.387 140.862 70.667C138.718 68.507 135.886 65.051 133.478 68.587C127.27 77.723 115.974 72.907 107.542 71.291C107.149 71.2171 106.741 71.285 106.393 71.4827C106.044 71.6804 105.777 71.9951 105.638 72.371C102.358 81.435 94.7265 79.915 87.0705 78.419C86.7088 78.347 86.3334 78.4015 86.0072 78.5734C85.6809 78.7452 85.4236 79.024 85.2785 79.363L84.0225 82.283" stroke="#936353" stroke-width="2"/>
<path d="M84.0226 82.2832C81.9586 85.8592 77.2946 84.8032 74.2226 83.6352C73.8607 83.4942 73.4612 83.4816 73.0902 83.5995C72.7192 83.7173 72.399 83.9585 72.1826 84.2832C71.532 85.2592 70.86 86.2005 70.1666 87.1072C70.012 87.3099 69.8066 87.4165 69.5506 87.4272C68.0786 87.4912 67.2066 88.1152 66.9346 89.2992C64.652 99.1499 62.6386 111.206 60.8946 125.467C60.6066 127.825 60.4973 130.217 60.5666 132.643C60.5826 133.257 60.5186 133.265 60.3746 132.667C59.5266 129.131 57.6013 126.843 54.5986 125.803" stroke="#996C5D" stroke-width="2"/>
<path d="M137.158 146.331C133.614 151.955 128.998 151.587 125.07 146.947C125.005 146.867 124.915 146.81 124.815 146.784C124.715 146.758 124.609 146.765 124.513 146.803C124.416 146.842 124.335 146.909 124.28 146.997C124.225 147.085 124.199 147.188 124.206 147.291C124.42 151.024 126.598 153.224 130.742 153.891" stroke="#EAA482" stroke-width="2"/>
<path d="M130.838 167.643C124.134 167.681 117.201 167.198 110.038 166.195" stroke="#FCDAC9" stroke-width="2"/>
<path d="M110.039 166.196C109.676 166.052 109.324 166.019 108.983 166.099C108.306 166.27 108.076 166.689 108.295 167.355C109.335 170.534 111.604 172.558 115.103 173.427C120.719 174.825 126.1 175.494 131.247 175.436" stroke="#D17D6B" stroke-width="2"/>
<path d="M130.91 194.396L117.214 193.644C117.1 193.636 116.986 193.671 116.895 193.741C116.804 193.812 116.742 193.913 116.72 194.026C116.699 194.139 116.719 194.256 116.778 194.355C116.836 194.454 116.929 194.528 117.038 194.564L130.99 199.188" stroke="#EAA482" stroke-width="2"/>
<path d="M130.991 199.188C130.383 203.486 130.428 207.697 131.127 211.82" stroke="#F4AE8A" stroke-width="2"/>
<path d="M131.127 211.82C119.964 211.804 112.215 206.673 107.879 196.428" stroke="#A39897" stroke-width="2"/>
<path d="M143.926 192.924L130.91 194.396" stroke="#E59C77" stroke-width="2"/>
<path d="M130.911 194.396C130.377 188.022 130.489 181.702 131.247 175.436" stroke="#F4AE8A" stroke-width="2"/>
<path d="M131.246 175.435C137.846 175.251 148.486 174.827 151.494 168.099C151.985 166.995 151.854 166.089 151.102 165.379C151.045 165.327 150.973 165.296 150.896 165.29C150.819 165.284 150.742 165.304 150.678 165.347C150.598 165.401 150.553 165.465 150.542 165.539" stroke="#CB7461" stroke-width="2"/>
<path d="M150.543 165.538C150.191 165.261 149.836 165.167 149.479 165.258C143.42 166.821 137.207 167.615 130.839 167.642" stroke="#F6D1BF" stroke-width="2"/>
<path d="M130.838 167.643L130.742 153.891" stroke="#F4AE8A" stroke-width="2"/>
<path d="M130.742 153.891C134.337 153.939 136.844 152.323 138.262 149.043C138.718 147.987 138.71 146.315 137.158 146.331" stroke="#E59C77" stroke-width="2"/>
<path d="M137.158 146.331C135.582 144.019 130.414 141.659 130.43 139.267C130.58 118.904 130.67 98.0827 130.702 76.8027C130.702 75.848 130.257 75.5441 129.366 75.8907C122.95 78.3787 116.062 76.3227 109.662 74.6267C109.396 74.5521 109.158 74.6081 108.95 74.7947C102.398 80.5707 99.5025 82.7707 90.3185 82.7627C88.2225 82.7574 86.1238 82.5974 84.0225 82.2827" stroke="#F4AE8A" stroke-width="2"/>
<path d="M190.606 208.612C183.51 213.508 178.182 217.38 169.094 220.812C136.63 233.068 102.15 228.476 74.0703 208.092" stroke="#8FACBC" stroke-width="2"/>
<path d="M154.694 196.203C154.742 196.523 154.66 196.784 154.446 196.987" stroke="#948684" stroke-width="2"/>
<path d="M154.446 196.988L149.534 195.604C149.413 195.57 149.285 195.57 149.162 195.602C149.04 195.634 148.928 195.698 148.838 195.788C148.753 195.868 148.7 195.967 148.678 196.084C148.653 196.224 148.594 196.356 148.506 196.468C148.418 196.58 148.304 196.668 148.174 196.724C142.366 199.364 136.638 200.185 130.99 199.188" stroke="#E59C77" stroke-width="2"/>
<path d="M154.447 196.986C154.548 197.301 154.543 197.576 154.431 197.81C149.866 207.208 142.098 211.877 131.127 211.818" stroke="#9E8F8C" stroke-width="2"/>
<path d="M150.542 165.539C146.814 172.803 128.798 172.067 122.11 171.019C116.702 170.179 113.294 169.779 110.038 166.195" stroke="#D3A0A0" stroke-width="2"/>
<path d="M178.918 109.483C178.11 104.427 163.111 98.4909 158.695 98.0509C155.399 97.7256 153.588 99.1256 153.262 102.251C152.862 106.091 155.247 107.331 158.735 107.795C164.953 108.632 171.319 109.558 177.831 110.571C177.979 110.594 178.13 110.582 178.273 110.536C178.415 110.489 178.545 110.41 178.651 110.304C178.757 110.197 178.837 110.068 178.883 109.925C178.93 109.783 178.942 109.631 178.918 109.483Z" stroke="#825743" stroke-width="2"/>
<path d="M152.086 135.523C155.606 149.795 173.094 149.379 179.166 137.475" stroke="#F6D1BF" stroke-width="2"/>
<path d="M179.167 137.475C179.823 136.19 180.759 135.054 181.975 134.067C182.084 133.98 182.162 133.859 182.195 133.723C182.229 133.586 182.216 133.443 182.159 133.315C181.535 131.875 181.865 130.942 183.151 130.515C183.396 130.43 183.601 130.291 183.767 130.099C184.279 129.502 184.369 128.912 184.039 128.331C183.955 128.186 183.825 128.074 183.67 128.015C183.514 127.957 183.345 127.955 183.191 128.011L181.903 128.475C181.79 128.516 181.667 128.516 181.554 128.475C181.442 128.434 181.347 128.355 181.287 128.251C177.527 121.792 171.857 118.382 164.279 118.019C154.455 117.547 149.503 126.915 152.087 135.523" stroke="#785340" stroke-width="2"/>
<path d="M179.167 137.475C180.511 131.059 177.239 125.779 171.431 123.075" stroke="#807F7F" stroke-width="2"/>
<path d="M171.431 123.075L169.175 121.563C169.012 121.452 168.816 121.4 168.62 121.415C168.424 121.429 168.238 121.51 168.094 121.643C167.949 121.777 167.854 121.955 167.824 122.15C167.793 122.344 167.83 122.543 167.927 122.715C170.167 126.739 172.271 130.043 169.511 134.443C167.415 137.787 163.431 138.563 160.023 136.779C157.671 135.547 156.943 133.139 156.855 130.651C156.844 130.352 156.732 130.309 156.519 130.523L156.191 130.843C156.031 131.008 155.959 131.203 155.975 131.427L156.527 138.779" stroke="#371B11" stroke-width="2"/>
<path d="M156.526 138.779C154.214 135.539 154.838 131.627 155.278 128.067C155.291 127.95 155.26 127.832 155.191 127.737C155.122 127.642 155.02 127.576 154.905 127.552C154.79 127.528 154.67 127.548 154.569 127.607C154.468 127.667 154.393 127.762 154.358 127.875L152.086 135.523" stroke="#807F7F" stroke-width="2"/>
<path d="M171.43 123.075C174.774 127.049 175.566 131.222 173.806 135.595C170.934 142.747 161.342 145.675 156.526 138.779" stroke="#B69990" stroke-width="2"/>
<path d="M210.463 135.555C208.543 132.555 205.079 131.291 201.687 132.435C200.999 132.664 201.009 132.704 201.719 132.555C205.212 131.829 208.092 132.853 210.359 135.627C210.369 135.638 210.383 135.645 210.399 135.646C210.414 135.648 210.429 135.644 210.442 135.635C210.454 135.627 210.463 135.614 210.467 135.599C210.471 135.584 210.47 135.568 210.463 135.555Z" stroke="#E59C77" stroke-width="2"/>
<path d="M186.624 152.624C186.54 151.791 186.141 150.998 185.452 150.29C184.762 149.583 183.796 148.974 182.607 148.5C181.417 148.026 180.029 147.695 178.521 147.526C177.014 147.357 175.415 147.353 173.818 147.516C170.593 147.843 167.568 148.826 165.408 150.247C163.248 151.668 162.13 153.412 162.301 155.094C162.386 155.927 162.784 156.72 163.474 157.428C164.163 158.135 165.13 158.744 166.319 159.218C167.508 159.692 168.896 160.023 170.404 160.192C171.912 160.361 173.51 160.365 175.107 160.202C178.332 159.875 181.358 158.892 183.518 157.471C185.678 156.05 186.795 154.306 186.624 152.624Z" stroke="#E28770" stroke-width="2"/>
<path d="M102.014 107.355C107.974 106.427 106.358 96.7874 101.078 97.8274C94.8061 99.0594 84.3101 103.003 80.4141 108.627C80.3059 108.785 80.2339 108.964 80.2033 109.153C80.1726 109.341 80.1841 109.534 80.237 109.717C80.2898 109.9 80.3827 110.069 80.5088 110.211C80.6349 110.353 80.7911 110.466 80.9661 110.539C81.4781 110.758 82.2035 110.779 83.1421 110.603C89.4248 109.425 95.7155 108.342 102.014 107.355Z" stroke="#885F4E" stroke-width="2"/>
<path d="M81.4062 135.171C85.8463 150.003 105.574 151.027 108.862 134.571" stroke="#FCDAC9" stroke-width="2"/>
<path d="M108.862 134.571C111.078 113.371 87.4541 114.387 79.0781 128.043C78.7101 128.651 78.1581 128.907 77.5341 128.579C77.4217 128.519 77.2933 128.497 77.1675 128.516C77.0417 128.534 76.925 128.592 76.8343 128.681C76.7435 128.77 76.6833 128.885 76.6624 129.011C76.6416 129.136 76.6611 129.265 76.7181 129.379C77.0914 130.136 77.6834 130.616 78.4941 130.819C78.7608 130.883 78.8754 131.051 78.8381 131.323L78.4061 134.443C78.3971 134.509 78.4015 134.576 78.419 134.64C78.4366 134.704 78.4669 134.764 78.5082 134.816C78.5494 134.868 78.6007 134.91 78.6588 134.941C78.7169 134.972 78.7807 134.99 78.8461 134.995L81.4061 135.171" stroke="#7D5C4A" stroke-width="2"/>
<path d="M108.863 134.571L106.431 128.299C106.395 128.204 106.326 128.126 106.237 128.079C106.148 128.032 106.045 128.02 105.946 128.044C105.847 128.069 105.76 128.128 105.701 128.212C105.641 128.296 105.614 128.398 105.623 128.499C106.175 133.707 106.559 138.555 101.095 141.227" stroke="#807F7F" stroke-width="2"/>
<path d="M101.095 141.227C104.369 138.379 105.543 134.92 104.615 130.851C104.513 130.413 104.385 130.405 104.231 130.827C99.2067 144.347 85.4227 134.443 92.4467 123.643C92.4968 123.567 92.5254 123.48 92.5293 123.389C92.5332 123.299 92.5124 123.209 92.4691 123.129C92.4257 123.049 92.3614 122.981 92.2828 122.934C92.2043 122.886 92.1145 122.86 92.0227 122.859C91.4574 122.853 91.1587 122.549 91.1267 121.947C91.1161 121.707 90.9907 121.597 90.7507 121.619C90.3507 121.656 90.0627 121.776 89.8867 121.979" stroke="#371B11" stroke-width="2"/>
<path d="M89.8868 121.979C84.0735 124.603 81.2468 129 81.4068 135.171" stroke="#807F7F" stroke-width="2"/>
<path d="M101.094 141.227C95.3743 144.907 88.5023 140.939 86.9183 134.651C85.6863 129.787 86.7076 125.696 89.9823 122.379C90.0516 122.304 90.0623 122.224 90.0143 122.139C89.9663 122.059 89.9236 122.005 89.8863 121.979" stroke="#B69990" stroke-width="2"/>
<path d="M57.462 131.979C53.422 131.107 50.03 132.875 48.214 136.619C48.2048 136.652 48.2083 136.687 48.2239 136.716C48.2394 136.746 48.266 136.769 48.2991 136.781C48.3323 136.794 48.3698 136.795 48.4053 136.784C48.4409 136.773 48.4722 136.752 48.494 136.723C50.1953 133.24 53.0006 131.76 56.91 132.283C57.0006 132.299 57.0833 132.283 57.158 132.235L57.478 132.051C57.5313 132.019 57.526 131.995 57.462 131.979Z" stroke="#EAA482" stroke-width="2"/>
<path d="M95.1807 154.932C95.2751 153.189 94.1184 151.449 91.965 150.096C89.8116 148.743 86.8379 147.887 83.6981 147.717C82.1434 147.633 80.5948 147.719 79.1405 147.972C77.6863 148.224 76.355 148.638 75.2226 149.189C74.0902 149.74 73.1789 150.417 72.5408 151.183C71.9027 151.948 71.5501 152.787 71.5034 153.65C71.409 155.394 72.5657 157.133 74.7191 158.487C76.8725 159.84 79.8462 160.695 82.986 160.866C84.5407 160.95 86.0893 160.863 87.5436 160.61C88.9978 160.358 90.3291 159.944 91.4615 159.393C92.5939 158.842 93.5052 158.165 94.1433 157.399C94.7814 156.634 95.1339 155.796 95.1807 154.932Z" stroke="#F69C82" stroke-width="2"/>
<path d="M161.725 122.92C161.53 122.653 161.276 122.432 160.976 122.272C160.677 122.111 160.338 122.014 159.98 121.985C159.621 121.957 159.249 121.997 158.886 122.105C158.522 122.212 158.174 122.385 157.862 122.612C157.23 123.071 156.78 123.726 156.611 124.433C156.442 125.139 156.568 125.84 156.961 126.381C157.156 126.649 157.41 126.869 157.709 127.03C158.009 127.19 158.347 127.287 158.706 127.316C159.065 127.344 159.436 127.304 159.8 127.196C160.163 127.089 160.511 126.917 160.824 126.689C161.456 126.23 161.905 125.576 162.074 124.869C162.243 124.162 162.117 123.461 161.725 122.92Z" stroke="#807F7F" stroke-width="2"/>
<path d="M103.885 126.72C104.288 126.173 104.423 125.464 104.261 124.748C104.099 124.033 103.653 123.369 103.021 122.903C102.39 122.437 101.624 122.207 100.892 122.264C100.16 122.321 99.5228 122.66 99.1199 123.207C98.717 123.753 98.5816 124.463 98.7435 125.178C98.9054 125.894 99.3514 126.558 99.9832 127.024C100.615 127.49 101.381 127.72 102.113 127.663C102.845 127.605 103.482 127.266 103.885 126.72Z" stroke="#807F7F" stroke-width="2"/>
<path d="M198.375 51.9392C198.22 52.8032 198.593 53.4698 199.495 53.9392C199.799 54.0938 199.98 54.3418 200.039 54.6832L200.815 59.0992C200.839 59.2322 200.896 59.3566 200.98 59.4614C201.064 59.5661 201.172 59.6479 201.295 59.6992C207.623 62.3952 202.199 70.3472 207.671 72.1632C207.781 72.1855 207.878 72.2507 207.94 72.3444C208.003 72.4382 208.025 72.5529 208.003 72.6632C207.98 72.7735 207.915 72.8705 207.821 72.9327C207.728 72.995 207.613 73.0175 207.503 72.9952C205.887 72.8752 204.335 72.7712 202.663 72.9632C188.543 74.5712 175.599 69.7392 162.759 64.6592C157.927 62.7472 144.167 56.7632 139.551 58.8832C137.748 59.7098 136.455 60.0379 135.671 59.8672C128.831 58.4032 123.271 56.9152 115.303 56.9872C94.8387 57.1552 77.7827 65.5392 65.8707 82.3392C65.7214 82.5419 65.5214 82.6592 65.2707 82.6912C62.4867 83.0512 64.5907 87.2592 61.2147 88.3072C59.6307 88.7925 58.0334 88.7392 56.4227 88.1472C56.2201 88.0725 56.0254 88.0938 55.8387 88.2112C54.4307 89.1232 51.1667 90.0352 49.9667 88.2272C48.9827 86.7472 48.1427 85.8192 48.0147 83.8832C47.9934 83.6165 47.8947 83.3872 47.7187 83.1952C47.1481 82.5712 46.6841 82.1765 46.3267 82.0112C40.6067 79.3872 38.9027 73.6832 42.8787 68.7072C43.7427 67.6245 44.5907 66.5259 45.4227 65.4112C41.0867 57.3472 45.6067 51.6272 54.1507 52.2912C54.4387 52.3125 54.6147 52.1872 54.6787 51.9152C56.8627 43.2032 63.8947 44.3712 70.7347 45.9152C70.949 45.9631 71.1734 45.9244 71.3592 45.8075C71.5451 45.6906 71.6771 45.505 71.7267 45.2912C73.1427 39.1792 75.9427 34.9152 82.8947 35.1152C82.9542 35.1173 83.0136 35.1076 83.0693 35.0865C83.1249 35.0655 83.1759 35.0335 83.2191 34.9925C83.2623 34.9516 83.2969 34.9024 83.3209 34.8479C83.3448 34.7934 83.3577 34.7347 83.3587 34.6752C83.4174 28.3712 86.4227 25.0405 92.3747 24.6832C94.1667 24.5792 96.0227 25.2112 97.8627 25.6352C97.9815 25.6643 98.107 25.6453 98.2119 25.5824C98.3167 25.5195 98.3925 25.4177 98.4227 25.2992C100.679 16.7152 105.647 11.7312 114.263 18.0432C114.367 18.1198 114.492 18.1612 114.62 18.1612C114.749 18.1612 114.873 18.1198 114.975 18.0432C119.753 14.5179 123.825 15.0992 127.191 19.7872C127.383 20.0539 127.615 20.0965 127.887 19.9152C128.793 19.3072 129.719 18.7258 130.663 18.1712C137.743 14.0112 146.447 18.8592 146.783 26.8592C146.787 26.9706 146.82 27.0792 146.877 27.1746C146.935 27.2699 147.016 27.349 147.113 27.4042C147.21 27.4595 147.32 27.4891 147.431 27.4903C147.543 27.4916 147.653 27.4643 147.751 27.4112C150.94 25.6779 153.865 25.9418 156.527 28.2032C156.772 28.4112 157.052 28.4805 157.367 28.4112C161.937 27.3552 164.487 29.1712 165.015 33.8592C165.051 34.1925 165.215 34.4989 165.473 34.7149C165.73 34.9309 166.062 35.0399 166.399 35.0192C169.807 34.7845 172.772 35.7739 175.295 37.9872C175.508 38.1685 175.753 38.2512 176.031 38.2352C179.783 38.0272 182.695 36.8912 185.671 40.5072C188.017 43.3552 188.825 46.9258 188.095 51.2192C188.083 51.2842 188.087 51.3512 188.107 51.4143C188.127 51.4773 188.162 51.5343 188.21 51.5803C188.257 51.6263 188.316 51.6598 188.379 51.6777C188.443 51.6957 188.51 51.6975 188.575 51.6832C191.759 51.0032 195.335 49.9712 198.375 51.9392Z" fill="#442B2E"/>
<path d="M198.374 51.9395C200.662 53.5128 201.74 55.6915 201.606 58.4755C201.601 58.5997 201.632 58.7229 201.694 58.8305C201.757 58.9382 201.848 59.0259 201.958 59.0835C205.334 60.8701 206.844 63.6808 206.486 67.5155C206.438 68.0115 206.086 69.0435 206.07 69.8115C206.065 70.1101 206.193 70.3341 206.454 70.4835C213.782 74.6755 215.756 80.8621 212.374 89.0435C212.278 89.2728 212.292 89.4941 212.414 89.7075C215.934 95.9155 216.782 98.1234 211.414 103.691C211.217 103.894 211.177 104.123 211.294 104.379C213.606 109.427 216.518 115.443 209.59 118.571C209.472 118.626 209.367 118.707 209.287 118.809C209.206 118.91 209.151 119.029 209.126 119.155L207.694 125.995C203.033 125.542 200.5 127.59 200.094 132.139C200.092 132.155 200.084 132.171 200.071 132.182C200.058 132.194 200.042 132.2 200.026 132.2C200.011 132.2 199.996 132.194 199.986 132.182C199.977 132.171 199.972 132.155 199.974 132.139C199.772 128.411 199.393 125.201 198.838 122.507C196.332 110.353 193.212 98.1021 189.478 85.7555C189.454 85.6781 189.414 85.6064 189.362 85.5444C189.31 85.4825 189.246 85.4314 189.174 85.3943C189.101 85.3571 189.023 85.3345 188.942 85.3279C188.861 85.3212 188.78 85.3306 188.702 85.3555C185.721 86.3048 183.46 85.5368 181.918 83.0515C181.858 82.9541 181.766 82.8805 181.657 82.8427C181.548 82.8049 181.428 82.8052 181.318 82.8435C175.206 85.0035 173.014 80.2035 170.694 75.9075C170.636 75.7971 170.544 75.7078 170.431 75.6519C170.318 75.596 170.189 75.5762 170.062 75.5955C167.257 76.0221 164.974 75.1555 163.214 72.9955C162.985 72.7075 162.686 72.5608 162.318 72.5555L156.086 72.4195C155.814 72.4141 155.556 72.3448 155.31 72.2115L152.414 70.5955C152.132 70.4408 151.841 70.4195 151.542 70.5315C147.678 72.0435 143.566 73.3875 140.862 70.6675C138.718 68.5075 135.886 65.0515 133.478 68.5875C127.27 77.7235 115.974 72.9074 107.542 71.2914C107.149 71.2176 106.741 71.2855 106.393 71.4832C106.044 71.6808 105.777 71.9955 105.638 72.3715C102.358 81.4355 94.7264 79.9155 87.0704 78.4195C86.7088 78.3475 86.3334 78.402 86.0071 78.5739C85.6809 78.7457 85.4236 79.0245 85.2784 79.3635L84.0224 82.2835C81.9584 85.8595 77.2944 84.8035 74.2224 83.6355C73.8605 83.4945 73.461 83.4819 73.09 83.5997C72.719 83.7176 72.3988 83.9588 72.1824 84.2835C71.5318 85.2595 70.8598 86.2008 70.1664 87.1075C70.0118 87.3101 69.8064 87.4168 69.5504 87.4275C68.0784 87.4915 67.2064 88.1155 66.9344 89.2995C64.6518 99.1501 62.6384 111.206 60.8944 125.467C60.6064 127.825 60.4971 130.217 60.5664 132.643C60.5824 133.257 60.5184 133.265 60.3744 132.667C59.5264 129.131 57.6011 126.843 54.5984 125.803C51.5424 124.715 52.7264 121.675 52.3744 119.043C52.3371 118.777 52.1904 118.601 51.9344 118.515C45.1984 116.275 41.0624 112.323 47.3904 106.027C47.6144 105.803 47.6064 105.59 47.3664 105.387C41.7184 100.531 44.1264 95.1795 48.4624 90.4195C48.6811 90.1795 48.7504 89.9021 48.6704 89.5875L47.0304 83.3794C46.9558 83.0808 46.7718 82.8755 46.4784 82.7635C38.1664 79.6755 37.8944 69.5395 45.4224 65.4115C44.5904 66.5261 43.7424 67.6248 42.8784 68.7075C38.9024 73.6835 40.6064 79.3875 46.3264 82.0115C46.6838 82.1768 47.1478 82.5715 47.7184 83.1955C47.8944 83.3875 47.9931 83.6168 48.0144 83.8835C48.1424 85.8195 48.9824 86.7475 49.9664 88.2275C51.1664 90.0355 54.4304 89.1235 55.8384 88.2115C56.0251 88.0941 56.2198 88.0728 56.4224 88.1475C58.0331 88.7395 59.6304 88.7928 61.2144 88.3075C64.5904 87.2595 62.4864 83.0514 65.2704 82.6914C65.5211 82.6594 65.7211 82.5421 65.8704 82.3395C77.7824 65.5395 94.8384 57.1555 115.302 56.9875C123.27 56.9155 128.83 58.4035 135.67 59.8675C136.454 60.0381 137.748 59.7101 139.55 58.8835C144.166 56.7635 157.926 62.7475 162.758 64.6595C175.598 69.7395 188.542 74.5715 202.662 72.9635C204.334 72.7715 205.886 72.8755 207.502 72.9955C207.613 73.0177 207.727 72.9953 207.821 72.933C207.915 72.8707 207.98 72.7738 208.002 72.6635C208.025 72.5531 208.002 72.4385 207.94 72.3447C207.878 72.2509 207.781 72.1857 207.67 72.1635C202.198 70.3475 207.622 62.3955 201.294 59.6995C201.172 59.6481 201.064 59.5664 200.98 59.4617C200.896 59.3569 200.839 59.2324 200.814 59.0995L200.038 54.6835C199.98 54.3421 199.798 54.0941 199.494 53.9395C198.593 53.4701 198.22 52.8035 198.374 51.9395Z" fill="#382126"/>
<path d="M207.694 125.995C217.006 127.307 218.558 139.131 215.518 146.083C212.313 153.411 206.66 156.702 198.558 155.955C197.358 155.843 195.606 155.339 194.078 155.059C193.785 155.006 193.577 155.115 193.454 155.387C184.214 175.939 165.558 188.299 143.926 192.923L130.91 194.395C130.377 188.022 130.489 181.702 131.246 175.435C137.846 175.251 148.486 174.827 151.494 168.099C151.985 166.995 151.854 166.088 151.102 165.379C151.046 165.327 150.973 165.295 150.896 165.29C150.819 165.284 150.743 165.304 150.678 165.347C150.598 165.4 150.553 165.464 150.542 165.539C150.19 165.262 149.836 165.168 149.478 165.259C143.42 166.822 137.206 167.616 130.838 167.643L130.742 153.891C134.337 153.939 136.844 152.323 138.262 149.043C138.718 147.987 138.71 146.315 137.158 146.331C135.582 144.019 130.414 141.659 130.43 139.267C130.58 118.904 130.67 98.083 130.702 76.803C130.702 75.8483 130.257 75.5443 129.366 75.891C122.95 78.379 116.062 76.323 109.662 74.627C109.396 74.5523 109.158 74.6083 108.95 74.795C102.398 80.571 99.5025 82.771 90.3185 82.763C88.2225 82.7576 86.1238 82.5976 84.0225 82.283L85.2785 79.363C85.4236 79.024 85.6809 78.7452 86.0072 78.5734C86.3334 78.4015 86.7088 78.347 87.0705 78.419C94.7265 79.915 102.358 81.435 105.638 72.371C105.777 71.9951 106.044 71.6804 106.393 71.4827C106.741 71.285 107.149 71.2171 107.542 71.291C115.974 72.907 127.27 77.723 133.478 68.587C135.886 65.051 138.718 68.507 140.862 70.667C143.566 73.387 147.678 72.043 151.542 70.531C151.841 70.419 152.132 70.4403 152.414 70.595L155.31 72.211C155.556 72.3443 155.814 72.4136 156.086 72.419L162.318 72.555C162.686 72.5603 162.985 72.707 163.214 72.995C164.974 75.155 167.257 76.0216 170.062 75.595C170.189 75.5758 170.318 75.5955 170.431 75.6514C170.544 75.7073 170.636 75.7966 170.694 75.907C173.014 80.203 175.206 85.003 181.318 82.843C181.428 82.8047 181.548 82.8044 181.657 82.8422C181.766 82.88 181.858 82.9537 181.918 83.051C183.46 85.5363 185.721 86.3043 188.702 85.355C188.78 85.3301 188.861 85.3207 188.942 85.3274C189.023 85.334 189.101 85.3566 189.174 85.3938C189.246 85.4309 189.31 85.482 189.362 85.544C189.414 85.6059 189.454 85.6777 189.478 85.755C193.212 98.1016 196.332 110.352 198.838 122.507C199.393 125.2 199.772 128.411 199.974 132.139C199.972 132.155 199.977 132.17 199.986 132.182C199.996 132.193 200.011 132.199 200.026 132.199C200.042 132.199 200.058 132.193 200.071 132.182C200.084 132.17 200.092 132.155 200.094 132.139C200.5 127.59 203.033 125.542 207.694 125.995ZM178.918 109.483C178.11 104.427 163.11 98.491 158.694 98.051C155.398 97.7256 153.588 99.1256 153.262 102.251C152.862 106.091 155.246 107.331 158.734 107.795C164.953 108.632 171.318 109.558 177.83 110.571C177.979 110.594 178.13 110.582 178.273 110.536C178.415 110.489 178.545 110.41 178.651 110.304C178.757 110.198 178.837 110.068 178.883 109.925C178.93 109.783 178.942 109.631 178.918 109.483ZM152.086 135.523C155.606 149.795 173.094 149.379 179.166 137.475C179.822 136.19 180.758 135.054 181.974 134.067C182.084 133.98 182.162 133.859 182.195 133.722C182.228 133.586 182.216 133.443 182.158 133.315C181.534 131.875 181.865 130.942 183.15 130.515C183.396 130.43 183.601 130.291 183.766 130.099C184.278 129.502 184.369 128.912 184.038 128.331C183.955 128.185 183.824 128.074 183.669 128.015C183.514 127.957 183.345 127.955 183.19 128.011L181.902 128.475C181.79 128.516 181.666 128.515 181.554 128.474C181.441 128.434 181.347 128.354 181.286 128.251C177.526 121.792 171.857 118.382 164.278 118.019C154.454 117.547 149.502 126.915 152.086 135.523ZM210.462 135.555C208.542 132.555 205.078 131.291 201.686 132.435C200.998 132.664 201.009 132.704 201.718 132.555C205.212 131.83 208.092 132.854 210.358 135.627C210.369 135.638 210.383 135.645 210.398 135.647C210.414 135.648 210.429 135.644 210.441 135.636C210.454 135.627 210.463 135.614 210.467 135.599C210.471 135.584 210.469 135.569 210.462 135.555ZM186.624 152.624C186.539 151.791 186.141 150.998 185.452 150.29C184.762 149.583 183.795 148.974 182.606 148.5C181.417 148.026 180.029 147.695 178.521 147.526C177.013 147.357 175.415 147.353 173.818 147.516C170.593 147.843 167.567 148.826 165.407 150.247C163.248 151.668 162.13 153.412 162.301 155.094C162.386 155.927 162.784 156.72 163.473 157.428C164.163 158.135 165.129 158.744 166.319 159.218C167.508 159.692 168.896 160.023 170.404 160.192C171.912 160.361 173.51 160.365 175.107 160.202C178.332 159.875 181.358 158.892 183.517 157.471C185.677 156.05 186.795 154.306 186.624 152.624Z" fill="#EEA57F"/>
<path d="M137.159 146.331C133.615 151.955 128.999 151.587 125.071 146.947C125.005 146.867 124.915 146.81 124.815 146.784C124.715 146.758 124.609 146.765 124.513 146.803C124.417 146.841 124.335 146.909 124.28 146.997C124.225 147.085 124.199 147.187 124.207 147.291C124.42 151.024 126.599 153.224 130.743 153.891L130.839 167.643C124.135 167.68 117.201 167.197 110.039 166.195C109.676 166.051 109.324 166.019 108.983 166.099C108.305 166.269 108.076 166.688 108.295 167.355C109.335 170.533 111.604 172.557 115.103 173.427C120.719 174.824 126.1 175.493 131.247 175.435C130.489 181.701 130.377 188.021 130.911 194.395L117.215 193.643C117.1 193.635 116.986 193.67 116.895 193.74C116.804 193.811 116.742 193.912 116.721 194.025C116.699 194.138 116.719 194.255 116.778 194.354C116.836 194.453 116.929 194.527 117.039 194.563L130.991 199.187C130.383 203.485 130.428 207.696 131.127 211.819C119.964 211.803 112.215 206.672 107.879 196.427L115.031 194.259C115.655 194.067 115.759 193.739 115.343 193.275C115.289 193.216 115.068 193.141 114.679 193.051C93.1745 187.979 75.6866 175.627 65.9586 155.611C65.8359 155.365 65.6386 155.256 65.3666 155.283C63.9852 155.437 62.6012 155.611 61.2145 155.803C47.9346 157.619 39.5345 145.203 43.4945 133.267C45.2279 128.056 48.9292 125.568 54.5986 125.803C57.6012 126.843 59.5266 129.131 60.3746 132.667C60.5186 133.264 60.5826 133.256 60.5666 132.643C60.4972 130.216 60.6065 127.824 60.8945 125.467C62.6385 111.205 64.6519 99.1494 66.9346 89.2987C67.2066 88.1147 68.0785 87.4907 69.5505 87.4267C69.8065 87.4161 70.0119 87.3094 70.1666 87.1067C70.8599 86.2001 71.5319 85.2587 72.1826 84.2827C72.3989 83.9581 72.7191 83.7168 73.0901 83.599C73.4611 83.4811 73.8607 83.4938 74.2225 83.6347C77.2945 84.8027 81.9585 85.8587 84.0225 82.2827C86.1239 82.5974 88.2226 82.7574 90.3186 82.7627C99.5026 82.7707 102.399 80.5707 108.951 74.7947C109.159 74.6081 109.396 74.5521 109.663 74.6267C116.063 76.3227 122.951 78.3787 129.367 75.8907C130.257 75.5441 130.703 75.848 130.703 76.8027C130.671 98.0827 130.58 118.904 130.431 139.267C130.415 141.659 135.583 144.019 137.159 146.331ZM102.015 107.355C107.975 106.427 106.359 96.7867 101.079 97.8267C94.8065 99.0587 84.3105 103.003 80.4145 108.627C80.3063 108.784 80.2343 108.964 80.2037 109.152C80.173 109.341 80.1845 109.534 80.2374 109.717C80.2902 109.9 80.3831 110.068 80.5092 110.211C80.6353 110.353 80.7915 110.465 80.9666 110.539C81.4786 110.757 82.2039 110.779 83.1426 110.603C89.4252 109.424 95.7159 108.341 102.015 107.355ZM81.4066 135.171C85.8466 150.003 105.575 151.027 108.863 134.571C111.079 113.371 87.4545 114.387 79.0786 128.043C78.7106 128.651 78.1586 128.907 77.5346 128.579C77.4221 128.519 77.2937 128.497 77.168 128.516C77.0422 128.534 76.9255 128.592 76.8347 128.681C76.7439 128.77 76.6838 128.886 76.6629 129.011C76.642 129.136 76.6615 129.265 76.7186 129.379C77.0919 130.136 77.6839 130.616 78.4946 130.819C78.7612 130.883 78.8759 131.051 78.8385 131.323L78.4066 134.443C78.3975 134.509 78.4019 134.576 78.4195 134.64C78.437 134.704 78.4674 134.764 78.5086 134.816C78.5498 134.868 78.6011 134.91 78.6592 134.941C78.7174 134.972 78.7811 134.99 78.8466 134.995L81.4066 135.171ZM57.4626 131.979C53.4226 131.107 50.0305 132.875 48.2146 136.619C48.2054 136.652 48.2089 136.687 48.2245 136.716C48.24 136.746 48.2666 136.769 48.2997 136.781C48.3328 136.793 48.3704 136.794 48.4059 136.784C48.4415 136.773 48.4728 136.751 48.4945 136.723C50.1959 133.24 53.0012 131.76 56.9106 132.283C57.0012 132.299 57.0839 132.283 57.1586 132.235L57.4786 132.051C57.5319 132.019 57.5266 131.995 57.4626 131.979ZM95.1812 154.932C95.2756 153.188 94.1189 151.448 91.9655 150.095C89.8121 148.742 86.8384 147.886 83.6986 147.716C82.1439 147.632 80.5953 147.719 79.141 147.971C77.6868 148.224 76.3555 148.638 75.2231 149.189C74.0907 149.74 73.1794 150.417 72.5413 151.182C71.9032 151.948 71.5506 152.786 71.5039 153.65C71.4095 155.393 72.5662 157.133 74.7196 158.486C76.873 159.839 79.8467 160.695 82.9865 160.865C84.5412 160.949 86.0898 160.863 87.5441 160.61C88.9983 160.357 90.3296 159.944 91.462 159.393C92.5944 158.842 93.5057 158.164 94.1438 157.399C94.7819 156.634 95.1344 155.795 95.1812 154.932Z" fill="#F9B694"/>
<path d="M101.078 97.8274C106.358 96.7874 107.974 106.427 102.014 107.355C95.7155 108.342 89.4248 109.425 83.1421 110.603C82.2035 110.779 81.4781 110.758 80.9661 110.539C80.7911 110.466 80.6349 110.353 80.5088 110.211C80.3827 110.069 80.2898 109.9 80.237 109.717C80.1841 109.534 80.1726 109.341 80.2033 109.153C80.2339 108.964 80.3059 108.785 80.4141 108.627C84.3101 103.003 94.8061 99.0594 101.078 97.8274Z" fill="#160807"/>
<path d="M158.695 98.0509C163.111 98.4909 178.11 104.427 178.918 109.483C178.942 109.631 178.93 109.783 178.883 109.925C178.837 110.068 178.757 110.197 178.651 110.304C178.545 110.41 178.415 110.489 178.273 110.536C178.13 110.582 177.979 110.594 177.831 110.571C171.319 109.558 164.953 108.632 158.735 107.795C155.247 107.331 152.862 106.091 153.262 102.251C153.588 99.1256 155.399 97.7256 158.695 98.0509Z" fill="#160807"/>
<path d="M179.167 137.475C180.511 131.059 177.239 125.779 171.431 123.075L169.175 121.563C169.012 121.453 168.816 121.4 168.62 121.415C168.424 121.43 168.238 121.51 168.094 121.644C167.949 121.777 167.854 121.956 167.824 122.15C167.793 122.345 167.83 122.544 167.927 122.715C170.167 126.739 172.271 130.043 169.511 134.443C167.415 137.787 163.431 138.563 160.023 136.779C157.671 135.547 156.943 133.139 156.855 130.651C156.844 130.352 156.732 130.31 156.519 130.523L156.191 130.843C156.031 131.008 155.959 131.203 155.975 131.427L156.527 138.779C154.215 135.539 154.839 131.627 155.279 128.067C155.292 127.95 155.261 127.833 155.192 127.738C155.123 127.643 155.021 127.576 154.906 127.552C154.791 127.528 154.671 127.548 154.57 127.608C154.469 127.668 154.394 127.763 154.359 127.875L152.087 135.523C149.503 126.915 154.455 117.547 164.279 118.019C171.857 118.382 177.527 121.792 181.287 128.251C181.347 128.355 181.442 128.434 181.554 128.475C181.667 128.516 181.79 128.516 181.903 128.475L183.191 128.011C183.345 127.955 183.514 127.957 183.67 128.015C183.825 128.074 183.955 128.186 184.039 128.331C184.369 128.912 184.279 129.502 183.767 130.099C183.601 130.291 183.396 130.43 183.151 130.515C181.865 130.942 181.535 131.875 182.159 133.315C182.216 133.443 182.229 133.586 182.195 133.723C182.162 133.859 182.084 133.98 181.975 134.067C180.759 135.054 179.823 136.19 179.167 137.475ZM161.725 122.921C161.53 122.653 161.276 122.433 160.976 122.272C160.677 122.112 160.338 122.015 159.98 121.986C159.621 121.957 159.249 121.998 158.886 122.105C158.522 122.213 158.174 122.385 157.862 122.612C157.23 123.071 156.78 123.726 156.611 124.433C156.442 125.14 156.568 125.841 156.961 126.381C157.156 126.649 157.41 126.87 157.709 127.03C158.009 127.19 158.347 127.288 158.706 127.316C159.065 127.345 159.436 127.304 159.8 127.197C160.163 127.089 160.511 126.917 160.824 126.69C161.456 126.231 161.905 125.576 162.074 124.869C162.243 124.162 162.117 123.461 161.725 122.921Z" fill="#010100"/>
<path d="M108.862 134.571L106.43 128.299C106.395 128.204 106.326 128.125 106.237 128.079C106.148 128.032 106.044 128.019 105.945 128.044C105.847 128.068 105.76 128.128 105.7 128.211C105.641 128.295 105.613 128.397 105.622 128.499C106.174 133.707 106.558 138.555 101.094 141.227C104.369 138.379 105.542 134.92 104.614 130.851C104.513 130.413 104.385 130.405 104.23 130.827C99.2061 144.347 85.4221 134.443 92.4461 123.643C92.4962 123.567 92.5247 123.48 92.5287 123.389C92.5326 123.299 92.5118 123.209 92.4684 123.129C92.4251 123.048 92.3607 122.981 92.2822 122.934C92.2037 122.886 92.1138 122.86 92.0221 122.859C91.4568 122.853 91.1581 122.549 91.1261 121.947C91.1154 121.707 90.9901 121.597 90.7501 121.619C90.3501 121.656 90.0621 121.776 89.8861 121.979C84.0728 124.603 81.2461 129 81.4061 135.171L78.8461 134.995C78.7807 134.99 78.7169 134.972 78.6588 134.941C78.6007 134.91 78.5494 134.868 78.5082 134.816C78.4669 134.764 78.4366 134.704 78.419 134.64C78.4015 134.576 78.3971 134.509 78.4061 134.443L78.8381 131.323C78.8754 131.051 78.7608 130.883 78.4941 130.819C77.6834 130.616 77.0914 130.136 76.7181 129.379C76.6611 129.265 76.6416 129.136 76.6624 129.011C76.6833 128.885 76.7435 128.77 76.8343 128.681C76.925 128.592 77.0417 128.534 77.1675 128.516C77.2933 128.497 77.4217 128.519 77.5341 128.579C78.1581 128.907 78.7101 128.651 79.0781 128.043C87.4541 114.387 111.078 113.371 108.862 134.571ZM103.885 126.719C104.287 126.173 104.423 125.463 104.261 124.748C104.099 124.032 103.653 123.368 103.021 122.902C102.389 122.436 101.623 122.207 100.892 122.264C100.16 122.321 99.5225 122.66 99.1196 123.206C98.7167 123.753 98.5813 124.462 98.7432 125.178C98.9052 125.893 99.3511 126.557 99.983 127.023C100.615 127.489 101.381 127.719 102.113 127.662C102.844 127.605 103.482 127.266 103.885 126.719Z" fill="#010100"/>
<path d="M101.094 141.227C95.3743 144.907 88.5023 140.939 86.9183 134.651C85.6863 129.787 86.7076 125.696 89.9823 122.379C90.0516 122.304 90.0623 122.224 90.0143 122.139C89.9663 122.059 89.9236 122.005 89.8863 121.979C90.0623 121.776 90.3503 121.656 90.7503 121.619C90.9903 121.597 91.1156 121.707 91.1263 121.947C91.1583 122.549 91.4569 122.853 92.0223 122.859C92.114 122.86 92.2039 122.886 92.2824 122.934C92.3609 122.981 92.4252 123.049 92.4686 123.129C92.512 123.209 92.5328 123.299 92.5288 123.389C92.5249 123.48 92.4964 123.567 92.4463 123.643C85.4223 134.443 99.2063 144.347 104.23 130.827C104.385 130.405 104.513 130.413 104.614 130.851C105.542 134.92 104.369 138.379 101.094 141.227Z" fill="#6D3521"/>
<path d="M171.431 123.075C174.775 127.048 175.567 131.221 173.807 135.595C170.935 142.747 161.343 145.675 156.527 138.779L155.975 131.427C155.959 131.203 156.031 131.008 156.191 130.843L156.519 130.523C156.732 130.309 156.844 130.352 156.855 130.651C156.943 133.139 157.671 135.547 160.023 136.779C163.431 138.563 167.415 137.787 169.511 134.443C172.271 130.043 170.167 126.739 167.927 122.715C167.83 122.543 167.793 122.344 167.824 122.15C167.854 121.955 167.949 121.777 168.094 121.643C168.238 121.51 168.424 121.429 168.62 121.415C168.816 121.4 169.012 121.452 169.175 121.563L171.431 123.075Z" fill="#6D3521"/>
<path d="M89.8868 121.979C89.9241 122.005 89.9668 122.059 90.0148 122.139C90.0628 122.224 90.0522 122.304 89.9828 122.379C86.7082 125.696 85.6868 129.787 86.9188 134.651C88.5028 140.939 95.3748 144.907 101.095 141.227C106.559 138.555 106.175 133.707 105.623 128.499C105.614 128.397 105.641 128.295 105.701 128.211C105.76 128.128 105.847 128.068 105.946 128.044C106.045 128.019 106.148 128.032 106.237 128.078C106.327 128.125 106.395 128.204 106.431 128.299L108.863 134.571C105.575 151.027 85.8468 150.003 81.4068 135.171C81.2468 129 84.0735 124.603 89.8868 121.979Z" fill="#FEFDFE"/>
<path d="M160.824 126.69C162.139 125.734 162.542 124.047 161.724 122.921C160.906 121.795 159.177 121.657 157.861 122.612C156.546 123.568 156.143 125.256 156.961 126.381C157.779 127.507 159.508 127.645 160.824 126.69Z" fill="#FEFDFE"/>
<path d="M99.9829 127.023C101.299 127.993 103.045 127.857 103.884 126.719C104.723 125.581 104.337 123.872 103.021 122.902C101.705 121.932 99.9585 122.068 99.1195 123.206C98.2805 124.344 98.667 126.053 99.9829 127.023Z" fill="#FEFDFE"/>
<path d="M171.43 123.075C177.238 125.779 180.51 131.059 179.166 137.475C173.094 149.379 155.606 149.795 152.086 135.523L154.358 127.875C154.393 127.763 154.468 127.668 154.569 127.608C154.67 127.548 154.79 127.529 154.905 127.553C155.02 127.577 155.122 127.643 155.191 127.738C155.26 127.833 155.291 127.95 155.278 128.067C154.838 131.627 154.214 135.539 156.526 138.779C161.342 145.675 170.934 142.747 173.806 135.595C175.566 131.222 174.774 127.049 171.43 123.075Z" fill="#FEFDFE"/>
<path d="M48.214 136.619C50.03 132.875 53.422 131.107 57.462 131.979C57.526 131.995 57.5313 132.019 57.478 132.051L57.158 132.235C57.0833 132.283 57.0006 132.299 56.91 132.283C53.0006 131.76 50.1953 133.24 48.494 136.723C48.4722 136.752 48.4409 136.773 48.4053 136.784C48.3698 136.795 48.3323 136.794 48.2991 136.781C48.266 136.769 48.2394 136.746 48.2239 136.716C48.2083 136.687 48.2048 136.652 48.214 136.619Z" fill="#DB926F"/>
<path d="M201.687 132.435C205.079 131.291 208.543 132.555 210.463 135.555C210.47 135.568 210.471 135.584 210.467 135.599C210.463 135.614 210.454 135.627 210.442 135.635C210.429 135.644 210.414 135.648 210.399 135.646C210.383 135.645 210.369 135.638 210.359 135.627C208.092 132.853 205.212 131.829 201.719 132.555C201.009 132.704 200.999 132.664 201.687 132.435Z" fill="#DB926F"/>
<path d="M130.742 153.891C126.598 153.224 124.42 151.024 124.206 147.291C124.199 147.188 124.225 147.085 124.28 146.997C124.335 146.91 124.416 146.842 124.513 146.803C124.609 146.765 124.715 146.758 124.815 146.784C124.915 146.81 125.005 146.867 125.07 146.947C128.998 151.587 133.614 151.955 137.158 146.331C138.71 146.315 138.718 147.987 138.262 149.043C136.844 152.323 134.337 153.939 130.742 153.891Z" fill="#DB926F"/>
<path d="M175.106 160.202C181.823 159.52 186.979 156.127 186.623 152.624C186.268 149.12 180.534 146.833 173.818 147.516C167.101 148.198 161.945 151.591 162.301 155.094C162.656 158.598 168.39 160.885 175.106 160.202Z" fill="#D56860"/>
<path d="M82.9859 160.865C89.5242 161.219 94.984 158.563 95.1806 154.932C95.3773 151.301 90.2363 148.07 83.698 147.716C77.1597 147.362 71.7 150.019 71.5033 153.65C71.3067 157.28 76.4476 160.511 82.9859 160.865Z" fill="#F38270"/>
<path d="M150.542 165.538C146.814 172.802 128.798 172.066 122.11 171.018C116.702 170.178 113.294 169.778 110.038 166.194C117.201 167.197 124.134 167.679 130.838 167.642C137.206 167.615 143.419 166.821 149.478 165.258C149.835 165.167 150.19 165.261 150.542 165.538Z" fill="#FEFDFE"/>
<path d="M131.247 175.435C126.1 175.494 120.719 174.825 115.103 173.427C111.604 172.558 109.335 170.534 108.295 167.355C108.076 166.689 108.306 166.27 108.983 166.099C109.324 166.019 109.676 166.051 110.039 166.195C113.295 169.779 116.703 170.179 122.111 171.019C128.799 172.067 146.815 172.803 150.543 165.539C150.554 165.465 150.599 165.401 150.679 165.347C150.743 165.304 150.82 165.284 150.896 165.29C150.973 165.296 151.046 165.327 151.103 165.379C151.855 166.089 151.986 166.995 151.495 168.099C148.487 174.827 137.847 175.251 131.247 175.435Z" fill="#A84342"/>
<path d="M143.926 192.924L154.694 196.204C154.742 196.524 154.66 196.785 154.446 196.988L149.534 195.604C149.413 195.57 149.285 195.569 149.163 195.602C149.04 195.634 148.928 195.698 148.838 195.788C148.753 195.868 148.7 195.967 148.678 196.084C148.653 196.224 148.594 196.356 148.506 196.468C148.418 196.58 148.304 196.668 148.174 196.724C142.366 199.364 136.638 200.185 130.99 199.188L117.038 194.564C116.929 194.528 116.836 194.454 116.778 194.355C116.719 194.256 116.699 194.139 116.72 194.026C116.742 193.913 116.804 193.812 116.895 193.742C116.986 193.671 117.1 193.636 117.214 193.644L130.91 194.396L143.926 192.924Z" fill="#DB926F"/>
<path d="M154.447 196.988C154.548 197.303 154.543 197.577 154.431 197.812C149.865 207.209 142.097 211.879 131.127 211.82C130.428 207.697 130.383 203.487 130.991 199.188C136.639 200.185 142.367 199.364 148.175 196.724C148.305 196.668 148.419 196.58 148.507 196.468C148.595 196.356 148.654 196.224 148.679 196.084C148.7 195.967 148.753 195.868 148.839 195.788C148.929 195.698 149.041 195.634 149.163 195.602C149.285 195.57 149.414 195.57 149.535 195.604L154.447 196.988Z" fill="#EEA57F"/>
<path d="M154.694 196.203C167.324 198.443 179.294 202.579 190.606 208.611C183.51 213.507 178.182 217.379 169.094 220.811C136.63 233.067 102.15 228.475 74.0703 208.091C84.5876 202.075 95.857 198.187 107.878 196.427C112.214 206.672 119.964 211.803 131.126 211.819C142.097 211.878 149.865 207.208 154.43 197.811C154.542 197.576 154.548 197.302 154.446 196.987C154.66 196.784 154.742 196.523 154.694 196.203Z" fill="#4D7999"/>
<path d="M74.0702 208.092C102.15 228.476 136.63 233.068 169.094 220.812C178.182 217.38 183.51 213.508 190.606 208.612L196.326 211.508C196.54 211.614 196.569 211.761 196.414 211.948C163.302 251.844 101.23 248.132 67.1822 212.236C67.1221 212.171 67.078 212.094 67.0534 212.009C67.0289 211.925 67.0246 211.836 67.041 211.749C67.0574 211.663 67.0939 211.581 67.1476 211.511C67.2014 211.442 67.2708 211.386 67.3502 211.348L74.0702 208.092Z" fill="#D1DEDE"/>
</svg>
