<svg width="256" height="256" viewBox="0 0 256 256" fill="none" xmlns="http://www.w3.org/2000/svg">
<path d="M194.915 44.745C186.046 37.6624 176.437 32.1077 166.091 28.0811" stroke="#59907C" stroke-width="2"/>
<path d="M166.091 28.0805C152.304 22.7418 138.016 20.3391 123.227 20.8725" stroke="#669681" stroke-width="2"/>
<path d="M123.227 20.873C91.712 22.633 66.016 35.649 46.1387 59.921" stroke="#7DA691" stroke-width="2"/>
<path d="M212.603 194.569C232.907 167.729 239.203 131.833 230.035 99.5127" stroke="#4C8C73" stroke-width="2"/>
<path d="M230.035 99.5121C224.051 77.2775 212.344 59.0215 194.915 44.7441" stroke="#5A937F" stroke-width="2"/>
<path d="M46.1384 59.9209L40.6904 67.0249" stroke="#7CA18D" stroke-width="2"/>
<path d="M40.6909 67.0254C35.2669 75.0627 30.8989 83.7294 27.5869 93.0254" stroke="#759C88" stroke-width="2"/>
<path d="M27.5872 93.0254C25.2619 99.9001 23.6326 106.879 22.6992 113.961" stroke="#65917D" stroke-width="2"/>
<path d="M22.6983 113.961C19.9143 134.446 22.421 153.977 30.2184 172.553" stroke="#598B78" stroke-width="2"/>
<path d="M30.2188 172.553C40.9707 197.049 60.2827 217.537 85.2107 227.721" stroke="#4B846D" stroke-width="2"/>
<path d="M85.2109 227.721L86.5549 228.329" stroke="#65917D" stroke-width="2"/>
<path d="M86.5547 228.328L92.2747 230.392C92.8134 230.589 92.8987 230.45 92.5307 229.976C92.1787 229.522 92.224 229.027 92.6667 228.488C92.8114 228.312 92.888 228.09 92.8827 227.864C92.808 222.77 92.9893 217.688 93.4267 212.616C93.4373 212.488 93.5067 212.424 93.6347 212.424C93.7147 212.424 93.7973 212.427 93.8827 212.432C94.128 212.453 94.2507 212.587 94.2507 212.832V230.776C94.2507 231.021 94.3653 231.181 94.5947 231.256C107.027 235.245 119.781 236.872 132.859 236.136" stroke="#4B846D" stroke-width="2"/>
<path d="M123.226 20.873L126.186 21.041C126.485 21.0624 126.589 21.2144 126.498 21.497C125.818 23.641 124.322 25.657 123.626 27.321C122.032 31.1077 120.944 35.0517 120.362 39.1531" stroke="#B3D4AA" stroke-width="2"/>
<path d="M120.363 39.1527C112.395 36.6167 102.003 37.6167 99.2266 46.8247C99.1306 47.1554 99.224 47.6914 99.5066 48.4327C99.6186 48.7154 99.5253 48.8407 99.2266 48.8087C96.2293 48.4887 93.2373 48.1874 90.2506 47.9047C82.1626 47.1367 73.5626 51.5287 72.0986 60.1207" stroke="#8E9179" stroke-width="2"/>
<path d="M72.0984 60.1204C71.8264 60.5364 71.5224 60.7098 71.1864 60.6404C70.9304 60.5924 70.8104 60.4378 70.8264 60.1765L70.8745 59.5924C70.9065 59.1711 70.7464 59.0778 70.3944 59.3124C66.4024 62.0324 61.9864 64.9845 57.4104 66.5845C55.1304 67.3765 53.1224 68.6884 50.8264 69.1924C49.8024 69.4164 48.7758 69.6431 47.7464 69.8725C47.4691 69.9365 47.2105 69.8911 46.9705 69.7365L44.0504 67.8884C43.8211 67.7444 43.5891 67.7444 43.3544 67.8884L41.8504 68.8245C41.4878 69.0485 41.3945 68.9258 41.5705 68.4565C41.7785 67.9178 41.4851 67.4405 40.6904 67.0245" stroke="#C3DFB5" stroke-width="2"/>
<path d="M166.091 28.0811C163.99 29.8571 163.056 32.1664 163.291 35.0091C163.317 35.3027 163.268 35.5975 163.147 35.865C162.326 37.7264 161.779 39.6597 161.507 41.665C161.475 41.905 161.39 42.1264 161.251 42.3291C159.87 44.4037 160.304 46.5184 162.555 48.673" stroke="#90BE95" stroke-width="2"/>
<path d="M162.554 48.6722L154.034 48.1843C153.762 48.1683 153.546 48.0509 153.386 47.8323C150.186 43.4483 144.018 38.4883 138.938 37.5043C134.202 36.5923 131.97 39.4802 129.33 42.9122C129.176 43.1096 128.984 43.1549 128.754 43.0483L120.362 39.1523" stroke="#778169" stroke-width="2"/>
<path d="M230.034 99.5126C229.368 99.6139 228.624 99.238 227.802 98.3846C227.349 97.9206 226.922 97.238 226.522 96.3366C224.373 91.4673 221.797 87.2513 218.794 83.6886C213.546 77.4646 192.362 53.1606 183.114 55.4886C182.848 55.5579 182.698 55.7286 182.666 56.0006C182.426 58.0646 183.666 59.6566 183.914 61.2326C184.229 63.2113 184.426 65.2113 184.506 67.2326C184.513 67.3549 184.554 67.4726 184.623 67.5729C184.692 67.6731 184.787 67.752 184.898 67.8006C185.33 67.9846 191.066 68.8566 189.306 69.8806" stroke="#75B185" stroke-width="2"/>
<path d="M189.307 69.8806L183.171 68.7686" stroke="#587760" stroke-width="2"/>
<path d="M183.17 68.7692C183.501 65.4092 183.218 62.3585 182.322 59.6172" stroke="#506354" stroke-width="2"/>
<path d="M182.323 59.6168C179.163 52.6408 169.851 50.0649 162.555 48.6729" stroke="#6B7B64" stroke-width="2"/>
<path d="M182.323 59.6165L181.691 59.6245C181.621 59.6253 181.552 59.6434 181.491 59.6771C181.43 59.7108 181.378 59.7591 181.34 59.8177C181.302 59.8763 181.279 59.9433 181.273 60.0129C181.268 60.0824 181.279 60.1524 181.307 60.2165C182.085 61.9978 182.397 63.8618 182.243 65.8085C182.189 66.5018 182.083 66.5098 181.923 65.8325C179.203 54.6245 163.699 50.5205 153.707 49.6325C152.899 49.5605 152.035 48.9765 151.715 48.3525C149.499 44.0005 146.339 43.2085 141.547 42.0805C137.355 41.0885 130.595 40.2165 131.331 46.8165C131.363 47.1258 131.245 47.2058 130.979 47.0565C130.392 46.7258 129.952 46.2431 129.659 45.6085C129.554 45.3828 129.391 45.1872 129.187 45.0405C123.949 41.2751 118.061 39.6991 111.523 40.3125C107.259 40.7125 102.931 42.6565 101.443 47.0245C101.139 47.9205 101.539 49.5525 100.051 50.0165C97.1386 50.9285 93.8426 49.8965 91.6426 49.7605C81.1146 49.1285 73.7466 53.5285 72.3066 64.6165" stroke="#372628" stroke-width="2"/>
<path d="M72.3065 64.6171C71.7359 63.6358 71.6665 62.1371 72.0985 60.1211" stroke="#878C74" stroke-width="2"/>
<path d="M183.17 68.7686C180.722 68.9606 183.754 70.3526 184.498 70.4566C185.773 70.6272 187.05 70.7686 188.33 70.8806" stroke="#252224" stroke-width="2"/>
<path d="M188.33 70.8809C194.922 74.7529 194.082 82.0168 192.858 88.7128" stroke="#403434" stroke-width="2"/>
<path d="M192.858 88.7124C192.042 88.3177 191.77 89.0057 192.042 90.7764" stroke="#252224" stroke-width="2"/>
<path d="M192.043 90.7771C191.355 88.6598 191.104 86.5424 191.291 84.4251C191.331 84.0091 191.187 83.8091 190.867 83.5851C190.685 83.4571 190.579 83.2811 190.547 83.0571L189.819 77.6491C189.793 77.4671 189.717 77.2957 189.601 77.1538C189.484 77.0119 189.33 76.9048 189.157 76.8445C188.983 76.7842 188.796 76.7728 188.617 76.8117C188.437 76.8507 188.272 76.9383 188.139 77.0651C186.491 78.6598 184.536 79.3878 182.275 79.2491C182.162 79.2421 182.051 79.273 181.958 79.3368C181.865 79.4006 181.796 79.4937 181.763 79.6011C181.619 80.0438 181.291 80.3504 180.779 80.5211C179.747 80.8731 174.035 83.1771 173.523 83.8171C173.357 84.0198 173.147 84.1078 172.891 84.0811C168.491 83.6544 164.109 83.7291 159.747 84.3051C157.003 84.6651 154.275 84.0891 151.195 84.3611C144.368 84.9691 136.72 85.0624 128.251 84.6411C127.915 84.6198 127.555 84.7078 127.171 84.9051C126.931 85.0278 126.677 85.0678 126.411 85.0251C121.403 84.2091 116.48 84.4518 111.643 85.7531" stroke="#150912" stroke-width="2"/>
<path d="M111.643 85.7531C101.686 85.5931 91.5577 85.3558 81.2591 85.0411C80.0911 85.0091 79.2991 84.5931 78.8431 85.9771C74.9284 97.6785 71.8964 108.726 69.7471 119.121" stroke="#8C5634" stroke-width="2"/>
<path d="M69.7468 119.121C68.8934 123.308 68.4374 127.47 68.3788 131.609C68.3761 131.65 68.3591 131.689 68.3308 131.719C68.3024 131.749 68.2644 131.768 68.2235 131.773C68.1825 131.777 68.1412 131.768 68.1067 131.745C68.0723 131.722 68.0468 131.689 68.0348 131.649C67.8108 130.625 67.3575 128.817 66.6748 126.225C66.0721 123.953 64.9335 121.865 63.2588 119.961" stroke="#8C5B3A" stroke-width="2"/>
<path d="M63.2588 119.961C61.0668 112.724 59.6641 105.78 59.0508 99.1289" stroke="#506354" stroke-width="2"/>
<path d="M59.0508 99.1292C59.2988 95.3852 61.2668 90.2972 59.7468 87.0332" stroke="#5C6959" stroke-width="2"/>
<path d="M59.7468 87.033C58.6535 84.9156 58.1522 82.697 58.2428 80.377" stroke="#6C7464" stroke-width="2"/>
<path d="M58.2432 80.3771C58.9898 81.1878 59.3072 82.2358 59.1952 83.5211C59.1743 83.7617 59.2215 84.0029 59.3312 84.2171L61.2432 87.8011C61.3169 87.9385 61.4373 88.0451 61.5825 88.1018C61.7278 88.1585 61.8885 88.1616 62.0358 88.1106C62.1831 88.0595 62.3075 87.9577 62.3865 87.8233C62.4656 87.6889 62.4942 87.5307 62.4672 87.3771C61.7312 83.2331 60.4832 80.1131 61.6752 75.4411C63.1392 69.6811 66.7872 69.8891 71.7472 69.4171C71.8565 69.4071 71.9625 69.374 72.0581 69.3201C72.1537 69.2661 72.2368 69.1924 72.3018 69.1039C72.3668 69.0155 72.4123 68.9142 72.4353 68.8068C72.4583 68.6995 72.4583 68.5885 72.4352 68.4811C72.3125 67.9265 72.1872 67.7665 72.0592 68.0011" stroke="#372628" stroke-width="2"/>
<path d="M72.0583 68.0012C71.9303 66.3799 72.013 65.2519 72.3063 64.6172" stroke="#6C7464" stroke-width="2"/>
<path d="M212.603 194.568C198.443 212.558 180.393 225.043 158.451 232.024C158.078 232.142 157.272 232.168 156.035 232.104" stroke="#4B8971" stroke-width="2"/>
<path d="M156.035 232.104L155.363 213.064C155.358 212.909 155.299 212.883 155.187 212.984C154.843 213.28 154.843 230.352 154.747 232.376" stroke="#3E795A" stroke-width="2"/>
<path d="M154.746 232.377C154.45 233.977 135.154 235.969 132.858 236.137" stroke="#4B8971" stroke-width="2"/>
<path d="M86.5547 228.328C87.216 216.109 91.6214 205.389 99.7707 196.168C101.243 194.504 102.869 193.392 104.651 192.832" stroke="#82B78A" stroke-width="2"/>
<path d="M104.65 192.832C106.042 201.488 110.466 206.072 118.258 209.6C119.213 210.032 120.92 210.179 123.378 210.04" stroke="#5F9E6C" stroke-width="2"/>
<path d="M123.379 210.04C129.955 209.005 135.198 205.077 139.107 198.256" stroke="#B2AF71" stroke-width="2"/>
<path d="M139.106 198.257L141.034 192.041" stroke="#B2A96A" stroke-width="2"/>
<path d="M141.035 192.041C155.811 195.001 160.379 216.881 162.115 229.177C162.179 229.619 162.389 229.827 162.747 229.801C162.949 229.785 163.04 229.675 163.019 229.473C162.064 219.563 160.069 210.955 157.035 203.649C154.256 196.961 148.904 192.819 140.979 191.225" stroke="#82B78A" stroke-width="2"/>
<path d="M140.978 191.226L130.41 189.314C130.154 189.266 129.992 189.116 129.922 188.866C129.645 187.826 129.736 186.879 130.194 186.026C130.264 185.895 130.364 185.783 130.486 185.699C130.609 185.616 130.75 185.563 130.898 185.546C138.973 184.692 146.666 182.487 153.978 178.93" stroke="#B2A96A" stroke-width="2"/>
<path d="M153.979 178.929C165.669 172.918 174.133 163.622 179.371 151.041C179.402 150.962 179.46 150.897 179.535 150.856C179.609 150.815 179.695 150.801 179.779 150.817C182.76 151.329 185.547 151.049 188.139 149.977" stroke="#B1A465" stroke-width="2"/>
<path d="M188.139 149.977C198.899 145.225 208.035 126.025 191.083 121.865" stroke="#B2C98E" stroke-width="2"/>
<path d="M191.083 121.864C192.47 118.92 193.112 116.544 193.011 114.736" stroke="#3B5742" stroke-width="2"/>
<path d="M193.011 114.737C195.197 109.553 195.891 103.966 195.091 97.9769C194.675 94.8782 193.957 92.2675 192.939 90.1448C192.832 89.9155 192.869 89.7102 193.051 89.5289C195.963 86.6249 196.787 79.8409 196.011 76.6729C195.205 73.4035 192.971 71.1395 189.307 69.8809" stroke="#4A7054" stroke-width="2"/>
<path d="M96.819 201.386C93.299 203.842 93.2509 208.626 96.8829 211.322C96.9893 211.401 97.1129 211.454 97.2436 211.476C97.3743 211.498 97.5084 211.489 97.6349 211.45C99.6296 210.831 101.144 209.612 102.179 207.794C102.307 207.58 102.347 207.351 102.299 207.106C101.755 204.346 99.651 202.666 97.355 201.362C97.1736 201.255 96.995 201.263 96.819 201.386Z" stroke="#75B185" stroke-width="2"/>
<path d="M72.0592 68.0011C63.2325 67.4198 58.6272 71.5451 58.2432 80.3771" stroke="#878C74" stroke-width="2"/>
<path d="M59.7469 87.0331L59.1149 87.2011C58.9069 87.2544 58.7336 87.1984 58.5949 87.0331L56.4509 84.4811C56.3515 84.365 56.2111 84.2919 56.059 84.277C55.9069 84.2621 55.755 84.3065 55.6349 84.4011C54.8456 85.0198 54.3043 85.8171 54.0109 86.7931C53.9983 86.8349 53.9711 86.8708 53.9344 86.8944C53.8977 86.918 53.8538 86.9278 53.8105 86.9221C53.7673 86.9163 53.7274 86.8953 53.6982 86.8629C53.669 86.8305 53.6522 86.7887 53.6509 86.7451V86.4091C53.6534 86.3621 53.6385 86.3158 53.6091 86.2791C53.5797 86.2423 53.5378 86.2177 53.4914 86.2098C53.445 86.2019 53.3973 86.2113 53.3574 86.2363C53.3175 86.2612 53.2882 86.2999 53.275 86.3451C52.7256 87.9344 51.6723 89.0304 50.1149 89.6331C50.0551 89.6579 49.989 89.6634 49.9259 89.649C49.8627 89.6345 49.8057 89.6008 49.7626 89.5524C49.7195 89.504 49.6925 89.4435 49.6854 89.3791C49.6783 89.3147 49.6914 89.2497 49.7229 89.1931L52.3069 84.4651C52.3429 84.3988 52.3566 84.3228 52.346 84.2482C52.3355 84.1735 52.3013 84.1043 52.2485 84.0505C52.1956 83.9968 52.1269 83.9614 52.0525 83.9496C51.978 83.9379 51.9018 83.9503 51.8349 83.9851L37.0029 91.5611C36.913 91.6071 36.8121 91.6271 36.7115 91.619C36.6108 91.6109 36.5144 91.575 36.4331 91.5152C36.3517 91.4554 36.2885 91.3742 36.2507 91.2805C36.2129 91.1869 36.2019 91.0846 36.2189 90.9851C36.3149 90.4358 36.3016 89.8464 36.1789 89.2171C36.1705 89.1756 36.1537 89.1362 36.1296 89.1014C36.1054 89.0665 36.0745 89.037 36.0385 89.0146C36.0026 88.9921 35.9624 88.9772 35.9206 88.9708C35.8787 88.9643 35.8359 88.9665 35.7949 88.9771C34.2323 89.3611 32.6856 89.3051 31.1549 88.8091C30.8776 88.7238 30.6616 88.8011 30.5069 89.0411C29.6909 90.2998 29.2589 91.6651 29.2109 93.1371C29.2061 93.2812 29.1504 93.424 29.0545 93.5388C28.9586 93.6537 28.829 93.7327 28.6898 93.7611C28.5506 93.7896 28.4114 93.7654 28.2983 93.6933C28.1851 93.6211 28.1057 93.5059 28.075 93.3691C28.0643 93.3211 27.9016 93.2064 27.5869 93.0251" stroke="#ACCFA5" stroke-width="2"/>
<path d="M193.011 114.736C194.158 105.984 193.835 97.9977 192.043 90.7764" stroke="#1E1D1D" stroke-width="2"/>
<path d="M192.858 88.7128C194.677 85.9715 195.391 82.6142 195.002 78.6408C194.522 73.6702 192.298 71.0835 188.33 70.8809" stroke="#49483F" stroke-width="2"/>
<path d="M191.083 121.865C191.403 121.737 191.379 121.921 191.011 122.417" stroke="#857657" stroke-width="2"/>
<path d="M191.011 122.417C186.531 124.553 185.147 128.409 183.091 132.353C182.813 132.892 182.672 132.86 182.667 132.257C182.579 117.465 180.427 102.601 178.067 88.0249C178.052 87.9266 178.003 87.8367 177.928 87.7708C177.853 87.705 177.758 87.6675 177.659 87.6649L111.643 85.7529" stroke="#85512E" stroke-width="2"/>
<path d="M59.0512 99.1289L59.0432 100.329C59.0432 100.388 59.0166 100.404 58.9632 100.377L58.6752 100.217C58.5472 100.153 58.4379 100.177 58.3472 100.289C57.3499 101.548 56.8139 102.993 56.7392 104.625C56.6112 107.425 52.0432 112.617 50.1232 114.833C49.9366 115.046 49.7499 115.049 49.5632 114.841C47.7712 112.841 46.6619 110.769 46.2352 108.625C45.8459 106.673 45.4352 104.726 45.0032 102.785C44.9552 102.582 44.8726 102.396 44.7552 102.225C44.3926 101.681 44.1179 101.55 43.9312 101.833C43.8032 102.03 43.6245 102.097 43.3952 102.033C41.0432 101.369 39.4752 103.817 37.2512 105.065C36.4672 105.508 35.6326 106.145 34.7472 106.977C32.4512 109.153 29.6992 109.777 27.4032 111.689C26.1126 112.756 24.7712 113.772 23.3792 114.737C23.1179 114.918 22.9446 114.857 22.8592 114.553L22.6992 113.961" stroke="#90BE95" stroke-width="2"/>
<path d="M191.011 122.417L191.843 123.273C192.035 123.47 192.264 123.593 192.531 123.641C197.555 124.529 199.027 131.465 198.139 135.497C197.675 137.598 196.741 139.942 195.339 142.529C193.744 145.473 191.344 147.956 188.139 149.977" stroke="#FCC37A" stroke-width="2"/>
<path d="M153.978 178.929C153.792 177.399 154.371 176.367 155.715 175.833C155.832 175.788 155.931 175.703 155.995 175.595C156.059 175.486 156.084 175.358 156.067 175.233C155.675 172.529 157.259 172.361 158.651 170.881C162.037 167.276 164.114 162.937 164.882 157.865" stroke="#FCA356" stroke-width="2"/>
<path d="M164.882 157.865C165.762 157.364 166.872 156.604 168.21 155.585C173.714 151.409 162.666 147.825 160.49 147.297" stroke="#F48343" stroke-width="2"/>
<path d="M160.491 147.297C159.984 146.423 160.219 145.641 161.195 144.953" stroke="#FCA95C" stroke-width="2"/>
<path d="M161.194 144.953C165.114 144.558 167.386 143.094 168.01 140.561" stroke="#F3C095" stroke-width="2"/>
<path d="M168.01 140.561C172.65 128.833 158.354 115.529 147.066 122.345" stroke="#81522C" stroke-width="2"/>
<path d="M147.066 122.344L146.69 119.272" stroke="#FCA95C" stroke-width="2"/>
<path d="M146.69 119.273C151.954 116.905 157.186 116.529 162.386 118.145C164.586 118.825 171.386 123.769 173.21 121.577C173.503 121.227 173.672 120.791 173.692 120.336C173.712 119.881 173.582 119.431 173.322 119.057C167.685 110.881 160.05 107.713 150.418 109.553" stroke="#81522C" stroke-width="2"/>
<path d="M150.419 109.553L149.067 109.177C148.81 109.105 148.594 108.938 148.467 108.713C148.003 107.913 147.32 107.382 146.419 107.121C146.387 107.116 146.36 107.124 146.338 107.145C146.28 107.193 146.24 107.257 146.219 107.337C146.192 107.46 146.125 107.486 146.019 107.417C142.723 105.057 139.171 103.001 134.923 102.953C126.227 102.865 119.77 102.649 112.154 104.969C110.21 105.561 108.138 106.929 105.858 107.665C105.357 107.825 104.992 108.174 104.763 108.713C104.651 108.974 104.453 109.092 104.171 109.065L100.354 108.713" stroke="#FCA356" stroke-width="2"/>
<path d="M100.355 108.713C90.0399 105.822 81.9839 108.465 76.1865 116.641" stroke="#81522C" stroke-width="2"/>
<path d="M76.1871 116.641C75.2271 117.153 74.8564 117.857 75.0751 118.753C75.1284 118.982 75.0804 119.187 74.9311 119.369L72.4831 122.313C72.3124 122.515 72.1844 122.491 72.0991 122.241C71.6404 120.961 70.8564 119.921 69.7471 119.121" stroke="#FCA356" stroke-width="2"/>
<path d="M192.266 136.056C195.634 128.912 186.802 126.768 184.562 134.864C183.794 137.659 182.962 140.456 182.066 143.256C182.045 143.318 182.043 143.384 182.06 143.447C182.077 143.51 182.112 143.566 182.161 143.609C182.209 143.652 182.27 143.679 182.334 143.688C182.399 143.696 182.464 143.685 182.522 143.656C183.258 143.31 183.904 142.822 184.458 142.192C184.634 141.99 184.848 141.846 185.098 141.76C188.65 140.555 191.04 138.654 192.266 136.056Z" stroke="#F48343" stroke-width="2"/>
<path d="M63.2581 119.961C62.7408 119.806 62.3754 119.825 62.1621 120.017" stroke="#C0B076" stroke-width="2"/>
<path d="M62.1622 120.016C55.1942 115.568 50.5462 125.44 51.1062 130.92C51.7035 136.792 54.5941 141.542 59.7781 145.168" stroke="#C0D09A" stroke-width="2"/>
<path d="M59.7787 145.169C58.7787 148.297 66.2667 153.777 61.1867 156.273C60.8774 156.428 60.6667 156.34 60.5547 156.009C60.3734 155.454 60.4267 154.921 60.7147 154.409C60.7908 154.271 60.8153 154.109 60.784 153.954C60.7526 153.798 60.6674 153.659 60.5437 153.562C60.4201 153.464 60.2661 153.415 60.1096 153.422C59.9532 153.429 59.8046 153.492 59.6907 153.601C58.0267 155.153 56.1254 156.23 53.9867 156.833C53.7627 156.897 53.6134 157.036 53.5387 157.249L52.7627 159.409C52.7201 159.532 52.6417 159.64 52.5377 159.718C52.4337 159.796 52.3087 159.842 52.1787 159.849C50.7067 159.929 46.0987 159.857 45.4267 161.201C45.2987 161.452 45.1014 161.62 44.8347 161.705C43.112 162.228 42.2427 163.409 42.2267 165.249C42.224 165.392 42.186 165.532 42.1162 165.656C42.0463 165.781 41.9469 165.885 41.8267 165.961C40.9787 166.494 40.1147 166.998 39.2347 167.473C36.1227 169.153 36.5787 167.633 35.5467 171.537C35.469 171.821 35.2932 172.068 35.0507 172.233L33.1228 173.513C32.8934 173.668 32.6507 173.686 32.3947 173.569L30.2188 172.553" stroke="#75B185" stroke-width="2"/>
<path d="M150.418 109.553C146.568 110.513 143.784 112.406 142.066 115.233C141.162 116.713 140.938 118.833 142.794 119.585" stroke="#825732" stroke-width="2"/>
<path d="M142.795 119.585C142.203 120.07 141.685 120.748 141.243 121.617C140.163 123.705 135.179 122.513 132.867 123.497C132.626 123.602 132.364 123.64 132.107 123.609C123.707 122.713 117.587 126.017 110.123 129.113C109.083 129.545 107.923 130.462 106.643 131.865" stroke="#FCAE62" stroke-width="2"/>
<path d="M106.643 131.865C106.339 130.58 105.995 129.804 105.611 129.537" stroke="#F4C59B" stroke-width="2"/>
<path d="M105.611 129.536C105.717 128.411 105.341 127.224 104.483 125.976C99.1626 118.208 90.3786 117.432 83.7066 123.616C80.0746 126.968 76.5226 133.792 79.1466 138.752" stroke="#825732" stroke-width="2"/>
<path d="M79.1465 138.753C79.6212 139.457 79.8932 140.585 79.9625 142.137" stroke="#F4C59B" stroke-width="2"/>
<path d="M79.9626 142.137C79.3332 142.35 79.2105 143.137 79.5945 144.497C79.703 144.883 79.6576 145.296 79.468 145.649C79.2783 146.001 78.9593 146.265 78.5785 146.385C76.1092 147.163 74.0239 148.534 72.3226 150.497C72.0826 150.763 72.0612 151.049 72.2586 151.353L74.1146 154.169C74.2906 154.435 74.5199 154.499 74.8025 154.361C75.8425 153.854 76.7812 154.03 77.6186 154.889C79.3839 156.686 81.4105 158.113 83.6985 159.169C84.3012 159.451 84.9226 159.787 85.5626 160.177C87.3146 161.265 88.4825 161.385 90.0505 162.857C93.2665 165.865 98.2826 170.313 102.907 171.393C103.029 171.422 103.157 171.42 103.278 171.387C103.4 171.353 103.512 171.289 103.603 171.201C104.227 170.587 104.939 170.355 105.739 170.505C105.984 170.553 106.227 170.545 106.467 170.481L108.011 170.065" stroke="#FCAE62" stroke-width="2"/>
<path d="M108.011 170.064C109.211 174.646 111.632 178.675 115.275 182.152" stroke="#AE5834" stroke-width="2"/>
<path d="M115.275 182.154C121.238 184.9 127.275 184.799 133.387 181.85" stroke="#E6703F" stroke-width="2"/>
<path d="M133.387 181.849C135.072 182.1 136.789 181.644 138.539 180.481C139.525 179.831 139.888 178.876 139.627 177.617C139.568 177.329 139.672 177.129 139.939 177.017C141.955 176.175 143.573 174.857 144.795 173.065C144.843 172.996 144.907 172.975 144.987 173.001C145.093 173.039 145.184 173.073 145.259 173.105C145.365 173.153 145.456 173.129 145.531 173.033C149.995 167.193 152.267 162.465 159.691 159.809C159.756 159.782 159.81 159.732 159.843 159.669C159.875 159.606 159.885 159.533 159.87 159.464C159.854 159.395 159.815 159.333 159.759 159.289C159.703 159.246 159.634 159.223 159.563 159.225C159.147 159.263 158.995 159.169 159.107 158.945" stroke="#FCAE62" stroke-width="2"/>
<path d="M159.106 158.945L164.882 157.865" stroke="#F58848" stroke-width="2"/>
<path d="M140.979 191.225C141.085 191.657 141.104 191.929 141.035 192.041" stroke="#CCB67B" stroke-width="2"/>
<path d="M139.107 198.257C137.451 195.457 133.371 195.673 130.795 193.473C130.566 193.276 130.451 193.329 130.451 193.633V194.201C130.451 194.425 130.347 194.494 130.139 194.409C127.792 193.481 125.374 193.233 122.883 193.665C122.859 193.667 122.834 193.66 122.815 193.646C122.796 193.631 122.783 193.609 122.779 193.585L122.739 193.385C122.707 193.193 122.595 193.089 122.403 193.073C117.395 192.705 116.027 197.473 110.779 197.233C110.571 197.222 110.379 197.161 110.203 197.049L108.747 196.105C108.486 195.934 108.302 195.996 108.195 196.289C107.88 197.164 107.99 197.969 108.523 198.705C108.72 198.972 108.654 199.132 108.323 199.185L107.459 199.321" stroke="#FCAE62" stroke-width="2"/>
<path d="M107.459 199.32C106.179 196.851 105.813 194.48 106.363 192.208C106.389 192.112 106.355 192.051 106.259 192.024C106.189 192.008 106.12 192 106.051 192" stroke="#A99D5D" stroke-width="2"/>
<path d="M106.051 192C106.237 191.787 106.299 191.502 106.235 191.145" stroke="#CCB67B" stroke-width="2"/>
<path d="M106.235 191.145C109.499 190.035 112.941 189.502 116.563 189.545C116.877 189.55 117.029 189.393 117.019 189.073L116.915 186.625C116.904 186.353 116.771 186.174 116.515 186.089C112.125 184.622 107.64 183.625 103.059 183.097C102.797 183.07 102.573 182.966 102.387 182.785C101.563 182.017 100.299 182.137 99.4106 181.769C95.5013 180.137 92.4506 178.747 90.2586 177.6C81.6266 173.08 72.9146 159.889 70.0186 150.537C69.5386 148.993 68.5546 148.369 67.3226 147.513C67.0986 147.358 66.8532 147.275 66.5866 147.265C64.4319 147.163 62.4506 146.651 60.6426 145.729" stroke="#B2A96A" stroke-width="2"/>
<path d="M60.6429 145.729C60.7336 145.526 60.7736 145.337 60.7629 145.161C60.7416 144.771 60.7069 144.555 60.6589 144.513C53.1469 138.241 50.2749 126.593 59.9069 120.577C60.1096 120.449 60.3335 120.398 60.5789 120.425C61.2509 120.51 61.7789 120.374 62.1629 120.017" stroke="#FCC87F" stroke-width="2"/>
<path d="M76.1868 116.641C75.9948 119.121 77.5708 120.193 79.4188 119.209C89.5948 113.777 94.3708 115.617 104.099 118.849C109.099 120.505 108.755 115.081 106.267 112.809C104.581 111.268 102.611 109.902 100.355 108.713" stroke="#825732" stroke-width="2"/>
<path d="M58.7065 129.729C58.3225 135.785 62.4425 138.481 67.4905 140.473C67.7571 140.579 67.8505 140.494 67.7705 140.217C66.2025 134.969 64.8265 131.182 63.6425 128.857C62.5785 126.777 58.9145 126.585 58.7065 129.729Z" stroke="#F58848" stroke-width="2"/>
<path d="M146.691 119.272L142.795 119.584" stroke="#825D38" stroke-width="2"/>
<path d="M60.6433 145.729C60.1846 145.548 59.8966 145.361 59.7793 145.169" stroke="#B2C98E" stroke-width="2"/>
<path d="M147.067 122.345C143.846 124.318 141.784 127.233 140.883 131.089" stroke="#825D38" stroke-width="2"/>
<path d="M140.882 131.089C139.752 133.75 139.688 136.708 140.69 139.961C141.97 144.121 144.858 145.833 149.066 145.657C153.141 145.486 157.184 145.252 161.194 144.953" stroke="#F4CBA1" stroke-width="2"/>
<path d="M160.491 147.297C154.224 145.82 149.427 147.412 146.099 152.073C145.879 152.376 145.769 152.745 145.785 153.121C145.801 153.496 145.942 153.857 146.187 154.145C149.312 157.809 153.619 159.409 159.107 158.945" stroke="#F58E4F" stroke-width="2"/>
<path d="M133.387 181.848L137.339 177.984" stroke="#E67645" stroke-width="2"/>
<path d="M137.338 177.986C140.805 173.223 142.178 167.82 141.458 161.778C141.416 161.431 141.277 161.388 141.042 161.65C139.242 163.626 136.154 163.714 133.45 163.738C126.906 163.807 120.376 163.703 113.858 163.426C111.544 163.324 109.09 162.402 106.498 160.658C106.28 160.508 106.194 160.564 106.242 160.826L108.01 170.066" stroke="#AE5E3A" stroke-width="2"/>
<path d="M79.9629 142.137C85.7762 144.537 92.0509 145.431 98.7869 144.817C102.675 144.465 105.094 142.465 106.043 138.817C106.662 136.428 106.862 134.111 106.643 131.865" stroke="#F4CBA1" stroke-width="2"/>
<path d="M99.7229 152.486C99.7215 151.7 99.443 150.922 98.9034 150.197C98.3638 149.472 97.5736 148.814 96.5779 148.26C95.5823 147.706 94.4006 147.267 93.1004 146.969C91.8003 146.67 90.4071 146.518 89.0003 146.521C87.5936 146.523 86.201 146.68 84.9019 146.983C83.6027 147.286 82.4226 147.729 81.4289 148.286C80.4352 148.844 79.6473 149.505 79.1102 150.232C78.5732 150.959 78.2975 151.737 78.2988 152.523C78.3002 153.309 78.5787 154.087 79.1183 154.812C79.6579 155.537 80.448 156.195 81.4437 156.749C82.4394 157.303 83.621 157.742 84.9212 158.04C86.2214 158.339 87.6146 158.491 89.0213 158.489C90.428 158.486 91.8207 158.329 93.1198 158.026C94.4189 157.723 95.599 157.28 96.5928 156.723C97.5865 156.165 98.3744 155.504 98.9114 154.777C99.4485 154.05 99.7242 153.272 99.7229 152.486Z" stroke="#F58E4F" stroke-width="2"/>
<path d="M118.106 147.625C116.917 147.86 116.458 148.844 116.73 150.577C116.773 150.844 116.93 150.988 117.202 151.009C119.13 151.145 120.346 151.457 120.138 148.961" stroke="#FCCE86" stroke-width="2"/>
<path d="M120.139 148.961C122.011 150.838 121.123 151.987 117.475 152.409C117.123 152.451 116.95 152.649 116.955 153.001L116.971 154.953C116.971 155.294 117.131 155.518 117.451 155.625C120.251 156.579 122.523 155.841 124.267 153.409C127.171 149.369 122.011 145.353 118.107 147.625" stroke="#F58F47" stroke-width="2"/>
<path d="M120.138 148.961L118.106 147.625" stroke="#F5A965" stroke-width="2"/>
<path d="M105.61 129.537C99.4425 125.961 94.8905 120.329 87.4265 124.769C82.1625 127.899 79.4025 132.561 79.1465 138.753" stroke="#797471" stroke-width="2"/>
<path d="M168.011 140.561C167.702 132.683 164.232 127.473 157.603 124.929C151.811 122.705 145.259 126.937 140.883 131.089" stroke="#797471" stroke-width="2"/>
<path d="M96.2294 143.338C97.9354 143.562 99.6858 142.909 101.096 141.523C102.505 140.136 103.459 138.129 103.747 135.944C104.035 133.758 103.633 131.573 102.63 129.868C101.627 128.164 100.105 127.081 98.3993 126.856C96.6933 126.631 94.9429 127.284 93.5331 128.671C92.1233 130.057 91.1696 132.064 90.8819 134.25C90.5942 136.436 90.9959 138.621 91.9987 140.325C93.0016 142.029 94.5234 143.113 96.2294 143.338Z" stroke="#797471" stroke-width="2"/>
<path d="M147.667 144.032C153.739 145.28 156.131 137.064 154.963 132.4C153.667 127.184 146.731 125.96 144.251 130.216C141.827 134.384 141.147 142.696 147.667 144.032Z" stroke="#797471" stroke-width="2"/>
<path d="M96.2427 133.248L97.6187 133.72C97.7878 133.779 97.9684 133.796 98.1456 133.77C98.3228 133.744 98.4913 133.676 98.637 133.571C98.7827 133.466 98.9014 133.327 98.9831 133.167C99.0648 133.006 99.1072 132.829 99.1067 132.648C99.1014 131.411 98.6107 130.59 97.6347 130.184C97.352 130.067 97.08 130.086 96.8187 130.24C95.88 130.79 95.5094 131.584 95.7067 132.624C95.7335 132.765 95.797 132.897 95.891 133.007C95.985 133.116 96.1063 133.2 96.2427 133.248Z" stroke="#797471" stroke-width="2"/>
<path d="M145.931 133.921L148.147 134.105C148.225 134.112 148.303 134.103 148.377 134.079C148.452 134.055 148.521 134.017 148.58 133.966C148.64 133.916 148.688 133.854 148.724 133.784C148.759 133.715 148.781 133.639 148.787 133.561L148.843 132.921C148.86 132.717 148.841 132.512 148.788 132.317C148.734 132.123 148.646 131.943 148.529 131.787C148.413 131.632 148.27 131.505 148.108 131.412C147.946 131.32 147.769 131.264 147.587 131.249L146.963 131.193C146.78 131.177 146.596 131.202 146.421 131.266C146.246 131.33 146.083 131.432 145.942 131.566C145.801 131.699 145.684 131.863 145.598 132.046C145.513 132.229 145.46 132.428 145.443 132.633L145.387 133.281C145.38 133.359 145.389 133.437 145.413 133.511C145.437 133.586 145.475 133.655 145.526 133.714C145.576 133.774 145.638 133.823 145.708 133.858C145.777 133.894 145.853 133.915 145.931 133.921Z" stroke="#797471" stroke-width="2"/>
<path d="M98.1656 132.781C98.2172 132.721 98.2531 132.649 98.2713 132.569C98.2895 132.488 98.2896 132.401 98.2716 132.311C98.2536 132.222 98.2179 132.133 98.1664 132.048C98.115 131.964 98.0489 131.886 97.9719 131.819C97.8949 131.753 97.8084 131.698 97.7175 131.659C97.6266 131.621 97.533 131.598 97.442 131.593C97.3511 131.588 97.2646 131.6 97.1874 131.63C97.1103 131.659 97.0441 131.705 96.9925 131.765C96.9409 131.824 96.9049 131.896 96.8868 131.977C96.8686 132.058 96.8685 132.145 96.8865 132.234C96.9045 132.324 96.9402 132.413 96.9916 132.497C97.043 132.582 97.1091 132.66 97.1861 132.726C97.2632 132.793 97.3496 132.847 97.4405 132.886C97.5314 132.925 97.625 132.948 97.716 132.953C97.8069 132.958 97.8935 132.945 97.9706 132.916C98.0477 132.886 98.114 132.841 98.1656 132.781Z" stroke="#C4D3BA" stroke-width="2"/>
<path d="M106.235 191.145C103.947 191.481 101.547 193.408 100.035 193.256C99.7682 193.23 99.5256 193.296 99.3069 193.456C89.5229 200.68 85.8989 215.985 85.2109 227.721" stroke="#82B78A" stroke-width="2"/>
<path d="M137.339 177.984C128.833 174.496 121.478 175.885 115.275 182.152" stroke="#982017" stroke-width="2"/>
<path d="M114.682 164.952C114.418 168.544 128.618 169.096 131.018 168.76C133.066 168.472 134.733 167.411 136.018 165.576C136.086 165.48 136.126 165.367 136.133 165.25C136.141 165.133 136.116 165.016 136.062 164.911C136.007 164.807 135.925 164.72 135.824 164.66C135.723 164.599 135.608 164.568 135.49 164.568L115.082 164.584C114.832 164.584 114.698 164.707 114.682 164.952Z" stroke="#AE7A75" stroke-width="2"/>
<path d="M106.05 192L104.65 192.832" stroke="#79AB7D" stroke-width="2"/>
<path d="M107.459 199.32C110.574 205.091 115.88 208.664 123.379 210.04" stroke="#A9A364" stroke-width="2"/>
<path d="M154.747 232.377C155.371 232.516 155.8 232.425 156.035 232.105" stroke="#225852" stroke-width="2"/>
<path d="M123.226 20.873L126.186 21.041C126.485 21.0624 126.589 21.2144 126.498 21.497C125.818 23.641 124.322 25.657 123.626 27.321C122.032 31.1077 120.944 35.0517 120.362 39.1531C112.394 36.6171 102.002 37.617 99.2264 46.825C99.1304 47.1557 99.2238 47.6917 99.5064 48.4331C99.6184 48.7157 99.5251 48.8411 99.2264 48.8091C96.2291 48.4891 93.2371 48.1877 90.2504 47.9051C82.1624 47.1371 73.5624 51.529 72.0984 60.121C71.8264 60.537 71.5224 60.7104 71.1864 60.641C70.9304 60.593 70.8104 60.4384 70.8264 60.177L70.8745 59.593C70.9065 59.1717 70.7464 59.0784 70.3944 59.313C66.4024 62.033 61.9864 64.9851 57.4104 66.5851C55.1304 67.3771 53.1224 68.689 50.8264 69.193C49.8024 69.417 48.7758 69.6437 47.7464 69.873C47.4691 69.937 47.2105 69.8917 46.9705 69.7371L44.0504 67.889C43.8211 67.745 43.5891 67.745 43.3544 67.889L41.8504 68.825C41.4878 69.049 41.3945 68.9264 41.5705 68.4571C41.7785 67.9184 41.4851 67.441 40.6904 67.025L46.1384 59.921C66.0158 35.649 91.7117 22.633 123.226 20.873Z" fill="#CAE4B9"/>
<path d="M123.227 20.8725C138.017 20.3391 152.305 22.7418 166.091 28.0805C163.99 29.8565 163.057 32.1658 163.291 35.0085C163.317 35.3021 163.268 35.5969 163.147 35.8645C162.326 37.7258 161.779 39.6591 161.507 41.6645C161.475 41.9045 161.39 42.1258 161.251 42.3285C159.87 44.4031 160.305 46.5178 162.555 48.6725L154.035 48.1845C153.763 48.1685 153.547 48.0511 153.387 47.8325C150.187 43.4485 144.019 38.4885 138.939 37.5045C134.203 36.5925 131.971 39.4805 129.331 42.9125C129.177 43.1098 128.985 43.1551 128.755 43.0485L120.363 39.1525C120.945 35.0511 122.033 31.1071 123.627 27.3205C124.323 25.6565 125.819 23.6405 126.499 21.4965C126.59 21.2138 126.486 21.0618 126.187 21.0405L123.227 20.8725Z" fill="#9CC49A"/>
<path d="M166.091 28.0801C176.438 32.1067 186.046 37.6614 194.915 44.7441C212.344 59.0214 224.051 77.2774 230.035 99.5121C229.368 99.6134 228.624 99.2374 227.803 98.3841C227.35 97.9201 226.923 97.2374 226.523 96.3361C224.374 91.4668 221.798 87.2507 218.795 83.6881C213.547 77.4641 192.363 53.1601 183.115 55.4881C182.848 55.5574 182.699 55.7281 182.667 56.0001C182.427 58.0641 183.667 59.6561 183.915 61.2321C184.23 63.2107 184.427 65.2107 184.507 67.2321C184.514 67.3543 184.554 67.4721 184.623 67.5723C184.693 67.6726 184.788 67.7514 184.899 67.8001C185.331 67.9841 191.067 68.8561 189.307 69.8801L183.171 68.7681C183.502 65.4081 183.219 62.3574 182.323 59.6161C179.163 52.6401 169.851 50.0641 162.555 48.6721C160.304 46.5174 159.87 44.4027 161.251 42.3281C161.39 42.1254 161.475 41.9041 161.507 41.6641C161.779 39.6587 162.326 37.7254 163.147 35.8641C163.268 35.5965 163.317 35.3017 163.291 35.0081C163.056 32.1654 163.99 29.8561 166.091 28.0801Z" fill="#83B890"/>
<path d="M162.555 48.6722C169.851 50.0642 179.163 52.6402 182.323 59.6162L181.691 59.6243C181.621 59.6251 181.552 59.6432 181.491 59.6769C181.43 59.7106 181.378 59.7589 181.34 59.8175C181.302 59.8761 181.279 59.9431 181.273 60.0127C181.267 60.0822 181.279 60.1521 181.307 60.2162C182.085 61.9976 182.397 63.8616 182.243 65.8083C182.189 66.5016 182.083 66.5096 181.923 65.8323C179.203 54.6243 163.699 50.5203 153.707 49.6323C152.899 49.5603 152.035 48.9763 151.715 48.3523C149.499 44.0003 146.339 43.2083 141.547 42.0803C137.355 41.0883 130.595 40.2162 131.331 46.8162C131.363 47.1256 131.245 47.2056 130.979 47.0563C130.392 46.7256 129.952 46.2429 129.659 45.6083C129.554 45.3826 129.391 45.187 129.187 45.0402C123.949 41.2749 118.061 39.6989 111.523 40.3122C107.259 40.7122 102.931 42.6563 101.443 47.0243C101.139 47.9203 101.539 49.5522 100.051 50.0162C97.1385 50.9282 93.8425 49.8963 91.6425 49.7603C81.1145 49.1283 73.7465 53.5282 72.3065 64.6162C71.7359 63.6349 71.6665 62.1362 72.0985 60.1202C73.5625 51.5282 82.1625 47.1363 90.2505 47.9043C93.2372 48.1869 96.2292 48.4883 99.2265 48.8083C99.5252 48.8403 99.6185 48.7149 99.5065 48.4323C99.2239 47.6909 99.1305 47.1549 99.2265 46.8243C102.003 37.6163 112.395 36.6163 120.363 39.1523L128.755 43.0483C128.984 43.1549 129.176 43.1096 129.331 42.9122C131.971 39.4802 134.203 36.5923 138.939 37.5043C144.019 38.4883 150.187 43.4483 153.387 47.8323C153.547 48.0509 153.763 48.1683 154.035 48.1843L162.555 48.6722Z" fill="#523D38"/>
<path d="M182.323 59.6165C183.219 62.3578 183.502 65.4085 183.171 68.7685C180.723 68.9605 183.755 70.3525 184.499 70.4565C185.773 70.6271 187.051 70.7685 188.331 70.8805C194.923 74.7525 194.083 82.0165 192.859 88.7125C192.043 88.3178 191.771 89.0058 192.043 90.7765C191.355 88.6591 191.104 86.5418 191.291 84.4245C191.331 84.0085 191.187 83.8085 190.867 83.5845C190.686 83.4565 190.579 83.2805 190.547 83.0565L189.819 77.6485C189.793 77.4665 189.718 77.2951 189.601 77.1532C189.484 77.0112 189.331 76.9042 189.157 76.8439C188.983 76.7835 188.797 76.7722 188.617 76.8111C188.437 76.85 188.272 76.9377 188.139 77.0645C186.491 78.6591 184.536 79.3871 182.275 79.2485C182.162 79.2415 182.051 79.2724 181.958 79.3362C181.865 79.4 181.797 79.493 181.763 79.6005C181.619 80.0431 181.291 80.3498 180.779 80.5205C179.747 80.8725 174.035 83.1765 173.523 83.8165C173.358 84.0191 173.147 84.1071 172.891 84.0805C168.491 83.6538 164.109 83.7285 159.747 84.3045C157.003 84.6645 154.275 84.0885 151.195 84.3605C144.368 84.9685 136.72 85.0618 128.251 84.6405C127.915 84.6191 127.555 84.7071 127.171 84.9045C126.931 85.0271 126.678 85.0671 126.411 85.0245C121.403 84.2085 116.48 84.4511 111.643 85.7525C101.685 85.5925 91.5575 85.3551 81.2589 85.0405C80.0909 85.0085 79.2988 84.5925 78.8428 85.9765C74.9282 97.6778 71.8962 108.726 69.7468 119.12C68.8935 123.307 68.4375 127.47 68.3788 131.608C68.3762 131.65 68.3592 131.688 68.3308 131.718C68.3024 131.748 68.2645 131.767 68.2235 131.772C68.1826 131.777 68.1413 131.767 68.1068 131.744C68.0723 131.722 68.0468 131.688 68.0348 131.648C67.8108 130.624 67.3575 128.816 66.6749 126.224C66.0722 123.952 64.9335 121.864 63.2589 119.96C61.0669 112.723 59.6642 105.779 59.0508 99.1285C59.2988 95.3845 61.2668 90.2965 59.7468 87.0325C58.6535 84.9151 58.1522 82.6965 58.2428 80.3765C58.9895 81.1871 59.3068 82.2351 59.1948 83.5205C59.174 83.761 59.2211 84.0022 59.3308 84.2165L61.2428 87.8005C61.3166 87.9378 61.4369 88.0444 61.5822 88.1011C61.7274 88.1578 61.8881 88.161 62.0355 88.1099C62.1828 88.0589 62.3071 87.957 62.3862 87.8226C62.4652 87.6882 62.4939 87.53 62.4669 87.3765C61.7309 83.2325 60.4829 80.1125 61.6749 75.4405C63.1389 69.6805 66.7868 69.8885 71.7468 69.4165C71.8562 69.4065 71.9622 69.3734 72.0578 69.3194C72.1534 69.2654 72.2364 69.1917 72.3015 69.1033C72.3665 69.0148 72.412 68.9135 72.435 68.8062C72.458 68.6988 72.4579 68.5878 72.4348 68.4805C72.3122 67.9258 72.1869 67.7658 72.0589 68.0005C71.9309 66.3791 72.0135 65.2511 72.3068 64.6165C73.7468 53.5285 81.1148 49.1285 91.6428 49.7605C93.8428 49.8965 97.1388 50.9285 100.051 50.0165C101.539 49.5525 101.139 47.9205 101.443 47.0245C102.931 42.6565 107.259 40.7125 111.523 40.3125C118.062 39.6991 123.949 41.2751 129.187 45.0405C129.391 45.1872 129.554 45.3828 129.659 45.6085C129.952 46.2431 130.392 46.7258 130.979 47.0565C131.245 47.2058 131.363 47.1258 131.331 46.8165C130.595 40.2165 137.355 41.0885 141.547 42.0805C146.339 43.2085 149.499 44.0005 151.715 48.3525C152.035 48.9765 152.899 49.5605 153.707 49.6325C163.699 50.5205 179.203 54.6245 181.923 65.8325C182.083 66.5098 182.189 66.5018 182.243 65.8085C182.397 63.8618 182.086 61.9978 181.307 60.2165C181.279 60.1524 181.268 60.0824 181.274 60.0129C181.279 59.9433 181.302 59.8763 181.34 59.8177C181.378 59.7591 181.43 59.7108 181.491 59.6771C181.552 59.6434 181.621 59.6253 181.691 59.6245L182.323 59.6165Z" fill="#1C0E18"/>
<path d="M230.035 99.5126C239.203 131.833 232.907 167.729 212.603 194.569C198.443 212.558 180.392 225.043 158.451 232.025C158.077 232.142 157.272 232.169 156.035 232.105L155.363 213.065C155.357 212.91 155.299 212.883 155.187 212.985C154.843 213.281 154.843 230.353 154.747 232.377C154.451 233.977 135.155 235.969 132.859 236.137C119.781 236.873 107.027 235.246 94.5947 231.257C94.3653 231.182 94.2507 231.022 94.2507 230.777V212.833C94.2507 212.587 94.128 212.454 93.8827 212.433C93.7973 212.427 93.7147 212.425 93.6347 212.425C93.5067 212.425 93.4373 212.489 93.4267 212.617C92.9893 217.689 92.808 222.771 92.8827 227.865C92.888 228.091 92.8114 228.313 92.6667 228.489C92.224 229.027 92.1787 229.523 92.5307 229.977C92.8987 230.451 92.8134 230.59 92.2747 230.393L86.5547 228.329C87.216 216.11 91.6214 205.39 99.7707 196.169C101.243 194.505 102.869 193.393 104.651 192.833C106.043 201.489 110.467 206.073 118.259 209.601C119.213 210.033 120.92 210.179 123.379 210.041C129.955 209.006 135.197 205.078 139.107 198.257L141.035 192.041C155.811 195.001 160.379 216.881 162.115 229.177C162.179 229.619 162.389 229.827 162.747 229.801C162.949 229.785 163.04 229.675 163.019 229.473C162.064 219.563 160.069 210.955 157.035 203.649C154.256 196.961 148.904 192.819 140.979 191.225L130.411 189.313C130.155 189.265 129.992 189.115 129.923 188.865C129.645 187.825 129.736 186.878 130.195 186.025C130.264 185.894 130.364 185.782 130.487 185.698C130.609 185.615 130.751 185.562 130.899 185.545C138.973 184.691 146.667 182.486 153.979 178.929C165.669 172.918 174.133 163.622 179.371 151.041C179.402 150.962 179.46 150.897 179.535 150.856C179.609 150.815 179.695 150.801 179.779 150.817C182.76 151.329 185.547 151.049 188.139 149.977C198.899 145.225 208.035 126.025 191.083 121.865C192.469 118.921 193.112 116.545 193.011 114.737C195.197 109.553 195.891 103.966 195.091 97.9766C194.675 94.878 193.957 92.2673 192.939 90.1446C192.832 89.9153 192.869 89.71 193.051 89.5286C195.963 86.6246 196.787 79.8406 196.011 76.6726C195.205 73.4033 192.971 71.1393 189.307 69.8806C191.067 68.8566 185.331 67.9846 184.899 67.8006C184.788 67.752 184.692 67.6731 184.623 67.5729C184.554 67.4726 184.514 67.3549 184.507 67.2326C184.427 65.2113 184.229 63.2113 183.915 61.2326C183.667 59.6566 182.427 58.0646 182.667 56.0006C182.699 55.7286 182.848 55.5579 183.115 55.4886C192.363 53.1606 213.547 77.4646 218.795 83.6886C221.797 87.2513 224.373 91.4673 226.523 96.3366C226.923 97.238 227.349 97.9206 227.803 98.3846C228.624 99.238 229.368 99.6139 230.035 99.5126ZM96.8187 201.385C93.2987 203.841 93.2507 208.625 96.8827 211.321C96.989 211.4 97.1126 211.453 97.2433 211.475C97.374 211.497 97.5081 211.488 97.6347 211.449C99.6293 210.83 101.144 209.611 102.179 207.793C102.307 207.579 102.347 207.35 102.299 207.105C101.755 204.345 99.6507 202.665 97.3547 201.361C97.1734 201.254 96.9947 201.262 96.8187 201.385Z" fill="#67AA79"/>
<path d="M72.0989 60.1204C71.6669 62.1364 71.7363 63.6351 72.3069 64.6164C72.0136 65.2511 71.9309 66.3791 72.0589 68.0005C63.2323 67.4191 58.6269 71.5445 58.2429 80.3765C58.1523 82.6965 58.6536 84.9151 59.7469 87.0325L59.1149 87.2005C58.9069 87.2538 58.7336 87.1978 58.5949 87.0325L56.4509 84.4805C56.3515 84.3644 56.2111 84.2912 56.059 84.2763C55.9069 84.2614 55.755 84.3059 55.6349 84.4005C54.8456 85.0191 54.3043 85.8164 54.0109 86.7924C53.9983 86.8342 53.9711 86.8701 53.9344 86.8938C53.8977 86.9174 53.8538 86.9272 53.8105 86.9214C53.7673 86.9157 53.7274 86.8947 53.6982 86.8623C53.669 86.8299 53.6522 86.7881 53.6509 86.7444V86.4085C53.6534 86.3615 53.6385 86.3152 53.6091 86.2784C53.5797 86.2417 53.5378 86.217 53.4914 86.2091C53.445 86.2012 53.3973 86.2107 53.3574 86.2356C53.3175 86.2606 53.2882 86.2993 53.275 86.3444C52.7256 87.9338 51.6723 89.0298 50.1149 89.6325C50.0551 89.6572 49.989 89.6628 49.9259 89.6483C49.8627 89.6339 49.8057 89.6001 49.7626 89.5517C49.7195 89.5034 49.6925 89.4428 49.6854 89.3784C49.6783 89.3141 49.6914 89.249 49.7229 89.1924L52.3069 84.4644C52.3429 84.3982 52.3566 84.3222 52.346 84.2475C52.3355 84.1729 52.3013 84.1036 52.2485 84.0499C52.1956 83.9961 52.1269 83.9608 52.0525 83.949C51.978 83.9372 51.9018 83.9497 51.8349 83.9845L37.0029 91.5605C36.913 91.6065 36.8121 91.6265 36.7115 91.6184C36.6108 91.6103 36.5144 91.5743 36.4331 91.5146C36.3517 91.4548 36.2885 91.3735 36.2507 91.2799C36.2129 91.1863 36.2019 91.084 36.2189 90.9845C36.3149 90.4351 36.3016 89.8458 36.1789 89.2164C36.1705 89.1749 36.1537 89.1355 36.1296 89.1007C36.1054 89.0659 36.0745 89.0364 36.0385 89.0139C36.0026 88.9915 35.9624 88.9765 35.9206 88.9701C35.8787 88.9637 35.8359 88.9658 35.7949 88.9765C34.2323 89.3605 32.6856 89.3045 31.1549 88.8085C30.8776 88.7231 30.6616 88.8004 30.5069 89.0404C29.6909 90.2991 29.2589 91.6645 29.2109 93.1365C29.2061 93.2806 29.1504 93.4234 29.0545 93.5382C28.9586 93.653 28.829 93.7321 28.6898 93.7605C28.5506 93.7889 28.4114 93.7648 28.2983 93.6926C28.1851 93.6205 28.1057 93.5052 28.075 93.3684C28.0643 93.3204 27.9016 93.2058 27.5869 93.0245C30.8989 83.7285 35.2669 75.0618 40.6909 67.0245C41.4856 67.4405 41.7789 67.9178 41.5709 68.4565C41.3949 68.9258 41.4883 69.0485 41.8509 68.8245L43.3549 67.8884C43.5896 67.7444 43.8216 67.7444 44.0509 67.8884L46.9709 69.7365C47.2109 69.8911 47.4696 69.9365 47.7469 69.8725C48.7763 69.6431 49.8029 69.4164 50.8269 69.1924C53.1229 68.6884 55.1309 67.3765 57.4109 66.5845C61.9869 64.9845 66.4029 62.0324 70.3949 59.3124C70.7469 59.0778 70.907 59.1711 70.875 59.5924L70.8269 60.1765C70.8109 60.4378 70.9309 60.5924 71.1869 60.6404C71.5229 60.7098 71.8269 60.5364 72.0989 60.1204Z" fill="#BBDAB0"/>
<path d="M72.0592 68.0011C72.1872 67.7665 72.3125 67.9265 72.4352 68.4811C72.4583 68.5885 72.4583 68.6995 72.4353 68.8068C72.4123 68.9142 72.3668 69.0155 72.3018 69.1039C72.2368 69.1924 72.1537 69.2661 72.0581 69.3201C71.9625 69.374 71.8565 69.4071 71.7472 69.4171C66.7872 69.8891 63.1392 69.6811 61.6752 75.4411C60.4832 80.1131 61.7312 83.2331 62.4672 87.3771C62.4942 87.5307 62.4656 87.6889 62.3865 87.8233C62.3075 87.9577 62.1831 88.0595 62.0358 88.1106C61.8885 88.1616 61.7278 88.1585 61.5825 88.1018C61.4373 88.0451 61.3169 87.9385 61.2432 87.8011L59.3312 84.2171C59.2215 84.0029 59.1743 83.7617 59.1952 83.5211C59.3072 82.2358 58.9898 81.1878 58.2432 80.3771C58.6272 71.5451 63.2325 67.4198 72.0592 68.0011Z" fill="#523D38"/>
<path d="M183.17 68.7686L189.306 69.8806C192.97 71.1392 195.205 73.4032 196.01 76.6726C196.786 79.8406 195.962 86.6246 193.05 89.5286C192.869 89.7099 192.832 89.9152 192.938 90.1446C193.957 92.2672 194.674 94.8779 195.09 97.9766C195.89 103.966 195.197 109.553 193.01 114.737C194.157 105.985 193.834 97.9979 192.042 90.7766C191.77 89.0059 192.042 88.3179 192.858 88.7125C194.677 85.9712 195.392 82.6139 195.002 78.6406C194.522 73.6699 192.298 71.0832 188.33 70.8806C187.05 70.7686 185.773 70.6272 184.498 70.4566C183.754 70.3526 180.722 68.9606 183.17 68.7686Z" fill="#2D362F"/>
<path d="M192.859 88.7128C194.083 82.0168 194.923 74.7529 188.331 70.8809C192.299 71.0835 194.523 73.6702 195.003 78.6408C195.392 82.6142 194.678 85.9715 192.859 88.7128Z" fill="#645A4F"/>
<path d="M192.043 90.7771C193.835 97.9984 194.157 105.985 193.011 114.737C193.112 116.545 192.469 118.921 191.083 121.865C191.403 121.737 191.379 121.921 191.011 122.417C186.531 124.553 185.147 128.409 183.091 132.353C182.813 132.892 182.672 132.86 182.667 132.257C182.579 117.465 180.427 102.601 178.067 88.0251C178.052 87.9268 178.003 87.8368 177.928 87.771C177.853 87.7052 177.758 87.6677 177.659 87.6651L111.643 85.7531C116.48 84.4518 121.403 84.2091 126.411 85.0251C126.677 85.0678 126.931 85.0278 127.171 84.9051C127.555 84.7078 127.915 84.6198 128.251 84.6411C136.72 85.0624 144.368 84.9691 151.195 84.3611C154.275 84.0891 157.003 84.6651 159.747 84.3051C164.109 83.7291 168.491 83.6544 172.891 84.0811C173.147 84.1078 173.357 84.0198 173.523 83.8171C174.035 83.1771 179.747 80.8731 180.779 80.5211C181.291 80.3504 181.619 80.0438 181.763 79.6011C181.796 79.4937 181.865 79.4006 181.958 79.3368C182.051 79.273 182.162 79.2421 182.275 79.2491C184.536 79.3878 186.491 78.6598 188.139 77.0651C188.272 76.9383 188.437 76.8507 188.617 76.8117C188.796 76.7728 188.983 76.7842 189.157 76.8445C189.33 76.9048 189.484 77.0119 189.601 77.1538C189.717 77.2957 189.793 77.4671 189.819 77.6491L190.547 83.0571C190.579 83.2811 190.685 83.4571 190.867 83.5851C191.187 83.8091 191.331 84.0091 191.291 84.4251C191.104 86.5424 191.355 88.6598 192.043 90.7771Z" fill="#0E040B"/>
<path d="M59.7472 87.0331C61.2672 90.2971 59.2992 95.3851 59.0512 99.1291L59.0432 100.329C59.0432 100.388 59.0166 100.404 58.9632 100.377L58.6752 100.217C58.5472 100.153 58.4379 100.177 58.3472 100.289C57.3499 101.548 56.8139 102.993 56.7392 104.625C56.6112 107.425 52.0432 112.617 50.1232 114.833C49.9366 115.046 49.7499 115.049 49.5632 114.841C47.7712 112.841 46.6619 110.769 46.2352 108.625C45.8459 106.673 45.4352 104.726 45.0032 102.785C44.9552 102.582 44.8726 102.396 44.7552 102.225C44.3926 101.681 44.1179 101.55 43.9312 101.833C43.8032 102.03 43.6245 102.097 43.3952 102.033C41.0432 101.369 39.4752 103.817 37.2512 105.065C36.4672 105.508 35.6326 106.145 34.7472 106.977C32.4512 109.153 29.6992 109.777 27.4032 111.689C26.1126 112.756 24.7712 113.772 23.3792 114.737C23.1179 114.918 22.9446 114.857 22.8592 114.553L22.6992 113.961C23.6326 106.878 25.2619 99.8998 27.5872 93.0251C27.9019 93.2064 28.0646 93.3211 28.0752 93.3691C28.106 93.5059 28.1854 93.6211 28.2986 93.6933C28.4117 93.7654 28.5509 93.7896 28.6901 93.7611C28.8293 93.7327 28.9589 93.6537 29.0548 93.5388C29.1507 93.424 29.2063 93.2812 29.2112 93.1371C29.2592 91.6651 29.6912 90.2998 30.5072 89.0411C30.6619 88.8011 30.8779 88.7238 31.1552 88.8091C32.6859 89.3051 34.2325 89.3611 35.7952 88.9771C35.8362 88.9665 35.879 88.9643 35.9208 88.9708C35.9627 88.9772 36.0029 88.9921 36.0388 89.0146C36.0747 89.037 36.1057 89.0665 36.1299 89.1014C36.154 89.1362 36.1708 89.1756 36.1792 89.2171C36.3019 89.8464 36.3152 90.4358 36.2192 90.9851C36.2022 91.0846 36.2132 91.1869 36.251 91.2805C36.2888 91.3742 36.352 91.4554 36.4333 91.5152C36.5147 91.575 36.6111 91.6109 36.7118 91.619C36.8124 91.6271 36.9133 91.6071 37.0032 91.5611L51.8352 83.9851C51.9021 83.9503 51.9783 83.9379 52.0528 83.9496C52.1272 83.9614 52.1959 83.9968 52.2488 84.0505C52.3016 84.1043 52.3358 84.1735 52.3463 84.2482C52.3569 84.3228 52.3432 84.3988 52.3072 84.4651L49.7232 89.1931C49.6917 89.2497 49.6786 89.3147 49.6857 89.3791C49.6928 89.4435 49.7198 89.504 49.7629 89.5524C49.806 89.6008 49.863 89.6345 49.9262 89.649C49.9893 89.6634 50.0554 89.6579 50.1152 89.6331C51.6726 89.0304 52.7259 87.9344 53.2752 86.3451C53.2885 86.2999 53.3178 86.2612 53.3577 86.2363C53.3976 86.2113 53.4453 86.2019 53.4917 86.2098C53.5381 86.2177 53.58 86.2423 53.6094 86.2791C53.6388 86.3158 53.6537 86.3621 53.6512 86.4091V86.7451C53.6525 86.7887 53.6692 86.8305 53.6985 86.8629C53.7277 86.8953 53.7676 86.9163 53.8108 86.9221C53.8541 86.9278 53.898 86.918 53.9347 86.8944C53.9714 86.8708 53.9986 86.8349 54.0112 86.7931C54.3046 85.8171 54.8459 85.0198 55.6352 84.4011C55.7552 84.3065 55.9072 84.2621 56.0593 84.277C56.2114 84.2919 56.3518 84.365 56.4512 84.4811L58.5952 87.0331C58.7339 87.1984 58.9072 87.2544 59.1152 87.2011L59.7472 87.0331Z" fill="#9CC49A"/>
<path d="M111.643 85.7521L177.659 87.6641C177.759 87.6668 177.854 87.7043 177.928 87.7701C178.003 87.8359 178.052 87.9258 178.067 88.0241C180.427 102.6 182.579 117.464 182.667 132.256C182.672 132.859 182.814 132.891 183.091 132.352C185.147 128.408 186.531 124.552 191.011 122.416L191.843 123.272C192.035 123.469 192.264 123.592 192.531 123.64C197.555 124.528 199.027 131.464 198.139 135.496C197.675 137.597 196.742 139.941 195.339 142.528C193.744 145.472 191.344 147.955 188.139 149.976C185.547 151.048 182.76 151.328 179.779 150.816C179.696 150.801 179.609 150.815 179.535 150.855C179.461 150.896 179.403 150.962 179.371 151.04C174.134 163.621 165.67 172.917 153.979 178.928C153.792 177.397 154.371 176.365 155.715 175.832C155.833 175.786 155.932 175.702 155.996 175.593C156.059 175.485 156.085 175.357 156.067 175.232C155.675 172.528 157.259 172.36 158.651 170.88C162.038 167.275 164.115 162.936 164.883 157.864C165.763 157.363 166.872 156.603 168.211 155.584C173.715 151.408 162.667 147.824 160.491 147.296C159.984 146.421 160.219 145.64 161.195 144.952C165.115 144.557 167.387 143.093 168.011 140.56C172.651 128.832 158.355 115.528 147.067 122.344L146.691 119.272C151.955 116.904 157.187 116.528 162.387 118.144C164.587 118.824 171.387 123.768 173.211 121.576C173.503 121.226 173.672 120.79 173.693 120.335C173.713 119.88 173.583 119.43 173.323 119.056C167.686 110.88 160.051 107.712 150.419 109.552L149.067 109.176C148.811 109.104 148.595 108.937 148.467 108.712C148.003 107.912 147.32 107.381 146.419 107.12C146.387 107.115 146.36 107.123 146.339 107.144C146.28 107.192 146.24 107.256 146.219 107.336C146.192 107.459 146.126 107.485 146.019 107.416C142.723 105.056 139.171 103 134.923 102.952C126.227 102.864 119.771 102.648 112.155 104.968C110.211 105.56 108.139 106.928 105.859 107.664C105.358 107.824 104.992 108.173 104.763 108.712C104.651 108.973 104.454 109.091 104.171 109.064L100.355 108.712C90.0404 105.821 81.9844 108.464 76.1871 116.64C75.2271 117.152 74.8564 117.856 75.0751 118.752C75.1284 118.981 75.0804 119.187 74.9311 119.368L72.4831 122.312C72.3124 122.515 72.1844 122.491 72.0991 122.24C71.6404 120.96 70.8564 119.92 69.7471 119.12C71.8964 108.725 74.9284 97.6775 78.8431 85.9761C79.2991 84.5921 80.0911 85.0081 81.2591 85.0401C91.5577 85.3548 101.686 85.5921 111.643 85.7521ZM192.267 136.056C195.635 128.912 186.803 126.768 184.563 134.864C183.795 137.659 182.963 140.456 182.067 143.256C182.046 143.318 182.044 143.384 182.06 143.447C182.077 143.51 182.112 143.566 182.161 143.609C182.21 143.652 182.27 143.679 182.335 143.687C182.399 143.696 182.465 143.685 182.523 143.656C183.259 143.309 183.904 142.821 184.459 142.192C184.635 141.989 184.848 141.845 185.099 141.76C188.651 140.555 191.04 138.653 192.267 136.056Z" fill="#FB9E50"/>
<path d="M59.0503 99.1289C59.6637 105.78 61.0663 112.724 63.2583 119.961C62.741 119.806 62.3757 119.825 62.1623 120.017C55.1943 115.569 50.5463 125.441 51.1063 130.921C51.7037 136.793 54.5943 141.542 59.7783 145.169C58.7783 148.297 66.2663 153.777 61.1863 156.273C60.877 156.428 60.6663 156.34 60.5543 156.009C60.373 155.454 60.4263 154.921 60.7143 154.409C60.7904 154.271 60.8149 154.109 60.7836 153.954C60.7522 153.798 60.667 153.659 60.5433 153.562C60.4197 153.464 60.2657 153.415 60.1092 153.422C59.9528 153.429 59.8042 153.492 59.6903 153.601C58.0263 155.153 56.125 156.23 53.9863 156.833C53.7623 156.897 53.613 157.036 53.5383 157.249L52.7623 159.409C52.7197 159.532 52.6413 159.639 52.5373 159.718C52.4333 159.796 52.3083 159.842 52.1783 159.849C50.7063 159.929 46.0983 159.857 45.4263 161.201C45.2983 161.452 45.101 161.62 44.8343 161.705C43.1117 162.228 42.2423 163.409 42.2263 165.249C42.2236 165.392 42.1856 165.532 42.1158 165.656C42.0459 165.781 41.9465 165.885 41.8263 165.961C40.9783 166.494 40.1143 166.998 39.2343 167.473C36.1223 169.153 36.5783 167.633 35.5463 171.537C35.4686 171.821 35.2928 172.068 35.0503 172.233L33.1224 173.513C32.893 173.668 32.6503 173.686 32.3943 173.569L30.2184 172.553C22.421 153.977 19.9143 134.446 22.6983 113.961L22.8583 114.553C22.9437 114.857 23.117 114.918 23.3783 114.737C24.7703 113.772 26.1117 112.756 27.4023 111.689C29.6983 109.777 32.4503 109.153 34.7463 106.977C35.6317 106.145 36.4663 105.508 37.2503 105.065C39.4743 103.817 41.0423 101.369 43.3943 102.033C43.6237 102.097 43.8023 102.03 43.9303 101.833C44.117 101.55 44.3917 101.681 44.7543 102.225C44.8717 102.396 44.9543 102.582 45.0023 102.785C45.4343 104.726 45.845 106.673 46.2343 108.625C46.661 110.769 47.7703 112.841 49.5623 114.841C49.749 115.049 49.9357 115.046 50.1224 114.833C52.0424 112.617 56.6103 107.425 56.7383 104.625C56.813 102.993 57.349 101.548 58.3463 100.289C58.437 100.177 58.5464 100.153 58.6744 100.217L58.9623 100.377C59.0157 100.404 59.0423 100.388 59.0423 100.329L59.0503 99.1289Z" fill="#83B890"/>
<path d="M150.419 109.553C146.568 110.513 143.784 112.406 142.067 115.233C141.163 116.713 140.939 118.833 142.795 119.585C142.203 120.07 141.686 120.748 141.243 121.617C140.163 123.705 135.179 122.513 132.867 123.497C132.626 123.602 132.364 123.64 132.107 123.609C123.707 122.713 117.587 126.017 110.123 129.113C109.083 129.545 107.923 130.462 106.643 131.865C106.339 130.58 105.995 129.804 105.611 129.537C105.718 128.412 105.342 127.225 104.483 125.977C99.1629 118.209 90.3789 117.433 83.7069 123.617C80.0749 126.969 76.5229 133.793 79.1469 138.753C79.6216 139.457 79.8936 140.585 79.9629 142.137C79.3336 142.35 79.2109 143.137 79.5949 144.497C79.7034 144.883 79.658 145.296 79.4683 145.649C79.2787 146.001 78.9597 146.265 78.5789 146.385C76.1095 147.164 74.0242 148.534 72.3229 150.497C72.0829 150.764 72.0616 151.049 72.2589 151.353L74.1149 154.169C74.2909 154.436 74.5202 154.5 74.8029 154.361C75.8429 153.854 76.7816 154.03 77.6189 154.889C79.3842 156.686 81.4109 158.113 83.6989 159.169C84.3016 159.452 84.9229 159.788 85.5629 160.177C87.3149 161.265 88.4829 161.385 90.0509 162.857C93.2669 165.865 98.2829 170.313 102.907 171.393C103.029 171.422 103.157 171.42 103.279 171.387C103.4 171.353 103.512 171.289 103.603 171.201C104.227 170.588 104.939 170.356 105.739 170.505C105.984 170.553 106.227 170.545 106.467 170.481L108.011 170.065C109.211 174.646 111.632 178.676 115.275 182.153C121.238 184.9 127.275 184.798 133.387 181.849C135.072 182.1 136.79 181.644 138.539 180.481C139.526 179.83 139.888 178.876 139.627 177.617C139.568 177.329 139.672 177.129 139.939 177.017C141.955 176.174 143.574 174.857 144.795 173.065C144.843 172.996 144.907 172.974 144.987 173.001C145.094 173.038 145.184 173.073 145.259 173.105C145.366 173.153 145.456 173.129 145.531 173.033C149.995 167.193 152.267 162.465 159.691 159.809C159.756 159.781 159.81 159.732 159.843 159.669C159.875 159.606 159.885 159.533 159.87 159.464C159.855 159.394 159.816 159.332 159.76 159.289C159.703 159.245 159.634 159.223 159.563 159.225C159.147 159.262 158.995 159.169 159.107 158.945L164.883 157.865C164.115 162.937 162.038 167.276 158.651 170.881C157.259 172.361 155.675 172.529 156.067 175.233C156.084 175.358 156.059 175.485 155.995 175.594C155.931 175.703 155.833 175.787 155.715 175.833C154.371 176.366 153.792 177.398 153.979 178.929C146.667 182.486 138.974 184.692 130.899 185.545C130.751 185.562 130.61 185.615 130.487 185.699C130.364 185.782 130.264 185.894 130.195 186.025C129.736 186.878 129.646 187.825 129.923 188.865C129.992 189.116 130.155 189.265 130.411 189.313L140.979 191.225C141.086 191.657 141.104 191.929 141.035 192.041L139.107 198.257C137.451 195.457 133.371 195.673 130.795 193.473C130.566 193.276 130.451 193.329 130.451 193.633V194.201C130.451 194.425 130.347 194.494 130.139 194.409C127.792 193.481 125.374 193.233 122.883 193.665C122.859 193.667 122.834 193.66 122.815 193.646C122.796 193.631 122.783 193.609 122.779 193.585L122.739 193.385C122.707 193.193 122.595 193.089 122.403 193.073C117.395 192.705 116.027 197.473 110.779 197.233C110.571 197.222 110.379 197.161 110.203 197.049L108.747 196.105C108.486 195.934 108.302 195.996 108.195 196.289C107.88 197.164 107.99 197.969 108.523 198.705C108.72 198.972 108.654 199.132 108.323 199.185L107.459 199.321C106.179 196.852 105.814 194.481 106.363 192.209C106.39 192.113 106.355 192.052 106.259 192.025C106.19 192.009 106.12 192.001 106.051 192.001C106.238 191.788 106.299 191.502 106.235 191.145C109.499 190.036 112.942 189.502 116.563 189.545C116.878 189.55 117.03 189.393 117.019 189.073L116.915 186.625C116.904 186.353 116.771 186.174 116.515 186.089C112.126 184.622 107.64 183.625 103.059 183.097C102.798 183.07 102.574 182.966 102.387 182.785C101.563 182.017 100.299 182.137 99.4109 181.769C95.5016 180.137 92.4509 178.748 90.2589 177.601C81.6269 173.081 72.9149 159.889 70.0189 150.537C69.5389 148.993 68.5549 148.369 67.3229 147.513C67.0989 147.358 66.8535 147.276 66.5869 147.265C64.4322 147.164 62.4509 146.652 60.6429 145.729C60.7336 145.526 60.7736 145.337 60.7629 145.161C60.7416 144.772 60.7069 144.556 60.6589 144.513C53.1469 138.241 50.2749 126.593 59.9069 120.577C60.1096 120.449 60.3335 120.398 60.5789 120.425C61.2509 120.51 61.7789 120.374 62.1629 120.017C62.3762 119.825 62.7416 119.806 63.2589 119.961C64.9336 121.865 66.0723 123.953 66.6749 126.225C67.3576 128.817 67.8109 130.625 68.0349 131.649C68.0469 131.688 68.0724 131.722 68.1069 131.745C68.1413 131.768 68.1827 131.777 68.2236 131.773C68.2645 131.768 68.3025 131.749 68.3309 131.719C68.3593 131.689 68.3762 131.65 68.3789 131.609C68.4375 127.47 68.8936 123.308 69.7469 119.121C70.8562 119.921 71.6402 120.961 72.0989 122.241C72.1842 122.492 72.3122 122.516 72.4829 122.313L74.9309 119.369C75.0802 119.188 75.1283 118.982 75.0749 118.753C74.8563 117.857 75.2269 117.153 76.1869 116.641C75.9949 119.121 77.5709 120.193 79.4189 119.209C89.5949 113.777 94.3709 115.617 104.099 118.849C109.099 120.505 108.755 115.081 106.267 112.809C104.582 111.268 102.611 109.902 100.355 108.713L104.171 109.065C104.454 109.092 104.651 108.974 104.763 108.713C104.992 108.174 105.358 107.825 105.859 107.665C108.139 106.929 110.211 105.561 112.155 104.969C119.771 102.649 126.227 102.865 134.923 102.953C139.171 103.001 142.723 105.057 146.019 107.417C146.126 107.486 146.192 107.46 146.219 107.337C146.24 107.257 146.28 107.193 146.339 107.145C146.36 107.124 146.387 107.116 146.419 107.121C147.32 107.382 148.003 107.913 148.467 108.713C148.595 108.938 148.81 109.105 149.067 109.177L150.419 109.553ZM58.7069 129.729C58.3229 135.785 62.4429 138.481 67.4909 140.473C67.7576 140.58 67.8509 140.494 67.7709 140.217C66.2029 134.969 64.8269 131.182 63.6429 128.857C62.5789 126.777 58.9149 126.585 58.7069 129.729Z" fill="#FCA85B"/>
<path d="M100.355 108.713C102.611 109.902 104.581 111.267 106.267 112.809C108.755 115.081 109.099 120.505 104.099 118.849C94.3708 115.617 89.5948 113.777 79.4188 119.209C77.5708 120.193 75.9948 119.121 76.1868 116.641C81.9841 108.465 90.0401 105.822 100.355 108.713Z" fill="#070608"/>
<path d="M146.69 119.273L142.794 119.585C140.938 118.833 141.162 116.713 142.066 115.233C143.784 112.406 146.568 110.513 150.418 109.553C160.05 107.713 167.685 110.881 173.322 119.057C173.582 119.431 173.712 119.881 173.692 120.336C173.672 120.791 173.503 121.227 173.21 121.577C171.386 123.769 164.586 118.825 162.386 118.145C157.186 116.529 151.954 116.905 146.69 119.273Z" fill="#070608"/>
<path d="M62.1622 120.016C61.7782 120.374 61.2501 120.51 60.5781 120.424C60.3328 120.398 60.1088 120.448 59.9062 120.576C50.2742 126.592 53.1462 138.24 60.6582 144.512C60.7062 144.555 60.7408 144.771 60.7622 145.16C60.7728 145.336 60.7328 145.526 60.6422 145.728C60.1835 145.547 59.8955 145.36 59.7781 145.168C54.5941 141.542 51.7035 136.792 51.1062 130.92C50.5462 125.44 55.1942 115.568 62.1622 120.016Z" fill="#FCE8A3"/>
<path d="M146.691 119.272L147.067 122.344C143.845 124.318 141.784 127.232 140.883 131.088C139.752 133.75 139.688 136.707 140.691 139.96C141.971 144.12 144.859 145.832 149.067 145.656C153.141 145.486 157.184 145.251 161.195 144.952C160.219 145.64 159.984 146.422 160.491 147.296C154.224 145.819 149.427 147.411 146.099 152.072C145.879 152.376 145.769 152.745 145.785 153.12C145.8 153.496 145.942 153.857 146.187 154.144C149.312 157.808 153.619 159.408 159.107 158.944C158.995 159.168 159.147 159.262 159.563 159.224C159.634 159.222 159.703 159.245 159.759 159.288C159.815 159.332 159.854 159.394 159.869 159.463C159.885 159.533 159.875 159.605 159.842 159.668C159.81 159.731 159.756 159.781 159.691 159.808C152.267 162.464 149.995 167.192 145.531 173.032C145.456 173.128 145.365 173.152 145.259 173.104C145.184 173.072 145.093 173.038 144.987 173C144.907 172.974 144.843 172.995 144.795 173.064C143.573 174.856 141.955 176.174 139.939 177.016C139.672 177.128 139.568 177.328 139.627 177.616C139.888 178.875 139.525 179.83 138.539 180.48C136.789 181.643 135.072 182.099 133.387 181.848L137.339 177.984C140.805 173.222 142.179 167.819 141.459 161.776C141.416 161.43 141.277 161.387 141.043 161.648C139.243 163.624 136.155 163.712 133.451 163.736C126.907 163.806 120.376 163.702 113.859 163.424C111.544 163.323 109.091 162.4 106.499 160.656C106.28 160.507 106.195 160.563 106.243 160.824L108.011 170.064L106.467 170.48C106.227 170.544 105.984 170.552 105.739 170.504C104.939 170.355 104.227 170.587 103.603 171.2C103.512 171.289 103.4 171.353 103.278 171.386C103.157 171.42 103.029 171.422 102.907 171.392C98.2826 170.312 93.2665 165.864 90.0505 162.856C88.4825 161.384 87.3146 161.264 85.5626 160.176C84.9226 159.787 84.3012 159.451 83.6985 159.168C81.4105 158.112 79.3839 156.686 77.6186 154.888C76.7812 154.03 75.8425 153.854 74.8025 154.36C74.5199 154.499 74.2906 154.435 74.1146 154.168L72.2586 151.352C72.0612 151.048 72.0826 150.763 72.3226 150.496C74.0239 148.534 76.1092 147.163 78.5785 146.384C78.9593 146.265 79.2783 146.001 79.468 145.648C79.6576 145.296 79.703 144.883 79.5945 144.496C79.2105 143.136 79.3332 142.35 79.9626 142.136C85.7759 144.536 92.0505 145.43 98.7865 144.816C102.675 144.464 105.093 142.464 106.043 138.816C106.661 136.427 106.861 134.11 106.643 131.864C107.923 130.462 109.083 129.544 110.123 129.112C117.587 126.016 123.707 122.712 132.107 123.608C132.363 123.64 132.626 123.601 132.867 123.496C135.179 122.512 140.163 123.704 141.243 121.616C141.685 120.747 142.203 120.07 142.795 119.584L146.691 119.272ZM99.7226 152.486C99.7212 151.7 99.4427 150.922 98.9031 150.197C98.3635 149.472 97.5733 148.814 96.5776 148.26C95.582 147.706 94.4003 147.267 93.1002 146.969C91.8 146.67 90.4068 146.518 89.0001 146.52C87.5933 146.523 86.2007 146.68 84.9016 146.983C83.6025 147.286 82.4224 147.729 81.4286 148.286C80.4349 148.844 79.647 149.505 79.1099 150.232C78.5729 150.959 78.2972 151.737 78.2985 152.523C78.2999 153.309 78.5784 154.087 79.118 154.812C79.6576 155.537 80.4477 156.195 81.4434 156.749C82.4391 157.303 83.6207 157.742 84.9209 158.04C86.2211 158.339 87.6143 158.491 89.021 158.488C90.4277 158.486 91.8204 158.329 93.1195 158.026C94.4187 157.723 95.5988 157.28 96.5925 156.723C97.5862 156.165 98.3741 155.504 98.9111 154.777C99.4482 154.05 99.7239 153.272 99.7226 152.486ZM118.107 147.624C116.917 147.859 116.459 148.843 116.731 150.576C116.773 150.843 116.931 150.987 117.203 151.008C119.131 151.144 120.347 151.456 120.139 148.96C122.011 150.838 121.123 151.987 117.475 152.408C117.123 152.451 116.949 152.648 116.955 153L116.971 154.952C116.971 155.294 117.131 155.518 117.451 155.624C120.251 156.579 122.523 155.84 124.267 153.408C127.171 149.368 122.011 145.352 118.107 147.624Z" fill="#FCB468"/>
<path d="M105.611 129.536C99.4426 125.96 94.8906 120.328 87.4266 124.768C82.1626 127.899 79.4026 132.56 79.1466 138.752C76.5226 133.792 80.0746 126.968 83.7066 123.616C90.3786 117.432 99.1626 118.208 104.483 125.976C105.341 127.224 105.717 128.411 105.611 129.536Z" fill="#070608"/>
<path d="M168.011 140.56C167.702 132.683 164.232 127.472 157.603 124.928C151.811 122.704 145.259 126.936 140.883 131.088C141.784 127.232 143.846 124.318 147.067 122.344C158.355 115.528 172.651 128.832 168.011 140.56Z" fill="#070608"/>
<path d="M191.083 121.865C208.035 126.025 198.899 145.225 188.139 149.977C191.344 147.955 193.744 145.473 195.339 142.529C196.741 139.942 197.675 137.598 198.139 135.497C199.027 131.465 197.555 124.529 192.531 123.641C192.264 123.593 192.035 123.47 191.843 123.273L191.011 122.417C191.379 121.921 191.403 121.737 191.083 121.865Z" fill="#FCE8A3"/>
<path d="M105.61 129.537C105.994 129.803 106.338 130.579 106.642 131.865C106.861 134.11 106.661 136.427 106.042 138.817C105.093 142.465 102.674 144.465 98.7865 144.817C92.0505 145.43 85.7758 144.537 79.9625 142.137C79.8932 140.585 79.6212 139.457 79.1465 138.753C79.4025 132.561 82.1625 127.899 87.4265 124.769C94.8905 120.329 99.4425 125.961 105.61 129.537ZM96.2295 143.337C97.9355 143.562 99.686 142.909 101.096 141.523C102.506 140.136 103.459 138.129 103.747 135.943C104.035 133.758 103.633 131.573 102.63 129.868C101.627 128.164 100.105 127.08 98.3995 126.856C96.6935 126.631 94.943 127.284 93.5332 128.671C92.1234 130.057 91.1698 132.064 90.882 134.25C90.5943 136.435 90.996 138.621 91.9989 140.325C93.0017 142.029 94.5235 143.113 96.2295 143.337Z" fill="#EBE1DA"/>
<path d="M168.011 140.561C167.387 143.094 165.115 144.558 161.195 144.953C157.185 145.251 153.142 145.486 149.067 145.657C144.859 145.833 141.971 144.121 140.691 139.961C139.689 136.707 139.753 133.75 140.883 131.089C145.259 126.937 151.811 122.705 157.603 124.929C164.233 127.473 167.702 132.683 168.011 140.561ZM147.667 144.033C153.739 145.281 156.131 137.065 154.963 132.401C153.667 127.185 146.731 125.961 144.251 130.217C141.827 134.385 141.147 142.697 147.667 144.033Z" fill="#EBE1DA"/>
<path d="M96.2294 143.338C94.5234 143.113 93.0016 142.029 91.9987 140.325C90.9959 138.621 90.5942 136.436 90.8819 134.25C91.1696 132.064 92.1233 130.057 93.5331 128.671C94.9429 127.284 96.6933 126.631 98.3993 126.856C100.105 127.081 101.627 128.164 102.63 129.868C103.633 131.573 104.035 133.758 103.747 135.944C103.459 138.129 102.505 140.136 101.096 141.523C99.6858 142.909 97.9354 143.562 96.2294 143.338ZM96.2423 133.249L97.6184 133.721C97.7874 133.78 97.9681 133.797 98.1453 133.771C98.3225 133.745 98.491 133.676 98.6367 133.571C98.7824 133.466 98.9011 133.328 98.9828 133.167C99.0645 133.007 99.1069 132.829 99.1064 132.649C99.101 131.411 98.6103 130.59 97.6343 130.185C97.3517 130.067 97.0797 130.086 96.8184 130.241C95.8797 130.79 95.509 131.585 95.7064 132.625C95.7331 132.766 95.7967 132.898 95.8907 133.007C95.9847 133.117 96.1059 133.2 96.2423 133.249Z" fill="#070608"/>
<path d="M67.4905 140.473C62.4425 138.481 58.3225 135.785 58.7065 129.729C58.9145 126.585 62.5785 126.777 63.6425 128.857C64.8265 131.182 66.2025 134.969 67.7705 140.217C67.8505 140.494 67.7571 140.579 67.4905 140.473Z" fill="#ED6735"/>
<path d="M147.667 144.032C141.147 142.696 141.827 134.384 144.251 130.216C146.731 125.96 153.667 127.184 154.963 132.4C156.131 137.064 153.739 145.28 147.667 144.032ZM145.931 133.92L148.147 134.104C148.224 134.111 148.303 134.102 148.377 134.078C148.451 134.055 148.52 134.016 148.58 133.966C148.639 133.915 148.688 133.853 148.724 133.784C148.759 133.714 148.78 133.638 148.787 133.56L148.843 132.92C148.86 132.716 148.841 132.511 148.787 132.317C148.733 132.122 148.646 131.942 148.529 131.787C148.412 131.631 148.269 131.504 148.107 131.412C147.946 131.319 147.769 131.264 147.587 131.248L146.963 131.192C146.78 131.177 146.596 131.202 146.421 131.266C146.245 131.33 146.083 131.431 145.941 131.565C145.8 131.699 145.683 131.862 145.598 132.045C145.512 132.228 145.459 132.428 145.443 132.632L145.387 133.28C145.38 133.358 145.389 133.437 145.413 133.511C145.437 133.585 145.475 133.654 145.525 133.714C145.576 133.773 145.638 133.822 145.707 133.858C145.777 133.893 145.853 133.914 145.931 133.92Z" fill="#070608"/>
<path d="M184.562 134.864C186.802 126.768 195.634 128.912 192.266 136.056C191.04 138.654 188.65 140.555 185.098 141.76C184.848 141.846 184.634 141.99 184.458 142.192C183.904 142.822 183.258 143.31 182.522 143.656C182.464 143.685 182.399 143.696 182.334 143.688C182.27 143.679 182.209 143.652 182.161 143.609C182.112 143.566 182.077 143.51 182.06 143.447C182.043 143.384 182.045 143.318 182.066 143.256C182.962 140.456 183.794 137.659 184.562 134.864Z" fill="#ED6735"/>
<path d="M96.2427 133.248C96.1063 133.2 95.985 133.116 95.891 133.007C95.797 132.897 95.7335 132.765 95.7067 132.624C95.5094 131.584 95.88 130.79 96.8187 130.24C97.08 130.086 97.352 130.067 97.6347 130.184C98.6107 130.59 99.1014 131.411 99.1067 132.648C99.1072 132.829 99.0648 133.006 98.9831 133.167C98.9014 133.327 98.7827 133.466 98.637 133.571C98.4913 133.676 98.3228 133.744 98.1456 133.77C97.9684 133.796 97.7878 133.779 97.6187 133.72L96.2427 133.248ZM98.1652 132.78C98.2168 132.721 98.2528 132.649 98.2709 132.568C98.2891 132.488 98.2892 132.4 98.2712 132.311C98.2533 132.222 98.2175 132.132 98.1661 132.048C98.1147 131.963 98.0486 131.886 97.9716 131.819C97.8946 131.752 97.8081 131.698 97.7172 131.659C97.6263 131.62 97.5327 131.597 97.4417 131.592C97.3507 131.587 97.2643 131.6 97.1871 131.629C97.11 131.659 97.0437 131.705 96.9921 131.764C96.9405 131.824 96.9046 131.896 96.8864 131.976C96.8682 132.057 96.8681 132.144 96.8861 132.234C96.9041 132.323 96.9398 132.412 96.9913 132.497C97.0427 132.581 97.1088 132.659 97.1858 132.726C97.2628 132.793 97.3493 132.847 97.4402 132.886C97.5311 132.925 97.6247 132.947 97.7156 132.952C97.8066 132.957 97.8931 132.945 97.9703 132.915C98.0474 132.886 98.1136 132.84 98.1652 132.78Z" fill="#EBE1DA"/>
<path d="M145.931 133.921C145.853 133.915 145.777 133.894 145.708 133.858C145.638 133.823 145.576 133.774 145.526 133.714C145.475 133.655 145.437 133.586 145.413 133.511C145.389 133.437 145.38 133.359 145.387 133.281L145.443 132.633C145.46 132.428 145.513 132.229 145.598 132.046C145.684 131.863 145.801 131.699 145.942 131.566C146.083 131.432 146.246 131.33 146.421 131.266C146.596 131.202 146.78 131.177 146.963 131.193L147.587 131.249C147.769 131.264 147.946 131.32 148.108 131.412C148.27 131.505 148.413 131.632 148.529 131.787C148.646 131.943 148.734 132.123 148.788 132.317C148.841 132.512 148.86 132.717 148.843 132.921L148.787 133.561C148.781 133.639 148.759 133.715 148.724 133.784C148.688 133.854 148.64 133.916 148.58 133.966C148.521 134.017 148.452 134.055 148.377 134.079C148.303 134.103 148.225 134.112 148.147 134.105L145.931 133.921Z" fill="#EBE1DA"/>
<path d="M97.1856 132.726C97.5096 133.006 97.948 133.031 98.165 132.78C98.382 132.53 98.2952 132.099 97.9713 131.819C97.6474 131.538 97.2089 131.514 96.9919 131.764C96.775 132.015 96.8617 132.445 97.1856 132.726Z" fill="#9CC49A"/>
<path d="M59.7787 145.169C59.896 145.361 60.1841 145.548 60.6427 145.729C62.4507 146.652 64.4321 147.164 66.5867 147.265C66.8534 147.276 67.0988 147.358 67.3228 147.513C68.5548 148.369 69.5387 148.993 70.0187 150.537C72.9147 159.889 81.6267 173.081 90.2587 177.601C92.4507 178.748 95.5014 180.137 99.4107 181.769C100.299 182.137 101.563 182.017 102.387 182.785C102.573 182.966 102.797 183.07 103.059 183.097C107.64 183.625 112.125 184.622 116.515 186.089C116.771 186.174 116.904 186.353 116.915 186.625L117.019 189.073C117.029 189.393 116.877 189.55 116.563 189.545C112.941 189.502 109.499 190.036 106.235 191.145C103.947 191.481 101.547 193.409 100.035 193.257C99.768 193.23 99.5254 193.297 99.3067 193.457C89.5227 200.681 85.8987 215.985 85.2107 227.721C60.2827 217.537 40.9707 197.049 30.2188 172.553L32.3947 173.569C32.6507 173.686 32.8934 173.668 33.1228 173.513L35.0507 172.233C35.2932 172.068 35.469 171.821 35.5467 171.537C36.5787 167.633 36.1227 169.153 39.2347 167.473C40.1147 166.998 40.9787 166.494 41.8267 165.961C41.9469 165.885 42.0463 165.781 42.1162 165.656C42.186 165.532 42.224 165.392 42.2267 165.249C42.2427 163.409 43.112 162.228 44.8347 161.705C45.1014 161.62 45.2987 161.452 45.4267 161.201C46.0987 159.857 50.7067 159.929 52.1787 159.849C52.3087 159.842 52.4337 159.796 52.5377 159.718C52.6417 159.64 52.7201 159.532 52.7627 159.409L53.5387 157.249C53.6134 157.036 53.7627 156.897 53.9867 156.833C56.1254 156.23 58.0267 155.153 59.6907 153.601C59.8046 153.492 59.9532 153.429 60.1096 153.422C60.2661 153.415 60.4201 153.464 60.5437 153.562C60.6674 153.659 60.7526 153.799 60.784 153.954C60.8153 154.109 60.7908 154.271 60.7147 154.409C60.4267 154.921 60.3734 155.454 60.5547 156.009C60.6667 156.34 60.8774 156.428 61.1867 156.273C66.2667 153.777 58.7787 148.297 59.7787 145.169Z" fill="#67AA79"/>
<path d="M89.021 158.488C94.937 158.478 99.7283 155.791 99.7225 152.486C99.7167 149.181 94.9161 146.51 89.0001 146.52C83.084 146.531 78.2928 149.218 78.2985 152.523C78.3043 155.828 83.1049 158.499 89.021 158.488Z" fill="#ED6735"/>
<path d="M120.139 148.961L118.107 147.625C122.011 145.353 127.171 149.369 124.267 153.409C122.523 155.841 120.251 156.579 117.451 155.625C117.131 155.518 116.971 155.294 116.971 154.953L116.955 153.001C116.95 152.649 117.123 152.451 117.475 152.409C121.123 151.987 122.011 150.838 120.139 148.961Z" fill="#ED6926"/>
<path d="M160.491 147.297C162.667 147.825 173.715 151.409 168.211 155.585C166.872 156.604 165.763 157.364 164.883 157.865L159.107 158.945C153.619 159.409 149.312 157.809 146.187 154.145C145.942 153.857 145.801 153.496 145.785 153.121C145.769 152.745 145.879 152.376 146.099 152.073C149.427 147.412 154.224 145.82 160.491 147.297Z" fill="#ED6735"/>
<path d="M118.106 147.625L120.138 148.961C120.346 151.457 119.13 151.145 117.202 151.009C116.93 150.988 116.773 150.844 116.73 150.577C116.458 148.844 116.917 147.86 118.106 147.625Z" fill="#FCE8A3"/>
<path d="M137.338 177.984C128.832 174.496 121.477 175.885 115.274 182.152C111.632 178.674 109.21 174.645 108.01 170.064L106.242 160.824C106.194 160.562 106.28 160.506 106.498 160.656C109.09 162.4 111.544 163.322 113.858 163.424C120.376 163.701 126.906 163.805 133.45 163.736C136.154 163.712 139.242 163.624 141.042 161.648C141.277 161.386 141.416 161.429 141.458 161.776C142.178 167.818 140.805 173.221 137.338 177.984ZM114.682 164.952C114.418 168.544 128.618 169.096 131.018 168.76C133.066 168.472 134.733 167.41 136.018 165.576C136.086 165.48 136.126 165.367 136.134 165.249C136.141 165.132 136.116 165.015 136.062 164.911C136.007 164.807 135.925 164.719 135.824 164.659C135.724 164.598 135.608 164.567 135.49 164.568L115.082 164.584C114.832 164.584 114.698 164.706 114.682 164.952Z" fill="#60080C"/>
<path d="M131.018 168.76C128.618 169.096 114.418 168.544 114.682 164.952C114.698 164.707 114.832 164.584 115.082 164.584L135.49 164.568C135.608 164.568 135.723 164.599 135.824 164.66C135.925 164.72 136.007 164.807 136.062 164.911C136.116 165.016 136.141 165.133 136.133 165.25C136.126 165.367 136.086 165.48 136.018 165.576C134.733 167.411 133.066 168.472 131.018 168.76Z" fill="#FCECDE"/>
<path d="M137.339 177.984L133.387 181.848C127.275 184.797 121.238 184.899 115.275 182.152C121.478 175.885 128.833 174.496 137.339 177.984Z" fill="#CF3722"/>
<path d="M106.235 191.145C106.299 191.502 106.238 191.787 106.051 192L104.651 192.833C102.87 193.393 101.243 194.505 99.7709 196.169C91.6216 205.39 87.2163 216.11 86.5549 228.329L85.2109 227.721C85.8989 215.985 89.5229 200.68 99.3069 193.456C99.5256 193.296 99.7682 193.23 100.035 193.256C101.547 193.408 103.947 191.481 106.235 191.145Z" fill="#9CC49A"/>
<path d="M140.979 191.225C148.904 192.819 154.256 196.961 157.035 203.649C160.069 210.955 162.064 219.563 163.019 229.473C163.04 229.675 162.949 229.785 162.747 229.801C162.389 229.827 162.179 229.619 162.115 229.177C160.379 216.881 155.811 195.001 141.035 192.041C141.104 191.929 141.085 191.657 140.979 191.225Z" fill="#9CC49A"/>
<path d="M106.05 192C106.12 192 106.189 192.008 106.258 192.024C106.354 192.051 106.389 192.112 106.362 192.208C105.813 194.48 106.178 196.851 107.458 199.32C110.573 205.091 115.88 208.664 123.378 210.04C120.92 210.179 119.213 210.032 118.258 209.6C110.466 206.072 106.042 201.488 104.65 192.832L106.05 192Z" fill="#56915F"/>
<path d="M139.107 198.257C135.198 205.078 129.955 209.006 123.379 210.041C115.88 208.665 110.574 205.092 107.459 199.321L108.323 199.185C108.654 199.132 108.72 198.972 108.523 198.705C107.99 197.969 107.88 197.164 108.195 196.289C108.302 195.996 108.486 195.934 108.747 196.105L110.203 197.049C110.379 197.161 110.571 197.222 110.779 197.233C116.027 197.473 117.395 192.705 122.403 193.073C122.595 193.089 122.707 193.193 122.739 193.385L122.779 193.585C122.783 193.609 122.796 193.631 122.815 193.646C122.834 193.66 122.859 193.667 122.883 193.665C125.374 193.233 127.792 193.481 130.139 194.409C130.347 194.494 130.451 194.425 130.451 194.201V193.633C130.451 193.329 130.566 193.276 130.795 193.473C133.371 195.673 137.451 195.457 139.107 198.257Z" fill="#FCB468"/>
<path d="M96.8829 211.32C93.2509 208.624 93.299 203.84 96.819 201.384C96.995 201.261 97.1736 201.253 97.355 201.36C99.651 202.664 101.755 204.344 102.299 207.104C102.347 207.349 102.307 207.578 102.179 207.792C101.144 209.61 99.6296 210.829 97.6349 211.448C97.5084 211.487 97.3743 211.496 97.2436 211.474C97.1129 211.452 96.9893 211.399 96.8829 211.32Z" fill="#83B890"/>
<path d="M156.035 232.104C155.8 232.424 155.371 232.515 154.747 232.376C154.843 230.352 154.843 213.28 155.187 212.984C155.299 212.883 155.358 212.909 155.363 213.064L156.035 232.104Z" fill="#15483B"/>
</svg>
