<svg width="256" height="256" viewBox="0 0 256 256" fill="none" xmlns="http://www.w3.org/2000/svg">
<path d="M81.4814 215.945L84.7454 218.017" stroke="#98D0D2" stroke-width="2"/>
<path d="M209.866 75.2017C205.802 68.7163 201.354 62.863 196.522 57.6417C181.674 41.5883 163.282 31.623 141.346 27.7457C132.994 26.2737 125.474 26.0097 118.786 26.9537C73.9455 33.3057 40.6335 71.0657 36.5695 115.578C35.0975 131.711 36.4789 146.924 40.7135 161.218C47.5615 184.3 61.1509 202.543 81.4815 215.946" stroke="#F5F5F2" stroke-width="2"/>
<path d="M209.865 75.2012C215.417 87.9532 218.684 100.076 219.665 111.569C223.404 155.271 207.972 190.164 173.369 216.249" stroke="#E1DFDC" stroke-width="2"/>
<path d="M173.369 216.249C171.7 212.126 169.244 207.292 166.001 201.745C161.601 194.209 157.625 191.553 149.241 188.209" stroke="#8BAFB4" stroke-width="2"/>
<path d="M149.242 188.209C147.583 187.516 145.895 187.239 144.178 187.377" stroke="#86A8AF" stroke-width="2"/>
<path d="M144.178 187.377L144.202 186.609" stroke="#F3C1AD" stroke-width="2"/>
<path d="M144.201 186.609C164.929 189.625 196.809 185.633 207.745 164.745C207.781 164.675 207.803 164.598 207.808 164.519C207.812 164.44 207.801 164.361 207.774 164.287C207.747 164.213 207.705 164.146 207.65 164.09C207.595 164.034 207.53 163.99 207.457 163.961C200.337 161.151 195.511 156.033 192.977 148.609" stroke="#85828A" stroke-width="2"/>
<path d="M192.978 148.61C195.026 146.94 196.61 145.38 197.73 143.93C201.927 138.484 202.604 132.874 199.762 127.098" stroke="#F3C1AD" stroke-width="2"/>
<path d="M199.761 127.097C209.793 91.641 196.913 50.561 159.321 37.665" stroke="#85828A" stroke-width="2"/>
<path d="M159.322 37.6652C148.116 33.9532 136.735 33.3905 125.178 35.9772C123.796 36.2865 120.674 36.1852 115.81 35.6732" stroke="#908B91" stroke-width="2"/>
<path d="M115.81 35.6731C90.4339 35.0891 67.4419 47.4731 56.3379 70.5691" stroke="#988E93" stroke-width="2"/>
<path d="M56.3378 70.5693C48.6738 87.5853 48.1778 106.369 53.0898 124.553" stroke="#908B91" stroke-width="2"/>
<path d="M53.0898 124.553L53.5298 126.257C53.5428 126.308 53.5689 126.354 53.6055 126.391C53.6421 126.428 53.688 126.455 53.7383 126.469C53.7887 126.483 53.8418 126.483 53.8923 126.47C53.9428 126.456 53.9889 126.43 54.0258 126.393C58.9538 121.492 63.5325 121.14 67.7618 125.337" stroke="#85828A" stroke-width="2"/>
<path d="M67.7612 125.338C64.5452 123.311 61.3452 122.999 58.1612 124.402C56.4705 125.143 55.2492 126.05 54.4972 127.122C54.3532 127.335 54.1692 127.503 53.9452 127.626C50.9132 129.306 51.7212 136.778 52.8892 139.578" stroke="#F4D6C2" stroke-width="2"/>
<path d="M52.8896 139.577C54.719 142.686 57.2016 145.492 60.3376 147.993" stroke="#F4C9B4" stroke-width="2"/>
<path d="M60.3374 147.993C58.2734 156.34 53.5561 161.961 46.1854 164.857C45.9134 164.964 45.8601 165.134 46.0254 165.369C59.5774 184.689 85.0574 189.641 106.897 186.617" stroke="#85828A" stroke-width="2"/>
<path d="M106.897 186.617L108.305 186.449" stroke="#818084" stroke-width="2"/>
<path d="M108.306 186.449C108.748 186.588 108.9 186.804 108.762 187.097" stroke="#F4D6C2" stroke-width="2"/>
<path d="M108.762 187.098L101.826 189.154" stroke="#8BAFB4" stroke-width="2"/>
<path d="M101.825 189.153C90.7854 193.505 85.4014 205.449 81.4814 215.945" stroke="#8EC8C6" stroke-width="2"/>
<path d="M144.178 187.377C143.852 187.51 143.647 187.777 143.562 188.177C142.042 195.297 133.714 198.753 127.306 198.777" stroke="#8E7D75" stroke-width="2"/>
<path d="M192.978 148.609C189.175 149.911 185.911 150.111 183.186 149.209" stroke="#8D5751" stroke-width="2"/>
<path d="M182.113 139.713C183.143 141.089 184.633 142.001 186.585 142.449C186.649 142.46 186.692 142.436 186.713 142.377C186.735 142.313 186.753 142.249 186.769 142.185C186.778 142.163 186.777 142.138 186.769 142.114C186.76 142.091 186.743 142.071 186.721 142.057L185.169 141.129C184.839 140.937 184.716 140.655 184.801 140.281C185.441 137.505 187.273 134.217 190.665 135.553C190.895 135.644 191.073 135.796 191.201 136.009C192.241 137.684 192.204 139.233 191.089 140.657C190.716 141.132 190.801 141.241 191.345 140.985C193.367 140.031 194.316 138.201 194.193 135.497" stroke="#FD825E" stroke-width="2"/>
<path d="M65.3618 79.1771C74.7644 69.1184 85.7271 61.105 98.2498 55.137C98.3105 55.1068 98.3594 55.0571 98.3886 54.9958C98.4178 54.9345 98.4257 54.8653 98.411 54.799C98.3963 54.7328 98.3598 54.6733 98.3074 54.6302C98.255 54.5871 98.1896 54.5627 98.1218 54.5611C85.1378 54.2251 71.5218 64.1211 64.4258 74.1691" stroke="#5E424D" stroke-width="2"/>
<path d="M62.154 73.1211C72.01 58.4651 87.226 49.0731 103.226 42.3691C103.357 42.3135 103.476 42.2315 103.573 42.1282C103.671 42.0249 103.746 41.9027 103.794 41.7691L103.994 41.2411C104.008 41.2007 104.012 41.1571 104.005 41.1148C103.997 41.0725 103.979 41.0329 103.951 40.9998C103.924 40.9668 103.888 40.9414 103.848 40.9262C103.808 40.911 103.764 40.9065 103.722 40.9131C86.994 43.1691 72.242 51.4891 63.522 66.3131C61.6874 69.4171 60.5407 72.5265 60.082 75.6411" stroke="#5E424D" stroke-width="2"/>
<path d="M144.202 186.61L136.154 184.866C135.391 184.7 134.996 184.226 134.97 183.442L134.77 177.762" stroke="#8D5751" stroke-width="2"/>
<path d="M84.7451 218.018L88.9931 220.074" stroke="#84BBBC" stroke-width="2"/>
<path d="M88.9941 220.073C92.2475 221.881 95.6341 223.337 99.1541 224.441" stroke="#81A2AA" stroke-width="2"/>
<path d="M99.1533 224.441C113.681 229.913 128.695 231.137 144.193 228.113" stroke="#84BBBC" stroke-width="2"/>
<path d="M144.193 228.114L156.761 224.338" stroke="#81A2AA" stroke-width="2"/>
<path d="M156.762 224.337L164.314 221.113" stroke="#7C9BA5" stroke-width="2"/>
<path d="M164.313 221.113L173.369 216.249" stroke="#81A2AA" stroke-width="2"/>
<path d="M116.97 177.562L116.922 183.69C116.922 184.015 116.764 184.22 116.45 184.306L108.306 186.45" stroke="#8A6960" stroke-width="2"/>
<path d="M106.897 186.617C106.972 185.929 107.249 185.188 107.729 184.393C107.762 184.338 107.784 184.276 107.793 184.212C107.802 184.148 107.798 184.083 107.782 184.02C107.765 183.958 107.737 183.899 107.697 183.848C107.658 183.797 107.609 183.754 107.553 183.721C106.521 183.137 104.953 182.809 104.113 182.433C93.6599 177.756 84.4866 171.268 76.5932 162.969C73.3452 159.545 69.2332 154.257 64.0332 151.945C62.9452 151.46 62.6519 150.447 63.1532 148.905" stroke="#1A1628" stroke-width="2"/>
<path d="M109.89 187.345C109.853 187.105 109.735 187.06 109.538 187.209C109.389 187.326 109.33 187.478 109.362 187.665C110.322 192.662 113.173 196.14 117.914 198.097C118.111 198.182 118.202 198.318 118.186 198.505C118.165 198.852 118.007 198.929 117.714 198.737C117.543 198.625 117.349 198.566 117.13 198.561C116.773 198.561 116.738 198.665 117.026 198.873C119.778 200.873 122.759 201.838 125.97 201.769C133.162 201.601 145.682 198.753 147.402 189.889C147.45 189.638 147.586 189.457 147.81 189.345C148.397 189.046 148.874 188.668 149.242 188.209" stroke="#266B7D" stroke-width="2"/>
<path d="M164.314 221.114C163.466 211.962 161.735 203.252 159.122 194.986C159.073 194.831 158.971 194.698 158.834 194.611C158.697 194.524 158.533 194.488 158.372 194.51C158.211 194.532 158.063 194.611 157.954 194.731C157.846 194.852 157.783 195.007 157.778 195.17L156.762 224.338" stroke="#266B7D" stroke-width="2"/>
<path d="M144.194 228.113C136.674 219.233 129.453 212.137 122.53 206.825C113.778 200.116 106.877 194.225 101.826 189.153" stroke="#2E8B94" stroke-width="2"/>
<path d="M75.6496 153.449L72.2656 147.737" stroke="#8A6960" stroke-width="2"/>
<path d="M72.2657 147.737C72.4684 144.324 72.1057 141.134 71.1777 138.169" stroke="#FDB290" stroke-width="2"/>
<path d="M71.1773 138.169C70.0573 135.617 68.7133 133.297 65.8253 132.545C61.42 131.393 58.9186 133.11 58.3213 137.697" stroke="#FE9773" stroke-width="2"/>
<path d="M58.3216 137.697C57.3723 139.308 56.1776 139.143 54.7376 137.201C54.6587 137.097 54.5478 137.02 54.4212 136.983C54.2946 136.945 54.1588 136.949 54.0336 136.993C53.351 137.239 52.9696 138.1 52.8896 139.577" stroke="#FDB290" stroke-width="2"/>
<path d="M72.2653 147.737C69.364 149.161 66.3267 149.551 63.1533 148.905" stroke="#895C52" stroke-width="2"/>
<path d="M63.1539 148.905C62.0446 148.804 61.1059 148.5 60.3379 147.993" stroke="#8D5F58" stroke-width="2"/>
<path d="M99.1541 224.441C98.6528 223.406 98.4395 222.62 98.5141 222.081C98.5728 221.708 98.6021 221.5 98.6021 221.457C98.4421 212.422 98.2288 203.316 97.9621 194.137C97.959 194.043 97.9262 193.952 97.8685 193.878C97.8108 193.803 97.7312 193.749 97.6408 193.722C97.5505 193.696 97.454 193.698 97.3652 193.73C97.2764 193.761 97.1998 193.82 97.1461 193.897C97.0501 194.041 96.9595 194.281 96.8741 194.617C94.6768 203.038 93.1728 211.606 92.3621 220.321C92.3408 220.566 92.2075 220.668 91.9621 220.625L88.9941 220.073" stroke="#2E8B94" stroke-width="2"/>
<path d="M199.761 127.097C193.969 120.145 184.665 121.481 182.121 130.161" stroke="#8D5751" stroke-width="2"/>
<path d="M182.121 130.162C182.057 130.252 181.975 130.311 181.874 130.338C181.836 130.348 181.796 130.35 181.758 130.341C181.719 130.333 181.684 130.316 181.654 130.29C181.624 130.265 181.6 130.233 181.586 130.196C181.571 130.16 181.565 130.121 181.569 130.082C182.617 117.674 183.057 108.122 173.865 98.7936C172.857 97.775 171.559 96.943 169.969 96.2976C150.577 88.4656 134.082 79.2496 124.314 60.0336C123.903 59.2283 123.497 59.231 123.097 60.0416C114.217 77.9536 94.9855 86.8896 76.9855 93.5936C74.6922 94.4523 73.0788 95.6523 72.1455 97.1936" stroke="#8D5F58" stroke-width="2"/>
<path d="M72.1457 97.1934C69.7244 101.023 68.5351 104.281 68.5777 106.969C68.6791 114.175 69.3991 121.233 70.7377 128.145C71.2977 131.041 70.9964 131.159 69.8337 128.497C69.5084 127.761 68.8177 126.708 67.7617 125.337" stroke="#8E6C66" stroke-width="2"/>
<path d="M159.322 37.665C158.015 38.033 157.986 39.097 159.234 40.857C159.389 41.0704 159.591 41.2197 159.842 41.305C161.917 41.993 163.101 43.4144 163.394 45.569C163.634 47.369 158.914 53.857 157.906 55.265C156.762 56.873 156.378 58.097 153.986 57.817C153.725 57.7904 153.589 57.9104 153.578 58.177C153.578 58.3157 153.645 58.377 153.778 58.361C154.279 58.297 154.319 58.4384 153.898 58.785C153.034 59.513 152.85 62.001 152.602 63.097C152.544 63.3472 152.424 63.5783 152.251 63.7683C152.079 63.9583 151.86 64.1007 151.617 64.1818C151.373 64.263 151.113 64.2802 150.861 64.2317C150.609 64.1832 150.374 64.0707 150.178 63.905C149.666 63.4677 149.063 63.3957 148.37 63.689C148.242 63.7424 148.178 63.8384 148.178 63.977C148.178 64.0837 148.186 64.201 148.202 64.329C148.206 64.3584 148.204 64.3884 148.197 64.4172C148.189 64.4461 148.175 64.4732 148.157 64.497C148.138 64.5208 148.115 64.5409 148.088 64.556C148.062 64.5711 148.032 64.581 148.002 64.585L145.882 64.841C145.589 64.8784 145.33 64.8037 145.106 64.617C144.775 64.3397 144.399 64.129 143.978 63.985C143.737 63.9013 143.524 63.7548 143.362 63.561C136.813 55.9077 131.125 47.657 126.298 38.809C126.25 38.7228 126.171 38.6585 126.077 38.6301C125.983 38.6017 125.881 38.6114 125.794 38.657L125.402 38.873C125.173 38.9957 125.111 39.177 125.218 39.417C126.234 41.665 127.138 43.465 128.066 46.073C130.25 52.225 135.026 58.441 138.962 63.305C145.146 70.945 153.914 77.433 162.234 83.089C162.479 83.2544 162.455 83.3504 162.162 83.377C161.682 83.417 161.266 83.393 160.834 83.129C144.642 73.145 130.922 62.521 124.202 44.977C124.159 44.8696 124.086 44.7768 123.991 44.7099C123.897 44.643 123.785 44.6051 123.67 44.6008C123.555 44.5966 123.442 44.6262 123.345 44.6859C123.247 44.7457 123.17 44.833 123.122 44.937C113.594 65.217 93.8738 76.809 74.0418 84.969C66.7378 87.969 62.4498 92.529 61.4818 100.641C61.4552 100.86 61.3778 101.06 61.2498 101.241C60.8392 101.806 60.6818 102.425 60.7778 103.097C60.8152 103.369 60.6978 103.505 60.4258 103.505C56.8018 103.497 60.2338 119.025 60.4978 121.025C60.5405 121.324 60.4178 121.513 60.1298 121.593C58.3592 122.1 56.8338 123.012 55.5538 124.329C55.3725 124.51 55.1698 124.542 54.9458 124.425C54.1512 124.014 53.5325 124.057 53.0898 124.553" stroke="#2A2135" stroke-width="2"/>
<path d="M56.3379 70.5693C57.4366 70.8947 58.2419 71.4573 58.7539 72.2573C58.8262 72.3703 58.8577 72.504 58.8431 72.6354C58.8285 72.7668 58.7687 72.8878 58.6739 72.9773C57.4259 74.1613 56.8792 75.6547 57.0339 77.4573C57.0637 77.7839 57.212 78.0605 57.4522 78.2373C57.6923 78.4141 58.0085 78.4794 58.3436 78.4215C58.6786 78.3635 59.0106 78.1861 59.2795 77.9213C59.5484 77.6565 59.7365 77.3217 59.8099 76.9773L60.0819 75.6413" stroke="#3D2D3E" stroke-width="2"/>
<path d="M60.082 75.6411L62.154 73.1211" stroke="#573E4B" stroke-width="2"/>
<path d="M62.1533 73.1212C63.0387 72.9186 63.796 73.2679 64.4253 74.1692" stroke="#3D2D3E" stroke-width="2"/>
<path d="M64.4253 74.1689C62.6706 77.1769 61.3266 80.3743 60.3933 83.7609C60.34 83.9423 60.3827 83.9663 60.5213 83.8329L65.3613 79.1769" stroke="#573E4B" stroke-width="2"/>
<path d="M65.3613 79.1769C66.172 79.6355 66.7907 80.1848 67.2173 80.8248C67.3067 80.961 67.423 81.0774 67.5592 81.167C67.6954 81.2566 67.8487 81.3174 68.0096 81.3459C68.1705 81.3743 68.3357 81.3697 68.4952 81.3324C68.6547 81.2951 68.8052 81.2259 68.9373 81.1289C73.4653 77.8089 77.9293 74.0968 82.5533 71.1208C88.7453 67.1422 94.9587 63.1982 101.193 59.2888C111.009 53.1368 116.433 46.0968 123.321 37.8089C123.497 37.5955 123.449 37.4622 123.177 37.4089C120.921 36.9609 115.969 37.6489 115.809 35.6729" stroke="#3D2D3E" stroke-width="2"/>
<path d="M118.33 177.657C117.791 179.428 117.86 181.148 118.538 182.817C118.644 183.084 118.842 183.223 119.13 183.233C122.735 183.367 124.959 185.327 125.802 189.113C126.788 193.551 127.29 196.772 127.306 198.777" stroke="#FCAB89" stroke-width="2"/>
<path d="M127.306 198.778C119.122 199.106 111.722 195.514 109.89 187.346" stroke="#8F928B" stroke-width="2"/>
<path d="M109.89 187.345C109.927 187.185 109.908 187.041 109.834 186.913C109.7 186.684 109.538 186.663 109.346 186.849C109.18 187.015 108.986 187.097 108.762 187.097" stroke="#949990" stroke-width="2"/>
<path d="M129.594 73.6816L128.85 75.7296C128.765 75.959 128.775 76.1883 128.882 76.4176C129.293 77.287 129.946 77.8096 130.842 77.9856C131.131 78.0441 131.403 78.1667 131.638 78.3443C131.873 78.5219 132.065 78.7501 132.2 79.0119C132.335 79.2737 132.41 79.5626 132.419 79.8571C132.427 80.1517 132.37 80.4444 132.25 80.7136C131.973 81.3483 131.887 82.0016 131.994 82.6736C132.037 82.9403 131.999 83.1936 131.882 83.4336C130.93 85.4736 131.514 87.4176 131.346 89.1056C131.106 91.4976 130.554 93.6736 131.442 96.0496C131.786 96.9696 132.826 99.6576 132.186 100.474C132.121 100.558 132.078 100.657 132.058 100.761C132.039 100.865 132.044 100.972 132.074 101.074C132.946 103.842 131.21 105.842 132.474 108.362C132.591 108.602 132.637 108.855 132.61 109.122C132.162 113.618 132.866 118.57 132.762 122.474C132.722 123.882 133.354 124.778 134.05 125.898C134.194 126.132 134.25 126.386 134.218 126.658C133.914 129.274 134.362 131.354 133.682 133.986C132.33 139.186 134.258 143.77 134.25 148.41C134.25 148.703 134.365 148.94 134.594 149.122C135.65 149.948 136.639 150.852 137.562 151.834C137.765 152.047 137.858 152.303 137.842 152.602L137.722 154.866" stroke="#FED1B1" stroke-width="2"/>
<path d="M137.722 154.865C130.09 158.556 122.46 158.377 114.834 154.329C114.503 154.153 114.308 153.796 114.25 153.257C114.223 153.028 114.095 152.895 113.866 152.857C111.018 152.425 111.266 155.449 112.546 156.729C112.59 156.775 112.647 156.808 112.709 156.823C112.772 156.838 112.837 156.834 112.897 156.813C112.958 156.792 113.011 156.754 113.051 156.704C113.091 156.654 113.115 156.593 113.122 156.529L113.25 155.497C113.258 155.442 113.28 155.39 113.314 155.345C113.348 155.301 113.392 155.266 113.442 155.243C113.493 155.221 113.548 155.212 113.603 155.217C113.657 155.222 113.709 155.242 113.754 155.273C116.01 156.82 118.412 157.94 120.962 158.633" stroke="#C28674" stroke-width="2"/>
<path d="M120.961 158.633L117.545 162.217C117.337 162.435 117.279 162.691 117.369 162.985L119.529 169.993C119.604 170.227 119.601 170.462 119.521 170.697C118.668 173.289 118.876 175.697 120.145 177.921" stroke="#FED1B1" stroke-width="2"/>
<path d="M120.146 177.921L118.33 177.657" stroke="#FDB593" stroke-width="2"/>
<path d="M118.33 177.658C117.588 177.812 117.135 177.78 116.97 177.562" stroke="#FEC9A9" stroke-width="2"/>
<path d="M116.969 177.561C100.513 175.313 84.5374 168.129 75.6494 153.449" stroke="#8A736A" stroke-width="2"/>
<path d="M75.6496 153.449L76.8096 153.153C77.0389 153.094 77.2309 152.977 77.3856 152.801L79.1216 150.865C79.2709 150.7 79.2896 150.521 79.1776 150.329C78.2656 148.766 77.6816 146.782 77.4256 144.377C75.7776 128.66 75.2149 113.966 75.7376 100.297" stroke="#FEC9A9" stroke-width="2"/>
<path d="M169.458 105.153C165.671 105.964 164.026 107.583 164.522 110.009" stroke="#FEC7A7" stroke-width="2"/>
<path d="M164.522 110.01C161.173 105.274 156.738 102.85 151.218 102.738C148.706 102.682 145.21 103.61 143.842 105.61C142.45 107.65 143.314 109.97 145.794 110.362C146.05 110.399 146.295 110.367 146.53 110.266C154.978 106.642 161.786 110.962 167.522 117.45" stroke="#8E736F" stroke-width="2"/>
<path d="M167.521 117.449L163.969 120.817C163.91 120.876 163.86 120.889 163.817 120.857C163.79 120.836 163.769 120.812 163.753 120.785C163.721 120.721 163.689 120.721 163.657 120.785C163.374 121.425 162.961 122.017 162.417 122.561C162.22 122.753 162.204 122.961 162.369 123.185C162.609 123.511 162.841 123.831 163.065 124.145C163.214 124.359 163.182 124.54 162.969 124.689C162.857 124.764 162.71 124.809 162.529 124.825" stroke="#FEC7A7" stroke-width="2"/>
<path d="M162.529 124.825C154.969 119.081 145.353 123.561 144.945 133.177" stroke="#8A7168" stroke-width="2"/>
<path d="M144.945 133.177C144.673 133.06 144.385 133.161 144.081 133.481C143.905 133.662 143.817 133.876 143.817 134.121C143.748 139.15 145.758 142.638 149.849 144.585" stroke="#FEE6D7" stroke-width="2"/>
<path d="M149.85 144.585C146.89 145.729 148.002 147.873 146.442 149.561C146.22 149.8 146.055 150.086 145.96 150.398C145.865 150.71 145.842 151.039 145.893 151.361C145.943 151.683 146.067 151.99 146.253 152.257C146.44 152.525 146.685 152.746 146.97 152.905C152.884 156.185 159.29 156.854 166.186 154.913" stroke="#FDBA99" stroke-width="2"/>
<path d="M166.186 154.913C167.295 155.254 167.94 156.113 168.122 157.489C168.154 157.729 168.263 157.929 168.45 158.089C168.78 158.372 168.948 158.737 168.954 159.185C168.954 159.43 169.036 159.649 169.202 159.841L170.626 161.497" stroke="#FEC7A7" stroke-width="2"/>
<path d="M170.626 161.497C160.818 170.953 148.426 176.321 134.77 177.761" stroke="#8E736F" stroke-width="2"/>
<path d="M134.77 177.762C129.879 178.21 125.004 178.263 120.146 177.922" stroke="#FDB291" stroke-width="2"/>
<path d="M120.962 158.633C128.746 160.633 134.546 158.889 141.37 154.633C141.621 154.479 141.693 154.263 141.586 153.985C141.239 153.132 140.589 152.583 139.634 152.337C139.25 152.241 139.13 152.377 139.274 152.745C139.642 153.673 139.125 154.38 137.722 154.865" stroke="#C28472" stroke-width="2"/>
<path d="M182.121 130.161C183.137 131.977 193.953 125.305 195.401 135.081C195.438 135.359 195.321 135.527 195.049 135.585C194.782 135.639 194.497 135.609 194.193 135.497" stroke="#FC9E7B" stroke-width="2"/>
<path d="M194.194 135.497C192.034 129.873 180.514 131.673 182.114 139.713" stroke="#FD8A65" stroke-width="2"/>
<path d="M182.113 139.713C179.014 142.684 179.372 145.849 183.185 149.209" stroke="#FC9E7B" stroke-width="2"/>
<path d="M183.186 149.209L179.586 148.065" stroke="#8D5F58" stroke-width="2"/>
<path d="M179.585 148.065C178.417 148.209 177.622 148.993 177.201 150.417C177.094 150.775 176.862 150.905 176.505 150.809C176.009 150.676 175.598 150.412 175.273 150.017C175.129 149.847 175.073 149.649 175.105 149.425L175.425 147.385C175.462 147.156 175.406 146.953 175.257 146.777C174.772 146.223 174.606 145.556 174.761 144.777C176.569 135.425 176.153 125.497 175.345 116.793C174.865 111.636 172.902 107.756 169.457 105.153" stroke="#FDB290" stroke-width="2"/>
<path d="M169.458 105.154C161.418 99.7456 151.77 94.6656 145.218 89.4256C139.442 84.807 134.234 79.559 129.594 73.6816" stroke="#FDBA99" stroke-width="2"/>
<path d="M129.593 73.6808L126.417 70.0808C126.374 70.0316 126.321 69.9928 126.26 69.9673C126.2 69.9417 126.135 69.93 126.069 69.9331C126.003 69.9362 125.938 69.9539 125.879 69.985C125.821 70.0161 125.769 70.0597 125.729 70.1128C113.769 86.2968 94.2413 95.0488 75.7373 100.297" stroke="#FDBC9B" stroke-width="2"/>
<path d="M75.7375 100.297L72.1455 102.225C72.0632 102.27 71.9689 102.288 71.8758 102.277C71.7827 102.266 71.6955 102.225 71.6266 102.162C71.5576 102.098 71.5104 102.014 71.4916 101.922C71.4727 101.83 71.4832 101.735 71.5215 101.649C72.0868 100.327 72.2948 98.8414 72.1455 97.1934" stroke="#FDB290" stroke-width="2"/>
<path d="M179.586 148.065C177.245 153.201 174.258 157.679 170.626 161.497" stroke="#8E6C66" stroke-width="2"/>
<path d="M166.186 154.913C169.13 153.617 175.378 148.225 170.954 144.993C169.162 143.681 167.503 142.753 165.978 142.209C164.898 141.817 163.842 142.273 162.722 141.481" stroke="#FDB290" stroke-width="2"/>
<path d="M162.722 141.481C163.058 140.814 163.452 140.334 163.906 140.041" stroke="#FEDECE" stroke-width="2"/>
<path d="M163.905 140.041C165.777 139.105 167.249 134.929 167.873 133.393C167.929 133.257 168.011 133.133 168.114 133.03C168.217 132.927 168.339 132.846 168.473 132.793L170.473 131.985C170.53 131.962 170.578 131.921 170.609 131.868C170.64 131.815 170.653 131.754 170.645 131.693C170.638 131.632 170.611 131.575 170.568 131.531C170.526 131.487 170.47 131.458 170.409 131.449L168.233 131.121C167.999 131.084 167.823 130.961 167.705 130.753C166.42 128.444 164.695 126.468 162.529 124.825" stroke="#8A6960" stroke-width="2"/>
<path d="M71.1773 138.169C70.724 139.054 70.0466 139.524 69.1453 139.577C68.8573 139.598 68.692 139.468 68.6493 139.185C68.436 137.766 67.892 136.476 67.0173 135.313C66.852 135.094 66.6386 134.953 66.3773 134.889C63.2306 134.073 61.132 135.164 60.0813 138.161C59.9906 138.417 60.0306 138.652 60.2013 138.865C60.644 139.43 60.8386 140.076 60.7853 140.801C60.7533 141.244 60.6173 141.278 60.3773 140.905L58.3213 137.697" stroke="#FD8A65" stroke-width="2"/>
<path d="M162.722 141.481C159.034 143.217 153.994 145.289 149.85 144.585" stroke="#FDD1C0" stroke-width="2"/>
<path d="M163.906 140.042C166.874 133.418 163.362 126.154 155.994 126.154C155.942 126.151 155.892 126.166 155.85 126.196C155.808 126.227 155.779 126.27 155.765 126.32C155.752 126.37 155.757 126.423 155.778 126.47C155.799 126.516 155.836 126.555 155.882 126.578C159.754 128.679 161.188 131.914 160.186 136.282C157.618 147.434 144.794 143.242 144.946 133.178" stroke="#8A8890" stroke-width="2"/>
<path d="M164.521 110.009C165.999 112.131 166.999 114.611 167.521 117.449" stroke="#8E6C66" stroke-width="2"/>
<path d="M104.353 104.665C99.4094 102.025 94.7587 101.999 90.4014 104.585C86.3854 106.969 83.3374 110.097 83.3214 114.913C83.3197 114.997 83.3437 115.078 83.3899 115.148C83.4361 115.217 83.5024 115.27 83.58 115.301C83.6575 115.331 83.7425 115.337 83.8236 115.318C83.9046 115.299 83.9778 115.255 84.0334 115.193C89.4147 109.273 95.8574 107.601 103.361 110.177C106.953 111.417 107.393 106.281 104.353 104.665Z" stroke="#8E7671" stroke-width="2"/>
<path d="M86.1692 139.833C86.1479 140.35 85.8199 140.873 85.1852 141.401C85.0856 141.483 85.01 141.591 84.9664 141.712C84.9227 141.833 84.9126 141.963 84.9372 142.089C85.1239 143.108 84.9559 144.028 84.4332 144.849C84.3576 144.965 84.2484 145.055 84.12 145.107C83.9916 145.16 83.8499 145.173 83.7132 145.145C82.0972 144.809 80.5479 145.006 79.0652 145.737C78.975 145.779 78.9019 145.85 78.8583 145.94C78.8147 146.029 78.8032 146.13 78.8257 146.227C78.8483 146.324 78.9035 146.41 78.9821 146.471C79.0607 146.532 79.1579 146.563 79.2572 146.561L82.9212 146.593C83.0198 146.592 83.1174 146.614 83.2069 146.656C83.2964 146.697 83.3756 146.759 83.439 146.835C83.5024 146.911 83.5483 147.001 83.5736 147.097C83.5989 147.194 83.6028 147.295 83.5852 147.393C83.3559 148.625 82.8199 149.705 81.9772 150.633C81.8427 150.782 81.7696 150.976 81.7725 151.176C81.7755 151.377 81.8544 151.568 81.9932 151.713C87.3212 157.257 98.6492 156.801 104.793 152.777C107.649 150.913 108.353 147.409 105.625 145.057C104.873 144.412 104.156 143.742 103.473 143.049" stroke="#FEC9A9" stroke-width="2"/>
<path d="M103.474 143.049C107.063 140.66 108.394 136.969 107.466 131.977C107.412 131.684 107.26 131.537 107.01 131.537C106.732 131.537 106.596 131.676 106.602 131.953C106.607 132.246 106.559 132.412 106.458 132.449" stroke="#FEE8D9" stroke-width="2"/>
<path d="M106.457 132.45C106.217 127.047 103.878 123.807 99.4412 122.73C92.5772 121.066 86.4972 125.346 83.6572 131.514C83.5505 131.743 83.3692 131.844 83.1132 131.818L80.6492 131.554C80.5385 131.538 80.426 131.562 80.3315 131.622C80.2371 131.681 80.1668 131.772 80.1332 131.879C80.0996 131.986 80.1049 132.101 80.1481 132.204C80.1913 132.307 80.2696 132.391 80.3692 132.442C83.4838 134.175 85.4172 136.639 86.1692 139.834" stroke="#8A736A" stroke-width="2"/>
<path d="M106.457 132.449C106.193 137.129 103.481 143.105 98.0334 142.505C90.6174 141.697 86.4413 127.257 96.3933 127.489C96.692 127.495 96.796 127.356 96.7053 127.073C96.6013 126.737 96.2014 126.529 95.8334 126.537C87.2254 126.841 84.6653 133.369 87.2093 141.025" stroke="#8A8890" stroke-width="2"/>
<path d="M87.2099 141.025L86.1699 139.833" stroke="#8A6960" stroke-width="2"/>
<path d="M103.473 143.049C101.574 143.743 99.8143 143.975 98.193 143.745C94.353 143.196 90.6917 142.289 87.209 141.025" stroke="#FEDECE" stroke-width="2"/>
<path d="M124.521 145.369L123.681 145.209C123.578 145.19 123.471 145.21 123.38 145.263C123.289 145.317 123.22 145.401 123.186 145.501C123.153 145.6 123.156 145.709 123.195 145.807C123.234 145.905 123.308 145.985 123.401 146.033C127.841 148.169 132.681 142.809 128.377 139.761C128.164 139.612 128.047 139.665 128.025 139.921C127.823 142.279 126.759 144.076 124.833 145.313C124.741 145.37 124.63 145.39 124.521 145.369Z" stroke="#F8A67A" stroke-width="2"/>
<path d="M102.194 130.017L101.13 131.321C101.096 131.362 101.07 131.41 101.054 131.462C101.038 131.513 101.033 131.567 101.038 131.621C101.043 131.674 101.059 131.726 101.084 131.773C101.11 131.821 101.144 131.863 101.186 131.897L101.354 132.033C101.523 132.171 101.71 132.285 101.903 132.368C102.095 132.451 102.291 132.502 102.477 132.518C102.664 132.533 102.838 132.513 102.99 132.459C103.141 132.405 103.268 132.317 103.362 132.201L103.506 132.033C103.6 131.917 103.661 131.775 103.683 131.615C103.705 131.455 103.689 131.28 103.635 131.1C103.582 130.92 103.492 130.739 103.371 130.567C103.25 130.395 103.1 130.235 102.93 130.097L102.762 129.961C102.679 129.894 102.573 129.863 102.466 129.873C102.36 129.884 102.262 129.935 102.194 130.017Z" stroke="#818084" stroke-width="2"/>
<path d="M153.01 129.649L152.826 130.601C152.773 130.873 152.885 130.999 153.162 130.977C153.802 130.924 154.207 130.617 154.378 130.057C154.419 129.921 154.423 129.777 154.389 129.639C154.355 129.501 154.285 129.375 154.186 129.273C153.818 128.889 153.375 128.615 152.858 128.449C152.459 128.322 151.974 128.315 151.503 128.429C151.032 128.543 150.61 128.769 150.324 129.061C150.038 129.353 149.91 129.689 149.966 129.999C150.022 130.309 150.258 130.571 150.626 130.729L151.738 131.217C151.788 131.24 151.844 131.247 151.899 131.237C151.953 131.227 152.003 131.201 152.042 131.162C152.082 131.123 152.108 131.073 152.118 131.018C152.128 130.964 152.121 130.908 152.098 130.857C151.757 130.1 151.911 129.577 152.562 129.289C152.941 129.124 153.09 129.244 153.01 129.649Z" stroke="#8A8890" stroke-width="2"/>
<path d="M148.218 137.825C147.89 139.737 149.866 141.857 151.602 141.793C156.546 141.625 161.378 136.553 158.658 131.593C158.568 131.431 158.426 131.304 158.255 131.233C158.084 131.161 157.894 131.149 157.715 131.199C157.536 131.249 157.38 131.358 157.271 131.508C157.162 131.658 157.106 131.84 157.114 132.025C157.322 137.297 152.506 137.033 148.69 137.385C148.423 137.412 148.266 137.559 148.218 137.825Z" stroke="#261E2F" stroke-width="2"/>
<path d="M209.866 75.2017C215.418 87.9537 218.684 100.076 219.666 111.57C223.404 155.271 207.972 190.164 173.37 216.25C171.7 212.127 169.244 207.292 166.002 201.746C161.602 194.21 157.626 191.554 149.242 188.21C147.583 187.516 145.895 187.239 144.178 187.378L144.202 186.61C164.93 189.626 196.81 185.634 207.746 164.746C207.782 164.675 207.803 164.598 207.808 164.519C207.813 164.44 207.801 164.361 207.774 164.287C207.747 164.214 207.705 164.146 207.65 164.09C207.596 164.034 207.53 163.99 207.458 163.962C200.338 161.151 195.511 156.034 192.978 148.61C195.026 146.94 196.61 145.38 197.73 143.93C201.927 138.484 202.604 132.874 199.762 127.098C209.794 91.6417 196.914 50.5617 159.322 37.6657C148.116 33.9537 136.735 33.391 125.178 35.9777C123.796 36.287 120.674 36.1857 115.81 35.6737C90.4335 35.0897 67.4415 47.4737 56.3375 70.5697C48.6735 87.5857 48.1775 106.37 53.0895 124.554L53.5295 126.258C53.5425 126.308 53.5686 126.355 53.6052 126.392C53.6418 126.429 53.6877 126.456 53.738 126.47C53.7884 126.484 53.8415 126.484 53.892 126.47C53.9425 126.457 53.9886 126.431 54.0255 126.394C58.9535 121.492 63.5322 121.14 67.7615 125.338C64.5455 123.311 61.3455 122.999 58.1615 124.402C56.4709 125.143 55.2495 126.05 54.4975 127.122C54.3535 127.335 54.1695 127.503 53.9455 127.626C50.9135 129.306 51.7215 136.778 52.8895 139.578C54.7189 142.687 57.2015 145.492 60.3375 147.994C58.2735 156.34 53.5562 161.962 46.1855 164.858C45.9135 164.964 45.8602 165.135 46.0255 165.37C59.5775 184.69 85.0575 189.642 106.898 186.618L108.306 186.45C108.748 186.588 108.9 186.804 108.762 187.098L101.826 189.154C90.7855 193.506 85.4015 205.45 81.4815 215.946C61.1509 202.543 47.5615 184.3 40.7135 161.218C36.4789 146.924 35.0975 131.711 36.5695 115.578C40.6335 71.0657 73.9455 33.3057 118.786 26.9537C125.474 26.0097 132.994 26.2737 141.346 27.7457C163.282 31.623 181.674 41.5883 196.522 57.6417C201.354 62.863 205.802 68.7163 209.866 75.2017Z" fill="#EBECE6"/>
<path d="M159.322 37.6652C158.015 38.0332 157.986 39.0972 159.234 40.8572C159.388 41.0705 159.591 41.2199 159.842 41.3052C161.916 41.9932 163.1 43.4145 163.394 45.5692C163.634 47.3692 158.914 53.8572 157.906 55.2652C156.762 56.8732 156.378 58.0972 153.986 57.8172C153.724 57.7905 153.588 57.9105 153.578 58.1772C153.578 58.3159 153.644 58.3772 153.778 58.3612C154.279 58.2972 154.319 58.4385 153.898 58.7852C153.034 59.5132 152.85 62.0012 152.602 63.0972C152.544 63.3473 152.424 63.5785 152.251 63.7685C152.079 63.9584 151.86 64.1008 151.617 64.182C151.373 64.2631 151.113 64.2803 150.861 64.2318C150.609 64.1833 150.374 64.0709 150.178 63.9052C149.666 63.4679 149.063 63.3959 148.37 63.6892C148.242 63.7425 148.178 63.8385 148.178 63.9772C148.178 64.0839 148.186 64.2012 148.202 64.3292C148.206 64.3586 148.204 64.3885 148.197 64.4174C148.189 64.4462 148.175 64.4733 148.157 64.4971C148.138 64.521 148.115 64.541 148.088 64.5561C148.062 64.5712 148.032 64.5811 148.002 64.5852L145.882 64.8412C145.588 64.8785 145.33 64.8039 145.106 64.6172C144.775 64.3399 144.399 64.1292 143.978 63.9852C143.737 63.9015 143.524 63.7549 143.362 63.5612C136.812 55.9078 131.124 47.6572 126.298 38.8092C126.25 38.7229 126.171 38.6587 126.077 38.6303C125.983 38.6019 125.881 38.6115 125.794 38.6572L125.402 38.8732C125.172 38.9959 125.111 39.1772 125.218 39.4172C126.234 41.6652 127.138 43.4652 128.066 46.0732C130.25 52.2252 135.026 58.4412 138.962 63.3052C145.146 70.9452 153.914 77.4332 162.234 83.0892C162.479 83.2545 162.455 83.3505 162.162 83.3772C161.682 83.4172 161.266 83.3932 160.834 83.1292C144.642 73.1452 130.922 62.5212 124.202 44.9772C124.159 44.8698 124.086 44.7769 123.991 44.71C123.897 44.6432 123.785 44.6052 123.67 44.601C123.555 44.5967 123.442 44.6263 123.344 44.6861C123.247 44.7458 123.17 44.8331 123.122 44.9372C113.594 65.2172 93.8738 76.8092 74.0418 84.9692C66.7378 87.9692 62.4498 92.5292 61.4818 100.641C61.4552 100.86 61.3778 101.06 61.2498 101.241C60.8391 101.807 60.6818 102.425 60.7778 103.097C60.8151 103.369 60.6978 103.505 60.4258 103.505C56.8018 103.497 60.2338 119.025 60.4978 121.025C60.5405 121.324 60.4178 121.513 60.1298 121.593C58.3591 122.1 56.8338 123.012 55.5538 124.329C55.3725 124.511 55.1698 124.543 54.9458 124.425C54.1511 124.015 53.5325 124.057 53.0898 124.553C48.1778 106.369 48.6738 87.5852 56.3378 70.5692C57.4365 70.8945 58.2418 71.4572 58.7538 72.2572C58.8261 72.3701 58.8577 72.5038 58.8431 72.6352C58.8284 72.7667 58.7686 72.8876 58.6738 72.9772C57.4258 74.1612 56.8791 75.6545 57.0338 77.4572C57.0636 77.7837 57.2119 78.0603 57.4521 78.2371C57.6923 78.4139 58.0084 78.4793 58.3435 78.4213C58.6786 78.3634 59.0105 78.186 59.2794 77.9212C59.5483 77.6564 59.7364 77.3216 59.8098 76.9772L60.0818 75.6412L62.1538 73.1212C63.0391 72.9185 63.7965 73.2679 64.4258 74.1692C62.6711 77.1772 61.3271 80.3745 60.3938 83.7612C60.3405 83.9425 60.3831 83.9665 60.5218 83.8332L65.3618 79.1772C66.1725 79.6359 66.7911 80.1852 67.2178 80.8252C67.3072 80.9613 67.4235 81.0778 67.5597 81.1673C67.6959 81.2569 67.8491 81.3178 68.0101 81.3462C68.171 81.3747 68.3362 81.3701 68.4957 81.3328C68.6552 81.2955 68.8056 81.2262 68.9378 81.1292C73.4658 77.8092 77.9298 74.0972 82.5538 71.1212C88.7458 67.1425 94.9592 63.1985 101.194 59.2892C111.01 53.1372 116.434 46.0972 123.322 37.8092C123.498 37.5959 123.45 37.4625 123.178 37.4092C120.922 36.9612 115.97 37.6492 115.81 35.6732C120.674 36.1852 123.796 36.2865 125.178 35.9772C136.735 33.3905 148.116 33.9532 159.322 37.6652Z" fill="#35293C"/>
<path d="M115.81 35.6731C115.97 37.6491 120.922 36.9611 123.178 37.4091C123.45 37.4624 123.498 37.5957 123.322 37.8091C116.434 46.0971 111.01 53.1371 101.194 59.2891C94.9592 63.1984 88.7459 67.1424 82.5539 71.1211C77.9299 74.0971 73.4659 77.8091 68.9379 81.1291C68.8057 81.2261 68.6553 81.2953 68.4958 81.3326C68.3363 81.37 68.1711 81.3745 68.0101 81.3461C67.8492 81.3177 67.696 81.2568 67.5598 81.1672C67.4236 81.0776 67.3073 80.9612 67.2179 80.8251C66.7912 80.1851 66.1726 79.6357 65.3619 79.1771C74.7646 69.1184 85.7272 61.1051 98.2499 55.1371C98.3106 55.1068 98.3595 55.0571 98.3887 54.9958C98.4179 54.9346 98.4258 54.8653 98.4111 54.799C98.3964 54.7328 98.3599 54.6734 98.3075 54.6302C98.2551 54.5871 98.1897 54.5628 98.1219 54.5611C85.1379 54.2251 71.5219 64.1211 64.4259 74.1691C63.7966 73.2677 63.0392 72.9184 62.1539 73.1211C72.0099 58.4651 87.2259 49.0731 103.226 42.3691C103.357 42.3135 103.476 42.2314 103.573 42.1282C103.671 42.0249 103.746 41.9026 103.794 41.7691L103.994 41.2411C104.008 41.2006 104.012 41.1571 104.004 41.1148C103.997 41.0725 103.979 41.0329 103.951 40.9998C103.924 40.9667 103.888 40.9413 103.848 40.9261C103.808 40.9109 103.764 40.9064 103.722 40.9131C86.9939 43.1691 72.2419 51.4891 63.5219 66.3131C61.6872 69.4171 60.5406 72.5264 60.0819 75.6411L59.8099 76.9771C59.7365 77.3214 59.5484 77.6562 59.2795 77.921C59.0106 78.1859 58.6786 78.3633 58.3436 78.4212C58.0085 78.4791 57.6923 78.4138 57.4522 78.237C57.212 78.0602 57.0637 77.7836 57.0339 77.4571C56.8792 75.6544 57.4259 74.1611 58.6739 72.9771C58.7687 72.8875 58.8285 72.7666 58.8431 72.6351C58.8577 72.5037 58.8262 72.37 58.7539 72.2571C58.2419 71.4571 57.4366 70.8944 56.3379 70.5691C67.4419 47.4731 90.4339 35.0891 115.81 35.6731Z" fill="#443040"/>
<path d="M159.322 37.665C196.914 50.561 209.794 91.641 199.762 127.097C193.97 120.145 184.666 121.481 182.122 130.161C182.058 130.252 181.975 130.31 181.874 130.337C181.836 130.348 181.796 130.349 181.758 130.341C181.72 130.332 181.684 130.315 181.654 130.29C181.624 130.264 181.601 130.232 181.586 130.196C181.571 130.159 181.566 130.12 181.57 130.081C182.618 117.673 183.058 108.121 173.866 98.793C172.858 97.7744 171.559 96.9424 169.97 96.297C150.578 88.465 134.082 79.249 124.314 60.033C123.903 59.2277 123.498 59.2304 123.098 60.041C114.218 77.953 94.9858 86.889 76.9858 93.593C74.6925 94.4517 73.0792 95.6517 72.1458 97.193C69.7245 101.022 68.5352 104.281 68.5778 106.969C68.6792 114.174 69.3992 121.233 70.7378 128.145C71.2978 131.041 70.9965 131.158 69.8339 128.497C69.5085 127.761 68.8178 126.708 67.7618 125.337C63.5325 121.14 58.9538 121.492 54.0258 126.393C53.9889 126.43 53.9428 126.456 53.8923 126.47C53.8418 126.483 53.7887 126.483 53.7383 126.469C53.688 126.455 53.6421 126.428 53.6055 126.391C53.5689 126.354 53.5428 126.308 53.5298 126.257L53.0898 124.553C53.5325 124.057 54.1512 124.014 54.9458 124.425C55.1698 124.542 55.3725 124.51 55.5538 124.329C56.8338 123.012 58.3592 122.1 60.1298 121.593C60.4178 121.513 60.5405 121.324 60.4978 121.025C60.2338 119.025 56.8018 103.497 60.4258 103.505C60.6978 103.505 60.8152 103.369 60.7778 103.097C60.6818 102.425 60.8392 101.806 61.2498 101.241C61.3778 101.06 61.4552 100.86 61.4818 100.641C62.4498 92.529 66.7378 87.969 74.0418 84.969C93.8738 76.809 113.594 65.217 123.122 44.937C123.17 44.833 123.247 44.7457 123.345 44.6859C123.442 44.6262 123.555 44.5966 123.67 44.6008C123.785 44.6051 123.897 44.643 123.991 44.7099C124.086 44.7768 124.159 44.8696 124.202 44.977C130.922 62.521 144.642 73.145 160.834 83.129C161.266 83.393 161.682 83.417 162.162 83.377C162.455 83.3504 162.479 83.2544 162.234 83.089C153.914 77.433 145.146 70.945 138.962 63.305C135.026 58.441 130.25 52.225 128.066 46.073C127.138 43.465 126.234 41.665 125.218 39.417C125.111 39.177 125.173 38.9957 125.402 38.873L125.794 38.657C125.881 38.6114 125.983 38.6017 126.077 38.6301C126.171 38.6585 126.25 38.7228 126.298 38.809C131.125 47.657 136.813 55.9077 143.362 63.561C143.524 63.7548 143.737 63.9013 143.978 63.985C144.399 64.129 144.775 64.3397 145.106 64.617C145.33 64.8037 145.589 64.8784 145.882 64.841L148.002 64.585C148.032 64.581 148.062 64.5711 148.088 64.556C148.115 64.5409 148.138 64.5208 148.157 64.497C148.175 64.4732 148.189 64.4461 148.197 64.4172C148.204 64.3884 148.206 64.3584 148.202 64.329C148.186 64.201 148.178 64.0837 148.178 63.977C148.178 63.8384 148.242 63.7424 148.37 63.689C149.063 63.3957 149.666 63.4677 150.178 63.905C150.374 64.0707 150.609 64.1832 150.861 64.2317C151.113 64.2802 151.373 64.263 151.617 64.1818C151.86 64.1007 152.079 63.9583 152.251 63.7683C152.424 63.5783 152.544 63.3472 152.602 63.097C152.85 62.001 153.034 59.513 153.898 58.785C154.319 58.4384 154.279 58.297 153.778 58.361C153.645 58.377 153.578 58.3157 153.578 58.177C153.589 57.9104 153.725 57.7904 153.986 57.817C156.378 58.097 156.762 56.873 157.906 55.265C158.914 53.857 163.634 47.369 163.394 45.569C163.101 43.4144 161.917 41.993 159.842 41.305C159.591 41.2197 159.389 41.0704 159.234 40.857C157.986 39.097 158.015 38.033 159.322 37.665Z" fill="#1E182E"/>
<path d="M62.154 73.1211L60.082 75.6411C60.5407 72.5265 61.6874 69.4171 63.522 66.3131C72.242 51.4891 86.994 43.1691 103.722 40.9131C103.764 40.9065 103.808 40.911 103.848 40.9262C103.888 40.9414 103.924 40.9668 103.951 40.9998C103.979 41.0329 103.997 41.0725 104.005 41.1148C104.012 41.1571 104.008 41.2007 103.994 41.2411L103.794 41.7691C103.746 41.9027 103.671 42.0249 103.573 42.1282C103.476 42.2315 103.357 42.3135 103.226 42.3691C87.226 49.0731 72.01 58.4651 62.154 73.1211Z" fill="#785359"/>
<path d="M65.3613 79.1771L60.5213 83.8331C60.3827 83.9664 60.34 83.9424 60.3933 83.761C61.3266 80.3744 62.6706 77.1771 64.4253 74.1691C71.5213 64.1211 85.1373 54.2251 98.1213 54.5611C98.1892 54.5627 98.2545 54.5871 98.3069 54.6302C98.3593 54.6733 98.3958 54.7328 98.4105 54.799C98.4252 54.8653 98.4174 54.9345 98.3881 54.9958C98.3589 55.0571 98.3101 55.1068 98.2493 55.137C85.7266 61.105 74.764 69.1184 65.3613 79.1771Z" fill="#785359"/>
<path d="M182.121 130.162C183.137 131.978 193.954 125.306 195.402 135.082C195.439 135.359 195.322 135.527 195.05 135.586C194.783 135.639 194.497 135.61 194.193 135.498C192.033 129.874 180.514 131.674 182.114 139.714C179.015 142.684 179.372 145.85 183.186 149.21L179.586 148.066C178.418 148.21 177.623 148.994 177.202 150.418C177.095 150.775 176.863 150.906 176.506 150.81C176.01 150.676 175.599 150.412 175.274 150.018C175.13 149.847 175.074 149.65 175.106 149.426L175.426 147.386C175.463 147.156 175.407 146.954 175.258 146.778C174.772 146.223 174.607 145.556 174.762 144.778C176.57 135.426 176.153 125.498 175.345 116.794C174.865 111.636 172.903 107.756 169.458 105.154C161.418 99.7456 151.77 94.6656 145.218 89.4256C139.442 84.807 134.234 79.559 129.594 73.6816L126.418 70.0816C126.374 70.0324 126.321 69.9936 126.261 69.9681C126.2 69.9425 126.135 69.9309 126.069 69.9339C126.003 69.937 125.938 69.9547 125.88 69.9858C125.821 70.0169 125.77 70.0606 125.73 70.1136C113.77 86.2976 94.2415 95.0496 75.7375 100.298L72.1455 102.226C72.0632 102.271 71.9689 102.289 71.8758 102.277C71.7827 102.266 71.6955 102.225 71.6266 102.162C71.5576 102.098 71.5104 102.015 71.4916 101.923C71.4727 101.831 71.4832 101.735 71.5215 101.65C72.0868 100.327 72.2948 98.8416 72.1455 97.1936C73.0788 95.6523 74.6922 94.4523 76.9855 93.5936C94.9855 86.8896 114.218 77.9536 123.098 60.0416C123.498 59.231 123.903 59.2283 124.314 60.0336C134.082 79.2497 150.578 88.4656 169.97 96.2976C171.559 96.943 172.857 97.775 173.865 98.7936C183.057 108.122 182.617 117.674 181.569 130.082C181.565 130.121 181.571 130.16 181.586 130.196C181.6 130.233 181.624 130.265 181.654 130.29C181.684 130.316 181.719 130.333 181.758 130.341C181.796 130.35 181.836 130.348 181.874 130.338C181.975 130.311 182.057 130.252 182.121 130.162Z" fill="#FCA582"/>
<path d="M129.594 73.6808L128.85 75.7288C128.764 75.9581 128.775 76.1875 128.882 76.4168C129.292 77.2861 129.946 77.8088 130.842 77.9848C131.13 78.0433 131.402 78.1658 131.637 78.3435C131.873 78.5211 132.065 78.7492 132.2 79.0111C132.335 79.2729 132.41 79.5618 132.418 79.8563C132.427 80.1508 132.369 80.4435 132.25 80.7128C131.972 81.3475 131.887 82.0008 131.994 82.6728C132.036 82.9395 131.999 83.1928 131.882 83.4328C130.93 85.4728 131.514 87.4168 131.346 89.1048C131.106 91.4968 130.554 93.6728 131.442 96.0488C131.786 96.9688 132.826 99.6568 132.186 100.473C132.121 100.558 132.077 100.656 132.058 100.76C132.038 100.865 132.044 100.972 132.074 101.073C132.946 103.841 131.21 105.841 132.474 108.361C132.591 108.601 132.636 108.854 132.61 109.121C132.162 113.617 132.866 118.569 132.762 122.473C132.722 123.881 133.354 124.777 134.05 125.897C134.194 126.131 134.25 126.385 134.218 126.657C133.914 129.273 134.362 131.353 133.682 133.985C132.33 139.185 134.258 143.769 134.25 148.409C134.25 148.702 134.364 148.939 134.594 149.121C135.65 149.947 136.639 150.851 137.562 151.833C137.764 152.046 137.858 152.302 137.842 152.601L137.722 154.865C130.09 158.555 122.46 158.377 114.834 154.329C114.503 154.153 114.308 153.795 114.25 153.257C114.223 153.027 114.095 152.894 113.866 152.857C111.018 152.425 111.266 155.449 112.546 156.729C112.59 156.775 112.647 156.807 112.709 156.822C112.772 156.837 112.837 156.834 112.897 156.813C112.958 156.792 113.011 156.754 113.051 156.704C113.091 156.653 113.115 156.593 113.122 156.529L113.25 155.497C113.258 155.442 113.28 155.389 113.314 155.345C113.348 155.3 113.392 155.265 113.443 155.243C113.493 155.22 113.548 155.211 113.603 155.216C113.657 155.222 113.709 155.241 113.754 155.273C116.01 156.819 118.412 157.939 120.962 158.633L117.546 162.217C117.338 162.435 117.279 162.691 117.37 162.985L119.53 169.993C119.604 170.227 119.602 170.462 119.522 170.697C118.668 173.289 118.876 175.697 120.146 177.921L118.33 177.657C117.588 177.811 117.135 177.779 116.97 177.561C100.514 175.313 84.5376 168.129 75.6496 153.449L76.8096 153.153C77.0389 153.094 77.2309 152.977 77.3856 152.801L79.1216 150.865C79.2709 150.699 79.2896 150.521 79.1776 150.329C78.2656 148.766 77.6816 146.782 77.4256 144.377C75.7776 128.659 75.2149 113.966 75.7376 100.297C94.2416 95.0488 113.77 86.2968 125.73 70.1128C125.77 70.0597 125.821 70.0161 125.88 69.985C125.938 69.9539 126.003 69.9362 126.069 69.9331C126.135 69.93 126.2 69.9417 126.261 69.9673C126.321 69.9928 126.375 70.0316 126.418 70.0808L129.594 73.6808ZM104.354 104.665C99.4096 102.025 94.7589 101.998 90.4016 104.585C86.3856 106.969 83.3376 110.097 83.3216 114.913C83.32 114.996 83.3439 115.078 83.3901 115.147C83.4363 115.216 83.5027 115.27 83.5802 115.3C83.6577 115.331 83.7427 115.337 83.8238 115.318C83.9048 115.298 83.9781 115.255 84.0336 115.193C89.4149 109.273 95.8576 107.601 103.362 110.177C106.954 111.417 107.394 106.281 104.354 104.665ZM86.1696 139.833C86.1483 140.35 85.8203 140.873 85.1856 141.401C85.086 141.483 85.0104 141.591 84.9668 141.712C84.9231 141.833 84.913 141.963 84.9376 142.089C85.1243 143.107 84.9563 144.027 84.4336 144.849C84.358 144.964 84.2489 145.054 84.1205 145.107C83.9921 145.16 83.8503 145.173 83.7136 145.145C82.0976 144.809 80.5483 145.006 79.0656 145.737C78.9754 145.779 78.9023 145.85 78.8587 145.939C78.8151 146.029 78.8036 146.13 78.8261 146.227C78.8487 146.324 78.9039 146.41 78.9825 146.471C79.0611 146.531 79.1583 146.563 79.2576 146.561L82.9216 146.593C83.0203 146.592 83.1178 146.614 83.2073 146.655C83.2968 146.697 83.376 146.758 83.4394 146.835C83.5028 146.911 83.5487 147.001 83.574 147.097C83.5993 147.194 83.6032 147.295 83.5856 147.393C83.3563 148.625 82.8203 149.705 81.9776 150.633C81.8431 150.781 81.77 150.976 81.7729 151.176C81.7759 151.376 81.8548 151.568 81.9936 151.713C87.3216 157.257 98.6496 156.801 104.794 152.777C107.65 150.913 108.354 147.409 105.626 145.057C104.874 144.411 104.156 143.742 103.474 143.049C107.063 140.659 108.394 136.969 107.466 131.977C107.412 131.683 107.26 131.537 107.01 131.537C106.732 131.537 106.596 131.675 106.602 131.953C106.607 132.246 106.559 132.411 106.458 132.449C106.218 127.046 103.879 123.806 99.4416 122.729C92.5776 121.065 86.4976 125.345 83.6576 131.513C83.5509 131.742 83.3696 131.843 83.1136 131.817L80.6496 131.553C80.539 131.537 80.4265 131.561 80.332 131.621C80.2375 131.681 80.1672 131.772 80.1336 131.878C80.1 131.985 80.1053 132.1 80.1485 132.203C80.1917 132.306 80.2701 132.39 80.3696 132.441C83.4843 134.174 85.4176 136.638 86.1696 139.833ZM124.522 145.369L123.682 145.209C123.578 145.19 123.471 145.209 123.38 145.263C123.289 145.316 123.221 145.4 123.187 145.5C123.153 145.6 123.156 145.709 123.195 145.806C123.235 145.904 123.308 145.984 123.402 146.033C127.842 148.169 132.682 142.809 128.378 139.761C128.164 139.611 128.047 139.665 128.026 139.921C127.823 142.278 126.759 144.075 124.834 145.313C124.742 145.369 124.63 145.389 124.522 145.369Z" fill="#FED3B3"/>
<path d="M129.593 73.6816C134.233 79.559 139.441 84.807 145.217 89.4256C151.769 94.6656 161.417 99.7456 169.457 105.154C165.671 105.964 164.025 107.583 164.521 110.01C161.172 105.274 156.737 102.85 151.217 102.738C148.705 102.682 145.209 103.61 143.841 105.61C142.449 107.65 143.313 109.97 145.793 110.362C146.049 110.399 146.295 110.367 146.529 110.266C154.977 106.642 161.785 110.962 167.521 117.45L163.969 120.818C163.911 120.876 163.86 120.89 163.817 120.858C163.791 120.836 163.769 120.812 163.753 120.786C163.721 120.722 163.689 120.722 163.657 120.786C163.375 121.426 162.961 122.018 162.417 122.562C162.22 122.754 162.204 122.962 162.369 123.186C162.609 123.511 162.841 123.831 163.065 124.146C163.215 124.359 163.183 124.54 162.969 124.69C162.857 124.764 162.711 124.81 162.529 124.826C154.969 119.082 145.353 123.562 144.945 133.178C144.673 133.06 144.385 133.162 144.081 133.482C143.905 133.663 143.817 133.876 143.817 134.122C143.748 139.151 145.759 142.639 149.849 144.586C146.889 145.73 148.001 147.874 146.441 149.562C146.219 149.801 146.055 150.087 145.96 150.399C145.864 150.711 145.841 151.04 145.892 151.362C145.943 151.684 146.067 151.99 146.253 152.258C146.44 152.525 146.685 152.747 146.969 152.906C152.884 156.186 159.289 156.855 166.185 154.914C167.295 155.255 167.94 156.114 168.121 157.49C168.153 157.73 168.263 157.93 168.449 158.09C168.78 158.372 168.948 158.738 168.953 159.186C168.953 159.431 169.036 159.65 169.201 159.842L170.625 161.498C160.817 170.954 148.425 176.322 134.769 177.762C129.879 178.21 125.004 178.263 120.145 177.922C118.876 175.698 118.668 173.29 119.521 170.698C119.601 170.463 119.604 170.228 119.529 169.994L117.369 162.986C117.279 162.692 117.337 162.436 117.545 162.218L120.961 158.634C128.745 160.634 134.545 158.89 141.369 154.634C141.62 154.479 141.692 154.263 141.585 153.986C141.239 153.132 140.588 152.583 139.633 152.338C139.249 152.242 139.129 152.378 139.273 152.746C139.641 153.674 139.124 154.38 137.721 154.866L137.841 152.602C137.857 152.303 137.764 152.047 137.561 151.834C136.639 150.852 135.649 149.948 134.593 149.122C134.364 148.94 134.249 148.703 134.249 148.41C134.257 143.77 132.329 139.186 133.681 133.986C134.361 131.354 133.913 129.274 134.217 126.658C134.249 126.386 134.193 126.132 134.049 125.898C133.353 124.778 132.721 123.882 132.761 122.474C132.865 118.57 132.161 113.618 132.609 109.122C132.636 108.855 132.591 108.602 132.473 108.362C131.209 105.842 132.945 103.842 132.073 101.074C132.044 100.972 132.038 100.865 132.058 100.761C132.077 100.657 132.121 100.558 132.185 100.474C132.825 99.6576 131.785 96.9696 131.441 96.0496C130.553 93.6736 131.105 91.4976 131.345 89.1056C131.513 87.4176 130.929 85.4736 131.881 83.4336C131.999 83.1936 132.036 82.9403 131.993 82.6736C131.887 82.0016 131.972 81.3483 132.249 80.7136C132.369 80.4444 132.427 80.1517 132.418 79.8571C132.41 79.5626 132.335 79.2737 132.2 79.0119C132.065 78.7501 131.872 78.5219 131.637 78.3443C131.402 78.1667 131.13 78.0441 130.841 77.9856C129.945 77.8096 129.292 77.287 128.881 76.4176C128.775 76.1883 128.764 75.959 128.849 75.7296L129.593 73.6816Z" fill="#FECEAF"/>
<path d="M72.1452 97.1934C72.2945 98.8414 72.0865 100.327 71.5212 101.649C71.4829 101.735 71.4724 101.83 71.4913 101.922C71.5101 102.014 71.5573 102.098 71.6263 102.162C71.6952 102.225 71.7824 102.266 71.8755 102.277C71.9686 102.288 72.0629 102.27 72.1452 102.225L75.7372 100.297C75.2145 113.967 75.7772 128.66 77.4252 144.377C77.6812 146.783 78.2652 148.767 79.1772 150.329C79.2892 150.521 79.2705 150.7 79.1212 150.865L77.3852 152.801C77.2305 152.977 77.0385 153.095 76.8092 153.153L75.6492 153.449L72.2652 147.737C72.4679 144.324 72.1052 141.135 71.1772 138.169C70.0572 135.617 68.7132 133.297 65.8252 132.545C61.4199 131.393 58.9185 133.111 58.3212 137.697C57.3719 139.308 56.1772 139.143 54.7372 137.201C54.6583 137.097 54.5474 137.02 54.4208 136.982C54.2942 136.945 54.1584 136.949 54.0332 136.993C53.3505 137.239 52.9692 138.1 52.8892 139.577C51.7212 136.777 50.9132 129.305 53.9452 127.625C54.1692 127.503 54.3532 127.335 54.4972 127.121C55.2492 126.049 56.4705 125.143 58.1612 124.401C61.3452 122.999 64.5452 123.311 67.7612 125.337C68.8172 126.708 69.5079 127.761 69.8332 128.497C70.9959 131.159 71.2972 131.041 70.7372 128.145C69.3985 121.233 68.6785 114.175 68.5772 106.969C68.5345 104.281 69.7239 101.023 72.1452 97.1934Z" fill="#FDBF9E"/>
<path d="M104.353 104.665C107.393 106.281 106.953 111.417 103.361 110.177C95.8574 107.601 89.4147 109.273 84.0334 115.193C83.9778 115.255 83.9046 115.299 83.8236 115.318C83.7425 115.337 83.6575 115.331 83.58 115.301C83.5024 115.27 83.4361 115.217 83.3899 115.148C83.3437 115.078 83.3197 114.997 83.3214 114.913C83.3374 110.097 86.3854 106.969 90.4014 104.585C94.7587 101.999 99.4094 102.025 104.353 104.665Z" fill="#1E182E"/>
<path d="M164.522 110.01C165.999 112.132 166.999 114.612 167.522 117.45C161.786 110.962 154.978 106.642 146.53 110.266C146.295 110.367 146.05 110.399 145.794 110.362C143.314 109.97 142.45 107.65 143.842 105.61C145.21 103.61 148.706 102.682 151.218 102.738C156.738 102.85 161.173 105.274 164.522 110.01Z" fill="#1E182E"/>
<path d="M169.457 105.153C172.902 107.756 174.865 111.636 175.345 116.793C176.153 125.497 176.569 135.425 174.761 144.777C174.606 145.556 174.772 146.223 175.257 146.777C175.406 146.953 175.462 147.156 175.425 147.385L175.105 149.425C175.073 149.649 175.129 149.847 175.273 150.017C175.598 150.412 176.009 150.676 176.505 150.809C176.862 150.905 177.094 150.775 177.201 150.417C177.622 148.993 178.417 148.209 179.585 148.065C177.244 153.201 174.257 157.679 170.625 161.497L169.201 159.841C169.036 159.649 168.953 159.431 168.953 159.185C168.948 158.737 168.78 158.372 168.449 158.089C168.262 157.929 168.153 157.729 168.121 157.489C167.94 156.113 167.294 155.255 166.185 154.913C169.129 153.617 175.377 148.225 170.953 144.993C169.161 143.681 167.502 142.753 165.977 142.209C164.897 141.817 163.841 142.273 162.721 141.481C163.057 140.815 163.452 140.335 163.905 140.041C165.777 139.105 167.249 134.929 167.873 133.393C167.928 133.257 168.01 133.133 168.113 133.03C168.217 132.927 168.339 132.846 168.473 132.793L170.473 131.985C170.53 131.962 170.577 131.921 170.608 131.868C170.639 131.815 170.652 131.754 170.645 131.693C170.638 131.632 170.611 131.575 170.568 131.531C170.525 131.487 170.47 131.459 170.409 131.449L168.233 131.121C167.998 131.084 167.822 130.961 167.705 130.753C166.42 128.444 164.694 126.468 162.529 124.825C162.71 124.809 162.857 124.764 162.969 124.689C163.182 124.54 163.214 124.359 163.065 124.145C162.841 123.831 162.609 123.511 162.369 123.185C162.204 122.961 162.22 122.753 162.417 122.561C162.961 122.017 163.374 121.425 163.657 120.785C163.689 120.721 163.721 120.721 163.753 120.785C163.769 120.812 163.79 120.836 163.817 120.857C163.86 120.889 163.91 120.876 163.969 120.817L167.521 117.449C166.998 114.612 165.998 112.132 164.521 110.009C164.025 107.583 165.67 105.964 169.457 105.153Z" fill="#FDBF9E"/>
<path d="M106.457 132.45C106.193 137.13 103.481 143.106 98.0332 142.506C90.6172 141.698 86.4412 127.258 96.3932 127.49C96.6918 127.495 96.7958 127.356 96.7052 127.074C96.6012 126.738 96.2012 126.53 95.8332 126.538C87.2252 126.842 84.6652 133.37 87.2092 141.026L86.1692 139.834C85.4172 136.639 83.4838 134.175 80.3692 132.442C80.2696 132.391 80.1913 132.307 80.1481 132.204C80.1049 132.101 80.0996 131.986 80.1332 131.879C80.1668 131.772 80.2371 131.681 80.3315 131.622C80.426 131.562 80.5385 131.538 80.6492 131.554L83.1132 131.818C83.3692 131.844 83.5505 131.743 83.6572 131.514C86.4972 125.346 92.5772 121.066 99.4412 122.73C103.878 123.807 106.217 127.047 106.457 132.45ZM102.193 130.018L101.129 131.322C101.095 131.363 101.069 131.411 101.053 131.462C101.038 131.514 101.032 131.568 101.037 131.621C101.043 131.675 101.058 131.727 101.084 131.774C101.109 131.822 101.144 131.863 101.185 131.898L101.353 132.034C101.523 132.172 101.709 132.286 101.902 132.369C102.095 132.452 102.29 132.503 102.476 132.518C102.663 132.534 102.837 132.514 102.989 132.46C103.141 132.405 103.267 132.318 103.361 132.202L103.505 132.034C103.6 131.918 103.66 131.776 103.682 131.616C103.704 131.455 103.688 131.28 103.635 131.101C103.581 130.921 103.491 130.739 103.37 130.567C103.249 130.395 103.099 130.236 102.929 130.098L102.761 129.962C102.678 129.895 102.572 129.863 102.466 129.874C102.36 129.884 102.262 129.936 102.193 130.018Z" fill="#161321"/>
<path d="M162.53 124.825C164.695 126.468 166.42 128.444 167.706 130.753C167.823 130.961 167.999 131.084 168.234 131.121L170.41 131.449C170.47 131.458 170.526 131.487 170.569 131.531C170.611 131.575 170.638 131.632 170.646 131.693C170.653 131.754 170.64 131.815 170.609 131.868C170.578 131.921 170.53 131.962 170.474 131.985L168.474 132.793C168.34 132.846 168.217 132.927 168.114 133.03C168.011 133.133 167.929 133.257 167.874 133.393C167.25 134.929 165.778 139.105 163.906 140.041C166.874 133.417 163.362 126.153 155.994 126.153C155.942 126.151 155.892 126.166 155.85 126.196C155.808 126.226 155.779 126.27 155.765 126.32C155.752 126.369 155.757 126.422 155.778 126.469C155.799 126.516 155.836 126.554 155.882 126.577C159.754 128.679 161.188 131.913 160.186 136.281C157.618 147.433 144.794 143.241 144.946 133.177C145.354 123.561 154.97 119.081 162.53 124.825ZM153.01 129.649L152.826 130.601C152.772 130.873 152.884 130.999 153.162 130.977C153.802 130.924 154.207 130.617 154.378 130.057C154.419 129.921 154.423 129.777 154.389 129.639C154.355 129.501 154.285 129.375 154.186 129.273C153.818 128.889 153.375 128.615 152.858 128.449C152.459 128.322 151.974 128.315 151.503 128.429C151.032 128.543 150.61 128.769 150.324 129.061C150.038 129.353 149.91 129.689 149.966 129.999C150.022 130.31 150.258 130.571 150.626 130.729L151.738 131.217C151.788 131.24 151.844 131.247 151.899 131.237C151.953 131.227 152.003 131.201 152.042 131.162C152.081 131.123 152.108 131.073 152.118 131.018C152.127 130.964 152.12 130.908 152.098 130.857C151.756 130.1 151.911 129.577 152.562 129.289C152.94 129.124 153.09 129.244 153.01 129.649ZM148.218 137.825C147.89 139.737 149.866 141.857 151.602 141.793C156.546 141.625 161.378 136.553 158.658 131.593C158.568 131.431 158.426 131.304 158.255 131.233C158.084 131.161 157.894 131.149 157.715 131.199C157.536 131.249 157.38 131.358 157.271 131.508C157.162 131.658 157.106 131.84 157.114 132.025C157.322 137.297 152.506 137.033 148.69 137.385C148.423 137.412 148.266 137.559 148.218 137.825Z" fill="#161321"/>
<path d="M199.761 127.097C202.604 132.873 201.926 138.484 197.729 143.929C196.609 145.38 195.025 146.94 192.977 148.609C189.174 149.91 185.91 150.11 183.185 149.209C179.372 145.849 179.014 142.684 182.113 139.713C183.142 141.089 184.633 142.001 186.585 142.449C186.649 142.46 186.692 142.436 186.713 142.377C186.734 142.313 186.753 142.249 186.769 142.185C186.777 142.163 186.777 142.138 186.768 142.114C186.76 142.091 186.743 142.071 186.721 142.057L185.169 141.129C184.838 140.937 184.716 140.654 184.801 140.281C185.441 137.505 187.273 134.217 190.665 135.553C190.894 135.644 191.073 135.796 191.201 136.009C192.241 137.684 192.204 139.233 191.089 140.657C190.716 141.132 190.801 141.241 191.345 140.985C193.366 140.03 194.316 138.201 194.193 135.497C194.497 135.609 194.782 135.638 195.049 135.585C195.321 135.526 195.438 135.358 195.401 135.081C193.953 125.305 183.137 131.977 182.121 130.161C184.665 121.481 193.969 120.145 199.761 127.097Z" fill="#FB9673"/>
<path d="M163.905 140.042C163.452 140.335 163.057 140.815 162.721 141.482C159.033 143.218 153.993 145.29 149.849 144.586C145.758 142.639 143.748 139.151 143.817 134.122C143.817 133.876 143.905 133.663 144.081 133.482C144.385 133.162 144.673 133.06 144.945 133.178C144.793 143.242 157.617 147.434 160.185 136.282C161.188 131.914 159.753 128.679 155.881 126.578C155.835 126.555 155.798 126.516 155.777 126.47C155.756 126.423 155.752 126.37 155.765 126.32C155.778 126.27 155.808 126.227 155.849 126.196C155.891 126.166 155.942 126.151 155.993 126.154C163.361 126.154 166.873 133.418 163.905 140.042Z" fill="#FEFDFE"/>
<path d="M106.457 132.449C106.559 132.412 106.607 132.247 106.601 131.953C106.596 131.676 106.732 131.537 107.009 131.537C107.26 131.537 107.412 131.684 107.465 131.977C108.393 136.969 107.063 140.66 103.473 143.049C101.575 143.743 99.8147 143.975 98.1933 143.745C94.3533 143.196 90.692 142.289 87.2093 141.025C84.6653 133.369 87.2254 126.841 95.8334 126.537C96.2014 126.529 96.6013 126.737 96.7053 127.073C96.796 127.356 96.692 127.495 96.3933 127.489C86.4413 127.257 90.6174 141.697 98.0334 142.505C103.481 143.105 106.193 137.129 106.457 132.449Z" fill="#FEFDFE"/>
<path d="M152.562 129.289C151.911 129.577 151.757 130.1 152.098 130.857C152.121 130.908 152.128 130.964 152.118 131.018C152.108 131.073 152.082 131.123 152.042 131.162C152.003 131.201 151.953 131.227 151.899 131.237C151.844 131.247 151.788 131.24 151.738 131.217L150.626 130.729C150.258 130.571 150.022 130.309 149.966 129.999C149.91 129.689 150.038 129.353 150.324 129.061C150.61 128.769 151.032 128.543 151.503 128.429C151.974 128.315 152.459 128.322 152.858 128.449C153.375 128.615 153.818 128.889 154.186 129.273C154.285 129.375 154.355 129.501 154.389 129.639C154.423 129.777 154.419 129.921 154.378 130.057C154.207 130.617 153.802 130.924 153.162 130.977C152.885 130.999 152.773 130.873 152.826 130.601L153.01 129.649C153.09 129.244 152.941 129.124 152.562 129.289Z" fill="#FEFDFE"/>
<path d="M102.194 130.017C102.262 129.935 102.36 129.884 102.466 129.873C102.573 129.863 102.679 129.894 102.762 129.961L102.93 130.097C103.1 130.235 103.25 130.395 103.371 130.567C103.492 130.739 103.582 130.92 103.635 131.1C103.689 131.28 103.705 131.455 103.683 131.615C103.661 131.775 103.6 131.917 103.506 132.033L103.362 132.201C103.268 132.317 103.141 132.405 102.99 132.459C102.838 132.513 102.664 132.533 102.477 132.518C102.291 132.502 102.095 132.451 101.903 132.368C101.71 132.285 101.523 132.171 101.354 132.033L101.186 131.897C101.144 131.863 101.11 131.821 101.084 131.773C101.059 131.726 101.043 131.674 101.038 131.621C101.033 131.567 101.038 131.513 101.054 131.462C101.07 131.41 101.096 131.362 101.13 131.321L102.194 130.017Z" fill="#EBECE6"/>
<path d="M151.602 141.793C149.866 141.857 147.89 139.737 148.218 137.825C148.266 137.559 148.423 137.412 148.69 137.385C152.506 137.033 157.322 137.297 157.114 132.025C157.106 131.84 157.162 131.658 157.271 131.508C157.38 131.358 157.536 131.249 157.715 131.199C157.894 131.149 158.084 131.161 158.255 131.233C158.426 131.304 158.568 131.431 158.658 131.593C161.378 136.553 156.546 141.625 151.602 141.793Z" fill="#35293C"/>
<path d="M71.1773 138.169C70.724 139.054 70.0466 139.524 69.1453 139.577C68.8573 139.598 68.692 139.468 68.6493 139.185C68.436 137.766 67.892 136.476 67.0173 135.313C66.852 135.094 66.6386 134.953 66.3773 134.889C63.2306 134.073 61.132 135.164 60.0813 138.161C59.9906 138.417 60.0306 138.652 60.2013 138.865C60.644 139.43 60.8386 140.076 60.7853 140.801C60.7533 141.244 60.6173 141.278 60.3773 140.905L58.3213 137.697C58.9186 133.11 61.42 131.393 65.8253 132.545C68.7133 133.297 70.0573 135.617 71.1773 138.169Z" fill="#FE6E48"/>
<path d="M194.194 135.497C194.316 138.201 193.367 140.03 191.346 140.985C190.802 141.241 190.716 141.132 191.09 140.657C192.204 139.233 192.242 137.684 191.202 136.009C191.074 135.796 190.895 135.644 190.666 135.553C187.274 134.217 185.442 137.505 184.802 140.281C184.716 140.654 184.839 140.937 185.17 141.129L186.722 142.057C186.744 142.071 186.76 142.091 186.769 142.114C186.778 142.138 186.778 142.163 186.77 142.185C186.754 142.249 186.735 142.313 186.714 142.377C186.692 142.436 186.65 142.46 186.586 142.449C184.634 142.001 183.143 141.089 182.114 139.713C180.514 131.673 192.034 129.873 194.194 135.497Z" fill="#FE6E48"/>
<path d="M71.1776 138.169C72.1056 141.134 72.4683 144.324 72.2656 147.737C69.3643 149.161 66.327 149.55 63.1537 148.905C62.0443 148.804 61.1056 148.5 60.3376 147.993C57.2016 145.492 54.719 142.686 52.8896 139.577C52.9696 138.1 53.351 137.238 54.0336 136.993C54.1588 136.948 54.2946 136.945 54.4212 136.982C54.5478 137.019 54.6587 137.096 54.7376 137.201C56.1776 139.142 57.3723 139.308 58.3216 137.697L60.3776 140.905C60.6176 141.278 60.7537 141.244 60.7857 140.801C60.839 140.076 60.6443 139.43 60.2016 138.865C60.031 138.652 59.991 138.417 60.0816 138.161C61.1323 135.164 63.231 134.073 66.3776 134.889C66.639 134.953 66.8523 135.094 67.0177 135.313C67.8923 136.476 68.4363 137.766 68.6496 139.185C68.6923 139.468 68.8577 139.598 69.1457 139.577C70.047 139.524 70.7243 139.054 71.1776 138.169Z" fill="#FCA582"/>
<path d="M124.521 145.369C124.63 145.39 124.741 145.37 124.833 145.313C126.759 144.076 127.823 142.279 128.025 139.921C128.047 139.665 128.164 139.612 128.377 139.761C132.681 142.809 127.841 148.169 123.401 146.033C123.308 145.985 123.234 145.905 123.195 145.807C123.156 145.709 123.153 145.6 123.186 145.501C123.22 145.401 123.289 145.317 123.38 145.263C123.471 145.21 123.578 145.19 123.681 145.209L124.521 145.369Z" fill="#F17941"/>
<path d="M86.1692 139.833L87.2092 141.025C90.6919 142.289 94.3532 143.196 98.1932 143.745C99.8145 143.974 101.575 143.742 103.473 143.049C104.156 143.742 104.873 144.412 105.625 145.057C108.353 147.409 107.649 150.913 104.793 152.777C98.6492 156.801 87.3212 157.257 81.9932 151.713C81.8544 151.568 81.7755 151.377 81.7725 151.176C81.7696 150.976 81.8427 150.782 81.9772 150.633C82.8199 149.705 83.3559 148.625 83.5852 147.393C83.6028 147.295 83.5989 147.194 83.5736 147.097C83.5483 147.001 83.5024 146.911 83.439 146.835C83.3756 146.759 83.2964 146.697 83.2069 146.656C83.1174 146.614 83.0198 146.592 82.9212 146.593L79.2572 146.561C79.1579 146.563 79.0607 146.532 78.9821 146.471C78.9035 146.41 78.8483 146.324 78.8257 146.227C78.8032 146.13 78.8147 146.029 78.8583 145.94C78.9019 145.85 78.975 145.779 79.0652 145.737C80.5479 145.006 82.0972 144.809 83.7132 145.145C83.8499 145.173 83.9916 145.16 84.12 145.107C84.2484 145.055 84.3576 144.965 84.4332 144.849C84.9559 144.028 85.1239 143.108 84.9372 142.089C84.9126 141.963 84.9227 141.833 84.9664 141.712C85.01 141.591 85.0856 141.483 85.1852 141.401C85.8199 140.873 86.1479 140.35 86.1692 139.833Z" fill="#FDBF9E"/>
<path d="M162.722 141.481C163.842 142.273 164.898 141.817 165.978 142.209C167.503 142.753 169.162 143.681 170.954 144.993C175.378 148.225 169.13 153.617 166.186 154.913C159.29 156.855 152.884 156.185 146.97 152.905C146.685 152.747 146.44 152.525 146.253 152.258C146.067 151.99 145.943 151.684 145.893 151.362C145.842 151.04 145.865 150.71 145.96 150.398C146.055 150.087 146.22 149.8 146.442 149.561C148.002 147.873 146.89 145.729 149.85 144.585C153.994 145.289 159.034 143.217 162.722 141.481Z" fill="#FCA582"/>
<path d="M72.2652 147.737L75.6492 153.449C84.5372 168.129 100.513 175.313 116.969 177.561L116.921 183.689C116.921 184.015 116.764 184.22 116.449 184.305L108.305 186.449L106.897 186.617C106.972 185.929 107.249 185.188 107.729 184.393C107.762 184.338 107.784 184.276 107.793 184.212C107.802 184.148 107.798 184.083 107.782 184.021C107.765 183.958 107.737 183.899 107.697 183.848C107.658 183.797 107.609 183.754 107.553 183.721C106.521 183.137 104.953 182.809 104.113 182.433C93.6599 177.756 84.4866 171.268 76.5932 162.969C73.3452 159.545 69.2332 154.257 64.0332 151.945C62.9452 151.46 62.6519 150.447 63.1532 148.905C66.3266 149.551 69.3639 149.161 72.2652 147.737Z" fill="#161321"/>
<path d="M183.186 149.209C185.911 150.111 189.175 149.911 192.978 148.609C195.511 156.033 200.338 161.151 207.458 163.961C207.53 163.99 207.596 164.034 207.65 164.09C207.705 164.146 207.747 164.213 207.774 164.287C207.801 164.361 207.813 164.44 207.808 164.519C207.803 164.598 207.782 164.675 207.746 164.745C196.81 185.633 164.93 189.625 144.202 186.609L136.154 184.865C135.391 184.7 134.996 184.225 134.97 183.441L134.77 177.761C148.426 176.321 160.818 170.953 170.626 161.497C174.258 157.679 177.244 153.201 179.586 148.065L183.186 149.209Z" fill="#1E182E"/>
<path d="M60.3374 147.993C61.1054 148.5 62.0441 148.804 63.1534 148.905C62.6521 150.446 62.9454 151.46 64.0334 151.945C69.2334 154.257 73.3454 159.545 76.5934 162.969C84.4867 171.268 93.6601 177.756 104.113 182.433C104.953 182.809 106.521 183.137 107.553 183.721C107.609 183.753 107.658 183.796 107.698 183.848C107.737 183.899 107.765 183.958 107.782 184.02C107.798 184.083 107.802 184.148 107.793 184.212C107.784 184.276 107.762 184.338 107.729 184.393C107.249 185.188 106.972 185.929 106.897 186.617C85.0574 189.641 59.5774 184.689 46.0254 165.369C45.8601 165.134 45.9134 164.964 46.1854 164.857C53.5561 161.961 58.2734 156.34 60.3374 147.993Z" fill="#1E182E"/>
<path d="M120.962 158.633C118.412 157.94 116.01 156.82 113.754 155.273C113.709 155.242 113.657 155.222 113.603 155.217C113.548 155.212 113.493 155.221 113.442 155.243C113.392 155.266 113.348 155.301 113.314 155.345C113.28 155.39 113.258 155.442 113.25 155.497L113.122 156.529C113.115 156.593 113.091 156.654 113.051 156.704C113.011 156.754 112.958 156.792 112.897 156.813C112.837 156.834 112.772 156.838 112.709 156.823C112.647 156.808 112.59 156.776 112.546 156.729C111.266 155.449 111.018 152.425 113.866 152.857C114.095 152.895 114.223 153.028 114.25 153.257C114.308 153.796 114.503 154.153 114.834 154.329C122.46 158.377 130.09 158.556 137.722 154.865C139.124 154.38 139.642 153.673 139.274 152.745C139.13 152.377 139.25 152.241 139.634 152.337C140.588 152.583 141.239 153.132 141.586 153.985C141.692 154.263 141.62 154.479 141.37 154.633C134.546 158.889 128.746 160.633 120.962 158.633Z" fill="#863934"/>
<path d="M118.33 177.658C117.791 179.428 117.86 181.148 118.538 182.818C118.644 183.084 118.842 183.223 119.13 183.234C122.735 183.367 124.959 185.327 125.802 189.114C126.788 193.551 127.29 196.772 127.306 198.778C119.122 199.106 111.722 195.514 109.89 187.346C109.927 187.186 109.908 187.042 109.834 186.914C109.7 186.684 109.538 186.663 109.346 186.85C109.18 187.015 108.986 187.098 108.762 187.098C108.9 186.804 108.748 186.588 108.306 186.45L116.45 184.306C116.764 184.22 116.922 184.015 116.922 183.69L116.97 177.562C117.135 177.78 117.588 177.812 118.33 177.658Z" fill="#FDBF9E"/>
<path d="M134.77 177.761L134.97 183.441C134.996 184.225 135.391 184.7 136.154 184.865L144.202 186.609L144.178 187.377C143.852 187.511 143.647 187.777 143.562 188.177C142.042 195.297 133.714 198.753 127.306 198.777C127.29 196.772 126.788 193.551 125.802 189.113C124.959 185.327 122.735 183.367 119.13 183.233C118.842 183.223 118.644 183.084 118.538 182.817C117.86 181.148 117.791 179.428 118.33 177.657L120.146 177.921C125.004 178.263 129.879 178.209 134.77 177.761Z" fill="#FB9673"/>
<path d="M109.89 187.345C109.853 187.105 109.736 187.06 109.538 187.209C109.389 187.327 109.33 187.479 109.362 187.665C110.322 192.663 113.173 196.14 117.914 198.097C118.112 198.183 118.202 198.319 118.186 198.505C118.165 198.852 118.008 198.929 117.714 198.737C117.544 198.625 117.349 198.567 117.13 198.561C116.773 198.561 116.738 198.665 117.026 198.873C119.778 200.873 122.76 201.839 125.97 201.769C133.162 201.601 145.682 198.753 147.402 189.889C147.45 189.639 147.586 189.457 147.81 189.345C148.397 189.047 148.874 188.668 149.242 188.209C157.626 191.553 161.602 194.209 166.002 201.745C169.245 207.292 171.701 212.127 173.37 216.249L164.314 221.113C163.466 211.961 161.735 203.252 159.122 194.985C159.073 194.83 158.971 194.698 158.834 194.61C158.697 194.523 158.533 194.488 158.372 194.51C158.212 194.532 158.064 194.61 157.955 194.731C157.846 194.852 157.783 195.007 157.778 195.169L156.762 224.337L144.194 228.113C136.674 219.233 129.453 212.137 122.53 206.825C113.778 200.116 106.877 194.225 101.826 189.153L108.762 187.097C108.986 187.097 109.181 187.015 109.346 186.849C109.538 186.663 109.701 186.684 109.834 186.913C109.909 187.041 109.928 187.185 109.89 187.345Z" fill="#2B7282"/>
<path d="M109.89 187.345C111.722 195.513 119.122 199.105 127.306 198.777C133.714 198.753 142.042 195.297 143.562 188.177C143.647 187.777 143.853 187.51 144.178 187.377C145.895 187.238 147.583 187.516 149.242 188.209C148.874 188.668 148.397 189.046 147.81 189.345C147.586 189.457 147.45 189.638 147.402 189.889C145.682 198.753 133.162 201.601 125.97 201.769C122.759 201.838 119.778 200.873 117.026 198.873C116.738 198.665 116.773 198.561 117.13 198.561C117.349 198.566 117.543 198.625 117.714 198.737C118.007 198.929 118.165 198.852 118.186 198.505C118.202 198.318 118.111 198.182 117.914 198.097C113.173 196.14 110.322 192.662 109.362 187.665C109.33 187.478 109.389 187.326 109.538 187.209C109.735 187.06 109.853 187.105 109.89 187.345Z" fill="#216477"/>
<path d="M101.825 189.153C106.876 194.225 113.777 200.116 122.529 206.825C129.452 212.137 136.673 219.233 144.193 228.113C128.695 231.137 113.681 229.913 99.1534 224.441C98.6521 223.407 98.4388 222.62 98.5134 222.081C98.5721 221.708 98.6014 221.5 98.6014 221.457C98.4414 212.423 98.2281 203.316 97.9614 194.137C97.9583 194.043 97.9255 193.952 97.8678 193.878C97.8101 193.804 97.7305 193.749 97.6401 193.723C97.5498 193.696 97.4533 193.699 97.3645 193.73C97.2757 193.761 97.1991 193.82 97.1454 193.897C97.0494 194.041 96.9588 194.281 96.8734 194.617C94.6761 203.039 93.1721 211.607 92.3614 220.321C92.3401 220.567 92.2068 220.668 91.9614 220.625L88.9934 220.073L84.7454 218.017L81.4814 215.945C85.4014 205.449 90.7854 193.505 101.825 189.153Z" fill="#31A3A6"/>
<path d="M99.1541 224.441C95.6341 223.337 92.2475 221.881 88.9941 220.073L91.9621 220.625C92.2075 220.668 92.3408 220.566 92.3621 220.321C93.1728 211.606 94.6768 203.038 96.8741 194.617C96.9595 194.281 97.0501 194.041 97.1461 193.897C97.1998 193.82 97.2764 193.761 97.3652 193.73C97.454 193.698 97.5505 193.696 97.6408 193.722C97.7312 193.749 97.8108 193.803 97.8685 193.878C97.9262 193.952 97.959 194.043 97.9621 194.137C98.2288 203.316 98.4421 212.422 98.6021 221.457C98.6021 221.5 98.5728 221.708 98.5141 222.081C98.4395 222.62 98.6528 223.406 99.1541 224.441Z" fill="#2B7282"/>
<path d="M164.314 221.114L156.762 224.338L157.778 195.17C157.783 195.007 157.846 194.852 157.954 194.731C158.063 194.611 158.211 194.532 158.372 194.51C158.533 194.488 158.697 194.524 158.834 194.611C158.971 194.698 159.073 194.831 159.122 194.986C161.735 203.252 163.466 211.962 164.314 221.114Z" fill="#216477"/>
</svg>
