<svg width="256" height="256" viewBox="0 0 256 256" fill="none" xmlns="http://www.w3.org/2000/svg">
<path d="M28.6465 167.318C29.8305 170.284 31.6251 172.62 34.0305 174.326" stroke="#8F848D" stroke-width="2"/>
<path d="M34.0302 174.326L33.5502 175.11C33.4115 175.329 33.4008 175.556 33.5182 175.79C41.0008 190.51 51.4835 202.63 64.9661 212.15C66.8915 213.51 70.9262 215.998 77.0702 219.614" stroke="#EAF0F3" stroke-width="2"/>
<path d="M77.0703 219.614C77.561 220.382 78.185 220.9 78.9423 221.166" stroke="#FDDCA7" stroke-width="2"/>
<path d="M78.9424 221.166C79.577 221.737 79.9344 222.302 80.0144 222.862C80.0464 223.118 80.1584 223.329 80.3504 223.494C106.174 245.798 144.262 246.414 171.598 226.958C173.39 225.686 175.046 223.798 176.742 222.246C176.792 222.2 176.827 222.14 176.844 222.074C176.86 222.008 176.857 221.939 176.835 221.875C176.813 221.81 176.773 221.754 176.72 221.712C176.666 221.67 176.602 221.644 176.534 221.638C176.342 221.622 176.284 221.558 176.358 221.446" stroke="#EAF0F3" stroke-width="2"/>
<path d="M176.358 221.446L178.542 220.022" stroke="#FDD6A2" stroke-width="2"/>
<path d="M178.542 220.022C193.859 212.097 206.729 200.702 217.15 185.838C219.977 181.806 222.201 177.742 223.822 173.646C223.918 173.401 223.854 173.217 223.63 173.094C223.278 172.902 223.089 172.657 223.062 172.358" stroke="#EAF0F3" stroke-width="2"/>
<path d="M223.063 172.358C227.788 167.243 228.684 161.542 225.751 155.254C225.633 155.014 225.708 154.873 225.975 154.83C240.783 152.59 244.727 133.398 232.431 125.198C232.376 125.162 232.331 125.114 232.3 125.056C232.269 124.999 232.253 124.935 232.253 124.87C232.253 124.805 232.269 124.741 232.3 124.683C232.331 124.626 232.376 124.578 232.431 124.542C242.303 117.998 241.055 103.542 230.767 98.1499C230.511 98.0112 230.471 97.8299 230.647 97.6059C238.671 87.2939 232.271 74.7659 219.271 73.8379" stroke="#8F848D" stroke-width="2"/>
<path d="M219.27 73.8382C221.233 70.8515 221.889 67.6542 221.238 64.2462C219.446 54.8862 210.478 50.1342 201.19 52.1502C200.918 52.2089 200.766 52.0969 200.734 51.8142C199.982 44.2782 196.318 38.6569 189.742 34.9502" stroke="#968990" stroke-width="2"/>
<path d="M189.742 34.9503C184.212 31.809 178.657 31.6277 173.078 34.4063C173.018 34.4364 172.952 34.4532 172.885 34.4555C172.817 34.4578 172.75 34.4456 172.689 34.4197C172.627 34.3938 172.572 34.3548 172.527 34.3055C172.483 34.2562 172.45 34.1978 172.43 34.1344C168.278 21.2383 153.182 17.5423 143.598 27.3423C143.401 27.545 143.246 27.5157 143.134 27.2543C137.182 12.7503 118.318 12.2143 110.902 25.9423C110.764 26.2037 110.585 26.2357 110.366 26.0383C100.142 16.7183 84.1024 21.0303 81.9024 35.2623C81.8907 35.3376 81.8612 35.4091 81.8164 35.4708C81.7716 35.5324 81.7128 35.5825 81.6448 35.6169C81.5767 35.6513 81.5015 35.6691 81.4253 35.6686C81.349 35.6682 81.274 35.6495 81.2064 35.6143C68.4704 28.8943 55.7184 37.3743 55.4304 51.6783C55.4251 51.9823 55.2785 52.089 54.9905 51.9983C41.2465 47.6943 30.4464 59.9664 35.1264 73.3104C35.2331 73.6037 35.1291 73.7637 34.8144 73.7903C24.1824 74.6703 16.7984 86.1503 23.1824 95.5823C23.5558 96.1317 23.9078 96.7023 24.2385 97.2943C24.2978 97.404 24.3143 97.5316 24.2846 97.6517C24.255 97.7718 24.1814 97.8755 24.0784 97.9423C14.1504 104.502 13.3904 117.07 22.8624 124.798C22.9132 124.841 22.9537 124.894 22.981 124.954C23.0083 125.014 23.0217 125.08 23.0202 125.146C23.0187 125.212 23.0022 125.277 22.9721 125.336C22.9421 125.395 22.8991 125.446 22.8465 125.486C11.2385 134.422 14.9985 151.766 29.5425 154.694C29.8305 154.753 29.8998 154.91 29.7505 155.166C27.4358 159.161 27.0678 163.212 28.6465 167.318" stroke="#A09496" stroke-width="2"/>
<path d="M189.742 34.9502C189.417 35.1155 189.276 35.3955 189.318 35.7902C189.345 36.0462 189.476 36.2275 189.71 36.3342C190.073 36.5049 190.209 36.7929 190.118 37.1982C187.214 50.6542 175.126 62.2142 163.91 69.3742C151.214 77.4942 139.734 80.9262 126.926 86.0782C118.702 89.3822 115.278 95.9742 105.838 95.9822C105.723 95.982 105.609 95.9531 105.506 95.8983C105.404 95.8434 105.317 95.7642 105.253 95.6676C105.189 95.571 105.15 95.4602 105.139 95.3448C105.128 95.2294 105.146 95.1131 105.19 95.0062C105.318 94.7075 105.566 94.5049 105.934 94.3982C106.11 94.3476 106.267 94.2478 106.387 94.1106C106.507 93.9734 106.585 93.8047 106.612 93.6243C106.639 93.444 106.613 93.2598 106.539 93.0935C106.464 92.9271 106.343 92.7858 106.19 92.6862L99.2305 88.1182C98.9969 87.9663 98.7136 87.9114 98.4414 87.9653C98.1692 88.0191 97.9297 88.1774 97.7745 88.4062C94.2465 93.5182 83.7185 102.366 77.0785 97.5822C76.9985 97.5235 76.9345 97.5395 76.8865 97.6302L76.6064 98.1662" stroke="#382029" stroke-width="2"/>
<path d="M76.607 98.1665L76.1511 98.0385C76.0178 98.0042 75.8782 98.0055 75.7461 98.042C75.6141 98.0785 75.4944 98.149 75.3991 98.2465C73.6337 100.028 71.6151 101.441 69.3431 102.486C69.0657 102.614 68.9217 102.83 68.911 103.134C68.671 108.878 66.903 111.254 64.303 115.366C62.559 118.126 61.143 121.766 61.119 124.598C61.0604 132.406 61.455 140.1 62.303 147.678C62.4097 148.633 62.2444 148.681 61.807 147.822C58.831 141.929 56.4817 135.785 54.759 129.39C54.631 128.918 54.3335 128.509 53.9233 128.242C53.5131 127.975 53.0189 127.868 52.5351 127.942L48.0391 128.638" stroke="#8B5949" stroke-width="2"/>
<path d="M48.0385 128.639C44.6678 130.623 42.5691 133.871 41.7425 138.383C40.9905 142.543 43.1665 148.271 43.6705 152.447C44.5931 160.047 45.7291 167.519 47.0785 174.863C47.1082 175.026 47.1045 175.193 47.0676 175.354C47.0308 175.516 46.9615 175.668 46.8642 175.801C46.7668 175.934 46.6433 176.046 46.5013 176.13C46.3593 176.213 46.2018 176.267 46.0385 176.287C41.0251 176.916 36.7851 175.759 33.3185 172.815C31.9985 171.703 31.8785 170.127 30.7425 168.999C30.0971 168.359 29.3985 167.799 28.6465 167.319" stroke="#311B26" stroke-width="2"/>
<path d="M219.271 73.8379C214.407 83.7846 209.548 92.0219 204.695 98.5499C202.671 101.278 203.527 101.478 203.535 104.262C203.572 111.366 203.191 118.451 202.391 125.518C202.279 126.518 201.855 127.198 201.711 128.19" stroke="#271020" stroke-width="2"/>
<path d="M201.711 128.19C201.684 128.265 201.615 128.348 201.503 128.438C201.353 128.55 201.265 128.7 201.239 128.886C200.279 135.318 198.287 141.39 195.263 147.102" stroke="#5D2C2C" stroke-width="2"/>
<path d="M195.262 147.103C195.35 135.487 198.43 123.431 192.11 114.599C189.326 110.719 187.558 107.519 187.478 102.599C187.473 102.263 187.302 102.108 186.966 102.135C180.523 102.61 175.249 100.447 171.142 95.6469C170.939 95.4122 170.737 95.4069 170.534 95.6309C164.862 101.839 153.678 103.295 148.206 95.8309C148.051 95.6176 147.878 95.6042 147.686 95.7909C141.798 101.498 135.238 102.658 128.006 99.2709" stroke="#733E37" stroke-width="2"/>
<path d="M128.006 99.2706L123.798 95.4546C123.756 95.4159 123.705 95.3867 123.65 95.3688C123.595 95.351 123.537 95.3449 123.479 95.3509C123.421 95.3569 123.365 95.3749 123.314 95.4038C123.263 95.4327 123.218 95.4718 123.182 95.5186C116.598 104.367 105.806 103.775 99.0064 95.7506C98.9702 95.7077 98.9252 95.6732 98.8745 95.6492C98.8237 95.6252 98.7684 95.6124 98.7123 95.6116C98.6562 95.6109 98.6005 95.6221 98.5491 95.6447C98.4977 95.6674 98.4518 95.7007 98.4145 95.7426C91.8865 103.172 84.6171 103.98 76.6064 98.1666" stroke="#78443B" stroke-width="2"/>
<path d="M128.006 99.2705C127.34 99.5532 126.831 100.033 126.479 100.711" stroke="#BD6D4F" stroke-width="2"/>
<path d="M126.479 100.71C125.604 99.83 124.588 99.4567 123.431 99.59C123.163 99.6211 122.918 99.7527 122.743 99.958C120.86 102.145 118.615 103.739 116.007 104.742C112.999 105.902 106.159 105.894 102.967 104.958C98.9671 103.785 95.0044 104.073 91.0791 105.822C90.8124 105.939 90.5511 105.934 90.2951 105.806C88.7671 105.046 87.4391 105.374 86.0871 104.982C82.1271 103.814 79.1031 102.806 76.5031 99.814C76.4194 99.7179 76.3611 99.6025 76.3331 99.4782C76.3052 99.354 76.3086 99.2247 76.3431 99.102L76.6071 98.166" stroke="#CB7D5B" stroke-width="2"/>
<path d="M109.166 193.975C108.798 194.833 108.299 195.425 107.67 195.751" stroke="#6C3934" stroke-width="2"/>
<path d="M107.67 195.75L102.078 197.294" stroke="#8F6A3B" stroke-width="2"/>
<path d="M102.079 197.295C97.1452 198.687 92.7372 200.583 88.8545 202.983" stroke="#8F6337" stroke-width="2"/>
<path d="M88.8542 202.982C85.9902 201.574 84.2969 199.614 83.7743 197.102C83.7592 197.026 83.7244 196.955 83.6734 196.896C83.6224 196.837 83.5569 196.792 83.4834 196.766C83.4098 196.74 83.3309 196.734 83.2542 196.748C83.1775 196.762 83.1059 196.796 83.0463 196.846C75.7823 202.878 65.4943 199.086 64.7503 189.35C64.729 189.084 64.593 189.004 64.3423 189.11C57.1263 192.177 51.777 190.614 48.2943 184.422C47.1663 182.422 47.2063 179.686 47.0783 177.398C47.0676 177.121 46.9236 177.006 46.6463 177.054C42.0276 177.849 37.8223 176.94 34.0303 174.326" stroke="#7C7783" stroke-width="2"/>
<path d="M133.382 104.23L132.494 149.022" stroke="#CB7D5B" stroke-width="2"/>
<path d="M132.494 149.022C125.166 147.574 116.446 155.67 126.302 161.486" stroke="#C67757" stroke-width="2"/>
<path d="M126.303 161.486C127.684 161.961 128.881 162.74 129.895 163.822C131.031 165.022 135.303 169.23 138.111 169.374C138.383 169.39 138.412 169.481 138.199 169.646C137.745 170.009 137.673 170.414 137.983 170.862" stroke="#CB7D5B" stroke-width="2"/>
<path d="M137.983 170.862C128.911 171.726 118.359 171.718 109.791 168.398" stroke="#E9C2B0" stroke-width="2"/>
<path d="M109.79 168.398C109.524 167.385 108.889 166.825 107.886 166.718C107.684 166.697 107.48 166.723 107.29 166.793C107.099 166.864 106.927 166.978 106.788 167.126C106.649 167.273 106.545 167.452 106.486 167.646C106.427 167.84 106.413 168.046 106.446 168.246C107.406 173.958 112.902 178.222 117.966 180.126C125.236 182.857 132.532 182.923 139.854 180.326" stroke="#8F5242" stroke-width="2"/>
<path d="M139.854 180.326C140.884 183.804 142.78 186.868 145.543 189.518C145.74 189.71 145.86 189.94 145.902 190.206C146.073 191.38 145.852 192.47 145.239 193.478C145.111 193.692 144.924 193.825 144.679 193.878C144.337 193.953 144.143 194.156 144.095 194.486" stroke="#CB7D5B" stroke-width="2"/>
<path d="M144.094 194.487C132.953 195.692 121.801 195.545 110.638 194.047C110.371 194.009 110.107 194.033 109.846 194.119C109.403 194.257 109.177 194.209 109.166 193.975" stroke="#C67757" stroke-width="2"/>
<path d="M109.167 193.975C89.5592 189.071 69.5273 181.375 62.7513 160.023C62.6606 159.74 62.6606 159.46 62.7513 159.183L62.8873 158.783C62.9939 158.457 62.8793 158.321 62.5433 158.375C50.5753 160.239 42.0553 150.935 42.7353 139.415C42.9859 135.212 44.7539 131.62 48.0393 128.639" stroke="#7A4940" stroke-width="2"/>
<path d="M195.263 147.103L193.687 158.399" stroke="#A25640" stroke-width="2"/>
<path d="M149.775 194.191C149.535 193.721 149.423 193.263 149.439 192.815C149.444 192.537 149.575 192.345 149.831 192.239C157.367 189.079 164.623 182.799 165.775 174.231C165.919 173.18 165.802 171.441 165.423 169.015C164.628 163.873 165.476 158.985 167.967 154.351C168.719 152.943 170.223 151.415 170.983 149.551C171.122 149.209 171.015 149.089 170.663 149.191C170.002 149.377 169.524 149.236 169.231 148.767C169.098 148.548 168.903 148.447 168.647 148.463C168.322 148.484 168.02 148.433 167.743 148.311" stroke="#BD6D4F" stroke-width="2"/>
<path d="M167.742 148.311C171.033 146.209 172.99 142.791 173.614 138.055" stroke="#A25640" stroke-width="2"/>
<path d="M173.614 138.054C174.905 139.489 176.017 140.26 176.95 140.366C177.313 140.409 177.454 140.252 177.374 139.894C175.998 133.569 172.233 129.182 166.078 126.734" stroke="#63372B" stroke-width="2"/>
<path d="M166.079 126.734L166.687 123.358C166.735 123.091 166.689 122.841 166.551 122.606C164.849 119.662 165.193 117.142 167.583 115.046" stroke="#BD6D4F" stroke-width="2"/>
<path d="M167.582 115.047C170.788 116.348 173.772 118.132 176.534 120.399C176.622 120.468 176.729 120.507 176.841 120.51C176.952 120.513 177.062 120.479 177.153 120.414C177.243 120.348 177.31 120.255 177.343 120.149C177.376 120.042 177.373 119.927 177.334 119.823C175.126 114.159 171.246 109.863 165.694 106.935" stroke="#733E37" stroke-width="2"/>
<path d="M165.695 106.934L161.839 103.934C161.673 103.806 161.487 103.75 161.279 103.766L160.711 103.806C160.438 103.832 160.165 103.755 159.943 103.59C158.785 102.737 157.591 102.63 156.359 103.27C156.092 103.409 155.809 103.449 155.511 103.39C153.879 103.075 152.3 102.577 150.775 101.894C149.695 101.414 148.375 99.614 146.967 100.486C142.375 103.307 137.847 104.555 133.383 104.23" stroke="#BD6D4F" stroke-width="2"/>
<path d="M133.383 104.23C130.983 103.451 128.681 102.278 126.479 100.71" stroke="#C67757" stroke-width="2"/>
<path d="M223.062 172.358C219.313 175.857 214.889 177.476 209.79 177.214C209.523 177.198 209.379 177.326 209.358 177.598C209.158 179.878 209.214 182.318 208.238 184.294C205.078 190.71 197.302 192.374 191.222 188.83C190.913 188.649 190.747 188.737 190.726 189.094C190.126 198.798 180.662 202.606 173.006 197.286C172.954 197.25 172.896 197.225 172.834 197.212C172.773 197.199 172.709 197.198 172.647 197.21C172.585 197.222 172.526 197.246 172.474 197.281C172.422 197.317 172.377 197.362 172.342 197.414C170.558 200.126 169.774 201.814 166.078 203.398" stroke="#7C7783" stroke-width="2"/>
<path d="M166.079 203.398C163.61 201.868 161.276 200.617 159.079 199.646C156.764 198.628 153.708 197.63 149.911 196.654" stroke="#8E5D32" stroke-width="2"/>
<path d="M149.911 196.654L145.143 195.23" stroke="#8F6A3B" stroke-width="2"/>
<path d="M145.142 195.231C144.79 194.916 144.656 194.735 144.742 194.687" stroke="#6C3934" stroke-width="2"/>
<path d="M144.742 194.686L149.774 194.19" stroke="#713F38" stroke-width="2"/>
<path d="M149.775 194.19C169.519 190.59 189.279 179.59 193.687 158.398" stroke="#6C3934" stroke-width="2"/>
<path d="M193.687 158.399C209.439 162.095 220.391 141.711 209.687 130.495C207.423 128.135 204.814 127.519 201.71 128.191" stroke="#562829" stroke-width="2"/>
<path d="M149.911 196.654C149.287 210.574 145.735 220.654 130.303 223.302" stroke="#FDBC4F" stroke-width="2"/>
<path d="M130.302 223.303C119.846 225.039 109.006 218.959 105.502 208.999C105.486 208.951 105.059 206.97 104.222 203.055C103.774 200.97 103.059 199.05 102.078 197.295" stroke="#FEC154" stroke-width="2"/>
<path d="M88.8543 202.982C82.993 207.526 79.065 213.07 77.0703 219.614" stroke="#EACF9C" stroke-width="2"/>
<path d="M145.142 195.23C144.782 195.11 144.622 195.278 144.63 195.63C144.99 221.718 109.646 223.406 107.67 195.75" stroke="#DB9852" stroke-width="2"/>
<path d="M126.158 234.302C109.486 234.222 93.2864 229.63 78.9424 221.166" stroke="#EACF9C" stroke-width="2"/>
<path d="M165.695 106.935C161.143 105.791 152.135 104.351 149.431 109.415C149.312 109.632 149.272 109.884 149.319 110.127C149.644 111.935 150.655 112.951 152.351 113.175C156.695 113.751 162.391 112.967 167.583 115.047" stroke="#78443B" stroke-width="2"/>
<path d="M166.078 126.735C159.142 125.231 151.334 128.055 150.95 136.167C150.924 136.668 151.361 136.759 152.262 136.439" stroke="#683D2F" stroke-width="2"/>
<path d="M152.263 136.438C151.581 143.025 153.789 147.294 158.888 149.246C161.816 150.366 165.064 149.75 167.744 148.31" stroke="#A75C44" stroke-width="2"/>
<path d="M144.743 194.686L144.095 194.486" stroke="#BD6D4F" stroke-width="2"/>
<path d="M139.854 180.326C144.982 178.302 150.223 174.374 151.631 168.782C151.697 168.519 151.682 168.241 151.589 167.986C151.495 167.731 151.327 167.51 151.106 167.352C150.885 167.194 150.621 167.106 150.349 167.1C150.078 167.094 149.81 167.17 149.583 167.318C149.033 167.67 148.513 168.22 148.023 168.966" stroke="#86483B" stroke-width="2"/>
<path d="M148.022 168.967C144.636 170.113 141.289 170.745 137.982 170.863" stroke="#E0B8A8" stroke-width="2"/>
<path d="M126.303 161.486C126.521 161.198 126.663 161.137 126.727 161.302" stroke="#BD6D4F" stroke-width="2"/>
<path d="M126.727 161.303C129.617 162.065 132.735 161.615 136.079 159.951C137.641 159.167 138.401 158.023 138.359 156.519" stroke="#DA8A65" stroke-width="2"/>
<path d="M138.358 156.518C139.217 153.404 137.262 150.905 132.494 149.022" stroke="#BD6D4F" stroke-width="2"/>
<path d="M109.791 168.398C116.055 181.91 141.983 182.59 148.023 168.966" stroke="#A38D90" stroke-width="2"/>
<path d="M138.359 156.518C134.007 151.998 127.151 153.078 124.239 158.262C124.17 158.384 124.144 158.525 124.164 158.664C124.184 158.803 124.25 158.931 124.351 159.03L126.727 161.302" stroke="#D58461" stroke-width="2"/>
<path d="M173.615 138.054C172.628 136.022 171.649 134.622 170.679 133.854C169.937 133.268 169.129 132.932 168.255 132.846C168.106 132.829 167.955 132.862 167.828 132.941C167.7 133.019 167.603 133.139 167.552 133.28C167.501 133.421 167.499 133.575 167.547 133.717C167.595 133.859 167.689 133.981 167.815 134.062C171.343 136.454 170.607 142.078 167.911 144.558C162.663 149.398 156.335 145.526 155.727 138.934C155.7 138.673 155.783 138.449 155.975 138.262C156.599 137.676 157.017 137.054 157.231 136.398" stroke="#4C261F" stroke-width="2"/>
<path d="M157.23 136.398C160.174 136.726 161.894 133.622 160.19 131.238C160.041 131.025 159.841 130.884 159.59 130.814C157.692 130.292 156.27 131.004 155.326 132.95" stroke="#858284" stroke-width="2"/>
<path d="M155.327 132.95C153.897 132.86 152.876 134.022 152.263 136.438" stroke="#4C261F" stroke-width="2"/>
<path d="M178.542 220.022C176.595 213.5 172.441 207.958 166.078 203.398" stroke="#EAC997" stroke-width="2"/>
<path d="M176.358 221.446C160.561 230.086 143.828 234.372 126.158 234.302" stroke="#EAC997" stroke-width="2"/>
<path d="M126.158 234.303C126.436 233.753 127.153 233.337 128.31 233.055C128.62 232.98 128.732 232.785 128.646 232.471C127.926 229.857 127.889 227.297 128.534 224.791C128.588 224.583 128.55 224.415 128.422 224.287C128.273 224.132 128.305 224.036 128.518 223.999C129.185 223.887 129.78 223.655 130.302 223.303" stroke="#FDB54B" stroke-width="2"/>
<path d="M157.23 136.398C155.806 135.854 155.172 134.705 155.326 132.95" stroke="#C4A199" stroke-width="2"/>
<path d="M105.398 107.311C103.905 106.372 102.289 105.834 100.55 105.695C90.7105 104.895 82.0305 110.479 78.9905 119.935C78.9381 120.099 78.9409 120.276 78.9983 120.439C79.0558 120.602 79.1647 120.741 79.3087 120.836C79.4526 120.931 79.6237 120.977 79.7958 120.966C79.968 120.955 80.1318 120.888 80.2624 120.775C87.8944 114.095 93.9184 113.527 103.862 113.127C107.158 112.991 108.334 109.151 105.398 107.311Z" stroke="#814E43" stroke-width="2"/>
<path d="M84.9023 136.774C85.073 140.4 85.7664 143.195 86.9824 145.158C90.1664 150.31 96.9184 151.382 101.846 148.134C105.516 145.718 107.033 141.87 106.398 136.59" stroke="#B0664B" stroke-width="2"/>
<path d="M106.398 136.591C107.182 135.433 107.286 134.249 106.71 133.039C104.118 127.527 98.8381 124.927 92.8701 126.063C85.9101 127.383 80.8541 133.351 78.7101 139.879C78.6913 139.936 78.6841 139.997 78.689 140.057C78.6938 140.117 78.7105 140.175 78.7382 140.228C78.7658 140.281 78.8038 140.328 78.8499 140.365C78.8959 140.403 78.949 140.431 79.0061 140.447C81.5741 141.207 83.51 138.711 84.902 136.775" stroke="#714736" stroke-width="2"/>
<path d="M106.399 136.59C105.919 135.782 101.375 130.166 100.423 131.526C100.2 131.841 100.109 132.23 100.169 132.612C100.229 132.994 100.435 133.339 100.743 133.574C107.223 138.494 102.319 148.022 94.615 146.598C90.7537 145.883 88.7564 142.923 88.623 137.718" stroke="#4C261F" stroke-width="2"/>
<path d="M88.6225 137.719C91.7905 138.311 93.7105 136.27 92.7105 133.174C91.5425 129.59 87.5185 132.319 86.8545 134.815" stroke="#858284" stroke-width="2"/>
<path d="M86.8543 134.814C85.8037 135.401 85.153 136.054 84.9023 136.774" stroke="#4C261F" stroke-width="2"/>
<path d="M88.6225 137.718C87.6358 137.062 87.0465 136.094 86.8545 134.814" stroke="#C4A199" stroke-width="2"/>
<path d="M74.5423 172.247C75.209 173.18 76.1503 173.748 77.3663 173.951C77.6582 173.998 77.9576 173.948 78.2179 173.807C78.4783 173.667 78.6851 173.445 78.8063 173.175C78.9275 172.905 78.9564 172.603 78.8884 172.315C78.8204 172.027 78.6594 171.77 78.4303 171.583C72.9743 167.119 71.5503 159.143 76.6783 153.863C76.8928 153.643 77.1667 153.491 77.4674 153.422C77.7681 153.354 78.0829 153.374 78.3743 153.479C80.0863 154.103 84.7423 153.967 84.6543 151.263C84.6471 150.977 84.5639 150.698 84.4133 150.456C84.2627 150.214 84.0503 150.017 83.7983 149.887C79.9796 147.866 75.9743 147.023 71.7823 147.359C67.1823 147.735 67.0543 153.047 66.8943 156.495C66.5903 162.775 71.1583 167.535 74.5423 172.247Z" stroke="#E3946D" stroke-width="2"/>
<path d="M189.742 34.9503C189.417 35.1157 189.276 35.3957 189.318 35.7903C189.345 36.0463 189.476 36.2277 189.71 36.3344C190.073 36.505 190.209 36.793 190.118 37.1983C187.214 50.6543 175.126 62.2143 163.91 69.3743C151.214 77.4943 139.734 80.9263 126.926 86.0783C118.702 89.3823 115.278 95.9743 105.838 95.9823C105.723 95.9821 105.609 95.9533 105.506 95.8984C105.404 95.8435 105.317 95.7643 105.253 95.6678C105.189 95.5712 105.15 95.4603 105.139 95.3449C105.128 95.2295 105.146 95.1132 105.19 95.0063C105.318 94.7077 105.566 94.505 105.934 94.3983C106.11 94.3478 106.267 94.2479 106.387 94.1108C106.507 93.9736 106.585 93.8048 106.612 93.6245C106.639 93.4442 106.613 93.2599 106.539 93.0936C106.464 92.9273 106.343 92.7859 106.19 92.6863L99.2304 88.1183C98.9969 87.9665 98.7136 87.9116 98.4414 87.9654C98.1691 88.0193 97.9297 88.1776 97.7744 88.4063C94.2464 93.5183 83.7184 102.366 77.0784 97.5823C76.9984 97.5237 76.9345 97.5397 76.8865 97.6303L76.6064 98.1663L76.1505 98.0383C76.0172 98.0041 75.8775 98.0054 75.7455 98.0419C75.6135 98.0784 75.4938 98.1489 75.3985 98.2463C73.6331 100.028 71.6145 101.441 69.3425 102.486C69.0651 102.614 68.9211 102.83 68.9104 103.134C68.6704 108.878 66.9024 111.254 64.3024 115.366C62.5584 118.126 61.1424 121.766 61.1184 124.598C61.0598 132.406 61.4544 140.1 62.3024 147.678C62.4091 148.633 62.2438 148.681 61.8064 147.822C58.8304 141.929 56.4811 135.785 54.7584 129.39C54.6304 128.918 54.3329 128.509 53.9227 128.242C53.5125 127.975 53.0183 127.868 52.5344 127.942L48.0385 128.638C44.6678 130.622 42.5691 133.87 41.7425 138.382C40.9905 142.542 43.1664 148.27 43.6704 152.446C44.5931 160.046 45.7291 167.518 47.0784 174.862C47.1082 175.025 47.1045 175.193 47.0676 175.354C47.0308 175.515 46.9615 175.667 46.8641 175.801C46.7667 175.934 46.6433 176.046 46.5013 176.129C46.3593 176.213 46.2018 176.266 46.0385 176.286C41.0251 176.916 36.7851 175.758 33.3184 172.814C31.9984 171.702 31.8785 170.126 30.7425 168.998C30.0971 168.358 29.3985 167.798 28.6465 167.318C27.0678 163.212 27.4358 159.161 29.7505 155.166C29.8998 154.91 29.8305 154.753 29.5425 154.694C14.9985 151.766 11.2385 134.422 22.8465 125.486C22.8991 125.446 22.9421 125.395 22.9721 125.336C23.0022 125.277 23.0187 125.212 23.0202 125.146C23.0217 125.08 23.0083 125.014 22.981 124.954C22.9537 124.894 22.9132 124.841 22.8624 124.798C13.3904 117.07 14.1504 104.502 24.0784 97.9423C24.1814 97.8755 24.255 97.7718 24.2846 97.6517C24.3143 97.5316 24.2978 97.404 24.2385 97.2943C23.9078 96.7023 23.5558 96.1317 23.1824 95.5823C16.7984 86.1503 24.1824 74.6703 34.8144 73.7903C35.1291 73.7637 35.2331 73.6037 35.1264 73.3104C30.4464 59.9664 41.2465 47.6943 54.9905 51.9983C55.2785 52.089 55.4251 51.9823 55.4304 51.6783C55.7184 37.3743 68.4704 28.8943 81.2064 35.6143C81.274 35.6495 81.349 35.6682 81.4253 35.6686C81.5015 35.6691 81.5767 35.6513 81.6448 35.6169C81.7128 35.5825 81.7716 35.5324 81.8164 35.4708C81.8612 35.4091 81.8907 35.3376 81.9024 35.2623C84.1024 21.0303 100.142 16.7183 110.366 26.0383C110.585 26.2357 110.764 26.2037 110.902 25.9423C118.318 12.2143 137.182 12.7503 143.134 27.2543C143.246 27.5157 143.401 27.545 143.598 27.3423C153.182 17.5423 168.278 21.2383 172.43 34.1344C172.45 34.1978 172.483 34.2562 172.527 34.3055C172.572 34.3548 172.627 34.3938 172.689 34.4197C172.75 34.4456 172.817 34.4578 172.885 34.4555C172.952 34.4532 173.018 34.4364 173.078 34.4063C178.657 31.6277 184.212 31.809 189.742 34.9503Z" fill="#422B2F"/>
<path d="M189.742 34.9502C196.318 38.6569 199.982 44.2782 200.734 51.8142C200.766 52.0969 200.918 52.2089 201.19 52.1502C210.478 50.1342 219.446 54.8862 221.238 64.2462C221.889 67.6542 221.233 70.8515 219.27 73.8382C214.406 83.7849 209.548 92.0222 204.694 98.5502C202.67 101.278 203.526 101.478 203.534 104.262C203.572 111.366 203.19 118.452 202.39 125.518C202.278 126.518 201.854 127.198 201.71 128.19C201.684 128.265 201.614 128.348 201.502 128.438C201.353 128.55 201.265 128.7 201.238 128.886C200.278 135.318 198.286 141.39 195.262 147.102C195.35 135.486 198.43 123.43 192.11 114.598C189.326 110.718 187.558 107.518 187.478 102.598C187.473 102.262 187.302 102.108 186.966 102.134C180.524 102.609 175.249 100.446 171.142 95.6462C170.94 95.4115 170.737 95.4062 170.534 95.6302C164.862 101.838 153.678 103.294 148.206 95.8302C148.052 95.6169 147.878 95.6035 147.686 95.7902C141.798 101.497 135.238 102.657 128.006 99.2702L123.798 95.4542C123.756 95.4155 123.705 95.3863 123.65 95.3684C123.595 95.3505 123.537 95.3444 123.479 95.3504C123.421 95.3565 123.365 95.3745 123.314 95.4034C123.263 95.4322 123.218 95.4713 123.182 95.5182C116.598 104.366 105.806 103.774 99.0064 95.7502C98.9702 95.7073 98.9252 95.6727 98.8745 95.6487C98.8237 95.6247 98.7684 95.6119 98.7123 95.6112C98.6562 95.6104 98.6005 95.6217 98.5491 95.6443C98.4977 95.6669 98.4518 95.7003 98.4145 95.7422C91.8865 103.172 84.6171 103.98 76.6064 98.1662L76.8865 97.6302C76.9345 97.5395 76.9985 97.5235 77.0785 97.5822C83.7185 102.366 94.2465 93.5182 97.7745 88.4062C97.9297 88.1774 98.1692 88.0191 98.4414 87.9653C98.7136 87.9114 98.9969 87.9663 99.2305 88.1182L106.19 92.6862C106.343 92.7858 106.464 92.9271 106.539 93.0935C106.613 93.2598 106.639 93.444 106.612 93.6243C106.585 93.8047 106.507 93.9734 106.387 94.1106C106.267 94.2478 106.11 94.3476 105.934 94.3982C105.566 94.5049 105.318 94.7075 105.19 95.0062C105.146 95.1131 105.128 95.2294 105.139 95.3448C105.15 95.4602 105.189 95.571 105.253 95.6676C105.317 95.7642 105.404 95.8434 105.506 95.8983C105.609 95.9531 105.723 95.982 105.838 95.9822C115.278 95.9742 118.702 89.3822 126.926 86.0782C139.734 80.9262 151.214 77.4942 163.91 69.3742C175.126 62.2142 187.214 50.6542 190.118 37.1982C190.209 36.7929 190.073 36.5049 189.71 36.3342C189.476 36.2275 189.345 36.0462 189.318 35.7902C189.276 35.3955 189.417 35.1155 189.742 34.9502Z" fill="#2E1423"/>
<path d="M219.27 73.8379C232.27 74.7659 238.67 87.2939 230.646 97.6059C230.47 97.8299 230.51 98.0112 230.766 98.1499C241.054 103.542 242.302 117.998 232.43 124.542C232.375 124.578 232.331 124.626 232.3 124.683C232.269 124.741 232.252 124.805 232.252 124.87C232.252 124.935 232.269 124.999 232.3 125.056C232.331 125.114 232.375 125.162 232.43 125.198C244.726 133.398 240.782 152.59 225.974 154.83C225.707 154.873 225.632 155.014 225.75 155.254C228.683 161.542 227.787 167.243 223.062 172.358C219.312 175.857 214.888 177.475 209.79 177.214C209.523 177.198 209.379 177.326 209.358 177.598C209.158 179.878 209.214 182.318 208.238 184.294C205.078 190.71 197.302 192.374 191.222 188.83C190.912 188.649 190.747 188.737 190.726 189.094C190.126 198.798 180.662 202.606 173.006 197.286C172.954 197.25 172.896 197.225 172.834 197.212C172.772 197.198 172.709 197.198 172.647 197.21C172.585 197.222 172.526 197.246 172.474 197.281C172.421 197.316 172.376 197.361 172.342 197.414C170.558 200.126 169.774 201.814 166.078 203.398C163.608 201.867 161.275 200.617 159.078 199.646C156.763 198.627 153.707 197.63 149.91 196.654L145.142 195.23C144.79 194.915 144.656 194.734 144.742 194.686L149.774 194.19C169.518 190.59 189.278 179.59 193.686 158.398C209.438 162.094 220.39 141.71 209.686 130.494C207.422 128.134 204.814 127.518 201.71 128.19C201.854 127.198 202.278 126.518 202.39 125.518C203.19 118.451 203.571 111.366 203.534 104.262C203.526 101.478 202.67 101.278 204.694 98.5499C209.547 92.0219 214.406 83.7846 219.27 73.8379Z" fill="#200B1D"/>
<path d="M128.007 99.2706C127.34 99.5533 126.831 100.033 126.479 100.711C125.604 99.8306 124.588 99.4573 123.431 99.5906C123.163 99.6217 122.918 99.7533 122.743 99.9586C120.86 102.145 118.615 103.74 116.007 104.743C112.999 105.903 106.159 105.895 102.967 104.959C98.9671 103.785 95.0044 104.073 91.0791 105.823C90.8124 105.94 90.5511 105.935 90.2951 105.807C88.7671 105.047 87.4391 105.375 86.0871 104.983C82.1271 103.815 79.1031 102.807 76.5031 99.8146C76.4194 99.7185 76.3611 99.6031 76.3331 99.4789C76.3052 99.3546 76.3086 99.2253 76.3431 99.1026L76.6071 98.1666C84.6177 103.98 91.8871 103.172 98.4151 95.7426C98.4524 95.7007 98.4984 95.6674 98.5497 95.6447C98.6011 95.6221 98.6568 95.6109 98.7129 95.6116C98.7691 95.6124 98.8243 95.6252 98.8751 95.6492C98.9258 95.6732 98.9708 95.7077 99.0071 95.7506C105.807 103.775 116.599 104.367 123.183 95.5186C123.219 95.4718 123.263 95.4327 123.314 95.4038C123.365 95.3749 123.422 95.3569 123.48 95.3509C123.538 95.3449 123.596 95.351 123.651 95.3688C123.706 95.3867 123.756 95.4159 123.799 95.4546L128.007 99.2706Z" fill="#C27353"/>
<path d="M195.263 147.103L193.687 158.399C189.279 179.591 169.519 190.591 149.775 194.191C149.535 193.722 149.423 193.263 149.439 192.815C149.444 192.538 149.575 192.346 149.831 192.239C157.367 189.079 164.623 182.799 165.775 174.231C165.919 173.18 165.801 171.442 165.423 169.015C164.628 163.874 165.476 158.986 167.967 154.351C168.719 152.943 170.223 151.415 170.983 149.551C171.121 149.21 171.015 149.09 170.663 149.191C170.001 149.378 169.524 149.236 169.231 148.767C169.097 148.548 168.903 148.447 168.647 148.463C168.321 148.484 168.02 148.434 167.743 148.311C171.033 146.21 172.991 142.791 173.615 138.055C174.905 139.49 176.017 140.26 176.951 140.367C177.313 140.41 177.455 140.252 177.375 139.895C175.999 133.57 172.233 129.183 166.079 126.735L166.687 123.359C166.735 123.092 166.689 122.842 166.551 122.607C164.849 119.663 165.193 117.143 167.583 115.047C170.788 116.348 173.772 118.132 176.535 120.399C176.622 120.468 176.729 120.508 176.841 120.51C176.953 120.513 177.062 120.479 177.153 120.414C177.243 120.349 177.31 120.256 177.343 120.149C177.376 120.042 177.373 119.928 177.335 119.823C175.127 114.159 171.247 109.863 165.695 106.935L161.839 103.935C161.673 103.807 161.487 103.751 161.279 103.767L160.71 103.807C160.438 103.833 160.164 103.756 159.943 103.591C158.785 102.738 157.59 102.631 156.358 103.271C156.092 103.41 155.809 103.45 155.51 103.391C153.878 103.076 152.3 102.578 150.775 101.895C149.695 101.415 148.375 99.6149 146.967 100.487C142.375 103.308 137.847 104.556 133.383 104.231C130.983 103.452 128.681 102.279 126.479 100.711C126.831 100.034 127.34 99.5536 128.006 99.2709C135.238 102.658 141.799 101.498 147.687 95.7909C147.879 95.6042 148.052 95.6176 148.206 95.8309C153.678 103.295 164.863 101.839 170.535 95.6309C170.737 95.4069 170.94 95.4122 171.143 95.6469C175.249 100.447 180.524 102.61 186.967 102.135C187.303 102.108 187.473 102.263 187.479 102.599C187.559 107.519 189.326 110.719 192.11 114.599C198.43 123.431 195.351 135.487 195.263 147.103Z" fill="#B8674B"/>
<path d="M76.6072 98.1665L76.3433 99.1025C76.3088 99.2251 76.3054 99.3544 76.3333 99.4787C76.3612 99.603 76.4196 99.7184 76.5032 99.8145C79.1032 102.806 82.1273 103.814 86.0873 104.982C87.4393 105.374 88.7673 105.046 90.2953 105.806C90.5513 105.934 90.8126 105.94 91.0793 105.822C95.0046 104.073 98.9672 103.785 102.967 104.958C106.159 105.894 112.999 105.902 116.007 104.742C118.615 103.74 120.861 102.145 122.743 99.9585C122.918 99.7531 123.164 99.6216 123.431 99.5905C124.589 99.4571 125.605 99.8305 126.479 100.71C128.682 102.278 130.983 103.452 133.383 104.23L132.495 149.022C125.167 147.574 116.447 155.67 126.303 161.486C127.685 161.961 128.882 162.74 129.895 163.822C131.031 165.022 135.303 169.23 138.111 169.374C138.383 169.39 138.413 169.481 138.199 169.646C137.746 170.009 137.674 170.414 137.983 170.862C128.911 171.726 118.359 171.718 109.791 168.398C109.525 167.385 108.89 166.825 107.887 166.718C107.685 166.697 107.481 166.723 107.29 166.794C107.1 166.864 106.928 166.978 106.789 167.126C106.65 167.274 106.546 167.452 106.487 167.646C106.428 167.841 106.414 168.046 106.447 168.246C107.407 173.958 112.903 178.222 117.967 180.126C125.237 182.857 132.533 182.924 139.855 180.326C140.885 183.804 142.781 186.868 145.543 189.518C145.741 189.71 145.861 189.94 145.903 190.206C146.074 191.38 145.853 192.47 145.239 193.478C145.111 193.692 144.925 193.825 144.679 193.878C144.338 193.953 144.143 194.156 144.095 194.486C132.954 195.692 121.802 195.545 110.639 194.046C110.373 194.009 110.109 194.033 109.847 194.118C109.405 194.257 109.178 194.209 109.167 193.974C89.5592 189.07 69.5273 181.374 62.7513 160.022C62.6606 159.74 62.6606 159.46 62.7513 159.182L62.8873 158.782C62.9939 158.457 62.8793 158.321 62.5433 158.374C50.5753 160.238 42.0553 150.934 42.7353 139.414C42.9859 135.212 44.7539 131.62 48.0393 128.638L52.5353 127.942C53.0191 127.868 53.5133 127.975 53.9235 128.242C54.3337 128.509 54.6312 128.918 54.7592 129.39C56.4819 135.785 58.8312 141.929 61.8072 147.822C62.2446 148.681 62.4099 148.633 62.3032 147.678C61.4552 140.1 61.0606 132.406 61.1192 124.598C61.1432 121.766 62.5592 118.126 64.3032 115.366C66.9032 111.254 68.6712 108.878 68.9112 103.134C68.9219 102.83 69.0659 102.614 69.3433 102.486C71.6153 101.441 73.6339 100.028 75.3993 98.2465C75.4946 98.149 75.6143 98.0785 75.7463 98.042C75.8783 98.0055 76.018 98.0042 76.1513 98.0385L76.6072 98.1665ZM105.399 107.31C103.906 106.372 102.29 105.833 100.551 105.694C90.7113 104.894 82.0313 110.478 78.9913 119.934C78.9389 120.099 78.9417 120.276 78.9991 120.438C79.0566 120.601 79.1655 120.741 79.3095 120.836C79.4534 120.931 79.6245 120.976 79.7966 120.965C79.9688 120.954 80.1326 120.887 80.2632 120.774C87.8952 114.094 93.9192 113.526 103.863 113.126C107.159 112.99 108.335 109.15 105.399 107.31ZM84.9032 136.774C85.0739 140.401 85.7673 143.196 86.9833 145.158C90.1673 150.31 96.9193 151.382 101.847 148.134C105.517 145.718 107.034 141.87 106.399 136.59C107.183 135.433 107.287 134.249 106.711 133.038C104.119 127.526 98.8392 124.926 92.8712 126.062C85.9112 127.382 80.8552 133.35 78.7112 139.878C78.6925 139.936 78.6853 139.996 78.6901 140.056C78.695 140.116 78.7117 140.175 78.7394 140.228C78.767 140.281 78.805 140.327 78.851 140.365C78.8971 140.403 78.9502 140.43 79.0072 140.446C81.5752 141.206 83.5112 138.71 84.9032 136.774ZM74.5433 172.246C75.2099 173.18 76.1512 173.748 77.3672 173.95C77.6592 173.998 77.9585 173.947 78.2189 173.807C78.4793 173.666 78.6861 173.444 78.8073 173.174C78.9285 172.905 78.9573 172.602 78.8894 172.315C78.8214 172.027 78.6604 171.769 78.4313 171.582C72.9753 167.118 71.5513 159.142 76.6793 153.862C76.8938 153.643 77.1677 153.49 77.4684 153.422C77.7691 153.354 78.0839 153.373 78.3752 153.478C80.0872 154.102 84.7432 153.966 84.6552 151.262C84.648 150.976 84.5648 150.698 84.4143 150.455C84.2637 150.213 84.0513 150.017 83.7993 149.886C79.9806 147.865 75.9753 147.022 71.7833 147.358C67.1833 147.734 67.0553 153.046 66.8953 156.494C66.5913 162.774 71.1593 167.534 74.5433 172.246Z" fill="#D48762"/>
<path d="M165.695 106.934C161.143 105.79 152.135 104.35 149.431 109.414C149.312 109.631 149.272 109.883 149.319 110.126C149.644 111.934 150.655 112.95 152.351 113.174C156.695 113.75 162.391 112.966 167.583 115.046C165.193 117.142 164.849 119.662 166.551 122.606C166.689 122.841 166.735 123.091 166.687 123.358L166.079 126.734C159.143 125.23 151.335 128.054 150.951 136.166C150.924 136.667 151.361 136.758 152.263 136.438C151.58 143.025 153.788 147.294 158.887 149.246C161.815 150.366 165.063 149.75 167.743 148.31C168.02 148.433 168.321 148.483 168.647 148.462C168.903 148.446 169.097 148.547 169.231 148.766C169.524 149.235 170.001 149.377 170.663 149.19C171.015 149.089 171.121 149.209 170.983 149.55C170.223 151.414 168.719 152.942 167.967 154.35C165.476 158.985 164.628 163.873 165.423 169.014C165.801 171.441 165.919 173.179 165.775 174.23C164.623 182.798 157.367 189.078 149.831 192.238C149.575 192.345 149.444 192.537 149.439 192.814C149.423 193.262 149.535 193.721 149.775 194.19L144.743 194.686L144.095 194.486C144.143 194.155 144.337 193.953 144.679 193.878C144.924 193.825 145.111 193.691 145.239 193.478C145.852 192.47 146.073 191.379 145.903 190.206C145.86 189.939 145.74 189.71 145.543 189.518C142.78 186.867 140.884 183.803 139.855 180.326C144.983 178.302 150.223 174.374 151.631 168.782C151.697 168.518 151.683 168.241 151.589 167.986C151.495 167.731 151.327 167.51 151.106 167.352C150.885 167.194 150.621 167.106 150.35 167.1C150.078 167.094 149.811 167.17 149.583 167.318C149.033 167.67 148.513 168.219 148.023 168.966C144.636 170.113 141.289 170.745 137.983 170.862C137.673 170.414 137.745 170.009 138.199 169.646C138.412 169.481 138.383 169.39 138.111 169.374C135.303 169.23 131.031 165.022 129.895 163.822C128.881 162.739 127.684 161.961 126.303 161.486C126.521 161.198 126.663 161.137 126.727 161.302C129.617 162.065 132.735 161.614 136.079 159.95C137.641 159.166 138.401 158.022 138.359 156.518C139.217 153.403 137.263 150.905 132.495 149.022L133.383 104.23C137.847 104.555 142.375 103.307 146.967 100.486C148.375 99.614 149.695 101.414 150.775 101.894C152.3 102.577 153.879 103.075 155.511 103.39C155.809 103.449 156.092 103.409 156.359 103.27C157.591 102.63 158.785 102.737 159.943 103.59C160.165 103.755 160.438 103.832 160.711 103.806L161.279 103.766C161.487 103.75 161.673 103.806 161.839 103.934L165.695 106.934Z" fill="#C27353"/>
<path d="M105.398 107.311C108.334 109.151 107.158 112.991 103.862 113.127C93.9184 113.527 87.8944 114.095 80.2624 120.775C80.1318 120.888 79.968 120.955 79.7958 120.966C79.6237 120.977 79.4526 120.931 79.3087 120.836C79.1647 120.741 79.0558 120.602 78.9983 120.439C78.9409 120.276 78.9381 120.099 78.9905 119.935C82.0305 110.479 90.7105 104.895 100.55 105.695C102.289 105.834 103.905 106.372 105.398 107.311Z" fill="#2E1423"/>
<path d="M165.695 106.935C171.247 109.863 175.127 114.159 177.335 119.823C177.373 119.928 177.376 120.042 177.343 120.149C177.31 120.256 177.244 120.349 177.153 120.414C177.062 120.479 176.953 120.513 176.841 120.51C176.73 120.508 176.622 120.469 176.535 120.399C173.772 118.132 170.788 116.348 167.583 115.047C162.391 112.967 156.695 113.751 152.351 113.175C150.655 112.951 149.644 111.935 149.319 110.127C149.272 109.884 149.312 109.632 149.431 109.415C152.135 104.351 161.143 105.791 165.695 106.935Z" fill="#2E1423"/>
<path d="M106.398 136.591C105.918 135.783 101.374 130.167 100.422 131.527C100.199 131.842 100.108 132.231 100.168 132.613C100.228 132.995 100.434 133.34 100.742 133.575C107.222 138.495 102.318 148.023 94.6141 146.599C90.7527 145.884 88.7554 142.924 88.6221 137.719C91.7901 138.311 93.7101 136.271 92.7101 133.175C91.5421 129.591 87.518 132.319 86.854 134.815C85.8034 135.401 85.1527 136.055 84.902 136.775C83.51 138.711 81.5741 141.207 79.0061 140.447C78.949 140.431 78.8959 140.403 78.8499 140.365C78.8038 140.328 78.7658 140.281 78.7382 140.228C78.7105 140.175 78.6938 140.117 78.689 140.057C78.6841 139.997 78.6913 139.936 78.7101 139.879C80.8541 133.351 85.9101 127.383 92.8701 126.063C98.8381 124.927 104.118 127.527 106.71 133.039C107.286 134.249 107.182 135.433 106.398 136.591Z" fill="#0D070A"/>
<path d="M166.078 126.735C172.233 129.183 175.998 133.569 177.374 139.895C177.454 140.252 177.313 140.409 176.95 140.367C176.017 140.26 174.905 139.489 173.614 138.055C172.628 136.023 171.649 134.623 170.678 133.855C169.937 133.268 169.129 132.932 168.254 132.847C168.106 132.829 167.955 132.862 167.828 132.941C167.7 133.02 167.603 133.139 167.552 133.28C167.501 133.421 167.499 133.575 167.547 133.717C167.594 133.859 167.689 133.981 167.814 134.063C171.342 136.455 170.606 142.079 167.91 144.559C162.662 149.399 156.334 145.527 155.726 138.935C155.7 138.673 155.782 138.449 155.974 138.263C156.598 137.676 157.017 137.055 157.23 136.399C160.174 136.727 161.894 133.623 160.19 131.239C160.041 131.025 159.841 130.884 159.59 130.815C157.692 130.292 156.27 131.004 155.326 132.951C153.897 132.86 152.876 134.023 152.262 136.439C151.361 136.759 150.924 136.668 150.95 136.167C151.334 128.055 159.142 125.231 166.078 126.735Z" fill="#0D070A"/>
<path d="M193.687 158.399L195.263 147.103C198.287 141.391 200.279 135.319 201.239 128.887C201.265 128.7 201.353 128.551 201.502 128.439C201.614 128.348 201.684 128.266 201.71 128.191C204.814 127.519 207.423 128.135 209.687 130.495C220.391 141.711 209.439 162.095 193.687 158.399Z" fill="#8B4434"/>
<path d="M48.0385 128.639C44.7531 131.62 42.9851 135.212 42.7345 139.415C42.0545 150.935 50.5745 160.239 62.5425 158.375C62.8785 158.321 62.9931 158.457 62.8865 158.783L62.7505 159.183C62.6598 159.46 62.6598 159.74 62.7505 160.023C69.5265 181.375 89.5585 189.071 109.166 193.975C108.798 194.833 108.3 195.425 107.67 195.751L102.078 197.295C97.1451 198.687 92.7371 200.583 88.8544 202.983C85.9904 201.575 84.2971 199.615 83.7745 197.103C83.7594 197.026 83.7246 196.955 83.6736 196.896C83.6226 196.837 83.5571 196.793 83.4835 196.767C83.41 196.741 83.3311 196.735 83.2544 196.749C83.1777 196.763 83.1061 196.797 83.0465 196.847C75.7825 202.879 65.4945 199.087 64.7505 189.351C64.7292 189.084 64.5931 189.004 64.3425 189.111C57.1265 192.177 51.7771 190.615 48.2945 184.423C47.1665 182.423 47.2065 179.687 47.0785 177.399C47.0678 177.121 46.9238 177.007 46.6465 177.055C42.0278 177.849 37.8225 176.94 34.0305 174.327C31.6251 172.62 29.8305 170.284 28.6465 167.319C29.3985 167.799 30.0971 168.359 30.7425 168.999C31.8785 170.127 31.9985 171.703 33.3185 172.815C36.7851 175.759 41.0251 176.916 46.0385 176.287C46.2018 176.267 46.3593 176.213 46.5013 176.13C46.6433 176.046 46.7668 175.934 46.8642 175.801C46.9615 175.668 47.0308 175.516 47.0676 175.354C47.1045 175.193 47.1082 175.026 47.0785 174.863C45.7291 167.519 44.5931 160.047 43.6705 152.447C43.1665 148.271 40.9905 142.543 41.7425 138.383C42.5691 133.871 44.6678 130.623 48.0385 128.639Z" fill="#200B1D"/>
<path d="M157.23 136.398C155.806 135.854 155.172 134.705 155.326 132.95C156.27 131.004 157.692 130.292 159.59 130.814C159.841 130.884 160.041 131.025 160.19 131.238C161.894 133.622 160.174 136.726 157.23 136.398Z" fill="#FDFDFD"/>
<path d="M88.6225 137.719C87.6358 137.063 87.0465 136.095 86.8545 134.815C87.5185 132.319 91.5425 129.59 92.7105 133.174C93.7105 136.27 91.7905 138.311 88.6225 137.719Z" fill="#FDFDFD"/>
<path d="M106.398 136.59C107.033 141.87 105.516 145.718 101.846 148.134C96.9184 151.382 90.1664 150.31 86.9824 145.158C85.7664 143.195 85.073 140.401 84.9023 136.774C85.153 136.054 85.8037 135.401 86.8543 134.814C87.0463 136.094 87.6357 137.062 88.6224 137.718C88.7557 142.923 90.753 145.883 94.6144 146.598C102.318 148.022 107.222 138.494 100.742 133.574C100.434 133.339 100.228 132.994 100.168 132.612C100.109 132.23 100.2 131.841 100.422 131.526C101.374 130.166 105.918 135.782 106.398 136.59Z" fill="#8B4434"/>
<path d="M173.615 138.054C172.991 142.79 171.033 146.209 167.743 148.31C165.063 149.75 161.815 150.366 158.887 149.246C153.788 147.294 151.58 143.025 152.263 136.438C152.876 134.022 153.897 132.86 155.327 132.95C155.172 134.705 155.807 135.854 157.231 136.398C157.017 137.054 156.599 137.676 155.975 138.262C155.783 138.449 155.7 138.673 155.727 138.934C156.335 145.526 162.663 149.398 167.911 144.558C170.607 142.078 171.343 136.454 167.815 134.062C167.689 133.981 167.595 133.859 167.547 133.717C167.499 133.575 167.501 133.421 167.552 133.28C167.603 133.139 167.7 133.019 167.828 132.941C167.955 132.862 168.106 132.829 168.255 132.846C169.129 132.932 169.937 133.268 170.679 133.854C171.649 134.622 172.628 136.022 173.615 138.054Z" fill="#8B4434"/>
<path d="M74.5423 172.247C71.1583 167.535 66.5903 162.775 66.8943 156.495C67.0543 153.047 67.1823 147.735 71.7823 147.359C75.9743 147.023 79.9796 147.866 83.7983 149.887C84.0503 150.017 84.2627 150.214 84.4133 150.456C84.5639 150.698 84.6471 150.977 84.6543 151.263C84.7423 153.967 80.0863 154.103 78.3743 153.479C78.0829 153.374 77.7681 153.354 77.4674 153.422C77.1667 153.491 76.8928 153.643 76.6783 153.863C71.5503 159.143 72.9743 167.119 78.4303 171.583C78.6594 171.77 78.8204 172.027 78.8884 172.315C78.9564 172.603 78.9275 172.905 78.8063 173.175C78.6851 173.445 78.4783 173.667 78.2179 173.807C77.9576 173.948 77.6582 173.998 77.3663 173.951C76.1503 173.748 75.209 173.18 74.5423 172.247Z" fill="#F2A177"/>
<path d="M132.494 149.022C137.262 150.905 139.217 153.403 138.358 156.518C134.006 151.998 127.15 153.078 124.238 158.262C124.169 158.383 124.143 158.524 124.163 158.663C124.183 158.802 124.249 158.931 124.35 159.03L126.726 161.302C126.662 161.137 126.521 161.198 126.302 161.486C116.446 155.67 125.166 147.574 132.494 149.022Z" fill="#B8674B"/>
<path d="M138.359 156.518C138.401 158.022 137.641 159.166 136.079 159.95C132.735 161.614 129.617 162.065 126.727 161.302L124.351 159.03C124.25 158.931 124.184 158.803 124.164 158.664C124.144 158.525 124.17 158.384 124.239 158.262C127.151 153.078 134.007 151.998 138.359 156.518Z" fill="#F2A177"/>
<path d="M109.79 168.398C116.054 181.91 141.982 182.59 148.022 168.966C148.513 168.219 149.033 167.67 149.582 167.318C149.81 167.17 150.077 167.094 150.349 167.1C150.621 167.106 150.885 167.194 151.106 167.352C151.327 167.51 151.495 167.731 151.589 167.986C151.682 168.241 151.697 168.519 151.63 168.782C150.222 174.374 144.982 178.302 139.854 180.326C132.532 182.923 125.236 182.857 117.966 180.126C112.902 178.222 107.406 173.958 106.446 168.246C106.413 168.046 106.427 167.84 106.486 167.646C106.545 167.452 106.649 167.273 106.788 167.126C106.927 166.978 107.099 166.864 107.29 166.793C107.48 166.723 107.684 166.697 107.886 166.718C108.889 166.825 109.524 167.385 109.79 168.398Z" fill="#491D22"/>
<path d="M109.791 168.398C118.359 171.718 128.911 171.726 137.983 170.862C141.29 170.745 144.636 170.113 148.023 168.966C141.983 182.59 116.055 181.91 109.791 168.398Z" fill="#FDFDFD"/>
<path d="M223.062 172.358C223.089 172.657 223.278 172.902 223.63 173.094C223.854 173.217 223.918 173.401 223.822 173.646C222.201 177.742 219.977 181.806 217.15 185.838C206.729 200.702 193.859 212.097 178.542 220.022C176.595 213.5 172.441 207.958 166.078 203.398C169.774 201.814 170.558 200.126 172.342 197.414C172.377 197.362 172.422 197.317 172.474 197.281C172.526 197.246 172.585 197.222 172.647 197.21C172.709 197.198 172.773 197.199 172.834 197.212C172.896 197.225 172.954 197.25 173.006 197.286C180.662 202.606 190.126 198.798 190.726 189.094C190.747 188.737 190.913 188.649 191.222 188.83C197.302 192.374 205.078 190.71 208.238 184.294C209.214 182.318 209.158 179.878 209.358 177.598C209.379 177.326 209.523 177.198 209.79 177.214C214.889 177.476 219.313 175.857 223.062 172.358Z" fill="#D7E3E8"/>
<path d="M34.0302 174.326C37.8222 176.94 42.0275 177.849 46.6462 177.054C46.9235 177.006 47.0675 177.121 47.0782 177.398C47.2062 179.686 47.1662 182.422 48.2942 184.422C51.7768 190.614 57.1262 192.177 64.3422 189.11C64.5928 189.004 64.7289 189.084 64.7502 189.35C65.4942 199.086 75.7822 202.878 83.0462 196.846C83.1058 196.796 83.1774 196.762 83.2541 196.748C83.3307 196.734 83.4097 196.74 83.4832 196.766C83.5568 196.792 83.6223 196.837 83.6733 196.896C83.7243 196.955 83.7591 197.026 83.7742 197.102C84.2968 199.614 85.9901 201.574 88.8541 202.982C82.9928 207.526 79.0648 213.07 77.0702 219.614C70.9262 215.998 66.8915 213.51 64.9662 212.15C51.4835 202.63 41.0008 190.51 33.5182 175.79C33.4008 175.556 33.4115 175.329 33.5502 175.11L34.0302 174.326Z" fill="#D7E3E8"/>
<path d="M144.094 194.487L144.742 194.687C144.657 194.735 144.79 194.916 145.142 195.231C144.782 195.111 144.622 195.279 144.63 195.631C144.99 221.719 109.646 223.407 107.67 195.751C108.299 195.425 108.798 194.833 109.166 193.975C109.177 194.209 109.403 194.257 109.846 194.119C110.107 194.033 110.371 194.009 110.638 194.047C121.801 195.545 132.953 195.692 144.094 194.487Z" fill="#B8674B"/>
<path d="M145.142 195.23L149.91 196.654C149.286 210.574 145.734 220.654 130.302 223.302C119.846 225.038 109.006 218.958 105.502 208.998C105.486 208.95 105.059 206.969 104.222 203.054C103.774 200.969 103.059 199.049 102.078 197.294L107.67 195.75C109.646 223.406 144.99 221.718 144.63 195.63C144.622 195.278 144.782 195.11 145.142 195.23Z" fill="#FEC858"/>
<path d="M149.91 196.654C153.708 197.63 156.764 198.628 159.078 199.646C161.276 200.617 163.609 201.868 166.078 203.398C172.441 207.958 176.596 213.5 178.542 220.022L176.358 221.446C160.561 230.086 143.828 234.372 126.158 234.302C126.436 233.753 127.153 233.337 128.31 233.054C128.62 232.98 128.732 232.785 128.646 232.47C127.926 229.857 127.889 227.297 128.534 224.79C128.588 224.582 128.55 224.414 128.422 224.286C128.273 224.132 128.305 224.036 128.518 223.998C129.185 223.886 129.78 223.654 130.302 223.302C145.734 220.654 149.286 210.574 149.91 196.654Z" fill="#FCAF46"/>
<path d="M102.078 197.295C103.06 199.05 103.774 200.97 104.222 203.055C105.06 206.97 105.486 208.951 105.502 208.999C109.006 218.959 119.846 225.039 130.302 223.303C129.78 223.655 129.185 223.887 128.518 223.999C128.305 224.036 128.273 224.132 128.422 224.287C128.55 224.415 128.588 224.583 128.534 224.791C127.889 227.298 127.926 229.858 128.646 232.471C128.732 232.786 128.62 232.98 128.31 233.055C127.153 233.338 126.436 233.754 126.158 234.303C109.486 234.223 93.2863 229.631 78.9423 221.167C78.185 220.9 77.561 220.383 77.0703 219.615C79.065 213.071 82.993 207.527 88.8543 202.983C92.737 200.583 97.145 198.687 102.078 197.295Z" fill="#FDBA50"/>
<path d="M78.9424 221.166C93.2864 229.63 109.486 234.222 126.158 234.302C143.828 234.371 160.561 230.086 176.358 221.446C176.284 221.558 176.342 221.622 176.534 221.638C176.602 221.644 176.666 221.67 176.72 221.712C176.773 221.754 176.813 221.81 176.835 221.875C176.857 221.939 176.86 222.008 176.844 222.074C176.827 222.14 176.792 222.2 176.742 222.246C175.046 223.798 173.39 225.686 171.598 226.958C144.262 246.414 106.174 245.798 80.3504 223.494C80.1584 223.329 80.0464 223.118 80.0144 222.862C79.9344 222.302 79.577 221.737 78.9424 221.166Z" fill="#D7E3E8"/>
</svg>
