<svg width="256" height="256" viewBox="0 0 256 256" fill="none" xmlns="http://www.w3.org/2000/svg">
<path d="M58.762 56.6748C52.4153 64.9201 48.1753 74.3121 46.042 84.8508" stroke="#FEE2B3" stroke-width="2"/>
<path d="M46.0425 84.8506C45.7438 85.9333 45.5652 87.3866 45.5065 89.2106C45.4905 89.7173 45.3145 90.1226 44.9785 90.4266" stroke="#FEDBA8" stroke-width="2"/>
<path d="M44.9787 90.4268C43.4107 91.6588 41.936 93.1334 40.5546 94.8508C23.7306 115.803 27.0587 144.939 47.5787 161.939C47.776 162.099 47.7653 162.243 47.5466 162.371C40.6613 166.365 38.5413 172.216 41.1866 179.923C41.3552 180.417 41.33 180.957 41.116 181.433C40.902 181.908 40.5154 182.284 40.0346 182.483C32.9546 185.419 26.8906 180.683 28.9226 173.107C28.9895 172.854 29.1464 172.638 29.3626 172.499L32.4026 170.563C32.6266 170.419 32.68 170.227 32.5626 169.987C30.3066 165.475 25.1626 168.939 23.5626 171.947C22.2586 174.427 22.1626 178.107 22.7306 180.867C24.7626 190.699 32.2346 198.939 40.1226 205.099" stroke="#F8CC98" stroke-width="2"/>
<path d="M40.1221 205.099C50.8341 213.035 63.2421 217.819 76.1781 221.003C76.3007 221.032 76.4287 221.029 76.5497 220.994C76.6707 220.958 76.7805 220.892 76.8684 220.802C76.9563 220.712 77.0192 220.6 77.0511 220.478C77.0829 220.357 77.0826 220.228 77.05 220.107C76.89 219.52 76.9727 218.832 77.298 218.043" stroke="#F7C591" stroke-width="2"/>
<path d="M77.2989 218.042C77.2935 218.997 77.9895 219.607 79.3868 219.874" stroke="#B4E1C6" stroke-width="2"/>
<path d="M232.746 182.723C233.679 180.355 234.09 177.865 233.978 175.251C233.834 171.907 232.314 168.715 229.298 167.339C226.834 166.219 224.997 166.766 223.786 168.979C223.727 169.087 223.691 169.206 223.682 169.328C223.672 169.45 223.688 169.572 223.728 169.687C223.769 169.802 223.834 169.907 223.919 169.995C224.003 170.082 224.105 170.151 224.218 170.195C228.794 172.043 228.322 178.251 224.89 180.803C222.218 182.798 219.263 183.067 216.026 181.611C214.474 180.915 214.434 179.811 215.146 178.443C218.282 172.427 215.626 165.691 210.594 161.755C210.569 161.736 210.548 161.711 210.533 161.682C210.519 161.653 210.511 161.621 210.51 161.589C210.509 161.557 210.516 161.525 210.529 161.496C210.542 161.466 210.562 161.44 210.586 161.419C232.674 142.939 235.226 111.059 213.938 90.7793" stroke="#F7C591" stroke-width="2"/>
<path d="M213.939 90.779C212.787 81.5416 210.032 72.9203 205.675 64.915C198.992 52.643 189.48 42.547 177.139 34.627" stroke="#F8CC98" stroke-width="2"/>
<path d="M177.139 34.6265C157.835 21.7625 133.947 18.1385 111.347 22.6585C89.784 26.9678 72.256 38.3065 58.7627 56.6745" stroke="#FEDBA8" stroke-width="2"/>
<path d="M177.139 34.627C176.904 34.6483 176.747 34.723 176.667 34.851C176.641 34.8966 176.626 34.9472 176.622 34.9991C176.618 35.0511 176.626 35.103 176.644 35.1513C176.662 35.1995 176.691 35.2428 176.728 35.2781C176.765 35.3133 176.81 35.3396 176.859 35.355C177.685 35.6216 178.128 36.1416 178.187 36.915C178.199 37.0537 178.24 37.1879 178.306 37.3091C178.372 37.4303 178.462 37.5358 178.571 37.619C184.539 42.211 188.939 50.451 191.483 57.371C197.363 73.379 192.291 92.179 176.379 99.691C172.235 101.651 169.019 101.107 164.851 99.6509C156.235 96.6349 147.571 90.531 140.835 84.443C139.864 83.5683 138.579 82.5683 136.979 81.443C135.736 80.5683 134.456 79.547 133.139 78.379" stroke="#F8A942" stroke-width="2"/>
<path d="M133.139 78.3779C127.486 71.8232 123.299 64.9139 120.579 57.6499C119.374 54.4179 118.224 52.0365 117.131 50.5059" stroke="#FDB16F" stroke-width="2"/>
<path d="M117.13 50.5074L116.746 43.4514C116.751 43.358 116.718 43.2668 116.655 43.1978C116.592 43.1288 116.504 43.0876 116.41 43.0834C116.317 43.0791 116.226 43.1122 116.157 43.1752C116.088 43.2382 116.047 43.326 116.042 43.4194C113.344 60.118 106.893 75.1367 96.6905 88.4754C91.7705 94.9074 85.5145 100.691 79.2105 106.083C79.1429 106.141 79.0637 106.183 78.9784 106.208C78.8931 106.232 78.8036 106.238 78.7157 106.225C78.6279 106.213 78.5438 106.181 78.4691 106.133C78.3944 106.085 78.3307 106.022 78.2825 105.947C72.4345 96.8514 62.2505 106.931 57.0025 111.395C52.8585 114.931 48.9865 109.715 47.8345 106.219C46.1918 101.243 45.2398 95.9794 44.9785 90.4274" stroke="#F8A942" stroke-width="2"/>
<path d="M46.042 84.8502C50.346 81.7408 54.17 78.4928 57.514 75.1062C57.604 75.015 57.7172 74.9501 57.8413 74.9185C57.9655 74.8869 58.0959 74.8898 58.2185 74.9268C58.3411 74.9639 58.4514 75.0337 58.5373 75.1287C58.6232 75.2237 58.6815 75.3404 58.706 75.4662C60.218 83.1942 64.794 90.6182 73.698 87.2662C79.162 85.2022 83.418 79.9382 86.234 74.7542C86.362 74.5195 86.546 74.3408 86.786 74.2182C88.322 73.4182 88.77 72.5382 89.074 70.6742C89.2607 69.5328 89.7033 68.2795 90.402 66.9142C93.874 60.0715 96.9433 52.2395 99.61 43.4182C101.442 37.3542 99.786 32.7862 92.546 35.0422C82.5833 38.1462 73.9487 43.4022 66.642 50.8102C66.018 51.4502 59.586 59.9142 58.762 56.6742" stroke="#FEBF5D" stroke-width="2"/>
<path d="M213.938 90.7793C214.146 95.5633 213.675 99.8673 212.523 103.691C212.027 105.334 211.186 106.686 210.002 107.747C199.882 116.819 184.914 108.827 174.338 103.411C172.642 102.542 171.12 102.953 169.771 104.643" stroke="#F1932B" stroke-width="2"/>
<path d="M169.77 104.643C164.869 101.502 159.664 99.9392 154.154 99.9552" stroke="#D47F3B" stroke-width="2"/>
<path d="M154.155 99.9549C146.128 94.0989 139.123 86.9069 133.139 78.3789" stroke="#F7A25F" stroke-width="2"/>
<path d="M117.13 50.5059C112.714 71.0499 101.202 86.4179 87.6663 101.786C85.6343 104.09 83.6503 107.17 81.3223 109.698" stroke="#F7A25F" stroke-width="2"/>
<path d="M81.323 109.698C75.171 114.594 67.915 118.306 60.675 121.258C60.2252 121.443 59.8404 121.757 59.5697 122.162C59.299 122.566 59.1546 123.043 59.1549 123.53L59.1949 134.682C59.1949 135.653 58.9683 135.709 58.5149 134.85C56.3789 130.834 53.275 120.378 46.771 124.298C41.795 127.298 39.6109 132.434 39.6429 138.274C39.7069 150.634 51.2349 161.698 64.0429 157.522C64.3096 157.437 64.5283 157.504 64.6989 157.722C64.8056 157.856 64.8643 158.034 64.875 158.258" stroke="#F8B572" stroke-width="2"/>
<path d="M64.8741 158.259C62.2821 159.131 65.9941 165.059 66.8101 165.947C66.92 166.064 66.9941 166.211 67.024 166.369C67.0539 166.527 67.0383 166.69 66.979 166.841C66.9197 166.991 66.8192 167.122 66.6888 167.218C66.5585 167.315 66.4036 167.373 66.242 167.387C58.218 168.035 51.8981 176.147 55.6741 183.963C56.4741 185.627 58.154 186.923 59.53 188.099C60.2554 188.728 60.146 189.128 59.202 189.299C53.7541 190.275 51.5541 192.411 48.3781 196.755C47.6367 197.779 46.6554 198.752 45.434 199.675C43.386 201.232 41.6154 203.04 40.1221 205.099" stroke="#F1932B" stroke-width="2"/>
<path d="M154.154 99.9551L150.682 102.227" stroke="#D88768" stroke-width="2"/>
<path d="M150.683 102.227C141.893 96.2747 134.363 88.9813 128.091 80.3467" stroke="#FDB899" stroke-width="2"/>
<path d="M128.09 80.3465C124.656 75.3225 121.717 70.1465 119.274 64.8185C119.082 64.4025 118.837 64.3705 118.538 64.7225C118.053 65.2985 117.522 66.1385 116.946 67.2425C111.005 78.6505 103.109 89.7198 93.2583 100.45C92.8103 100.938 92.8503 101.354 93.3143 101.786" stroke="#FDBD9F" stroke-width="2"/>
<path d="M93.3138 101.787C89.0205 103.766 85.1965 106.555 81.8418 110.155" stroke="#E4926D" stroke-width="2"/>
<path d="M81.8422 110.155C81.7462 109.675 81.5729 109.523 81.3223 109.699" stroke="#FDBD9F" stroke-width="2"/>
<path d="M232.746 182.723C229.002 192.299 220.714 199.723 212.362 205.403" stroke="#DFB386" stroke-width="2"/>
<path d="M212.362 205.402L211.874 205.258C211.522 205.157 211.41 204.936 211.538 204.594L211.866 203.738C211.951 203.509 211.965 203.277 211.906 203.042C210.914 198.914 208.687 195.664 205.226 193.29C204.991 193.136 204.879 192.917 204.89 192.634C205.151 185.776 202.005 181.725 195.45 180.482C195.352 180.463 195.263 180.415 195.191 180.346C195.12 180.277 195.07 180.189 195.047 180.092C195.024 179.995 195.03 179.894 195.063 179.8C195.096 179.706 195.155 179.624 195.234 179.562C196.988 178.256 198.917 177.32 201.018 176.754C201.161 176.716 201.292 176.641 201.398 176.537C201.503 176.433 201.58 176.303 201.62 176.16C201.661 176.017 201.663 175.867 201.628 175.723C201.592 175.578 201.52 175.446 201.418 175.338L198.298 172.05C198.138 171.885 198.095 171.69 198.17 171.466C199.045 168.874 200.221 166.65 201.698 164.794C204.333 161.488 206.519 158.328 208.258 155.314" stroke="#E47F1E" stroke-width="2"/>
<path d="M208.258 155.316C211.042 153.113 213.053 151.078 214.29 149.212C219.101 141.953 219.282 134.614 214.834 127.196C213.186 124.452 206.322 120.652 204.37 124.892C203.106 127.633 201.832 130.361 200.546 133.076C200.264 133.673 199.797 133.926 199.146 133.836C197.922 133.66 198.33 124.516 198.298 123.028C198.291 122.605 198.155 122.194 197.907 121.851C197.66 121.507 197.313 121.248 196.914 121.108L180.074 115.268" stroke="#F59A58" stroke-width="2"/>
<path d="M180.075 115.267C177.435 110.851 174 107.309 169.771 104.643" stroke="#D27834" stroke-width="2"/>
<path d="M180.074 115.266L180.202 117.666C180.21 117.793 180.181 117.92 180.12 118.032C180.059 118.143 179.968 118.236 179.857 118.298C179.746 118.361 179.62 118.391 179.493 118.385C179.366 118.379 179.243 118.338 179.138 118.266C174.749 115.221 170.021 112.685 164.954 110.658" stroke="#D88768" stroke-width="2"/>
<path d="M164.954 110.659C162.688 109.518 160.349 109.323 157.938 110.075" stroke="#D9795F" stroke-width="2"/>
<path d="M117.347 192.891C115.555 195.611 111.923 195.275 109.099 195.507" stroke="#F59A58" stroke-width="2"/>
<path d="M109.099 195.507C105.323 195.283 102.811 195.336 101.563 195.667C94.3628 197.587 87.1709 201.515 82.5789 207.451C80.4749 210.163 77.6828 214.571 77.2988 218.043" stroke="#ADA759" stroke-width="2"/>
<path d="M128.091 80.3467C126.704 83.1147 126.619 85.0854 127.835 86.2587C127.989 86.408 127.997 86.5654 127.859 86.7307L126.483 88.3787C126.291 88.6134 126.195 88.8827 126.195 89.1867L126.267 98.3947C126.267 98.7121 126.324 99.0264 126.435 99.3227C126.979 100.827 126.339 102.499 126.411 103.715C126.571 106.189 126.645 108.661 126.635 111.131C126.629 112.043 126.397 113.309 125.939 114.931C125.067 118.043 126.147 120.747 125.619 123.747C124.667 129.147 124.931 134.115 126.163 139.435C126.541 141.061 126.632 142.728 126.435 144.435C126.42 144.552 126.43 144.672 126.464 144.785C126.497 144.899 126.554 145.004 126.63 145.094C126.706 145.184 126.799 145.258 126.905 145.309C127.01 145.361 127.125 145.39 127.243 145.395C129.301 145.475 130.899 145.941 132.035 146.795" stroke="#FFCCAD" stroke-width="2"/>
<path d="M132.034 146.795C133.128 149.056 133.136 151.224 132.058 153.299" stroke="#FDBD9F" stroke-width="2"/>
<path d="M132.058 153.299C131.45 152.952 130.645 153.328 129.642 154.427C129.564 154.512 129.465 154.576 129.355 154.612C129.245 154.648 129.128 154.655 129.015 154.633C128.901 154.61 128.796 154.559 128.708 154.483C128.62 154.408 128.553 154.311 128.514 154.203C128.231 153.413 127.674 152.96 126.842 152.843C126.734 152.83 126.626 152.859 126.54 152.923C126.453 152.987 126.395 153.082 126.378 153.187C126.031 155.192 126.573 156.611 128.002 157.443" stroke="#FEE7D8" stroke-width="2"/>
<path d="M128.002 157.442C127.581 157.565 127.333 157.797 127.258 158.138C127.213 158.344 127.211 158.557 127.252 158.764C127.293 158.97 127.376 159.166 127.497 159.338C127.617 159.51 127.772 159.655 127.951 159.764C128.13 159.873 128.33 159.943 128.538 159.97C130.143 160.178 131.736 159.981 133.314 159.378" stroke="#FDBD9F" stroke-width="2"/>
<path d="M133.314 159.379C134.898 160.379 132.938 162.635 133.602 164.395C133.704 164.656 133.845 164.891 134.026 165.099C134.576 165.728 134.744 166.44 134.53 167.235C134.461 167.486 134.554 167.619 134.81 167.635C135.429 167.678 135.818 167.944 135.978 168.435" stroke="#FFCCAD" stroke-width="2"/>
<path d="M135.978 168.435C127.685 169.032 119.658 168.32 111.898 166.299C111.13 166.096 110.802 166.387 110.914 167.171C111.634 172.264 114.135 175.952 118.418 178.235" stroke="#967A71" stroke-width="2"/>
<path d="M118.418 178.234C119.389 179.178 120.506 179.813 121.77 180.138" stroke="#FDAF96" stroke-width="2"/>
<path d="M121.77 180.139L119.21 183.539C119.029 183.779 118.853 183.776 118.682 183.531L118.122 182.715C118.084 182.659 118.031 182.615 117.969 182.589C117.907 182.562 117.839 182.553 117.772 182.563C117.705 182.573 117.643 182.601 117.591 182.645C117.54 182.689 117.502 182.746 117.482 182.811L116.626 185.435C116.562 185.643 116.453 185.824 116.298 185.979C115.135 187.141 114.826 188.48 115.37 189.995C115.474 190.289 115.474 190.61 115.371 190.904C115.267 191.199 115.066 191.449 114.801 191.613C114.535 191.778 114.222 191.846 113.912 191.808C113.602 191.77 113.315 191.627 113.098 191.403C113.082 191.381 112.634 191.563 111.754 191.947" stroke="#FFCCAD" stroke-width="2"/>
<path d="M111.754 191.947C92.05 187.923 74.21 176.419 64.874 158.259" stroke="#F7AE6B" stroke-width="2"/>
<path d="M81.8422 110.154C80.0449 111.578 78.9595 113.394 78.5862 115.602C78.5467 115.829 78.5697 116.062 78.6528 116.277C78.7359 116.491 78.876 116.679 79.0579 116.819C79.2398 116.96 79.4566 117.049 79.685 117.075C79.9134 117.102 80.1448 117.066 80.3542 116.971C88.0742 113.467 92.8502 108.482 102.218 110.834C104.042 111.293 105.381 111.421 106.234 111.219C110.754 110.123 112.554 103.49 108.106 101.082C104.266 98.9945 97.4022 100.426 93.3142 101.786" stroke="#E6A580" stroke-width="2"/>
<path d="M150.683 102.227C149.136 105.843 149.813 108.469 152.715 110.107C154.371 111.043 156.235 110.659 157.939 110.075" stroke="#DA9676" stroke-width="2"/>
<path d="M157.938 110.075L173.282 119.083" stroke="#FEAB90" stroke-width="2"/>
<path d="M173.282 119.083C173.73 121.723 174.386 122.891 173.73 125.683" stroke="#FDB899" stroke-width="2"/>
<path d="M173.73 125.683C172.386 124.072 171.234 122.958 170.274 122.339C167.77 120.739 166.722 122.451 164.354 122.091C161.596 121.664 160.036 122.272 159.674 123.915" stroke="#FFE3D3" stroke-width="2"/>
<path d="M159.674 123.915C150.602 128.643 150.338 144.427 158.986 149.627C164.698 153.059 170.226 148.635 172.434 143.459" stroke="#8A6D60" stroke-width="2"/>
<path d="M172.435 143.459C173.437 142.979 174.331 142.011 175.115 140.555C175.234 140.331 175.285 140.074 175.259 139.819C175.195 139.131 175.456 138.445 176.043 137.763" stroke="#FFE3D3" stroke-width="2"/>
<path d="M176.042 137.763C175.93 141.459 175.034 144.235 172.41 147.179C171.119 148.629 169.941 150.203 168.874 151.899" stroke="#FDB899" stroke-width="2"/>
<path d="M168.874 151.898C166.165 152.8 163.858 154.269 161.954 156.306C156.082 162.57 164.498 167.426 169.754 167.434C171.498 167.44 174.237 167.034 177.97 166.218" stroke="#FEAB90" stroke-width="2"/>
<path d="M177.97 166.219C175.901 172.987 172.127 178.552 166.65 182.915C166.627 182.933 166.611 182.959 166.605 182.987C166.598 183.016 166.602 183.046 166.615 183.072C166.628 183.098 166.65 183.119 166.677 183.131C166.703 183.144 166.733 183.146 166.762 183.139C167.791 182.872 168.65 182.352 169.338 181.579C169.551 181.339 169.738 181.355 169.898 181.627C170.09 181.947 169.994 182.453 169.61 183.147" stroke="#FDB899" stroke-width="2"/>
<path d="M169.61 183.146C161.461 187.898 152.682 191.208 143.274 193.075" stroke="#EC9D5F" stroke-width="2"/>
<path d="M143.274 193.075C134.37 193.459 127.882 194.307 117.346 192.891" stroke="#FDB899" stroke-width="2"/>
<path d="M117.346 192.891L111.754 191.947" stroke="#F7A966" stroke-width="2"/>
<path d="M121.771 180.139C129.109 182.379 135.821 181.821 141.906 178.467" stroke="#FEAB90" stroke-width="2"/>
<path d="M141.906 178.467C148.056 176.126 151.443 172.107 152.067 166.411C152.083 166.259 152.061 166.105 152.002 165.964C151.944 165.822 151.85 165.698 151.73 165.603C151.61 165.508 151.468 165.445 151.317 165.42C151.166 165.394 151.011 165.408 150.867 165.459C145.933 167.182 140.971 168.174 135.979 168.435" stroke="#96766B" stroke-width="2"/>
<path d="M133.314 159.379C136.61 156.43 137.36 152.723 135.562 148.259C135.098 147.107 132.706 144.243 132.034 146.795" stroke="#FDB899" stroke-width="2"/>
<path d="M208.258 155.314C203.65 158.141 199.125 158.789 194.682 157.258C194.555 157.215 194.417 157.218 194.292 157.268C194.167 157.318 194.064 157.411 194.002 157.53C188.386 168.469 180.256 177.008 169.61 183.146" stroke="#EA8E51" stroke-width="2"/>
<path d="M177.97 166.219C180.658 164.528 183.114 162.462 185.338 160.019C187.17 158.003 191.858 148.579 184.778 149.635C179.594 150.411 174.338 150.875 168.874 151.899" stroke="#FC9C82" stroke-width="2"/>
<path d="M176.042 137.763C176.224 133.299 175.453 129.272 173.73 125.683" stroke="#FDD4C5" stroke-width="2"/>
<path d="M212.362 205.403C203.231 211.115 193.29 215.433 182.538 218.355" stroke="#D4A780" stroke-width="2"/>
<path d="M182.538 218.354C177.81 206.746 171.002 198.578 158.362 195.65C153.861 194.605 149.776 194.221 146.106 194.498" stroke="#A19B52" stroke-width="2"/>
<path d="M146.106 194.499C143.877 194.505 142.933 194.03 143.274 193.075" stroke="#EA8E51" stroke-width="2"/>
<path d="M79.3857 219.875L99.7538 225.579" stroke="#9DCFBB" stroke-width="2"/>
<path d="M99.7539 225.579C119.538 229.963 139.914 229.883 159.842 225.779" stroke="#DFB386" stroke-width="2"/>
<path d="M159.842 225.779C167.127 223.965 174.692 221.49 182.538 218.354" stroke="#9DCFBB" stroke-width="2"/>
<path d="M164.954 110.658L178.026 118.586C178.119 118.646 178.189 118.735 178.226 118.839C178.262 118.943 178.263 119.056 178.229 119.16C178.194 119.265 178.125 119.355 178.033 119.416C177.942 119.477 177.832 119.506 177.722 119.498L173.282 119.082" stroke="#FC9C82" stroke-width="2"/>
<path d="M108.099 197.459C106.493 196.557 104.187 196.397 101.179 196.979C100.387 197.131 100.323 197.555 100.267 198.267" stroke="#B4C47B" stroke-width="2"/>
<path d="M100.266 198.268C99.6952 208.769 99.5405 215.817 99.8018 219.412C99.9885 221.924 99.9725 223.98 99.7538 225.58" stroke="#ADA759" stroke-width="2"/>
<path d="M146.106 194.498L152.706 195.546C152.978 195.589 153.119 195.749 153.13 196.026C153.199 198.197 152.661 200.189 151.514 202.002C143.434 214.802 126.434 216.482 114.554 208.274C113.045 207.229 111.373 205.087 109.538 201.85" stroke="#B3B68C" stroke-width="2"/>
<path d="M109.539 201.851L108.099 197.459" stroke="#FDB77A" stroke-width="2"/>
<path d="M108.099 197.458C108.237 196.679 108.571 196.029 109.099 195.506" stroke="#B3B68C" stroke-width="2"/>
<path d="M128.002 157.443C129.922 156.237 131.274 154.856 132.058 153.299" stroke="#FDD4C5" stroke-width="2"/>
<path d="M141.906 178.467C140.727 176.008 138.791 174.509 136.098 173.971C131.594 173.067 120.458 172.595 118.418 178.235" stroke="#955954" stroke-width="2"/>
<path d="M172.434 143.459C174.754 135.161 173.044 128.843 167.306 124.507C165.306 122.998 162.762 122.801 159.674 123.915" stroke="#89898C" stroke-width="2"/>
<path d="M159.842 225.779C160.429 218.2 160.941 210.494 161.378 202.659C161.464 201.224 161.357 199.736 161.058 198.195C161.032 198.06 160.965 197.938 160.866 197.844C160.767 197.751 160.641 197.692 160.506 197.675L154.906 196.963C154.517 196.915 154.272 197.083 154.17 197.467C151.258 208.643 142.842 218.355 130.954 218.971C121.114 219.483 108.842 213.747 106.322 202.931" stroke="#ADA759" stroke-width="2"/>
<path d="M106.323 202.931C106.248 202.211 106.291 201.688 106.451 201.363C106.616 201.021 106.741 201.035 106.827 201.403C107.301 203.371 108.117 205.179 109.275 206.827C109.445 207.067 109.653 207.109 109.899 206.955C110.357 206.667 110.445 206.229 110.163 205.643C109.304 203.872 109.096 202.608 109.539 201.851" stroke="#B4C47B" stroke-width="2"/>
<path d="M106.323 202.931L105.947 201.219C105.888 200.936 105.968 200.702 106.187 200.515C107.667 199.275 106.291 196.875 104.515 197.843C104.312 197.955 104.093 197.998 103.859 197.971C102.499 197.795 101.371 196.851 100.267 198.267" stroke="#F7A846" stroke-width="2"/>
<path d="M124.426 25.3458C122.178 28.3458 123.914 31.5858 126.842 32.8258C127.13 32.9431 127.405 32.9191 127.666 32.7538C132.066 29.9858 136.103 26.7565 139.778 23.0658C139.838 23.0066 139.879 22.9309 139.895 22.8482C139.911 22.7656 139.902 22.6797 139.868 22.6017C139.835 22.5236 139.779 22.4568 139.707 22.4099C139.636 22.3629 139.552 22.3378 139.466 22.3378C136.533 22.4071 133.493 22.3565 130.346 22.1858C127.266 22.0258 126.122 23.0738 124.426 25.3458Z" stroke="#FEBF5D" stroke-width="2"/>
<path d="M89.6504 149.427C96.8024 153.571 102.906 147.747 104.21 140.939C105.496 134.219 103.746 128.824 98.9624 124.755" stroke="#897266" stroke-width="2"/>
<path d="M98.9623 124.754C98.3783 120.354 88.7543 123.258 86.9063 124.21C82.3943 126.53 81.1382 134.69 81.7862 138.914C82.0742 140.808 82.8876 142.776 84.2263 144.818C85.0583 146.082 89.1222 151.802 89.6502 149.426" stroke="#FEE7D8" stroke-width="2"/>
<path d="M98.9629 124.755C93.1389 121.947 88.0589 124.883 85.8349 130.539C82.8535 138.129 84.1256 144.425 89.6509 149.427" stroke="#89898C" stroke-width="2"/>
<path d="M49.7063 149.107C51.9676 151.085 54.5623 151.933 57.4903 151.651C57.8103 151.619 58.069 151.48 58.2663 151.235C59.109 150.179 59.3356 148.715 58.9463 146.843C57.4903 139.771 56.5383 133.891 52.1863 128.947C52.0049 128.733 51.7783 128.608 51.5063 128.571C48.6263 128.131 46.5623 129.875 45.4503 132.555C42.853 138.848 44.2716 144.365 49.7063 149.107Z" stroke="#FDBD9F" stroke-width="2"/>
<path d="M72.1067 159.283C74.3067 176.395 104.323 169.659 96.3707 159.355C91.4961 153.035 84.8747 150.744 76.5067 152.483C73.0774 153.192 71.6107 155.459 72.1067 159.283Z" stroke="#FDBD9F" stroke-width="2"/>
<path d="M199.883 150.731C211.499 154.467 217.659 135.219 209.267 128.179C208.067 127.176 207.08 127.184 206.307 128.203C202.835 132.763 200.445 138.224 199.139 144.587C198.859 145.947 199.019 147.379 198.739 148.787C198.655 149.192 198.725 149.615 198.936 149.974C199.147 150.333 199.484 150.603 199.883 150.731Z" stroke="#FC9C82" stroke-width="2"/>
<path d="M162.488 139.863C162.809 139.88 163.13 139.824 163.434 139.699C163.738 139.573 164.019 139.381 164.259 139.132C164.5 138.884 164.696 138.584 164.837 138.25C164.978 137.917 165.06 137.555 165.079 137.187C165.118 136.443 164.898 135.717 164.467 135.167C164.036 134.617 163.43 134.289 162.782 134.255C162.461 134.238 162.139 134.294 161.835 134.419C161.531 134.545 161.251 134.737 161.01 134.986C160.769 135.234 160.573 135.534 160.432 135.868C160.292 136.201 160.209 136.563 160.19 136.931C160.151 137.675 160.371 138.401 160.802 138.951C161.233 139.501 161.839 139.829 162.488 139.863Z" stroke="#89898C" stroke-width="2"/>
<path d="M95.8654 139.732C96.4835 139.533 96.9913 139.078 97.2771 138.467C97.5629 137.855 97.6032 137.137 97.3892 136.47C97.1751 135.803 96.7242 135.243 96.1358 134.912C95.5473 134.581 94.8695 134.506 94.2513 134.705C93.6332 134.903 93.1254 135.358 92.8396 135.97C92.5538 136.582 92.5135 137.3 92.7275 137.967C92.9416 138.633 93.3924 139.194 93.9809 139.525C94.5693 139.856 95.2472 139.93 95.8654 139.732Z" stroke="#89898C" stroke-width="2"/>
<path d="M177.138 34.6265C176.904 34.6478 176.746 34.7225 176.666 34.8505C176.641 34.8961 176.626 34.9467 176.622 34.9987C176.618 35.0506 176.626 35.1026 176.644 35.1508C176.662 35.1991 176.691 35.2424 176.728 35.2776C176.765 35.3128 176.81 35.3391 176.858 35.3545C177.685 35.6212 178.128 36.1412 178.186 36.9145C178.199 37.0532 178.239 37.1874 178.306 37.3086C178.372 37.4298 178.462 37.5353 178.57 37.6185C184.538 42.2105 188.938 50.4505 191.482 57.3705C197.362 73.3785 192.291 92.1785 176.379 99.6905C172.235 101.651 169.018 101.106 164.85 99.6505C156.234 96.6345 147.57 90.5305 140.834 84.4425C139.864 83.5678 138.579 82.5678 136.979 81.4425C135.736 80.5678 134.456 79.5465 133.138 78.3785C127.485 71.8238 123.299 64.9145 120.579 57.6505C119.373 54.4185 118.224 52.0372 117.13 50.5065L116.746 43.4505C116.751 43.3571 116.718 43.2659 116.655 43.1969C116.592 43.1279 116.504 43.0867 116.41 43.0825C116.317 43.0783 116.226 43.1113 116.157 43.1743C116.088 43.2373 116.047 43.3252 116.042 43.4185C113.344 60.1172 106.893 75.1358 96.6905 88.4745C91.7705 94.9065 85.5145 100.691 79.2105 106.083C79.1429 106.14 79.0637 106.182 78.9784 106.207C78.8931 106.231 78.8036 106.237 78.7157 106.225C78.6279 106.212 78.5438 106.18 78.4691 106.132C78.3944 106.084 78.3307 106.021 78.2825 105.946C72.4345 96.8505 62.2505 106.931 57.0025 111.395C52.8585 114.931 48.9865 109.715 47.8345 106.219C46.1918 101.243 45.2398 95.9785 44.9785 90.4265C45.3145 90.1225 45.4905 89.7172 45.5065 89.2105C45.5652 87.3865 45.7438 85.9332 46.0425 84.8505C50.3465 81.7412 54.1705 78.4932 57.5145 75.1065C57.6045 75.0153 57.7176 74.9505 57.8418 74.9189C57.9659 74.8873 58.0964 74.8901 58.219 74.9272C58.3416 74.9642 58.4518 75.034 58.5377 75.129C58.6236 75.2241 58.682 75.3408 58.7065 75.4665C60.2185 83.1945 64.7945 90.6185 73.6985 87.2665C79.1625 85.2025 83.4185 79.9385 86.2345 74.7545C86.3625 74.5198 86.5465 74.3412 86.7865 74.2185C88.3225 73.4185 88.7705 72.5385 89.0745 70.6745C89.2612 69.5332 89.7038 68.2798 90.4025 66.9145C93.8745 60.0718 96.9438 52.2398 99.6105 43.4185C101.442 37.3545 99.7865 32.7865 92.5465 35.0425C82.5838 38.1465 73.9491 43.4025 66.6425 50.8105C66.0185 51.4505 59.5865 59.9145 58.7625 56.6745C72.2558 38.3065 89.7838 26.9678 111.346 22.6585C133.946 18.1385 157.834 21.7625 177.138 34.6265ZM124.427 25.3465C122.179 28.3465 123.914 31.5865 126.842 32.8265C127.13 32.9438 127.405 32.9198 127.666 32.7545C132.066 29.9865 136.104 26.7572 139.779 23.0665C139.839 23.0073 139.879 22.9316 139.895 22.8489C139.911 22.7663 139.902 22.6804 139.869 22.6024C139.835 22.5243 139.779 22.4575 139.708 22.4106C139.636 22.3636 139.552 22.3385 139.466 22.3385C136.533 22.4078 133.493 22.3572 130.346 22.1865C127.266 22.0265 126.123 23.0745 124.427 25.3465Z" fill="#FEB852"/>
<path d="M126.842 32.8258C123.914 31.5858 122.178 28.3458 124.426 25.3458C126.122 23.0738 127.266 22.0258 130.346 22.1858C133.493 22.3565 136.533 22.4071 139.466 22.3378C139.552 22.3378 139.636 22.3629 139.707 22.4099C139.779 22.4568 139.835 22.5236 139.868 22.6017C139.902 22.6797 139.911 22.7656 139.895 22.8482C139.879 22.9309 139.838 23.0066 139.778 23.0658C136.103 26.7565 132.066 29.9858 127.666 32.7538C127.405 32.9191 127.13 32.9431 126.842 32.8258Z" fill="#FEC568"/>
<path d="M46.042 84.8502C48.1753 74.3115 52.4153 64.9195 58.762 56.6742C59.586 59.9142 66.018 51.4502 66.642 50.8102C73.9487 43.4022 82.5833 38.1462 92.546 35.0422C99.786 32.7862 101.442 37.3542 99.61 43.4182C96.9433 52.2395 93.874 60.0715 90.402 66.9142C89.7033 68.2795 89.2607 69.5328 89.074 70.6742C88.77 72.5382 88.322 73.4182 86.786 74.2182C86.546 74.3408 86.362 74.5195 86.234 74.7542C83.418 79.9382 79.162 85.2022 73.698 87.2662C64.794 90.6182 60.218 83.1942 58.706 75.4662C58.6815 75.3404 58.6232 75.2237 58.5373 75.1287C58.4514 75.0337 58.3411 74.9639 58.2185 74.9268C58.0959 74.8898 57.9655 74.8869 57.8413 74.9185C57.7172 74.9501 57.604 75.015 57.514 75.1062C54.17 78.4928 50.346 81.7408 46.042 84.8502Z" fill="#FEC568"/>
<path d="M177.139 34.627C189.48 42.547 198.992 52.643 205.675 64.915C210.032 72.9203 212.787 81.5416 213.939 90.779C214.147 95.563 213.675 99.867 212.523 103.691C212.027 105.334 211.187 106.686 210.003 107.747C199.883 116.819 184.915 108.827 174.339 103.411C172.643 102.542 171.12 102.952 169.771 104.643C164.869 101.502 159.664 99.939 154.155 99.955C146.128 94.099 139.123 86.907 133.139 78.379C134.456 79.547 135.736 80.5683 136.979 81.443C138.579 82.5683 139.864 83.5683 140.835 84.443C147.571 90.531 156.235 96.635 164.851 99.651C169.019 101.107 172.235 101.651 176.379 99.691C192.291 92.179 197.363 73.379 191.483 57.371C188.939 50.451 184.539 42.211 178.571 37.619C178.462 37.5358 178.372 37.4303 178.306 37.3091C178.24 37.1879 178.199 37.0537 178.187 36.915C178.128 36.1416 177.685 35.6216 176.859 35.355C176.81 35.3396 176.765 35.3133 176.728 35.2781C176.691 35.2428 176.662 35.1995 176.644 35.1513C176.626 35.103 176.618 35.0511 176.622 34.9991C176.626 34.9472 176.641 34.8966 176.667 34.851C176.747 34.723 176.904 34.6483 177.139 34.627Z" fill="#F29A32"/>
<path d="M117.131 50.5074C112.715 71.0514 101.203 86.4194 87.6666 101.787C85.6346 104.091 83.6506 107.171 81.3226 109.699C75.1706 114.595 67.9146 118.307 60.6746 121.259C60.2249 121.444 59.8401 121.758 59.5694 122.163C59.2987 122.567 59.1543 123.044 59.1546 123.531L59.1946 134.683C59.1946 135.654 58.968 135.71 58.5146 134.851C56.3786 130.835 53.2746 120.379 46.7706 124.299C41.7946 127.299 39.6106 132.435 39.6426 138.275C39.7066 150.635 51.2346 161.699 64.0426 157.523C64.3093 157.438 64.528 157.505 64.6986 157.723C64.8053 157.857 64.864 158.035 64.8746 158.259C62.2826 159.131 65.9946 165.059 66.8106 165.947C66.9205 166.065 66.9947 166.211 67.0245 166.369C67.0544 166.527 67.0389 166.691 66.9796 166.841C66.9203 166.991 66.8197 167.122 66.6894 167.219C66.5591 167.316 66.4042 167.374 66.2426 167.387C58.2186 168.035 51.8986 176.147 55.6746 183.963C56.4746 185.627 58.1546 186.923 59.5306 188.099C60.2559 188.729 60.1466 189.129 59.2026 189.299C53.7546 190.275 51.5547 192.411 48.3787 196.755C47.6373 197.779 46.6559 198.753 45.4346 199.675C43.3866 201.233 41.616 203.041 40.1226 205.099C32.2346 198.939 24.7626 190.699 22.7306 180.867C22.1626 178.107 22.2586 174.427 23.5626 171.947C25.1626 168.939 30.3066 165.475 32.5626 169.987C32.68 170.227 32.6266 170.419 32.4026 170.563L29.3626 172.499C29.1464 172.638 28.9895 172.855 28.9226 173.107C26.8906 180.683 32.9546 185.419 40.0346 182.483C40.5154 182.284 40.902 181.909 41.116 181.433C41.33 180.958 41.3552 180.418 41.1866 179.923C38.5413 172.217 40.6613 166.366 47.5466 162.371C47.7653 162.243 47.776 162.099 47.5786 161.939C27.0587 144.939 23.7306 115.803 40.5546 94.8514C41.936 93.134 43.4107 91.6594 44.9787 90.4274C45.24 95.9794 46.1919 101.243 47.8346 106.219C48.9866 109.715 52.8586 114.931 57.0026 111.395C62.2506 106.931 72.4346 96.8514 78.2826 105.947C78.3309 106.022 78.3945 106.085 78.4692 106.133C78.5439 106.181 78.628 106.213 78.7159 106.225C78.8037 106.238 78.8932 106.232 78.9785 106.208C79.0639 106.183 79.143 106.141 79.2106 106.083C85.5146 100.691 91.7706 94.9074 96.6906 88.4754C106.893 75.1367 113.344 60.118 116.043 43.4194C116.047 43.326 116.088 43.2382 116.157 43.1752C116.226 43.1122 116.317 43.0791 116.411 43.0834C116.504 43.0876 116.592 43.1288 116.655 43.1978C116.718 43.2668 116.751 43.358 116.747 43.4514L117.131 50.5074Z" fill="#F29A32"/>
<path d="M117.13 50.5059C118.224 52.0365 119.373 54.4179 120.578 57.6499C123.298 64.9139 127.485 71.8232 133.138 78.3779C139.122 86.9059 146.128 94.0979 154.154 99.9539L150.682 102.226C141.893 96.2739 134.362 88.9805 128.09 80.3459C124.656 75.3218 121.717 70.1459 119.274 64.8179C119.082 64.4019 118.837 64.3699 118.538 64.7219C118.053 65.2979 117.522 66.1379 116.946 67.2419C111.005 78.6499 103.109 89.7192 93.2583 100.45C92.8103 100.938 92.8503 101.354 93.3143 101.786C89.0209 103.765 85.1969 106.554 81.8422 110.154C81.7462 109.674 81.5729 109.522 81.3223 109.698C83.6503 107.17 85.6343 104.09 87.6663 101.786C101.202 86.4179 112.714 71.0499 117.13 50.5059Z" fill="#FBA98B"/>
<path d="M128.091 80.3465C126.704 83.1145 126.619 85.0851 127.835 86.2585C127.99 86.4078 127.998 86.5651 127.859 86.7305L126.483 88.3785C126.291 88.6131 126.195 88.8825 126.195 89.1865L126.267 98.3945C126.267 98.7119 126.324 99.0262 126.435 99.3225C126.979 100.826 126.339 102.498 126.411 103.714C126.571 106.189 126.646 108.661 126.635 111.13C126.63 112.042 126.398 113.309 125.939 114.93C125.067 118.042 126.147 120.746 125.619 123.746C124.667 129.146 124.931 134.114 126.163 139.434C126.542 141.061 126.632 142.728 126.435 144.434C126.42 144.552 126.43 144.671 126.464 144.785C126.497 144.898 126.554 145.004 126.63 145.094C126.706 145.184 126.799 145.257 126.905 145.309C127.011 145.361 127.126 145.39 127.243 145.394C129.302 145.474 130.899 145.941 132.035 146.794C133.128 149.056 133.136 151.224 132.059 153.298C131.451 152.952 130.646 153.328 129.643 154.426C129.565 154.512 129.466 154.576 129.356 154.612C129.247 154.648 129.129 154.655 129.016 154.632C128.902 154.61 128.797 154.559 128.709 154.483C128.621 154.408 128.554 154.311 128.515 154.202C128.232 153.413 127.675 152.96 126.843 152.842C126.735 152.83 126.627 152.859 126.541 152.923C126.454 152.987 126.396 153.081 126.379 153.186C126.032 155.192 126.574 156.61 128.003 157.442C127.582 157.565 127.334 157.797 127.259 158.138C127.214 158.344 127.212 158.557 127.253 158.764C127.294 158.97 127.377 159.166 127.498 159.338C127.618 159.51 127.773 159.656 127.952 159.764C128.131 159.873 128.331 159.943 128.539 159.97C130.144 160.178 131.736 159.981 133.315 159.378C134.899 160.378 132.939 162.634 133.603 164.394C133.704 164.656 133.846 164.89 134.027 165.098C134.576 165.728 134.744 166.44 134.531 167.234C134.462 167.485 134.555 167.618 134.811 167.634C135.43 167.677 135.819 167.944 135.979 168.434C127.686 169.032 119.659 168.32 111.899 166.298C111.131 166.096 110.803 166.386 110.915 167.17C111.635 172.264 114.136 175.952 118.419 178.234C119.39 179.178 120.507 179.813 121.771 180.138L119.211 183.538C119.03 183.778 118.854 183.776 118.683 183.53L118.123 182.714C118.085 182.659 118.032 182.615 117.97 182.588C117.908 182.561 117.84 182.552 117.773 182.562C117.706 182.572 117.644 182.601 117.592 182.645C117.541 182.689 117.503 182.746 117.483 182.81L116.627 185.434C116.563 185.642 116.454 185.824 116.299 185.978C115.136 187.141 114.827 188.48 115.371 189.994C115.475 190.289 115.475 190.61 115.372 190.904C115.268 191.198 115.067 191.449 114.802 191.613C114.536 191.777 114.223 191.846 113.913 191.808C113.603 191.77 113.316 191.627 113.099 191.402C113.083 191.381 112.635 191.562 111.755 191.946C92.0509 187.922 74.211 176.418 64.875 158.258C64.8643 158.034 64.8056 157.856 64.6989 157.722C64.5283 157.504 64.3096 157.437 64.0429 157.522C51.2349 161.698 39.7069 150.634 39.6429 138.274C39.6109 132.434 41.795 127.298 46.771 124.298C53.275 120.378 56.3789 130.834 58.5149 134.85C58.9683 135.709 59.1949 135.653 59.1949 134.682L59.1549 123.53C59.1546 123.043 59.299 122.567 59.5697 122.162C59.8404 121.757 60.2252 121.443 60.675 121.258C67.915 118.306 75.171 114.594 81.3229 109.698C81.5736 109.522 81.7469 109.674 81.8429 110.154C80.0456 111.578 78.9602 113.394 78.5869 115.602C78.5474 115.829 78.5704 116.062 78.6536 116.276C78.7367 116.491 78.8768 116.679 79.0586 116.819C79.2405 116.96 79.4573 117.049 79.6857 117.075C79.9142 117.102 80.1456 117.066 80.3549 116.97C88.0749 113.466 92.8509 108.482 102.219 110.834C104.043 111.293 105.382 111.421 106.235 111.218C110.755 110.122 112.555 103.49 108.107 101.082C104.267 98.9945 97.4029 100.426 93.3149 101.786C92.8509 101.354 92.8109 100.938 93.2589 100.45C103.11 89.7198 111.006 78.6505 116.947 67.2425C117.523 66.1385 118.054 65.2985 118.539 64.7225C118.838 64.3705 119.083 64.4025 119.275 64.8185C121.718 70.1465 124.656 75.3225 128.091 80.3465ZM89.6509 149.426C96.8029 153.57 102.907 147.746 104.211 140.938C105.496 134.218 103.747 128.824 98.9629 124.754C98.3789 120.354 88.7549 123.258 86.9069 124.21C82.3949 126.53 81.1389 134.69 81.7869 138.914C82.0749 140.808 82.8883 142.776 84.227 144.818C85.059 146.082 89.1229 151.802 89.6509 149.426ZM49.7069 149.106C51.9683 151.085 54.5629 151.933 57.4909 151.65C57.8109 151.618 58.0696 151.48 58.2669 151.234C59.1096 150.178 59.3363 148.714 58.9469 146.842C57.4909 139.77 56.5389 133.89 52.1869 128.946C52.0056 128.733 51.7789 128.608 51.5069 128.57C48.6269 128.13 46.5629 129.874 45.4509 132.554C42.8536 138.848 44.2723 144.365 49.7069 149.106ZM72.1069 159.282C74.3069 176.394 104.323 169.658 96.3709 159.354C91.4963 153.034 84.8749 150.744 76.5069 152.482C73.0776 153.192 71.6109 155.458 72.1069 159.282Z" fill="#FED0B2"/>
<path d="M128.09 80.3467C134.362 88.9813 141.893 96.2747 150.682 102.227C149.135 105.843 149.813 108.469 152.714 110.107C154.37 111.043 156.234 110.659 157.938 110.075L173.282 119.083C173.73 121.723 174.386 122.891 173.73 125.683C172.386 124.072 171.234 122.957 170.274 122.339C167.77 120.739 166.722 122.451 164.354 122.091C161.597 121.664 160.037 122.272 159.674 123.915C150.602 128.643 150.338 144.427 158.986 149.627C164.698 153.059 170.226 148.635 172.434 143.459C173.437 142.979 174.33 142.011 175.114 140.555C175.234 140.331 175.284 140.074 175.258 139.819C175.194 139.131 175.455 138.445 176.042 137.763C175.93 141.459 175.034 144.235 172.41 147.179C171.119 148.629 169.941 150.203 168.874 151.899C166.165 152.8 163.858 154.269 161.954 156.307C156.082 162.571 164.498 167.427 169.754 167.435C171.498 167.44 174.237 167.035 177.97 166.219C175.901 172.987 172.127 178.552 166.65 182.915C166.627 182.933 166.611 182.959 166.605 182.987C166.598 183.016 166.602 183.046 166.615 183.072C166.628 183.098 166.65 183.119 166.677 183.131C166.703 183.144 166.734 183.146 166.762 183.139C167.791 182.872 168.65 182.352 169.338 181.579C169.551 181.339 169.738 181.355 169.898 181.627C170.09 181.947 169.994 182.453 169.61 183.147C161.461 187.899 152.682 191.208 143.274 193.075C134.37 193.459 127.882 194.307 117.346 192.891L111.754 191.947C112.634 191.563 113.082 191.381 113.098 191.403C113.315 191.627 113.602 191.77 113.912 191.808C114.222 191.846 114.535 191.778 114.801 191.613C115.066 191.449 115.267 191.199 115.371 190.904C115.474 190.61 115.474 190.289 115.37 189.995C114.826 188.48 115.135 187.141 116.298 185.979C116.453 185.824 116.562 185.643 116.626 185.435L117.482 182.811C117.502 182.746 117.54 182.689 117.591 182.645C117.643 182.601 117.705 182.573 117.772 182.563C117.839 182.553 117.907 182.562 117.969 182.589C118.031 182.615 118.084 182.659 118.122 182.715L118.682 183.531C118.853 183.776 119.029 183.779 119.21 183.539L121.77 180.139C129.109 182.379 135.821 181.821 141.906 178.467C148.055 176.125 151.442 172.107 152.066 166.411C152.083 166.259 152.061 166.105 152.002 165.963C151.943 165.822 151.849 165.698 151.729 165.603C151.609 165.508 151.467 165.444 151.316 165.419C151.165 165.394 151.01 165.408 150.866 165.459C145.933 167.181 140.97 168.173 135.978 168.435C135.818 167.944 135.429 167.677 134.81 167.635C134.554 167.619 134.461 167.485 134.53 167.235C134.743 166.44 134.575 165.728 134.026 165.099C133.845 164.891 133.703 164.656 133.602 164.395C132.938 162.635 134.898 160.379 133.314 159.379C136.61 156.429 137.359 152.723 135.562 148.259C135.098 147.107 132.706 144.243 132.034 146.795C130.898 145.941 129.301 145.475 127.242 145.395C127.125 145.39 127.01 145.361 126.904 145.309C126.798 145.258 126.705 145.184 126.629 145.094C126.553 145.004 126.496 144.899 126.463 144.785C126.429 144.672 126.419 144.552 126.434 144.435C126.631 142.728 126.541 141.061 126.162 139.435C124.93 134.115 124.666 129.147 125.618 123.747C126.146 120.747 125.066 118.043 125.938 114.931C126.397 113.309 126.629 112.043 126.634 111.131C126.645 108.661 126.57 106.189 126.41 103.715C126.338 102.499 126.978 100.827 126.434 99.3227C126.323 99.0264 126.266 98.7121 126.266 98.3947L126.194 89.1867C126.194 88.8827 126.29 88.6134 126.482 88.3787L127.858 86.7307C127.997 86.5654 127.989 86.408 127.834 86.2587C126.618 85.0854 126.703 83.1147 128.09 80.3467Z" fill="#FFC7A7"/>
<path d="M213.938 90.7793C235.226 111.059 232.674 142.939 210.586 161.419C210.562 161.44 210.542 161.466 210.529 161.496C210.516 161.525 210.509 161.557 210.51 161.589C210.511 161.621 210.519 161.653 210.534 161.682C210.548 161.711 210.569 161.736 210.594 161.755C215.626 165.691 218.282 172.427 215.146 178.443C214.434 179.811 214.475 180.915 216.027 181.611C219.264 183.067 222.218 182.798 224.89 180.803C228.322 178.251 228.795 172.043 224.219 170.195C224.105 170.151 224.003 170.082 223.919 169.995C223.834 169.907 223.77 169.802 223.729 169.687C223.688 169.572 223.672 169.45 223.682 169.328C223.692 169.206 223.727 169.087 223.786 168.979C224.997 166.766 226.834 166.219 229.298 167.339C232.314 168.715 233.835 171.907 233.979 175.251C234.091 177.865 233.68 180.355 232.746 182.723C229.002 192.299 220.714 199.723 212.362 205.403L211.875 205.259C211.523 205.158 211.41 204.937 211.538 204.595L211.867 203.739C211.952 203.51 211.965 203.278 211.906 203.043C210.914 198.915 208.688 195.665 205.227 193.291C204.992 193.137 204.88 192.918 204.89 192.635C205.152 185.777 202.005 181.726 195.45 180.483C195.353 180.464 195.263 180.416 195.192 180.347C195.12 180.278 195.07 180.189 195.048 180.093C195.025 179.996 195.03 179.894 195.064 179.801C195.097 179.707 195.156 179.624 195.234 179.563C196.989 178.257 198.917 177.321 201.019 176.755C201.162 176.717 201.293 176.642 201.398 176.538C201.504 176.434 201.581 176.304 201.621 176.161C201.661 176.018 201.664 175.867 201.629 175.723C201.593 175.579 201.521 175.447 201.419 175.339L198.298 172.051C198.138 171.886 198.096 171.691 198.171 171.467C199.045 168.875 200.221 166.651 201.698 164.795C204.333 161.489 206.52 158.329 208.258 155.315C211.042 153.113 213.053 151.078 214.29 149.211C219.101 141.953 219.282 134.614 214.834 127.195C213.186 124.451 206.323 120.651 204.371 124.891C203.107 127.633 201.832 130.361 200.546 133.075C200.264 133.673 199.797 133.926 199.146 133.835C197.922 133.659 198.33 124.515 198.298 123.027C198.291 122.604 198.155 122.193 197.908 121.85C197.66 121.507 197.314 121.248 196.915 121.107L180.075 115.267C177.435 110.851 174 107.31 169.771 104.643C171.12 102.953 172.642 102.542 174.338 103.411C184.914 108.827 199.882 116.819 210.002 107.747C211.186 106.686 212.027 105.334 212.523 103.691C213.675 99.8673 214.146 95.5633 213.938 90.7793Z" fill="#EF8B24"/>
<path d="M169.771 104.643C174 107.31 177.435 110.851 180.075 115.267L180.203 117.667C180.21 117.794 180.182 117.921 180.121 118.033C180.06 118.144 179.969 118.237 179.858 118.299C179.747 118.362 179.621 118.392 179.494 118.386C179.367 118.38 179.244 118.339 179.139 118.267C174.749 115.222 170.021 112.686 164.955 110.659C162.688 109.518 160.349 109.323 157.939 110.075C156.235 110.659 154.371 111.043 152.715 110.107C149.813 108.47 149.136 105.843 150.683 102.227L154.155 99.9552C159.664 99.9392 164.869 101.502 169.771 104.643Z" fill="#B56444"/>
<path d="M81.8422 110.154C85.1969 106.554 89.0209 103.765 93.3142 101.786C97.4022 100.426 104.266 98.9945 108.106 101.082C112.554 103.49 110.754 110.123 106.234 111.219C105.381 111.421 104.042 111.293 102.218 110.834C92.8502 108.482 88.0742 113.467 80.3542 116.971C80.1448 117.066 79.9134 117.102 79.685 117.075C79.4566 117.049 79.2398 116.96 79.0579 116.819C78.876 116.679 78.7359 116.491 78.6528 116.277C78.5697 116.062 78.5467 115.829 78.5862 115.602C78.9595 113.394 80.0449 111.578 81.8422 110.154Z" fill="#CD7A4E"/>
<path d="M164.954 110.659L178.027 118.587C178.119 118.647 178.19 118.735 178.226 118.839C178.263 118.943 178.264 119.057 178.229 119.161C178.194 119.266 178.125 119.356 178.034 119.417C177.942 119.478 177.832 119.507 177.723 119.499L173.282 119.083L157.938 110.075C160.349 109.323 162.688 109.518 164.954 110.659Z" fill="#FC8E79"/>
<path d="M164.954 110.658C170.021 112.685 174.749 115.221 179.138 118.266C179.243 118.338 179.366 118.379 179.493 118.385C179.62 118.391 179.746 118.361 179.857 118.298C179.968 118.236 180.059 118.143 180.12 118.032C180.181 117.92 180.21 117.793 180.202 117.666L180.074 115.266L196.914 121.106C197.313 121.247 197.66 121.506 197.907 121.849C198.155 122.192 198.291 122.603 198.298 123.026C198.33 124.514 197.922 133.658 199.146 133.834C199.797 133.925 200.263 133.672 200.546 133.074C201.831 130.36 203.106 127.632 204.37 124.89C206.322 120.65 213.186 124.45 214.834 127.194C219.282 134.613 219.101 141.952 214.29 149.21C213.053 151.077 211.042 153.112 208.258 155.314C203.65 158.141 199.125 158.789 194.682 157.258C194.555 157.214 194.416 157.218 194.291 157.268C194.167 157.318 194.064 157.411 194.002 157.53C188.386 168.469 180.255 177.008 169.61 183.146C169.994 182.453 170.09 181.946 169.898 181.626C169.738 181.354 169.551 181.338 169.338 181.578C168.65 182.352 167.791 182.872 166.762 183.138C166.734 183.146 166.704 183.143 166.677 183.131C166.65 183.119 166.628 183.098 166.615 183.072C166.602 183.045 166.599 183.015 166.605 182.987C166.611 182.958 166.627 182.932 166.65 182.914C172.127 178.552 175.901 172.986 177.97 166.218C180.658 164.528 183.114 162.461 185.338 160.018C187.17 158.002 191.858 148.578 184.778 149.634C179.594 150.41 174.338 150.874 168.874 151.898C169.941 150.202 171.119 148.629 172.41 147.178C175.034 144.234 175.93 141.458 176.042 137.762C176.223 133.298 175.453 129.272 173.73 125.682C174.386 122.89 173.73 121.722 173.282 119.082L177.722 119.498C177.832 119.506 177.942 119.477 178.033 119.416C178.125 119.355 178.194 119.265 178.229 119.16C178.263 119.056 178.262 118.943 178.226 118.839C178.189 118.735 178.119 118.646 178.026 118.586L164.954 110.658ZM199.882 150.73C211.498 154.466 217.658 135.218 209.266 128.178C208.066 127.176 207.079 127.184 206.306 128.202C202.834 132.762 200.445 138.224 199.138 144.586C198.858 145.946 199.018 147.378 198.738 148.786C198.654 149.192 198.724 149.615 198.936 149.974C199.147 150.333 199.484 150.602 199.882 150.73Z" fill="#FBA98B"/>
<path d="M173.73 125.683C175.452 129.272 176.223 133.299 176.042 137.763C175.455 138.446 175.194 139.131 175.258 139.819C175.284 140.075 175.234 140.331 175.114 140.555C174.33 142.011 173.436 142.979 172.434 143.459C174.754 135.16 173.044 128.843 167.306 124.507C165.306 122.998 162.762 122.8 159.674 123.915C160.036 122.272 161.596 121.664 164.354 122.091C166.722 122.451 167.77 120.739 170.274 122.339C171.234 122.958 172.386 124.072 173.73 125.683Z" fill="#FEFEFE"/>
<path d="M98.9623 124.754C93.1383 121.946 88.0582 124.882 85.8342 130.538C82.8529 138.128 84.1249 144.424 89.6502 149.426C89.1222 151.802 85.0583 146.082 84.2263 144.818C82.8876 142.776 82.0742 140.808 81.7862 138.914C81.1382 134.69 82.3943 126.53 86.9063 124.21C88.7543 123.258 98.3783 120.354 98.9623 124.754Z" fill="#FEFEFE"/>
<path d="M172.434 143.459C170.226 148.635 164.698 153.059 158.986 149.627C150.338 144.427 150.602 128.643 159.674 123.915C162.762 122.801 165.306 122.998 167.306 124.507C173.045 128.843 174.754 135.161 172.434 143.459ZM162.488 139.863C162.809 139.88 163.13 139.824 163.434 139.699C163.738 139.574 164.019 139.381 164.259 139.133C164.5 138.884 164.696 138.585 164.837 138.251C164.977 137.917 165.06 137.556 165.079 137.187C165.118 136.444 164.898 135.717 164.467 135.167C164.036 134.617 163.43 134.289 162.781 134.255C162.46 134.238 162.139 134.294 161.835 134.42C161.531 134.545 161.25 134.737 161.01 134.986C160.769 135.234 160.573 135.534 160.432 135.868C160.291 136.202 160.209 136.563 160.19 136.931C160.151 137.675 160.371 138.402 160.802 138.952C161.233 139.501 161.839 139.83 162.488 139.863Z" fill="#141319"/>
<path d="M98.9629 124.755C103.747 128.825 105.496 134.219 104.211 140.939C102.907 147.747 96.8029 153.571 89.6509 149.427C84.1256 144.425 82.8535 138.129 85.8349 130.539C88.0589 124.883 93.1389 121.947 98.9629 124.755ZM95.8659 139.733C96.4841 139.534 96.9919 139.079 97.2777 138.468C97.5634 137.856 97.6037 137.138 97.3897 136.471C97.1757 135.804 96.7248 135.244 96.1363 134.913C95.5479 134.582 94.87 134.507 94.2519 134.706C93.6337 134.904 93.1259 135.359 92.8401 135.971C92.5544 136.583 92.5141 137.301 92.7281 137.968C92.9421 138.634 93.393 139.195 93.9814 139.526C94.5699 139.857 95.2478 139.931 95.8659 139.733Z" fill="#141319"/>
<path d="M199.883 150.731C199.484 150.603 199.147 150.333 198.936 149.974C198.725 149.615 198.655 149.192 198.739 148.787C199.019 147.379 198.859 145.947 199.139 144.587C200.445 138.224 202.835 132.763 206.307 128.203C207.08 127.184 208.067 127.176 209.267 128.179C217.659 135.219 211.499 154.467 199.883 150.731Z" fill="#FC8E79"/>
<path d="M49.7063 149.107C44.2716 144.365 42.853 138.848 45.4503 132.555C46.5623 129.875 48.6263 128.131 51.5063 128.571C51.7783 128.608 52.0049 128.733 52.1863 128.947C56.5383 133.891 57.4903 139.771 58.9463 146.843C59.3356 148.715 59.109 150.179 58.2663 151.235C58.069 151.48 57.8103 151.619 57.4903 151.651C54.5623 151.933 51.9676 151.085 49.7063 149.107Z" fill="#FBA98B"/>
<path d="M160.189 136.931C160.108 138.479 161.137 139.792 162.487 139.863C163.837 139.934 164.997 138.736 165.079 137.187C165.16 135.638 164.131 134.325 162.781 134.255C161.431 134.184 160.271 135.382 160.189 136.931Z" fill="#FEFEFE"/>
<path d="M92.7274 137.966C93.1732 139.355 94.578 140.145 95.8653 139.732C97.1526 139.318 97.8348 137.858 97.3891 136.47C96.9434 135.081 95.5385 134.291 94.2512 134.704C92.9639 135.118 92.2817 136.578 92.7274 137.966Z" fill="#FEFEFE"/>
<path d="M133.314 159.379C131.736 159.982 130.143 160.179 128.538 159.971C128.33 159.944 128.13 159.874 127.951 159.765C127.772 159.656 127.617 159.511 127.497 159.339C127.376 159.167 127.293 158.971 127.252 158.764C127.211 158.558 127.213 158.345 127.258 158.139C127.333 157.798 127.581 157.566 128.002 157.443C129.922 156.238 131.274 154.857 132.058 153.299C133.136 151.225 133.127 149.057 132.034 146.795C132.706 144.243 135.098 147.107 135.562 148.259C137.36 152.723 136.61 156.43 133.314 159.379Z" fill="#FBA98B"/>
<path d="M177.97 166.219C174.237 167.035 171.498 167.44 169.754 167.435C164.498 167.427 156.082 162.571 161.954 156.307C163.858 154.27 166.165 152.8 168.874 151.899C174.338 150.875 179.594 150.411 184.778 149.635C191.858 148.579 187.17 158.003 185.338 160.019C183.114 162.462 180.658 164.528 177.97 166.219Z" fill="#FC8E79"/>
<path d="M96.3707 159.355C104.323 169.659 74.3067 176.395 72.1067 159.283C71.6107 155.459 73.0774 153.192 76.5067 152.483C84.8747 150.744 91.4961 153.035 96.3707 159.355Z" fill="#FBA98B"/>
<path d="M132.058 153.299C131.274 154.856 129.922 156.237 128.002 157.443C126.573 156.611 126.031 155.192 126.378 153.187C126.395 153.082 126.453 152.987 126.54 152.923C126.626 152.859 126.734 152.83 126.842 152.843C127.674 152.96 128.231 153.413 128.514 154.203C128.553 154.311 128.62 154.408 128.708 154.483C128.796 154.559 128.901 154.61 129.015 154.633C129.128 154.655 129.245 154.648 129.355 154.612C129.465 154.576 129.564 154.512 129.642 154.427C130.645 153.328 131.45 152.952 132.058 153.299Z" fill="#FEFEFE"/>
<path d="M208.258 155.314C206.519 158.328 204.333 161.488 201.698 164.794C200.221 166.65 199.045 168.874 198.17 171.466C198.095 171.69 198.138 171.885 198.298 172.05L201.418 175.338C201.52 175.446 201.593 175.578 201.628 175.723C201.664 175.867 201.661 176.017 201.621 176.16C201.58 176.303 201.504 176.433 201.398 176.537C201.292 176.641 201.161 176.716 201.018 176.754C198.917 177.32 196.989 178.256 195.234 179.562C195.155 179.624 195.096 179.706 195.063 179.8C195.03 179.894 195.024 179.995 195.047 180.092C195.07 180.189 195.12 180.277 195.191 180.346C195.263 180.415 195.353 180.463 195.45 180.482C202.005 181.725 205.151 185.776 204.89 192.634C204.879 192.917 204.991 193.136 205.226 193.29C208.687 195.664 210.914 198.914 211.906 203.042C211.965 203.277 211.951 203.509 211.866 203.738L211.538 204.594C211.41 204.936 211.522 205.157 211.874 205.258L212.362 205.402C203.231 211.114 193.29 215.432 182.538 218.354C177.81 206.746 171.002 198.578 158.362 195.65C153.861 194.605 149.775 194.221 146.106 194.498C143.877 194.504 142.933 194.029 143.274 193.074C152.682 191.208 161.461 187.898 169.61 183.146C180.255 177.008 188.386 168.469 194.002 157.53C194.064 157.411 194.167 157.318 194.291 157.268C194.416 157.218 194.555 157.215 194.682 157.258C199.125 158.789 203.65 158.141 208.258 155.314Z" fill="#D87317"/>
<path d="M64.8741 158.259C74.2101 176.419 92.0501 187.923 111.754 191.947L117.346 192.891C115.554 195.611 111.922 195.275 109.098 195.507C105.322 195.283 102.81 195.336 101.562 195.667C94.3621 197.587 87.1701 201.515 82.5781 207.451C80.4741 210.163 77.682 214.571 77.298 218.043C76.9727 218.832 76.89 219.52 77.05 220.107C77.0826 220.229 77.0829 220.357 77.0511 220.479C77.0192 220.6 76.9563 220.712 76.8684 220.802C76.7805 220.893 76.6707 220.959 76.5497 220.994C76.4287 221.029 76.3007 221.032 76.1781 221.003C63.2421 217.819 50.8341 213.035 40.1221 205.099C41.6154 203.04 43.386 201.232 45.434 199.675C46.6554 198.752 47.6367 197.779 48.3781 196.755C51.5541 192.411 53.7541 190.275 59.2021 189.299C60.1461 189.128 60.2554 188.728 59.53 188.099C58.154 186.923 56.4741 185.627 55.6741 183.963C51.8981 176.147 58.218 168.035 66.242 167.387C66.4036 167.373 66.5585 167.315 66.6888 167.218C66.8192 167.122 66.9197 166.991 66.979 166.841C67.0383 166.69 67.0539 166.527 67.024 166.369C66.9941 166.211 66.92 166.064 66.8101 165.947C65.9941 165.059 62.2821 159.131 64.8741 158.259Z" fill="#EF8B24"/>
<path d="M141.906 178.467C140.727 176.008 138.791 174.51 136.098 173.971C131.594 173.067 120.458 172.595 118.418 178.235C114.135 175.952 111.634 172.264 110.914 167.171C110.802 166.387 111.13 166.096 111.898 166.299C119.658 168.32 127.685 169.032 135.978 168.435C140.97 168.174 145.933 167.182 150.866 165.459C151.01 165.408 151.165 165.394 151.316 165.42C151.467 165.445 151.609 165.508 151.729 165.603C151.849 165.698 151.943 165.822 152.002 165.964C152.061 166.105 152.083 166.259 152.066 166.411C151.442 172.107 148.055 176.126 141.906 178.467Z" fill="#2D242F"/>
<path d="M141.906 178.467C135.821 181.821 129.109 182.379 121.77 180.139C120.506 179.813 119.389 179.179 118.418 178.235C120.458 172.595 131.594 173.067 136.098 173.971C138.791 174.509 140.727 176.008 141.906 178.467Z" fill="#FC8E79"/>
<path d="M117.347 192.891C127.883 194.307 134.371 193.459 143.275 193.075C142.933 194.029 143.877 194.504 146.107 194.499L152.707 195.547C152.979 195.589 153.12 195.749 153.131 196.027C153.2 198.197 152.661 200.189 151.515 202.003C143.435 214.803 126.435 216.483 114.555 208.275C113.045 207.229 111.373 205.088 109.539 201.851L108.099 197.459C108.237 196.68 108.571 196.029 109.099 195.507C111.923 195.275 115.555 195.611 117.347 192.891Z" fill="#FBA98B"/>
<path d="M182.539 218.355C174.693 221.491 167.128 223.966 159.843 225.779C160.429 218.201 160.941 210.494 161.379 202.659C161.464 201.225 161.357 199.737 161.059 198.195C161.033 198.061 160.965 197.938 160.866 197.844C160.767 197.751 160.641 197.692 160.507 197.675L154.907 196.963C154.517 196.915 154.272 197.083 154.171 197.467C151.259 208.643 142.843 218.355 130.955 218.971C121.115 219.483 108.843 213.747 106.323 202.931C106.248 202.211 106.291 201.689 106.451 201.363C106.616 201.022 106.741 201.035 106.827 201.403C107.301 203.371 108.117 205.179 109.275 206.827C109.445 207.067 109.653 207.11 109.899 206.955C110.357 206.667 110.445 206.23 110.163 205.643C109.304 203.873 109.096 202.609 109.539 201.851C111.373 205.089 113.045 207.23 114.555 208.275C126.435 216.483 143.435 214.803 151.515 202.003C152.661 200.19 153.2 198.198 153.131 196.027C153.12 195.75 152.979 195.59 152.707 195.547L146.107 194.499C149.776 194.222 153.861 194.606 158.363 195.651C171.003 198.579 177.811 206.747 182.539 218.355Z" fill="#6AC38D"/>
<path d="M109.099 195.507C108.571 196.029 108.238 196.68 108.099 197.459C106.494 196.557 104.187 196.397 101.179 196.979C100.387 197.131 100.323 197.555 100.267 198.267C99.6962 208.768 99.5415 215.816 99.8029 219.411C99.9895 221.923 99.9735 223.979 99.7549 225.579L79.3868 219.875C77.9895 219.608 77.2935 218.997 77.2989 218.043C77.6829 214.571 80.4749 210.163 82.5789 207.451C87.1709 201.515 94.3629 197.587 101.563 195.667C102.811 195.336 105.323 195.283 109.099 195.507Z" fill="#6AC38D"/>
<path d="M108.099 197.459L109.539 201.851C109.096 202.608 109.304 203.872 110.163 205.643C110.445 206.229 110.357 206.667 109.899 206.955C109.653 207.109 109.445 207.067 109.275 206.827C108.117 205.179 107.301 203.371 106.827 201.403C106.741 201.035 106.616 201.021 106.451 201.363C106.291 201.688 106.248 202.211 106.323 202.931L105.947 201.219C105.888 200.936 105.968 200.701 106.187 200.515C107.667 199.275 106.291 196.875 104.515 197.843C104.312 197.955 104.093 197.997 103.859 197.971C102.499 197.795 101.371 196.851 100.267 198.267C100.323 197.555 100.387 197.131 101.179 196.979C104.187 196.397 106.493 196.557 108.099 197.459Z" fill="#FEC568"/>
<path d="M159.842 225.779C139.914 229.883 119.538 229.963 99.7538 225.579C99.9725 223.979 99.9885 221.923 99.8018 219.411C99.5405 215.816 99.6952 208.768 100.266 198.267C101.37 196.851 102.498 197.795 103.858 197.971C104.093 197.998 104.311 197.955 104.514 197.843C106.29 196.875 107.666 199.275 106.186 200.515C105.967 200.702 105.887 200.936 105.946 201.219L106.322 202.931C108.842 213.747 121.114 219.483 130.954 218.971C142.842 218.355 151.258 208.643 154.17 197.467C154.271 197.083 154.517 196.915 154.906 196.963L160.506 197.675C160.64 197.692 160.766 197.751 160.865 197.844C160.965 197.938 161.032 198.06 161.058 198.195C161.357 199.736 161.463 201.224 161.378 202.659C160.941 210.494 160.428 218.2 159.842 225.779Z" fill="#EF8B24"/>
</svg>
